<?xml version="1.0" encoding="UTF-8"?>
<svg width="233px" height="121px" viewBox="0 0 233 121" version="1.1" xmlns="http://www.w3.org/2000/svg" xmlns:xlink="http://www.w3.org/1999/xlink">
    <!-- Generator: Sketch 43.2 (39069) - http://www.bohemiancoding.com/sketch -->
    <title>Airbnb</title>
    <desc>Created with Sketch.</desc>
    <defs></defs>
    <g id="Page-1" stroke="none" stroke-width="1" fill="none" fill-rule="evenodd">
        <g id="Logos" transform="translate(-119.000000, -2536.000000)">
            <g id="Airbnb" transform="translate(119.000000, 2536.000000)">
                <rect id="Rectangle-3-Copy-3" fill="#FFFFFF" x="-1.42108547e-14" y="0" width="233" height="121"></rect>
                <g id="airbnb-logo" transform="translate(49.000000, 37.000000)" fill-rule="nonzero" fill="#FF5A5F">
                    <path d="M71.1475155,10.542 C71.1475155,12.054 69.931677,13.272 68.4223602,13.272 C66.9130435,13.272 65.697205,12.054 65.697205,10.542 C65.697205,9.03 66.871118,7.812 68.4223602,7.812 C69.9736025,7.854 71.1475155,9.072 71.1475155,10.542 Z M59.9114907,16.044 L59.9114907,16.716 C59.9114907,16.716 58.6118012,15.036 55.8447205,15.036 C51.2748447,15.036 47.7111801,18.522 47.7111801,23.352 C47.7111801,28.14 51.2329193,31.668 55.8447205,31.668 C58.6537267,31.668 59.9114907,29.946 59.9114907,29.946 L59.9114907,30.66 C59.9114907,30.996 60.1630435,31.248 60.4984472,31.248 L63.8944099,31.248 L63.8944099,15.456 L60.4984472,15.456 C60.1630435,15.456 59.9114907,15.75 59.9114907,16.044 Z M59.9114907,26.166 C59.2826087,27.09 58.0248447,27.888 56.515528,27.888 C53.8322981,27.888 51.7779503,26.208 51.7779503,23.352 C51.7779503,20.496 53.8322981,18.816 56.515528,18.816 C57.9829193,18.816 59.3245342,19.656 59.9114907,20.538 L59.9114907,26.166 Z M66.4099379,15.456 L70.4347826,15.456 L70.4347826,31.248 L66.4099379,31.248 L66.4099379,15.456 Z M126.531056,15.036 C123.763975,15.036 122.464286,16.716 122.464286,16.716 L122.464286,7.854 L118.439441,7.854 L118.439441,31.248 L121.835404,31.248 C122.170807,31.248 122.42236,30.954 122.42236,30.66 L122.42236,29.946 L122.42236,29.946 C122.42236,29.946 123.72205,31.668 126.48913,31.668 C131.059006,31.668 134.622671,28.14 134.622671,23.352 C134.622671,18.564 131.059006,15.036 126.531056,15.036 Z M125.860248,27.846 C124.309006,27.846 123.093168,27.048 122.464286,26.124 L122.464286,20.496 C123.093168,19.656 124.434783,18.774 125.860248,18.774 C128.543478,18.774 130.597826,20.454 130.597826,23.31 C130.597826,26.166 128.543478,27.846 125.860248,27.846 Z M116.343168,21.882 L116.343168,31.29 L112.318323,31.29 L112.318323,22.344 C112.318323,19.74 111.479814,18.69 109.215839,18.69 C108,18.69 106.742236,19.32 105.945652,20.244 L105.945652,31.248 L101.920807,31.248 L101.920807,15.456 L105.107143,15.456 C105.442547,15.456 105.694099,15.75 105.694099,16.044 L105.694099,16.716 C106.868012,15.498 108.419255,15.036 109.970497,15.036 C111.731366,15.036 113.198758,15.54 114.372671,16.548 C115.798137,17.724 116.343168,19.236 116.343168,21.882 Z M92.1521739,15.036 C89.3850932,15.036 88.0854037,16.716 88.0854037,16.716 L88.0854037,7.854 L84.060559,7.854 L84.060559,31.248 L87.4565217,31.248 C87.7919255,31.248 88.0434783,30.954 88.0434783,30.66 L88.0434783,29.946 L88.0434783,29.946 C88.0434783,29.946 89.3431677,31.668 92.1102484,31.668 C96.6801242,31.668 100.243789,28.14 100.243789,23.352 C100.285714,18.564 96.7220497,15.036 92.1521739,15.036 Z M91.4813665,27.846 C89.9301242,27.846 88.7142857,27.048 88.0854037,26.124 L88.0854037,20.496 C88.7142857,19.656 90.0559006,18.774 91.4813665,18.774 C94.1645963,18.774 96.2189441,20.454 96.2189441,23.31 C96.2189441,26.166 94.1645963,27.846 91.4813665,27.846 Z M80.5807453,15.036 C81.7965839,15.036 82.4254658,15.246 82.4254658,15.246 L82.4254658,18.984 C82.4254658,18.984 79.0714286,17.85 76.9751553,20.244 L76.9751553,31.29 L72.9503106,31.29 L72.9503106,15.456 L76.3462733,15.456 C76.681677,15.456 76.9332298,15.75 76.9332298,16.044 L76.9332298,16.716 C77.6878882,15.834 79.3229814,15.036 80.5807453,15.036 Z M38.7810559,29.82 C38.5714286,29.316 38.3618012,28.77 38.1521739,28.308 C37.8167702,27.552 37.4813665,26.838 37.1878882,26.166 L37.1459627,26.124 C34.2531056,19.824 31.1506211,13.44 27.8804348,7.14 L27.7546584,6.888 C27.4192547,6.258 27.0838509,5.586 26.7484472,4.914 C26.3291925,4.158 25.9099379,3.36 25.2391304,2.604 C23.8975155,0.924 21.9689441,0 19.9145963,0 C17.818323,0 15.931677,0.924 14.5481366,2.52 C13.9192547,3.276 13.4580745,4.074 13.0388199,4.83 C12.7034161,5.502 12.3680124,6.174 12.0326087,6.804 L11.9068323,7.056 C8.67857143,13.356 5.53416149,19.74 2.64130435,26.04 L2.59937888,26.124 C2.30590062,26.796 1.97049689,27.51 1.63509317,28.266 C1.42546584,28.728 1.21583851,29.232 1.00621118,29.778 C0.461180124,31.332 0.293478261,32.802 0.50310559,34.314 C0.964285714,37.464 3.06055901,40.11 5.95341615,41.286 C7.04347826,41.748 8.17546584,41.958 9.34937888,41.958 C9.68478261,41.958 10.1040373,41.916 10.439441,41.874 C11.8229814,41.706 13.2484472,41.244 14.6319876,40.446 C16.3509317,39.48 17.9860248,38.094 19.8307453,36.078 C21.6754658,38.094 23.3524845,39.48 25.0295031,40.446 C26.4130435,41.244 27.8385093,41.706 29.2220497,41.874 C29.5574534,41.916 29.9767081,41.958 30.3121118,41.958 C31.4860248,41.958 32.6599379,41.748 33.7080745,41.286 C36.6428571,40.11 38.697205,37.422 39.1583851,34.314 C39.4937888,32.844 39.326087,31.374 38.7810559,29.82 Z M19.8726708,32.004 C17.6086957,29.148 16.1413043,26.46 15.6381988,24.192 C15.4285714,23.226 15.386646,22.386 15.5124224,21.63 C15.5962733,20.958 15.8478261,20.37 16.1832298,19.866 C16.9798137,18.732 18.3214286,18.018 19.8726708,18.018 C21.423913,18.018 22.8074534,18.69 23.5621118,19.866 C23.8975155,20.37 24.1490683,20.958 24.2329193,21.63 C24.3586957,22.386 24.3167702,23.268 24.1071429,24.192 C23.6040373,26.418 22.136646,29.106 19.8726708,32.004 Z M36.6009317,33.978 C36.3074534,36.162 34.8400621,38.052 32.7857143,38.892 C31.7795031,39.312 30.689441,39.438 29.5993789,39.312 C28.5512422,39.186 27.5031056,38.85 26.4130435,38.22 C24.9037267,37.38 23.3944099,36.078 21.6335404,34.146 C24.4006211,30.744 26.0776398,27.636 26.7065217,24.864 C27,23.562 27.0419255,22.386 26.9161491,21.294 C26.7484472,20.244 26.371118,19.278 25.7841615,18.438 C24.484472,16.548 22.3043478,15.456 19.8726708,15.456 C17.4409938,15.456 15.2608696,16.59 13.9611801,18.438 C13.3742236,19.278 12.9968944,20.244 12.8291925,21.294 C12.6614907,22.386 12.7034161,23.604 13.0388199,24.864 C13.6677019,27.636 15.386646,30.786 18.1118012,34.188 C16.3928571,36.12 14.8416149,37.422 13.3322981,38.262 C12.242236,38.892 11.1940994,39.228 10.1459627,39.354 C9.01397516,39.48 7.92391304,39.312 6.95962733,38.934 C4.9052795,38.094 3.4378882,36.204 3.14440994,34.02 C3.01863354,32.97 3.10248447,31.92 3.52173913,30.744 C3.64751553,30.324 3.85714286,29.904 4.06677019,29.4 C4.36024845,28.728 4.69565217,28.014 5.0310559,27.3 L5.07298137,27.216 C7.96583851,20.958 11.068323,14.574 14.2965839,8.358 L14.4223602,8.106 C14.757764,7.476 15.0931677,6.804 15.4285714,6.174 C15.7639752,5.502 16.1413043,4.872 16.6024845,4.326 C17.4829193,3.318 18.6568323,2.772 19.9565217,2.772 C21.2562112,2.772 22.4301242,3.318 23.310559,4.326 C23.7717391,4.872 24.1490683,5.502 24.484472,6.174 C24.8198758,6.804 25.1552795,7.476 25.4906832,8.106 L25.6164596,8.358 C28.802795,14.616 31.9052795,21 34.7981366,27.258 L34.7981366,27.3 C35.1335404,27.972 35.4270186,28.728 35.7624224,29.4 C35.9720497,29.904 36.181677,30.324 36.3074534,30.744 C36.6428571,31.836 36.7686335,32.886 36.6009317,33.978 Z" id="Shape"></path>
                </g>
            </g>
        </g>
    </g>
</svg>