<?xml version="1.0" encoding="UTF-8"?>
<svg width="233px" height="121px" viewBox="0 0 233 121" version="1.1" xmlns="http://www.w3.org/2000/svg" xmlns:xlink="http://www.w3.org/1999/xlink">
    <!-- Generator: Sketch 43.2 (39069) - http://www.bohemiancoding.com/sketch -->
    <title>Atlassian</title>
    <desc>Created with Sketch.</desc>
    <defs>
        <linearGradient x1="99.684716%" y1="15.8138128%" x2="39.8444399%" y2="97.4388388%" id="linearGradient-1">
            <stop stop-color="#0052CC" offset="0%"></stop>
            <stop stop-color="#2684FF" offset="92.3%"></stop>
        </linearGradient>
    </defs>
    <g id="Page-1" stroke="none" stroke-width="1" fill="none" fill-rule="evenodd">
        <g id="Logos" transform="translate(-119.000000, -3160.000000)">
            <g id="Atlassian" transform="translate(119.000000, 3160.000000)">
                <rect id="Rectangle-3-Copy-6" fill="#FFFFFF" x="-1.42108547e-14" y="0" width="233" height="121"></rect>
                <g id="Atlassian-horizontal-blue-rgb" transform="translate(30.000000, 48.000000)" fill-rule="nonzero">
                    <path d="M6.47973783,9.90022727 C6.35421248,9.7360565 6.15196739,9.64939448 5.94644634,9.67171188 C5.74092528,9.69402928 5.56202067,9.82208009 5.47470037,10.0093636 L0.382022472,20.1860909 C0.287693796,20.3746673 0.297777127,20.5986126 0.40867183,20.7779585 C0.519566532,20.9573045 0.715461306,21.06648 0.926404494,21.0665 L8.01769663,21.0665 C8.24974263,21.0718845 8.46315187,20.9400406 8.56207865,20.7301818 C10.0917603,17.5709545 9.1647191,12.7673636 6.47973783,9.90022727 Z" id="Shape" fill="url(#linearGradient-1)"></path>
                    <path d="M10.2149625,0.644 C7.63341011,4.61405849 7.33545966,9.6497874 9.43086142,13.8962727 L12.8496442,20.7301818 C12.9527374,20.9362798 13.1634833,21.0664782 13.3940262,21.0665 L20.4840449,21.0665 C20.6949881,21.06648 20.8908829,20.9573045 21.0017776,20.7779585 C21.1126723,20.5986126 21.1227556,20.3746673 21.028427,20.1860909 C21.028427,20.1860909 11.4899625,1.11713636 11.2502434,0.640181818 C11.15353,0.442073578 10.9519534,0.316719693 10.7314047,0.317533091 C10.5108561,0.318346488 10.3102105,0.445183794 10.2149625,0.644 L10.2149625,0.644 Z" id="Shape" fill="#2684FF"></path>
                    <path d="M93.3771161,8.80377273 C93.3771161,11.3237727 94.5467416,13.3245 99.121779,14.2077727 C101.85133,14.7805 102.42309,15.2208636 102.42309,16.1302273 C102.42309,17.0135 101.850056,17.5852727 99.9275281,17.5852727 C97.6039105,17.543517 95.3267482,16.9276642 93.2991199,15.7926364 L93.2991199,19.8971818 C94.6769476,20.5726818 96.4963296,21.3261364 99.8756367,21.3261364 C104.658558,21.3261364 106.556255,19.1943182 106.556255,16.0261818 M106.556255,16.0261818 C106.556255,13.0384545 104.970543,11.6352727 100.499607,10.6743636 C98.0301498,10.1286818 97.4322846,9.58331818 97.4322846,8.80377273 C97.4322846,7.81740909 98.31603,7.40090909 99.953633,7.40090909 C101.929326,7.40090909 103.878914,7.99845455 105.724401,8.82986364 L105.724401,4.90668182 C103.954788,4.10167024 102.027488,3.70226218 100.083521,3.73768182 C95.6644757,3.73768182 93.3771161,5.66013636 93.3771161,8.80377273" id="Shape" fill="#0052CC"></path>
                    <polygon id="Shape" fill="#0052CC" points="154.824794 3.99731818 154.824794 21.0665 158.463876 21.0665 158.463876 8.05031818 159.997697 11.5054545 165.144494 21.0665 169.719532 21.0665 169.719532 3.99731818 166.080449 3.99731818 166.080449 15.0130909 164.702622 11.8172727 160.569457 3.99731818"></polygon>
                    <rect id="Rectangle-path" fill="#0052CC" x="127.701517" y="3.99731818" width="3.97717228" height="17.0691818"></rect>
                    <path d="M123.112472,16.0261818 C123.112472,13.0384545 121.52676,11.6352727 117.055824,10.6743636 C114.586367,10.1286818 113.988502,9.58331818 113.988502,8.80377273 C113.988502,7.81740909 114.872247,7.40090909 116.50985,7.40090909 C118.485543,7.40090909 120.435131,7.99845455 122.280618,8.82986364 L122.280618,4.90668182 C120.511005,4.10167024 118.583706,3.70226218 116.639738,3.73768182 C112.220693,3.73768182 109.933333,5.66013636 109.933333,8.80377273 C109.933333,11.3237727 111.102959,13.3245 115.677996,14.2077727 C118.407547,14.7805 118.979307,15.2208636 118.979307,16.1302273 C118.979307,17.0135 118.406273,17.5852727 116.483745,17.5852727 C114.160128,17.543517 111.882965,16.9276642 109.855337,15.7926364 L109.855337,19.8971818 C111.233165,20.5726818 113.052547,21.3261364 116.431854,21.3261364 C121.214775,21.3261364 123.112472,19.1943182 123.112472,16.0261818" id="Shape" fill="#0052CC"></path>
                    <polygon id="Shape" fill="#0052CC" points="62.481367 3.99731818 62.481367 21.0665 70.6560112 21.0665 71.9431086 17.3771818 66.4843258 17.3771818 66.4843258 3.99731818"></polygon>
                    <polygon id="Shape" fill="#0052CC" points="46.3307303 3.99731818 46.3307303 7.68631818 50.7497753 7.68631818 50.7497753 21.0665 54.7527341 21.0665 54.7527341 7.68631818 59.483764 7.68631818 59.483764 3.99731818"></polygon>
                    <path d="M40.5262172,3.99731818 L35.2800936,3.99731818 L29.3246816,21.0665 L33.8726592,21.0665 L34.7169288,18.1917273 C36.7962315,18.8019551 39.0072142,18.8019551 41.0865169,18.1917273 L41.9307865,21.0665 L46.4797191,21.0665 L40.5262172,3.99731818 Z M37.9029963,15.1136364 C37.1621581,15.1135934 36.4251357,15.0076261 35.7143258,14.7989545 L37.9029963,7.35 L40.0916667,14.8015 C39.3807316,15.0093104 38.6437117,15.1144202 37.9029963,15.1136364 L37.9029963,15.1136364 Z" id="Shape" fill="#0052CC"></path>
                    <path d="M84.7488202,3.99731818 L79.503015,3.99731818 L73.547603,21.0665 L78.0965356,21.0665 L78.9408052,18.1917273 C81.0201079,18.8019551 83.2310906,18.8019551 85.3103933,18.1917273 L86.1546629,21.0665 L90.7035955,21.0665 L84.7488202,3.99731818 Z M82.1259176,15.1136364 C81.3850795,15.1135934 80.6480571,15.0076261 79.9372472,14.7989545 L82.1259176,7.35 L84.314588,14.8015 C83.603653,15.0093104 82.8666331,15.1144202 82.1259176,15.1136364 L82.1259176,15.1136364 Z" id="Shape" fill="#0052CC"></path>
                    <path d="M146.010262,3.99731818 L140.764457,3.99731818 L134.809045,21.0665 L139.357978,21.0665 L140.202247,18.1917273 C142.28155,18.8019551 144.492533,18.8019551 146.571835,18.1917273 L147.416105,21.0665 L151.965356,21.0665 L146.010262,3.99731818 Z M143.385768,15.1136364 C142.64493,15.1135934 141.907907,15.0076261 141.197097,14.7989545 L143.385768,7.35 L145.574438,14.8015 C144.863503,15.0093104 144.126483,15.1144202 143.385768,15.1136364 L143.385768,15.1136364 Z" id="Shape" fill="#0052CC"></path>
                </g>
            </g>
        </g>
    </g>
</svg>