<?xml version="1.0" encoding="UTF-8"?>
<svg width="233px" height="121px" viewBox="0 0 233 121" version="1.1" xmlns="http://www.w3.org/2000/svg" xmlns:xlink="http://www.w3.org/1999/xlink">
    <!-- Generator: Sketch 43.2 (39069) - http://www.bohemiancoding.com/sketch -->
    <title>Atlassian</title>
    <desc>Created with Sketch.</desc>
    <defs>
        <polygon id="path-1" points="0.127672956 20.8627451 15.9868553 20.8627451 15.9868553 0.00491921569 0.127672956 0.00491921569 0.127672956 20.8627451"></polygon>
        <polygon id="path-3" points="14.3925503 20.8627451 0.0707779385 20.8627451 0.0707779385 0.00491921569 14.3925503 0.00491921569 14.3925503 20.8627451"></polygon>
        <polygon id="path-5" points="14.3688868 20.8627451 0.0470519631 20.8627451 0.0470519631 0.00491921569 14.3688868 0.00491921569 14.3688868 20.8627451"></polygon>
        <polygon id="path-7" points="0.00213522013 20.8627451 15.8613176 20.8627451 15.8613176 0.00491921569 0.00213522013 0.00491921569"></polygon>
        <polygon id="path-9" points="17.223522 0.00494117647 17.223522 20.4633882 0.202603774 20.4633882 0.202603774 0.00494117647 17.223522 0.00494117647"></polygon>
        <polygon id="path-11" points="40.2837047 0.0283294118 174.833585 0.0283294118 174.833585 37.1137255 0 37.1137255 0 0.0283294118 40.2837047 0.0283294118 1.90020533e-05 0.0282635294 1.90020533e-05 8.26729098 40.2837047 8.26729098 40.2837047 0.0283294118"></polygon>
    </defs>
    <g id="Page-1" stroke="none" stroke-width="1" fill="none" fill-rule="evenodd">
        <g id="Logos" transform="translate(-119.000000, -3160.000000)">
            <g id="Atlassian" transform="translate(119.000000, 3160.000000)">
                <rect id="Rectangle-3-Copy-6" fill="#FFFFFF" x="-1.42108547e-14" y="0" width="233" height="121"></rect>
                <g id="Page-1" transform="translate(28.000000, 37.000000)">
                    <path d="M51.0206667,10.1759247 C50.9299748,9.88801882 50.6620818,9.69256784 50.3594088,9.69256784 L43.8892516,9.69256784 C43.5865786,9.69256784 43.3189057,9.88801882 43.2279937,10.1759247 L35.0644088,36.00576 C34.9979308,36.2161443 35.0357925,36.4449757 35.1665472,36.6232973 C35.2968616,36.8005208 35.5046604,36.9057129 35.7256667,36.9057129 L40.1801321,36.9057129 C40.4874277,36.9057129 40.7581824,36.7038933 40.8451321,36.4093992 L46.4669245,17.4131012 C46.4669245,17.4131012 46.6139686,16.9391875 47.1231195,16.9391875 C47.6408553,16.9391875 47.7667673,17.4324267 47.7667673,17.4328659 L50.3750377,26.4403012 L46.8710755,26.4403012 C46.560478,26.4403012 46.287522,26.6460737 46.2036541,26.9445208 L45.1983396,30.5109522 C45.1393459,30.7197992 45.1820503,30.94336 45.3130252,31.1157522 C45.444,31.2885835 45.648717,31.3898227 45.865761,31.3898227 L51.8333711,31.3898227 L53.4044088,36.4197208 C53.4946604,36.7087247 53.7627736,36.9057129 54.0665472,36.9057129 L58.5229937,36.9057129 C58.7442201,36.9057129 58.9517987,36.8005208 59.0823333,36.6232973 C59.2130881,36.4449757 59.2509497,36.2161443 59.1844717,36.00576 L51.0206667,10.1759247 Z" id="Fill-1" fill="#1F5081"></path>
                    <path d="M70.4289151,32.9250792 C70.3994182,32.7324831 70.2906761,32.561189 70.1282233,32.4529224 C69.9655503,32.3444361 69.7652358,32.309738 69.5757075,32.3569537 C68.8525943,32.5363733 68.1596384,32.6354165 67.625173,32.6354165 C66.6112736,32.6354165 66.1595755,32.1968596 66.1595755,31.2134557 L66.1595755,21.3172675 L70.1376887,21.3172675 C70.5204874,21.3172675 70.8310849,21.0069616 70.8310849,20.6252831 L70.8310849,17.5386949 C70.8310849,17.1565773 70.5204874,16.8471498 70.1376887,16.8471498 L66.1595755,16.8471498 L66.1595755,12.0816596 C66.1595755,11.8815969 66.0728459,11.6914165 65.9213994,11.560091 C65.770173,11.4287655 65.5685377,11.3692518 65.3704245,11.3967027 L61.2749843,11.9659263 C60.9322484,12.0135812 60.6769025,12.3058792 60.6769025,12.6508831 L60.6769025,16.8471498 L58.4459277,16.8471498 C58.0629088,16.8471498 57.7525314,17.1565773 57.7525314,17.5386949 L57.7525314,20.6252831 C57.7525314,21.0069616 58.0629088,21.3172675 58.4459277,21.3172675 L60.6769025,21.3172675 L60.6769025,31.8527341 C60.6769025,35.4709929 62.5834119,37.304938 66.3429403,37.304938 C67.4129717,37.304938 69.2298899,37.0591969 70.4179088,36.6469929 C70.7335692,36.5378478 70.9261792,36.2198557 70.8762107,35.8913224 L70.4289151,32.9250792 Z" id="Fill-3" fill="#1F5081"></path>
                    <path d="M78.0112138,9.18876549 L73.9157736,9.18876549 C73.5327547,9.18876549 73.2221572,9.49819294 73.2221572,9.8807498 L73.2221572,36.2139263 C73.2221572,36.5960439 73.5327547,36.905691 73.9157736,36.905691 L78.0112138,36.905691 C78.3940126,36.905691 78.7046101,36.5960439 78.7046101,36.2139263 L78.7046101,9.8807498 C78.7046101,9.49819294 78.3940126,9.18876549 78.0112138,9.18876549" id="Fill-5" fill="#1F5081"></path>
                    <g id="Group-9" transform="translate(80.786164, 16.442259)">
                        <mask id="mask-2" fill="white">
                            <use xlink:href="#path-1"></use>
                        </mask>
                        <g id="Clip-8"></g>
                        <path d="M10.5044025,13.1089192 L10.5044025,15.5149427 C9.82553459,15.8761976 8.5954717,16.3929349 7.11556604,16.3929349 C5.8390566,16.3929349 5.44987421,16.0048878 5.44987421,14.7309427 C5.44987421,13.4938918 5.69069182,13.1089192 7.19591195,13.1089192 L10.5044025,13.1089192 Z M7.75657233,0.00491921569 C5.68298742,0.00491921569 3.15968553,0.331036863 1.32823899,0.83635451 C0.987264151,0.930127059 0.772201258,1.26524863 0.828553459,1.61288784 L1.30798742,4.57913098 C1.3377044,4.76426039 1.44160377,4.92896627 1.5954717,5.0361349 C1.7491195,5.14352314 1.94018868,5.18393098 2.12487421,5.14769569 C3.82798742,4.81718588 5.5863522,4.63491137 7.07572327,4.63491137 C10.0317925,4.63491137 10.5044025,5.25749961 10.5044025,7.25615059 L10.5044025,8.99829961 L6.11421384,8.99829961 C1.9181761,8.99829961 0.127672956,10.7250761 0.127672956,14.771131 C0.127672956,18.642378 2.09053459,20.8628329 5.51305031,20.8628329 C7.49264151,20.8628329 9.47509434,20.3146918 11.1412264,19.3124016 L11.3166667,19.9538761 C11.3989937,20.2545192 11.6728302,20.4633663 11.9856289,20.4633663 L15.2934591,20.4633663 C15.6762579,20.4633663 15.9868553,20.1537192 15.9868553,19.7716016 L15.9868553,7.33630745 C15.9868553,1.99193098 13.7561006,0.00491921569 7.75657233,0.00491921569 L7.75657233,0.00491921569 Z" id="Fill-7" fill="#1F5081" mask="url(#mask-2)"></path>
                    </g>
                    <g id="Group-12" transform="translate(98.836478, 16.442259)">
                        <mask id="mask-4" fill="white">
                            <use xlink:href="#path-3"></use>
                        </mask>
                        <g id="Clip-11"></g>
                        <path d="M8.19975157,8.04849569 C5.65839937,7.39494275 5.65839937,7.3685898 5.65839937,5.97737412 C5.65839937,5.04338196 5.75129245,4.59472314 7.84512893,4.59472314 C9.27924843,4.59472314 11.395978,4.84485647 12.7548145,5.07720157 C12.9419214,5.10904471 13.1336509,5.06336627 13.2853176,4.95026824 C13.4376447,4.83760941 13.5369214,4.66741333 13.5602547,4.47986824 L13.9461352,1.36560941 C13.9899403,1.01445647 13.7610094,0.687021176 13.4151918,0.606644706 C11.8437138,0.241217255 9.65698428,0.00491921569 7.84512893,0.00491921569 C1.54644969,0.00491921569 0.256072327,2.37668392 0.256072327,5.93718588 C0.256072327,9.8521349 0.985128931,11.1675859 5.8122673,12.3411702 C8.99022327,13.1038682 8.99022327,13.6711153 8.99022327,14.6112565 C8.99022327,15.8458918 8.88412264,16.2728094 6.80349371,16.2728094 C5.1285566,16.2728094 3.18968868,16.0130133 1.48437421,15.5590839 C1.2972673,15.5096722 1.09805346,15.539978 0.934720126,15.6436329 C0.771166667,15.7461898 0.658462264,15.913531 0.62368239,16.1034918 L0.082172956,19.0583153 C0.0196572327,19.3998055 0.219751572,19.733829 0.550380503,19.8405584 C2.41022327,20.4429427 5.08056918,20.8628329 7.04387107,20.8628329 C13.1426761,20.8628329 14.3925503,18.3158212 14.3925503,14.491131 C14.3925503,10.2676329 13.6406006,9.4853898 8.19975157,8.04849569" id="Fill-10" fill="#1F5081" mask="url(#mask-4)"></path>
                    </g>
                    <g id="Group-15" transform="translate(114.685535, 16.442259)">
                        <mask id="mask-6" fill="white">
                            <use xlink:href="#path-5"></use>
                        </mask>
                        <g id="Clip-14"></g>
                        <path d="M8.17608805,8.04849569 C5.63473585,7.39494275 5.63473585,7.3685898 5.63473585,5.97737412 C5.63473585,5.04338196 5.72762893,4.59472314 7.82146541,4.59472314 C9.25580503,4.59472314 11.3723145,4.84485647 12.7313711,5.07720157 C12.9182579,5.10904471 13.1099874,5.06336627 13.2618742,4.95026824 C13.4139811,4.83760941 13.5132579,4.66741333 13.5365912,4.47986824 L13.9226918,1.36560941 C13.9660566,1.01445647 13.7373459,0.687021176 13.3917484,0.606644706 C11.8198302,0.241217255 9.63332075,0.00491921569 7.82146541,0.00491921569 C1.52300629,0.00491921569 0.232408805,2.37668392 0.232408805,5.93718588 C0.232408805,9.8521349 0.961465409,11.1675859 5.7888239,12.3411702 C8.96655975,13.1038682 8.96655975,13.6711153 8.96655975,14.6112565 C8.96655975,15.8458918 8.86067925,16.2728094 6.77983019,16.2728094 C5.10467296,16.2728094 3.16602516,16.0130133 1.46071069,15.5590839 C1.2738239,15.5096722 1.07438994,15.539978 0.911056604,15.6436329 C0.747503145,15.7461898 0.634798742,15.913531 0.600018868,16.1034918 L0.058509434,19.0583153 C-0.00422641509,19.3998055 0.19608805,19.733829 0.526716981,19.8405584 C2.38655975,20.4429427 5.05690566,20.8628329 7.02020755,20.8628329 C13.1190126,20.8628329 14.3688868,18.3158212 14.3688868,14.491131 C14.3688868,10.2676329 13.6169371,9.4853898 8.17608805,8.04849569" id="Fill-13" fill="#1F5081" mask="url(#mask-6)"></path>
                    </g>
                    <path d="M136.116035,9.18768941 L132.020594,9.18768941 C131.637575,9.18768941 131.326978,9.49733647 131.326978,9.87923451 L131.326978,13.4920031 C131.326978,13.8743404 131.637575,14.1837678 132.020594,14.1837678 L136.116035,14.1837678 C136.498833,14.1837678 136.809431,13.8743404 136.809431,13.4920031 L136.809431,9.87923451 C136.809431,9.49733647 136.498833,9.18768941 136.116035,9.18768941" id="Fill-16" fill="#1F5081"></path>
                    <path d="M136.116035,16.8471718 L132.020594,16.8471718 C131.637575,16.8471718 131.326978,17.1565992 131.326978,17.5384973 L131.326978,36.2139482 C131.326978,36.5960659 131.637575,36.9057129 132.020594,36.9057129 L136.116035,36.9057129 C136.498833,36.9057129 136.809431,36.5960659 136.809431,36.2139482 L136.809431,17.5384973 C136.809431,17.1565992 136.498833,16.8471718 136.116035,16.8471718" id="Fill-18" fill="#1F5081"></path>
                    <g id="Group-22" transform="translate(139.119497, 16.442259)">
                        <mask id="mask-8" fill="white">
                            <use xlink:href="#path-7"></use>
                        </mask>
                        <g id="Clip-21"></g>
                        <path d="M10.3788648,13.1089192 L10.3788648,15.5149427 C9.69977673,15.8761976 8.46993396,16.3929349 6.9900283,16.3929349 C5.71351887,16.3929349 5.32433648,16.0048878 5.32433648,14.7309427 C5.32433648,13.4938918 5.56515409,13.1089192 7.07037421,13.1089192 L10.3788648,13.1089192 Z M7.63125472,0.00491921569 C5.55744969,0.00491921569 3.0341478,0.331036863 1.20270126,0.83635451 C0.861946541,0.930127059 0.646663522,1.26524863 0.703015723,1.61288784 L1.18244969,4.57913098 C1.21216667,4.76426039 1.31606604,4.92896627 1.46993396,5.0361349 C1.62380189,5.14352314 1.81465094,5.18393098 1.9995566,5.14769569 C3.70222956,4.81718588 5.46059434,4.63491137 6.95018553,4.63491137 C9.90603459,4.63491137 10.3788648,5.25749961 10.3788648,7.25615059 L10.3788648,8.99829961 L5.9886761,8.99829961 C1.79263836,8.99829961 0.00213522013,10.7250761 0.00213522013,14.771131 C0.00213522013,18.642378 1.96499686,20.8628329 5.38751258,20.8628329 C7.36710377,20.8628329 9.3495566,20.3146918 11.0156887,19.3124016 L11.1911289,19.9538761 C11.273456,20.2545192 11.5475126,20.4633663 11.8600912,20.4633663 L15.1679214,20.4633663 C15.5507201,20.4633663 15.8613176,20.1537192 15.8613176,19.7716016 L15.8613176,7.33630745 C15.8613176,1.99193098 13.6305629,0.00491921569 7.63125472,0.00491921569 L7.63125472,0.00491921569 Z" id="Fill-20" fill="#1F5081" mask="url(#mask-8)"></path>
                    </g>
                    <g id="Group-25" transform="translate(157.610063, 16.442259)">
                        <mask id="mask-10" fill="white">
                            <use xlink:href="#path-9"></use>
                        </mask>
                        <g id="Clip-24"></g>
                        <path d="M12.5193019,0.00494117647 C10.3482013,0.00494117647 7.39169182,0.751607843 4.89348428,1.92145882 L4.59455346,0.902039216 C4.5078239,0.607105882 4.23684906,0.404847059 3.92911321,0.404847059 L0.896,0.404847059 C0.513201258,0.404847059 0.202603774,0.71427451 0.202603774,1.09639216 L0.202603774,19.7716235 C0.202603774,20.1537412 0.513201258,20.4633882 0.896,20.4633882 L4.99166038,20.4633882 C5.37445912,20.4633882 5.6850566,20.1537412 5.6850566,19.7716235 L5.6850566,6.8376 C7.1601195,6.08873725 9.23436478,5.31483922 10.4760943,5.31483922 C11.3982013,5.31483922 11.7411572,5.65654902 11.7411572,6.57670588 L11.7411572,19.7716235 C11.7411572,20.1537412 12.0517547,20.4633882 12.4345535,20.4633882 L16.5302138,20.4633882 C16.9130126,20.4633882 17.2236101,20.1537412 17.2236101,19.7716235 L17.2236101,6.05711373 C17.2236101,2.04092549 15.6409057,0.00494117647 12.5193019,0.00494117647" id="Fill-23" fill="#1F5081" mask="url(#mask-10)"></path>
                    </g>
                    <g id="Group-28" transform="translate(0.000000, 0.191278)">
                        <mask id="mask-12" fill="white">
                            <use xlink:href="#path-11"></use>
                        </mask>
                        <g id="Clip-27"></g>
                        <path d="M40.1003585,0.410381176 C39.9216164,0.171228235 39.6361132,0.0282635294 39.3376226,0.0282635294 C39.1833145,0.0282635294 39.0312075,0.0671341176 38.8978113,0.139824314 C33.3030943,3.19522824 26.8170881,4.81132235 20.1415535,4.81285961 C13.4657987,4.81132235 6.9802327,3.19544784 1.38551572,0.140043922 C1.25233962,0.0671341176 1.1002327,0.0284831373 0.945924528,0.0284831373 C0.646993711,0.0284831373 0.361930818,0.171228235 0.183408805,0.409722353 C-0.0814025157,0.760875294 -0.0899874214,1.35030275 0.36127044,1.70145569 C3.16325157,3.78575373 6.2520566,5.41282824 9.54183648,6.52536157 C12.9520252,7.67962039 16.5180629,8.26575373 20.1402327,8.26729098 L20.1428742,8.26729098 C23.7654843,8.26575373 27.3313019,7.67962039 30.7410503,6.52536157 C34.0314906,5.41238902 37.1200755,3.78575373 39.9257987,1.69904 C40.3733145,1.35008314 40.3647296,0.760655686 40.1003585,0.410381176" id="Fill-26" fill="#59AFE1" mask="url(#mask-12)"></path>
                    </g>
                    <path d="M33.6702642,9.30533333 C33.5370881,9.20431373 33.3768365,9.15182745 33.2143836,9.15182745 C33.1243522,9.15182745 33.033,9.16829804 32.9467107,9.20123922 C31.325044,9.82009412 29.678283,10.2898353 28.1752642,10.6390118 C27.8688491,10.7103843 27.6212075,10.9374588 27.5184088,11.2104314 C26.423283,14.2030275 23.6270252,17.0524392 20.6931887,20.037349 C20.5754214,20.1486902 20.4105472,20.2958275 20.1419937,20.2958275 C19.8741006,20.2958275 19.7107673,20.1535216 19.5907987,20.037349 C16.6571824,17.0524392 13.8609245,14.2129098 12.7657987,11.2200941 C12.663,10.9475608 12.4151384,10.7202667 12.1089434,10.6488941 C10.605044,10.299498 8.95410063,9.81504314 7.33485535,9.19662745 C7.24768553,9.16368627 7.15677358,9.14721569 7.06630189,9.14721569 C6.90406918,9.14721569 6.74689937,9.19816471 6.6139434,9.29940392 C6.40592453,9.45752157 6.29828302,9.71402353 6.32271698,9.96042353 C6.57123899,12.4490196 7.55674214,14.8818353 9.33557862,17.4310431 C11.0076541,19.8282824 13.1886604,22.0465412 15.2972453,24.1921098 C19.1824654,28.1454902 22.8526226,31.8794824 23.1746667,36.2094902 C23.2037233,36.5999529 23.5299497,36.9030118 23.9233145,36.9030118 L28.4878428,36.9030118 C28.6934403,36.9030118 28.8897925,36.8186824 29.0317736,36.6700078 C29.1730943,36.5213333 29.2479371,36.322149 29.2375912,36.1168157 C29.0940692,33.2221647 28.0020252,30.3231216 25.8991635,27.2552 C25.4584717,26.611749 24.986522,25.9858667 24.493,25.3733804 C24.2924654,25.1241255 24.3763333,24.8142588 24.5299811,24.6581176 C24.6814277,24.5030745 24.8337547,24.3486902 24.9869623,24.1921098 C27.0957673,22.0463216 29.2763333,19.8282824 30.9488491,17.4310431 C32.7274654,14.8816157 33.7127484,12.4628549 33.9612704,9.97469804 C33.9863648,9.72478431 33.8723396,9.45949804 33.6702642,9.30533333" id="Fill-29" fill="#59AFE1"></path>
                    <path d="M15.2438648,27.5601255 C15.135783,27.4474667 14.9772925,27.3323922 14.7109403,27.3323922 C14.3701855,27.3323922 14.1678899,27.5673725 14.0917264,27.6839843 C12.1717893,30.5986196 11.1801226,33.3496471 11.0429843,36.1142902 C11.0328585,36.3180863 11.1081415,36.5205647 11.2496824,36.6696784 C11.3914434,36.8174745 11.5904371,36.902902 11.7955943,36.902902 L16.3526384,36.902902 C16.7444623,36.902902 17.0748711,36.5967686 17.1037075,36.2067451 C17.2029843,34.8743843 17.6188019,33.5387294 18.3758145,32.1352157 C18.6379843,31.6496627 18.4341478,31.1935373 18.2831415,30.9985255 C17.5320723,30.0241255 16.6121667,28.9847216 15.2438648,27.5601255" id="Fill-31" fill="#59AFE1"></path>
                    <path d="M20.1462862,11.5363733 C21.5766635,11.5363733 22.4065377,11.4505067 22.6979843,11.4505067 C23.0508459,11.4505067 23.3885189,11.7390714 23.3885189,12.1433694 C23.3885189,12.2612988 23.3605629,12.3454086 23.332827,12.4198557 C23.1428585,12.9260518 22.2784245,14.7466008 20.6686447,16.3082322 C20.4881415,16.4832596 20.2834245,16.5159812 20.1423239,16.5159812 L20.140783,16.5159812 C20.0001226,16.5159812 19.7954057,16.4832596 19.6151226,16.3082322 C18.0053428,14.7466008 17.1404686,12.9260518 16.9511604,12.4198557 C16.9232044,12.3454086 16.8952484,12.2612988 16.8952484,12.1433694 C16.8952484,11.7390714 17.2329214,11.4505067 17.5860031,11.4505067 C17.8774497,11.4505067 18.7071038,11.5363733 20.1368208,11.5363733 L20.1462862,11.5363733 Z" id="Fill-33" fill="#59AFE1"></path>
                </g>
            </g>
        </g>
    </g>
</svg>