<?xml version="1.0" encoding="UTF-8" standalone="no"?>
<svg width="233px" height="121px" viewBox="0 0 233 121" version="1.1" xmlns="http://www.w3.org/2000/svg" xmlns:xlink="http://www.w3.org/1999/xlink">
    <!-- Generator: Sketch 41.2 (35397) - http://www.bohemiancoding.com/sketch -->
    <title>Group 5</title>
    <desc>Created with Sketch.</desc>
    <defs></defs>
    <g id="Page-1" stroke="none" stroke-width="1" fill="none" fill-rule="evenodd">
        <g id="Artboard-2" transform="translate(-119.000000, -46.000000)">
            <g id="Group-5" transform="translate(119.000000, 46.000000)">
                <rect id="Rectangle-3" fill="#FFFFFF" x="1.42108547e-14" y="0" width="233" height="121"></rect>
                <g id="Group-2" transform="translate(59.000000, 35.000000)">
                    <path d="M50.9261713,18.6452005 C50.9261713,19.6153938 51.0568829,20.2089118 51.3223593,20.4206644 C51.5868224,20.6263087 52.3295483,20.7342211 53.5556032,20.7342211 L54.6833712,20.7342211 C62.4206901,20.7342211 66.2913761,18.0364118 66.2913761,12.6428294 C66.2913761,6.88987844 62.8107985,4.01493001 55.8526831,4.01493001 C53.9862424,4.01493001 52.7378955,4.19410526 52.0944699,4.54940165 C51.3132399,4.99021351 50.9261713,5.90848669 50.9261713,7.29811297 L50.9261713,18.6452005 Z M66.1079745,21.1964118 C73.5788038,22.436386 77.310672,26.3222494 77.310672,32.8509478 C77.310672,36.5932673 75.8302866,39.597507 72.8735688,41.8667209 C69.9097582,44.1389889 66.0664305,45.2690147 61.3405458,45.2690147 C59.6220423,45.2690147 46.5508775,45.3351874 43.1108307,45.3351874 L43.1108307,1.58588364 C45.4048707,1.58588364 50.9342774,1.80781663 53.9011278,1.77320322 C69.8570683,1.58588364 74.4937853,5.25999443 74.4937853,12.2335768 C74.4937853,16.5948655 71.6991905,19.5797623 66.1079745,21.1964118 L66.1079745,21.1964118 Z M52.0083421,22.9067211 C51.2838551,22.9067211 50.9261713,23.1978809 50.9261713,23.7730742 L50.9261713,37.7131127 C50.9261713,41.1215147 53.2293308,42.8277518 57.8467957,42.8277518 C61.5128014,42.8277518 64.3084095,41.795458 66.2275402,39.7390147 C67.9247651,37.9218112 68.7688178,35.5049813 68.7688178,32.4661282 C68.7688178,29.5066824 67.7798677,27.1692597 65.8100735,25.4650587 C63.8321732,23.7598396 61.0011008,22.9067211 57.3016572,22.9067211 L52.0083421,22.9067211 Z" id="Fill-1" fill="#000000"></path>
                    <path d="M95.4372364,17.2085407 C97.4404684,17.2085407 99.3474398,17.4650871 101.160177,17.9832701 C103.583916,18.672484 104.791732,19.6498036 104.791732,20.9111567 C104.791732,24.1943396 104.068258,25.8354221 102.622324,25.8354221 C101.911009,25.8354221 101.192602,25.2449582 100.452916,24.0569041 C100.374894,23.9174324 100.240129,23.6771747 100.058754,23.340203 C98.295667,20.2962598 96.4829295,18.7763242 94.6124357,18.7763242 C91.7702174,18.7763242 89.5501459,20.3125484 87.947155,23.3799066 C86.7383256,25.7224195 86.1354307,28.1412855 86.1354307,30.6395586 C86.1354307,33.7496746 86.9328731,36.3935277 88.5378906,38.574172 C90.2310624,40.8759632 92.5818455,42.2014529 95.5963195,42.5526771 C96.1444978,42.6147776 97.9541955,42.8112596 101.741794,41.4725353 C102.598005,41.1711951 103.334652,40.7314013 104.141214,40.3475998 C104.546521,40.1480637 105.369295,40.0085921 105.482781,40.6418137 C105.604373,41.3198292 105.019717,42.0456926 104.576919,42.4824322 C103.858512,43.1899709 101.37499,45.5223034 94.9042571,45.9926384 C94.6164888,46.0191075 94.3368267,46.0221616 94.055138,46.0221616 C89.162064,46.0221616 85.3460945,44.5195327 82.6102693,41.5112209 C80.2149024,38.8938369 79.0172189,35.6737725 79.0172189,31.8388112 C79.0172189,27.7890432 80.3689192,24.4132185 83.0865056,21.7245716 C86.0827408,18.7152417 90.2037041,17.2085407 95.4372364,17.2085407" id="Fill-3" fill="#000000"></path>
                    <path d="M107.658775,45.3130959 L114.095057,45.3130959 L114.0525,18.9488822 C114.0525,18.9488822 112.888255,18.920377 110.97419,18.7737791 C109.576893,18.6597585 107.659789,18.5569363 107.659789,18.5569363" id="Fill-6" fill="#000000"></path>
                    <path d="M107.668199,12.0502276 C107.668199,10.0884622 109.06043,8.49929981 110.782986,8.49929981 C112.505543,8.49929981 113.896761,10.0884622 113.896761,12.0502276 C113.896761,14.0018127 112.505543,15.5930111 110.782986,15.5930111 C109.06043,15.5930111 107.668199,14.0018127 107.668199,12.0502276" id="Fill-8" fill="#000000"></path>
                    <path d="M0.307224442,39.3171385 C1.79672926,34.8672803 6.03928483,32.3802055 9.72454268,29.9633757 C12.4461821,28.1787494 15.2235513,26.4857468 17.972549,24.7448963 C18.9635257,24.120837 19.9372768,23.477435 20.9221738,22.8533757 C23.2607977,21.3721257 25.1201456,19.2230407 26.4708326,16.8265716 C27.1558022,15.6059402 27.7191795,14.3394969 28.2653313,13.0516748 C29.0273092,11.2772289 29.6383102,8.95202275 31.493605,8.03578564 C32.8209868,7.38423926 34.5475965,7.73953565 35.5537722,8.81356914 C36.5356295,9.86418769 36.7636149,11.4014299 36.4971253,12.7757856 C35.9418541,15.6792392 34.2750273,18.3057856 32.1735082,20.3327056 C30.9373205,21.5207598 29.5420497,22.4034015 28.0839562,23.2768809 C26.1536795,24.4303216 24.2173233,25.5725638 22.2738741,26.7086978 C19.7173975,28.2103087 17.1882791,29.6386205 14.800005,31.3977957 C12.3904523,33.1712236 10.1815268,35.1197545 8.11243236,37.2739297 C6.57935699,38.8732725 5.61675183,40.7780276 4.60246998,42.7285946 C4.23465348,43.4361333 3.88102275,44.4562106 3.21733182,44.9499606 C2.75122827,45.2848961 1.98418395,45.379574 1.48362927,45.0761977 C-0.297696904,43.9960559 -0.170025062,41.0142132 0.307224442,39.3171385" id="Fill-10" fill="#DF2C20"></path>
                    <path d="M32.1192983,40.5658678 C30.9074291,39.631306 31.3289488,37.9383034 31.2458608,36.6077235 C31.1465605,35.0246694 30.8567657,33.2777107 30.1626767,31.8392184 C29.4088049,30.2795793 27.7024606,29.9334452 26.3538001,29.0955973 C25.0831613,28.3096695 25.1844881,26.7296695 26.4824852,26.0312932 C29.1686602,24.5877108 32.2753417,26.3285613 33.7141831,28.6914349 C34.6139656,30.1686128 35.1773429,31.878922 35.7123487,33.5159323 C36.2625536,35.1946823 36.9850141,37.3549658 36.1237358,39.0347338 C35.4438326,40.3653137 33.4791048,41.6113962 32.1192983,40.5658678" id="Fill-12" fill="#22913B"></path>
                    <path d="M21.9544919,26.5150664 C15.8049648,24.0564968 9.39908081,19.3317675 8.71715105,12.1555949 C8.54489539,10.3292289 8.84988924,8.47944801 9.32612547,6.71721864 C9.72737983,5.23189649 10.1853772,3.64782434 10.9210102,2.29382951 C12.1997552,-0.065990058 15.2760386,-0.587227167 17.4484865,0.90216715 C19.9988835,2.65523414 18.3979191,5.8172702 17.7818518,8.16487327 C17.3704648,9.73469284 17.0077146,11.3462521 16.7473046,12.948649 C16.4909476,14.5378114 16.4494036,16.1727856 16.9722502,17.7130819 C17.4018761,18.9866515 18.1831062,20.1390742 19.208534,21.0033912 C20.3667,21.9766386 21.853165,22.479551 23.203852,23.1137907 C24.1401122,23.5515484 26.0328979,24.2000407 25.4310164,25.6079917 C24.863586,26.9344994 23.0974588,26.8194607 21.9544919,26.5150664" id="Fill-14" fill="#1369B2"></path>
                    <path d="M7.9522346,43.9191938 C8.10827796,44.5116938 8.65240319,45.1764747 10.2999779,45.2782789 C13.1705678,45.4503278 16.1586969,45.0451474 19.0890696,44.4322866 C23.9740375,43.4162815 26.0137471,42.0887557 26.0137471,42.0887557 C26.0137471,42.0887557 28.9988364,40.5118098 28.83874,36.1912429 C28.6745905,31.8696579 25.775629,29.8824414 25.775629,29.8824414 C25.775629,29.8824414 24.6123967,29.1016038 22.6902262,29.7694388 C21.3810832,30.2306115 17.6785998,32.318614 15.2842461,33.7907017 C13.9882756,34.5847738 12.7054775,35.651681 11.6354659,36.7328408 C10.564441,37.8150186 9.31204104,39.2341681 8.46089543,41.20815 C8.32410417,41.5155985 8.22176404,41.7955598 8.14779543,42.0521062 C7.98567246,42.5977763 7.80024431,43.3521449 7.9522346,43.9191938" id="Fill-16" fill="#F8C500"></path>
                </g>
            </g>
        </g>
    </g>
</svg>