<?xml version="1.0" encoding="UTF-8"?>
<svg width="233px" height="121px" viewBox="0 0 233 121" version="1.1" xmlns="http://www.w3.org/2000/svg" xmlns:xlink="http://www.w3.org/1999/xlink">
    <!-- Generator: Sketch 43.2 (39069) - http://www.bohemiancoding.com/sketch -->
    <title>Bci</title>
    <desc>Created with Sketch.</desc>
    <defs></defs>
    <g id="Page-1" stroke="none" stroke-width="1" fill="none" fill-rule="evenodd">
        <g id="Logos" transform="translate(-119.000000, -46.000000)">
            <g id="Bci" transform="translate(119.000000, 46.000000)">
                <rect id="Rectangle-3" fill="#FFFFFF" x="1.42108547e-14" y="0" width="233" height="121"></rect>
                <g id="Page-1" transform="translate(30.000000, 39.000000)">
                    <path d="M80.4000564,0.724897959 L80.4000564,36.3732653" id="Stroke-1" stroke="#888888" stroke-width="1.92" stroke-linecap="round" stroke-linejoin="round"></path>
                    <polygon id="Fill-3" fill="#000000" points="119.58241 33.2244898 121.208692 33.2244898 121.208692 7.70959184 119.58241 7.70959184"></polygon>
                    <g id="Group-64" transform="translate(0.000000, 3.118571)">
                        <path d="M139.339544,30.1059184 L139.339544,18.2281633 C139.339544,16.0761224 138.847877,14.4828571 137.879672,13.4634694 C136.903903,12.4440816 135.436467,11.9306122 133.477364,11.9306122 C131.548518,11.9306122 129.604544,12.3912245 127.645441,13.2973469 L128.250569,14.7093878 C130.028133,13.7881633 131.745185,13.335102 133.409287,13.335102 C134.9448,13.335102 136.064287,13.7655102 136.752621,14.6263265 C137.440954,15.4871429 137.796467,16.7632653 137.796467,18.4471429 L137.796467,19.625102 L134.385056,19.7232653 C131.624159,19.7761224 129.521338,20.2895918 128.061467,21.2636735 C126.609159,22.2302041 125.875441,23.5893878 125.875441,25.3487755 C125.875441,26.9495918 126.367108,28.1955102 127.342877,29.1016327 C128.318646,30.0077551 129.687749,30.4608163 131.450185,30.4608163 C132.743646,30.4608163 133.863133,30.2191837 134.81621,29.7359184 C135.769287,29.2526531 136.692108,28.4371429 137.5998,27.2818367 L137.72839,27.2818367 L138.136851,30.1059184 L139.339544,30.1059184 Z M128.636338,28.12 C127.940441,27.5008163 127.600056,26.6173469 127.600056,25.4846939 C127.600056,24.065102 128.137108,23.0230612 129.21121,22.3510204 C130.277749,21.6789796 132.078005,21.2787755 134.596851,21.1504082 L137.72839,21.0220408 L137.72839,22.8040816 C137.72839,24.7673469 137.17621,26.3002041 136.071851,27.4026531 C134.959928,28.505102 133.454672,29.0563265 131.548518,29.0563265 C130.285313,29.0563265 129.317108,28.7467347 128.636338,28.12 L128.636338,28.12 Z" id="Fill-4" fill="#000000"></path>
                        <path d="M149.195569,12.6857143 C148.234928,13.1916327 147.418005,13.9844898 146.7448,15.0491837 L146.631338,15.0491837 L146.684287,13.6597959 C146.722108,12.8518367 146.7448,11.9683673 146.7448,11.0018367 L146.7448,4.59102041 L145.118518,4.59102041 L145.118518,30.1059184 L146.139672,30.1059184 L146.601082,27.4404082 L146.7448,27.4404082 C147.3348,28.3993878 148.136595,29.1469388 149.150185,29.6679592 C150.171338,30.1889796 151.305954,30.4608163 152.576723,30.4608163 C154.974544,30.4608163 156.842877,29.6528571 158.166595,28.0444898 C159.497877,26.4361224 160.163518,24.1481633 160.163518,21.1806122 C160.163518,18.1602041 159.528133,15.8646939 158.272492,14.2940816 C157.009287,12.7234694 155.13339,11.9306122 152.6448,11.9306122 C151.29839,11.9306122 150.148646,12.1873469 149.195569,12.6857143 M158.438903,21.1277551 C158.438903,23.672449 157.947236,25.6281633 156.963903,27.002449 C155.980569,28.3767347 154.520697,29.0563265 152.576723,29.0563265 C150.572236,29.0563265 149.1048,28.4673469 148.159287,27.2893878 C147.221338,26.1114286 146.7448,24.1632653 146.7448,21.444898 L146.7448,21.1655102 C146.7448,18.3716327 147.198646,16.3706122 148.106338,15.154898 C149.006467,13.9467347 150.511723,13.335102 152.606979,13.335102 C156.494928,13.335102 158.438903,15.9326531 158.438903,21.1277551" id="Fill-6" fill="#000000"></path>
                        <path d="M175.707749,23.3930612 C175.337108,22.8040816 174.784928,22.2830612 174.043646,21.814898 C173.302364,21.3467347 172.122364,20.8257143 170.503646,20.2442857 C168.567236,19.5571429 167.258646,18.9304082 166.593005,18.3716327 C165.927364,17.8128571 165.586979,17.0728571 165.586979,16.1365306 C165.586979,15.2606122 166.018133,14.5734694 166.880441,14.075102 C167.742749,13.5842857 168.900056,13.335102 170.367492,13.335102 C171.880313,13.335102 173.521723,13.69 175.291723,14.414898 L175.904415,12.957551 C174.157108,12.2779592 172.319031,11.9306122 170.382621,11.9306122 C168.347877,11.9306122 166.766979,12.3232653 165.639928,13.1010204 C164.512877,13.8787755 163.945569,14.9359184 163.945569,16.272449 C163.945569,17.1106122 164.127108,17.8279592 164.497749,18.4093878 C164.86839,18.9983673 165.413005,19.5269388 166.146723,19.987551 C166.872877,20.4557143 168.136082,21.0069388 169.936338,21.6563265 C171.615569,22.2528571 172.818262,22.8493878 173.551979,23.4610204 C174.285697,24.0726531 174.656338,24.8353061 174.656338,25.7263265 C174.656338,26.7381633 174.194928,27.5461224 173.272108,28.1502041 C172.349287,28.7618367 171.002877,29.0563265 169.225313,29.0563265 C167.213262,29.0563265 165.314672,28.6108163 163.506851,27.7197959 L163.506851,29.4414286 C164.913774,30.1210204 166.819928,30.4608163 169.217749,30.4608163 C171.464287,30.4608163 173.204031,30.0304082 174.429415,29.1695918 C175.647236,28.3087755 176.259928,27.0855102 176.259928,25.4846939 C176.259928,24.6842857 176.07839,23.9895918 175.707749,23.3930612" id="Fill-8" fill="#000000"></path>
                        <polygon id="Fill-10" fill="#333333" points="92.9942872 27.6895918 112.10121 27.6895918 106.75339 19.5344898 99.1060821 16.7330612"></polygon>
                        <polygon id="Stroke-12" stroke="#333333" stroke-width="0.96" stroke-linecap="round" stroke-linejoin="round" points="92.9942872 27.6895918 112.10121 27.6895918 106.75339 19.5344898 99.1060821 16.7330612"></polygon>
                        <path d="M100.89121,13.1689796 C100.89121,12.1873469 101.693005,11.3869388 102.676338,11.3869388 C103.659672,11.3869388 104.461467,12.1873469 104.461467,13.1689796 C104.461467,14.1581633 103.659672,14.9510204 102.676338,14.9510204 C101.693005,14.9510204 100.89121,14.1581633 100.89121,13.1689796" id="Fill-14" fill="#333333"></path>
                        <path d="M100.89121,13.1689796 C100.89121,12.1873469 101.693005,11.3869388 102.676338,11.3869388 C103.659672,11.3869388 104.461467,12.1873469 104.461467,13.1689796 C104.461467,14.1581633 103.659672,14.9510204 102.676338,14.9510204 C101.693005,14.9510204 100.89121,14.1581633 100.89121,13.1689796 Z" id="Stroke-16" stroke="#333333" stroke-width="0.96" stroke-linecap="round" stroke-linejoin="round"></path>
                        <path d="M103.304159,7.38489796 C103.304159,6.98469388 103.629415,6.66755102 104.030313,6.66755102 C104.423646,6.66755102 104.748903,6.98469388 104.748903,7.38489796 C104.748903,7.77755102 104.423646,8.1022449 104.030313,8.1022449 C103.629415,8.1022449 103.304159,7.77755102 103.304159,7.38489796" id="Fill-18" fill="#333333"></path>
                        <path d="M103.304159,7.38489796 C103.304159,6.98469388 103.629415,6.66755102 104.030313,6.66755102 C104.423646,6.66755102 104.748903,6.98469388 104.748903,7.38489796 C104.748903,7.77755102 104.423646,8.1022449 104.030313,8.1022449 C103.629415,8.1022449 103.304159,7.77755102 103.304159,7.38489796 Z" id="Stroke-20" stroke="#333333" stroke-width="0.96" stroke-linecap="round" stroke-linejoin="round"></path>
                        <path d="M101.405569,1.99346939 C101.405569,1.49510204 101.798903,1.10244898 102.290569,1.10244898 C102.782236,1.10244898 103.183133,1.49510204 103.183133,1.99346939 C103.183133,2.48428571 102.782236,2.8844898 102.290569,2.8844898 C101.798903,2.8844898 101.405569,2.48428571 101.405569,1.99346939" id="Fill-22" fill="#333333"></path>
                        <path d="M101.405569,1.99346939 C101.405569,1.49510204 101.798903,1.10244898 102.290569,1.10244898 C102.782236,1.10244898 103.183133,1.49510204 103.183133,1.99346939 C103.183133,2.48428571 102.782236,2.8844898 102.290569,2.8844898 C101.798903,2.8844898 101.405569,2.48428571 101.405569,1.99346939 Z" id="Stroke-24" stroke="#333333" stroke-width="0.96" stroke-linecap="round" stroke-linejoin="round"></path>
                        <path d="M103.372236,23.2571429 C103.372236,22.577551 103.924415,22.0263265 104.605185,22.0263265 C105.285954,22.0263265 105.845697,22.577551 105.845697,23.2571429 C105.845697,23.9367347 105.285954,24.4879592 104.605185,24.4879592 C103.924415,24.4879592 103.372236,23.9367347 103.372236,23.2571429" id="Fill-26" fill="#FFFFFF"></path>
                        <path d="M96.7839026,25.1071429 C96.7839026,24.7673469 97.0637744,24.4879592 97.404159,24.4879592 C97.7445436,24.4879592 98.0168513,24.7673469 98.0168513,25.1071429 C98.0168513,25.4469388 97.7445436,25.7187755 97.404159,25.7187755 C97.0637744,25.7187755 96.7839026,25.4469388 96.7839026,25.1071429" id="Fill-28" fill="#FFFFFF"></path>
                        <path d="M106.465954,9.72571429 C106.730697,9.74081633 107.449287,9.66530612 107.714031,9.55959184 C108.251082,9.34816327 108.583903,9.06122449 108.916723,8.50244898 C109.415954,7.65673469 109.166338,6.56938776 108.916723,6.01061224 C108.621723,5.36122449 107.744287,4.81 107.237492,4.80244898 C101.995569,4.7722449 98.0319795,4.7344898 97.6613385,4.80244898 C97.1318513,4.90061224 96.3149282,5.53489796 96.1031333,6.01816327 C95.7627487,6.80346939 95.8232615,7.67183673 96.2014667,8.4344898 C96.4283897,8.89510204 96.8822359,9.21979592 97.3436462,9.43122449 C97.7294154,9.60489796 98.1756974,9.72571429 98.5992872,9.72571429 L98.5992872,12.957551 C98.5992872,13.5616327 90.9671077,25.4469388 90.0821077,27.3271429 C89.3332615,28.8977551 91.3074923,30.1059184 92.7749282,30.1059184 C99.2271077,30.1059184 105.860826,30.1210204 112.222236,30.0606122 C113.53839,30.0530612 115.724415,28.8902041 115.01339,27.3346939 C113.568646,24.1934694 107.146723,15.2757143 106.49621,12.957551 C106.428133,12.7008163 106.465954,9.82387755 106.465954,9.72571429 Z" id="Stroke-30" stroke="#000000" stroke-width="0.96" stroke-linecap="round" stroke-linejoin="round"></path>
                        <path d="M32.5192872,15.54 C32.0730051,15.54 31.8460821,15.7212245 31.8460821,16.0987755 L31.8460821,25.2279592 C31.8460821,27.4555102 33.2908256,28.5730612 36.1727487,28.5730612 C38.4646718,28.5730612 40.2119795,27.9010204 41.4146718,26.5493878 C42.4736462,25.3638776 43.0031333,23.7781633 43.0031333,21.7922449 C43.0031333,19.8516327 42.3828769,18.3263265 41.1499282,17.2087755 C39.9169795,16.0912245 38.1469795,15.54 35.8323641,15.54 L32.5192872,15.54 Z M41.3390308,14.414898 C46.0136462,15.2228571 48.3433897,17.767551 48.3433897,22.0414286 C48.3433897,24.4955102 47.4205692,26.4587755 45.5673641,27.9463265 C43.7217231,29.4338776 41.3163385,30.1738776 38.3587744,30.1738776 C37.2846718,30.1738776 29.1078769,30.2116327 26.9596718,30.2116327 L26.9596718,1.57816327 C28.3968513,1.57816327 31.8536462,1.72163265 33.7068513,1.69897959 C43.6839026,1.57816327 46.5809538,3.97938776 46.5809538,8.5477551 C46.5809538,11.4020408 44.8336462,13.3577551 41.3390308,14.414898 L41.3390308,14.414898 Z M31.8460821,12.7461224 C31.8460821,13.3804082 31.9292872,13.7655102 32.0956974,13.9089796 C32.2621077,14.044898 32.7235179,14.1128571 33.4874923,14.1128571 L34.1985179,14.1128571 C39.0319795,14.1128571 41.4524923,12.3459184 41.4524923,8.81204082 C41.4524923,5.05163265 39.2815949,3.16387755 34.9246718,3.16387755 C33.7598,3.16387755 32.9806974,3.28469388 32.5798,3.51877551 C32.0881333,3.80571429 31.8460821,4.4022449 31.8460821,5.31591837 L31.8460821,12.7461224 Z" id="Fill-32" fill="#171616"></path>
                        <path d="M59.6819795,11.8097959 C60.9300564,11.8097959 62.1251846,11.9683673 63.2598,12.3081633 C64.7726205,12.7612245 65.5290308,13.4030612 65.5290308,14.2336735 C65.5290308,16.3781633 65.0751846,17.4504082 64.1674923,17.4504082 C63.7287744,17.4504082 63.2749282,17.0653061 62.8135179,16.287551 L62.5714667,15.8193878 C61.4671077,13.8259184 60.3324923,12.8291837 59.1600564,12.8291837 C57.3900564,12.8291837 55.9982615,13.8334694 54.9922359,15.8420408 C54.2358256,17.374898 53.8576205,18.9606122 53.8576205,20.5916327 C53.8576205,22.6304082 54.3644154,24.3595918 55.3628769,25.7867347 C56.6185179,27.5687755 58.4414667,28.4597959 60.8392872,28.4597959 C61.5351846,28.4597959 62.4806974,28.1804082 63.6758256,27.6291837 C64.0615949,27.4479592 64.3717231,27.3044898 64.6137744,27.1836735 C64.6137744,27.1836735 64.6969795,27.1383673 64.8180051,27.0779592 C65.0827487,26.9571429 65.5365949,26.7834694 65.7256974,26.9193878 C65.839159,27.002449 65.8996718,27.1383673 65.8996718,27.3120408 C65.8996718,28.2030612 64.9692872,29.0034694 63.1085179,29.7208163 C61.5124923,30.347551 60.0828769,30.6646939 58.8121077,30.6646939 C55.7562103,30.6646939 53.3659538,29.6830612 51.6564667,27.7122449 C50.1587744,25.9981633 49.4099282,23.8914286 49.4099282,21.3769388 C49.4099282,18.7265306 50.2571077,16.5216327 51.9514667,14.7622449 C53.8273641,12.7914286 56.4067231,11.8097959 59.6819795,11.8097959" id="Fill-34" fill="#171616"></path>
                        <path d="M67.3217231,30.2040816 L67.3217231,12.6857143 C67.3217231,12.6857143 68.5244154,12.7536735 69.3942872,12.8291837 C70.5894154,12.9273469 71.3155692,12.942449 71.3155692,12.942449 L71.3458256,30.2040816 L67.3217231,30.2040816 Z" id="Fill-36" fill="#171616"></path>
                        <path d="M67.3292872,8.41938776 C67.3292872,7.14326531 68.199159,6.10122449 69.2732615,6.10122449 C70.3473641,6.10122449 71.2172359,7.14326531 71.2172359,8.41938776 C71.2172359,9.70306122 70.3473641,10.745102 69.2732615,10.745102 C68.199159,10.745102 67.3292872,9.70306122 67.3292872,8.41938776" id="Fill-38" fill="#171616"></path>
                        <path d="M13.5031333,15.2002041 C14.7739026,14.2487755 15.7950564,12.9726531 16.5514667,11.5530612 C16.9826205,10.7526531 17.3381333,9.92959184 17.6785179,9.08387755 C18.1474923,7.92102041 18.5332615,6.40326531 19.6981333,5.79918367 C20.5226205,5.36877551 21.6042872,5.60285714 22.2321077,6.31265306 C22.8523641,6.99979592 22.9885179,8.00408163 22.8221077,8.89510204 C22.4817231,10.8055102 21.4378769,12.5195918 20.1217231,13.8485714 C19.3426205,14.6263265 18.4727487,15.2077551 17.5650564,15.7740816 C17.0280051,16.1138776 16.4909538,16.4461224 15.9539026,16.7783673 C15.8026205,16.2044898 14.9705692,15.894898 14.509159,15.6683673 C14.1839026,15.5097959 13.8435179,15.3587755 13.5031333,15.2002041 M0.190312821,26.277551 C1.12826154,23.3628571 3.77569744,21.7318367 6.08274872,20.1536735 C7.78467179,18.9832653 9.52441538,17.8808163 11.2414667,16.7406122 L11.3246718,16.6877551 C12.1113385,17.1559184 12.9206974,17.5561224 13.7300564,17.8959184 C13.8208256,17.9185714 13.919159,17.9412245 14.0250564,17.9638776 L13.9342872,18.0242857 C12.3306974,19.0059184 10.7498,19.9422449 9.25210769,21.09 C7.74685128,22.2528571 6.37018462,23.5289796 5.07672308,24.9410204 C4.11608205,25.9830612 3.51851795,27.2289796 2.88313333,28.505102 C2.64864615,28.9732653 2.42928718,29.6377551 2.01326154,29.962449 C1.72582564,30.1889796 1.24172308,30.2418367 0.931594872,30.0455102 C-0.187892308,29.3432653 -0.104687179,27.387551 0.190312821,26.277551" id="Fill-40" fill="#EE0027"></path>
                        <path d="M20.0839026,27.0930612 C19.3274923,26.4814286 19.5922359,25.3714286 19.5392872,24.5030612 C19.4787744,23.4685714 19.2972359,22.3208163 18.8585179,21.3769388 C18.3895436,20.357551 17.3230051,20.1310204 16.4833897,19.5873469 C15.689159,19.0738776 15.7496718,18.0318367 16.5665949,17.5787755 C18.2382615,16.634898 20.1898,17.775102 21.0823641,19.3155102 C21.6496718,20.2895918 21.9976205,21.4071429 22.3380051,22.4793878 C22.6783897,23.5742857 23.1322359,24.9938776 22.5876205,26.0887755 C22.1640308,26.9571429 20.9386462,27.7726531 20.0839026,27.0930612" id="Fill-42" fill="#008A2A"></path>
                        <path d="M13.7300564,17.8959184 C9.88749231,16.287551 5.87851795,13.1916327 5.45492821,8.49489796 C5.34903077,7.30183673 5.53056923,6.09367347 5.83313333,4.93836735 C6.08274872,3.96428571 6.37018462,2.9222449 6.83159487,2.03877551 C7.63338974,0.498367347 9.55467179,0.151020408 10.9162103,1.13265306 C12.5046718,2.28040816 11.5062103,4.34938776 11.120441,5.8822449 C10.8632615,6.90918367 10.6363385,7.96632653 10.4774923,9.01591837 C10.3110821,10.0504082 10.2883897,11.1226531 10.6136462,12.1344898 C10.8859538,12.9726531 11.3700564,13.7202041 12.0130051,14.2865306 C12.7315949,14.9283673 13.6695436,15.2530612 14.509159,15.6683673 C15.099159,15.9553061 16.279159,16.3781633 15.9009538,17.2993878 C15.5530051,18.1677551 14.4410821,18.0997959 13.7300564,17.8959184" id="Fill-44" fill="#0061C6"></path>
                        <path d="M4.97082564,29.2904082 C5.07672308,29.6755102 5.40954359,30.1134694 6.44582564,30.1814286 C8.23851795,30.2871429 10.1068513,30.0228571 11.9373641,29.6226531 C14.9932615,28.9581633 16.2640308,28.0897959 16.2640308,28.0897959 C16.2640308,28.0897959 18.1323641,27.0553061 18.0340308,24.2312245 C17.9356974,21.3995918 16.1203128,20.1008163 16.1203128,20.1008163 C16.1203128,20.1008163 15.394159,19.5873469 14.1914667,20.0253061 C13.3669795,20.3273469 11.0523641,21.6940816 9.5622359,22.6606122 C8.74531282,23.1816327 7.94351795,23.8763265 7.27787692,24.5861224 C6.6122359,25.2959184 5.82556923,26.2246939 5.29608205,27.5159184 C5.20531282,27.7122449 5.1448,27.9010204 5.09941538,28.0671429 C4.99351795,28.4220408 4.88005641,28.9204082 4.97082564,29.2904082" id="Fill-46" fill="#FFCB00"></path>
                        <path d="M32.5192872,15.54 C32.0730051,15.54 31.8460821,15.7212245 31.8460821,16.0987755 L31.8460821,25.2279592 C31.8460821,27.4555102 33.2908256,28.5730612 36.1727487,28.5730612 C38.4646718,28.5730612 40.2119795,27.9010204 41.4146718,26.5493878 C42.4736462,25.3638776 43.0031333,23.7781633 43.0031333,21.7922449 C43.0031333,19.8516327 42.3828769,18.3263265 41.1499282,17.2087755 C39.9169795,16.0912245 38.1469795,15.54 35.8323641,15.54 L32.5192872,15.54 Z M41.3390308,14.414898 C46.0136462,15.2228571 48.3433897,17.767551 48.3433897,22.0414286 C48.3433897,24.4955102 47.4205692,26.4587755 45.5673641,27.9463265 C43.7217231,29.4338776 41.3163385,30.1738776 38.3587744,30.1738776 C37.2846718,30.1738776 29.1078769,30.2116327 26.9596718,30.2116327 L26.9596718,1.57816327 C28.3968513,1.57816327 31.8536462,1.72163265 33.7068513,1.69897959 C43.6839026,1.57816327 46.5809538,3.97938776 46.5809538,8.5477551 C46.5809538,11.4020408 44.8336462,13.3577551 41.3390308,14.414898 L41.3390308,14.414898 Z M31.8460821,12.7461224 C31.8460821,13.3804082 31.9292872,13.7655102 32.0956974,13.9089796 C32.2621077,14.044898 32.7235179,14.1128571 33.4874923,14.1128571 L34.1985179,14.1128571 C39.0319795,14.1128571 41.4524923,12.3459184 41.4524923,8.81204082 C41.4524923,5.05163265 39.2815949,3.16387755 34.9246718,3.16387755 C33.7598,3.16387755 32.9806974,3.28469388 32.5798,3.51877551 C32.0881333,3.80571429 31.8460821,4.4022449 31.8460821,5.31591837 L31.8460821,12.7461224 Z" id="Fill-48" fill="#171616"></path>
                        <path d="M59.6819795,11.8097959 C60.9300564,11.8097959 62.1251846,11.9683673 63.2598,12.3081633 C64.7726205,12.7612245 65.5290308,13.4030612 65.5290308,14.2336735 C65.5290308,16.3781633 65.0751846,17.4504082 64.1674923,17.4504082 C63.7287744,17.4504082 63.2749282,17.0653061 62.8135179,16.287551 L62.5714667,15.8193878 C61.4671077,13.8259184 60.3324923,12.8291837 59.1600564,12.8291837 C57.3900564,12.8291837 55.9982615,13.8334694 54.9922359,15.8420408 C54.2358256,17.374898 53.8576205,18.9606122 53.8576205,20.5916327 C53.8576205,22.6304082 54.3644154,24.3595918 55.3628769,25.7867347 C56.6185179,27.5687755 58.4414667,28.4597959 60.8392872,28.4597959 C61.5351846,28.4597959 62.4806974,28.1804082 63.6758256,27.6291837 C64.0615949,27.4479592 64.3717231,27.3044898 64.6137744,27.1836735 C64.6137744,27.1836735 64.6969795,27.1383673 64.8180051,27.0779592 C65.0827487,26.9571429 65.5365949,26.7834694 65.7256974,26.9193878 C65.839159,27.002449 65.8996718,27.1383673 65.8996718,27.3120408 C65.8996718,28.2030612 64.9692872,29.0034694 63.1085179,29.7208163 C61.5124923,30.347551 60.0828769,30.6646939 58.8121077,30.6646939 C55.7562103,30.6646939 53.3659538,29.6830612 51.6564667,27.7122449 C50.1587744,25.9981633 49.4099282,23.8914286 49.4099282,21.3769388 C49.4099282,18.7265306 50.2571077,16.5216327 51.9514667,14.7622449 C53.8273641,12.7914286 56.4067231,11.8097959 59.6819795,11.8097959" id="Fill-50" fill="#171616"></path>
                        <path d="M67.3217231,30.2040816 L67.3217231,12.6857143 C67.3217231,12.6857143 68.5244154,12.7536735 69.3942872,12.8291837 C70.5894154,12.9273469 71.3155692,12.942449 71.3155692,12.942449 L71.3458256,30.2040816 L67.3217231,30.2040816 Z" id="Fill-52" fill="#171616"></path>
                        <path d="M67.3292872,8.41938776 C67.3292872,7.14326531 68.199159,6.10122449 69.2732615,6.10122449 C70.3473641,6.10122449 71.2172359,7.14326531 71.2172359,8.41938776 C71.2172359,9.70306122 70.3473641,10.745102 69.2732615,10.745102 C68.199159,10.745102 67.3292872,9.70306122 67.3292872,8.41938776" id="Fill-54" fill="#171616"></path>
                        <path d="M13.5031333,15.2002041 C14.7739026,14.2487755 15.7950564,12.9726531 16.5514667,11.5530612 C16.9826205,10.7526531 17.3381333,9.92959184 17.6785179,9.08387755 C18.1474923,7.92102041 18.5332615,6.40326531 19.6981333,5.79918367 C20.5226205,5.36877551 21.6042872,5.60285714 22.2321077,6.31265306 C22.8523641,6.99979592 22.9885179,8.00408163 22.8221077,8.89510204 C22.4817231,10.8055102 21.4378769,12.5195918 20.1217231,13.8485714 C19.3426205,14.6263265 18.4727487,15.2077551 17.5650564,15.7740816 C17.0280051,16.1138776 16.4909538,16.4461224 15.9539026,16.7783673 C15.8026205,16.2044898 14.9705692,15.894898 14.509159,15.6683673 C14.1839026,15.5097959 13.8435179,15.3587755 13.5031333,15.2002041 M0.190312821,26.277551 C1.12826154,23.3628571 3.77569744,21.7318367 6.08274872,20.1536735 C7.78467179,18.9832653 9.52441538,17.8808163 11.2414667,16.7406122 L11.3246718,16.6877551 C12.1113385,17.1559184 12.9206974,17.5561224 13.7300564,17.8959184 C13.8208256,17.9185714 13.919159,17.9412245 14.0250564,17.9638776 L13.9342872,18.0242857 C12.3306974,19.0059184 10.7498,19.9422449 9.25210769,21.09 C7.74685128,22.2528571 6.37018462,23.5289796 5.07672308,24.9410204 C4.11608205,25.9830612 3.51851795,27.2289796 2.88313333,28.505102 C2.64864615,28.9732653 2.42928718,29.6377551 2.01326154,29.962449 C1.72582564,30.1889796 1.24172308,30.2418367 0.931594872,30.0455102 C-0.187892308,29.3432653 -0.104687179,27.387551 0.190312821,26.277551" id="Fill-56" fill="#EE0027"></path>
                        <path d="M20.0839026,27.0930612 C19.3274923,26.4814286 19.5922359,25.3714286 19.5392872,24.5030612 C19.4787744,23.4685714 19.2972359,22.3208163 18.8585179,21.3769388 C18.3895436,20.357551 17.3230051,20.1310204 16.4833897,19.5873469 C15.689159,19.0738776 15.7496718,18.0318367 16.5665949,17.5787755 C18.2382615,16.634898 20.1898,17.775102 21.0823641,19.3155102 C21.6496718,20.2895918 21.9976205,21.4071429 22.3380051,22.4793878 C22.6783897,23.5742857 23.1322359,24.9938776 22.5876205,26.0887755 C22.1640308,26.9571429 20.9386462,27.7726531 20.0839026,27.0930612" id="Fill-58" fill="#008A2A"></path>
                        <path d="M13.7300564,17.8959184 C9.88749231,16.287551 5.87851795,13.1916327 5.45492821,8.49489796 C5.34903077,7.30183673 5.53056923,6.09367347 5.83313333,4.93836735 C6.08274872,3.96428571 6.37018462,2.9222449 6.83159487,2.03877551 C7.63338974,0.498367347 9.55467179,0.151020408 10.9162103,1.13265306 C12.5046718,2.28040816 11.5062103,4.34938776 11.120441,5.8822449 C10.8632615,6.90918367 10.6363385,7.96632653 10.4774923,9.01591837 C10.3110821,10.0504082 10.2883897,11.1226531 10.6136462,12.1344898 C10.8859538,12.9726531 11.3700564,13.7202041 12.0130051,14.2865306 C12.7315949,14.9283673 13.6695436,15.2530612 14.509159,15.6683673 C15.099159,15.9553061 16.279159,16.3781633 15.9009538,17.2993878 C15.5530051,18.1677551 14.4410821,18.0997959 13.7300564,17.8959184" id="Fill-60" fill="#0061C6"></path>
                        <path d="M4.97082564,29.2904082 C5.07672308,29.6755102 5.40954359,30.1134694 6.44582564,30.1814286 C8.23851795,30.2871429 10.1068513,30.0228571 11.9373641,29.6226531 C14.9932615,28.9581633 16.2640308,28.0897959 16.2640308,28.0897959 C16.2640308,28.0897959 18.1323641,27.0553061 18.0340308,24.2312245 C17.9356974,21.3995918 16.1203128,20.1008163 16.1203128,20.1008163 C16.1203128,20.1008163 15.394159,19.5873469 14.1914667,20.0253061 C13.3669795,20.3273469 11.0523641,21.6940816 9.5622359,22.6606122 C8.74531282,23.1816327 7.94351795,23.8763265 7.27787692,24.5861224 C6.6122359,25.2959184 5.82556923,26.2246939 5.29608205,27.5159184 C5.20531282,27.7122449 5.1448,27.9010204 5.09941538,28.0671429 C4.99351795,28.4220408 4.88005641,28.9204082 4.97082564,29.2904082" id="Fill-62" fill="#FFCB00"></path>
                    </g>
                </g>
            </g>
        </g>
    </g>
</svg>