<?xml version="1.0" encoding="UTF-8"?>
<svg width="233px" height="121px" viewBox="0 0 233 121" version="1.1" xmlns="http://www.w3.org/2000/svg" xmlns:xlink="http://www.w3.org/1999/xlink">
    <!-- Generator: Sketch 47.1 (45422) - http://www.bohemiancoding.com/sketch -->
    <title>Chiletec</title>
    <desc>Created with Sketch.</desc>
    <defs></defs>
    <g id="Page-1" stroke="none" stroke-width="1" fill="none" fill-rule="evenodd">
        <g id="Logos" transform="translate(-119.000000, -3610.000000)">
            <g id="Chiletec" transform="translate(119.000000, 3610.000000)">
                <rect id="Rectangle-3-Copy-8" fill="#FFFFFF" x="-1.42108547e-14" y="0" width="233" height="121"></rect>
                <g id="Chiletec_Asociación-de-Empresas-Chilenas-de-Tecnología" transform="translate(44.000000, 35.000000)">
                    <path d="M6.13705689,0.0416813783 C6.56331756,-0.0113914857 6.99338698,0.00259178385 7.42059984,0.00132057753 L31.1991535,0.00132057753 C31.6660407,0.00545199808 32.1335626,-0.0113914857 32.6001324,0.0165750534 C34.1636172,0.147827106 35.6794929,0.82379107 36.8106865,1.9144861 C37.8022266,2.84500913 38.507477,4.07585465 38.8112234,5.40235845 C39.004834,6.16953147 38.9988035,6.96626003 38.9997557,7.75250114 C38.9988035,15.5434069 38.9997557,23.3339949 38.9997557,31.1233116 C38.9997557,31.8587045 39.0118167,32.6004534 38.86645,33.325041 C38.6068214,34.6884098 37.9253757,35.9669255 36.9424052,36.9457544 C35.8905602,38.0014912 34.4921204,38.706693 33.0168713,38.9173954 C32.4633354,39.006062 31.9005951,39.0003416 31.3416636,38.999706 C23.5147177,38.9990704 15.6877718,38.999706 7.86114327,38.9990704 C7.22889362,38.998117 6.59315264,39.0162317 5.96693349,38.9151708 C4.27077781,38.668239 2.67936229,37.7669537 1.59736478,36.4363185 C0.731195459,35.3901157 0.184642302,34.0839512 0.0472105267,32.732341 C-0.0137291981,32.1720568 0.0021405219,31.6082768 0.0011883387,31.0464036 C0.0011883387,23.0619567 0.000553549902,15.0781454 0.0011883387,7.09369847 C-0.00706391571,5.65215049 0.41316627,4.20488209 1.24061347,3.0201178 C2.35149387,1.38884228 4.18000301,0.278761358 6.13705689,0.0416813783 Z" id="Fill-1" fill="#E3722B"></path>
                    <path d="M30.899515,14.7495231 L30.899515,13.5135496 C30.899515,10.8900962 29.7591855,10.7088405 25.5324813,10.7088405 C20.6689412,10.7088405 19.830519,11.4326364 19.830519,15.8652729 L19.830519,20.8705054 C19.8638546,25.3933097 20.467355,26.2679986 25.5324813,26.2679986 C29.4233134,26.2679986 31.1677724,26.1471615 31.1677724,22.921056 L31.1677724,21.6844691 L35.9982914,21.6844691 L35.9982914,23.1621168 C36.0986127,29.9768391 31.7715872,29.7351649 25.5324813,29.9768391 C16.6771587,30.2783185 15.1006358,27.6545584 15,21.0511477 L15,15.8652729 C15,8.62854075 18.1193957,7 25.5324813,7 C31.8052373,7 35.394162,7.03036262 35.7297196,13.5135496 L35.7297196,14.7495231 L30.899515,14.7495231 Z" id="Fill-3" fill="#FFFFFE"></path>
                    <path d="M46.2441181,17.3226467 L46.3789673,17.3226467 C47.3219643,14.961105 49.4438655,14.7159364 51.9368388,14.7159364 C56.5848729,14.7159364 58,16.4639326 58,20.3891262 L58,31 L53.7552503,31 L53.7552503,20.7877592 C53.7552503,18.4570975 53.1830096,17.6598316 50.454445,17.6598316 C46.7497237,17.6598316 46.2441181,19.2543635 46.2441181,22.1368106 L46.2441181,31 L42,31 L42,8 L46.2441181,8 L46.2441181,17.3226467 Z" id="Fill-5" fill="#656663"></path>
                    <path d="M63,31 L68,31 L68,14.9000936 L63,14.9000936 L63,31 Z M63,11.2816149 L68,11.2816149 L68,8 L63,8 L63,11.2816149 Z" id="Fill-7" fill="#656663"></path>
                    <path d="M90.6015748,20.7110008 C90.6015748,17.2923896 90.0435486,17.0389802 86.4473066,17.0389802 C82.6429094,17.0389802 82.3987525,17.7673309 82.3987525,20.7110008 L90.6015748,20.7110008 Z M95,25.5235245 C95,30.7462687 91.6839167,31 86.4473066,31 C79.431231,31 78,28.9740132 78,22.5470111 C78,16.5959164 79.047322,14 86.4473066,14 C93.9876978,14 95,15.9944314 95,23.2441283 L82.3987525,23.2441283 C82.3987525,26.8211607 82.5031574,27.9606978 86.4473066,27.9606978 C88.8911671,27.9606978 90.6015748,27.9925752 90.6015748,25.5235245 L95,25.5235245 Z" id="Fill-10" fill="#656663"></path>
                    <path d="M97,14.6613151 L99.1994589,14.6613151 L99.1994589,11 L103.399022,11 L103.399022,14.6613151 L110.098014,14.6613151 L110.098014,17.6156542 L103.399022,17.6156542 L103.399022,25.8921854 C103.432457,27.3687291 103.432457,28.0459738 105.198523,28.0459738 C107.56484,28.0459738 107.298617,26.3228179 107.298617,24.6303321 L110.997608,24.6303321 C111.064788,29.5231434 109.731177,31 105.198523,31 C100.599626,31 99.1994589,30.015116 99.1994589,25.9231684 L99.1994589,17.6156542 L97,17.6156542 L97,14.6613151 Z" id="Fill-11" fill="#656663"></path>
                    <path d="M125.60166,20.7110008 C125.60166,17.2923896 125.042989,17.0389802 121.448126,17.0389802 C117.643147,17.0389802 117.398668,17.7673309 117.398668,20.7110008 L125.60166,20.7110008 Z M130,25.5235245 C130,30.7462687 126.683981,31 121.448126,31 C114.430876,31 113,28.9740132 113,22.5470111 C113,16.5959164 114.047302,14 121.448126,14 C128.988045,14 130,15.9944314 130,23.2441283 L117.398668,23.2441283 C117.398668,26.8211607 117.503071,27.9606978 121.448126,27.9606978 C123.891285,27.9606978 125.60166,27.9925752 125.60166,25.5235245 L130,25.5235245 Z" id="Fill-12" fill="#656663"></path>
                    <path d="M148,24.4786537 C148,29.9235738 145.907471,31 139.932749,31 C133.418122,31 132,29.2271005 132,22.5157777 C132,16.6905826 132.978856,14 139.932749,14 C145.198251,14 148,14.7595841 148,20.0148496 L143.747216,20.0148496 C143.747216,17.4820441 142.903179,17.0389802 139.932749,17.0389802 C136.286963,17.0389802 136.253417,18.2416282 136.253417,22.5157777 C136.253417,26.6627396 136.186008,27.9606978 139.932749,27.9606978 C143.409221,27.9606978 143.747216,27.3910902 143.747216,24.4786537 L148,24.4786537 Z" id="Fill-13" fill="#656663"></path>
                    <path d="M45.1512218,35.5654968 L44.564525,33.9886307 L43.9754999,35.5654968 L45.1512218,35.5654968 Z M45.6680738,36.9644093 L45.2932397,35.9510628 L43.8334821,35.9510628 L43.4539916,36.9644093 L43,36.9644093 L44.3666312,33.3064755 L44.8508889,33.3064755 L46.1965666,36.9644093 L45.6680738,36.9644093 Z M47.3506646,37.0261987 C47.1411289,37.0261987 46.8865857,36.9742961 46.5870274,36.8704894 L46.5870274,36.423134 C46.8865857,36.5813157 47.1473373,36.6604053 47.3692899,36.6604053 C47.5012197,36.6604053 47.6106422,36.6225082 47.6975607,36.5467128 C47.7844792,36.4709174 47.8279378,36.3761746 47.8279378,36.2624815 C47.8279378,36.0960611 47.7060985,35.9584781 47.4624164,35.8497281 L47.1946777,35.7286209 C46.7988882,35.5539619 46.6009964,35.3026874 46.6009964,34.9747899 C46.6009964,34.7408128 46.678989,34.5566822 46.8349766,34.4223925 C46.9909643,34.2881028 47.204765,34.220959 47.4763853,34.220959 C47.6176279,34.220959 47.7922383,34.2415552 48.0002218,34.2827484 L48.0956765,34.302521 L48.0956765,34.7078596 C47.8395773,34.627121 47.6362532,34.5867523 47.485698,34.5867523 C47.190796,34.5867523 47.0433472,34.7004437 47.0433472,34.92783 C47.0433472,35.0744776 47.1550978,35.1980552 47.3786025,35.2985665 L47.5997779,35.3974296 C47.8496686,35.5094749 48.0266071,35.6276975 48.1305989,35.7521008 C48.2345907,35.8765042 48.2865858,36.0318 48.2865858,36.2179931 C48.2865858,36.4536179 48.1988925,36.6472228 48.0235034,36.7988136 C47.8481143,36.9504044 47.623837,37.0261987 47.3506646,37.0261987 Z M50.1002241,37.0261987 C49.7385811,37.0261987 49.4498919,36.8989138 49.2341478,36.6443401 C49.0184036,36.3897664 48.9105332,36.0491041 48.9105332,35.6223431 C48.9105332,35.1906388 49.0187917,34.8491527 49.2353118,34.5978744 C49.451832,34.3465962 49.7455655,34.220959 50.1165212,34.220959 C50.4874769,34.220959 50.7812104,34.3465962 50.9977306,34.5978744 C51.2142508,34.8491527 51.3225092,35.1889911 51.3225092,35.6173999 C51.3225092,36.0556951 51.2138627,36.4000647 50.9965665,36.650519 C50.7792703,36.9009734 50.4804925,37.0261987 50.1002241,37.0261987 Z M50.1072086,36.6604053 C50.5930208,36.6604053 50.8359233,36.3127403 50.8359233,35.6173999 C50.8359233,34.9302981 50.596125,34.5867523 50.1165212,34.5867523 C49.6384695,34.5867523 49.3994473,34.9319458 49.3994473,35.6223431 C49.3994473,36.314388 49.6353653,36.6604053 50.1072086,36.6604053 Z M53.0267239,37.0261987 C52.6852584,37.0261987 52.4020015,36.891911 52.1769447,36.6233317 C51.9518879,36.3547523 51.8393612,36.0161497 51.8393612,35.6075136 C51.8393612,35.1708662 51.9507239,34.8306158 52.1734525,34.5867523 C52.3961811,34.3428889 52.7069877,34.220959 53.1058814,34.220959 C53.3030001,34.220959 53.5233973,34.2497937 53.7670795,34.3074642 L53.7670795,34.7152743 C53.5078761,34.6345358 53.2967915,34.5941671 53.1338194,34.5941671 C52.8994499,34.5941671 52.7112587,34.6876741 52.5692401,34.8746911 C52.4272214,35.061708 52.3562132,35.3109228 52.3562132,35.6223431 C52.3562132,35.9238769 52.4291616,36.1677368 52.5750605,36.3539298 C52.7209593,36.5401229 52.9118667,36.633218 53.1477883,36.633218 C53.357324,36.633218 53.5730649,36.5763723 53.7950174,36.4626792 L53.7950174,36.8828473 C53.4985633,36.9784154 53.242468,37.0261987 53.0267239,37.0261987 Z M54.4818253,36.9644093 L54.4818253,34.2802768 L54.9404732,34.2802768 L54.9404732,36.9644093 L54.4818253,36.9644093 Z M54.4818253,33.7933762 L54.4818253,33.3064755 L54.9404732,33.3064755 L54.9404732,33.7933762 L54.4818253,33.7933762 Z M57.1638681,36.6233317 C56.8891436,36.891911 56.6245118,37.0261987 56.3699648,37.0261987 C56.1604291,37.0261987 55.9865948,36.9565833 55.8484565,36.8173505 C55.7103181,36.6781176 55.64125,36.5022255 55.64125,36.2896688 C55.64125,35.9963736 55.7572689,35.7710504 55.9893103,35.6136925 C56.2213516,35.4563347 56.5538874,35.3776569 56.9869278,35.3776569 L57.0963514,35.3776569 L57.0963514,35.0538804 C57.0963514,34.7424601 56.9457984,34.5867523 56.6446879,34.5867523 C56.4025578,34.5867523 56.1410302,34.665842 55.8600973,34.8240237 L55.8600973,34.4211567 C56.1689683,34.2876909 56.4584336,34.220959 56.7285018,34.220959 C57.0109868,34.220959 57.2193553,34.2885147 57.3536133,34.4236283 C57.4878713,34.5587418 57.5549993,34.7688238 57.5549993,35.0538804 L57.5549993,36.2698962 C57.5549993,36.5483619 57.6357081,36.6875927 57.7971282,36.6875927 C57.8173057,36.6875927 57.8467954,36.6842973 57.8855983,36.6777064 L57.9181926,36.9471083 C57.8142009,36.9998355 57.699346,37.0261987 57.5736246,37.0261987 C57.3594326,37.0261987 57.2228485,36.891911 57.1638681,36.6233317 Z M57.0963514,36.358873 L57.0963514,35.6643599 L56.9426927,35.6594167 C56.6912499,35.6594167 56.4879258,35.7100835 56.3327142,35.8114187 C56.1775026,35.9127538 56.099898,36.0458057 56.099898,36.2105783 C56.099898,36.3275669 56.1387003,36.426429 56.2163061,36.5071676 C56.2939119,36.5879062 56.3885895,36.6282748 56.5003419,36.6282748 C56.6912521,36.6282748 56.88992,36.5384751 57.0963514,36.358873 Z M59.4803894,37.0261987 C59.1389239,37.0261987 58.855667,36.891911 58.6306102,36.6233317 C58.4055534,36.3547523 58.2930267,36.0161497 58.2930267,35.6075136 C58.2930267,35.1708662 58.4043894,34.8306158 58.627118,34.5867523 C58.8498466,34.3428889 59.1606532,34.220959 59.5595469,34.220959 C59.7566657,34.220959 59.9770628,34.2497937 60.220745,34.3074642 L60.220745,34.7152743 C59.9615416,34.6345358 59.750457,34.5941671 59.5874849,34.5941671 C59.3531154,34.5941671 59.1649242,34.6876741 59.0229056,34.8746911 C58.880887,35.061708 58.8098787,35.3109228 58.8098787,35.6223431 C58.8098787,35.9238769 58.8828271,36.1677368 59.028726,36.3539298 C59.1746249,36.5401229 59.3655322,36.633218 59.6014539,36.633218 C59.8109895,36.633218 60.0267304,36.5763723 60.2486829,36.4626792 L60.2486829,36.8828473 C59.9522288,36.9784154 59.6961335,37.0261987 59.4803894,37.0261987 Z M60.9354908,36.9644093 L60.9354908,34.2802768 L61.3941387,34.2802768 L61.3941387,36.9644093 L60.9354908,36.9644093 Z M60.9354908,33.7933762 L60.9354908,33.3064755 L61.3941387,33.3064755 L61.3941387,33.7933762 L60.9354908,33.7933762 Z M63.3032317,37.0261987 C62.9415887,37.0261987 62.6528995,36.8989138 62.4371554,36.6443401 C62.2214113,36.3897664 62.1135408,36.0491041 62.1135408,35.6223431 C62.1135408,35.1906388 62.2217993,34.8491527 62.4383194,34.5978744 C62.6548396,34.3465962 62.9485731,34.220959 63.3195288,34.220959 C63.6904845,34.220959 63.984218,34.3465962 64.2007382,34.5978744 C64.4172584,34.8491527 64.5255168,35.1889911 64.5255168,35.6173999 C64.5255168,36.0556951 64.4168703,36.4000647 64.1995741,36.650519 C63.9822779,36.9009734 63.6835001,37.0261987 63.3032317,37.0261987 Z M63.3102162,36.6604053 C63.7960284,36.6604053 64.0389309,36.3127403 64.0389309,35.6173999 C64.0389309,34.9302981 63.7991326,34.5867523 63.3195288,34.5867523 C62.8414771,34.5867523 62.6024549,34.9319458 62.6024549,35.6223431 C62.6024549,36.314388 62.838373,36.6604053 63.3102162,36.6604053 Z M62.9749608,33.7933762 L63.5360479,33 L64.0668689,33 L63.3195288,33.7933762 L62.9749608,33.7933762 Z M65.2425908,36.9644093 L65.2425908,34.2802768 L65.7012387,34.2802768 L65.7012387,34.7844785 C65.9433688,34.4087969 66.2398185,34.220959 66.5905967,34.220959 C66.809445,34.220959 66.9840554,34.2946936 67.1144331,34.4421651 C67.2448109,34.5896366 67.3099988,34.7877727 67.3099988,35.0365793 L67.3099988,36.9644093 L66.8513508,36.9644093 L66.8513508,35.1947603 C66.8513508,34.9953854 66.8238012,34.8532711 66.7687011,34.7684132 C66.713601,34.6835554 66.6224155,34.641127 66.495142,34.641127 C66.214209,34.641127 65.9495773,34.8363797 65.7012387,35.2268908 L65.7012387,36.9644093 L65.2425908,36.9644093 Z M71.333063,36.9644093 L71.333063,36.4602076 C71.1468091,36.8375369 70.8658803,37.0261987 70.4902683,37.0261987 C70.1860536,37.0261987 69.9466433,36.9083881 69.7720303,36.6727632 C69.5974172,36.4371384 69.510112,36.1150128 69.510112,35.7063767 C69.510112,35.2598429 69.6090579,34.900644 69.8069527,34.6287692 C70.0048475,34.3568943 70.265211,34.220959 70.5880511,34.220959 C70.8876095,34.220959 71.1359443,34.3428889 71.333063,34.5867523 L71.333063,33.0617894 L71.7940391,33.0617894 L71.7940391,36.9644093 L71.333063,36.9644093 Z M71.333063,34.9204152 C71.0955893,34.6979722 70.8705358,34.5867523 70.657896,34.5867523 C70.2186472,34.5867523 69.9990261,34.9434797 69.9990261,35.6569451 C69.9990261,36.2847288 70.1945897,36.5986159 70.5857229,36.5986159 C70.8402699,36.5986159 71.0893808,36.4511466 71.333063,36.1562037 L71.333063,34.9204152 Z M74.5645521,36.8779041 C74.2572331,36.9767677 73.9941534,37.0261987 73.7753051,37.0261987 C73.4027973,37.0261987 73.0989752,36.8947945 72.8638296,36.6319822 C72.6286841,36.3691699 72.511113,36.0285076 72.511113,35.6099852 C72.511113,35.2029968 72.6147152,34.8693373 72.8219227,34.6089965 C73.0291302,34.3486558 73.29415,34.2184874 73.6169901,34.2184874 C73.9227569,34.2184874 74.159063,34.3338265 74.3259154,34.5645082 C74.4927679,34.7951898 74.5761929,35.1230824 74.5761929,35.5481957 L74.5738647,35.6989619 L72.9790736,35.6989619 C73.0458146,36.336632 73.3399362,36.6554622 73.8614471,36.6554622 C74.0523573,36.6554622 74.2867233,36.601088 74.5645521,36.4923381 L74.5645521,36.8779041 Z M73.0000271,35.3331686 L74.1152168,35.3331686 C74.1152168,34.8339075 73.9398303,34.5842808 73.5890521,34.5842808 C73.2367218,34.5842808 73.0403821,34.8339075 73.0000271,35.3331686 Z M76.8624481,36.9644093 L76.8624481,33.3064755 L78.7878382,33.3064755 L78.7878382,33.6945131 L77.3513622,33.6945131 L77.3513622,34.8685121 L78.555022,34.8685121 L78.555022,35.2516065 L77.3513622,35.2516065 L77.3513622,36.5763717 L78.8879492,36.5763717 L78.8879492,36.9644093 L76.8624481,36.9644093 Z M79.4606771,36.9644093 L79.4606771,34.2802768 L79.919325,34.2802768 L79.919325,34.7844785 C80.1428297,34.4087969 80.4299668,34.220959 80.780745,34.220959 C81.1191063,34.220959 81.349592,34.4087969 81.4722092,34.7844785 C81.6895054,34.4071492 81.9719863,34.2184874 82.3196602,34.2184874 C82.5431649,34.2184874 82.7162232,34.2881028 82.8388404,34.4273356 C82.9614575,34.5665685 83.0227652,34.7614092 83.0227652,35.0118636 L83.0227652,36.9644093 L82.5617891,36.9644093 L82.5617891,35.0884825 C82.5617891,34.7820054 82.4477103,34.6287692 82.2195492,34.6287692 C81.9820755,34.6287692 81.7329647,34.8075448 81.4722092,35.1651013 L81.4722092,36.9644093 L81.0112331,36.9644093 L81.0112331,35.0884825 C81.0112331,34.7803577 80.8948261,34.6262976 80.6620088,34.6262976 C80.4307435,34.6262976 80.1831847,34.805897 79.919325,35.1651013 L79.919325,36.9644093 L79.4606771,36.9644093 Z M83.9121231,37.9406822 L83.9121231,34.2802768 L84.3707711,34.2802768 L84.3707711,34.7844785 C84.5585771,34.4087969 84.8402819,34.220959 85.2158939,34.220959 C85.5201087,34.220959 85.7595189,34.3387696 85.934132,34.5743945 C86.108745,34.8100193 86.1960502,35.1321449 86.1960502,35.540781 C86.1960502,35.9856671 86.0971043,36.3444541 85.8992095,36.6171527 C85.7013148,36.8898514 85.4409512,37.0261987 85.1181111,37.0261987 C84.8185528,37.0261987 84.5694419,36.9042688 84.3707711,36.6604053 L84.3707711,37.9406822 L83.9121231,37.9406822 Z M84.3707711,36.3242709 C84.6066927,36.5483616 84.8317461,36.6604053 85.0459381,36.6604053 C85.486739,36.6604053 85.7071362,36.303678 85.7071362,35.5902126 C85.7071362,34.9607812 85.5115725,34.6460702 85.1204393,34.6460702 C84.8643402,34.6460702 84.6144533,34.7935395 84.3707711,35.0884825 L84.3707711,36.3242709 Z M86.9131242,36.9644093 L86.9131242,34.2802768 L87.3717721,34.2802768 L87.3717721,34.7844785 C87.5533697,34.4087969 87.8172254,34.220959 88.1633472,34.220959 C88.2099107,34.220959 88.2588016,34.2250782 88.3100215,34.2333169 L88.3100215,34.688087 C88.2308636,34.6600757 88.1610194,34.6460702 88.1004869,34.6460702 C87.8102412,34.6460702 87.5673387,34.8289651 87.3717721,35.1947603 L87.3717721,36.9644093 L86.9131242,36.9644093 Z M90.6696604,36.8779041 C90.3623414,36.9767677 90.0992617,37.0261987 89.8804134,37.0261987 C89.5079056,37.0261987 89.2040835,36.8947945 88.9689379,36.6319822 C88.7337924,36.3691699 88.6162213,36.0285076 88.6162213,35.6099852 C88.6162213,35.2029968 88.7198235,34.8693373 88.927031,34.6089965 C89.1342385,34.3486558 89.3992583,34.2184874 89.7220984,34.2184874 C90.0278652,34.2184874 90.2641713,34.3338265 90.4310238,34.5645082 C90.5978762,34.7951898 90.6813012,35.1230824 90.6813012,35.5481957 L90.678973,35.6989619 L89.0841819,35.6989619 C89.1509229,36.336632 89.4450445,36.6554622 89.9665554,36.6554622 C90.1574657,36.6554622 90.3918316,36.601088 90.6696604,36.4923381 L90.6696604,36.8779041 Z M89.1051354,35.3331686 L90.2203251,35.3331686 C90.2203251,34.8339075 90.0449386,34.5842808 89.6941604,34.5842808 C89.3418301,34.5842808 89.1454904,34.8339075 89.1051354,35.3331686 Z M92.143387,37.0261987 C91.9338514,37.0261987 91.6793082,36.9742961 91.3797498,36.8704894 L91.3797498,36.423134 C91.6793082,36.5813157 91.9400597,36.6604053 92.1620123,36.6604053 C92.2939422,36.6604053 92.4033647,36.6225082 92.4902832,36.5467128 C92.5772017,36.4709174 92.6206603,36.3761746 92.6206603,36.2624815 C92.6206603,36.0960611 92.498821,35.9584781 92.2551388,35.8497281 L91.9874002,35.7286209 C91.5916106,35.5539619 91.3937188,35.3026874 91.3937188,34.9747899 C91.3937188,34.7408128 91.4717115,34.5566822 91.6276991,34.4223925 C91.7836867,34.2881028 91.9974875,34.220959 92.2691078,34.220959 C92.4103503,34.220959 92.5849607,34.2415552 92.7929443,34.2827484 L92.8883989,34.302521 L92.8883989,34.7078596 C92.6322998,34.627121 92.4289757,34.5867523 92.2784204,34.5867523 C91.9835184,34.5867523 91.8360696,34.7004437 91.8360696,34.92783 C91.8360696,35.0744776 91.9478203,35.1980552 92.171325,35.2985665 L92.3925004,35.3974296 C92.642391,35.5094749 92.8193296,35.6276975 92.9233213,35.7521008 C93.0273131,35.8765042 93.0793082,36.0318 93.0793082,36.2179931 C93.0793082,36.4536179 92.991615,36.6472228 92.8162259,36.7988136 C92.6408368,36.9504044 92.4165594,37.0261987 92.143387,37.0261987 Z M95.2072484,36.6233317 C94.9325239,36.891911 94.6678921,37.0261987 94.4133451,37.0261987 C94.2038095,37.0261987 94.0299751,36.9565833 93.8918368,36.8173505 C93.7536985,36.6781176 93.6846304,36.5022255 93.6846304,36.2896688 C93.6846304,35.9963736 93.8006493,35.7710504 94.0326906,35.6136925 C94.2647319,35.4563347 94.5972678,35.3776569 95.0303081,35.3776569 L95.1397317,35.3776569 L95.1397317,35.0538804 C95.1397317,34.7424601 94.9891787,34.5867523 94.6880683,34.5867523 C94.4459382,34.5867523 94.1844106,34.665842 93.9034776,34.8240237 L93.9034776,34.4211567 C94.2123487,34.2876909 94.5018139,34.220959 94.7718821,34.220959 C95.0543672,34.220959 95.2627356,34.2885147 95.3969936,34.4236283 C95.5312517,34.5587418 95.5983797,34.7688238 95.5983797,35.0538804 L95.5983797,36.2698962 C95.5983797,36.5483619 95.6790885,36.6875927 95.8405085,36.6875927 C95.860686,36.6875927 95.8901758,36.6842973 95.9289787,36.6777064 L95.961573,36.9471083 C95.8575812,36.9998355 95.7427263,37.0261987 95.617005,37.0261987 C95.402813,37.0261987 95.2662288,36.891911 95.2072484,36.6233317 Z M95.1397317,36.358873 L95.1397317,35.6643599 L94.986073,35.6594167 C94.7346302,35.6594167 94.5313061,35.7100835 94.3760945,35.8114187 C94.2208829,35.9127538 94.1432783,36.0458057 94.1432783,36.2105783 C94.1432783,36.3275669 94.1820806,36.426429 94.2596864,36.5071676 C94.3372922,36.5879062 94.4319699,36.6282748 94.5437222,36.6282748 C94.7346325,36.6282748 94.9333003,36.5384751 95.1397317,36.358873 Z M97.2071397,37.0261987 C96.9976041,37.0261987 96.7430609,36.9742961 96.4435025,36.8704894 L96.4435025,36.423134 C96.7430609,36.5813157 97.0038124,36.6604053 97.225765,36.6604053 C97.3576949,36.6604053 97.4671174,36.6225082 97.5540359,36.5467128 C97.6409544,36.4709174 97.684413,36.3761746 97.684413,36.2624815 C97.684413,36.0960611 97.5625737,35.9584781 97.3188915,35.8497281 L97.0511529,35.7286209 C96.6553633,35.5539619 96.4574715,35.3026874 96.4574715,34.9747899 C96.4574715,34.7408128 96.5354642,34.5566822 96.6914518,34.4223925 C96.8474394,34.2881028 97.0612402,34.220959 97.3328605,34.220959 C97.474103,34.220959 97.6487134,34.2415552 97.856697,34.2827484 L97.9521516,34.302521 L97.9521516,34.7078596 C97.6960525,34.627121 97.4927284,34.5867523 97.3421731,34.5867523 C97.0472711,34.5867523 96.8998223,34.7004437 96.8998223,34.92783 C96.8998223,35.0744776 97.011573,35.1980552 97.2350777,35.2985665 L97.4562531,35.3974296 C97.7061437,35.5094749 97.8830823,35.6276975 97.987074,35.7521008 C98.0910658,35.8765042 98.1430609,36.0318 98.1430609,36.2179931 C98.1430609,36.4536179 98.0553677,36.6472228 97.8799786,36.7988136 C97.7045895,36.9504044 97.4803121,37.0261987 97.2071397,37.0261987 Z M101.937965,37.0558576 C101.402485,37.0558576 100.988853,36.8890279 100.697055,36.5553633 C100.405257,36.2216988 100.25936,35.7492204 100.25936,35.137914 C100.25936,34.5282553 100.407973,34.055365 100.705203,33.7192289 C101.002434,33.3830927 101.421111,33.2150272 101.961247,33.2150272 C102.270118,33.2150272 102.631755,33.2685775 103.04617,33.3756797 L103.04617,33.8625803 C102.574327,33.6895691 102.210361,33.6030648 101.954262,33.6030648 C101.580202,33.6030648 101.290737,33.7373524 101.085858,34.0059318 C100.880979,34.2745111 100.77854,34.6534825 100.77854,35.1428571 C100.77854,35.6091636 100.887963,35.977013 101.106811,36.2464162 C101.32566,36.5158194 101.624437,36.650519 102.003154,36.650519 C102.329098,36.650519 102.678319,36.5442423 103.050827,36.3316856 L103.050827,36.7765695 C102.710913,36.9627625 102.339963,37.0558576 101.937965,37.0558576 Z M103.774885,36.9644093 L103.774885,33.0617894 L104.233533,33.0617894 L104.233533,34.7844785 C104.475663,34.4087969 104.772113,34.220959 105.122891,34.220959 C105.341739,34.220959 105.51635,34.2946936 105.646728,34.4421651 C105.777105,34.5896366 105.842293,34.7877727 105.842293,35.0365793 L105.842293,36.9644093 L105.383645,36.9644093 L105.383645,35.1947603 C105.383645,34.9953854 105.356096,34.8532711 105.300995,34.7684132 C105.245895,34.6835554 105.15471,34.641127 105.027436,34.641127 C104.746503,34.641127 104.481872,34.8363797 104.233533,35.2268908 L104.233533,36.9644093 L103.774885,36.9644093 Z M106.733979,36.9644093 L106.733979,34.2802768 L107.192627,34.2802768 L107.192627,36.9644093 L106.733979,36.9644093 Z M106.733979,33.7933762 L106.733979,33.3064755 L107.192627,33.3064755 L107.192627,33.7933762 L106.733979,33.7933762 Z M108.112251,36.9644093 L108.112251,33.0617894 L108.570899,33.0617894 L108.570899,36.9644093 L108.112251,36.9644093 Z M111.34374,36.8779041 C111.036421,36.9767677 110.773342,37.0261987 110.554493,37.0261987 C110.181986,37.0261987 109.878163,36.8947945 109.643018,36.6319822 C109.407872,36.3691699 109.290301,36.0285076 109.290301,35.6099852 C109.290301,35.2029968 109.393904,34.8693373 109.601111,34.6089965 C109.808318,34.3486558 110.073338,34.2184874 110.396178,34.2184874 C110.701945,34.2184874 110.938251,34.3338265 111.105104,34.5645082 C111.271956,34.7951898 111.355381,35.1230824 111.355381,35.5481957 L111.353053,35.6989619 L109.758262,35.6989619 C109.825003,36.336632 110.119124,36.6554622 110.640635,36.6554622 C110.831546,36.6554622 111.065912,36.601088 111.34374,36.4923381 L111.34374,36.8779041 Z M109.779215,35.3331686 L110.894405,35.3331686 C110.894405,34.8339075 110.719019,34.5842808 110.36824,34.5842808 C110.01591,34.5842808 109.81957,34.8339075 109.779215,35.3331686 Z M112.146956,36.9644093 L112.146956,34.2802768 L112.605604,34.2802768 L112.605604,34.7844785 C112.847734,34.4087969 113.144184,34.220959 113.494962,34.220959 C113.713811,34.220959 113.888421,34.2946936 114.018799,34.4421651 C114.149176,34.5896366 114.214364,34.7877727 114.214364,35.0365793 L114.214364,36.9644093 L113.755716,36.9644093 L113.755716,35.1947603 C113.755716,34.9953854 113.728167,34.8532711 113.673067,34.7684132 C113.617966,34.6835554 113.526781,34.641127 113.399508,34.641127 C113.118575,34.641127 112.853943,34.8363797 112.605604,35.2268908 L112.605604,36.9644093 L112.146956,36.9644093 Z M116.409821,36.6233317 C116.135097,36.891911 115.870465,37.0261987 115.615918,37.0261987 C115.406382,37.0261987 115.232548,36.9565833 115.09441,36.8173505 C114.956271,36.6781176 114.887203,36.5022255 114.887203,36.2896688 C114.887203,35.9963736 115.003222,35.7710504 115.235263,35.6136925 C115.467305,35.4563347 115.799841,35.3776569 116.232881,35.3776569 L116.342305,35.3776569 L116.342305,35.0538804 C116.342305,34.7424601 116.191752,34.5867523 115.890641,34.5867523 C115.648511,34.5867523 115.386983,34.665842 115.10605,34.8240237 L115.10605,34.4211567 C115.414921,34.2876909 115.704387,34.220959 115.974455,34.220959 C116.25694,34.220959 116.465308,34.2885147 116.599566,34.4236283 C116.733824,34.5587418 116.800952,34.7688238 116.800952,35.0538804 L116.800952,36.2698962 C116.800952,36.5483619 116.881661,36.6875927 117.043081,36.6875927 C117.063259,36.6875927 117.092749,36.6842973 117.131551,36.6777064 L117.164146,36.9471083 C117.060154,36.9998355 116.945299,37.0261987 116.819578,37.0261987 C116.605386,37.0261987 116.468802,36.891911 116.409821,36.6233317 Z M116.342305,36.358873 L116.342305,35.6643599 L116.188646,35.6594167 C115.937203,35.6594167 115.733879,35.7100835 115.578667,35.8114187 C115.423456,35.9127538 115.345851,36.0458057 115.345851,36.2105783 C115.345851,36.3275669 115.384653,36.426429 115.462259,36.5071676 C115.539865,36.5879062 115.634543,36.6282748 115.746295,36.6282748 C115.937205,36.6282748 116.135873,36.5384751 116.342305,36.358873 Z M118.409713,37.0261987 C118.200177,37.0261987 117.945634,36.9742961 117.646075,36.8704894 L117.646075,36.423134 C117.945634,36.5813157 118.206385,36.6604053 118.428338,36.6604053 C118.560268,36.6604053 118.66969,36.6225082 118.756609,36.5467128 C118.843527,36.4709174 118.886986,36.3761746 118.886986,36.2624815 C118.886986,36.0960611 118.765146,35.9584781 118.521464,35.8497281 L118.253726,35.7286209 C117.857936,35.5539619 117.660044,35.3026874 117.660044,34.9747899 C117.660044,34.7408128 117.738037,34.5566822 117.894025,34.4223925 C118.050012,34.2881028 118.263813,34.220959 118.535433,34.220959 C118.676676,34.220959 118.851286,34.2415552 119.05927,34.2827484 L119.154724,34.302521 L119.154724,34.7078596 C118.898625,34.627121 118.695301,34.5867523 118.544746,34.5867523 C118.249844,34.5867523 118.102395,34.7004437 118.102395,34.92783 C118.102395,35.0744776 118.214146,35.1980552 118.43765,35.2985665 L118.658826,35.3974296 C118.908717,35.5094749 119.085655,35.6276975 119.189647,35.7521008 C119.293639,35.8765042 119.345634,36.0318 119.345634,36.2179931 C119.345634,36.4536179 119.25794,36.6472228 119.082551,36.7988136 C118.907162,36.9504044 118.682885,37.0261987 118.409713,37.0261987 Z M123.301181,36.9644093 L123.301181,36.4602076 C123.114927,36.8375369 122.833999,37.0261987 122.458387,37.0261987 C122.154172,37.0261987 121.914762,36.9083881 121.740148,36.6727632 C121.565535,36.4371384 121.47823,36.1150128 121.47823,35.7063767 C121.47823,35.2598429 121.577176,34.900644 121.775071,34.6287692 C121.972966,34.3568943 122.233329,34.220959 122.556169,34.220959 C122.855728,34.220959 123.104063,34.3428889 123.301181,34.5867523 L123.301181,33.0617894 L123.762157,33.0617894 L123.762157,36.9644093 L123.301181,36.9644093 Z M123.301181,34.9204152 C123.063707,34.6979722 122.838654,34.5867523 122.626014,34.5867523 C122.186765,34.5867523 121.967144,34.9434797 121.967144,35.6569451 C121.967144,36.2847288 122.162708,36.5986159 122.553841,36.5986159 C122.808388,36.5986159 123.057499,36.4511466 123.301181,36.1562037 L123.301181,34.9204152 Z M126.53267,36.8779041 C126.225351,36.9767677 125.962272,37.0261987 125.743423,37.0261987 C125.370916,37.0261987 125.067093,36.8947945 124.831948,36.6319822 C124.596802,36.3691699 124.479231,36.0285076 124.479231,35.6099852 C124.479231,35.2029968 124.582833,34.8693373 124.790041,34.6089965 C124.997248,34.3486558 125.262268,34.2184874 125.585108,34.2184874 C125.890875,34.2184874 126.127181,34.3338265 126.294034,34.5645082 C126.460886,34.7951898 126.544311,35.1230824 126.544311,35.5481957 L126.541983,35.6989619 L124.947192,35.6989619 C125.013933,36.336632 125.308054,36.6554622 125.829565,36.6554622 C126.020476,36.6554622 126.254842,36.601088 126.53267,36.4923381 L126.53267,36.8779041 Z M124.968145,35.3331686 L126.083335,35.3331686 C126.083335,34.8339075 125.907949,34.5842808 125.55717,34.5842808 C125.20484,34.5842808 125.0085,34.8339075 124.968145,35.3331686 Z M129.454588,36.9644093 L129.454588,33.6945131 L128.232303,33.6945131 L128.232303,33.3064755 L131.165787,33.3064755 L131.165787,33.6945131 L129.943502,33.6945131 L129.943502,36.9644093 L129.454588,36.9644093 Z M133.178698,36.8779041 C132.871379,36.9767677 132.608299,37.0261987 132.389451,37.0261987 C132.016943,37.0261987 131.713121,36.8947945 131.477975,36.6319822 C131.24283,36.3691699 131.125259,36.0285076 131.125259,35.6099852 C131.125259,35.2029968 131.228861,34.8693373 131.436068,34.6089965 C131.643276,34.3486558 131.908296,34.2184874 132.231136,34.2184874 C132.536903,34.2184874 132.773209,34.3338265 132.940061,34.5645082 C133.106914,34.7951898 133.190339,35.1230824 133.190339,35.5481957 L133.188011,35.6989619 L131.593219,35.6989619 C131.65996,36.336632 131.954082,36.6554622 132.475593,36.6554622 C132.666503,36.6554622 132.900869,36.601088 133.178698,36.4923381 L133.178698,36.8779041 Z M131.614173,35.3331686 L132.729363,35.3331686 C132.729363,34.8339075 132.553976,34.5842808 132.203198,34.5842808 C131.850868,34.5842808 131.654528,34.8339075 131.614173,35.3331686 Z M134.969055,37.0261987 C134.627589,37.0261987 134.344332,36.891911 134.119275,36.6233317 C133.894219,36.3547523 133.781692,36.0161497 133.781692,35.6075136 C133.781692,35.1708662 133.893055,34.8306158 134.115783,34.5867523 C134.338512,34.3428889 134.649318,34.220959 135.048212,34.220959 C135.245331,34.220959 135.465728,34.2497937 135.70941,34.3074642 L135.70941,34.7152743 C135.450207,34.6345358 135.239122,34.5941671 135.07615,34.5941671 C134.841781,34.5941671 134.653589,34.6876741 134.511571,34.8746911 C134.369552,35.061708 134.298544,35.3109228 134.298544,35.6223431 C134.298544,35.9238769 134.371492,36.1677368 134.517391,36.3539298 C134.66329,36.5401229 134.854197,36.633218 135.090119,36.633218 C135.299655,36.633218 135.515396,36.5763723 135.737348,36.4626792 L135.737348,36.8828473 C135.440894,36.9784154 135.184799,37.0261987 134.969055,37.0261987 Z M136.424156,36.9644093 L136.424156,34.2802768 L136.882804,34.2802768 L136.882804,34.7844785 C137.124934,34.4087969 137.421384,34.220959 137.772162,34.220959 C137.99101,34.220959 138.165621,34.2946936 138.295998,34.4421651 C138.426376,34.5896366 138.491564,34.7877727 138.491564,35.0365793 L138.491564,36.9644093 L138.032916,36.9644093 L138.032916,35.1947603 C138.032916,34.9953854 138.005366,34.8532711 137.950266,34.7684132 C137.895166,34.6835554 137.803981,34.641127 137.676707,34.641127 C137.395774,34.641127 137.131142,34.8363797 136.882804,35.2268908 L136.882804,36.9644093 L136.424156,36.9644093 Z M140.372719,37.0261987 C140.011076,37.0261987 139.722387,36.8989138 139.506643,36.6443401 C139.290899,36.3897664 139.183028,36.0491041 139.183028,35.6223431 C139.183028,35.1906388 139.291287,34.8491527 139.507807,34.5978744 C139.724327,34.3465962 140.01806,34.220959 140.389016,34.220959 C140.759972,34.220959 141.053705,34.3465962 141.270225,34.5978744 C141.486746,34.8491527 141.595004,35.1889911 141.595004,35.6173999 C141.595004,36.0556951 141.486358,36.4000647 141.269061,36.650519 C141.051765,36.9009734 140.752987,37.0261987 140.372719,37.0261987 Z M140.379703,36.6604053 C140.865516,36.6604053 141.108418,36.3127403 141.108418,35.6173999 C141.108418,34.9302981 140.86862,34.5867523 140.389016,34.5867523 C139.910964,34.5867523 139.671942,34.9319458 139.671942,35.6223431 C139.671942,36.314388 139.90786,36.6604053 140.379703,36.6604053 Z M142.312078,36.9644093 L142.312078,33.0617894 L142.770726,33.0617894 L142.770726,36.9644093 L142.312078,36.9644093 Z M144.679819,37.0261987 C144.318176,37.0261987 144.029487,36.8989138 143.813743,36.6443401 C143.597999,36.3897664 143.490128,36.0491041 143.490128,35.6223431 C143.490128,35.1906388 143.598387,34.8491527 143.814907,34.5978744 C144.031427,34.3465962 144.32516,34.220959 144.696116,34.220959 C145.067072,34.220959 145.360805,34.3465962 145.577325,34.5978744 C145.793846,34.8491527 145.902104,35.1889911 145.902104,35.6173999 C145.902104,36.0556951 145.793458,36.4000647 145.576161,36.650519 C145.358865,36.9009734 145.060087,37.0261987 144.679819,37.0261987 Z M144.686803,36.6604053 C145.172616,36.6604053 145.415518,36.3127403 145.415518,35.6173999 C145.415518,34.9302981 145.17572,34.5867523 144.696116,34.5867523 C144.218064,34.5867523 143.979042,34.9319458 143.979042,35.6223431 C143.979042,36.314388 144.21496,36.6604053 144.686803,36.6604053 Z M146.628491,37.8566485 L146.682038,37.4340089 C146.94745,37.5674747 147.208978,37.6342066 147.466629,37.6342066 C147.983484,37.6342066 148.241907,37.3433873 148.241907,36.76174 L148.241907,36.3391003 C148.072726,36.7147819 147.794902,36.9026199 147.408425,36.9026199 C147.105762,36.9026199 146.865188,36.7856331 146.686695,36.551656 C146.508201,36.3176788 146.418956,36.002144 146.418956,35.605042 C146.418956,35.1964059 146.520618,34.8635702 146.723945,34.606525 C146.927273,34.3494797 147.190352,34.220959 147.513192,34.220959 C147.795677,34.220959 148.03858,34.3428889 148.241907,34.5867523 L148.241907,34.2802768 L148.702883,34.2802768 L148.702883,36.2328225 C148.702883,36.6529927 148.682318,36.9639964 148.641187,37.1658428 C148.600056,37.3676893 148.522839,37.5328713 148.409535,37.661394 C148.209312,37.8871325 147.898117,38 147.475942,38 C147.18104,38 146.898559,37.9522167 146.628491,37.8566485 Z M148.241907,36.0350964 L148.241907,34.9204152 C148.040132,34.6979722 147.820511,34.5867523 147.583037,34.5867523 C147.371949,34.5867523 147.206652,34.6765521 147.087139,34.8561542 C146.967626,35.0357564 146.90787,35.2820877 146.90787,35.5951557 C146.90787,36.1833939 147.102658,36.4775087 147.492239,36.4775087 C147.757651,36.4775087 148.007538,36.3300394 148.241907,36.0350964 Z M149.563633,36.9644093 L149.563633,34.2802768 L150.022281,34.2802768 L150.022281,36.9644093 L149.563633,36.9644093 Z M149.458865,33.7933762 L150.019952,33 L150.550773,33 L149.803433,33.7933762 L149.458865,33.7933762 Z M152.245675,36.6233317 C151.970951,36.891911 151.706319,37.0261987 151.451772,37.0261987 C151.242237,37.0261987 151.068402,36.9565833 150.930264,36.8173505 C150.792126,36.6781176 150.723057,36.5022255 150.723057,36.2896688 C150.723057,35.9963736 150.839076,35.7710504 151.071118,35.6136925 C151.303159,35.4563347 151.635695,35.3776569 152.068735,35.3776569 L152.178159,35.3776569 L152.178159,35.0538804 C152.178159,34.7424601 152.027606,34.5867523 151.726495,34.5867523 C151.484365,34.5867523 151.222838,34.665842 150.941905,34.8240237 L150.941905,34.4211567 C151.250776,34.2876909 151.540241,34.220959 151.810309,34.220959 C152.092794,34.220959 152.301163,34.2885147 152.435421,34.4236283 C152.569679,34.5587418 152.636807,34.7688238 152.636807,35.0538804 L152.636807,36.2698962 C152.636807,36.5483619 152.717516,36.6875927 152.878936,36.6875927 C152.899113,36.6875927 152.928603,36.6842973 152.967406,36.6777064 L153,36.9471083 C152.896008,36.9998355 152.781153,37.0261987 152.655432,37.0261987 C152.44124,37.0261987 152.304656,36.891911 152.245675,36.6233317 Z M152.178159,36.358873 L152.178159,35.6643599 L152.0245,35.6594167 C151.773057,35.6594167 151.569733,35.7100835 151.414522,35.8114187 C151.25931,35.9127538 151.181705,36.0458057 151.181705,36.2105783 C151.181705,36.3275669 151.220508,36.426429 151.298113,36.5071676 C151.375719,36.5879062 151.470397,36.6282748 151.582149,36.6282748 C151.773059,36.6282748 151.971727,36.5384751 152.178159,36.358873 Z" id="Asociación-de-Empresas-Chilenas-de-Tecnología" fill="#1B1B19"></path>
                    <polygon id="Fill-14" fill="#656663" points="71 31 76 31 76 7 71 7"></polygon>
                </g>
            </g>
        </g>
    </g>
</svg>