<?xml version="1.0" encoding="UTF-8"?>
<svg width="233px" height="121px" viewBox="0 0 233 121" version="1.1" xmlns="http://www.w3.org/2000/svg" xmlns:xlink="http://www.w3.org/1999/xlink">
    <!-- Generator: Sketch 43.2 (39069) - http://www.bohemiancoding.com/sketch -->
    <title>Etermax</title>
    <desc>Created with Sketch.</desc>
    <defs>
        <polygon id="path-1" points="28.2974545 0.0312 28.2974545 25.8517455 0.0990363636 25.8517455 0.0990363636 0.0312 28.2974545 0.0312"></polygon>
        <polygon id="path-3" points="14.8335091 0.0543636364 0.181509091 0.0543636364 0.181509091 27.4545273 14.8335091 27.4545273 14.8335091 0.0543636364"></polygon>
        <polygon id="path-5" points="0.0347454545 23.0909091 21.3919965 23.0909091 21.3919965 0.161727273 0.0347454545 0.161727273"></polygon>
    </defs>
    <g id="Page-1" stroke="none" stroke-width="1" fill="none" fill-rule="evenodd">
        <g id="Logos" transform="translate(-119.000000, -3310.000000)">
            <g id="Etermax" transform="translate(119.000000, 3310.000000)">
                <rect id="Rectangle-3-Copy-6" fill="#FFFFFF" x="-1.42108547e-14" y="0" width="233" height="121"></rect>
                <g id="Page-1" transform="translate(45.000000, 44.000000)">
                    <g id="Group-3" transform="translate(119.636364, 1.400182)">
                        <mask id="mask-2" fill="white">
                            <use xlink:href="#path-1"></use>
                        </mask>
                        <g id="Clip-2"></g>
                        <path d="M28.1461273,1.89010909 L26.4659455,6.31956364 L23.1494,5.01574545 L15.4003091,14.9490182 L20.4377636,25.0610182 C20.4754,25.1364727 20.4754,25.2108364 20.4754,25.2875636 C20.4754,25.5890182 20.2879455,25.8517455 19.9870364,25.8517455 L14.6103091,25.8517455 C14.1983091,25.8517455 14.0844909,25.6252 13.8208545,25.0610182 L11.1143091,19.2341091 L6.60303636,25.0993818 C6.15249091,25.6622909 5.8874,25.8517455 5.4754,25.8517455 L0.436854545,25.8517455 C0.212309091,25.8517455 0.0990363636,25.7012 0.0990363636,25.5128364 C0.0990363636,25.3624727 0.136672727,25.2502909 0.248490909,25.0993818 L8.67012727,14.6490182 L3.93303636,5.09810909 C3.89594545,5.02283636 3.8574,4.9472 3.8574,4.8352 C3.8574,4.57210909 4.04685455,4.30938182 4.34703636,4.30938182 L9.72376364,4.30938182 C10.1368545,4.30938182 10.2881273,4.60901818 10.5126727,5.09810909 L12.9568545,10.2866545 L19.6146727,0.821018182 C20.0668545,0.256109091 20.3299455,0.0312 20.7424909,0.0312 L27.9204909,1.09992727 C28.1201273,1.13083636 28.2975818,1.28829091 28.2975818,1.47683636 C28.2975818,1.62629091 28.2123091,1.74083636 28.1461273,1.89010909" id="Fill-1" fill="#3CAF49" mask="url(#mask-2)"></path>
                    </g>
                    <path d="M14.4197091,12.4634182 C14.4197091,11.5586909 14.1853455,10.8706909 13.7198909,10.4050545 C13.2528,9.93687273 12.4760727,9.70450909 11.3875273,9.70450909 C10.0664364,9.70450909 9.06116364,10.1128727 8.37516364,10.9296 C7.6888,11.7443273 7.20370909,12.8256 6.91970909,14.1739636 L14.2244364,14.1739636 C14.2758909,13.8628727 14.3228,13.5648727 14.3604364,13.2801455 C14.3998909,12.9957818 14.4197091,12.7232364 14.4197091,12.4634182 M20.2869818,12.7757818 C20.2869818,13.1116 20.2689818,13.4545091 20.2295273,13.8057818 C20.1906182,14.1546909 20.1451636,14.5094182 20.0935273,14.8739636 L19.7053455,17.1276 C19.5753455,17.7490545 19.2500727,18.0601455 18.7335273,18.0601455 L6.25770909,18.0601455 C6.20589091,18.3456 6.16552727,18.6243273 6.14116364,18.8966909 C6.11552727,19.1681455 6.10189091,19.4205091 6.10189091,19.6537818 C6.10189091,20.6645091 6.36789091,21.3703273 6.89825455,21.7708727 C7.42898182,22.1745091 8.31789091,22.3743273 9.55989091,22.3743273 C10.1828,22.3743273 10.8493455,22.3621455 11.5628,22.3357818 C12.2748,22.3101455 12.9746182,22.2776 13.6609818,22.2385091 C14.3488,22.1985091 14.9957091,22.1610545 15.6046182,22.1219636 C16.2138909,22.0828727 16.7124364,22.0510545 17.1009818,22.0250545 C17.4122545,21.9996 17.6255273,22.0250545 17.7417091,22.1017818 C17.8580727,22.1799636 17.8898909,22.3621455 17.8386182,22.6457818 L17.2958909,25.5997818 C17.2431636,25.9114182 17.1584364,26.1445091 17.0420727,26.2996 C16.9257091,26.4554182 16.6853455,26.5723273 16.3238909,26.6485091 C15.0271636,26.9614182 13.7651636,27.1928727 12.5348,27.3481455 C11.3031636,27.5032364 9.84607273,27.5819636 8.16207273,27.5819636 C7.09934545,27.5819636 6.08225455,27.4268727 5.11043636,27.1157818 C4.13989091,26.8063273 3.27243636,26.3336 2.50625455,25.6983273 C1.74425455,25.0636 1.13370909,24.2532364 0.680072727,23.2694182 C0.2268,22.2832364 7.27272727e-05,21.1177818 7.27272727e-05,19.7697818 C7.27272727e-05,19.4328727 0.0195272727,19.0841455 0.0591636364,18.7205091 C0.0984363636,18.3581455 0.141890909,17.9832364 0.194981818,17.5952364 L0.661890909,14.8739636 C1.25770909,11.4799636 2.53916364,8.9276 4.5088,7.21669091 C6.47825455,5.50669091 9.06898182,4.65269091 12.2822545,4.65269091 C13.6031636,4.65269091 14.7626182,4.86050909 15.7600727,5.27487273 C16.7577091,5.68941818 17.5920727,6.26505455 18.2662545,7.00323636 C18.9404364,7.74269091 19.4453455,8.60396364 19.7822545,9.58796364 C20.1193455,10.5726909 20.2869818,11.6352364 20.2869818,12.7757818" id="Fill-4" fill="#3CAF49"></path>
                    <g id="Group-8" transform="translate(21.272727, 0.127455)">
                        <mask id="mask-4" fill="white">
                            <use xlink:href="#path-3"></use>
                        </mask>
                        <g id="Clip-7"></g>
                        <path d="M14.8335091,5.61289091 L14.2504182,8.76034545 C14.1973273,8.96798182 14.0869636,9.14907273 13.9191455,9.30525455 C13.7498727,9.46052727 13.5624182,9.5378 13.3555091,9.5378 L10.1689636,9.5378 L8.14841818,20.8490727 C8.07114545,21.3136182 8.03205455,21.6770727 8.03205455,21.9372545 C8.03205455,22.2208909 8.10896364,22.4163455 8.2646,22.5183455 C8.4206,22.6227091 8.70441818,22.6743455 9.11987273,22.6743455 L11.0246,22.6743455 C11.2316909,22.6743455 11.3996909,22.7138 11.5295091,22.7908909 C11.6593273,22.8692545 11.7229636,23.0118 11.7229636,23.2183455 L11.7229636,23.3350727 L11.1802364,26.3674364 C11.1018727,26.8068909 10.8158727,27.0652545 10.3249636,27.1436182 C9.72805455,27.2467091 9.19896364,27.3254364 8.73169091,27.3758 C8.2646,27.4274364 7.74932727,27.4545273 7.18241818,27.4545273 C5.40641818,27.4545273 4.04769091,27.1041636 3.10750909,26.4045273 C2.16732727,25.7065273 1.69550909,24.5012545 1.69550909,22.7908909 C1.69550909,22.5072545 1.71532727,22.1954364 1.75496364,21.8585273 C1.79241818,21.5227091 1.83805455,21.1719818 1.88932727,20.8074364 L3.8586,9.5378 L0.841509091,9.03434545 C0.402054545,8.95452727 0.181509091,8.72125455 0.181509091,8.33289091 L0.181509091,8.21634545 L0.608963636,5.6518 C0.660418182,5.44452727 0.783145455,5.25670909 0.977872727,5.0878 C1.17132727,4.92034545 1.37223636,4.83525455 1.57969091,4.83525455 L4.6706,4.83525455 L5.21169091,1.64907273 C5.26441818,1.44161818 5.37187273,1.27307273 5.53950909,1.14270909 C5.70732727,1.01434545 5.90678182,0.9238 6.13969091,0.870709091 L11.0246,0.0543454545 L11.1413273,0.0543454545 C11.5295091,0.0543454545 11.7229636,0.2378 11.7229636,0.598709091 L11.7229636,0.716890909 L10.9867818,4.83525455 L14.1733273,4.83525455 C14.6127818,4.83525455 14.8335091,5.05616364 14.8335091,5.4958 L14.8335091,5.61289091 Z" id="Fill-6" fill="#3CAF49" mask="url(#mask-4)"></path>
                    </g>
                    <path d="M48.9312545,12.4634182 C48.9312545,11.5586909 48.6968909,10.8706909 48.2316182,10.4050545 C47.7645273,9.93687273 46.9876182,9.70450909 45.9007091,9.70450909 C44.5785273,9.70450909 43.5728909,10.1128727 42.8868909,10.9296 C42.2007091,11.7443273 41.7136182,12.8256 41.4312545,14.1739636 L48.7348909,14.1739636 C48.7861636,13.8628727 48.8347091,13.5648727 48.8725273,13.2801455 C48.9101636,12.9957818 48.9312545,12.7232364 48.9312545,12.4634182 M54.7987091,12.7757818 C54.7987091,13.1116 54.7792545,13.4545091 54.7412545,13.8057818 C54.7021636,14.1546909 54.6567091,14.5094182 54.6054364,14.8739636 L54.2154364,17.1276 C54.0852545,17.7490545 53.7636182,18.0601455 53.2450727,18.0601455 L40.7690727,18.0601455 C40.7178,18.3456 40.6787091,18.6243273 40.6514364,18.8966909 C40.6256182,19.1681455 40.6134364,19.4205091 40.6134364,19.6537818 C40.6134364,20.6645091 40.8781636,21.3703273 41.4099818,21.7708727 C41.9423455,22.1745091 42.8294364,22.3743273 44.0734364,22.3743273 C44.6945273,22.3743273 45.3610727,22.3621455 46.0745273,22.3357818 C46.7863455,22.3101455 47.4865273,22.2776 48.1723455,22.2385091 C48.8588909,22.1985091 49.5068909,22.1610545 50.1161636,22.1219636 C50.7256182,22.0828727 51.2227091,22.0510545 51.6127091,22.0250545 C51.9239818,21.9996 52.1372545,22.0250545 52.2534364,22.1017818 C52.3699818,22.1799636 52.4016182,22.3621455 52.3503455,22.6457818 L51.8063455,25.5997818 C51.7543455,25.9114182 51.6701636,26.1445091 51.5538,26.2996 C51.4374364,26.4554182 51.1987091,26.5723273 50.8358,26.6485091 C49.5388909,26.9614182 48.2767091,27.1928727 47.0465273,27.3481455 C45.8147091,27.5032364 44.3576182,27.5819636 42.6738,27.5819636 C41.6110727,27.5819636 40.5939818,27.4268727 39.6219818,27.1157818 C38.6518,26.8063273 37.7825273,26.3336 37.0190727,25.6983273 C36.2545273,25.0636 35.6454364,24.2532364 35.1918,23.2694182 C34.7385273,22.2832364 34.5118,21.1177818 34.5118,19.7697818 C34.5118,19.4328727 34.5316182,19.0841455 34.5705273,18.7205091 C34.6099818,18.3581455 34.6538,17.9832364 34.7068909,17.5952364 L35.1723455,14.8739636 C35.7679818,11.4799636 37.0508909,8.9276 39.0208909,7.21669091 C40.9885273,5.50669091 43.5808909,4.65269091 46.7925273,4.65269091 C48.1134364,4.65269091 49.2730727,4.86050909 50.2721636,5.27487273 C51.2678,5.68941818 52.1038,6.26505455 52.7779818,7.00323636 C53.4519818,7.74269091 53.9570727,8.60396364 54.2941636,9.58796364 C54.6312545,10.5726909 54.7987091,11.6352364 54.7987091,12.7757818" id="Fill-9" fill="#3CAF49"></path>
                    <path d="M70.6165636,5.42956364 L69.9576545,9.12156364 C69.9049273,9.30392727 69.8200182,9.47174545 69.7038364,9.62665455 C69.5874727,9.78301818 69.4376545,9.85956364 69.2560182,9.85956364 L68.9462,9.85956364 C67.9867455,9.85956364 67.0674727,9.98938182 66.1865636,10.2495636 C65.3067455,10.5090182 64.4752909,10.8308364 63.7002,11.2213818 L61.0189273,26.4166545 C60.9642,26.6242909 60.8494727,26.8126545 60.6680182,26.9790182 C60.4865636,27.1486545 60.2918364,27.2315636 60.0862,27.2315636 L55.3822,27.2315636 C55.1740182,27.2315636 55.0134727,27.1690182 54.8956545,27.0386545 C54.7792909,26.9088364 54.7218364,26.7532 54.7218364,26.5722909 L54.7218364,26.4166545 L58.3749273,5.74029091 C58.4265636,5.53265455 58.5365636,5.35101818 58.7062,5.19610909 C58.8723818,5.04138182 59.0611091,4.96283636 59.2682,4.96283636 L63.8934727,4.96283636 C64.3332909,4.96283636 64.5542,5.17010909 64.5542,5.58574545 L64.5542,5.74029091 L64.3983818,6.51847273 C65.3583818,5.7152 66.2651091,5.2032 67.1189273,4.98283636 C67.9727455,4.76301818 68.9209273,4.65283636 69.9576545,4.65283636 C70.3962,4.65283636 70.6165636,4.87229091 70.6165636,5.31374545 L70.6165636,5.42956364 Z" id="Fill-11" fill="#3CAF49"></path>
                    <path d="M100.074891,10.7938182 C100.074891,11.5961818 99.9981636,12.3858182 99.8412545,13.1634545 L97.5119818,26.4165455 C97.4574364,26.6243636 97.3365273,26.8125455 97.1416182,26.9790909 C96.9461636,27.1487273 96.7467091,27.2316364 96.5390727,27.2316364 L91.8376182,27.2316364 C91.6290727,27.2316364 91.4730727,27.1689091 91.3703455,27.0387273 C91.2650727,26.9089091 91.2154364,26.7532727 91.2154364,26.5721818 L91.2154364,26.4165455 L93.5458,13.1634545 C93.5979818,12.8256364 93.6439818,12.5225455 93.6810727,12.25 C93.7227091,11.9781818 93.7423455,11.7256364 93.7423455,11.4918182 C93.7423455,10.9474545 93.5979818,10.5529091 93.3132545,10.3083636 C93.0290727,10.0610909 92.4967091,9.93690909 91.7203455,9.93690909 C91.4079818,9.93690909 90.9548909,9.97672727 90.3588909,10.0545455 C89.7639818,10.132 89.1679818,10.3003636 88.5714364,10.5609091 C88.5714364,11 88.5454364,11.4341818 88.4958,11.8616364 C88.4410727,12.2892727 88.3779818,12.7232727 88.2988909,13.1634545 L85.9685273,26.4165455 C85.9159818,26.6243636 85.7990727,26.8125455 85.6176182,26.9790909 C85.4367091,27.1487273 85.2418,27.2316364 85.0363455,27.2316364 L80.3332545,27.2316364 C80.1236182,27.2316364 79.9618,27.1689091 79.8468909,27.0387273 C79.7296182,26.9089091 79.6719818,26.7414545 79.6719818,26.532 L79.6719818,26.4165455 L82.0043455,13.1634545 C82.0554364,12.8014545 82.1085273,12.4709091 82.1596182,12.1732727 C82.2092545,11.8758182 82.2383455,11.5961818 82.2383455,11.3378182 C82.2383455,10.896 82.1341636,10.5529091 81.9256182,10.3083636 C81.7176182,10.0610909 81.3045273,9.93690909 80.6830727,9.93690909 C80.1883455,9.93690909 79.6334364,10.0545455 79.0114364,10.2870909 C78.3898,10.5210909 77.7698,10.7938182 77.1463455,11.1049091 L74.4647091,26.4165455 C74.4116182,26.6243636 74.2958,26.8125455 74.1143455,26.9790909 C73.9325273,27.1487273 73.7378,27.2316364 73.5308909,27.2316364 L68.8285273,27.2316364 C68.6198,27.2316364 68.4598,27.1689091 68.3430727,27.0387273 C68.2267091,26.9089091 68.1679818,26.7414545 68.1679818,26.532 L68.1679818,26.4165455 L71.8210727,5.74036364 C71.8727091,5.53254545 71.9832545,5.35109091 72.1525273,5.19618182 C72.3201636,5.04127273 72.5078,4.96272727 72.7161636,4.96272727 L76.9518,4.96272727 C77.3923455,4.96272727 77.6114364,5.18363636 77.6114364,5.62327273 L77.6114364,5.74036364 L77.4576182,6.63472727 C78.2348909,6.11618182 79.0710727,5.65690909 79.9618,5.25472727 C80.8588909,4.85345455 81.8478,4.65272727 82.9361636,4.65272727 C84.0763455,4.65272727 85.0007091,4.81363636 85.7139818,5.13818182 C86.4287091,5.46272727 87.0041636,5.88363636 87.4452545,6.40072727 C88.5845273,5.75345455 89.6852545,5.30018182 90.7498,5.04127273 C91.8094364,4.78181818 93.0014364,4.65272727 94.3232545,4.65272727 C95.4108909,4.65272727 96.3176182,4.81363636 97.0443455,5.13818182 C97.7687091,5.46272727 98.3596182,5.90909091 98.8127091,6.47909091 C99.2654364,7.04854545 99.5896182,7.70254545 99.7836182,8.44109091 C99.9787091,9.18018182 100.074891,9.96454545 100.074891,10.7938182" id="Fill-13" fill="#3CAF49"></path>
                    <g id="Group-17" transform="translate(100.545455, 4.491091)">
                        <mask id="mask-6" fill="white">
                            <use xlink:href="#path-5"></use>
                        </mask>
                        <g id="Clip-16"></g>
                        <path d="M12.5876545,16.5228182 C11.9400182,16.8859091 11.2609273,17.2024545 10.5471091,17.4748182 C9.83492727,17.7475455 9.14256364,17.8833636 8.46856364,17.8833636 C7.58874545,17.8833636 6.99783636,17.6495455 6.70056364,17.1844545 C6.40183636,16.7179091 6.25401818,16.161 6.25401818,15.5126364 C6.25401818,15.0986364 6.29201818,14.6711818 6.36874545,14.2293636 L7.07056364,10.1484545 C7.35474545,8.56863636 7.81547273,7.37845455 8.45038182,6.57445455 C9.08456364,5.77190909 10.1009273,5.36863636 11.5009273,5.36863636 C12.0447455,5.36863636 12.5876545,5.39554545 13.1329273,5.44590909 C13.6772909,5.49827273 14.1303818,5.55045455 14.4932909,5.60172727 L12.5876545,16.5228182 Z M21.2349273,1.52045455 C21.0945636,1.39263636 20.8003818,1.26227273 20.3607455,1.13227273 C19.0902,0.796454545 17.7629273,0.550272727 16.3785636,0.394272727 C14.9920182,0.239181818 13.6372909,0.161727273 12.3149273,0.161727273 C9.25947273,0.161727273 6.7322,0.919363636 4.7362,2.43372727 C2.74292727,3.95009091 1.44765455,6.405 0.852745455,9.79936364 C0.800563636,10.007 0.747836364,10.3044545 0.6962,10.6946364 C0.6442,11.0819091 0.579472727,11.4853636 0.501836364,11.8995455 C0.397109091,12.3648182 0.306381818,12.8831818 0.231109091,13.4531818 C0.178563636,13.8155455 0.132381818,14.1777273 0.0932909091,14.541 C0.0536545455,14.9035455 0.0347454545,15.2671818 0.0347454545,15.6295455 C0.0347454545,16.6155455 0.158018182,17.5522727 0.405109091,18.4462727 C0.651654545,19.3406364 1.03365455,20.1304545 1.55238182,20.817 C2.0682,21.5044545 2.74292727,22.055 3.57183636,22.4704545 C4.40092727,22.8831818 5.39947273,23.091 6.56383636,23.091 C7.60129091,23.091 8.5962,22.9244545 9.55674545,22.5897273 C10.5165636,22.2560909 11.5265636,21.6766364 12.5876545,20.8531818 L12.4318364,21.9700909 C12.3825636,22.2284545 12.4252909,22.4204545 12.5696545,22.5495455 C12.7100182,22.6784545 12.8852909,22.7404545 13.0934727,22.7404545 L17.0587455,22.7404545 C17.3680182,22.7404545 17.5814727,22.6646364 17.6998364,22.5082727 C17.8151091,22.3522727 17.8987455,22.1706364 17.9514727,21.9644545 L21.3727455,2.29881818 C21.4220182,1.90954545 21.3769273,1.65154545 21.2349273,1.52045455 L21.2349273,1.52045455 Z" id="Fill-15" fill="#3CAF49" mask="url(#mask-6)"></path>
                    </g>
                </g>
            </g>
        </g>
    </g>
</svg>