<?xml version="1.0" encoding="UTF-8"?>
<svg width="233px" height="121px" viewBox="0 0 233 121" version="1.1" xmlns="http://www.w3.org/2000/svg" xmlns:xlink="http://www.w3.org/1999/xlink">
    <!-- Generator: Sketch 43.2 (39069) - http://www.bohemiancoding.com/sketch -->
    <title>Everis</title>
    <desc>Created with Sketch.</desc>
    <defs></defs>
    <g id="Page-1" stroke="none" stroke-width="1" fill="none" fill-rule="evenodd">
        <g id="Logos" transform="translate(-119.000000, -2373.000000)">
            <g id="Everis" transform="translate(119.000000, 2373.000000)">
                <rect id="Rectangle-3-Copy-5" fill="#FFFFFF" x="-1.42108547e-14" y="0" width="233" height="121"></rect>
                <g id="everis" transform="translate(55.000000, 20.000000)" fill-rule="nonzero">
                    <path d="M119.373567,10.5896832 C121.66278,32.4792151 114.610417,103.180108 84.2601024,79.4469274 C41.3523071,45.8883898 8.56632283,88.8443622 0.622464567,62.0053643 C-2.83485827,50.3254411 7.31695276,9.7203107 51.207189,8.60007096 C92.1727795,7.54937153 117.085535,-11.2998487 119.373567,10.5896832 L132.781638,61.3917472" id="Fill-1" fill="#A1CC39"></path>
                    <path d="M38.5000153,25.2985789 C38.4427879,24.0992141 38.1564131,23.085084 37.6492022,22.2573836 C37.1351049,21.4272931 36.2296763,20.9769936 34.8934983,20.9428148 C33.5314373,20.9894222 32.4640622,21.4533455 31.6690517,22.3274143 C30.9041984,23.181167 30.4542149,24.1678107 30.3207633,25.2985789 L38.5000153,25.2985789 Z M30.8920881,30.302067 C31.3090649,31.4548244 31.9772726,32.3867342 32.9028852,33.0989915 C33.8206616,33.8057515 35.0271873,34.1721577 36.5473955,34.196776 C37.4882054,34.1692896 38.4112059,33.8784113 39.3220961,33.3227072 C40.2123273,32.7806268 40.9567592,32.1450926 41.5594284,31.4192115 L41.6957295,31.2545319 L42.5531915,31.8458489 L42.4211647,32.0380149 C41.5266591,33.3513887 40.4357756,34.4274231 39.1501762,35.2644449 C37.8358444,36.12489 36.3348703,36.5708874 34.6660132,36.5957447 C33.0311126,36.581882 31.6609781,36.2085444 30.5525226,35.475732 C29.4509535,34.7457878 28.6177122,33.7522127 28.0656216,32.5019382 C27.5080695,31.257161 27.2366546,29.8534405 27.2340426,28.2914937 C27.2490024,26.7106649 27.6116013,25.2600979 28.3192271,23.9495923 C29.0282777,22.6390866 29.9961578,21.5850414 31.2299913,20.794627 C32.4640622,20.0013444 33.8738522,19.5952622 35.4512879,19.5744681 C37.5468576,19.5978913 39.1898318,20.2236261 40.3676251,21.4643401 C41.5200103,22.6828259 42.1224421,24.3406167 42.1891679,26.4224158 L42.1989037,26.6654915 L30.3015292,26.6654915 C30.2906061,27.9664367 30.4857969,29.1822934 30.8920881,30.302067 L30.8920881,30.302067 Z" id="Fill-4" fill="#FEFEFE"></path>
                    <path d="M59.5744681,20.7156046 L59.3678556,20.7426235 C58.9790376,20.7938419 58.6073768,20.943503 58.2519067,21.1986552 C57.8969199,21.4495784 57.5776976,22.0524519 57.3002811,22.7093631 L52.5871004,35.7110835 L49.4678564,35.7446809 L44.9182742,23.8263001 C44.586486,22.8846334 44.2037092,22.1804979 43.7793683,21.7016763 C43.360102,21.2268489 42.7342234,20.7910226 41.9198561,20.731816 L41.7021277,20.7156046 L41.7021277,19.5878601 C41.7021277,19.5878601 49.0142756,19.5958482 49.2460199,19.5878601 L49.4970963,19.5744681 L49.4970963,20.7156046 L49.276468,20.7289966 C48.578577,20.7708171 48.1440867,20.8842964 47.9290165,21.0419457 C47.70573,21.2066434 47.5989198,21.4333671 47.6197019,21.716478 C47.6129356,21.848753 47.6530499,22.0754767 47.7572019,22.383022 C47.8473381,22.6581447 50.9496665,30.9233378 51.8210636,33.245082 C52.6646707,30.9585798 55.6394069,22.9050738 55.7351011,22.5878956 C55.8489192,22.2251378 55.8974912,21.9081945 55.8878251,21.6462289 C55.8974912,21.4063482 55.7836731,21.1986552 55.5062566,21.0257344 C55.2493806,20.8612716 54.7984579,20.7560155 54.1300485,20.7278219 L53.9036206,20.7181891 L53.9036206,19.5744681 L54.1561469,19.5878601 C54.3864413,19.5958482 59.5744681,19.5878601 59.5744681,19.5878601 L59.5744681,20.7156046 Z" id="Fill-6" fill="#FEFEFE"></path>
                    <path d="M70.8425015,25.2985789 C70.7866944,24.0992141 70.4988726,23.085084 69.9887726,22.2573836 C69.4734481,21.4272931 68.5681868,20.9769936 67.2357049,20.9428148 C65.8752007,20.9894222 64.8032307,21.4533455 64.0100585,22.3274143 C63.2449084,23.181167 62.7922778,24.1678107 62.6614281,25.2985789 L70.8425015,25.2985789 Z M63.2311348,30.302067 C63.6483814,31.4548244 64.3178283,32.3867342 65.2411378,33.0989915 C66.162785,33.8057515 67.3736789,34.1721577 68.8885429,34.196776 C69.8253886,34.1692896 70.7484607,33.8784113 71.6646459,33.3227072 C72.5535213,32.7806268 73.2968235,32.1450926 73.9021517,31.4192115 L74.0384633,31.2545319 L74.893617,31.8458489 L74.7625299,32.0380149 C73.867955,33.3513887 72.7786493,34.4274231 71.4955625,35.2644449 C70.1716297,36.12489 68.6717267,36.5708874 67.0055899,36.5957447 C65.3748372,36.581882 63.9977097,36.2085444 62.8917805,35.475732 C61.7887011,34.7457878 60.9596699,33.7522127 60.4006496,32.5019382 C59.8539782,31.257161 59.5744681,29.8534405 59.5744681,28.2914937 C59.5865794,26.7106649 59.9506312,25.2600979 60.6611616,23.9495923 C61.3659925,22.6390866 62.3367974,21.5850414 63.5666894,20.794627 C64.8046556,20.0013444 66.209093,19.5952622 67.7895006,19.5744681 C69.8866576,19.5978913 71.5364085,20.2236261 72.7078812,21.4643401 C73.8570311,22.6828259 74.4640216,24.3406167 74.5307526,26.4224158 L74.5376394,26.6654915 L62.6448047,26.6654915 C62.6286563,27.9664367 62.8248121,29.1822934 63.2311348,30.302067 L63.2311348,30.302067 Z" id="Fill-8" fill="#FEFEFE"></path>
                    <path d="M83.6391299,20.6884425 C84.7029136,20.0032743 85.8849222,19.6440763 87.1757461,19.6091509 C87.4539368,19.6147293 87.8059577,19.674636 88.2216754,19.784748 C88.6081988,19.8837033 88.9409177,19.9976959 89.2164543,20.1175094 L89.3617021,20.1788714 L89.3588068,23.5712423 L87.027603,23.5712423 L86.9914117,23.3762422 C86.9098605,22.9612607 86.7658191,22.5683501 86.5496362,22.1979954 C86.3390027,21.8276408 86.0053187,21.6367638 85.5329013,21.6256071 C84.6725129,21.6716892 83.8647225,21.9753461 83.1126668,22.5489471 C82.3661604,23.1143018 81.6997575,23.6908133 81.1095976,24.2813919 L81.0734063,33.7425344 C81.0596536,34.2174227 81.1260044,34.5669191 81.2519502,34.8009677 C81.3670386,35.0139156 81.6276161,35.1839343 82.0889349,35.2826471 C82.5336056,35.3772366 83.2207582,35.4276844 84.146291,35.4262292 L84.380087,35.424774 L84.3786393,36.5957447 L74.893617,36.5916215 L74.893617,35.424774 L75.1332036,35.4262292 C76.3427176,35.4344755 77.0588233,35.3090836 77.3524556,35.0932253 C77.6407798,34.8788222 77.7918183,34.4471056 77.74863,33.7398665 L77.74863,23.2396937 C77.7918183,22.532212 77.6407798,22.1004954 77.3524556,21.8875475 C77.0588233,21.6716892 76.3427176,21.5462974 75.1332036,21.5547862 L74.893617,21.5574541 L74.893617,20.3891513 L75.1095586,20.370961 C76.0695938,20.2931065 76.9965742,20.20264 77.8941191,20.0993191 C78.7738095,20.0006063 79.6120006,19.8473227 80.4098987,19.6469868 L80.679886,19.5744681 L80.9819629,22.869339 C81.7813086,22.0405886 82.6692024,21.3151592 83.6391299,20.6884425" id="Fill-10" fill="#FEFEFE"></path>
                    <path d="M102.303353,31.7564716 C102.53414,33.0561075 103.024833,33.9469927 103.751607,34.4575724 C104.508703,34.9858408 105.56012,35.2506921 106.91139,35.2301351 C107.435053,35.2315693 107.968582,35.149102 108.514384,34.9762794 C109.047673,34.811584 109.502268,34.5452984 109.867099,34.1802913 C110.222304,33.8262798 110.410495,33.3663755 110.425416,32.7747627 C110.401832,32.0748669 110.089704,31.5038112 109.471705,31.0537074 C108.837582,30.5885444 108.047516,30.1671248 107.101025,29.7980541 C106.143464,29.4246807 105.184218,29.015691 104.225213,28.5682166 C103.258026,28.119547 102.441488,27.5444277 101.77969,26.845727 C101.10947,26.1322061 100.766779,25.2071389 100.740548,24.0817599 C100.764132,23.0469754 101.091661,22.1835793 101.728431,21.5097383 C102.356056,20.8480881 103.130961,20.3568702 104.051461,20.0411044 C104.970277,19.7267727 105.889093,19.5716387 106.80815,19.5745071 C107.71012,19.5855028 108.606795,19.7076499 109.502268,19.9435779 C110.368621,20.1701835 111.210428,20.429537 112.025281,20.7273752 L112.184354,20.7849827 L112.184354,23.8826434 L110.553684,23.8826434 L110.512292,23.6959567 C110.317843,22.7804508 109.886351,22.0695593 109.221666,21.5534818 C108.532193,21.0182814 107.683648,20.7410002 106.671218,20.732873 C105.870803,20.7273752 105.151249,20.9276869 104.505816,21.3285494 C103.881319,21.7155478 103.547051,22.3195904 103.504215,23.1538242 C103.531649,23.7165137 103.838483,24.2175321 104.456,24.6470788 C105.093011,25.0904896 105.882114,25.5131043 106.8339,25.9084689 C107.793145,26.3105266 108.747819,26.7415075 109.70538,27.2081048 C110.678343,27.6787656 111.485255,28.2428893 112.145608,28.9059737 C112.814626,29.5795757 113.162852,30.4128533 113.191489,31.3940939 C113.172237,32.574451 112.879361,33.5599942 112.297461,34.3354253 C111.725427,35.1067928 110.963999,35.6761752 110.028818,36.045485 C109.093397,36.4145558 108.076154,36.5957447 106.981902,36.5957447 C105.82532,36.5861833 104.65117,36.4394155 103.465229,36.1537681 C102.306241,35.8724234 101.33039,35.5088504 100.545859,35.0573124 L100.425532,31.5697849 L102.270383,31.5642871 L102.303353,31.7564716 Z" id="Fill-12" fill="#FEFEFE"></path>
                    <path d="M96.4159304,15.5453008 C96.0227059,15.9480695 95.5075531,16.1549419 94.8967189,16.1702128 C94.2866005,16.1549419 93.773118,15.9480695 93.3810866,15.5453008 C92.985476,15.1453952 92.7786036,14.6383551 92.7659574,14.0437462 C92.7786036,13.4477057 92.985476,12.9409042 93.3810866,12.5381354 C93.773118,12.1367982 94.2866005,11.9299259 94.8967189,11.9148936 C95.5075531,11.9299259 96.0227059,12.1367982 96.4159304,12.5381354 C96.8086777,12.9409042 97.0119709,13.4477057 97.0212766,14.0437462 C97.0119709,14.6383551 96.8086777,15.1453952 96.4159304,15.5453008" id="Fill-14" fill="#FEFEFE"></path>
                    <path d="M90.5063839,21.3809484 L90.2841987,21.3834856 L90.2841987,20.2724264 L90.4870046,20.255358 C92.3399749,20.1201949 94.1742418,19.9068402 95.9938617,19.6155245 L96.252552,19.5744681 C96.252552,19.5744681 96.1851753,30.3201656 96.1851753,31.9398164 C96.1486703,33.0854736 96.2913104,33.7859691 96.5693799,34.1024261 C96.8370837,34.4057358 97.4567685,34.6004075 98.5086553,34.6336217 L98.7234043,34.6428478 L98.7234043,35.7446809 L90.212766,35.7446809 L90.2181741,34.6414639 L90.4342751,34.6347749 C91.6436745,34.6004075 92.3593541,34.4057358 92.6595069,34.0998889 C92.9648425,33.782048 93.1212284,33.0827058 93.0784138,31.9398164 L93.0784138,23.4812815 C93.1149189,22.5475951 92.9454632,21.9926421 92.6426064,21.7465346 C92.3345667,21.4948913 91.6436745,21.3622654 90.5063839,21.3809484" id="Fill-16" fill="#FEFEFE"></path>
                </g>
            </g>
        </g>
    </g>
</svg>