<?xml version="1.0" encoding="UTF-8"?>
<svg width="233px" height="121px" viewBox="0 0 233 121" version="1.1" xmlns="http://www.w3.org/2000/svg" xmlns:xlink="http://www.w3.org/1999/xlink">
    <!-- Generator: Sketch 43.2 (39069) - http://www.bohemiancoding.com/sketch -->
    <title>Groupon</title>
    <desc>Created with Sketch.</desc>
    <defs></defs>
    <g id="Page-1" stroke="none" stroke-width="1" fill="none" fill-rule="evenodd">
        <g id="Logos" transform="translate(-119.000000, -1916.000000)">
            <g id="Groupon" transform="translate(119.000000, 1916.000000)">
                <rect id="Rectangle-3-Copy-2" fill="#FFFFFF" x="-1.42108547e-14" y="0" width="233" height="121"></rect>
                <g id="Groupon_Logo" transform="translate(36.000000, 43.000000)" fill-rule="nonzero" fill="#53A318">
                    <path d="M85.6403876,27.8103226 C91.4468129,27.8103226 95.3148394,23.9354839 95.3148394,17.396129 L95.3148394,0.668387097 L88.9646099,0.668387097 L88.9646099,17.1341935 C88.9646099,20.1780645 87.9033146,21.6864516 85.6754717,21.6864516 C83.5265681,21.6864516 82.6056094,20.1419355 82.6056094,17.1341935 L82.6056094,0.668387097 L76.2202958,0.668387097 L76.2202958,17.396129 C76.2290668,24.08 79.763794,27.8103226 85.6403876,27.8103226 Z" id="Shape"></path>
                    <path d="M112.330648,2.1316129 C110.576441,0.858064516 108.497705,0.668387097 105.761142,0.668387097 L97.1479857,0.668387097 L97.1479857,27.3948387 L103.498215,27.3948387 L103.498215,18.7870968 L105.322591,18.7870968 C108.024069,18.7870968 110.067721,18.5974194 111.716675,17.5858065 C114.304131,15.9690323 115.839062,13.1148387 115.839062,9.65548387 C115.839062,6.30451613 114.63743,3.78451613 112.330648,2.1316129 Z M104.743702,12.9974194 L103.577155,12.9974194 L103.577155,6.64774194 L105.252422,6.64774194 C108.067925,6.64774194 109.418664,7.55096774 109.418664,9.76387097 C109.409893,12.1664516 107.883733,12.9974194 104.743702,12.9974194 Z" id="Shape"></path>
                    <polygon id="Shape" points="150.958287 12.5096774 160.632738 27.3948387 166.211117 27.3948387 166.211117 0.668387097 159.869658 0.668387097 159.869658 15.5174194 150.335543 0.668387097 144.608057 0.668387097 144.608057 27.3948387 150.958287 27.3948387"></polygon>
                    <path d="M70.5629781,4.12774194 C68.045691,1.5716129 64.7653238,0.180645161 61.2919939,0.180645161 C57.6081591,0.180645161 54.3891892,1.49935484 51.836818,4.0916129 C49.2844467,6.68387097 47.8898521,10.0709677 47.8898521,13.756129 C47.8898521,17.7032258 49.1353391,21.0090323 51.5736869,23.6825806 C54.1260581,26.4645161 57.4151963,27.8916129 61.2481387,27.8916129 C64.8618052,27.8916129 68.29128,26.4283871 70.8085671,23.7187097 C73.2556859,21.1264516 74.5713412,17.7032258 74.5713412,13.8735484 C74.5801122,10.2154839 73.1942886,6.79225806 70.5629781,4.12774194 Z M61.2569097,21.2709677 C57.6783274,21.2709677 54.4330444,18.0374194 54.4330444,13.8283871 C54.4330444,9.91741935 57.4590515,6.80129032 61.3358491,6.80129032 C64.9845997,6.80129032 68.0193779,9.91741935 68.0193779,13.8283871 C68.0106068,18.1819355 64.9845997,21.2709677 61.2569097,21.2709677 Z" id="Shape"></path>
                    <path d="M139.345436,4.12774194 C136.828149,1.5716129 133.539011,0.180645161 130.074452,0.180645161 C126.381846,0.180645161 123.171647,1.49935484 120.619276,4.0916129 C118.066905,6.68387097 116.67231,10.0709677 116.67231,13.756129 C116.67231,17.7032258 117.917797,21.0090323 120.356145,23.6825806 C122.917287,26.4645161 126.197654,27.8916129 130.030597,27.8916129 C133.644263,27.8916129 137.073738,26.4283871 139.591025,23.7187097 C142.038144,21.1264516 143.353799,17.7032258 143.353799,13.8735484 C143.36257,10.2154839 141.976747,6.79225806 139.345436,4.12774194 Z M130.039368,21.2709677 C126.460785,21.2709677 123.215502,18.0374194 123.215502,13.8283871 C123.215502,9.91741935 126.25028,6.80129032 130.118307,6.80129032 C133.767058,6.80129032 136.801836,9.91741935 136.801836,13.8283871 C136.793065,18.1819355 133.758287,21.2709677 130.039368,21.2709677 Z" id="Shape"></path>
                    <path d="M3.69260581,23.6735484 C6.24497705,26.4554839 9.49903111,27.9187097 13.3319735,27.9187097 C17.7525752,27.9187097 21.9100459,25.6606452 24.3922489,21.9393548 C25.8920959,19.6812903 26.6200918,17.1251613 26.6200918,14.1174194 C26.6200918,13.5574194 26.5850076,12.9522581 26.5499235,12.3470968 L11.7619582,12.3470968 L11.7619582,17.6851613 L19.1734829,17.6851613 C17.8929118,20.0154839 15.7440082,21.2980645 13.3319735,21.2980645 C9.75339113,21.2980645 6.54319225,18.0283871 6.54319225,13.7741935 C6.54319225,9.93548387 9.53411525,6.74709677 13.3319735,6.74709677 C15.3756247,6.74709677 17.0508924,7.61419355 18.6647629,9.33935484 L25.8920959,9.33935484 C23.8133605,3.62193548 18.954207,0.126451613 13.4109128,0.126451613 C9.72707802,0.126451613 6.51687914,1.48129032 3.95573687,4.07354839 C1.40336563,6.66580645 0.0175420704,10.0529032 0.0175420704,13.7380645 C0.00877103519,17.6941935 1.245487,21 3.69260581,23.6735484 Z" id="Shape"></path>
                    <path d="M41.0309026,18.2180645 C44.7147374,17.1612903 46.9074962,13.9367742 46.9074962,9.61032258 C46.9074962,6.30451613 45.7058644,3.78451613 43.3990821,2.1316129 C41.6448751,0.858064516 39.5661397,0.668387097 36.8295767,0.668387097 L28.2164202,0.668387097 L28.2164202,27.3948387 L34.5666497,27.3948387 L34.5666497,18.7870968 L39.5310556,27.3948387 L47.3811321,27.3948387 L41.0309026,18.2180645 Z M35.8121367,12.9974194 L34.5754207,12.9974194 L34.5754207,6.64774194 L36.3296277,6.64774194 C39.136359,6.64774194 40.4870984,7.55096774 40.4870984,9.76387097 C40.4870984,12.1664516 38.9521673,12.9974194 35.8121367,12.9974194 Z" id="Shape"></path>
                    <path d="M170.026517,4.05548387 C170.570321,4.05548387 171.035186,3.85677419 171.412341,3.45935484 C171.798266,3.06193548 171.982458,2.58322581 171.982458,2.03225806 C171.982458,1.47225806 171.789495,1.00258065 171.412341,0.614193548 C171.035186,0.225806452 170.570321,0.0270967742 170.026517,0.0270967742 C169.491484,0.0270967742 169.026619,0.225806452 168.649465,0.614193548 C168.263539,1.0116129 168.079347,1.48129032 168.079347,2.03225806 C168.079347,2.59225806 168.27231,3.07096774 168.649465,3.45935484 C169.026619,3.85677419 169.482713,4.05548387 170.026517,4.05548387 Z M168.842427,0.803870968 C169.175727,0.460645161 169.570423,0.289032258 170.035288,0.289032258 C170.500153,0.289032258 170.903621,0.460645161 171.228149,0.803870968 C171.552677,1.13806452 171.719327,1.55354839 171.719327,2.03225806 C171.719327,2.51096774 171.552677,2.92645161 171.228149,3.26967742 C170.903621,3.61290323 170.508924,3.78451613 170.035288,3.78451613 C169.570423,3.78451613 169.166956,3.61290323 168.842427,3.26967742 C168.517899,2.92645161 168.351249,2.52 168.351249,2.03225806 C168.351249,1.55354839 168.509128,1.14709677 168.842427,0.803870968 Z" id="Shape"></path>
                    <path d="M170.89485,3.09806452 C170.886079,3.08 170.877307,3.04387097 170.877307,2.98064516 C170.877307,2.92645161 170.868536,2.86322581 170.868536,2.81806452 L170.868536,2.65548387 C170.868536,2.54709677 170.833452,2.42967742 170.754513,2.31225806 C170.675574,2.19483871 170.552779,2.12258065 170.38613,2.09548387 C170.517695,2.07741935 170.622947,2.04129032 170.693116,1.98709677 C170.833452,1.89677419 170.903621,1.74322581 170.903621,1.55354839 C170.903621,1.27354839 170.789597,1.08387097 170.570321,0.993548387 C170.447527,0.939354839 170.254564,0.912258065 169.982662,0.912258065 L169.228353,0.912258065 L169.228353,3.12516129 L169.605507,3.12516129 L169.605507,2.25806452 L169.903723,2.25806452 C170.105456,2.25806452 170.245793,2.28516129 170.324732,2.33032258 C170.465069,2.4116129 170.526466,2.58322581 170.526466,2.83612903 L170.526466,3.00774194 L170.535237,3.08 L170.535237,3.10709677 C170.535237,3.11612903 170.535237,3.12516129 170.544008,3.12516129 L170.89485,3.12516129 L170.89485,3.09806452 Z M170.324732,1.93290323 C170.245793,1.96903226 170.122998,1.97806452 169.96512,1.97806452 L169.623049,1.97806452 L169.623049,1.17419355 L169.947578,1.17419355 C170.158083,1.17419355 170.30719,1.20129032 170.403672,1.25548387 C170.500153,1.30967742 170.544008,1.41806452 170.544008,1.58064516 C170.544008,1.76129032 170.465069,1.87870968 170.324732,1.93290323 Z" id="Shape"></path>
                </g>
            </g>
        </g>
    </g>
</svg>