<?xml version="1.0" encoding="UTF-8"?>
<svg width="233px" height="121px" viewBox="0 0 233 121" version="1.1" xmlns="http://www.w3.org/2000/svg" xmlns:xlink="http://www.w3.org/1999/xlink">
    <!-- Generator: Sketch 43.2 (39069) - http://www.bohemiancoding.com/sketch -->
    <title>Microsoft</title>
    <desc>Created with Sketch.</desc>
    <defs></defs>
    <g id="Page-1" stroke="none" stroke-width="1" fill="none" fill-rule="evenodd">
        <g id="Logos" transform="translate(-119.000000, -2686.000000)">
            <g id="Microsoft" transform="translate(119.000000, 2686.000000)">
                <rect id="Rectangle-3-Copy-6" fill="#FFFFFF" x="-1.42108547e-14" y="0" width="233" height="121"></rect>
                <g id="microsoft-logo" transform="translate(31.000000, 42.000000)" fill-rule="nonzero">
                    <g id="Group" transform="translate(50.359014, 6.046512)" fill="#737373">
                        <path d="M13.9316553,16.4162791 L12.8460718,19.5 L12.7556065,19.5 C12.5746759,18.8046512 12.2429698,17.7465116 11.7001781,16.4767442 L5.88024413,1.81395349 L0.180930589,1.81395349 L0.180930589,25.1837209 L3.95031785,25.1837209 L3.95031785,10.7627907 C3.95031785,9.85581395 3.95031785,8.82790698 3.92016275,7.55813953 C3.89000765,6.92325581 3.82969746,6.43953488 3.79954236,6.07674419 L3.89000765,6.07674419 C4.07093824,6.98372093 4.28202393,7.64883721 4.43279942,8.07209302 L11.4287822,25.1232558 L14.0824308,25.1232558 L21.0181034,7.92093023 C21.1688789,7.52790698 21.3196543,6.74186047 21.4704298,6.07674419 L21.5608951,6.07674419 C21.4704298,7.8 21.4101196,9.34186047 21.3799645,10.2790698 L21.3799645,25.0930233 L25.3905926,25.0930233 L25.3905926,1.75348837 L19.9023647,1.75348837 L13.9316553,16.4162791 L13.9316553,16.4162791 Z M29.1901349,8.34418605 L33.1102977,8.34418605 L33.1102977,25.0930233 L29.1901349,25.0930233 L29.1901349,8.34418605 Z M31.1803714,1.26976744 C30.5169593,1.26976744 29.9741675,1.51162791 29.521841,1.93488372 C29.0695146,2.35813953 28.8282738,2.90232558 28.8282738,3.56744186 C28.8282738,4.20232558 29.0695146,4.74651163 29.521841,5.16976744 C29.9741675,5.59302326 30.5169593,5.80465116 31.1803714,5.80465116 C31.8437836,5.80465116 32.4167304,5.5627907 32.8389018,5.16976744 C33.2912283,4.74651163 33.5324691,4.20232558 33.5324691,3.56744186 C33.5324691,2.93255814 33.2912283,2.38837209 32.8389018,1.93488372 C32.4468855,1.51162791 31.8739387,1.26976744 31.1803714,1.26976744 L31.1803714,1.26976744 Z M47.0117979,8.19302326 C46.2880756,8.04186047 45.5341981,7.95116279 44.8104758,7.95116279 C43.031325,7.95116279 41.4029497,8.34418605 40.0459703,9.13023256 C38.6889908,9.91627907 37.6034073,11.0046512 36.9098401,12.3651163 C36.1861177,13.755814 35.8242565,15.3581395 35.8242565,17.2023256 C35.8242565,18.8046512 36.1861177,20.2255814 36.879685,21.5255814 C37.5732522,22.7953488 38.5382154,23.8232558 39.8348846,24.5186047 C41.0712436,25.2139535 42.5186883,25.5767442 44.1470636,25.5767442 C46.0166797,25.5767442 47.6148999,25.1837209 48.881414,24.4581395 L48.9115691,24.427907 L48.9115691,20.8 L48.7607936,20.9209302 C48.1878467,21.344186 47.5244346,21.7069767 46.8610224,21.9186047 C46.1674552,22.1604651 45.5341981,22.2813953 44.9914063,22.2813953 C43.4233412,22.2813953 42.1869822,21.827907 41.3124844,20.8302326 C40.4078314,19.8627907 39.955505,18.5325581 39.955505,16.8697674 C39.955505,15.1465116 40.4078314,13.7860465 41.3426395,12.7883721 C42.2774475,11.7906977 43.5138065,11.2767442 45.0215614,11.2767442 C46.2880756,11.2767442 47.5847448,11.7 48.7607936,12.5465116 L48.9115691,12.6674419 L48.9115691,8.82790698 L48.881414,8.79767442 C48.3687773,8.58604651 47.7958305,8.34418605 47.0117979,8.19302326 L47.0117979,8.19302326 Z M59.948335,8.07209302 C58.9833719,8.07209302 58.0787189,8.3744186 57.2946864,9.00930233 C56.6312742,9.55348837 56.1789477,10.3395349 55.7869315,11.2767442 L55.7567764,11.2767442 L55.7567764,8.34418605 L51.8366136,8.34418605 L51.8366136,25.0930233 L55.7567764,25.0930233 L55.7567764,16.5372093 C55.7567764,15.0860465 56.0583273,13.8767442 56.7217395,13 C57.3851517,12.0930233 58.2294944,11.6395349 59.2547677,11.6395349 C59.6166289,11.6395349 59.9784901,11.7302326 60.4308166,11.7906977 C60.8529879,11.9116279 61.1545389,12.0325581 61.3656246,12.1837209 L61.5164001,12.3046512 L61.5164001,8.3744186 L61.4259348,8.34418605 C61.1545389,8.1627907 60.6117472,8.07209302 59.948335,8.07209302 L59.948335,8.07209302 Z M70.6232397,7.98139535 C67.8791258,7.98139535 65.6778036,8.79767442 64.1398936,10.4 C62.5718285,12.0023256 61.8179511,14.2093023 61.8179511,16.9906977 C61.8179511,19.5906977 62.6019836,21.7069767 64.1097385,23.2488372 C65.6174934,24.7604651 67.6680401,25.5465116 70.2312234,25.5465116 C72.9150272,25.5465116 75.0560391,24.7302326 76.5939491,23.0976744 C78.1620142,21.4651163 78.9158917,19.2883721 78.9158917,16.5976744 C78.9158917,13.9372093 78.1921693,11.8209302 76.7145695,10.2790698 C75.2972799,8.7372093 73.2165782,7.98139535 70.6232397,7.98139535 L70.6232397,7.98139535 Z M73.7593699,20.8604651 C73.0356476,21.7976744 71.8897538,22.2511628 70.4724642,22.2511628 C69.0551746,22.2511628 67.9092809,21.7976744 67.0950932,20.8 C66.2809056,19.8627907 65.8888893,18.5023256 65.8888893,16.7790698 C65.8888893,14.9953488 66.3110607,13.6348837 67.0950932,12.6674419 C67.9092809,11.7 69.0250195,11.2162791 70.4423091,11.2162791 C71.8294436,11.2162791 72.9150272,11.6697674 73.6990597,12.6069767 C74.4830923,13.544186 74.9052637,14.9046512 74.9052637,16.6883721 C74.8449535,18.5023256 74.5132474,19.9232558 73.7593699,20.8604651 L73.7593699,20.8604651 Z M87.6608701,15.2976744 C86.4245111,14.7837209 85.6404786,14.3906977 85.2786174,14.0581395 C84.9770664,13.755814 84.8262909,13.3325581 84.8262909,12.7883721 C84.8262909,12.3348837 85.0072215,11.8813953 85.459548,11.5790698 C85.9118745,11.2767442 86.4245111,11.1255814 87.1783886,11.1255814 C87.8418007,11.1255814 88.535368,11.2465116 89.1987801,11.427907 C89.8621923,11.6093023 90.4652943,11.8813953 90.9477758,12.244186 L91.0985513,12.3651163 L91.0985513,8.67674419 L91.008086,8.64651163 C90.5557596,8.46511628 89.9526576,8.28372093 89.2289352,8.13255814 C88.5052129,8.01162791 87.8418007,7.95116279 87.299009,7.95116279 C85.4293929,7.95116279 83.8914829,8.40465116 82.685279,9.40232558 C81.479075,10.3395349 80.9061282,11.6093023 80.9061282,13.0906977 C80.9061282,13.8767442 81.0267486,14.572093 81.2981444,15.1465116 C81.5695403,15.7209302 81.9615566,16.2651163 82.5043484,16.7186047 C83.0471401,17.1418605 83.8311727,17.6255814 84.9167562,18.0790698 C85.8214092,18.472093 86.5149764,18.7744186 86.9371478,19.0162791 C87.3593192,19.2581395 87.630715,19.5302326 87.8418007,19.7418605 C87.9925762,19.9837209 88.0830415,20.2860465 88.0830415,20.6790698 C88.0830415,21.7976744 87.2386988,22.3418605 85.5198582,22.3418605 C84.856446,22.3418605 84.1628788,22.2209302 83.3486911,21.9488372 C82.5345035,21.6767442 81.780626,21.2837209 81.147369,20.8302326 L80.9965935,20.7093023 L80.9965935,24.5488372 L81.0870588,24.5790698 C81.6600056,24.8511628 82.3535729,25.0325581 83.1979156,25.244186 C84.0422584,25.3953488 84.7961358,25.5162791 85.459548,25.5162791 C87.4799396,25.5162791 89.1384699,25.0627907 90.3145188,24.0651163 C91.5207227,23.0976744 92.1539798,21.8581395 92.1539798,20.255814 C92.1539798,19.1372093 91.8524288,18.1395349 91.1890166,17.3837209 C90.3145188,16.6581395 89.2289352,15.9023256 87.6608701,15.2976744 L87.6608701,15.2976744 Z M102.497178,7.98139535 C99.7530645,7.98139535 97.5517423,8.79767442 96.0138323,10.4 C94.4759223,12.0023256 93.6918898,14.2093023 93.6918898,16.9906977 C93.6918898,19.5906977 94.4759223,21.7069767 95.9836772,23.2488372 C97.4914321,24.7604651 99.5419788,25.5465116 102.105162,25.5465116 C104.788966,25.5465116 106.929978,24.7302326 108.467888,23.0976744 C110.035953,21.4651163 110.78983,19.2883721 110.78983,16.5976744 C110.78983,13.9372093 110.066108,11.8209302 108.588508,10.2790698 C107.171219,8.7372093 105.090517,7.98139535 102.497178,7.98139535 L102.497178,7.98139535 Z M105.603154,20.8604651 C104.879431,21.7976744 103.733537,22.2511628 102.316248,22.2511628 C100.868803,22.2511628 99.7530645,21.7976744 98.9388768,20.8 C98.1246892,19.8627907 97.7326729,18.5023256 97.7326729,16.7790698 C97.7326729,14.9953488 98.1548443,13.6348837 98.9388768,12.6674419 C99.7530645,11.7 100.868803,11.2162791 102.286093,11.2162791 C103.643072,11.2162791 104.758811,11.6697674 105.542843,12.6069767 C106.326876,13.544186 106.749047,14.9046512 106.749047,16.6883721 C106.749047,18.5023256 106.357031,19.9232558 105.603154,20.8604651 L105.603154,20.8604651 Z" id="Shape"></path>
                        <path d="M131.747624,11.5790698 L131.747624,8.34418605 L127.797306,8.34418605 L127.797306,3.38604651 L127.676685,3.41627907 L123.937453,4.53488372 L123.846988,4.56511628 L123.846988,8.34418605 L117.936589,8.34418605 L117.936589,6.22790698 C117.936589,5.26046512 118.177829,4.50465116 118.600001,4.02093023 C119.022172,3.5372093 119.655429,3.29534884 120.439462,3.29534884 C120.982254,3.29534884 121.5552,3.41627907 122.188457,3.68837209 L122.339233,3.77906977 L122.339233,0.362790698 L122.248768,0.33255814 C121.705976,0.151162791 120.982254,0.0302325581 120.047445,0.0302325581 C118.871397,0.0302325581 117.846123,0.302325581 116.911315,0.755813953 C115.976507,1.26976744 115.28294,1.96511628 114.770303,2.90232558 C114.257667,3.80930233 113.986271,4.8372093 113.986271,6.01627907 L113.986271,8.34418605 L111.242157,8.34418605 L111.242157,11.5488372 L113.986271,11.5488372 L113.986271,25.0930233 L117.936589,25.0930233 L117.936589,11.5790698 L123.846988,11.5790698 L123.846988,20.1953488 C123.846988,23.7325581 125.505518,25.5162791 128.822579,25.5162791 C129.365371,25.5162791 129.938318,25.4255814 130.481109,25.3348837 C131.054056,25.2139535 131.476228,25.0627907 131.717468,24.9418605 L131.747624,24.9116279 L131.747624,21.6767442 L131.596848,21.7976744 C131.355607,21.9488372 131.144522,22.0697674 130.78266,22.1604651 C130.481109,22.2511628 130.209714,22.2813953 129.998628,22.2813953 C129.214595,22.2813953 128.671804,22.1 128.279787,21.6465116 C127.917926,21.2232558 127.736996,20.527907 127.736996,19.5 L127.736996,11.5790698 L131.747624,11.5790698 L131.747624,11.5790698 Z" id="Shape"></path>
                    </g>
                    <polygon id="Shape" fill="#F25022" points="0 0 18.4850751 0 18.4850751 18.5325581 0 18.5325581"></polygon>
                    <polygon id="Shape" fill="#7FBA00" points="20.4150014 0 38.9000765 0 38.9000765 18.5325581 20.4150014 18.5325581"></polygon>
                    <polygon id="Shape" fill="#00A4EF" points="0 20.4674419 18.4850751 20.4674419 18.4850751 39 0 39"></polygon>
                    <polygon id="Shape" fill="#FFB900" points="20.4150014 20.4674419 38.9000765 20.4674419 38.9000765 39 20.4150014 39"></polygon>
                </g>
            </g>
        </g>
    </g>
</svg>