<?xml version="1.0" encoding="UTF-8"?>
<svg width="233px" height="121px" viewBox="0 0 233 121" version="1.1" xmlns="http://www.w3.org/2000/svg" xmlns:xlink="http://www.w3.org/1999/xlink">
    <!-- Generator: Sketch 47.1 (45422) - http://www.bohemiancoding.com/sketch -->
    <title>Nisum</title>
    <desc>Created with Sketch.</desc>
    <defs>
        <polygon id="path-1" points="0 5.18789216 0 0.469754902 3.57539897 0.469754902 3.57539897 5.18789216"></polygon>
    </defs>
    <g id="Page-1" stroke="none" stroke-width="1" fill="none" fill-rule="evenodd">
        <g id="Logos" transform="translate(-119.000000, -2536.000000)">
            <g id="Nisum" transform="translate(119.000000, 2536.000000)">
                <rect id="Rectangle-3-Copy-3" fill="#FFFFFF" x="-1.42108547e-14" y="0" width="233" height="121"></rect>
                <g id="Page-1" transform="translate(52.000000, 32.000000)">
                    <polygon id="Fill-1" fill="#C8D432" points="89 54 89.999 54 89.999 49 89 49"></polygon>
                    <polygon id="Fill-2" fill="#C8D432" points="87 54 87.996 54 87.996 49 87 49"></polygon>
                    <polygon id="Fill-3" fill="#C8D432" points="84 54 84.996 54 84.996 49 84 49"></polygon>
                    <polygon id="Fill-4" fill="#C8D432" points="44 53.996 48 53.996 48 53 44 53"></polygon>
                    <polygon id="Fill-5" fill="#C8D432" points="44 51.999 48 51.999 48 51 44 51"></polygon>
                    <polygon id="Fill-6" fill="#C8D432" points="44 49.999 48 49.999 48 49 44 49"></polygon>
                    <g id="Group-74">
                        <path d="M97.5247852,48.0076471 C97.6756748,48.0076471 97.8299938,48.0831373 97.9054386,48.1586275 C97.9808834,48.3130392 98.0563283,48.3885294 98.0563283,48.615 C98.0563283,48.7694118 97.9808834,48.9203922 97.9054386,49.0748039 C97.8299938,49.2257843 97.6756748,49.2257843 97.5247852,49.2257843 C97.3738955,49.2257843 97.2195766,49.1502941 97.1441317,49.0748039 C97.0686869,48.9203922 96.9932421,48.844902 96.9932421,48.615 C96.9932421,48.4640196 97.0686869,48.3130392 97.1441317,48.1586275 C97.2195766,48.0831373 97.3738955,48.0076471 97.5247852,48.0076471 L97.5247852,48.0076471 Z M96.9932421,54.2493137 L96.9932421,50.594902 L96.4582697,50.594902 L96.4582697,49.7576471 L97.9808834,49.7576471 L97.9808834,54.2493137 L96.9932421,54.2493137 Z" id="Fill-7" fill="#646463"></path>
                        <path d="M101.784674,54.2493137 L101.784674,51.6620588 C101.784674,51.2811765 101.70923,50.9757843 101.554911,50.8248039 C101.404021,50.6703922 101.177687,50.594902 100.872478,50.594902 C100.718159,50.594902 100.567269,50.6703922 100.41638,50.7493137 C100.262061,50.8248039 100.111171,50.9757843 100.035726,51.0512745 L100.035726,54.3248039 L99.0446555,54.3248039 L99.0446555,49.8331373 L99.7305176,49.8331373 L99.8814072,50.2895098 C100.186616,49.987549 100.567269,49.7576471 101.023368,49.7576471 C101.554911,49.7576471 101.935564,49.9120588 102.240773,50.2140196 C102.545981,50.5194118 102.696871,50.9757843 102.696871,51.5865686 L102.696871,54.3248039 L101.784674,54.3248039 L101.784674,54.2493137 Z" id="Fill-9" fill="#646463"></path>
                        <path d="M106.577479,54.2493137 L106.577479,51.6620588 C106.577479,51.2811765 106.502034,50.9757843 106.347715,50.8248039 C106.196825,50.6703922 105.970491,50.594902 105.665282,50.594902 C105.510963,50.594902 105.360073,50.6703922 105.209184,50.7493137 C105.054865,50.8248039 104.903975,50.9757843 104.82853,51.0512745 L104.82853,54.3248039 L103.83746,54.3248039 L103.83746,49.8331373 L104.523322,49.8331373 L104.674211,50.2895098 C104.97942,49.987549 105.360073,49.7576471 105.816172,49.7576471 C106.347715,49.7576471 106.728368,49.9120588 107.033577,50.2140196 C107.338786,50.5194118 107.489675,50.9757843 107.489675,51.5865686 L107.489675,54.3248039 L106.577479,54.3248039 L106.577479,54.2493137 Z" id="Fill-11" fill="#646463"></path>
                        <path d="M109.316126,51.9657353 C109.316126,52.9539706 109.621334,53.4892647 110.303767,53.4892647 C110.608976,53.4892647 110.83874,53.3348529 111.065074,53.1083824 C111.219393,52.8784804 111.370283,52.497598 111.370283,52.0412255 C111.370283,51.0529902 111.065074,50.5966176 110.382641,50.5966176 C110.077433,50.5966176 109.847669,50.747598 109.621334,50.9775 C109.391571,51.2039706 109.316126,51.5093627 109.316126,51.9657353 M108.328484,51.9657353 C108.328484,51.2794608 108.479374,50.747598 108.860028,50.2912255 C109.240681,49.8348529 109.696779,49.604951 110.303767,49.604951 C110.914184,49.604951 111.445728,49.8348529 111.750936,50.2157353 C112.13159,50.5966176 112.282479,51.2039706 112.282479,51.8902451 C112.282479,52.5730882 112.13159,53.1838725 111.750936,53.6402451 C111.370283,54.0966176 110.914184,54.247598 110.303767,54.247598 C109.696779,54.247598 109.165236,54.0211275 108.784583,53.6402451 C108.479374,53.2593627 108.328484,52.7275 108.328484,51.9657353" id="Fill-13" fill="#646463"></path>
                        <polygon id="Fill-15" fill="#646463" points="114.869208 54.3254902 114.488555 54.3254902 112.588717 49.7583333 113.651803 49.7583333 114.639444 52.5 115.781405 49.7583333 116.772475 49.7583333"></polygon>
                        <path d="M119.585882,52.1180882 C119.434992,52.1180882 119.280673,52.042598 119.205228,52.042598 C118.443921,52.042598 118.063268,52.3479902 118.063268,52.8798529 C118.063268,53.2607353 118.293032,53.4872059 118.74913,53.4872059 C119.356118,53.4872059 119.661326,53.1852451 119.661326,52.5744608 L119.661326,52.1180882 L119.585882,52.1180882 Z M119.661326,53.792598 C119.585882,53.9435784 119.434992,54.0979902 119.205228,54.1734804 C118.978894,54.2489706 118.74913,54.3244608 118.519366,54.3244608 C118.063268,54.3244608 117.682614,54.1734804 117.45628,53.9435784 C117.226516,53.7171078 117.075626,53.3362255 117.075626,52.8798529 C117.075626,52.3479902 117.226516,51.9671078 117.607169,51.6617157 C117.987823,51.3563235 118.519366,51.2053431 119.129783,51.2053431 C119.280673,51.2053431 119.356118,51.2053431 119.510437,51.2808333 C119.510437,50.7489706 119.205228,50.5190686 118.59824,50.5190686 C118.217587,50.5190686 117.912378,50.5945588 117.682614,50.7489706 L117.45628,49.9117157 C117.761488,49.7573039 118.217587,49.6818137 118.673685,49.6818137 C119.280673,49.6818137 119.815645,49.8362255 120.04198,50.1381863 C120.347188,50.4435784 120.498078,51.0509314 120.498078,51.8881863 L120.498078,52.8798529 C120.498078,53.4872059 120.573523,53.8680882 120.803287,54.0225 C120.727842,54.1734804 120.652397,54.2489706 120.498078,54.3244608 C120.422633,54.3244608 120.271744,54.399951 120.192869,54.399951 C120.04198,54.399951 119.89109,54.3244608 119.815645,54.2489706 C119.815645,54.0979902 119.736771,53.9435784 119.661326,53.792598 L119.661326,53.792598 Z" id="Fill-17" fill="#646463"></path>
                        <path d="M121.715826,50.5955882 L121.259728,50.5955882 L121.259728,49.7583333 L121.715826,49.7583333 L121.715826,48.8455882 L122.703468,48.4647059 L122.703468,49.7583333 L123.845428,49.7583333 L123.845428,50.5955882 L122.703468,50.5955882 L122.703468,52.5754902 C122.703468,52.877451 122.782342,53.1073529 122.857787,53.2583333 C122.933231,53.4127451 123.084121,53.4882353 123.313885,53.4882353 C123.540219,53.4882353 123.769983,53.4127451 123.996318,53.2583333 L123.996318,54.25 C123.769983,54.3254902 123.464774,54.4009804 123.008676,54.4009804 C122.628023,54.4009804 122.247369,54.25 122.021035,54.020098 C121.791271,53.7936275 121.715826,53.4127451 121.715826,52.9563725 L121.715826,50.5955882 Z" id="Fill-19" fill="#646463"></path>
                        <path d="M125.519274,48.0076471 C125.670164,48.0076471 125.824483,48.0831373 125.899928,48.1586275 C125.975373,48.3130392 126.050817,48.3885294 126.050817,48.615 C126.050817,48.7694118 125.975373,48.9203922 125.899928,49.0748039 C125.824483,49.2257843 125.670164,49.2257843 125.519274,49.2257843 C125.368385,49.2257843 125.214066,49.1502941 125.138621,49.0748039 C125.063176,48.9203922 124.987731,48.844902 124.987731,48.615 C124.987731,48.4640196 125.063176,48.3130392 125.138621,48.1586275 C125.214066,48.0831373 125.368385,48.0076471 125.519274,48.0076471 L125.519274,48.0076471 Z M125.063176,54.2493137 L125.063176,50.594902 L124.531633,50.594902 L124.531633,49.7576471 L126.050817,49.7576471 L126.050817,54.2493137 L125.063176,54.2493137 Z" id="Fill-21" fill="#646463"></path>
                        <path d="M127.877611,51.9657353 C127.877611,52.9539706 128.18282,53.4892647 128.865252,53.4892647 C129.170461,53.4892647 129.400225,53.3348529 129.626559,53.1083824 C129.780878,52.8784804 129.931768,52.497598 129.931768,52.0412255 C129.931768,51.0529902 129.626559,50.5966176 128.944127,50.5966176 C128.638918,50.5966176 128.409154,50.747598 128.18282,50.9775 C128.028501,51.2039706 127.877611,51.5093627 127.877611,51.9657353 M126.88997,51.9657353 C126.88997,51.2794608 127.040859,50.747598 127.421513,50.2912255 C127.802166,49.8348529 128.258264,49.604951 128.865252,49.604951 C129.47567,49.604951 130.007213,49.8348529 130.312421,50.2157353 C130.693075,50.5966176 130.843964,51.2039706 130.843964,51.8902451 C130.843964,52.5730882 130.693075,53.1838725 130.312421,53.6402451 C129.931768,54.0966176 129.47567,54.247598 128.865252,54.247598 C128.258264,54.247598 127.726721,54.0211275 127.346068,53.6402451 C127.040859,53.2593627 126.88997,52.7275 126.88997,51.9657353" id="Fill-23" fill="#646463"></path>
                        <path d="M134.419706,54.2493137 L134.419706,51.6620588 C134.419706,51.2811765 134.344262,50.9757843 134.189943,50.8248039 C134.039053,50.6703922 133.812718,50.594902 133.50751,50.594902 C133.353191,50.594902 133.202301,50.6703922 133.051412,50.7493137 C132.897093,50.8248039 132.746203,50.9757843 132.670758,51.0512745 L132.670758,54.3248039 L131.679687,54.3248039 L131.679687,49.8331373 L132.365549,49.8331373 L132.516439,50.2895098 C132.746203,49.987549 133.202301,49.7576471 133.658399,49.7576471 C134.189943,49.7576471 134.570596,49.9120588 134.875805,50.2140196 C135.181013,50.5194118 135.331903,50.9757843 135.331903,51.5865686 L135.331903,54.3248039 L134.419706,54.3248039 L134.419706,54.2493137 Z" id="Fill-25" fill="#646463"></path>
                        <path d="M58.4234457,50.8241176 C58.1936819,50.6731373 57.9673474,50.5187255 57.7375836,50.5187255 C57.3569302,50.5187255 57.0551509,50.6731373 56.8253871,50.8996078 C56.5990526,51.1295098 56.5201784,51.5103922 56.5201784,52.0422549 C56.5201784,52.955 56.979706,53.4113725 57.8164578,53.4113725 C57.8919026,53.4113725 58.0427922,53.4113725 58.1936819,53.3358824 C58.3480009,53.2603922 58.4234457,53.184902 58.4988905,53.184902 L58.4988905,50.8241176 L58.4234457,50.8241176 Z M58.4234457,54.2486275 L58.4234457,53.9466667 C58.3480009,54.0221569 58.1936819,54.0976471 58.0427922,54.1731373 C57.8164578,54.2486275 57.6621388,54.2486275 57.4358043,54.2486275 C56.8253871,54.2486275 56.3692888,54.0221569 56.0640802,53.6412745 C55.7623009,53.2603922 55.5325371,52.6496078 55.5325371,51.9667647 C55.5325371,51.2804902 55.7623009,50.6731373 56.1429543,50.2167647 C56.5201784,49.7569608 56.979706,49.5304902 57.586694,49.5304902 C57.8919026,49.5304902 58.1936819,49.6059804 58.4234457,49.7569608 L58.4234457,47.9314706 L59.4110871,47.7015686 L59.4110871,54.1731373 L58.4234457,54.1731373 L58.4234457,54.2486275 Z" id="Fill-27" fill="#646463"></path>
                        <path d="M61.1620929,48.0076471 C61.3129826,48.0076471 61.4673016,48.0831373 61.5427464,48.1586275 C61.6181912,48.3130392 61.693636,48.3885294 61.693636,48.615 C61.693636,48.7694118 61.6181912,48.9203922 61.5427464,49.0748039 C61.4673016,49.2257843 61.3129826,49.2257843 61.1620929,49.2257843 C61.0112033,49.2257843 60.8568843,49.1502941 60.7814395,49.0748039 C60.7059947,48.9203922 60.6305498,48.844902 60.6305498,48.615 C60.6305498,48.4640196 60.7059947,48.3130392 60.7814395,48.1586275 C60.8568843,48.0831373 61.0112033,48.0076471 61.1620929,48.0076471 L61.1620929,48.0076471 Z M60.7059947,54.2493137 L60.7059947,50.594902 L60.1744516,50.594902 L60.1744516,49.7576471 L61.693636,49.7576471 L61.693636,54.2493137 L60.7059947,54.2493137 Z" id="Fill-29" fill="#646463"></path>
                        <path d="M63.444299,51.3566667 C63.444299,51.6620588 63.5197438,51.8130392 63.6740628,51.9640196 C63.8249524,52.1184314 63.9758421,52.1939216 64.2056059,52.1939216 C64.4319403,52.1939216 64.5862593,52.1184314 64.737149,51.9640196 C64.8880386,51.8130392 64.8880386,51.5865686 64.8880386,51.2811765 C64.8880386,51.0512745 64.8125938,50.8248039 64.6617041,50.6703922 C64.5108145,50.5194118 64.3564955,50.4439216 64.130161,50.4439216 C63.9003972,50.4439216 63.7495076,50.5194118 63.5951886,50.6703922 C63.5197438,50.9002941 63.444299,51.1267647 63.444299,51.3566667 M62.4566576,55.3919608 L63.0636455,54.5547059 C63.3688541,54.8566667 63.7495076,55.0865686 64.2056059,55.0865686 C64.5108145,55.0865686 64.737149,55.0110784 64.8880386,54.9355882 C65.0423576,54.8566667 65.1932472,54.7056863 65.1932472,54.5547059 C65.1932472,54.3248039 64.9669128,54.1738235 64.5862593,54.1738235 C64.5108145,54.1738235 64.2810507,54.1738235 64.130161,54.2493137 C63.9003972,54.2493137 63.7495076,54.3248039 63.6740628,54.3248039 C62.9882007,54.3248039 62.6829921,54.0983333 62.6829921,53.5630392 C62.6829921,53.4120588 62.7584369,53.2610784 62.837311,53.1066667 C62.9127559,52.9556863 63.0636455,52.8801961 63.2145352,52.8012745 C62.7584369,52.4993137 62.5321024,51.9640196 62.5321024,51.3566667 C62.5321024,50.9002941 62.6829921,50.4439216 62.9882007,50.1385294 C63.2934093,49.8331373 63.7495076,49.6821569 64.2056059,49.6821569 C64.5862593,49.6821569 64.8880386,49.7576471 65.1178024,49.9120588 L65.4984559,49.4522549 L66.1843179,50.1385294 L65.7247903,50.4439216 C65.8791093,50.6703922 65.9545541,51.0512745 65.9545541,51.3566667 C65.9545541,51.8885294 65.8036645,52.2694118 65.4984559,52.5748039 C65.1932472,52.8801961 64.8125938,53.0311765 64.4319403,53.0311765 L64.130161,53.0311765 L63.9758421,53.0311765 C63.9758421,53.0311765 63.9003972,53.0311765 63.7495076,53.1066667 C63.5951886,53.1821569 63.5951886,53.2610784 63.5951886,53.2610784 C63.5951886,53.3365686 63.6740628,53.4120588 63.9003972,53.4120588 C63.9758421,53.4120588 64.130161,53.4120588 64.2810507,53.3365686 C64.4319403,53.2610784 64.6617041,53.2610784 64.737149,53.2610784 C65.7247903,53.2610784 66.1843179,53.6385294 66.1843179,54.4792157 C66.1843179,54.9355882 65.9545541,55.3164706 65.5739007,55.5429412 C65.1932472,55.7728431 64.737149,55.9238235 64.2056059,55.9238235 C63.5951886,55.9993137 62.9882007,55.8483333 62.4566576,55.3919608" id="Fill-31" fill="#646463"></path>
                        <path d="M67.5522698,48.0076471 C67.7031595,48.0076471 67.8574784,48.0831373 67.9329233,48.1586275 C68.0083681,48.3130392 68.0838129,48.3885294 68.0838129,48.615 C68.0838129,48.7694118 68.0083681,48.9203922 67.9329233,49.0748039 C67.8574784,49.2257843 67.7031595,49.2257843 67.5522698,49.2257843 C67.4013802,49.2257843 67.2470612,49.1502941 67.1716164,49.0748039 C67.0961716,48.9203922 67.0207267,48.844902 67.0207267,48.615 C67.0207267,48.4640196 67.0961716,48.3130392 67.1716164,48.1586275 C67.322506,48.0831373 67.4013802,48.0076471 67.5522698,48.0076471 L67.5522698,48.0076471 Z M67.0961716,54.2493137 L67.0961716,50.594902 L66.5646284,50.594902 L66.5646284,49.7576471 L68.0838129,49.7576471 L68.0838129,54.2493137 L67.0961716,54.2493137 Z" id="Fill-33" fill="#646463"></path>
                        <path d="M69.3780347,50.5955882 L68.9219364,50.5955882 L68.9219364,49.7583333 L69.3780347,49.7583333 L69.3780347,48.8455882 L70.365676,48.4647059 L70.365676,49.7583333 L71.5076364,49.7583333 L71.5076364,50.5955882 L70.365676,50.5955882 L70.365676,52.5754902 C70.365676,52.877451 70.4445502,53.1073529 70.519995,53.2583333 C70.5954398,53.4127451 70.7463295,53.4882353 70.9760933,53.4882353 C71.2024278,53.4882353 71.4321916,53.4127451 71.658526,53.2583333 L71.658526,54.25 C71.4321916,54.3254902 71.1269829,54.4009804 70.6708847,54.4009804 C70.2902312,54.4009804 69.9095778,54.25 69.6832433,54.020098 C69.4534795,53.7936275 69.3780347,53.4127451 69.3780347,52.9563725 C69.3780347,52.9563725 69.3780347,50.5955882 69.3780347,50.5955882" id="Fill-35" fill="#646463"></path>
                        <path d="M74.6269371,52.1180882 C74.4760474,52.1180882 74.3217284,52.042598 74.2462836,52.042598 C73.4849767,52.042598 73.1043233,52.3479902 73.1043233,52.8798529 C73.1043233,53.2607353 73.3340871,53.4872059 73.7901853,53.4872059 C74.3971733,53.4872059 74.7023819,53.1852451 74.7023819,52.5744608 L74.7023819,52.1180882 L74.6269371,52.1180882 Z M74.7023819,53.792598 C74.6269371,53.9435784 74.4760474,54.0979902 74.2462836,54.1734804 C74.0199491,54.2489706 73.7901853,54.3244608 73.5604216,54.3244608 C73.1043233,54.3244608 72.7236698,54.1734804 72.4973353,53.9435784 C72.2675716,53.7171078 72.1166819,53.3362255 72.1166819,52.8798529 C72.1166819,52.3479902 72.2675716,51.9671078 72.648225,51.6617157 C73.0288784,51.3563235 73.5604216,51.2053431 74.1708388,51.2053431 C74.3217284,51.2053431 74.3971733,51.2053431 74.5514922,51.2808333 C74.5514922,50.7489706 74.2462836,50.5190686 73.6392957,50.5190686 C73.2586422,50.5190686 72.9534336,50.5945588 72.7236698,50.7489706 L72.4973353,49.9117157 C72.802544,49.7573039 73.2586422,49.6818137 73.7147405,49.6818137 C74.3217284,49.6818137 74.8567009,49.8362255 75.0830353,50.1381863 C75.388244,50.4435784 75.5391336,51.0509314 75.5391336,51.8881863 L75.5391336,52.8798529 C75.5391336,53.4872059 75.6145784,53.8680882 75.8443422,54.0225 C75.7688974,54.1734804 75.6934526,54.2489706 75.5391336,54.3244608 C75.4636888,54.3244608 75.3127991,54.399951 75.233925,54.399951 C75.0830353,54.399951 74.9321457,54.3244608 74.8567009,54.2489706 C74.8567009,54.0979902 74.7778267,53.9435784 74.7023819,53.792598 L74.7023819,53.792598 Z" id="Fill-37" fill="#646463"></path>
                        <path d="M76.8330124,48.0838235 L77.8206538,47.8539216 L77.8206538,52.9563725 C77.8206538,53.4882353 77.9749728,53.8691176 78.2767521,53.9446078 C78.1258624,54.25 77.8995279,54.4009804 77.5188745,54.4009804 C77.0627762,54.4009804 76.8330124,54.0955882 76.8330124,53.4127451 L76.8330124,48.0838235 Z" id="Fill-39" fill="#646463"></path>
                        <g id="Group-43" transform="translate(0.000000, 49.137255)">
                            <mask id="mask-2" fill="white">
                                <use xlink:href="#path-1"></use>
                            </mask>
                            <g id="Clip-42"></g>
                            <path d="M3.57539897,1.00161765 L3.11930069,1.76338235 C2.8895369,1.53348039 2.58775759,1.3825 2.20710414,1.3825 C1.82645069,1.3825 1.52124207,1.53348039 1.29490759,1.76338235 C1.06514379,1.98985294 0.989698966,2.37073529 0.989698966,2.82710784 C0.989698966,3.74328431 1.44579724,4.27514706 2.20710414,4.27514706 C2.58775759,4.27514706 2.8895369,4.12416667 3.19474552,3.89426471 L3.57539897,4.73151961 C3.27019034,4.96142157 3.04385586,5.03691176 2.81409207,5.11240196 C2.58775759,5.18789216 2.35799379,5.18789216 2.05278517,5.18789216 C1.37035241,5.18789216 0.914254138,4.96142157 0.53360069,4.58053922 C0.152947241,4.19965686 -0.00137172414,3.58887255 -0.00137172414,2.90602941 C-0.00137172414,2.2197549 0.228392069,1.60897059 0.609045517,1.15259804 C0.989698966,0.69622549 1.5966869,0.469754902 2.28254897,0.469754902 C2.81409207,0.545245098 3.27019034,0.69622549 3.57539897,1.00161765" id="Fill-41" fill="#646463" mask="url(#mask-2)"></path>
                        </g>
                        <path d="M5.17277172,51.9657353 C5.17277172,52.9539706 5.47798034,53.4892647 6.1604131,53.4892647 C6.46562172,53.4892647 6.69538552,53.3348529 6.92172,53.1083824 C7.07603897,52.8784804 7.22692862,52.497598 7.22692862,52.0412255 C7.22692862,51.0529902 6.92172,50.5966176 6.23928724,50.5966176 C5.93407862,50.5966176 5.70431483,50.747598 5.47798034,50.9775 C5.24821655,51.2039706 5.17277172,51.5093627 5.17277172,51.9657353 M4.10625621,51.9657353 C4.10625621,51.2794608 4.26057517,50.747598 4.64122862,50.2912255 C5.02188207,49.8348529 5.47798034,49.604951 6.08496828,49.604951 C6.69538552,49.604951 7.22692862,49.8348529 7.53213724,50.2157353 C7.91279069,50.5966176 8.06368034,51.2039706 8.06368034,51.8902451 C8.06368034,52.5730882 7.91279069,53.1838725 7.53213724,53.6402451 C7.15148379,54.0966176 6.69538552,54.247598 6.08496828,54.247598 C5.47798034,54.247598 4.94300793,54.0211275 4.56578379,53.6402451 C4.33602,53.2593627 4.10625621,52.7275 4.10625621,51.9657353" id="Fill-44" fill="#646463"></path>
                        <path d="M11.6390793,54.2493137 L11.6390793,51.6620588 C11.6390793,51.2811765 11.5636345,50.9757843 11.4093155,50.8248039 C11.2584259,50.6703922 11.0320914,50.594902 10.7268828,50.594902 C10.5725638,50.594902 10.4216741,50.6703922 10.2707845,50.7493137 C10.1164655,50.8248039 9.96557586,50.9757843 9.89013103,51.0512745 L9.89013103,54.3248039 L8.89906034,54.3248039 L8.89906034,49.8331373 L9.58492241,49.8331373 L9.73581207,50.2895098 C9.96557586,49.987549 10.4216741,49.7576471 10.8777724,49.7576471 C11.4093155,49.7576471 11.789969,49.9120588 12.0951776,50.2140196 C12.4003862,50.5194118 12.5512759,50.9757843 12.5512759,51.5865686 L12.5512759,54.3248039 L11.6390793,54.3248039 L11.6390793,54.2493137 Z" id="Fill-46" fill="#646463"></path>
                        <path d="M13.3887134,53.944951 L13.7693669,53.1076961 C14.0745755,53.337598 14.3763548,53.4885784 14.7570083,53.4885784 C15.1376617,53.4885784 15.3674255,53.337598 15.3674255,53.0322059 C15.3674255,52.8777941 15.2919807,52.7268137 15.2131066,52.5758333 C15.0622169,52.5003431 14.9113272,52.3459314 14.5306738,52.194951 C13.8448117,51.8895588 13.4641583,51.4331863 13.4641583,50.822402 C13.4641583,50.444951 13.6184772,50.1395588 13.8448117,49.9096569 C14.1500203,49.6831863 14.455229,49.6076961 14.9113272,49.6076961 C15.3674255,49.6076961 15.748079,49.6831863 16.1287324,49.9096569 L15.8235238,50.7469118 C15.59376,50.5204412 15.2919807,50.444951 14.9113272,50.444951 C14.6061186,50.444951 14.3763548,50.5959314 14.3763548,50.9013235 C14.3763548,51.0523039 14.455229,51.1277941 14.5306738,51.2032843 C14.6061186,51.2822059 14.9113272,51.4331863 15.2131066,51.5841667 C15.59376,51.7385784 15.8235238,51.965049 15.9744134,52.1194608 C16.1287324,52.3459314 16.2041772,52.5758333 16.2041772,52.9567157 C16.2041772,53.337598 16.0498583,53.715049 15.748079,53.944951 C15.4428703,54.1748529 15.0622169,54.3258333 14.6061186,54.3258333 C14.30091,54.3258333 14.0745755,54.3258333 13.9202566,54.2503431 C13.9202566,54.2503431 13.6939221,54.0959314 13.3887134,53.944951" id="Fill-48" fill="#646463"></path>
                        <path d="M19.855021,54.2493137 L19.855021,53.8684314 C19.7041314,54.0194118 19.5498124,54.0983333 19.2480331,54.1738235 C19.0182693,54.2493137 18.7885055,54.3248039 18.562171,54.3248039 C17.5745297,54.3248039 17.1150021,53.7929412 17.1150021,52.6502941 L17.1150021,49.7576471 L18.1060728,49.7576471 L18.1060728,52.5748039 C18.1060728,53.1821569 18.3324072,53.4120588 18.8673797,53.4120588 C19.0937141,53.4120588 19.3234779,53.3365686 19.4743676,53.2610784 C19.7041314,53.1066667 19.7795762,52.9556863 19.855021,52.8047059 L19.855021,49.6821569 L20.8426624,49.6821569 L20.8426624,54.1738235 L19.855021,54.1738235 L19.855021,54.2493137 Z" id="Fill-50" fill="#646463"></path>
                        <path d="M22.0610964,48.0838235 L23.0487378,47.8539216 L23.0487378,52.9563725 C23.0487378,53.4882353 23.2030567,53.8691176 23.504836,53.9446078 C23.3539464,54.25 23.1276119,54.4009804 22.7469584,54.4009804 C22.2908602,54.4009804 22.0610964,54.0955882 22.0610964,53.4127451 C22.0610964,53.4127451 22.0610964,48.0838235 22.0610964,48.0838235" id="Fill-52" fill="#646463"></path>
                        <path d="M24.3433024,50.5955882 L23.8872041,50.5955882 L23.8872041,49.7583333 L24.3433024,49.7583333 L24.3433024,48.8455882 L25.3309438,48.4647059 L25.3309438,49.7583333 L26.4729041,49.7583333 L26.4729041,50.5955882 L25.3309438,50.5955882 L25.3309438,52.5754902 C25.3309438,52.877451 25.4098179,53.1073529 25.4852628,53.2583333 C25.5607076,53.4127451 25.7115972,53.4882353 25.941361,53.4882353 C26.1676955,53.4882353 26.3974593,53.4127451 26.6237938,53.2583333 L26.6237938,54.25 C26.3974593,54.3254902 26.0922507,54.4009804 25.6361524,54.4009804 C25.255499,54.4009804 24.8748455,54.25 24.648511,54.020098 C24.4187472,53.7936275 24.3433024,53.4127451 24.3433024,52.9563725 L24.3433024,50.5955882 Z" id="Fill-54" fill="#646463"></path>
                        <path d="M28.1467505,48.0076471 C28.2976402,48.0076471 28.4519591,48.0831373 28.527404,48.1586275 C28.6028488,48.3130392 28.6782936,48.3885294 28.6782936,48.615 C28.6782936,48.7694118 28.6028488,48.9203922 28.527404,49.0748039 C28.4519591,49.2257843 28.2976402,49.2257843 28.1467505,49.2257843 C27.9958609,49.2257843 27.8415419,49.1502941 27.7660971,49.0748039 C27.6906522,48.9203922 27.6152074,48.844902 27.6152074,48.615 C27.6152074,48.4640196 27.6906522,48.3130392 27.7660971,48.1586275 C27.8415419,48.0831373 27.9958609,48.0076471 28.1467505,48.0076471 L28.1467505,48.0076471 Z M27.6906522,54.2493137 L27.6906522,50.594902 L27.1591091,50.594902 L27.1591091,49.7576471 L28.6782936,49.7576471 L28.6782936,54.2493137 L27.6906522,54.2493137 Z" id="Fill-56" fill="#646463"></path>
                        <path d="M32.4827705,54.2493137 L32.4827705,51.6620588 C32.4827705,51.2811765 32.4073257,50.9757843 32.2530067,50.8248039 C32.1021171,50.6703922 31.8757826,50.594902 31.570574,50.594902 C31.416255,50.594902 31.2653653,50.6703922 31.1144757,50.7493137 C30.9601567,50.8248039 30.8092671,50.9757843 30.7338222,51.0512745 L30.7338222,54.3248039 L29.7427516,54.3248039 L29.7427516,49.8331373 L30.4286136,49.8331373 L30.5795033,50.2895098 C30.8092671,49.987549 31.2653653,49.7576471 31.7214636,49.7576471 C32.2530067,49.7576471 32.6336602,49.9120588 32.9388688,50.2140196 C33.2440774,50.5194118 33.3949671,50.9757843 33.3949671,51.5865686 L33.3949671,54.3248039 L32.4827705,54.3248039 L32.4827705,54.2493137 Z" id="Fill-58" fill="#646463"></path>
                        <path d="M35.1452871,51.3566667 C35.1452871,51.6620588 35.2207319,51.8130392 35.3750509,51.9640196 C35.5259405,52.1184314 35.6768302,52.1939216 35.906594,52.1939216 C36.1329284,52.1939216 36.2872474,52.1184314 36.4381371,51.9640196 C36.5890267,51.8130392 36.5890267,51.5865686 36.5890267,51.2811765 C36.5890267,51.0512745 36.5135819,50.8248039 36.3626922,50.6703922 C36.2118026,50.5194118 36.0574836,50.4439216 35.8311491,50.4439216 C35.6013853,50.4439216 35.4504957,50.5194118 35.2961767,50.6703922 C35.2207319,50.9002941 35.1452871,51.1267647 35.1452871,51.3566667 M34.2330905,55.3919608 L34.8400784,54.5547059 C35.1452871,54.8566667 35.5259405,55.0865686 35.9820388,55.0865686 C36.2872474,55.0865686 36.5135819,55.0110784 36.6679009,54.9355882 C36.8187905,54.8566667 36.9696802,54.7056863 36.9696802,54.5547059 C36.9696802,54.3248039 36.7433457,54.1738235 36.3626922,54.1738235 C36.2872474,54.1738235 36.0574836,54.1738235 35.906594,54.2493137 C35.6768302,54.2493137 35.5259405,54.3248039 35.4504957,54.3248039 C34.7646336,54.3248039 34.459425,54.0983333 34.459425,53.5630392 C34.459425,53.4120588 34.5382991,53.2610784 34.613744,53.1066667 C34.6891888,52.9556863 34.8400784,52.8801961 34.9943974,52.8012745 C34.5382991,52.4993137 34.3085353,51.9640196 34.3085353,51.3566667 C34.3085353,50.9002941 34.459425,50.4439216 34.7646336,50.1385294 C35.0698422,49.8331373 35.5259405,49.6821569 35.9820388,49.6821569 C36.3626922,49.6821569 36.6679009,49.7576471 36.8942353,49.9120588 L37.2748888,49.4522549 L37.9607509,50.1385294 L37.5046526,50.5194118 C37.6555422,50.7493137 37.7309871,51.1267647 37.7309871,51.4321569 C37.7309871,51.9640196 37.5800974,52.344902 37.2748888,52.6502941 C36.9696802,52.9556863 36.5890267,53.1066667 36.2118026,53.1066667 L35.906594,53.1066667 L35.752275,53.1066667 C35.752275,53.1066667 35.6768302,53.1066667 35.5259405,53.1821569 C35.3750509,53.2610784 35.3750509,53.3365686 35.3750509,53.3365686 C35.3750509,53.4120588 35.4504957,53.487549 35.6768302,53.487549 C35.752275,53.487549 35.906594,53.487549 36.0574836,53.4120588 C36.2118026,53.3365686 36.4381371,53.3365686 36.5135819,53.3365686 C37.5046526,53.3365686 37.9607509,53.717451 37.9607509,54.5547059 C37.9607509,55.0110784 37.7309871,55.3919608 37.3503336,55.6184314 C36.9696802,55.8483333 36.5135819,55.9993137 35.9820388,55.9993137 C35.2961767,55.9993137 34.6891888,55.8483333 34.2330905,55.3919608" id="Fill-60" fill="#646463"></path>
                        <path d="M131.909451,7.74117647 L132.139215,7.74117647 C132.440994,7.74117647 132.670758,7.66568627 132.670758,7.36029412 C132.670758,7.13382353 132.516439,6.97941176 132.139215,6.97941176 L131.834006,6.97941176 L131.834006,7.74117647 L131.909451,7.74117647 Z M131.909451,9.03480392 L131.377908,9.03480392 L131.377908,6.67401961 C131.604243,6.59852941 131.909451,6.59852941 132.290105,6.59852941 C132.746203,6.59852941 132.897093,6.67401961 133.126856,6.75294118 C133.277746,6.82843137 133.353191,7.05490196 133.353191,7.28480392 C133.353191,7.51127451 133.126856,7.74117647 132.897093,7.81666667 C133.126856,7.89215686 133.277746,8.04656863 133.353191,8.42745098 C133.432065,8.80833333 133.50751,8.95931373 133.50751,9.03480392 L132.897093,9.03480392 C132.821648,8.95931373 132.746203,8.72941176 132.746203,8.42745098 C132.670758,8.19754902 132.595313,8.04656863 132.290105,8.04656863 L131.909451,8.04656863 L131.909451,9.03480392 Z M130.465712,7.81666667 C130.465712,8.88382353 131.223589,9.72107843 132.290105,9.72107843 C133.353191,9.72107843 134.114498,8.88382353 134.114498,7.89215686 C134.114498,6.82843137 133.353191,5.99117647 132.290105,5.99117647 C131.223589,5.99117647 130.465712,6.82843137 130.465712,7.81666667 L130.465712,7.81666667 Z M134.724915,7.81666667 C134.724915,9.11029412 133.658399,10.177451 132.290105,10.177451 C130.92181,10.177451 129.855294,9.11029412 129.855294,7.81666667 C129.855294,6.52303922 130.92181,5.45931373 132.290105,5.45931373 C133.658399,5.45931373 134.724915,6.52303922 134.724915,7.81666667 L134.724915,7.81666667 Z" id="Fill-62" fill="#646463"></path>
                        <path d="M129.779507,39.6347549 L129.779507,21.5960294 C129.779507,17.1043627 127.876239,14.8190686 123.997689,14.8190686 C122.780284,14.8190686 121.638324,15.199951 120.575238,15.9617157 C119.508722,16.7234804 118.826289,17.5607353 118.370191,18.5489706 L118.370191,39.6347549 L113.346251,39.6347549 L113.346251,19.3862255 C113.346251,18.0171078 112.814708,16.8744608 111.751622,16.0372059 C110.685107,15.199951 109.316812,14.8190686 107.567863,14.8190686 C106.576793,14.8190686 105.513707,15.199951 104.371746,15.9617157 C103.229786,16.7234804 102.393034,17.6362255 101.936936,18.5489706 L101.936936,39.6347549 L96.9164255,39.6347549 L96.9164255,11.0891667 L100.187988,11.0891667 L101.861491,14.3626961 C103.761329,11.7754412 106.196139,10.5573039 109.162493,10.5573039 C113.195362,10.5573039 116.08627,11.8509314 117.684329,14.3626961 C118.215872,13.2989706 119.282388,12.3827941 120.801572,11.6244608 C122.324186,10.8626961 123.922244,10.5573039 125.520303,10.5573039 C128.486657,10.5573039 130.691703,11.3945588 132.289762,13.1445588 C133.88782,14.8979902 134.724572,17.3308333 134.724572,20.5288725 L134.724572,39.6347549 L129.779507,39.6347549 Z" id="Fill-64" fill="#05B3E2"></path>
                        <path d="M72.1166819,11.0901961 L72.1166819,29.2833333 C72.1166819,33.6960784 74.0199491,35.9058824 77.8230543,35.9058824 C79.4965578,35.9058824 81.0157422,35.4495098 82.3874664,34.4578431 C83.7557612,33.4696078 84.6679578,32.402451 85.124056,31.1088235 L85.124056,11.0901961 L90.1445664,11.0901961 L90.1445664,39.6357843 L85.124056,39.6357843 L85.124056,35.6759804 C84.5925129,36.8186275 83.4505526,37.8068627 81.7016043,38.7196078 C80.0281009,39.6357843 78.3545974,40.0921569 76.681094,40.0921569 C73.5604216,40.0921569 71.2044853,39.1794118 69.5309819,37.4259804 C67.8574784,35.6004902 67.0207267,33.0887255 67.0207267,29.8151961 L67.0207267,11.0901961 L72.1166819,11.0901961 Z" id="Fill-66" fill="#05B3E2"></path>
                        <path d="M43.5134902,37.959902 L45.2624384,33.1628431 C48.0779022,34.9917647 50.3583936,35.9045098 52.0318971,35.9045098 C55.1525695,35.9045098 56.6751833,34.6108824 56.6751833,31.9481373 C56.6751833,30.0437255 55.1525695,28.4447059 52.186216,27.0755882 C49.9022953,26.0084314 48.307666,25.1711765 47.5463591,24.6393137 C46.7096074,24.107451 46.0237453,23.4966667 45.4922022,22.734902 C44.881785,22.127549 44.4256867,21.3657843 44.1204781,20.6040196 C43.8186988,19.8422549 43.6643798,18.9295098 43.6643798,18.0922549 C43.6643798,15.734902 44.5011316,13.9059804 46.174635,12.6123529 C47.8481384,11.3187255 50.0566143,10.632451 52.793204,10.632451 C54.8473609,10.632451 57.4330609,11.3187255 60.6291781,12.6123529 L59.1854384,17.3304902 C57.2067264,15.734902 55.1525695,14.8976471 53.1738574,14.8976471 C51.9564522,14.8976471 50.9688109,15.1996078 50.1320591,15.734902 C49.2953074,16.2667647 48.914654,17.0285294 48.914654,17.8657843 C48.914654,19.6912745 49.9811695,21.0603922 52.0318971,22.0520588 L55.6086678,23.7265686 C57.8137143,24.7148039 59.4117729,25.857451 60.4028436,27.2265686 C61.390485,28.5201961 61.9220281,30.1192157 61.9220281,32.0991176 C61.9220281,34.6863725 61.0098316,36.6662745 59.2608833,38.1108824 C57.511935,39.5589216 55.0016798,40.3206863 51.8810074,40.3206863 C48.914654,40.1662745 46.0991902,39.4045098 43.5134902,37.959902" id="Fill-68" fill="#05B3E2"></path>
                        <path d="M35.0691564,0.281715686 C35.9059081,0.281715686 36.667215,0.587107843 37.2742029,1.19446078 C37.8846202,1.8052451 38.1898288,2.56357843 38.1898288,3.40426471 C38.1898288,4.24151961 37.8846202,4.99985294 37.2742029,5.61063725 C36.667215,6.2179902 35.9059081,6.52338235 35.0691564,6.52338235 C34.2324047,6.52338235 33.4710978,6.2179902 32.8641098,5.61063725 C32.2536926,4.99985294 31.948484,4.24151961 31.948484,3.40426471 C31.948484,2.56357843 32.2536926,1.8052451 32.8641098,1.19446078 C33.4710978,0.587107843 34.2324047,0.281715686 35.0691564,0.281715686 L35.0691564,0.281715686 Z M32.3291374,39.6361275 L32.3291374,15.3523039 L28.4505874,15.3523039 L28.4505874,11.0905392 L37.3496478,11.0905392 L37.3496478,39.6361275 L32.3291374,39.6361275 Z" id="Fill-70" fill="#05B3E2"></path>
                        <path d="M17.7247334,39.6347549 L17.7247334,23.0406373 C17.7247334,19.9970098 17.2686352,17.8661275 16.3564386,16.6479902 C15.4442421,15.4298529 13.9216283,14.8190686 11.7920266,14.8190686 C10.6500662,14.8190686 9.43266103,15.199951 8.21525586,15.8862255 C6.99785069,16.5725 6.01020931,17.4097549 5.32434724,18.4734804 L5.32434724,39.6347549 L0.303836897,39.6347549 L0.303836897,11.0891667 L3.72628862,11.0891667 L5.32434724,14.7435784 C6.99785069,11.9264216 9.66242483,10.5573039 13.46553,10.5573039 C19.7034455,10.5573039 22.8206886,14.3626961 22.8206886,21.9769118 L22.8206886,39.6347549 L17.7247334,39.6347549 Z" id="Fill-72" fill="#05B3E2"></path>
                    </g>
                </g>
            </g>
        </g>
    </g>
</svg>