<?xml version="1.0" encoding="UTF-8"?>
<svg width="233px" height="121px" viewBox="0 0 233 121" version="1.1" xmlns="http://www.w3.org/2000/svg" xmlns:xlink="http://www.w3.org/1999/xlink">
    <!-- Generator: Sketch 43.2 (39069) - http://www.bohemiancoding.com/sketch -->
    <title>Scotiabank</title>
    <desc>Created with Sketch.</desc>
    <defs></defs>
    <g id="Page-1" stroke="none" stroke-width="1" fill="none" fill-rule="evenodd">
        <g id="Logos" transform="translate(-119.000000, -2836.000000)">
            <g id="Scotiabank" transform="translate(119.000000, 2836.000000)">
                <rect id="Rectangle-3-Copy-6" fill="#FFFFFF" x="-1.42108547e-14" y="0" width="233" height="121"></rect>
                <g id="scotiabank-logo" transform="translate(13.000000, 43.000000)" fill-rule="nonzero" fill="#ED1B2E">
                    <path d="M85.7142963,24.6903846 C87.7933333,24.6903846 89.0153333,22.8944615 89.0153333,20.757 C89.0153333,18.5901282 87.8520741,16.7961026 85.7142963,16.7961026 C83.486,16.7961026 82.4171111,18.5901282 82.4171111,20.757 C82.4171111,22.8944615 83.642963,24.6903846 85.7142963,24.6903846 L85.7142963,24.6903846 Z M85.7142963,28.3135385 C80.7367407,28.3135385 77.1718519,25.3677692 77.1718519,20.757 C77.1718519,16.2031538 80.8648148,13.172 85.7142963,13.172 C90.5647407,13.172 94.2596296,16.1841795 94.2596296,20.757 C94.2596296,25.3677692 90.6648889,28.3135385 85.7142963,28.3135385 Z" id="Shape"></path>
                    <path d="M147.005926,20.7607949 C147.005926,18.8254103 145.886,17.1044359 143.933111,17.1044359 C142.215185,17.1044359 140.830444,18.5512308 140.830444,20.7607949 C140.830444,22.9048974 141.963852,24.4304359 143.933111,24.4304359 C145.708815,24.4304359 147.005926,22.9760513 147.005926,20.7607949 L147.005926,20.7607949 Z M135.804741,28.0042564 L135.804741,7.58120513 L140.909407,7.58120513 L140.909407,14.5798974 L140.967185,14.5798974 C141.32637,14.3578974 142.976889,13.1890769 145.404519,13.1890769 C149.37963,13.1890769 152.301259,16.3378718 152.301259,20.5027436 C152.301259,25.7074103 149.061852,28.3277692 145.372741,28.3277692 C142.583037,28.3277692 141.165556,27.0479487 140.816963,26.6779487 L140.737037,26.6779487 L140.662889,28.0042564 L135.804741,28.0042564 L135.804741,28.0042564 Z" id="Shape"></path>
                    <path d="M110.942963,6.20651282 C109.366593,6.20651282 108.071407,7.48348718 108.071407,9.03464103 C108.071407,10.588641 109.367556,11.8646667 110.942963,11.8646667 C112.520296,11.8646667 113.814519,10.588641 113.814519,9.03464103 C113.814519,7.48348718 112.520296,6.20651282 110.942963,6.20651282 L110.942963,6.20651282 Z M108.380519,13.5410513 L113.505407,13.5410513 L113.505407,28.0374615 L108.380519,28.0374615 L108.380519,13.5410513 L108.380519,13.5410513 Z" id="Shape"></path>
                    <path d="M174.161481,28.0165897 L179.135185,28.0165897 L179.135185,20.535 C179.135185,18.7808205 180.315778,17.581641 181.822815,17.581641 C183.546519,17.581641 184.524889,18.6859487 184.524889,20.535 L184.524889,28.0165897 L189.500519,28.0165897 L189.500519,19.2959744 C189.500519,16.014359 187.355037,13.2042564 183.42037,13.2042564 C180.790519,13.2042564 179.424074,14.6112051 178.799111,15.1652564 L178.694148,15.1652564 L178.644074,13.5609744 L174.162444,13.5609744 L174.162444,28.0165897" id="Shape"></path>
                    <polyline id="Shape" points="192.640741 28.0184872 197.744444 28.0184872 197.744444 21.312 197.792593 21.312 202.328148 28.0184872 208 28.0184872 202.53037 20.3414615 207.855556 13.5524359 202.193333 13.5524359 197.792593 19.5236667 197.744444 19.5236667 197.744444 7.59828205 192.640741 7.59828205 192.640741 28.0184872"></polyline>
                    <path d="M75.8699259,13.7545128 C75.4857037,13.6501538 74.0826667,13.1748462 72.2212593,13.1748462 C67.6134815,13.1748462 64.1602963,16.0162564 64.1602963,20.7465641 C64.1602963,25.0471026 67.262,28.3163846 72.0151852,28.3163846 C74.0393333,28.3163846 75.53,27.7841538 75.8699259,27.6854872 L75.6205185,23.4617949 C75.2257037,23.6382564 74.2068889,24.2112821 73.0311111,24.2112821 C70.9674815,24.2112821 69.4604444,22.7720769 69.4604444,20.7465641 C69.4604444,18.6204872 71.0734074,17.2495897 73.0908148,17.2495897 C74.2280741,17.2495897 75.2420741,17.7704359 75.6214815,17.9554359 L75.8699259,13.7545128" id="Shape"></path>
                    <path d="M121.208148,20.6279744 C121.208148,23.0225385 122.565926,24.5196154 124.32237,24.5196154 C125.914148,24.5196154 127.465481,23.051 127.465481,20.824359 C127.465481,18.580641 126.09037,17.0446667 124.32237,17.0446667 C122.493704,17.0456154 121.208148,18.6536923 121.208148,20.6279744 L121.208148,20.6279744 Z M132.507556,13.5325128 L132.507556,28.015641 L127.541556,28.015641 L127.467407,26.5555641 L127.359556,26.5555641 C126.808741,27.0451026 125.661852,28.335359 122.458074,28.335359 C118.906667,28.335359 115.795333,25.2937692 115.795333,20.7607949 C115.795333,16.5560769 118.554222,13.1966667 122.786444,13.1966667 C125.664741,13.1966667 126.840519,14.4461282 127.280593,14.8426923 L127.413481,14.8426923 L127.463556,13.5325128 L132.507556,13.5325128 Z" id="Shape"></path>
                    <path d="M159.553333,20.6194359 C159.553333,23.0149487 160.910148,24.5129744 162.667556,24.5129744 C164.25837,24.5129744 165.810667,23.0434103 165.810667,20.8167692 C165.810667,18.5730513 164.434593,17.0380256 162.667556,17.0380256 C160.836963,17.0380256 159.553333,18.6461026 159.553333,20.6194359 L159.553333,20.6194359 Z M170.853704,13.5258718 L170.853704,28.0099487 L165.885778,28.0099487 L165.81163,26.5479744 L165.705704,26.5479744 C165.154889,27.0375128 164.006074,28.3306154 160.804222,28.3306154 C157.251852,28.3306154 154.140519,25.2871282 154.140519,20.7551026 C154.140519,16.5475385 156.899407,13.1890769 161.13163,13.1890769 C164.010889,13.1890769 165.184741,14.4394872 165.626741,14.8360513 L165.758667,14.8360513 L165.808741,13.5258718 L170.853704,13.5258718 L170.853704,13.5258718 Z" id="Shape"></path>
                    <path d="M47.7465926,27.4796154 C49.1756296,27.9055897 51.349037,28.2964615 53.6534074,28.2964615 C58.0175556,28.2964615 62.3711111,26.7737692 62.3711111,22.0538974 C62.3711111,15.5741538 53.3048148,16.471641 53.3048148,13.8892308 C53.3048148,12.5686154 54.6982222,12.2830513 56.0637037,12.2830513 C57.9588148,12.2830513 60.3565926,13.1795897 60.8891111,13.3921026 L61.3002963,8.92933333 C59.9771852,8.48628205 57.9703704,8.23297436 56.082963,8.23297436 C51.7737037,8.23297436 47.5241481,9.89228205 47.5241481,14.0960513 C47.5241481,20.461 56.5654074,19.1346923 56.5654074,22.4732308 C56.5654074,23.7587436 55.2654074,24.2463846 53.6033333,24.2463846 C51.3211111,24.2463846 49.1746667,23.1212051 48.2463704,22.7151538 L47.7465926,27.4796154" id="Shape"></path>
                    <path d="M105.897037,24.0680256 C105.644741,24.1363333 104.955259,24.3108974 104.481481,24.3108974 C103.445333,24.3108974 102.312889,23.8327436 102.312889,22.0643333 L102.312889,17.168 L105.526296,17.168 L105.526296,13.5277692 L102.312889,13.5277692 L102.312889,8.86292308 L97.1976296,8.86292308 L97.1976296,13.5277692 L94.9616296,13.5277692 L94.9616296,17.168 L97.1976296,17.168 L97.1976296,22.896359 C97.1976296,26.048 98.6825185,28.3059487 102.466,28.3059487 C103.564741,28.3059487 104.572963,28.1617436 105.265333,28.0317692 L105.897037,24.0680256" id="Shape"></path>
                    <path d="M29.6958519,18.3055128 C29.8248889,24.5604103 24.0865926,29.2831282 19.291037,29.2831282 L7.43696296,29.2831282 L0,36.5825641 L19.162,36.5825641 C25.2797037,36.5825641 31.148,31.160641 31.148,24.6875385 C31.148,22.7863077 30.914963,20.3101538 29.6968148,18.432641 L29.6968148,18.3055128 L29.6958519,18.3055128 Z M27.6620741,22.9134359 C28.4016296,21.6117949 28.7646667,20.1811282 28.8542222,18.789359 L23.4760741,18.789359 C23.4760741,20.0796154 23.2574815,21.4837179 22.7654074,22.9134359 L27.6620741,22.9134359 Z M22.4148889,23.7312308 C21.8043704,25.2615128 20.3541481,27.2519231 18.9434074,28.3382051 C21.6753333,28.3382051 24.7982222,27.1636923 27.0804444,23.7312308 L22.4148889,23.7312308 Z M21.8043704,22.9134359 C22.2848889,21.6117949 22.5044444,20.1811282 22.6344444,18.789359 L14.4974074,18.789359 C14.6274074,20.1811282 14.846963,21.6117949 15.3265185,22.9134359 L21.8043704,22.9134359 Z M14.3953333,22.9134359 C13.9167407,21.4837179 13.6567407,20.0805641 13.6567407,18.789359 L8.28051852,18.789359 C8.40955556,20.1811282 8.76007407,21.6117949 9.47074074,22.9134359 L14.3962963,22.9134359 L14.3953333,22.9134359 Z M18.5794074,27.5090256 C19.6415556,26.5631538 20.8337037,25.0328718 21.4422963,23.7312308 L15.6895556,23.7312308 C16.3000741,25.0328718 17.4912593,26.5631538 18.5794074,27.5090256 Z M9.9502963,23.7312308 C12.3336296,27.1636923 15.4555556,28.3382051 18.2298519,28.3382051 C16.7767407,27.2509744 15.236963,25.2615128 14.742963,23.7312308 L9.95125926,23.7312308 L9.9502963,23.7312308 Z M22.7663704,13.8370513 C23.2584444,15.1007436 23.477037,16.5304615 23.477037,17.9592308 L28.8551852,17.9592308 C28.7656296,16.5304615 28.4016296,15.1007436 27.663037,13.8370513 L22.7663704,13.8370513 L22.7663704,13.8370513 Z M27.0814074,12.8788462 C24.7991852,9.58584615 21.6772593,8.28420513 18.9443704,8.28420513 C20.3551111,9.33158974 21.8053333,11.3229487 22.4158519,12.8788462 L27.0814074,12.8788462 Z M15.3274815,13.8370513 C14.8479259,15.1007436 14.6283704,16.5304615 14.4983704,17.9592308 L22.6354074,17.9592308 C22.5054074,16.5304615 22.2848889,15.1007436 21.8053333,13.8370513 L15.3274815,13.8370513 L15.3274815,13.8370513 Z M9.4717037,13.8370513 C8.76103704,15.1007436 8.40955556,16.5304615 8.28148148,17.9592308 L13.6577037,17.9592308 C13.6577037,16.5304615 13.9177037,15.1007436 14.3972593,13.8370513 L9.4717037,13.8370513 L9.4717037,13.8370513 Z M18.5803704,9.2025641 C17.4922222,10.1484359 16.301037,11.5772051 15.6914815,12.8788462 L21.4442222,12.8788462 C20.8346667,11.5772051 19.6425185,10.1484359 18.5803704,9.2025641 Z M14.7448889,12.8788462 C15.2388889,11.322 16.7786667,9.33064103 18.2317778,8.28420513 C15.4574815,8.28420513 12.3345926,9.58584615 9.95222222,12.8788462 L14.7448889,12.8788462 L14.7448889,12.8788462 Z M7.43792593,18.1764872 C6.24674074,16.3132051 5.98577778,13.8370513 5.98577778,11.9348718 C5.98577778,5.46176923 11.856,0 17.9698519,0 L37.1347407,0 L29.6968148,7.3895641 L17.8417778,7.3895641 C13.0751111,7.3895641 7.30696296,12.1521282 7.43792593,18.1764872 L7.43792593,18.1764872 Z" id="Shape"></path>
                </g>
            </g>
        </g>
    </g>
</svg>