<?xml version="1.0" encoding="UTF-8" standalone="no"?>
<svg width="233px" height="121px" viewBox="0 0 233 121" version="1.1" xmlns="http://www.w3.org/2000/svg" xmlns:xlink="http://www.w3.org/1999/xlink">
    <!-- Generator: Sketch 41.2 (35397) - http://www.bohemiancoding.com/sketch -->
    <title>Group 11</title>
    <desc>Created with Sketch.</desc>
    <defs>
        <polygon id="path-1" points="0 49.9637155 149.992785 49.9637155 149.992785 0.266806241 0 0.266806241"></polygon>
    </defs>
    <g id="Page-1" stroke="none" stroke-width="1" fill="none" fill-rule="evenodd">
        <g id="Artboard-2" transform="translate(-119.000000, -466.000000)">
            <g id="Group-11" transform="translate(119.000000, 466.000000)">
                <rect id="Rectangle-3" fill="#FFFFFF" x="1.42108547e-14" y="0" width="233" height="121"></rect>
                <g id="Page-1" transform="translate(42.000000, 32.000000)">
                    <polygon id="Fill-1" fill="#497DA2" points="0 48.1409393 1.66857489 48.1409393 1.66857489 40.8302484 0 40.8302484"></polygon>
                    <g id="Group-42" transform="translate(0.000000, 0.732368)">
                        <path d="M4.45006623,42.1714744 L4.48205807,42.5462022 C5.05991085,42.1714744 5.73373917,42.0225825 6.28959755,42.0225825 C6.74948039,42.0225825 7.26234972,42.1394976 7.55227585,42.4282879 C7.87219435,42.7380629 8.00116149,43.1977291 8.00116149,43.8072864 L8.00116149,47.408671 L6.4715512,47.408671 L6.4715512,43.9881551 C6.4715512,43.7213488 6.4185647,43.5714577 6.31059221,43.4655346 C6.17262736,43.3366282 5.95868186,43.2936594 5.64776108,43.2936594 C5.35883469,43.2936594 4.89895186,43.368605 4.65301452,43.4655346 L4.65301452,47.408671 L3.12440397,47.408671 L3.12440397,42.1714744 L4.45006623,42.1714744 Z" id="Fill-2" fill="#497DA2"></path>
                        <polygon id="Fill-4" fill="#497DA2" points="8.529027 42.1714744 10.1746077 42.1714744 11.3413105 45.8058351 12.4530273 42.1714744 13.9826375 42.1714744 12.1750981 47.408671 10.3995504 47.408671"></polygon>
                        <path d="M17.8128617,44.2666528 C17.8128617,43.604134 17.5029407,43.1764446 16.893096,43.1764446 C16.2732539,43.1764446 15.9953248,43.5931419 15.9623332,44.2666528 L17.8128617,44.2666528 Z M15.9623332,45.2609308 C16.0053222,46.1482864 16.5511831,46.3941078 17.5779215,46.3941078 C17.952826,46.3941078 18.48669,46.340147 18.8825891,46.2652015 L18.9995593,47.3763945 C18.4976872,47.4733241 17.8878426,47.5592617 17.2360087,47.5592617 C16.2512596,47.5592617 15.5134475,47.3134402 15.0645619,46.8857508 C14.5416951,46.3831158 14.3587417,45.6346594 14.3587417,44.8012646 C14.3587417,42.9625999 15.299502,42.0222827 16.9040932,42.0222827 C18.4756928,42.0222827 19.3104801,42.8446855 19.3104801,44.6623655 L19.3104801,45.1430164 C19.3104801,45.228954 19.2674911,45.2609308 19.181513,45.2609308 L15.9623332,45.2609308 Z" id="Fill-6" fill="#497DA2"></path>
                        <path d="M24.0504725,42.311073 L23.9325025,43.4332581 C23.3876414,43.2833669 22.7448051,43.1984286 22.3179139,43.1984286 C21.7730527,43.1984286 21.4731291,43.3263357 21.4731291,43.6251187 C21.4731291,44.5124743 24.3383991,43.6680875 24.3383991,45.837512 C24.3383991,46.9277203 23.5476006,47.5592617 21.976001,47.5592617 C21.3551592,47.5592617 20.5533635,47.4193633 20.1364697,47.2704714 L20.2534399,46.1372943 C20.6503388,46.2652015 21.3761538,46.3831158 21.9440092,46.3831158 C22.5208622,46.3831158 22.8847695,46.2761935 22.8847695,45.9024649 C22.8847695,44.9721405 20.0294969,45.8804808 20.0294969,43.710057 C20.0294969,42.7387624 20.7353171,42.0222827 22.3069167,42.0222827 C22.8307832,42.0222827 23.4836169,42.1182131 24.0504725,42.311073" id="Fill-8" fill="#497DA2"></path>
                        <path d="M24.8012812,42.3325574 L25.689055,42.1716742 L25.689055,41.0065204 C26.1489379,40.8676213 26.7257909,40.7816837 27.2176656,40.7816837 L27.2176656,42.1716742 L28.5753197,42.1716742 L28.5753197,43.1659522 L27.2176656,43.1659522 L27.2176656,45.613175 C27.2176656,46.2017475 27.3356355,46.4155922 27.9554776,46.4155922 C28.1694231,46.4155922 28.511336,46.3726234 28.6942894,46.3506394 L28.7462761,47.4308549 C28.4043632,47.5058005 27.8694995,47.558762 27.4096167,47.558762 C26.1059488,47.558762 25.689055,46.9811815 25.689055,45.8270197 L25.689055,43.1659522 L24.8012812,43.1659522 L24.8012812,42.3325574 Z" id="Fill-10" fill="#497DA2"></path>
                        <mask id="mask-2" fill="white">
                            <use xlink:href="#path-1"></use>
                        </mask>
                        <g id="Clip-13"></g>
                        <path d="M29.6794384,47.4085711 L31.2080489,47.4085711 L31.2080489,42.1713745 L29.6794384,42.1713745 L29.6794384,47.4085711 Z M31.2830298,40.5685385 C31.2830298,41.0921582 31.0051006,41.2950109 30.4812341,41.2950109 L30.4062532,41.2950109 C29.8823867,41.2950109 29.6034577,41.0921582 29.6034577,40.5685385 L29.6034577,40.4296393 C29.6034577,39.9060196 29.8823867,39.6921749 30.4062532,39.6921749 L30.4812341,39.6921749 C31.0051006,39.6921749 31.2830298,39.9060196 31.2830298,40.4296393 L31.2830298,40.5685385 Z" id="Fill-12" fill="#497DA2" mask="url(#mask-2)"></path>
                        <path d="M34.7811386,43.1122911 C34.0753184,43.1122911 33.7983889,43.4330582 33.7983889,44.0316235 C33.7983889,44.6401816 34.0753184,44.9619479 34.7811386,44.9619479 C35.4759615,44.9619479 35.7548905,44.6401816 35.7548905,44.0316235 C35.7548905,43.4330582 35.4759615,43.1122911 34.7811386,43.1122911 L34.7811386,43.1122911 Z M33.6794193,47.8368601 C33.5624491,47.9647672 33.5304572,48.1036663 33.5304572,48.2325727 C33.5304572,48.6172933 33.8193836,48.809154 34.7921358,48.809154 L34.9530948,48.809154 C35.7218989,48.809154 36.1287952,48.6282853 36.1287952,48.295527 C36.1287952,47.9547745 35.9148497,47.8368601 35.2090295,47.8368601 L33.6794193,47.8368601 Z M34.096313,46.0081881 C34.0013372,46.1800633 33.9583482,46.3509392 33.9583482,46.4258848 C33.9583482,46.5218151 34.0013372,46.5647839 34.1073102,46.5647839 L35.1350484,46.5647839 C36.1387927,46.5647839 36.7386398,46.7356598 37.1125446,47.1213797 C37.3694791,47.3871866 37.4974465,47.7299377 37.4974465,48.2325727 C37.4974465,49.322781 36.7176452,49.9633158 34.8351248,49.9633158 L34.7491467,49.9633158 C32.9416072,49.9633158 32.1728031,49.5256337 32.1728031,48.5853165 C32.1728031,48.1576271 32.4187404,47.8258681 32.7926452,47.6330081 C32.6106915,47.4841163 32.5247134,47.2492868 32.5247134,46.9495045 C32.5247134,46.5108231 32.781648,46.0411642 33.2195364,45.6774283 C32.7276617,45.3566612 32.4187404,44.8230488 32.4187404,44.0316235 C32.4187404,42.6416329 33.3055145,42.0220829 34.7811386,42.0220829 C34.9530948,42.0220829 35.1240512,42.0330749 35.2950076,42.0540597 L35.807877,40.7500067 C36.2147733,40.845937 36.6846536,41.049789 36.9955744,41.2846184 L36.235768,42.3418507 C36.7916263,42.652625 37.134539,43.1982287 37.134539,44.0316235 C37.134539,45.4316068 36.2577624,46.0511569 34.7811386,46.0511569 C34.5352012,46.0511569 34.3102585,46.0411642 34.096313,46.0081881 L34.096313,46.0081881 Z" id="Fill-14" fill="#497DA2" mask="url(#mask-2)"></path>
                        <path d="M41.2112003,45.1537086 L40.3994072,45.1537086 C40.0354999,45.1537086 39.8115569,45.1966774 39.6715926,45.3355766 C39.575617,45.4315069 39.5226305,45.581398 39.5226305,45.7732587 C39.5226305,46.1589786 39.7145816,46.3938081 40.2714398,46.3938081 C40.5593664,46.3938081 40.9662627,46.3078705 41.2112003,46.2329249 L41.2112003,45.1537086 Z M41.4041512,47.089303 C40.9552655,47.377094 40.38841,47.5589619 39.8325516,47.5589619 C38.6348567,47.5589619 37.9930202,46.8534742 37.9930202,45.8382115 C37.9930202,45.3675533 38.1529795,44.9398639 38.4529031,44.6510737 C38.8268078,44.2993291 39.4036609,44.1704227 40.3774128,44.1704227 L41.2112003,44.1704227 L41.2112003,43.9995468 C41.2112003,43.7107565 41.1482164,43.5288886 41.0192492,43.4119735 C40.8372956,43.2510903 40.5483692,43.1981288 40.1314754,43.1981288 C39.6396007,43.1981288 39.0297561,43.2610831 38.6668486,43.3370279 L38.5918677,42.2148429 C39.1267314,42.1069213 39.8215544,42.0219829 40.4523937,42.0219829 C41.2541894,42.0219829 41.9710067,42.1928589 42.334914,42.6205483 C42.601846,42.9303233 42.7408106,43.3799967 42.7408106,44.0095396 L42.7408106,47.4090708 L41.5321186,47.4090708 L41.4041512,47.089303 Z" id="Fill-15" fill="#497DA2" mask="url(#mask-2)"></path>
                        <path d="M44.1547504,46.5111229 C43.8668237,46.0734407 43.7268594,45.4858674 43.7268594,44.9082869 C43.7268594,44.0319233 43.9298077,43.3154436 44.4006877,42.8018166 C44.8715678,42.3001809 45.6313742,42.0223827 46.4971536,42.0223827 C46.9780311,42.0223827 47.5348892,42.0763435 48.0367613,42.2142433 L47.9407858,43.3474204 C47.6198675,43.2614828 47.1709819,43.1985285 46.7320937,43.1985285 C46.2612137,43.1985285 45.8983062,43.3364284 45.6743632,43.5722571 C45.4174287,43.8500554 45.3204534,44.2557607 45.3204534,44.7903725 C45.3204534,45.8695888 45.7583418,46.3942078 46.8610609,46.3942078 C47.2029738,46.3942078 47.6198675,46.351239 47.951783,46.2862861 L48.0687532,47.3874864 C47.5558839,47.5054008 47.1709819,47.5593616 46.5931291,47.5593616 C45.6953579,47.5593616 44.7006113,47.3555097 44.1547504,46.5111229" id="Fill-16" fill="#497DA2" mask="url(#mask-2)"></path>
                        <path d="M48.9805209,47.4085711 L50.5091314,47.4085711 L50.5091314,42.1713745 L48.9805209,42.1713745 L48.9805209,47.4085711 Z M50.5851121,40.5685385 C50.5851121,41.0921582 50.3061831,41.2950109 49.7833164,41.2950109 L49.7083355,41.2950109 C49.1834692,41.2950109 48.90554,41.0921582 48.90554,40.5685385 L48.90554,40.4296393 C48.90554,39.9060196 49.1834692,39.6921749 49.7083355,39.6921749 L49.7833164,39.6921749 C50.3061831,39.6921749 50.5851121,39.9060196 50.5851121,40.4296393 L50.5851121,40.5685385 Z" id="Fill-17" fill="#497DA2" mask="url(#mask-2)"></path>
                        <path d="M54.2224854,43.1874366 C53.4516817,43.1874366 53.1527579,43.710057 53.1527579,44.7902726 C53.1527579,45.8704881 53.4516817,46.3941078 54.2224854,46.3941078 C54.9922892,46.3941078 55.2912131,45.8704881 55.2912131,44.7902726 C55.2912131,43.710057 54.9922892,43.1874366 54.2224854,43.1874366 L54.2224854,43.1874366 Z M52.8648313,40.7711913 L54.8213328,38.9545106 L55.570142,39.9697733 L53.3986952,41.4337102 L52.8648313,40.7711913 Z M54.2224854,47.5592617 C52.4049484,47.5592617 51.5591639,46.4680541 51.5591639,44.7902726 C51.5591639,43.112491 52.4049484,42.0222827 54.2224854,42.0222827 C56.0400223,42.0222827 56.8848071,43.112491 56.8848071,44.7902726 C56.8848071,46.4680541 56.0400223,47.5592617 54.2224854,47.5592617 L54.2224854,47.5592617 Z" id="Fill-18" fill="#497DA2" mask="url(#mask-2)"></path>
                        <path d="M59.2300096,42.1714744 L59.2620014,42.5462022 C59.8398542,42.1714744 60.5136825,42.0225825 61.0695409,42.0225825 C61.5294237,42.0225825 62.042293,42.1394976 62.3322192,42.4282879 C62.6521377,42.7380629 62.7811048,43.1977291 62.7811048,43.8072864 L62.7811048,47.408671 L61.2514945,47.408671 L61.2514945,43.9881551 C61.2514945,43.7213488 61.198508,43.5714577 61.0905355,43.4655346 C60.9525707,43.3366282 60.7386252,43.2936594 60.4277044,43.2936594 C60.138778,43.2936594 59.6788952,43.368605 59.4329578,43.4655346 L59.4329578,47.408671 L57.9043473,47.408671 L57.9043473,42.1714744 L59.2300096,42.1714744 Z" id="Fill-19" fill="#497DA2" mask="url(#mask-2)"></path>
                        <path d="M66.8706629,47.0995955 C66.5607418,46.7888212 66.4107801,46.3831158 66.4107801,45.7735585 L66.4107801,42.1711746 L67.9403903,42.1711746 L67.9403903,45.5597138 C67.9403903,45.8275193 67.9933768,45.9774104 68.1003496,46.0833335 C68.2393142,46.2112406 68.432265,46.2542094 68.7531833,46.2542094 C69.0421097,46.2542094 69.4909953,46.1592784 69.7369326,46.0623488 L69.7369326,42.1711746 L71.2655432,42.1711746 L71.2655432,47.1845338 C71.2655432,49.0341906 70.7416766,49.9635157 68.8391614,49.9635157 C68.3252923,49.9635157 67.8974013,49.9105541 67.5025019,49.8256158 L67.3945294,48.6924388 C67.7474395,48.755393 68.0793549,48.8093538 68.593224,48.8093538 C68.9671288,48.8093538 69.3200388,48.7234163 69.4799981,48.5635324 C69.6729489,48.3816644 69.7369326,48.0928742 69.7369326,47.7191456 L69.7369326,47.0786107 C69.2240633,47.3664017 68.6142187,47.5053009 68.0903521,47.5053009 C67.6304693,47.5053009 67.1595893,47.3873865 66.8706629,47.0995955" id="Fill-20" fill="#497DA2" mask="url(#mask-2)"></path>
                        <path d="M76.7783386,46.1910553 L77.4841588,46.1910553 C78.232968,46.1910553 78.7678318,45.9662186 79.0557584,45.5385292 C79.3446848,45.1108398 79.4416601,44.6191968 79.4416601,43.7208492 C79.4416601,42.6736097 79.2807011,42.1819668 78.927791,41.7982454 C78.5958756,41.4445023 78.1040009,41.3165952 77.2922077,41.3165952 L76.7783386,41.3165952 L76.7783386,46.1910553 Z M75.1107635,47.4091707 L75.1107635,40.0974806 L77.3671886,40.0974806 C78.7568346,40.0974806 79.6766002,40.3113253 80.2864449,40.9218819 C80.8742951,41.4984631 81.1732189,42.4068035 81.1732189,43.7208492 C81.1732189,45.0468862 80.8842925,45.9662186 80.2864449,46.5867679 C79.7405839,47.1413652 78.8957992,47.4091707 77.5911316,47.4091707 L75.1107635,47.4091707 Z" id="Fill-21" fill="#497DA2" mask="url(#mask-2)"></path>
                        <path d="M85.4870199,44.2666528 C85.4870199,43.604134 85.1770988,43.1764446 84.5672542,43.1764446 C83.9474121,43.1764446 83.6694829,43.5931419 83.6364913,44.2666528 L85.4870199,44.2666528 Z M83.6364913,45.2609308 C83.6794804,46.1482864 84.2253413,46.3941078 85.2520797,46.3941078 C85.6269842,46.3941078 86.1608482,46.340147 86.5567473,46.2652015 L86.6737175,47.3763945 C86.1718454,47.4733241 85.5620008,47.5592617 84.9101668,47.5592617 C83.9254177,47.5592617 83.1876057,47.3134402 82.7387201,46.8857508 C82.2158533,46.3831158 82.0328999,45.6346594 82.0328999,44.8012646 C82.0328999,42.9625999 82.9736602,42.0222827 84.5782514,42.0222827 C86.149851,42.0222827 86.9846383,42.8446855 86.9846383,44.6623655 L86.9846383,45.1430164 C86.9846383,45.228954 86.9416493,45.2609308 86.8556712,45.2609308 L83.6364913,45.2609308 Z" id="Fill-22" fill="#497DA2" mask="url(#mask-2)"></path>
                        <path d="M91.7246307,42.311073 L91.6066607,43.4332581 C91.0617995,43.2833669 90.4189633,43.1984286 89.9920721,43.1984286 C89.4472109,43.1984286 89.1472873,43.3263357 89.1472873,43.6251187 C89.1472873,44.5124743 92.0125573,43.6680875 92.0125573,45.837512 C92.0125573,46.9277203 91.2217588,47.5592617 89.6501592,47.5592617 C89.0293174,47.5592617 88.2275217,47.4193633 87.8106279,47.2704714 L87.9275981,46.1372943 C88.3244969,46.2652015 89.050312,46.3831158 89.6181673,46.3831158 C90.1950204,46.3831158 90.5589277,46.2761935 90.5589277,45.9024649 C90.5589277,44.9721405 87.7036551,45.8804808 87.7036551,43.710057 C87.7036551,42.7387624 88.4094753,42.0222827 89.9810749,42.0222827 C90.5049414,42.0222827 91.1577751,42.1182131 91.7246307,42.311073" id="Fill-23" fill="#497DA2" mask="url(#mask-2)"></path>
                        <path d="M95.9286596,45.1537086 L95.1168664,45.1537086 C94.7529591,45.1537086 94.5290162,45.1966774 94.3890518,45.3355766 C94.2930763,45.4315069 94.2400898,45.581398 94.2400898,45.7732587 C94.2400898,46.1589786 94.4320409,46.3938081 94.988899,46.3938081 C95.2768256,46.3938081 95.683722,46.3078705 95.9286596,46.2329249 L95.9286596,45.1537086 Z M96.1216104,47.089303 C95.6727248,47.377094 95.1058692,47.5589619 94.5500108,47.5589619 C93.352316,47.5589619 92.7104795,46.8534742 92.7104795,45.8382115 C92.7104795,45.3675533 92.8704387,44.9398639 93.1703623,44.6510737 C93.5442671,44.2993291 94.1211201,44.1704227 95.094872,44.1704227 L95.9286596,44.1704227 L95.9286596,43.9995468 C95.9286596,43.7107565 95.8656756,43.5288886 95.7367085,43.4119735 C95.5547548,43.2510903 95.2658285,43.1981288 94.8489347,43.1981288 C94.35706,43.1981288 93.7472154,43.2610831 93.3843078,43.3370279 L93.3093269,42.2148429 C93.8441907,42.1069213 94.5390136,42.0219829 95.1698529,42.0219829 C95.9716486,42.0219829 96.688466,42.1928589 97.0523733,42.6205483 C97.3193053,42.9303233 97.4582699,43.3799967 97.4582699,44.0095396 L97.4582699,47.4090708 L96.2495778,47.4090708 L96.1216104,47.089303 Z" id="Fill-24" fill="#497DA2" mask="url(#mask-2)"></path>
                        <path d="M100.038013,42.1714744 L100.091999,42.5991638 C100.497895,42.2254352 101.192718,42.0325753 101.69559,42.0325753 C101.781568,42.0325753 101.898539,42.0435673 101.963522,42.0545593 L101.963522,43.390589 C101.792566,43.368605 101.535631,43.3476202 101.289694,43.3476202 C100.883797,43.3476202 100.572876,43.4005818 100.240961,43.4755274 L100.240961,47.408671 L98.7123504,47.408671 L98.7123504,42.1714744 L100.038013,42.1714744 Z" id="Fill-25" fill="#497DA2" mask="url(#mask-2)"></path>
                        <path d="M104.103377,42.1714744 L104.157363,42.5991638 C104.56326,42.2254352 105.258083,42.0325753 105.760955,42.0325753 C105.846933,42.0325753 105.963903,42.0435673 106.028886,42.0545593 L106.028886,43.390589 C105.85793,43.368605 105.600995,43.3476202 105.355058,43.3476202 C104.949161,43.3476202 104.638241,43.4005818 104.306325,43.4755274 L104.306325,47.408671 L102.777715,47.408671 L102.777715,42.1714744 L104.103377,42.1714744 Z" id="Fill-26" fill="#497DA2" mask="url(#mask-2)"></path>
                        <path d="M109.196779,43.1874366 C108.425976,43.1874366 108.127052,43.710057 108.127052,44.7902726 C108.127052,45.8704881 108.425976,46.3941078 109.196779,46.3941078 C109.966583,46.3941078 110.265507,45.8704881 110.265507,44.7902726 C110.265507,43.710057 109.966583,43.1874366 109.196779,43.1874366 M109.196779,47.5592617 C107.379242,47.5592617 106.533458,46.4680541 106.533458,44.7902726 C106.533458,43.112491 107.379242,42.0222827 109.196779,42.0222827 C111.014316,42.0222827 111.859101,43.112491 111.859101,44.7902726 C111.859101,46.4680541 111.014316,47.5592617 109.196779,47.5592617" id="Fill-27" fill="#497DA2" mask="url(#mask-2)"></path>
                        <polygon id="Fill-28" fill="#497DA2" mask="url(#mask-2)" points="112.910233 47.4085711 114.438844 47.4085711 114.438844 39.7671205 112.910233 39.7671205"></polygon>
                        <polygon id="Fill-29" fill="#497DA2" mask="url(#mask-2)" points="115.7885 47.4085711 117.31711 47.4085711 117.31711 39.7671205 115.7885 39.7671205"></polygon>
                        <path d="M121.029664,43.1874366 C120.258861,43.1874366 119.959937,43.710057 119.959937,44.7902726 C119.959937,45.8704881 120.258861,46.3941078 121.029664,46.3941078 C121.799468,46.3941078 122.098392,45.8704881 122.098392,44.7902726 C122.098392,43.710057 121.799468,43.1874366 121.029664,43.1874366 M121.029664,47.5592617 C119.212127,47.5592617 118.366343,46.4680541 118.366343,44.7902726 C118.366343,43.112491 119.212127,42.0222827 121.029664,42.0222827 C122.847201,42.0222827 123.691986,43.112491 123.691986,44.7902726 C123.691986,46.4680541 122.847201,47.5592617 121.029664,47.5592617" id="Fill-30" fill="#497DA2" mask="url(#mask-2)"></path>
                        <path d="M129.216079,45.7421813 C129.536997,46.1049179 129.99688,46.2648017 130.81967,46.2648017 C131.17258,46.2648017 131.739436,46.2018475 132.167327,46.1159099 L132.338283,47.3350245 C131.900395,47.4629316 131.098599,47.558862 130.498752,47.558862 C129.205082,47.558862 128.393288,47.2490869 127.847427,46.6715064 C127.227585,46.0089875 126.959654,45.0576784 126.959654,43.7856022 C126.959654,41.4982633 127.996389,39.9593808 130.498752,39.9593808 C131.130591,39.9593808 131.943384,40.09828 132.413264,40.2901406 L132.199319,41.5092553 C131.632463,41.3493714 131.087602,41.2524418 130.627719,41.2524418 C129.056119,41.2524418 128.692212,42.2896885 128.692212,43.7426334 C128.692212,44.6090042 128.853171,45.3354766 129.216079,45.7421813" id="Fill-31" fill="#497DA2" mask="url(#mask-2)"></path>
                        <path d="M134.950018,39.7670205 L134.950018,42.4500721 C135.484882,42.1502898 136.084729,42.0223827 136.586601,42.0223827 C137.046484,42.0223827 137.559353,42.1392978 137.848279,42.428088 C138.169198,42.7388623 138.298165,43.1985285 138.298165,43.8070866 L138.298165,47.4084712 L136.768555,47.4084712 L136.768555,43.9889545 C136.768555,43.721149 136.715568,43.5722571 136.607596,43.4653348 C136.469631,43.3364284 136.255685,43.2934596 135.944764,43.2934596 C135.655838,43.2934596 135.195955,43.3684052 134.950018,43.4653348 L134.950018,47.4084712 L133.421407,47.4084712 L133.421407,39.7670205 L134.950018,39.7670205 Z" id="Fill-32" fill="#497DA2" mask="url(#mask-2)"></path>
                        <path d="M139.584437,47.4085711 L141.113048,47.4085711 L141.113048,42.1713745 L139.584437,42.1713745 L139.584437,47.4085711 Z M141.189028,40.5685385 C141.189028,41.0921582 140.910099,41.2950109 140.387233,41.2950109 L140.312252,41.2950109 C139.787385,41.2950109 139.509456,41.0921582 139.509456,40.5685385 L139.509456,40.4296393 C139.509456,39.9060196 139.787385,39.6921749 140.312252,39.6921749 L140.387233,39.6921749 C140.910099,39.6921749 141.189028,39.9060196 141.189028,40.4296393 L141.189028,40.5685385 Z" id="Fill-33" fill="#497DA2" mask="url(#mask-2)"></path>
                        <polygon id="Fill-34" fill="#497DA2" mask="url(#mask-2)" points="142.462704 47.4085711 143.991314 47.4085711 143.991314 39.7671205 142.462704 39.7671205"></polygon>
                        <path d="M148.495367,44.2666528 C148.495367,43.604134 148.185446,43.1764446 147.575601,43.1764446 C146.955759,43.1764446 146.67783,43.5931419 146.644838,44.2666528 L148.495367,44.2666528 Z M146.644838,45.2609308 C146.687827,46.1482864 147.233688,46.3941078 148.260427,46.3941078 C148.635331,46.3941078 149.169195,46.340147 149.565094,46.2652015 L149.682064,47.3763945 C149.180192,47.4733241 148.570348,47.5592617 147.918514,47.5592617 C146.933765,47.5592617 146.195953,47.3134402 145.747067,46.8857508 C145.2242,46.3831158 145.041247,45.6346594 145.041247,44.8012646 C145.041247,42.9625999 145.982007,42.0222827 147.586598,42.0222827 C149.158198,42.0222827 149.992985,42.8446855 149.992985,44.6623655 L149.992985,45.1430164 C149.992985,45.228954 149.949996,45.2609308 149.864018,45.2609308 L146.644838,45.2609308 Z" id="Fill-35" fill="#497DA2" mask="url(#mask-2)"></path>
                        <path d="M44.4637717,9.48251364 C44.9566461,9.48251364 45.1226038,9.81826981 45.1226038,10.2449599 C45.1226038,12.2674911 42.6262398,14.849616 39.4460501,16.7382444 C40.242847,13.607518 42.4962729,9.45453396 44.4637717,9.48251364 M47.4090213,16.3884984 C45.4275261,19.2554164 42.6622306,21.858526 40.2858361,21.858526 C39.2760934,21.891502 38.8292072,21.3119229 38.8462029,20.1487676 C38.8462029,19.454272 39.0121606,18.4719853 39.1511252,17.9783438 C41.3955534,16.8441675 43.6809711,15.5730906 45.7214512,13.4676196 C46.8561621,12.2495042 47.6169683,11.0253932 47.6529591,9.75831335 C47.672954,8.56817765 46.9231451,7.95862032 45.4425223,7.93963411 C43.2890709,7.91365298 40.7037296,9.38258621 39.0271568,11.1712872 C36.8237182,13.5735427 35.1261507,16.9720746 35.0821619,19.9918816 C35.0571682,22.1303286 36.0739092,23.8340913 38.8292072,23.731166 C41.7774561,23.6532226 44.6787169,21.3768758 46.1673376,19.7320702 C45.9913825,20.4365586 45.871413,21.0990775 45.871413,21.6416835 C45.871413,23.545301 46.8171721,24.8913235 48.6836965,25.4659062 L49.0576012,25.290034 C48.889644,24.7784055 48.846655,24.2357996 48.889644,23.6392328 C49.0196109,21.7875775 49.749425,19.7040906 50.8341486,16.9610826 C52.8916244,11.778846 55.8888608,5.8471537 57.2065251,2.34869434 L54.0643256,2.9452611 C53.5764499,3.05018491 53.2665289,3.4199164 53.1035704,3.77266023 C51.5879566,6.99831771 50.0303534,10.4328235 48.0888481,14.9055753 C47.8609061,15.3842277 47.6529591,15.8888612 47.4090213,16.3884984" id="Fill-36" fill="#497DA2" mask="url(#mask-2)"></path>
                        <path d="M125.883228,9.97895312 C126.827987,9.53327678 127.616786,9.50729565 128.279617,9.64319695 C128.028681,10.1658174 126.889971,12.4571534 126.005197,14.5206549 C124.604554,17.7553058 122.497091,21.0219335 120.546587,21.4855968 C119.874759,21.6804553 119.47886,21.3906657 119.488857,20.721152 C119.545842,17.8572318 122.703038,11.4698704 125.883228,9.97895312 M98.1852846,21.5275663 C98.1852846,22.9625242 99.0950529,23.8438842 100.827611,23.7949197 C102.625153,23.7609444 104.456687,22.6937194 105.969301,21.2357782 C106.261227,22.779657 107.371944,23.8998435 109.642366,23.8189023 C112.005763,23.7309662 114.270187,22.2530395 115.842786,20.5362862 L115.842786,21.030927 C115.842786,22.6187739 116.660578,23.8079103 118.478114,23.8079103 C120.431617,23.8079103 122.683043,22.33498 124.457591,19.8088145 L124.517576,19.8377935 C124.353618,20.4373581 124.162666,21.4556186 124.135673,22.1301287 C124.10668,24.0417405 125.237392,25.1419415 126.81599,25.4577122 L127.198893,25.3028247 C126.62004,23.9168312 127.424835,20.4753305 127.75875,19.3281636 C128.931451,15.5549038 130.794976,11.2440344 131.872702,9.00765849 C131.382827,8.58696401 130.23312,8.3031701 129.004433,8.24920929 C124.940468,8.09831887 120.84951,9.77709971 117.86627,15.0532681 C117.354401,15.9726004 116.793544,17.0328305 116.379649,18.1480206 C115.953758,18.7126106 115.51087,19.2162448 115.322918,19.3981128 C114.246193,20.4373581 112.712583,21.7693907 111.153981,21.7873776 C110.268206,21.8053646 109.779331,21.1848152 109.800325,20.0796179 C109.817321,15.8556853 113.545371,9.44134354 116.077726,9.42235733 C116.771549,9.42235733 117.069473,9.72713599 117.069473,10.3197057 C117.069473,11.020197 116.590595,11.989493 115.90577,12.6110417 L116.202694,12.8808457 C117.902261,12.2293189 119.47886,11.0461781 119.488857,9.78709245 C119.488857,8.35513237 117.834279,8.08832612 116.365653,8.09831887 C114.389156,8.12729782 111.928783,9.09259681 109.956286,11.2460329 C107.481916,13.9480707 106.204242,17.187718 105.952306,19.4980402 C104.824593,20.8190808 103.556916,21.7124321 102.71713,21.7254226 C102.242251,21.7434096 101.900338,21.4855968 101.895339,20.9859597 C101.895339,20.5472782 102.147275,19.6509292 102.585164,18.4847761 C103.675886,15.7637521 105.259482,12.3732144 107.202987,8.34114253 C107.202987,8.34114253 104.242741,8.83778186 103.820849,8.96269115 C103.368964,9.07460987 103.023052,9.37039507 102.829102,9.77709971 C101.562424,12.4571534 100.058807,15.5549038 99.1230457,17.8682238 C98.5421937,19.3241665 98.1852846,20.7021657 98.1852846,21.5275663" id="Fill-37" fill="#497DA2" mask="url(#mask-2)"></path>
                        <path d="M62.019099,9.48251364 C62.5079744,9.48251364 62.7079235,9.81826981 62.7079235,10.2449599 C62.6859291,12.2674911 60.20956,14.849616 57.0023771,16.7382444 C57.811171,13.607518 60.0575987,9.45453396 62.019099,9.48251364 M56.5924815,11.1712872 C54.3860437,13.5735427 52.681478,16.9720746 52.6454871,19.9918816 C52.6244925,22.0863605 53.729211,23.8340913 56.5504922,23.731166 C59.5787207,23.6532226 62.337018,21.9004955 64.719411,19.3983126 C64.1195638,21.0041464 63.6056947,22.3821457 63.2957737,23.1286036 C62.4109991,25.3369999 61.7601649,27.1257009 60.4015111,28.1609491 L60.5504731,28.4277553 C64.5414563,28.6615855 66.0350758,25.8566225 67.6766575,21.2889396 C69.3172396,16.7092655 70.7078853,12.7301552 71.7886099,9.97115878 C73.5381642,9.97115878 76.0105343,10.0321145 77.3961812,9.7213402 C73.778103,11.3261747 70.7078853,17.0909882 71.0707928,20.8912284 C71.2317518,22.5730071 72.2374955,23.731166 74.3789499,23.731166 C78.5288926,23.731166 82.0220027,18.8237299 83.3516639,15.5860811 C84.1154693,13.7304287 84.6223402,12.1455797 84.70132,10.554735 C85.6930674,10.3828598 86.6338277,10.2119839 87.1087067,10.1420347 C88.0134762,10.0151269 87.8395205,11.0203968 87.5525936,11.778846 C85.8580253,16.5134077 82.9177745,23.3934113 82.9047778,23.4973358 L86.1489512,23.4973358 C87.5525936,20.5754578 88.422372,18.7078141 89.5400872,16.7202575 C90.8927426,14.3819556 93.9059749,10.5287538 95.106669,10.5177618 C95.5315607,10.5177618 95.6425325,10.7895644 95.5375592,11.2002662 C95.3276127,12.7891123 91.444602,18.8597038 91.5085857,21.858526 C91.546576,23.8181029 92.5793129,25.0032422 94.3818537,25.4509171 L94.7577579,25.2380717 C94.529816,24.8123808 94.4998236,24.2787684 94.4948249,23.6532226 C94.4618333,21.6526755 96.0914181,18.1472212 96.7182584,16.7872089 C97.7210029,14.6557567 99.506548,11.5370216 99.3915773,9.8302611 C99.3305928,8.99087068 98.7077515,8.24940914 97.2721173,8.23741785 C94.63179,8.22242874 92.0014601,10.7895644 89.7930228,14.2290666 L89.7350376,14.2170753 C90.6208119,12.2135303 91.3096364,10.3598765 91.287642,9.45453396 C91.2696466,8.62713483 90.7987666,8.30336996 89.8060195,8.30336996 C89.1151955,8.32135689 88.163438,8.58716386 87.2286761,8.83798171 C85.9230088,9.17473716 84.548359,9.53347663 83.0367441,9.84724877 C82.1139792,9.97115878 81.7900618,10.1420347 81.8180546,10.4757923 C82.0060067,15.7329745 78.4279184,21.9134861 76.0425261,21.9334716 C75.0177872,21.9334716 74.786846,21.1850151 74.786846,20.1487676 C74.7748491,16.5134077 77.766087,10.4098402 80.6853432,9.44254267 C80.937279,9.37059492 81.1892148,9.31463556 81.3581718,9.26167402 L81.7270778,8.2823852 C81.1072357,8.41129158 79.6356107,8.43327562 78.8588086,8.4532611 L72.4454426,8.4532611 C74.1390111,4.41919071 76.5154056,1.80309057 79.9985182,1.64920232 C82.1569683,1.57825385 83.6155967,2.39266241 83.7435641,3.62976401 C83.8315416,4.6839984 83.5416155,5.54037649 82.6968307,6.41174369 L82.9357699,6.65057025 C84.8442836,5.75122337 86.1559494,4.21833657 86.1649471,3.17709274 C86.196939,1.55926763 84.242437,0.560992598 81.1292301,0.59396865 C77.169239,0.619949782 72.2954808,1.51230174 68.8903483,8.56817765 C67.8706081,8.72706226 66.9468435,9.1107836 66.1780394,9.93418563 L66.3160042,10.2449599 C66.8718626,10.0491022 67.5306947,10.0151269 68.2685067,10.0151269 C67.7936277,11.1712872 66.8488684,13.6844621 65.9031094,16.2645884 C63.0378394,20.0538366 60.1515748,21.858526 58.0421122,21.858526 C56.8884061,21.891502 56.4265238,21.2579621 56.4145269,20.1487676 C56.4015302,19.454272 56.5744861,18.4849759 56.7144505,17.9783438 C58.9668766,16.8441675 61.2352987,15.5730906 63.2897752,13.4676196 C64.4114894,12.2495042 65.1922905,11.0253932 65.2242823,9.75831335 C65.2392785,8.56817765 64.5084647,7.95862032 63.0018486,7.93963411 C60.8593944,7.91365298 58.2770523,9.38258621 56.5924815,11.1712872" id="Fill-38" fill="#497DA2" mask="url(#mask-2)"></path>
                        <path d="M107.255774,5.87633251 C108.153545,5.86534049 109.061314,5.0249508 109.256264,4.03566923 C109.479207,3.01141306 108.888358,2.22298563 107.97659,2.24596894 C107.082818,2.24996604 106.183047,3.07336807 105.969102,4.09262787 C105.776151,5.09390073 106.336008,5.89731727 107.255774,5.87633251" id="Fill-39" fill="#497DA2" mask="url(#mask-2)"></path>
                        <path d="M74.7745492,34.7469662 C41.9369154,34.7469662 8.56841696,35.1456766 8.56841696,35.6323232 C8.56841696,36.1109756 41.9369154,36.5306708 74.7745492,36.5306708 C107.619181,36.5306708 140.981681,36.1109756 140.981681,35.6323232 C140.981681,35.1456766 107.619181,34.7469662 74.7745492,34.7469662" id="Fill-40" fill="#497DA2" mask="url(#mask-2)"></path>
                        <path d="M21.7334628,11.3535549 L21.9444091,11.175684 C21.6474847,10.691036 21.5355132,9.82966154 21.5555082,9.31503527 C21.6634806,5.04013977 26.1813296,2.61590029 33.2385316,2.61590029 L37.1415372,2.61590029 C34.8711156,3.93893948 32.9705998,5.68966807 31.5089722,8.99027112 C30.8831317,10.4102399 27.8928935,18.0526898 26.6732043,21.4851971 C25.1565907,25.5702305 24.185838,27.4248836 22.9831444,28.1053894 L23.189092,28.4731224 C26.5702305,28.6849685 28.585717,26.9542254 29.8873854,23.761544 C31.12507,20.7477327 32.7656521,15.9412232 33.5644485,13.805774 C36.1657858,6.93476386 37.3024962,4.04286401 39.3789671,2.61590029 C42.264232,2.59891263 45.0515219,2.59891263 45.0515219,2.59891263 C48.1577305,2.51497358 49.4773943,1.74553237 50.452146,0.545403919 L50.2292028,0.266606386 C49.4544002,0.687300871 47.7678299,0.771239913 46.3421931,0.774237736 L32.3237646,0.774237736 C24.4357743,0.774237736 19.5930082,3.36435675 18.8122071,7.21955704 C18.4233062,9.08620145 19.4610418,11.1047356 21.7334628,11.3535549" id="Fill-41" fill="#497DA2" mask="url(#mask-2)"></path>
                    </g>
                </g>
            </g>
        </g>
    </g>
</svg>