<svg width="208" height="113" xmlns="http://www.w3.org/2000/svg" xmlns:xlink="http://www.w3.org/1999/xlink"><title>Page 1</title><defs><path id="a" d="M14.796 24.375V.385H.066v23.99z"/><path id="c" d="M0 .407v26.285h16.845V.407H0z"/></defs><g fill="none" fill-rule="evenodd"><path d="M58.917 68.39c0-4.623-10.521-3.666-10.521-10.713 0-3.507 2.965-6.185 7.173-6.185 2.87 0 4.974 1.084 6.058 2.104L59.65 56.05c-.956-.83-2.295-1.69-4.304-1.69-2.327 0-3.698 1.308-3.698 3.093 0 4.687 10.553 3.762 10.553 10.745 0 3.347-2.71 6.28-7.748 6.28-3.666 0-6.09-1.402-7.237-2.454l1.88-2.646c1.18.988 2.998 2.263 5.708 2.263s4.113-1.435 4.113-3.252m9.438-13.805H62.49V51.81h14.92v2.774h-5.835V74.16h-3.22zm13.488 10.681h6.79l-1.912-6.217c-.606-2.073-1.02-3.444-1.436-5.006h-.126c-.384 1.5-.83 2.997-1.372 4.91l-1.945 6.313zm5.802-13.455l7.142 22.35h-3.412l-1.88-6.12H80.98l-1.912 6.12h-3.285l7.078-22.35h4.784zm12.818 10.681h2.583c2.933 0 4.559-1.212 4.559-4.017 0-2.806-1.658-3.89-4.687-3.89h-2.455v7.907zm2.901-10.68c4.719 0 7.525 1.848 7.525 6.376 0 3.73-2.296 5.771-4.942 6.121v.128c.956.446 1.754 1.212 2.774 2.997l3.922 6.727h-3.858l-3.954-7.173c-.701-1.276-1.594-1.818-3.061-1.818h-1.307v8.991h-3.188V51.81h6.089zm22.064 16.579c0-4.623-10.52-3.666-10.52-10.713 0-3.507 2.964-6.185 7.172-6.185 2.87 0 4.974 1.084 6.058 2.104l-1.976 2.455c-.957-.83-2.296-1.69-4.305-1.69-2.327 0-3.698 1.308-3.698 3.093 0 4.687 10.553 3.762 10.553 10.745 0 3.347-2.71 6.28-7.748 6.28-3.666 0-6.089-1.402-7.237-2.454l1.881-2.646c1.18.988 2.997 2.263 5.707 2.263s4.113-1.435 4.113-3.252" fill="#F5F5F5"/><path d="M59.187 78.801c4.398 0 6.492 1.815 7.19 2.513l-2.827 3.211c-.873-.908-2.129-1.99-4.712-1.99-3.665 0-5.689 2.723-5.689 8.725 0 5.654 2.024 8.865 6.073 8.865 2.373 0 3.734-.977 4.537-1.85l2.408 3.107c-1.082 1.186-3.42 2.547-7.364 2.547-7.224 0-10.12-4.956-10.12-12.355 0-7.817 3.594-12.773 10.504-12.773M77.58 100.23c3.247 0 5.27-2.13 5.27-8.76 0-6.701-2.128-9.004-5.513-9.004-3.142 0-5.27 2.059-5.27 8.725 0 6.736 2.128 9.039 5.514 9.039m-.28 3.7c-6.002 0-9.702-3.351-9.702-12.425 0-8.97 4.084-12.74 10.017-12.74 5.968 0 9.772 3.387 9.772 12.46 0 8.935-4.153 12.705-10.086 12.705m17.626-19.405c.174 2.303.244 4.188.244 7.748v11.308h-4.153V79.115h5.445l6.212 11.867c1.117 2.129 2.303 4.537 3.21 6.735h.175c-.174-2.966-.174-5.933-.174-8.306V79.115h4.118v24.466h-5.34l-6.491-12.32c-1.117-2.164-2.094-4.363-3.072-6.736h-.174zm19.894 19.055V79.115h13.89v3.664h-9.527v7.47h8.271v3.663h-8.27v9.668zM59.965.36L46.043 43.157.856 43.12 37.44 69.532l-13.99 42.762 11.492-8.316 10.496-32.194-33.874-24.557 41.834.032 10.886-33.656zM138.058 106V52h-2.52v54z" fill="#FD0"/><path d="M148.337 72.979l3.835-.11h6.487v3.1h-13.942l-.573-3.1c1.755-1.677 7.49-8.166 8.243-9.26 1.54-1.896 2.222-3.463 2.222-5.286 0-2.26-1.326-3.464-3.298-3.464-2.114 0-3.01 1.605-3.26 3.354l-3.585-.729c.538-3.135 2.796-5.723 7.06-5.723 4.23 0 6.739 2.406 6.739 6.16 0 2.662-1.076 5.105-3.226 7.73-.43.51-2.76 3.208-3.333 3.791-.43.401-2.832 2.99-3.37 3.39v.147zm21.037.218c3.405 0 4.445-2.88 4.445-9.077 0-6.198-1.327-9.334-4.588-9.334-3.369 0-4.408 2.917-4.408 9.115 0 6.234 1.29 9.296 4.551 9.296m-8.1-9.077c0-8.459 2.725-12.469 8.208-12.469 5.52 0 7.885 3.938 7.885 12.25 0 8.422-2.76 12.395-8.208 12.395-5.59 0-7.884-3.9-7.884-12.176m28.241-12.14v23.988h-3.512v-13.78l.143-6.563h-.143l-2.76 2.188-2.473 1.75-1.97-2.844 7.06-4.74z" fill="#939598"/><g transform="translate(192.64 51.593)"><mask id="b" fill="#fff"><use xlink:href="#a"/></mask><path d="M3.937 24.375v-.985c0-4.046 1.218-7.984 3.046-11.848l1.9-3.901 2.15-3.938v-.146s-1.756.11-4.122.11H.066V.386h14.049l.681 3.5-4.444 8.604c-1.828 3.609-2.903 7.036-2.903 10.937v.948H3.937z" fill="#939598" mask="url(#b)"/></g><g transform="translate(144 78.286)"><mask id="d" fill="#fff"><use xlink:href="#c"/></mask><path d="M13.153 19.73c0-5.287-11.826-4.193-11.826-12.25C1.327 3.47 4.66.406 9.39.406c3.226 0 5.591 1.24 6.81 2.406L13.977 5.62c-1.075-.948-2.58-1.932-4.837-1.932-2.617 0-4.158 1.495-4.158 3.536 0 5.36 11.863 4.302 11.863 12.286 0 3.828-3.046 7.182-8.71 7.182-4.12 0-6.844-1.604-8.135-2.807l2.115-3.026c1.326 1.13 3.369 2.589 6.415 2.589s4.623-1.641 4.623-3.719" fill="#F1F2F2" mask="url(#d)"/></g><path d="M174.213 78.692c4.157 0 6.236 1.64 7.025 2.37l-2.33 2.77c-.968-.947-2.365-1.895-4.982-1.895-4.122 0-6.523 3.062-6.523 9.843 0 6.416 2.33 9.916 6.846 9.916 2.473 0 3.906-.838 4.767-1.713l2.007 2.588c-1.075 1.167-3.406 2.406-7.204 2.406-7.133 0-10.107-5.14-10.107-12.942 0-8.275 3.62-13.343 10.501-13.343m14.121.365v22.385h10.358v3.171H184.75V79.057z" fill="#F1F2F2"/></g></svg>