<svg id="Layer_1" data-name="Layer 1" xmlns="http://www.w3.org/2000/svg" viewBox="0 0 1165.23 365.59"><defs><style>.cls-1,.cls-4{fill:#fff200}.cls-1,.cls-2{fill-rule:evenodd}.cls-2,.cls-3{fill:#fff}</style></defs><title>Artboard 1</title><path class="cls-1" d="M216.62 54.51l-28.16 86.58-91.43-.07 74.02 53.44-28.31 86.52L166 264.15l21.23-65.14-68.54-49.68 84.65.06 22.02-68.09-8.74-26.79z"/><path class="cls-2" d="M224.56 233.17l66.01 47.81-2.89-8.96-58.28-42.38-4.84 3.53z"/><path class="cls-3" d="M266.71 190.66c0-16.52-37.61-13.11-37.61-38.29 0-12.54 10.6-22.11 25.64-22.11 10.26 0 17.78 3.88 21.65 7.52l-7.07 8.78a22.57 22.57 0 0 0-15.39-6c-8.32 0-13.22 4.67-13.22 11.05 0 16.75 37.72 13.45 37.72 38.41 0 12-9.69 22.45-27.69 22.45-13.11 0-21.77-5-25.87-8.78l6.72-9.46c4.22 3.53 10.71 8.09 20.4 8.09s14.72-5.16 14.72-11.66zm33.73-49.35h-21v-9.91h53.34v9.92H312v70h-11.56zm68.96-9.91l25.53 79.89h-12.2L376 189.41h-30.42l-6.84 21.88H327l25.3-79.89zm-20.74 48.09h24.28l-6.84-22.22c-2.17-7.41-3.65-12.31-5.13-17.89h-.46c-1.37 5.36-3 10.71-4.9 17.55zm76.93-48.09c16.87 0 26.9 6.61 26.9 22.79 0 13.33-8.21 20.63-17.67 21.88v.46c3.42 1.6 6.27 4.33 9.92 10.71l14 24H445l-14.13-25.64c-2.51-4.56-5.7-6.5-10.94-6.5h-4.67v32.14h-11.4V131.4zm-10.37 38.18h9.23c10.49 0 16.3-4.33 16.3-14.36s-5.93-13.9-16.75-13.9h-8.78zm89.23 21.08c0-16.52-37.61-13.11-37.61-38.29 0-12.54 10.6-22.11 25.64-22.11 10.26 0 17.78 3.88 21.65 7.52l-7.07 8.78a22.57 22.57 0 0 0-15.39-6c-8.32 0-13.22 4.67-13.22 11.05 0 16.75 37.72 13.45 37.72 38.41 0 12-9.69 22.45-27.69 22.45-13.11 0-21.77-5-25.87-8.78l6.72-9.46c4.22 3.53 10.71 8.09 20.4 8.09s14.72-5.16 14.72-11.66z"/><path class="cls-4" d="M559 130.37c14.36 0 21.2 5.93 23.48 8.21l-9.23 10.48c-2.85-3-7-6.5-15.39-6.5-12 0-18.58 8.89-18.58 28.49 0 18.46 6.61 28.95 19.83 28.95 7.75 0 12.19-3.19 14.82-6l7.86 10.14c-3.53 3.88-11.17 8.32-24 8.32-23.59 0-33-16.18-33-40.34-.05-25.57 11.69-41.75 34.21-41.75zm59.2 82.06c-19.6 0-31.68-10.94-31.68-40.57 0-29.29 13.33-41.6 32.71-41.6s31.91 11.06 31.91 40.69c0 29.17-13.56 41.48-32.94 41.48zm.91-12.08c10.6 0 17.21-7 17.21-28.61 0-21.88-7-29.4-18-29.4-10.26 0-17.21 6.72-17.21 28.49 0 21.99 6.95 29.52 18 29.52zm56.65-51.29c.57 7.52.8 13.68.8 25.3v36.93H663V131.4h17.78l20.29 38.75c3.65 7 7.52 14.82 10.48 22h.57c-.57-9.69-.57-19.37-.57-27.12V131.4H725v79.89h-17.44l-21.2-40.23c-3.65-7.07-6.84-14.25-10-22zm64.96 62.23V131.4h45.36v12H755v24.39h27v12h-27v31.57z"/></svg>