<?xml version="1.0" encoding="UTF-8" standalone="no"?>
<svg width="160px" height="150px" viewBox="0 0 160 150" version="1.1" xmlns="http://www.w3.org/2000/svg" xmlns:xlink="http://www.w3.org/1999/xlink">
    <!-- Generator: Sketch 41.2 (35397) - http://www.bohemiancoding.com/sketch -->
    <title>Page 1</title>
    <desc>Created with Sketch.</desc>
    <defs></defs>
    <g id="Page-1" stroke="none" stroke-width="1" fill="none" fill-rule="evenodd">
        <g id="Artboard" transform="translate(-92.000000, -83.000000)">
            <g id="Page-1" transform="translate(92.000000, 83.000000)">
                <polygon id="Fill-1" fill="#1D1C1B" points="0 149.372 159.592 149.372 159.592 0 0 0"></polygon>
                <g id="Group-22" transform="translate(11.000000, 12.372000)">
                    <path d="M58.9167,69.0178 C58.9167,64.3948 48.3957,65.3518 48.3957,58.3048 C48.3957,54.7978 51.3607,52.1198 55.5687,52.1198 C58.4387,52.1198 60.5427,53.2038 61.6267,54.2238 L59.6497,56.6788 C58.6937,55.8498 57.3547,54.9888 55.3457,54.9888 C53.0187,54.9888 51.6477,56.2968 51.6477,58.0818 C51.6477,62.7688 62.2007,61.8438 62.2007,68.8268 C62.2007,72.1738 59.4907,75.1078 54.4527,75.1078 C50.7867,75.1078 48.3637,73.7048 47.2157,72.6528 L49.0967,70.0068 C50.2767,70.9948 52.0937,72.2698 54.8037,72.2698 C57.5137,72.2698 58.9167,70.8348 58.9167,69.0178" id="Fill-2" fill="#F5F5F5"></path>
                    <polygon id="Fill-4" fill="#F5F5F5" points="68.3551 55.2125 62.4891 55.2125 62.4891 52.4385 77.4101 52.4385 77.4101 55.2125 71.5751 55.2125 71.5751 74.7885 68.3551 74.7885"></polygon>
                    <path d="M81.8425,65.8934 L88.6335,65.8934 L86.7205,59.6764 C86.1145,57.6034 85.7005,56.2324 85.2855,54.6704 L85.1585,54.6704 C84.7755,56.1694 84.3295,57.6674 83.7875,59.5804 L81.8425,65.8934 Z M87.6455,52.4384 L94.7865,74.7884 L91.3755,74.7884 L89.4945,68.6674 L80.9815,68.6674 L79.0685,74.7884 L75.7845,74.7884 L82.8625,52.4384 L87.6455,52.4384 Z" id="Fill-6" fill="#F5F5F5"></path>
                    <path d="M100.463,63.1194 L103.046,63.1194 C105.979,63.1194 107.605,61.9074 107.605,59.1024 C107.605,56.2964 105.947,55.2124 102.918,55.2124 L100.463,55.2124 L100.463,63.1194 Z M103.364,52.4384 C108.083,52.4384 110.889,54.2874 110.889,58.8154 C110.889,62.5454 108.593,64.5864 105.947,64.9364 L105.947,65.0644 C106.903,65.5104 107.701,66.2764 108.721,68.0614 L112.643,74.7884 L108.785,74.7884 L104.831,67.6154 C104.13,66.3394 103.237,65.7974 101.77,65.7974 L100.463,65.7974 L100.463,74.7884 L97.275,74.7884 L97.275,52.4384 L103.364,52.4384 Z" id="Fill-8" fill="#F5F5F5"></path>
                    <path d="M125.4283,69.0178 C125.4283,64.3948 114.9073,65.3518 114.9073,58.3048 C114.9073,54.7978 117.8723,52.1198 122.0803,52.1198 C124.9503,52.1198 127.0543,53.2038 128.1383,54.2238 L126.1623,56.6788 C125.2053,55.8498 123.8663,54.9888 121.8573,54.9888 C119.5303,54.9888 118.1593,56.2968 118.1593,58.0818 C118.1593,62.7688 128.7123,61.8438 128.7123,68.8268 C128.7123,72.1738 126.0023,75.1078 120.9643,75.1078 C117.2983,75.1078 114.8753,73.7048 113.7273,72.6528 L115.6083,70.0068 C116.7883,70.9948 118.6053,72.2698 121.3153,72.2698 C124.0253,72.2698 125.4283,70.8348 125.4283,69.0178" id="Fill-10" fill="#F5F5F5"></path>
                    <path d="M59.1873,79.429 C63.5853,79.429 65.6793,81.244 66.3773,81.942 L63.5503,85.153 C62.6773,84.245 61.4213,83.163 58.8383,83.163 C55.1733,83.163 53.1493,85.886 53.1493,91.888 C53.1493,97.542 55.1733,100.753 59.2223,100.753 C61.5953,100.753 62.9563,99.776 63.7593,98.903 L66.1673,102.01 C65.0853,103.196 62.7473,104.557 58.8033,104.557 C51.5793,104.557 48.6823,99.601 48.6823,92.202 C48.6823,84.385 52.2773,79.429 59.1873,79.429" id="Fill-12" fill="#FFDD00"></path>
                    <path d="M77.5809,100.8577 C80.8269,100.8577 82.8509,98.7287 82.8509,92.0977 C82.8509,85.3967 80.7219,83.0937 77.3369,83.0937 C74.1949,83.0937 72.0669,85.1527 72.0669,91.8187 C72.0669,98.5547 74.1949,100.8577 77.5809,100.8577 M77.3019,104.5577 C71.2989,104.5577 67.5989,101.2067 67.5989,92.1327 C67.5989,83.1637 71.6829,79.3937 77.6159,79.3937 C83.5839,79.3937 87.3879,82.7797 87.3879,91.8537 C87.3879,100.7877 83.2349,104.5577 77.3019,104.5577" id="Fill-14" fill="#FFDD00"></path>
                    <path d="M94.9278,85.1526 C95.1018,87.4556 95.1718,89.3406 95.1718,92.9006 L95.1718,104.2086 L91.0188,104.2086 L91.0188,79.7426 L96.4638,79.7426 L102.6758,91.6096 C103.7928,93.7386 104.9788,96.1466 105.8868,98.3446 L106.0608,98.3446 C105.8868,95.3786 105.8868,92.4116 105.8868,90.0386 L105.8868,79.7426 L110.0048,79.7426 L110.0048,104.2086 L104.6648,104.2086 L98.1738,91.8886 C97.0568,89.7246 96.0798,87.5256 95.1018,85.1526 L94.9278,85.1526 Z" id="Fill-16" fill="#FFDD00"></path>
                    <polygon id="Fill-18" fill="#FFDD00" points="114.8221 104.2083 114.8221 79.7433 128.7121 79.7433 128.7121 83.4073 119.1851 83.4073 119.1851 90.8763 127.4561 90.8763 127.4561 94.5403 119.1851 94.5403 119.1851 104.2083"></polygon>
                    <polygon id="Fill-20" fill="#FFDD00" points="59.9653 0.9877 46.0433 43.7847 0.8563 43.7477 37.4403 70.1597 23.4493 112.9217 34.9423 104.6057 45.4383 72.4117 11.5643 47.8547 53.3983 47.8867 64.2843 14.2307"></polygon>
                </g>
            </g>
        </g>
    </g>
</svg>