<svg width="160" height="150" xmlns="http://www.w3.org/2000/svg"><title>Page 1</title><g fill="none" fill-rule="evenodd"><path fill="#1D1C1B" d="M0 149.372h159.592V0H0z"/><path d="M69.917 81.39c0-4.623-10.521-3.666-10.521-10.713 0-3.507 2.965-6.185 7.173-6.185 2.87 0 4.974 1.084 6.058 2.104L70.65 69.05c-.956-.83-2.295-1.69-4.304-1.69-2.327 0-3.698 1.308-3.698 3.093 0 4.687 10.553 3.762 10.553 10.745 0 3.347-2.71 6.28-7.748 6.28-3.666 0-6.09-1.402-7.237-2.454l1.88-2.646c1.18.988 2.998 2.263 5.708 2.263s4.113-1.435 4.113-3.252m9.438-13.805H73.49V64.81h14.92v2.774h-5.835V87.16h-3.22zm13.488 10.681h6.79l-1.912-6.217c-.606-2.073-1.02-3.444-1.436-5.006h-.126c-.384 1.5-.83 2.997-1.372 4.91l-1.945 6.313zm5.802-13.455l7.142 22.35h-3.412l-1.88-6.12H91.98l-1.912 6.12h-3.285l7.078-22.35h4.784zm12.818 10.681h2.583c2.933 0 4.559-1.212 4.559-4.017 0-2.806-1.658-3.89-4.687-3.89h-2.455v7.907zm2.901-10.68c4.719 0 7.525 1.848 7.525 6.376 0 3.73-2.296 5.771-4.942 6.121v.128c.956.446 1.754 1.212 2.774 2.997l3.922 6.727h-3.858l-3.954-7.173c-.701-1.276-1.594-1.818-3.061-1.818h-1.307v8.991h-3.188V64.81h6.089zm22.064 16.579c0-4.623-10.52-3.666-10.52-10.713 0-3.507 2.964-6.185 7.172-6.185 2.87 0 4.974 1.084 6.058 2.104l-1.976 2.455c-.957-.83-2.296-1.69-4.305-1.69-2.327 0-3.698 1.308-3.698 3.093 0 4.687 10.553 3.762 10.553 10.745 0 3.347-2.71 6.28-7.748 6.28-3.666 0-6.089-1.402-7.237-2.454l1.881-2.646c1.18.988 2.997 2.263 5.707 2.263s4.113-1.435 4.113-3.252" fill="#F5F5F5"/><path d="M70.187 91.801c4.398 0 6.492 1.815 7.19 2.513l-2.827 3.211c-.873-.908-2.129-1.99-4.712-1.99-3.665 0-5.689 2.723-5.689 8.725 0 5.654 2.024 8.865 6.073 8.865 2.373 0 3.734-.977 4.537-1.85l2.408 3.107c-1.082 1.186-3.42 2.547-7.364 2.547-7.224 0-10.12-4.956-10.12-12.355 0-7.817 3.594-12.773 10.504-12.773M88.58 113.23c3.247 0 5.27-2.13 5.27-8.76 0-6.701-2.128-9.004-5.513-9.004-3.142 0-5.27 2.059-5.27 8.725 0 6.736 2.128 9.039 5.514 9.039m-.28 3.7c-6.002 0-9.702-3.351-9.702-12.425 0-8.97 4.084-12.74 10.017-12.74 5.968 0 9.772 3.387 9.772 12.46 0 8.935-4.153 12.705-10.086 12.705m17.626-19.405c.174 2.303.244 4.188.244 7.748v11.308h-4.153V92.115h5.445l6.212 11.867c1.117 2.129 2.303 4.537 3.21 6.735h.175c-.174-2.966-.174-5.933-.174-8.306V92.115h4.118v24.466h-5.34l-6.491-12.32c-1.117-2.164-2.094-4.363-3.072-6.736h-.174zm19.894 19.055V92.115h13.89v3.664h-9.527v7.47h8.271v3.663h-8.27v9.668zM70.965 13.36L57.043 56.157l-45.187-.037L48.44 82.532l-13.99 42.762 11.492-8.316 10.496-32.194-33.874-24.557 41.834.032 10.886-33.656z" fill="#FD0"/></g></svg>