<svg width="182" height="37" xmlns="http://www.w3.org/2000/svg"><title>Group 2</title><g fill="none" fill-rule="evenodd"><path d="M36.711 34.923a2.027 2.027 0 0 1-2.026 2.027H25.33V22.733h4.772l.715-5.54H25.33v-3.538c0-1.604.446-2.697 2.746-2.697l2.934-.001V6.001c-.508-.067-2.249-.218-4.275-.218-4.23 0-7.126 2.582-7.126 7.324v4.086h-4.784v5.54h4.784V36.95H2.026A2.027 2.027 0 0 1 0 34.923V2.265C0 1.145.907.238 2.026.238h32.659c1.119 0 2.026.907 2.026 2.027v32.658M84.42 3.577a15.107 15.107 0 0 1-4.883 1.909A7.579 7.579 0 0 0 73.929 3c-4.24 0-7.681 3.528-7.681 7.879 0 .618.066 1.217.198 1.794-6.386-.329-12.047-3.462-15.839-8.235a8.022 8.022 0 0 0-1.04 3.966c0 2.732 1.356 5.144 3.419 6.557a7.544 7.544 0 0 1-3.483-.982v.096c0 3.819 2.649 7.005 6.167 7.726a7.325 7.325 0 0 1-2.025.278c-.495 0-.978-.048-1.446-.14.978 3.129 3.814 5.408 7.177 5.469a15.174 15.174 0 0 1-9.543 3.374c-.62 0-1.233-.036-1.833-.108a21.389 21.389 0 0 0 11.779 3.537c14.135 0 21.862-12.004 21.862-22.417 0-.343-.006-.685-.019-1.021a15.763 15.763 0 0 0 3.831-4.078 15.05 15.05 0 0 1-4.412 1.24 7.864 7.864 0 0 0 3.379-4.358m40.882-1.57c-5.095-.164-8.543 2.656-10.354 8.457.929-.384 1.834-.568 2.712-.568 1.862 0 2.683 1.024 2.463 3.085-.112 1.25-.929 3.063-2.463 5.45-1.535 2.384-2.686 3.574-3.451 3.574-.987 0-1.888-1.84-2.711-5.525-.274-1.084-.77-3.85-1.474-8.297-.662-4.12-2.416-6.046-5.261-5.773-1.207.113-3.015 1.195-5.421 3.256A489.177 489.177 0 0 1 94 10.378l1.724 2.2c1.646-1.142 2.601-1.711 2.875-1.711 1.258 0 2.435 1.952 3.534 5.858.987 3.57 1.97 7.153 2.96 10.735 1.476 3.904 3.284 5.85 5.418 5.85 3.45 0 7.672-3.198 12.655-9.598 4.815-6.121 7.311-10.944 7.47-14.473.222-4.712-1.56-7.128-5.334-7.232" fill="#DFDFDF"/><path d="M177.602 0h-28.204A4.392 4.392 0 0 0 145 4.388v28.224A4.393 4.393 0 0 0 149.398 37h28.204A4.393 4.393 0 0 0 182 32.612V4.388A4.392 4.392 0 0 0 177.602 0zm-6.008 5.78c0-.637.518-1.155 1.156-1.155h3.468c.64 0 1.157.518 1.157 1.156v3.47c0 .637-.518 1.155-1.157 1.155h-3.468a1.156 1.156 0 0 1-1.156-1.156V5.78zm-8.051 5.664c3.93 0 7.116 3.18 7.116 7.099 0 3.92-3.186 7.099-7.116 7.099-3.929 0-7.115-3.178-7.115-7.1 0-3.919 3.186-7.098 7.115-7.098zm14.988 20.93c0 .639-.517 1.157-1.156 1.157h-27.75a1.157 1.157 0 0 1-1.156-1.156V15.03h4.625c-.603.867-.807 2.485-.807 3.512 0 6.191 5.05 11.23 11.256 11.23s11.256-5.039 11.256-11.23c0-1.027-.146-2.62-.893-3.512h4.625v17.344z" fill="#DEDEDE"/></g></svg>