<svg id="Layer_1" data-name="Layer 1" xmlns="http://www.w3.org/2000/svg" viewBox="0 0 1165.23 365.59"><defs><style>.cls-1,.cls-4{fill:#fff200;}.cls-1,.cls-2{fill-rule:evenodd;}.cls-2,.cls-3{fill:#fff;}</style></defs><title>Artboard 1</title><polygon class="cls-1" points="216.62 54.51 188.46 141.09 97.03 141.02 171.05 194.46 142.74 280.98 166 264.15 187.23 199.01 118.69 149.33 203.34 149.39 225.36 81.3 216.62 54.51"/><polygon class="cls-2" points="224.56 233.17 290.57 280.98 287.68 272.02 229.4 229.64 224.56 233.17"/><path class="cls-3" d="M266.71,190.66c0-16.52-37.61-13.11-37.61-38.29,0-12.54,10.6-22.11,25.64-22.11,10.26,0,17.78,3.88,21.65,7.52l-7.07,8.78a22.57,22.57,0,0,0-15.39-6c-8.32,0-13.22,4.67-13.22,11.05,0,16.75,37.72,13.45,37.72,38.41,0,12-9.69,22.45-27.69,22.45-13.11,0-21.77-5-25.87-8.78l6.72-9.46c4.22,3.53,10.71,8.09,20.4,8.09S266.71,197.16,266.71,190.66Z"/><path class="cls-3" d="M300.44,141.31h-21V131.4h53.34v9.92H312v70H300.44Z"/><path class="cls-3" d="M369.4,131.4l25.53,79.89H382.73L376,189.41H345.58l-6.84,21.88H327l25.3-79.89Zm-20.74,48.09h24.28l-6.84-22.22c-2.17-7.41-3.65-12.31-5.13-17.89h-.46c-1.37,5.36-3,10.71-4.9,17.55Z"/><path class="cls-3" d="M425.59,131.4c16.87,0,26.9,6.61,26.9,22.79,0,13.33-8.21,20.63-17.67,21.88v.46c3.42,1.6,6.27,4.33,9.92,10.71l14,24H445l-14.13-25.64c-2.51-4.56-5.7-6.5-10.94-6.5h-4.67v32.14h-11.4V131.4Zm-10.37,38.18h9.23c10.49,0,16.3-4.33,16.3-14.36s-5.93-13.9-16.75-13.9h-8.78Z"/><path class="cls-3" d="M504.45,190.66c0-16.52-37.61-13.11-37.61-38.29,0-12.54,10.6-22.11,25.64-22.11,10.26,0,17.78,3.88,21.65,7.52l-7.07,8.78a22.57,22.57,0,0,0-15.39-6c-8.32,0-13.22,4.67-13.22,11.05,0,16.75,37.72,13.45,37.72,38.41,0,12-9.69,22.45-27.69,22.45-13.11,0-21.77-5-25.87-8.78l6.72-9.46c4.22,3.53,10.71,8.09,20.4,8.09S504.45,197.16,504.45,190.66Z"/><path class="cls-4" d="M559,130.37c14.36,0,21.2,5.93,23.48,8.21l-9.23,10.48c-2.85-3-7-6.5-15.39-6.5-12,0-18.58,8.89-18.58,28.49,0,18.46,6.61,28.95,19.83,28.95,7.75,0,12.19-3.19,14.82-6l7.86,10.14c-3.53,3.88-11.17,8.32-24,8.32-23.59,0-33-16.18-33-40.34C524.74,146.55,536.48,130.37,559,130.37Z"/><path class="cls-4" d="M618.2,212.43c-19.6,0-31.68-10.94-31.68-40.57,0-29.29,13.33-41.6,32.71-41.6s31.91,11.06,31.91,40.69C651.14,200.12,637.58,212.43,618.2,212.43Zm.91-12.08c10.6,0,17.21-7,17.21-28.61,0-21.88-7-29.4-18-29.4-10.26,0-17.21,6.72-17.21,28.49C601.11,192.82,608.06,200.35,619.11,200.35Z"/><path class="cls-4" d="M675.76,149.06c.57,7.52.8,13.68.8,25.3v36.93H663V131.4h17.78l20.29,38.75c3.65,7,7.52,14.82,10.48,22h.57c-.57-9.69-.57-19.37-.57-27.12V131.4H725v79.89H707.56l-21.2-40.23c-3.65-7.07-6.84-14.25-10-22Z"/><path class="cls-4" d="M740.72,211.29V131.4h45.36v12H755v24.39h27v12H755v31.57Z"/></svg>