<?xml version="1.0" encoding="UTF-8"?>
<svg width="180px" height="180px" viewBox="0 0 180 180" version="1.1" xmlns="http://www.w3.org/2000/svg" xmlns:xlink="http://www.w3.org/1999/xlink">
    <!-- Generator: Sketch 49.3 (51167) - http://www.bohemiancoding.com/sketch -->
    <title>logo-starsconf-square</title>
    <desc>Created with Sketch.</desc>
    <defs></defs>
    <g id="Page-1" stroke="none" stroke-width="1" fill="none" fill-rule="evenodd">
        <g id="logo-starsconf-square" fill-rule="nonzero">
            <polygon id="Fill-1" fill="#000000" points="0 180 180 180 180 0 0 0"></polygon>
            <g id="Group-22" transform="translate(23.300000, 32.934800)">
                <path d="M58.3229658,68.3222718 C58.3229658,63.7458602 47.9079914,64.693216 47.9079914,57.7172322 C47.9079914,54.2455741 50.8431116,51.5945617 55.0087053,51.5945617 C57.8497829,51.5945617 59.9325798,52.6676377 61.0056557,53.6773586 L59.048579,56.1076183 C58.1022131,55.2869726 56.7767069,54.4346493 54.7879526,54.4346493 C52.484403,54.4346493 51.1272193,55.7294679 51.1272193,57.4964795 C51.1272193,62.1362462 61.5738712,61.2205679 61.5738712,68.1331966 C61.5738712,71.4464671 58.8911813,74.3508997 53.9039519,74.3508997 C50.274896,74.3508997 47.8763139,72.9620384 46.7398829,71.92064 L48.6019271,69.3013051 C49.7700356,70.2793485 51.5687247,71.5414997 54.2514147,71.5414997 C56.9341046,71.5414997 58.3229658,70.1209609 58.3229658,68.3222718" id="Fill-2" fill="#F5F5F5"></path>
                <polygon id="Fill-4" fill="#F5F5F5" points="67.6662502 54.656095 61.8593649 54.656095 61.8593649 51.91005 76.6299982 51.91005 76.6299982 54.656095 70.8538005 54.656095 70.8538005 74.0348174 67.6662502 74.0348174"></polygon>
                <path d="M81.0177306,65.229358 L87.7402942,65.229358 L85.8465725,59.0750099 C85.2466795,57.0229006 84.8368516,55.6657169 84.4260337,54.119458 L84.3003136,54.119458 C83.9211733,55.6033518 83.4796678,57.0862557 82.9431298,58.9799774 L81.0177306,65.229358 Z M86.7622508,51.909951 L93.8312872,74.0347184 L90.4546616,74.0347184 L88.5926174,67.9754029 L80.1654074,67.9754029 L78.2716857,74.0347184 L75.0207802,74.0347184 L82.0274516,51.909951 L86.7622508,51.909951 Z" id="Fill-6" fill="#F5F5F5"></path>
                <path d="M99.4505822,62.483313 L102.007552,62.483313 C104.910995,62.483313 106.520609,61.283527 106.520609,58.5067944 C106.520609,55.7290719 104.879317,54.655996 101.880842,54.655996 L99.4505822,54.655996 L99.4505822,62.483313 Z M102.322347,51.909951 C106.993791,51.909951 109.771514,53.7403177 109.771514,58.2226867 C109.771514,61.9150975 107.498652,63.9355293 104.879317,64.2820022 L104.879317,64.4087122 C105.825683,64.8502177 106.615641,65.6084983 107.625362,67.3755099 L111.507838,74.0347184 L107.688717,74.0347184 L103.774564,66.9340045 C103.080628,65.6708634 102.196627,65.1343254 100.744411,65.1343254 L99.4505822,65.1343254 L99.4505822,74.0347184 L96.2947093,74.0347184 L96.2947093,51.909951 L102.322347,51.909951 Z" id="Fill-8" fill="#F5F5F5"></path>
                <path d="M124.164294,68.3222718 C124.164294,63.7458602 113.749319,64.693216 113.749319,57.7172322 C113.749319,54.2455741 116.68444,51.5945617 120.850033,51.5945617 C123.691111,51.5945617 125.773908,52.6676377 126.846984,53.6773586 L124.890897,56.1076183 C123.943541,55.2869726 122.618035,54.4346493 120.629281,54.4346493 C118.325731,54.4346493 116.968547,55.7294679 116.968547,57.4964795 C116.968547,62.1362462 127.415199,61.2205679 127.415199,68.1331966 C127.415199,71.4464671 124.732509,74.3508997 119.74528,74.3508997 C116.116224,74.3508997 113.717642,72.9620384 112.581211,71.92064 L114.443255,69.3013051 C115.611364,70.2793485 117.410053,71.5414997 120.092743,71.5414997 C122.775433,71.5414997 124.164294,70.1209609 124.164294,68.3222718" id="Fill-10" fill="#F5F5F5"></path>
                <path d="M58.5908388,78.6285527 C62.9445179,78.6285527 65.0174156,80.425262 65.7083815,81.1162279 L62.9098706,84.294869 C62.0456683,83.3960194 60.8023257,82.3249233 58.2453559,82.3249233 C54.61729,82.3249233 52.6136869,85.0204822 52.6136869,90.9619969 C52.6136869,96.5590186 54.61729,99.7376597 58.6254861,99.7376597 C60.9745722,99.7376597 62.3218567,98.7705054 63.1167644,97.9063031 L65.5004978,100.981992 C64.4294016,102.15604 62.1149629,103.503325 58.2107086,103.503325 C51.0595086,103.503325 48.1917032,98.597269 48.1917032,91.2728326 C48.1917032,83.5346085 51.7504745,78.6285527 58.5908388,78.6285527" id="Fill-12" fill="#FFDD00"></path>
                <path d="M76.799077,99.8413046 C80.0123653,99.8413046 82.0159684,97.7337596 82.0159684,91.1695836 C82.0159684,84.5361131 79.9084235,82.2563216 76.5575359,82.2563216 C73.4471995,82.2563216 71.3406444,84.294572 71.3406444,90.8933953 C71.3406444,97.5615131 73.4471995,99.8413046 76.799077,99.8413046 M76.5228886,103.504018 C70.580384,103.504018 66.9176708,100.186788 66.9176708,91.2042309 C66.9176708,82.3256162 70.9605142,78.5936084 76.8337243,78.5936084 C82.7415816,78.5936084 86.5072467,81.945486 86.5072467,90.9280426 C86.5072467,99.77201 82.3960987,103.504018 76.5228886,103.504018" id="Fill-14" fill="#FFDD00"></path>
                <path d="M93.9711633,84.294473 C94.1434098,86.5742645 94.2127043,88.4402684 94.2127043,91.9643924 L94.2127043,103.158436 L90.1015563,103.158436 L90.1015563,78.9389924 L95.4916842,78.9389924 L101.641083,90.6864025 C102.746826,92.7939474 103.920874,95.1776808 104.819724,97.3535304 L104.99197,97.3535304 C104.819724,94.4174203 104.819724,91.4803203 104.819724,89.1312343 L104.819724,78.9389924 L108.896224,78.9389924 L108.896224,103.158436 L103.610038,103.158436 L97.1844516,90.9625909 C96.0787082,88.8203986 95.111554,86.6435591 94.1434098,84.294473 L93.9711633,84.294473 Z" id="Fill-16" fill="#FFDD00"></path>
                <polygon id="Fill-18" fill="#FFDD00" points="113.664978 103.158139 113.664978 78.9396853 127.415001 78.9396853 127.415001 82.5667613 117.98401 82.5667613 117.98401 89.9604923 126.171659 89.9604923 126.171659 93.5875683 117.98401 93.5875683 117.98401 103.158139"></polygon>
                <polygon id="Fill-20" fill="#FFDD00" points="59.3609985 0.977746434 45.5792978 43.3434588 0.84767062 43.3068317 37.0629947 69.4526643 23.2129892 111.783729 34.5901683 103.551534 44.9803947 71.6819697 11.4477605 47.3724433 52.8601776 47.4041209 63.6364737 14.0872898"></polygon>
            </g>
        </g>
    </g>
</svg>