<?xml version="1.0" encoding="UTF-8" standalone="no"?>
<svg width="208px" height="113px" viewBox="0 0 208 113" version="1.1" xmlns="http://www.w3.org/2000/svg" xmlns:xlink="http://www.w3.org/1999/xlink">
    <!-- Generator: Sketch 41.2 (35397) - http://www.bohemiancoding.com/sketch -->
    <title>Page 1</title>
    <desc>Created with Sketch.</desc>
    <defs>
        <polygon id="path-1" points="14.79616 24.3746421 14.79616 0.385667301 0.066176 0.385667301 0.066176 24.3746421"></polygon>
        <polygon id="path-3" points="8.67361738e-21 0.406695413 8.67361738e-21 26.691836 16.845312 26.691836 16.845312 0.406695413 0 0.406695413"></polygon>
    </defs>
    <g id="Page-1" stroke="none" stroke-width="1" fill="none" fill-rule="evenodd">
        <g id="Artboard" transform="translate(-103.000000, -96.000000)">
            <g id="Page-1" transform="translate(103.000000, 95.000000)">
                <g id="Group-22" transform="translate(0.000000, 0.372000)">
                    <path d="M58.9167,69.0178 C58.9167,64.3948 48.3957,65.3518 48.3957,58.3048 C48.3957,54.7978 51.3607,52.1198 55.5687,52.1198 C58.4387,52.1198 60.5427,53.2038 61.6267,54.2238 L59.6497,56.6788 C58.6937,55.8498 57.3547,54.9888 55.3457,54.9888 C53.0187,54.9888 51.6477,56.2968 51.6477,58.0818 C51.6477,62.7688 62.2007,61.8438 62.2007,68.8268 C62.2007,72.1738 59.4907,75.1078 54.4527,75.1078 C50.7867,75.1078 48.3637,73.7048 47.2157,72.6528 L49.0967,70.0068 C50.2767,70.9948 52.0937,72.2698 54.8037,72.2698 C57.5137,72.2698 58.9167,70.8348 58.9167,69.0178" id="Fill-2" fill="#F5F5F5"></path>
                    <polygon id="Fill-4" fill="#F5F5F5" points="68.3551 55.2125 62.4891 55.2125 62.4891 52.4385 77.4101 52.4385 77.4101 55.2125 71.5751 55.2125 71.5751 74.7885 68.3551 74.7885"></polygon>
                    <path d="M81.8425,65.8934 L88.6335,65.8934 L86.7205,59.6764 C86.1145,57.6034 85.7005,56.2324 85.2855,54.6704 L85.1585,54.6704 C84.7755,56.1694 84.3295,57.6674 83.7875,59.5804 L81.8425,65.8934 Z M87.6455,52.4384 L94.7865,74.7884 L91.3755,74.7884 L89.4945,68.6674 L80.9815,68.6674 L79.0685,74.7884 L75.7845,74.7884 L82.8625,52.4384 L87.6455,52.4384 Z" id="Fill-6" fill="#F5F5F5"></path>
                    <path d="M100.463,63.1194 L103.046,63.1194 C105.979,63.1194 107.605,61.9074 107.605,59.1024 C107.605,56.2964 105.947,55.2124 102.918,55.2124 L100.463,55.2124 L100.463,63.1194 Z M103.364,52.4384 C108.083,52.4384 110.889,54.2874 110.889,58.8154 C110.889,62.5454 108.593,64.5864 105.947,64.9364 L105.947,65.0644 C106.903,65.5104 107.701,66.2764 108.721,68.0614 L112.643,74.7884 L108.785,74.7884 L104.831,67.6154 C104.13,66.3394 103.237,65.7974 101.77,65.7974 L100.463,65.7974 L100.463,74.7884 L97.275,74.7884 L97.275,52.4384 L103.364,52.4384 Z" id="Fill-8" fill="#F5F5F5"></path>
                    <path d="M125.4283,69.0178 C125.4283,64.3948 114.9073,65.3518 114.9073,58.3048 C114.9073,54.7978 117.8723,52.1198 122.0803,52.1198 C124.9503,52.1198 127.0543,53.2038 128.1383,54.2238 L126.1623,56.6788 C125.2053,55.8498 123.8663,54.9888 121.8573,54.9888 C119.5303,54.9888 118.1593,56.2968 118.1593,58.0818 C118.1593,62.7688 128.7123,61.8438 128.7123,68.8268 C128.7123,72.1738 126.0023,75.1078 120.9643,75.1078 C117.2983,75.1078 114.8753,73.7048 113.7273,72.6528 L115.6083,70.0068 C116.7883,70.9948 118.6053,72.2698 121.3153,72.2698 C124.0253,72.2698 125.4283,70.8348 125.4283,69.0178" id="Fill-10" fill="#F5F5F5"></path>
                    <path d="M59.1873,79.429 C63.5853,79.429 65.6793,81.244 66.3773,81.942 L63.5503,85.153 C62.6773,84.245 61.4213,83.163 58.8383,83.163 C55.1733,83.163 53.1493,85.886 53.1493,91.888 C53.1493,97.542 55.1733,100.753 59.2223,100.753 C61.5953,100.753 62.9563,99.776 63.7593,98.903 L66.1673,102.01 C65.0853,103.196 62.7473,104.557 58.8033,104.557 C51.5793,104.557 48.6823,99.601 48.6823,92.202 C48.6823,84.385 52.2773,79.429 59.1873,79.429" id="Fill-12" fill="#FFDD00"></path>
                    <path d="M77.5809,100.8577 C80.8269,100.8577 82.8509,98.7287 82.8509,92.0977 C82.8509,85.3967 80.7219,83.0937 77.3369,83.0937 C74.1949,83.0937 72.0669,85.1527 72.0669,91.8187 C72.0669,98.5547 74.1949,100.8577 77.5809,100.8577 M77.3019,104.5577 C71.2989,104.5577 67.5989,101.2067 67.5989,92.1327 C67.5989,83.1637 71.6829,79.3937 77.6159,79.3937 C83.5839,79.3937 87.3879,82.7797 87.3879,91.8537 C87.3879,100.7877 83.2349,104.5577 77.3019,104.5577" id="Fill-14" fill="#FFDD00"></path>
                    <path d="M94.9278,85.1526 C95.1018,87.4556 95.1718,89.3406 95.1718,92.9006 L95.1718,104.2086 L91.0188,104.2086 L91.0188,79.7426 L96.4638,79.7426 L102.6758,91.6096 C103.7928,93.7386 104.9788,96.1466 105.8868,98.3446 L106.0608,98.3446 C105.8868,95.3786 105.8868,92.4116 105.8868,90.0386 L105.8868,79.7426 L110.0048,79.7426 L110.0048,104.2086 L104.6648,104.2086 L98.1738,91.8886 C97.0568,89.7246 96.0798,87.5256 95.1018,85.1526 L94.9278,85.1526 Z" id="Fill-16" fill="#FFDD00"></path>
                    <polygon id="Fill-18" fill="#FFDD00" points="114.8221 104.2083 114.8221 79.7433 128.7121 79.7433 128.7121 83.4073 119.1851 83.4073 119.1851 90.8763 127.4561 90.8763 127.4561 94.5403 119.1851 94.5403 119.1851 104.2083"></polygon>
                    <polygon id="Fill-20" fill="#FFDD00" points="59.9653 0.9877 46.0433 43.7847 0.8563 43.7477 37.4403 70.1597 23.4493 112.9217 34.9423 104.6057 45.4383 72.4117 11.5643 47.8547 53.3983 47.8867 64.2843 14.2307"></polygon>
                </g>
                <polygon id="|" fill="#FFDD00" points="138.058225 107 138.058225 53 135.537217 53 135.537217 107"></polygon>
                <g transform="translate(144.000000, 52.000000)">
                    <path d="M4.336896,21.9787394 L8.171776,21.8693672 L14.658816,21.8693672 L14.658816,24.9682469 L0.717056,24.9682469 L0.143616,21.8693672 C1.899136,20.1923264 7.633536,13.7029076 8.386816,12.6091854 C9.927296,10.7134001 10.608896,9.14573156 10.608896,7.32286113 C10.608896,5.0625018 9.282816,3.85940731 7.310976,3.85940731 C5.197056,3.85940731 4.300416,5.46353329 4.050176,7.2134889 L0.466176,6.48434073 C1.003776,3.34900359 3.261696,0.760527584 7.526016,0.760527584 C11.755776,0.760527584 14.264576,3.16671655 14.264576,6.92182963 C14.264576,9.58322046 13.189376,12.0258668 11.038976,14.6508003 C10.608896,15.161204 8.279296,17.8590522 7.705856,18.4423707 C7.275776,18.8434022 4.874496,21.4318782 4.336896,21.8329097 L4.336896,21.9787394 Z" id="Fill-1" fill="#939598"></path>
                    <path d="M25.3744,22.1974838 C28.7792,22.1974838 29.81856,19.3173486 29.81856,13.1195891 C29.81856,6.92182963 28.49248,3.7864925 25.23104,3.7864925 C21.86208,3.7864925 20.82272,6.70308518 20.82272,12.9008446 C20.82272,19.1350615 22.11296,22.1974838 25.3744,22.1974838 M17.27456,13.1195891 C17.27456,4.6614703 19.99904,0.651155358 25.48192,0.651155358 C31.00128,0.651155358 33.36672,4.58855549 33.36672,12.9008446 C33.36672,21.322506 30.60704,25.2963636 25.15936,25.2963636 C19.56832,25.2963636 17.27456,21.3954208 17.27456,13.1195891" id="Fill-3" fill="#939598"></path>
                    <polygon id="Fill-5" fill="#939598" points="45.516224 0.979402241 45.516224 24.9683771 42.003904 24.9683771 42.003904 11.1874766 42.147264 4.6251431 42.003904 4.6251431 39.244224 6.81258761 36.771264 8.56254323 34.800064 5.71886536 41.860544 0.979402241"></polygon>
                    <g id="Group-9" transform="translate(48.640000, 0.593475)">
                        <mask id="mask-2" fill="white">
                            <use xlink:href="#path-1"></use>
                        </mask>
                        <g id="Clip-8"></g>
                        <path d="M3.936896,24.3746421 L3.936896,23.3902921 C3.936896,19.3435198 5.154816,15.4061196 6.983296,11.5416343 L8.882816,7.64069161 L11.033216,3.70329148 L11.033216,3.55746185 C11.033216,3.55746185 9.277056,3.66683407 6.910976,3.66683407 L0.066176,3.66683407 L0.066176,0.385667301 L14.114816,0.385667301 L14.796416,3.88557852 L10.351616,12.4895269 C8.524416,16.0988104 7.448576,19.5258068 7.448576,23.4267495 L7.448576,24.3746421 L3.936896,24.3746421 Z" id="Fill-7" fill="#939598" mask="url(#mask-2)"></path>
                    </g>
                    <g id="Group-12" transform="translate(0.000000, 27.285506)">
                        <mask id="mask-4" fill="white">
                            <use xlink:href="#path-3"></use>
                        </mask>
                        <g id="Clip-11"></g>
                        <path d="M13.153152,19.729122 C13.153152,14.4427977 1.326592,15.53652 1.326592,7.47943268 C1.326592,3.46911773 4.659712,0.406695413 9.389952,0.406695413 C12.615552,0.406695413 14.980992,1.64624731 16.200192,2.81288438 L13.977472,5.62010484 C12.902272,4.67221222 11.397632,3.68786219 9.139712,3.68786219 C6.523392,3.68786219 4.981632,5.18261594 4.981632,7.22423082 C4.981632,12.5834699 16.845312,11.526205 16.845312,19.5097265 C16.845312,23.3384054 13.798912,26.691836 8.135552,26.691836 C4.014592,26.691836 1.290752,25.08771 -0.000128,23.8852665 L2.115072,20.8586506 C3.440512,21.9894813 5.484032,23.4477776 8.529792,23.4477776 C11.576192,23.4477776 13.153152,21.8065432 13.153152,19.729122" id="Fill-10" fill="#F1F2F2" mask="url(#mask-4)"></path>
                    </g>
                    <path d="M30.21312,27.692071 C34.36992,27.692071 36.44864,29.3326544 37.23776,30.0618026 L34.90816,32.8325656 C33.93984,31.884673 32.54272,30.9367804 29.9264,30.9367804 C25.80416,30.9367804 23.40288,33.9992027 23.40288,40.7802807 C23.40288,47.1961336 25.73312,50.6960448 30.24896,50.6960448 C32.72192,50.6960448 34.15488,49.8575244 35.01568,48.9831976 L37.02272,51.5710226 C35.94752,52.7376597 33.61728,53.9772116 29.81888,53.9772116 C22.68608,53.9772116 19.712,48.837368 19.712,41.0354826 C19.712,32.7596508 23.33184,27.692071 30.21312,27.692071" id="Fill-13" fill="#F1F2F2"></path>
                    <polygon id="Fill-15" fill="#F1F2F2" points="44.33376 28.0567102 44.33376 50.4415591 54.69152 50.4415591 54.69152 53.6133536 40.74976 53.6133536 40.74976 28.0567102"></polygon>
                </g>
            </g>
        </g>
    </g>
</svg>