<?xml version="1.0" encoding="UTF-8"?>
<svg width="182px" height="37px" viewBox="0 0 182 37" version="1.1" xmlns="http://www.w3.org/2000/svg" xmlns:xlink="http://www.w3.org/1999/xlink">
    <!-- Generator: Sketch 49.3 (51167) - http://www.bohemiancoding.com/sketch -->
    <title>sprite_social</title>
    <desc>Created with Sketch.</desc>
    <defs></defs>
    <g id="Page-1" stroke="none" stroke-width="1" fill="none" fill-rule="evenodd">
        <g id="sprite_social" fill="#000000" fill-rule="nonzero">
            <g id="Group">
                <path d="M36.711,34.923 C36.711,36.042 35.804,36.95 34.685,36.95 L25.33,36.95 L25.33,22.733 L30.102,22.733 L30.817,17.193 L25.33,17.193 L25.33,13.655 C25.33,12.051 25.776,10.958 28.076,10.958 L31.01,10.957 L31.01,6.001 C30.502,5.934 28.761,5.783 26.735,5.783 C22.505,5.783 19.609,8.365 19.609,13.107 L19.609,17.193 L14.825,17.193 L14.825,22.733 L19.609,22.733 L19.609,36.95 L2.026,36.95 C0.907,36.95 0,36.042 0,34.923 L0,2.265 C0,1.145 0.907,0.238 2.026,0.238 L34.685,0.238 C35.804,0.238 36.711,1.145 36.711,2.265 L36.711,34.923" id="Facebook"></path>
                <path d="M79.537,5.486 C78.139,3.956 76.141,3 73.929,3 C69.689,3 66.248,6.528 66.248,10.879 C66.248,11.497 66.314,12.096 66.446,12.673 C60.06,12.344 54.399,9.211 50.607,4.438 C49.945,5.606 49.567,6.961 49.567,8.404 C49.567,11.136 50.923,13.548 52.986,14.961 C51.728,14.923 50.541,14.565 49.503,13.979 L49.503,14.075 C49.503,17.894 52.152,21.08 55.67,21.801 C55.026,21.986 54.346,22.079 53.645,22.079 C53.15,22.079 52.667,22.031 52.199,21.939 C53.177,25.068 56.013,27.347 59.376,27.408 C56.747,29.522 53.432,30.782 49.833,30.782 C49.213,30.782 48.6,30.746 48,30.674 C51.4,32.906 55.441,34.211 59.779,34.211 C73.914,34.211 81.641,22.207 81.641,11.794 C81.641,11.451 81.635,11.109 81.622,10.773 C83.123,9.662 84.427,8.275 85.453,6.695 C84.077,7.321 82.595,7.745 81.041,7.935 C82.628,6.961 83.846,5.417 84.42,3.577 C82.934,4.479 81.292,5.135 79.537,5.486 Z" id="Twitter"></path>
            </g>
            <path d="M177.601942,0 L149.398058,0 C146.968933,0 145,1.9638873 145,4.38796607 L145,32.6120339 C145,35.0351035 146.968933,37 149.398058,37 L177.601942,37 C180.031067,37 182,35.0351035 182,32.6120339 L182,4.38796607 C182,1.9638873 180.031067,0 177.601942,0 Z M171.594223,5.78065079 C171.594223,5.14284156 172.111938,4.62512615 172.749748,4.62512615 L176.21834,4.62512615 C176.857158,4.62512615 177.374874,5.14284156 177.374874,5.78065079 L177.374874,9.2502523 C177.374874,9.88806153 176.857158,10.4057769 176.21834,10.4057769 L172.749748,10.4057769 C172.111938,10.4057769 171.594223,9.88806153 171.594223,9.2502523 L171.594223,5.78065079 Z M163.542891,11.4442353 C167.472684,11.4442353 170.658702,14.6231896 170.658702,18.5428907 C170.658702,22.4636009 167.472684,25.641546 163.542891,25.641546 C159.614107,25.641546 156.428088,22.4636009 156.428088,18.5428907 C156.428088,14.6231896 159.614107,11.4442353 163.542891,11.4442353 Z M178.531408,32.3748739 C178.531408,33.0126831 178.013692,33.5314077 177.374874,33.5314077 L149.625126,33.5314077 C148.986308,33.5314077 148.468592,33.0126831 148.468592,32.3748739 L148.468592,15.0309031 L153.093718,15.0309031 C152.491231,15.8977989 152.287374,17.5155334 152.287374,18.5428907 C152.287374,24.7342825 157.33737,29.7721681 163.542891,29.7721681 C169.74942,29.7721681 174.799416,24.7342825 174.799416,18.5428907 C174.799416,17.5155334 174.653083,15.9230287 173.906282,15.0309031 L178.531408,15.0309031 L178.531408,32.3748739 Z" id="Instagram"></path>
            <g id="Group" transform="translate(93.000000, 4.000000)">
                <path d="M40.1555149,4.38117647 C41.0336002,7.51058824 40.9998277,14.0329412 40.9998277,14.0329412 C40.9998277,14.0329412 40.9998277,20.5223529 40.1555149,23.6517647 C39.6826998,25.3647059 38.2980269,26.7152941 36.5418563,27.1764706 C33.3334678,28 20.4999138,28 20.4999138,28 C20.4999138,28 7.70013238,28 4.45797138,27.1435294 C2.70180084,26.6823529 1.31712791,25.3317647 0.844312761,23.6188235 C0,20.5223529 0,14 0,14 C0,14 0,7.51058824 0.844312761,4.38117647 C1.31712791,2.66823529 2.73557335,1.28470588 4.45797138,0.823529412 C7.66635987,0 20.4999138,0 20.4999138,0 C20.4999138,0 33.3334678,0 36.5418563,0.856470588 C38.2980269,1.31764706 39.6826998,2.66823529 40.1555149,4.38117647 Z M16,18 L27,12.5 L16,7 L16,18 Z" id="Combined-Shape"></path>
            </g>
        </g>
    </g>
</svg>