<?xml version="1.0" encoding="UTF-8"?>
<svg width="118px" height="24px" viewBox="0 0 118 24" version="1.1" xmlns="http://www.w3.org/2000/svg" xmlns:xlink="http://www.w3.org/1999/xlink">
    <!-- Generator: Sketch 49.3 (51167) - http://www.bohemiancoding.com/sketch -->
    <title>sprite_social</title>
    <desc>Created with Sketch.</desc>
    <defs></defs>
    <g id="Page-1" stroke="none" stroke-width="1" fill="none" fill-rule="evenodd">
        <g id="sprite_social" fill="#000000" fill-rule="nonzero">
            <g id="Group">
                <path d="M23.9048372,22.6527568 C23.9048372,23.3785946 23.3142326,23.9675676 22.5855814,23.9675676 L16.4939535,23.9675676 L16.4939535,14.7457297 L19.6013023,14.7457297 L20.0668837,11.1522162 L16.4939535,11.1522162 L16.4939535,8.8572973 C16.4939535,7.81686486 16.7843721,7.10789189 18.2820465,7.10789189 L20.1925581,7.10724324 L20.1925581,3.89254054 C19.8617674,3.84908108 18.728093,3.75113514 17.4088372,3.75113514 C14.6544186,3.75113514 12.7686512,5.42594595 12.7686512,8.50183784 L12.7686512,11.1522162 L9.65348837,11.1522162 L9.65348837,14.7457297 L12.7686512,14.7457297 L12.7686512,23.9675676 L1.31925581,23.9675676 C0.590604651,23.9675676 0,23.3785946 0,22.6527568 L0,1.46918919 C0,0.742702703 0.590604651,0.154378378 1.31925581,0.154378378 L22.5855814,0.154378378 C23.3142326,0.154378378 23.9048372,0.742702703 23.9048372,1.46918919 L23.9048372,22.6527568" id="Facebook"></path>
                <path d="M51.7915349,3.55848649 C50.8812093,2.56605405 49.580186,1.94594595 48.139814,1.94594595 C45.3788837,1.94594595 43.1382326,4.23437838 43.1382326,7.05664865 C43.1382326,7.45751351 43.1812093,7.84605405 43.2671628,8.22032432 C39.1088372,8.00691892 35.4226047,5.9747027 32.9533953,2.8787027 C32.5223256,3.63632432 32.276186,4.51524324 32.276186,5.45124324 C32.276186,7.22335135 33.1591628,8.78789189 34.5025116,9.70443243 C33.6833488,9.67978378 32.9104186,9.44756757 32.2345116,9.06745946 L32.2345116,9.12972973 C32.2345116,11.6069189 33.9594419,13.6735135 36.2502326,14.1411892 C35.8308837,14.2611892 35.388093,14.3215135 34.9316279,14.3215135 C34.6093023,14.3215135 34.2947907,14.2903784 33.9900465,14.2307027 C34.6268837,16.2603243 36.4735814,17.7385946 38.6634419,17.7781622 C36.9515349,19.1494054 34.7929302,19.9667027 32.4493953,19.9667027 C32.0456744,19.9667027 31.6465116,19.9433514 31.255814,19.8966486 C33.4697674,21.3444324 36.1011163,22.1909189 38.9258605,22.1909189 C48.1300465,22.1909189 53.1615814,14.4045405 53.1615814,7.65016216 C53.1615814,7.42767568 53.1576744,7.20583784 53.1492093,6.98789189 C54.1266047,6.26724324 54.9757209,5.36756757 55.643814,4.3427027 C54.747814,4.74875676 53.7827907,5.02378378 52.7708837,5.14702703 C53.8042791,4.51524324 54.5973953,3.51372973 54.9711628,2.32021622 C54.0035349,2.9052973 52.9343256,3.33081081 51.7915349,3.55848649 Z" id="Twitter"></path>
            </g>
            <path d="M115.147206,0 L96.8527944,0 C95.2771457,0 94,1.27387284 94,2.84624826 L94,21.1537517 C94,22.7254725 95.2771457,24 96.8527944,24 L115.147206,24 C116.722854,24 118,22.7254725 118,21.1537517 L118,2.84624826 C118,1.27387284 116.722854,0 115.147206,0 Z M111.250307,3.74961132 C111.250307,3.33589723 111.586122,3.00008183 111.999837,3.00008183 L114.249734,3.00008183 C114.664102,3.00008183 114.999918,3.33589723 114.999918,3.74961132 L114.999918,6.00016365 C114.999918,6.41387775 114.664102,6.74969312 114.249734,6.74969312 L111.999837,6.74969312 C111.586122,6.74969312 111.250307,6.41387775 111.250307,6.00016365 L111.250307,3.74961132 Z M106.027821,7.42328776 C108.576876,7.42328776 110.643482,9.48531217 110.643482,12.027821 C110.643482,14.5709844 108.576876,16.6323542 106.027821,16.6323542 C103.479421,16.6323542 101.412814,14.5709844 101.412814,12.027821 C101.412814,9.48531217 103.479421,7.42328776 106.027821,7.42328776 Z M115.750102,20.9999182 C115.750102,21.4136323 115.414287,21.7501023 114.999918,21.7501023 L97.0000817,21.7501023 C96.5857133,21.7501023 96.2498975,21.4136323 96.2498975,20.9999182 L96.2498975,9.74977498 L99.2499792,9.74977498 C98.8591769,10.3120858 98.7269453,11.3614271 98.7269453,12.027821 C98.7269453,16.0438589 102.002618,19.3116766 106.027821,19.3116766 C110.053678,19.3116766 113.329351,16.0438589 113.329351,12.027821 C113.329351,11.3614271 113.234432,10.328451 112.750021,9.74977498 L115.750102,9.74977498 L115.750102,20.9999182 Z" id="Instagram"></path>
            <g id="Group" transform="translate(61.000000, 2.000000)">
                <path d="M25.4644729,2.81647059 C26.0213074,4.8282353 25.9998907,9.02117649 25.9998907,9.02117649 C25.9998907,9.02117649 25.9998907,13.1929411 25.4644729,15.2047059 C25.1646389,16.3058824 24.2865536,17.1741176 23.1728845,17.4705882 C21.1382966,18 12.9999453,18 12.9999453,18 C12.9999453,18 4.88301078,18 2.82700624,17.4494118 C1.71333712,17.1529412 0.835251845,16.2847059 0.535417848,15.1835294 C0,13.1929411 0,9 0,9 C0,9 0,4.8282353 0.535417848,2.81647059 C0.835251845,1.71529412 1.73475383,0.825882351 2.82700624,0.529411765 C4.86159406,0 12.9999453,0 12.9999453,0 C12.9999453,0 21.1382966,0 23.1728845,0.550588235 C24.2865536,0.847058824 25.1646389,1.71529412 25.4644729,2.81647059 Z M10.1463415,11.5714286 L17.1219512,8.03571429 L10.1463415,4.5 L10.1463415,11.5714286 Z" id="Combined-Shape"></path>
            </g>
        </g>
    </g>
</svg>