<?xml version="1.0" encoding="UTF-8"?>
<svg width="379px" height="379px" viewBox="0 0 379 379" version="1.1" xmlns="http://www.w3.org/2000/svg" xmlns:xlink="http://www.w3.org/1999/xlink">
    <!-- Generator: Sketch 47.1 (45422) - http://www.bohemiancoding.com/sketch -->
    <title>Group</title>
    <desc>Created with Sketch.</desc>
    <defs>
        <path d="M0.151019355,190.118755 C0.151019355,294.940688 85.1739693,379.913278 190.058027,379.913278 C294.942085,379.913278 379.965035,294.940688 379.965035,190.118755 C379.965035,85.2994578 294.942085,0.32423231 190.058027,0.32423231 C85.1739693,0.32423231 0.151019355,85.2994578 0.151019355,190.118755 Z" id="path-1"></path>
        <path d="M0.0722611553,83.4647504 C34.2256376,33.2817043 91.8075305,0.32423231 157.087952,0.32423231 C261.909885,0.32423231 346.882474,85.2994578 346.882474,190.118755 C346.882474,294.940688 261.909885,379.913278 157.087952,379.913278 C91.8075305,379.913278 34.2256376,346.956828 0.0722611553,296.773917 L0.0722611553,83.4647504 L0.0722611553,83.4647504 Z" id="path-3"></path>
        <path d="M172.349919,0.129031984 C75.7771797,9.00663142 0.150929904,90.2320059 0.150929904,189.118755 C0.150929904,222.465412 8.75054704,253.803223 23.8530807,281.035489 L172.349919,281.035452 L172.349919,0.129031984 L172.349919,0.129031984 Z" id="path-5"></path>
        <path d="M0.909580787,0.180665001 C28.4128391,33.1119891 44.9635255,75.5072716 44.9635255,121.767718 C44.9635255,168.029328 28.4128391,210.424747 0.909580787,243.355861 L0.909580787,0.180665001 L0.909580787,0.180665001 Z" id="path-7"></path>
        <path d="M22.0292732,0.177264766 C8.06016105,26.6128256 0.150929904,56.7450433 0.150929904,88.7243432 C0.150929904,193.546276 85.1235193,278.518866 189.945453,278.518866 C294.767386,278.518866 379.739975,193.546276 379.739975,88.7243432 C379.739975,56.7450433 371.830744,26.6128256 357.861632,0.177264766 L22.0292597,0.177290254 L22.0292732,0.177264766 Z" id="path-9"></path>
        <path d="M372.252818,243.078808 C377.127213,226.269877 379.739975,208.499483 379.739975,190.118755 C379.739975,85.2994578 294.767386,0.32423231 189.945453,0.32423231 C85.1235193,0.32423231 0.150929904,85.2994578 0.150929904,190.118755 C0.150929904,208.499483 2.76369235,226.269877 7.63808747,243.078808 L372.252818,243.078808 L372.252818,243.078808 Z" id="path-11"></path>
        <path d="M95.8211378,0.32121353 C38.6651079,33.0263615 0.150929904,94.6006565 0.150929904,165.169359 C0.150929904,269.991293 85.1235193,354.963882 189.945453,354.963882 C294.767386,354.963882 379.739975,269.991293 379.739975,165.169359 C379.739975,94.6006565 341.225797,33.0263615 284.069767,0.32121353 L95.8211304,0.321217767 L95.8211378,0.32121353 Z" id="path-13"></path>
    </defs>
    <g id="Page-1" stroke="none" stroke-width="1" fill="none" fill-rule="evenodd">
        <g id="Artboard-Copy">
            <g id="Group" transform="translate(-1.000000, -2.000000)">
                <rect id="Rectangle" fill="#2C87B8" x="1" y="2" width="379" height="379"></rect>
                <g id="Page-1">
                    <g id="Group-4">
                        <mask id="mask-2" fill="white">
                            <use xlink:href="#path-1"></use>
                        </mask>
                        <g id="Clip-2"></g>
                        <polygon id="Fill-1" fill="#2C87B8" mask="url(#mask-2)" points="-104.295197 638.033828 507.226469 638.033828 507.226469 -151.877795 -104.295197 -151.877795"></polygon>
                        <polygon id="Fill-3" fill="#2C87B8" mask="url(#mask-2)" points="-104.295197 638.033828 507.226469 638.033828 507.226469 -151.877795 -104.295197 -151.877795"></polygon>
                    </g>
                    <g id="Group-23">
                        <g id="Group-7" transform="translate(32.857501, 0.000000)">
                            <mask id="mask-4" fill="white">
                                <use xlink:href="#path-3"></use>
                            </mask>
                            <g id="Clip-6"></g>
                            <path d="M0.0722611553,510.270746 C0.0722611553,186.349488 140.000909,-76.2417778 312.608483,-76.2417778 C485.216057,-76.2417778 625.144705,186.349488 625.144705,510.270746 C625.144705,834.194639 485.216057,1096.78854 312.608483,1096.78854 C140.000909,1096.78854 0.0722611553,834.194639 0.0722611553,510.270746" id="Fill-5" fill="#2C87B8" mask="url(#mask-4)"></path>
                        </g>
                        <g id="Group-10" transform="translate(0.000000, 1.000000)">
                            <mask id="mask-6" fill="white">
                                <use xlink:href="#path-5"></use>
                            </mask>
                            <g id="Clip-9"></g>
                            <path d="M-380.814126,-189.370273 C-380.814126,-449.167342 -256.983744,-659.778633 -104.230785,-659.778633 C48.5221728,-659.778633 172.349919,-449.167342 172.349919,-189.370273 C172.349919,70.4267962 48.5221728,281.035452 -104.230785,281.035452 C-256.983744,281.035452 -380.814126,70.4267962 -380.814126,-189.370273" id="Fill-8" fill="#2C87B8" mask="url(#mask-6)"></path>
                        </g>
                        <g id="Group-13" transform="translate(334.776450, 68.351037)">
                            <mask id="mask-8" fill="white">
                                <use xlink:href="#path-7"></use>
                            </mask>
                            <g id="Clip-12"></g>
                            <path d="M0.909580787,-220.230149 C0.909580787,-480.027219 124.739963,-690.63851 277.492921,-690.63851 C430.245879,-690.63851 554.073625,-480.027219 554.073625,-220.230149 C554.073625,39.5695557 430.245879,250.175575 277.492921,250.175575 C124.739963,250.175575 0.909580787,39.5695557 0.909580787,-220.230149" id="Fill-11" fill="#2C87B8" mask="url(#mask-8)"></path>
                        </g>
                        <g id="Group-16" transform="translate(0.000000, 101.394412)">
                            <mask id="mask-10" fill="white">
                                <use xlink:href="#path-9"></use>
                            </mask>
                            <g id="Clip-15"></g>
                            <path d="M-207.314781,531.955182 C-207.314781,238.258703 -47.4260757,0.177290254 149.807338,0.177290254 C347.040751,0.177290254 506.926821,238.258703 506.926821,531.955182 C506.926821,825.649026 347.040751,1063.73307 149.807338,1063.73307 C-47.4260757,1063.73307 -207.314781,825.649026 -207.314781,531.955182" id="Fill-14" fill="#2C87B8" mask="url(#mask-10)"></path>
                        </g>
                        <g id="Group-19">
                            <mask id="mask-12" fill="white">
                                <use xlink:href="#path-11"></use>
                            </mask>
                            <g id="Clip-18"></g>
                            <path d="M-112.943145,-189.605255 C-112.943145,-428.567104 26.6507265,-622.286682 198.847079,-622.286682 C371.043432,-622.286682 510.637303,-428.567104 510.637303,-189.605255 C510.637303,49.3592289 371.043432,243.078808 198.847079,243.078808 C26.6507265,243.078808 -112.943145,49.3592289 -112.943145,-189.605255" id="Fill-17" fill="#2C87B8" mask="url(#mask-12)"></path>
                        </g>
                        <g id="Group-22" transform="translate(0.000000, 24.949396)">
                            <mask id="mask-14" fill="white">
                                <use xlink:href="#path-13"></use>
                            </mask>
                            <g id="Clip-21"></g>
                            <path d="M-83.9059009,433.000009 C-83.9059009,194.038161 55.6879705,0.321217767 227.884323,0.321217767 C400.080676,0.321217767 539.671911,194.038161 539.671911,433.000009 C539.671911,671.967129 400.080676,865.686708 227.884323,865.686708 C55.6879705,865.686708 -83.9059009,671.967129 -83.9059009,433.000009" id="Fill-20" fill="#2C87B8" mask="url(#mask-14)"></path>
                        </g>
                    </g>
                    <g id="Group-42" transform="translate(75.000000, 149.000000)" fill="#FEFEFE">
                        <path d="M19.5803847,99 C15.9278373,98.9155054 12.8373954,98.4176726 10.3158861,97.5042177 C7.78982528,96.5907629 5.77125239,95.3416135 4.25561592,93.7636203 C2.73997945,92.1856271 1.64990457,90.3153283 0.99221847,88.1527241 C0.329980913,85.994687 0,83.6219882 0,81.0460456 C0,78.3878921 0.291293496,75.5835858 0.873880487,72.6331267 C1.45646748,69.680384 2.09822346,66.7504777 2.79687271,63.8411241 L16.3169872,3.49373165 L31,1 C28.5740714,11.8906651 26.1481427,22.7173883 23.7222141,33.477886 C21.2962854,44.2452347 18.8316694,55.0719579 16.3260901,65.9580556 C15.9574218,67.705038 15.5523418,69.4337512 15.1131258,71.1327772 C14.6716341,72.8363704 14.4508883,74.5216946 14.4508883,76.1841823 C14.4508883,77.5977536 14.4690941,78.9062777 14.5100573,80.1097544 C14.5487447,81.3177984 14.8605197,82.3545696 15.4431067,83.226919 C16.0256937,84.0992683 16.8995742,84.8277485 18.0647482,85.410076 C19.2299222,85.994687 20.7455587,86.3646362 22.6093819,86.5313418 L19.5803847,99 Z" id="Fill-24"></path>
                        <path d="M38.6711946,17.8786253 C36.9086393,17.8786253 35.3711868,17.3467588 34.0678413,16.2807528 C32.7577428,15.2147468 32.1071955,13.6168743 32.1071955,11.4894081 C32.1071955,9.02554778 32.9400761,6.99354487 34.6058371,5.39567233 C36.2715982,3.80007273 38.1827214,3 40.3369557,3 C42.101762,3 43.6527206,3.54777707 44.9898316,4.64560415 C46.3291935,5.74570415 47,7.35948723 47,9.49149923 C47,11.9553596 46.1513623,13.9669061 44.4540868,15.5329575 C42.7545603,17.0967361 40.8276799,17.8786253 38.6711946,17.8786253 L38.6711946,17.8786253 Z M29.856167,78 L18,78 L30.3446402,25.7679789 L42.1985562,25.7679789 L29.856167,78 Z" id="Fill-26"></path>
                        <path d="M44.7134423,28.2745891 C47.3149343,27.4810257 50.2931942,26.7376302 53.6437366,26.042122 C56.9942789,25.3488942 60.6543091,25 64.6238272,25 C70.6095016,25 75.0028834,26.4890715 77.8017301,29.4694949 C80.6005767,32.4453575 82,36.4473797 82,41.4778418 C82,42.8642974 81.8833814,44.3374064 81.6591148,45.8903279 C81.4281203,47.4455296 81.1522724,49.0531796 80.8270859,50.7041563 L74.3861504,78 L62.5897295,78 L68.6269852,51.9948369 C68.9499291,50.5445315 69.2773582,49.0531796 69.6025447,47.5299028 C69.9277312,46.0089063 70.1228432,44.5517597 70.1901231,43.1653042 C70.2529178,40.8461836 69.714678,38.9306858 68.5776466,37.4051286 C67.4383725,35.8841322 65.2114056,35.1224938 61.8922605,35.1224938 C59.0934139,35.1224938 56.6847911,35.4212202 54.6686347,36.0186731 L44.8816422,78 L33,78 L44.7134423,28.2745891 Z" id="Fill-28"></path>
                        <path d="M112.541544,33.7181051 C110.580933,33.7181051 108.717225,34.1128749 106.952675,34.8956471 C105.185871,35.6829309 103.617382,36.7634723 102.2427,38.1372713 C100.870272,39.5110703 99.6758769,41.1330103 98.6617676,42.9963238 C97.6476582,44.8641491 96.9107388,46.8763472 96.4555164,49.0351742 C104.302469,48.7734982 110.006271,47.8237948 113.571429,46.186064 C117.136586,44.5528448 118.916912,42.0985045 118.916912,38.8252987 C118.916912,37.5169187 118.441407,36.3371209 117.492651,35.2904169 C116.546149,34.2437129 114.896531,33.7181051 112.541544,33.7181051 M84,58.0675077 C84,53.6844348 84.7008622,49.4457348 86.1093474,45.3514078 C87.5133255,41.2638483 89.5415442,37.6319659 92.1894964,34.4557607 C94.8374486,31.2795555 98.0240055,28.7462612 101.753674,26.8468544 C105.478836,24.9474476 109.663727,24 114.306094,24 C119.27523,24 123.133353,25.2745426 125.880462,27.8303952 C128.625318,30.3817362 130,33.6549419 130,37.6477567 C130,41.7714095 128.985891,45.1077784 126.959926,47.6613752 C124.931707,50.2127162 122.301783,52.2136352 119.063394,53.6505974 C115.825005,55.0898154 112.162943,56.0733562 108.079463,56.5967082 C103.991476,57.1200602 99.8539095,57.4471552 95.6712718,57.5779931 C95.6036645,57.7088311 95.574368,57.841925 95.574368,57.9682513 L95.574368,58.9495363 C95.574368,64.9094327 99.3310798,67.8871251 106.851264,67.8871251 C111.299824,67.8871251 115.743876,66.9712591 120.190182,65.1372713 L121.172742,74.7606316 C119.604252,75.4802406 117.379973,76.1998496 114.504409,76.9194586 C111.624339,77.6390676 108.354399,78 104.694591,78 C101.03253,78 97.8932981,77.4743922 95.2791495,76.4276882 C92.6627474,75.38324 90.5218499,73.9417662 88.8542034,72.1077784 C87.1865569,70.2760465 85.9606114,68.1645919 85.1763668,65.7734147 C84.3921223,63.3890049 84,60.8151057 84,58.0675077" id="Fill-30"></path>
                        <path d="M140.446174,11.988055 L152.8785,10 L149.108449,25.7097102 L166,25.7097102 L163.633233,35.6522495 L146.723546,35.6522495 L141.788248,56.2302038 C141.4754,57.6884127 141.253232,58.9020772 141.128546,59.859876 C141.001593,60.8222033 140.940384,61.6984872 140.940384,62.4932563 C140.940384,63.2902898 141.021996,64.0692088 141.185221,64.8300135 C141.348447,65.5930824 141.679431,66.2565222 142.171374,66.8203328 C142.665584,67.381879 143.388763,67.8483247 144.343178,68.212877 C145.295325,68.5751649 146.594326,68.7563089 148.240181,68.7563089 C150.017523,68.7563089 151.726855,68.5276146 153.370443,68.0634332 C155.016298,67.5992518 156.462655,67.1011059 157.711782,66.5689955 L158.600453,76.2149116 C157.086085,76.8783513 155.179523,77.5078266 152.8785,78.1033374 C150.57521,78.7011125 147.879726,79 144.787513,79 C139.129036,79 135.084676,77.7568996 132.652166,75.2706987 C130.217389,72.7867621 129,69.3857841 129,65.0790864 C129,63.4895481 129.113351,61.847931 129.346854,60.1587635 C129.575823,58.4673317 129.920409,56.6604207 130.380614,54.7402947 L140.446174,11.988055 Z" id="Fill-32"></path>
                        <path d="M179.510488,69.279233 C182.641295,69.279233 185.120318,68.7716506 186.94531,67.7587417 C188.770303,66.7435769 189.685046,65.1892468 189.685046,63.0957513 C189.685046,61.3925304 189.096194,60.0367214 187.922985,59.0193007 C186.749775,58.0041359 184.695535,56.8107532 181.760264,55.4346409 C180.193737,54.712746 178.741834,53.961524 177.406803,53.1787191 C176.071771,52.3914024 174.914294,51.4754982 173.93662,50.4264945 C172.956698,49.3797468 172.174558,48.1547813 171.587953,46.7448302 C171.001349,45.3393909 170.706922,43.6519614 170.706922,41.6893094 C170.706922,36.5841584 172.565628,32.528011 176.283039,29.5140995 C180.00045,26.5046998 185.378783,25 192.422535,25 C195.683698,25 198.600989,25.3406442 201.178903,26.0287003 C203.752322,26.7167565 205.691939,27.4206041 207,28.1402431 L202.790381,37.3714751 C201.684597,36.7150019 200.084357,36.0788319 197.998651,35.4539416 C195.910698,34.835819 193.726101,34.5222459 191.444861,34.5222459 C190.334582,34.5222459 189.244531,34.6215065 188.167965,34.8155157 C187.091399,35.0140368 186.12721,35.3411455 185.28214,35.7968417 C184.432574,36.2570498 183.731346,36.8954756 183.180701,37.7143752 C182.623314,38.5332748 182.349116,39.5303923 182.349116,40.7079835 C182.349116,42.2149392 182.949206,43.4399047 184.156128,44.3896478 C185.363051,45.3393909 187.107132,46.3387643 189.392868,47.385512 C191.543752,48.3668379 193.368744,49.316581 194.870093,50.2324853 C196.366946,51.1506454 197.607582,52.1793458 198.585256,53.3253541 C199.562931,54.4713623 200.28214,55.7482141 200.738388,57.1536533 C201.194636,58.5613485 201.423884,60.2465221 201.423884,62.21143 C201.423884,64.6320341 200.933923,66.8744204 199.956248,68.9363329 C198.976326,70.9982454 197.558136,72.7646322 195.701678,74.2377491 C193.840725,75.710866 191.543752,76.8726657 188.804016,77.7231483 C186.064279,78.5736308 182.935721,79 179.411597,79 C177,79 174.831136,78.8353177 172.907252,78.508209 C170.983368,78.1811004 169.302218,77.8043614 167.868295,77.3802482 C166.434372,76.9561349 165.229697,76.5139742 164.249775,76.0560221 C163.272101,75.5980699 162.523674,75.2055395 162,74.876175 L166.207372,65.5479383 C166.66362,65.8118812 167.333383,66.1547813 168.212167,66.5788946 C169.09095,67.0052638 170.104585,67.4135857 171.246329,67.808372 C172.385826,68.1986464 173.655679,68.5438025 175.060384,68.8370723 C176.460593,69.1303421 177.946209,69.279233 179.510488,69.279233" id="Fill-34"></path>
                        <path d="M234.65093,7.65239457 C243.575834,8.57165319 250.104215,16.4137236 249.219622,25.1682433 C248.3418,33.922763 240.396266,40.2758615 231.480389,39.3520633 C228.774711,39.0751508 226.308233,38.1558922 224.180247,36.7713299 L215.751798,38.5281352 L211.852371,39.0887695 L213.17249,36.437673 L213.181516,36.4444824 L213.522265,35.7181546 L213.526778,35.7045359 L217.405895,27.5492366 C216.900414,25.7311474 216.706345,23.8063787 216.902671,21.831675 C217.778237,13.0771553 225.728283,6.72405686 234.65093,7.65239457 M235.406896,0.130362332 C222.248586,-1.22469296 210.539023,8.13812628 209.243727,21.0417935 C208.98196,23.6543038 209.187312,26.2191489 209.758235,28.652347 L202,46.8264303 L220.474889,43.3877221 C223.480697,45.2443976 226.955881,46.4791548 230.722167,46.869556 C243.87822,48.2246113 255.587784,38.8686014 256.883079,25.9649341 C258.178375,13.0544576 248.562948,1.49222695 235.406896,0.130362332" id="Fill-36"></path>
                        <path d="M224,26.3669523 C224.002335,25.377568 224.163475,24.4359472 224.485754,23.5420897 C224.808034,22.6482322 225.268099,21.8635481 225.86595,21.1880374 C226.463802,20.5102524 227.197104,19.9757574 228.061186,19.5845526 C228.929939,19.1910733 229.91546,18.9977454 231.022419,19.0000198 C231.603923,19.0000198 232.13872,19.0455088 232.624475,19.14331 C233.107894,19.2365623 233.567959,19.3798524 234,19.5686315 L233.037833,21.6838668 C232.766931,21.5655956 232.470341,21.4632455 232.141056,21.379091 C231.81177,21.2903875 231.410089,21.2471731 230.929005,21.2471731 C230.286782,21.2448986 229.707613,21.3722676 229.193835,21.6270056 C228.677721,21.8794692 228.241009,22.2251851 227.881364,22.6596044 C227.524054,23.0985726 227.243811,23.6148719 227.049977,24.210777 C226.856142,24.8044075 226.758057,25.4389781 226.758057,26.1076654 C226.758057,26.487498 226.797758,26.8332139 226.879496,27.144813 C226.963568,27.4586867 227.094348,27.7338947 227.283512,27.974986 C227.468006,28.2138029 227.724895,28.4003076 228.05418,28.5322255 C228.383466,28.6618689 228.794489,28.7278279 229.287249,28.7323768 C229.796357,28.7323768 230.284447,28.6664178 230.756189,28.5344999 C231.225596,28.4048565 231.587576,28.275213 231.84213,28.1410206 L232.063989,30.3040193 C231.720691,30.4632306 231.262961,30.6201674 230.695469,30.7725553 C230.127978,30.9249433 229.483419,31 228.771135,31 C227.946754,30.9977256 227.239141,30.8771799 226.643624,30.6360885 C226.043438,30.3949972 225.546007,30.0674769 225.151331,29.6535276 C224.75432,29.2373039 224.464736,28.7505723 224.280243,28.1910585 C224.091079,27.6292702 224,27.0219929 224,26.3669523" id="Fill-38"></path>
                        <path d="M236.777257,31 C236.071512,30.9842175 235.473623,30.8962865 234.988277,30.7384615 C234.500586,30.578382 234.111372,30.3619363 233.818288,30.0891247 C233.52755,29.8140584 233.31653,29.4871353 233.189918,29.1128647 C233.060961,28.7408488 233,28.3282493 233,27.8818302 C233,27.4196286 233.056272,26.932626 233.171161,26.4208223 C233.283705,25.9090186 233.407972,25.4017241 233.541618,24.8966844 L236.162954,14.428382 L239,14 C238.528722,15.8871353 238.057444,17.765252 237.590856,19.6320955 C237.117233,21.498939 236.641266,23.3770557 236.153576,25.2664456 C236.083236,25.5708223 236.003517,25.868435 235.919109,26.1637931 C235.832356,26.4591512 235.792497,26.7522546 235.792497,27.0385942 C235.790152,27.2866048 235.794842,27.512069 235.801876,27.7217507 C235.811254,27.9314324 235.869871,28.1095491 235.98007,28.2628647 C236.092614,28.4139257 236.26143,28.5401857 236.486518,28.6416446 C236.711606,28.7431034 237.004689,28.8084881 237.363423,28.8377984 L236.777257,31 Z" id="Fill-40"></path>
                    </g>
                </g>
            </g>
        </g>
    </g>
</svg>