<?xml version="1.0" encoding="UTF-8"?>
<svg width="493px" height="383px" viewBox="0 0 493 383" version="1.1" xmlns="http://www.w3.org/2000/svg" xmlns:xlink="http://www.w3.org/1999/xlink">
    <!-- Generator: Sketch 48.2 (47327) - http://www.bohemiancoding.com/sketch -->
    <title>Group 3</title>
    <desc>Created with Sketch.</desc>
    <defs>
        <polygon id="path-1" points="0.0573885951 0.0977589286 169.506539 0.0977589286 169.506539 169.454937 0.0573885951 169.454937"></polygon>
    </defs>
    <g id="Home-(NEW)-Copy" stroke="none" stroke-width="1" fill="none" fill-rule="evenodd" transform="translate(-454.000000, -539.000000)">
        <g id="Group-3" transform="translate(454.000000, 539.000000)">
            <g id="Group-17">
                <g id="Group" transform="translate(198.000000, 0.000000)" fill-rule="nonzero">
                    <path d="M268.106219,205.700622 C268.106219,221.091618 255.691871,233.579575 240.407875,233.579575 L9.6957821,233.579575 L9.6957821,9.27437538 L268.106219,9.27437538 L268.106219,205.700622 Z" id="Shape" fill="#FFEAF1"></path>
                    <path d="M240.407875,242.348012 L9.6957821,242.348012 C4.88530897,242.348012 0.986330399,238.422628 0.986330399,233.579575 L0.986330399,9.27437538 C0.986330399,4.43481231 4.88530897,0.509427692 9.6957821,0.509427692 L268.106219,0.509427692 C272.916692,0.509427692 276.815671,4.43481231 276.815671,9.27437538 L276.815671,205.700622 C276.812205,225.906757 260.48155,242.348012 240.407875,242.348012 Z M18.4052338,224.814628 L240.407875,224.814628 C250.877932,224.814628 259.396767,216.238098 259.396767,205.700622 L259.396767,18.0463015 L18.4052338,18.0463015 L18.4052338,224.814628 Z" id="Shape" fill="#454B53"></path>
                </g>
                <path d="M484.258299,18 L190.741701,18 C185.913416,18 182,13.9709511 182,8.99641862 C182,4.02904895 185.913416,0 190.741701,0 L484.258299,0 C489.086584,0 493,4.02904895 493,8.99641862 C493,13.9709511 489.086584,18 484.258299,18 Z" id="Shape" fill="#454B53" fill-rule="nonzero"></path>
                <path d="M269.699876,306 C267.946553,306 266.17937,305.471796 264.644347,304.362916 C260.732289,301.539995 259.827907,296.051566 262.624214,292.102276 L308.210602,227.682318 C311.006909,223.72953 316.436665,222.816541 320.355653,225.639461 C324.267711,228.462382 325.172093,233.954309 322.375786,237.9036 L276.789398,302.320059 C275.091516,304.723214 272.413021,306 269.699876,306 Z" id="Shape" fill="#454B53" fill-rule="nonzero"></path>
                <path d="M405.301081,306 C402.584769,306 399.910034,304.723152 398.212339,302.319878 L352.624035,237.90026 C349.828036,233.950775 350.732318,228.458579 354.643946,225.63552 C358.559038,222.819457 363.991662,223.728993 366.787661,227.678477 L412.375965,292.101594 C415.171964,296.051078 414.267682,301.539777 410.356054,304.362836 C408.817735,305.468271 407.054211,306 405.301081,306 Z" id="Shape" fill="#454B53" fill-rule="nonzero"></path>
                <path d="M280,197 C275.029049,197 271,193.095345 271,188.277869 L271,137.722131 C271,132.904655 275.029049,129 280,129 C284.970951,129 289,132.904655 289,137.722131 L289,188.277869 C289,193.095345 284.970951,197 280,197 Z" id="Shape" fill="#454B53" fill-rule="nonzero"></path>
                <path d="M336,198 C331.029049,198 327,194.054846 327,189.19091 L327,106.812596 C327,101.945154 331.029049,98 336,98 C340.970951,98 345,101.945154 345,106.812596 L345,189.194417 C345,194.054846 340.970951,198 336,198 Z" id="Shape" fill="#454B53" fill-rule="nonzero"></path>
                <path d="M397,196 C392.029049,196 388,192.122316 388,187.341562 L388,130.658438 C388,125.877684 392.029049,122 397,122 C401.970951,122 406,125.877684 406,130.658438 L406,187.341562 C406,192.122316 401.970951,196 397,196 Z" id="Shape" fill="#454B53" fill-rule="nonzero"></path>
                <path d="M246.7959,121 C244.19031,121 241.616197,119.862522 239.877971,117.680915 C236.880667,113.905456 237.541683,108.446252 241.357386,105.483278 L310.379301,51.8558531 C313.135281,49.7191921 316.909015,49.4011132 319.983262,51.0433688 L387.371874,87.0035804 L423.066714,52.4781815 C426.529176,49.1210654 432.097096,49.1832982 435.493107,52.6130194 C438.889118,56.0427405 438.826164,61.5399751 435.356707,64.8970913 L395.038256,103.89634 C392.28927,106.555065 388.113331,107.139363 384.720817,105.331153 L316.713159,69.0355754 L252.220425,119.143387 C250.611604,120.394958 248.695009,121 246.7959,121 Z" id="Shape" fill="#EC407A" fill-rule="nonzero"></path>
                <g id="Page-1" transform="translate(0.000000, 131.000000)">
                    <path d="M221.454591,29.4026181 C191.378779,-0.467539355 142.615115,-0.467539355 112.545409,29.4026181 C82.4848635,59.2849092 82.4848635,107.710541 112.545409,137.592832 C142.615115,167.469056 191.378779,167.469056 221.454591,137.592832 C251.515136,107.719641 251.515136,59.2849092 221.454591,29.4026181" id="Fill-1" fill="#DAF1F9"></path>
                    <g id="Group-5" transform="translate(82.000000, 0.000000)">
                        <mask id="mask-2" fill="white">
                            <use xlink:href="#path-1"></use>
                        </mask>
                        <g id="Clip-4"></g>
                        <path d="M84.7820022,15.4389018 C66.2373052,15.4389018 48.8021722,22.6483839 35.6891426,35.7420982 C8.64390123,62.7784196 8.64390123,106.76817 35.6921993,133.801437 C48.8021722,146.895152 66.2342485,154.107687 84.7820022,154.107687 C103.320586,154.107687 120.761832,146.895152 133.871805,133.801437 C160.920103,106.76817 160.920103,62.7784196 133.868749,35.7390446 C120.761832,22.6483839 103.323643,15.4389018 84.7820022,15.4389018 M84.7820022,169.454937 C62.1322239,169.454937 40.8426549,160.648437 24.8349776,144.65383 C-8.20129828,111.635562 -8.20129828,57.9110268 24.8319209,24.8958125 C40.8426549,8.90425893 62.1352805,0.0977589286 84.7820022,0.0977589286 C107.425667,0.0977589286 128.718293,8.90425893 144.72597,24.8927589 C177.768359,57.9140804 177.768359,111.638616 144.729027,144.65383 C128.718293,160.648437 107.428724,169.454937 84.7820022,169.454937" id="Fill-3" fill="#414A52" mask="url(#mask-2)"></path>
                    </g>
                    <path d="M2.06963688,249.400136 C-2.5870461,244.25639 2.06963688,238.657256 2.06963688,238.657256 L107.834971,133.24867 C110.846313,130.247388 115.733221,130.2535 118.741493,133.24867 C121.752836,136.249953 121.752836,141.109463 118.741493,144.107689 L12.9761594,249.39708 C11.4689535,250.900777 6.60967255,254.412461 2.06963688,249.400136" id="Fill-6" fill="#414A52"></path>
                </g>
            </g>
        </g>
    </g>
</svg>