<?xml version="1.0" encoding="UTF-8"?>
<svg width="5287px" height="1075px" viewBox="0 0 5287 1075" version="1.1" xmlns="http://www.w3.org/2000/svg" xmlns:xlink="http://www.w3.org/1999/xlink">
    <!-- Generator: Sketch 48.2 (47327) - http://www.bohemiancoding.com/sketch -->
    <title>Group</title>
    <desc>Created with Sketch.</desc>
    <defs></defs>
    <g id="Artboard" stroke="none" stroke-width="1" fill="none" fill-rule="evenodd" transform="translate(-150.000000, -38.000000)">
        <g id="Group" transform="translate(150.000000, 45.000000)">
            <g id="bci-logo">
                <path d="M2409,0 L2409,1061" id="Shape" stroke="#FFFFFF" stroke-width="12.9200001" stroke-linecap="round" stroke-linejoin="round"></path>
                <path d="M3593,968.335137 L3641.62886,968.335137 L3641.62886,204 L3593,204 L3593,968.335137 Z M4183.54029,968.335137 L4183.54029,612.530151 C4183.54029,548.061654 4168.83507,500.309432 4139.90284,469.78276 C4110.7315,439.226131 4066.85493,423.857944 4008.30303,423.857944 C3950.67768,423.857944 3892.57411,437.638384 3833.99232,464.809818 L3852.10486,507.10978 C3905.21702,479.518941 3956.53586,465.948203 4006.2706,465.948203 C4052.1796,465.948203 4085.62502,478.829919 4106.21831,504.593351 C4126.78171,530.416699 4137.39219,568.642443 4137.39219,619.090839 L4137.39219,654.38075 L4035.47183,657.316583 C3952.91933,658.904329 3890.06346,674.272516 3846.42601,703.451102 C3803.02767,732.419985 3781.08938,773.132199 3781.08938,825.827406 C3781.08938,873.789331 3795.79461,911.116351 3824.96595,938.257828 C3854.13729,965.399304 3895.05487,979 3947.7187,979 C3986.39464,979 4019.84006,971.75029 4048.32396,957.25087 C4076.80786,942.781407 4104.3951,918.366061 4131.53401,883.735215 L4135.35976,883.735215 L4147.58422,968.335137 L4183.54029,968.335137 Z M3863.61199,908.86954 C3842.80948,890.295903 3832.64733,863.843448 3832.64733,829.901624 C3832.64733,787.362002 3848.69755,756.176266 3880.79798,736.04484 C3912.68919,715.913413 3966.48879,703.900464 4041.77834,700.065906 L4135.35976,696.231349 L4135.35976,749.615578 C4135.35976,808.422111 4118.86121,854.346927 4085.86412,887.36007 C4052.62793,920.40317 4007.64548,936.909741 3950.67768,936.909741 C3912.89841,936.909741 3883.96618,927.622922 3863.61199,908.86954 Z M4478.123,446.475841 C4449.39999,461.634325 4424.98094,485.420564 4404.86587,517.295323 L4401.45856,517.295323 L4403.04266,475.654426 C4404.17843,451.448782 4404.83598,424.996328 4404.83598,396.027445 L4404.83598,204 L4356.2669,204 L4356.2669,968.335137 L4386.75334,968.335137 L4400.5619,888.498454 L4404.86587,888.498454 C4422.17515,917.007912 4447.06641,940.120342 4476.74812,955.243719 C4507.26445,970.821608 4541.18808,978.970043 4579.17658,978.970043 C4650.8496,978.970043 4706.68163,954.764399 4746.25423,906.592772 C4786.00616,858.421144 4805.9419,789.878431 4805.9419,700.964631 C4805.9419,610.493042 4786.93271,541.710669 4749.39254,494.677426 C4711.64315,447.614225 4655.57201,423.857944 4581.20901,423.857944 C4540.94897,423.857944 4506.6069,431.557016 4478.09311,446.475841 L4478.123,446.475841 Z M4754.38395,699.376884 C4754.38395,775.61867 4739.67872,834.185543 4710.29816,875.377078 C4680.9176,916.538655 4637.28015,936.909741 4579.17658,936.909741 C4519.2498,936.909741 4475.40313,919.234828 4447.12845,883.974874 C4419.09288,848.684963 4404.86587,790.327793 4404.86587,708.873405 L4404.86587,700.515269 C4404.86587,616.81407 4418.43533,556.869153 4445.54435,520.470816 C4472.44415,484.252223 4517.45648,465.948203 4580.07324,465.948203 C4696.28038,465.948203 4754.38395,543.747777 4754.38395,699.376884 Z M5270.53134,767.260533 C5259.47254,749.58562 5242.9441,734.007731 5220.7966,719.957673 C5198.61921,705.937572 5163.35058,690.329726 5114.99072,672.92443 C5057.09637,652.343641 5018.00199,633.560302 4998.09614,616.81407 C4978.19029,600.067839 4968.02814,577.899304 4968.02814,549.859103 C4968.02814,523.616351 4980.91016,503.035562 5006.67419,488.116738 C5032.46811,473.407615 5067.0493,465.948203 5110.89597,465.948203 C5156.11753,465.948203 5205.19472,476.583108 5258.09766,498.302281 L5276.38952,454.624275 C5223.78883,434.112972 5167.81516,423.676944 5111.37419,423.857944 C5050.55075,423.857944 5003.29677,435.631233 4969.61224,458.908195 C4935.92771,482.215114 4918.98084,513.88017 4918.98084,553.93332 C4918.98084,579.037688 4924.39069,600.547159 4935.47938,617.952455 C4946.53819,635.59741 4962.82751,651.444917 4984.7658,665.225358 C5006.46497,679.245458 5044.24424,695.781987 5098.04384,715.224391 C5148.22692,733.079049 5184.1531,750.963664 5206.09138,769.297642 C5228.02966,787.601662 5239.08847,810.459219 5239.08847,837.151334 C5239.08847,867.468303 5225.30979,891.673947 5197.72255,909.768264 C5170.13531,928.072284 5129.87528,936.909741 5076.76311,936.909741 C5016.62712,936.909741 4959.89842,923.548705 4905.85971,896.856591 L4905.85971,948.443371 C4947.91307,968.814457 5004.88087,979 5076.524,979 C5143.68384,979 5195.69012,966.088326 5232.30374,940.294936 C5268.70814,914.531504 5287,877.863549 5287,829.901624 C5287,805.93564 5281.62004,785.115191 5270.53134,767.260533 Z" id="Shape" fill="#FFFFFF" fill-rule="nonzero"></path>
                <path d="M2797,897 L2979.97294,571 L3208.89868,654.344834 L3369,897 L2797,897 Z M3091.6741,768.002008 C3091.6741,787.031205 3107.84726,802.501187 3127.73469,802.501187 C3147.65136,802.501187 3164,787.031205 3164,767.973982 C3163.04226,749.498733 3147.127,734.992523 3127.82313,735.000003 C3108.51925,735.007483 3092.61625,749.526022 3091.6741,768.002008 Z M2899,819.848865 C2899.06462,829.353819 2907.1352,837.0206 2917.05441,836.999958 C2926.97363,836.979317 2935.00938,829.27902 2935.03092,819.773886 C2935.05246,810.268753 2927.05168,802.535085 2917.13266,802.473161 C2907.18894,802.473161 2899,810.320253 2899,819.848865 Z" id="Combined-Shape" fill="#FFFFFF" fill-rule="nonzero"></path>
                <polygon id="Shape" points="2797 897 3369 897 3208.89868 654.344834 2979.97294 571"></polygon>
                <path d="M3072.04289,408 C3100.18573,408 3123,430.833462 3123,458.999964 C3123,487.166466 3100.18573,509.999928 3072.04289,509.999928 C3058.51337,510.022724 3045.53018,504.659594 3035.95531,495.092774 C3026.38043,485.525953 3020.99998,472.540884 3021,458.999964 C3021,430.895607 3043.93356,408 3072.04289,408 Z" id="Shape" fill="#FFFFFF" fill-rule="nonzero"></path>
                <path d="M3072.04289,408 C3100.18573,408 3123,430.833462 3123,458.999964 C3123,487.166466 3100.18573,509.999928 3072.04289,509.999928 C3058.51337,510.022724 3045.53018,504.659594 3035.95531,495.092774 C3026.38043,485.525953 3020.99998,472.540884 3021,458.999964 C3021,430.895607 3043.93356,408 3072.04289,408 Z" id="Shape"></path>
                <path d="M3123.23809,265.014333 C3130.56191,264.734243 3137.44952,268.576374 3141.19265,275.029964 C3144.93578,281.483553 3144.93578,289.516447 3141.19265,295.970036 C3137.44952,302.423626 3130.56191,306.265757 3123.23809,305.985667 C3112.13496,306.017472 3103.09197,296.857484 3103,285.485724 C3103,274.065143 3112.05975,265.014333 3123.23809,265.014333 Z" id="Shape" fill="#FFFFFF" fill-rule="nonzero"></path>
                <path d="M3123.23809,265.014333 C3130.56191,264.734243 3137.44952,268.576374 3141.19265,275.029964 C3144.93578,281.483553 3144.93578,289.516447 3141.19265,295.970036 C3137.44952,302.423626 3130.56191,306.265757 3123.23809,305.985667 C3112.13496,306.017472 3103.09197,296.857484 3103,285.485724 C3103,274.065143 3112.05975,265.014333 3123.23809,265.014333 Z" id="Shape" fill="#FFFFFF"></path>
                <path d="M3072.50016,102 C3088.95588,102 3102.44817,115.247114 3103,131.945623 C3103,149.023788 3089.26906,163 3072.38001,163 C3064.29266,162.981569 3056.54478,159.69717 3050.8455,153.871319 C3045.14622,148.045467 3041.96382,140.156844 3042.00031,131.945623 C3042.55214,115.247114 3056.04443,102 3072.50016,102 Z" id="Shape" fill="#FFFFFF" fill-rule="nonzero"></path>
                <path d="M3072.50016,102 C3088.95588,102 3102.44817,115.247114 3103,131.945623 C3103,149.023788 3089.26906,163 3072.38001,163 C3064.29266,162.981569 3056.54478,159.69717 3050.8455,153.871319 C3045.14622,148.045467 3041.96382,140.156844 3042.00031,131.945623 C3042.55214,115.247114 3056.04443,102 3072.50016,102 Z" id="Shape" fill="#FFFFFF"></path>
                <path d="M3190.1202,371.796081 C3198.04899,372.242951 3219.53152,370.008601 3227.46032,366.850719 C3243.52734,360.564747 3253.49069,352.014632 3263.45404,335.361274 C3278.3841,310.157801 3270.93403,277.774616 3263.45404,261.121258 C3254.62765,241.756888 3228.35791,225.371651 3213.18849,225.13332 C3056.37794,224.23958 2937.77519,223.107509 2926.67488,225.13332 C2910.8173,228.052872 2886.40261,246.94058 2880.05957,261.359588 C2869.88679,284.745789 2871.68198,310.604671 2882.99173,333.335463 C2889.78356,347.039479 2903.36723,356.721664 2917.19025,363.037428 C2928.70944,368.191329 2942.08367,371.796081 2954.73981,371.796081 L2954.73981,468.081688 C2954.73981,486.075657 2726.39062,840.17551 2699.91145,896.183226 C2677.5014,942.955628 2736.56341,978.943566 2780.48592,978.943566 C2973.52955,978.943566 3172.01862,979.420227 3362.33953,977.602955 C3401.71421,977.394416 3467.11925,942.747089 3445.84616,896.391766 C3402.64172,802.817171 3210.49569,537.138011 3191.0178,468.081688 C3188.98324,460.425314 3190.1202,374.715632 3190.1202,371.796081 Z" id="Shape" stroke="#FFFFFF" stroke-width="35.9599991" stroke-linecap="round" stroke-linejoin="round"></path>
                <path d="M983.252439,533.381214 C969.888864,533.381214 963.10244,538.684797 963.10244,549.82232 L963.10244,818.831809 C963.10244,884.44891 1006.30236,917.39005 1092.46304,917.39005 C1160.985,917.39005 1213.21355,897.590009 1249.17861,857.754212 C1280.83862,822.809496 1296.65368,776.108506 1296.65368,717.592312 C1296.65368,660.431479 1278.11808,615.468885 1241.25613,582.527745 C1204.39419,549.61607 1151.47802,533.381214 1082.26846,533.381214 L983.252439,533.381214 Z M1246.9065,500.204359 C1386.67096,524.011552 1456.29907,598.998315 1456.29907,724.928935 C1456.29907,797.234443 1428.73483,855.072956 1373.30739,898.915905 C1318.14901,942.729389 1246.24879,964.533006 1157.816,964.533006 C1125.70755,964.533006 881.246806,965.652651 817,965.652651 L817,122 C859.99065,122 963.341609,126.213402 1018.73916,125.535722 C1317.01295,122 1403.62207,192.743897 1403.62207,327.366499 C1403.62207,411.457746 1351.39352,469.090009 1246.9065,500.204359 Z M963.10244,451.057829 C963.10244,469.738225 965.58382,481.111463 970.576475,485.324864 C975.539234,489.302551 989.351251,491.306127 1012.16201,491.306127 L1033.44806,491.306127 C1177.93611,491.306127 1250.28477,439.242625 1250.28477,335.145087 C1250.28477,224.359142 1185.41014,168.70099 1055.15266,168.70099 C1020.32365,168.70099 997.03456,172.266176 985.046207,179.160833 C970.337306,187.617101 963.10244,205.207316 963.10244,232.108265 L963.10244,451.028364 L963.10244,451.057829 Z M1795.29141,423.449735 C1832.6018,423.449735 1868.32769,428.134566 1902.25981,438.152444 C1947.49267,451.499794 1970.09415,470.415905 1970.09415,494.871313 C1970.09415,558.072337 1956.5213,589.658117 1929.37561,589.658117 C1916.2811,589.658117 1902.70825,578.314344 1888.92613,555.391082 L1881.66136,541.601767 C1848.65603,482.849859 1814.72391,453.503369 1779.71552,453.503369 C1726.79936,453.503369 1685.15403,483.085574 1655.07851,542.279447 C1632.47703,587.418827 1621.17629,634.149281 1621.17629,682.235096 C1621.17629,742.283435 1636.30374,793.227291 1666.16998,835.272915 C1703.71953,887.778381 1758.1903,914.031115 1829.88125,914.031115 C1850.68896,914.031115 1878.97071,905.810562 1914.6966,889.575707 C1926.23651,884.24266 1935.50431,879.999794 1942.73918,876.434608 C1942.73918,876.434608 1945.22056,875.108712 1948.83799,873.340851 C1956.76047,869.775665 1970.33332,864.648869 1975.98369,868.65602 C1979.36195,871.101561 1981.18562,875.108712 1981.18562,880.235508 C1981.18562,906.458777 1953.38221,930.059719 1897.74549,951.185656 C1850.00135,969.659802 1807.27977,979 1769.28177,979 C1677.91917,979 1606.46739,950.095475 1555.34499,892.021247 C1510.59047,841.519356 1488.19826,779.437977 1488.19826,705.364608 C1488.19826,627.284089 1513.52029,562.285739 1564.16435,510.457952 C1620.24951,452.383724 1697.38155,423.449735 1795.29141,423.449735 Z M2023.69793,965.4464 L2023.69793,449.260503 C2023.69793,449.260503 2059.63309,451.264079 2085.64273,453.503369 C2121.36862,456.390875 2143.10312,456.832841 2143.10312,456.832841 L2144,965.4464 L2023.69793,965.4464 Z M2023.9371,323.565599 C2023.9371,285.969092 2049.94674,255.267242 2082.0253,255.267242 C2114.13376,255.267242 2140.1434,285.969092 2140.1434,323.565599 C2140.1434,361.39782 2114.13376,392.09967 2082.0253,392.09967 C2049.91685,392.09967 2023.9072,361.39782 2023.9072,323.565599 L2023.9371,323.565599 Z" id="Shape" fill="#FFFFFF" fill-rule="nonzero"></path>
                <path d="M409.443719,532.529136 C447.952652,504.066182 478.94173,465.916256 501.865157,423.490907 C514.964259,399.572458 525.728567,374.936456 536.068367,349.642696 C550.25906,314.901149 561.96335,269.515893 597.318796,251.457464 C622.304119,238.601297 655.082195,245.567546 674.124407,266.795169 C692.924044,287.335137 697.078157,317.382688 692.014384,344.021861 C681.704906,401.127158 650.048744,452.372434 610.144999,492.106957 C586.493844,515.367649 560.113709,532.768321 532.61166,549.690623 C516.328749,559.855964 500.045838,569.78212 483.762927,579.708277 C479.184306,562.546789 453.956406,553.278391 439.947645,546.521429 C430.092997,541.767637 419.783519,537.25303 409.443719,532.529136 M5.76700864,863.709959 C34.2090393,776.557111 114.50168,727.793373 184.454521,680.614233 C236.062555,645.633501 288.792503,612.65594 340.855368,578.57215 L343.402415,576.987553 C367.235503,590.979846 391.796318,602.968968 416.326812,613.104411 C419.055791,613.792066 422.08799,614.479722 425.2718,615.137479 L422.54282,616.931363 C373.906342,646.291259 325.967269,674.305742 280.544921,708.628716 C235.068048,743.336696 192.712886,781.848677 153.950595,823.736251 C124.84148,854.919929 106.708928,892.172913 87.4241393,930.322839 C80.3287926,944.315132 73.6579539,964.167444 61.0440043,973.884314 C52.3415919,980.671174 37.6657467,982.255771 28.2659284,976.365853 C-5.6947052,955.377414 -3.17797968,896.896807 5.76700864,863.709959" id="Shape" fill="#EE0027" fill-rule="nonzero"></path>
                <path d="M592.748534,890.374086 C570.43516,871.851362 578.246315,838.256223 576.684084,811.985431 C574.91552,780.660234 569.550878,745.914993 556.640366,717.374258 C542.78662,686.50305 511.365145,679.662959 486.605259,663.198315 C463.201271,647.641647 464.99931,616.10459 489.081248,602.394141 C538.335736,573.823141 595.872996,608.356522 622.165637,654.965993 C638.908036,684.44497 649.165703,718.282235 659.187562,750.727269 C669.209421,783.868419 682.59155,826.815717 666.556576,859.987133 C654.058729,886.257925 617.921085,910.924626 592.748534,890.374086" id="Shape" fill="#008A2A" fill-rule="nonzero"></path>
                <path d="M403.905143,588.195427 C292.43571,541.182282 176.180314,450.664436 163.881839,313.367341 C160.80722,278.458327 166.086282,243.139994 174.846045,209.371224 C182.097505,180.894357 190.42218,150.429371 203.822877,124.583836 C227.056552,79.5588092 282.805772,69.4135596 322.282716,98.0950865 C368.372992,131.659197 339.39616,192.150613 328.199907,236.970981 C320.553852,267.190747 314.329981,297.7581 309.549154,328.570597 C304.734185,358.830924 304.067051,390.17302 313.522953,419.790132 C321.231343,444.031344 335.243727,465.747482 354.10212,482.678984 C374.957317,501.449158 402.164792,510.951193 426.50069,523.08456 C443.614134,531.475588 477.841022,543.842852 466.876815,570.770157 C456.782784,596.147899 424.528293,594.159781 403.934148,588.195427" id="Shape" fill="#0061C6" fill-rule="nonzero"></path>
                <path d="M143.952938,951.98015 C147.122123,963.355946 156.9851,976.297761 187.669916,978.306992 C240.775974,981.43903 296.073805,973.608936 350.305367,961.789927 C440.819652,942.170373 478.464827,916.493576 478.464827,916.493576 C478.464827,916.493576 533.792276,885.941438 530.889658,802.499235 C527.987041,718.820652 474.199756,680.467968 474.199756,680.467968 C474.199756,680.467968 452.69669,665.280542 417.065576,678.222357 C392.659892,687.145708 324.092952,727.537171 279.961314,756.080078 C255.76296,771.474337 232.038502,792.009865 212.312549,812.988606 C192.586595,833.967346 169.306416,861.387447 153.608585,899.562846 C150.942916,905.35416 149.136184,910.938642 147.773731,915.813983 C144.663784,926.332901 141.287269,941.047567 143.982557,951.98015" id="Shape" fill="#FFCB00" fill-rule="nonzero"></path>
            </g>
        </g>
    </g>
</svg>