<?xml version="1.0" encoding="UTF-8"?>
<svg width="206px" height="274px" viewBox="0 0 206 274" version="1.1" xmlns="http://www.w3.org/2000/svg" xmlns:xlink="http://www.w3.org/1999/xlink">
    <!-- Generator: Sketch 48.2 (47327) - http://www.bohemiancoding.com/sketch -->
    <title>if_Experiment_728987</title>
    <desc>Created with Sketch.</desc>
    <defs></defs>
    <g id="Home-(NEW)-Copy" stroke="none" stroke-width="1" fill="none" fill-rule="evenodd" transform="translate(-1048.000000, -4035.000000)">
        <g id="Group-18" transform="translate(0.000000, 2623.000000)">
            <g id="if_Experiment_728987" transform="translate(1048.000000, 1412.000000)">
                <path d="M95.1733284,68.3715889 C80.917806,68.3715889 69.3207867,56.8702056 69.3207867,42.732243 C69.3207867,28.5942804 80.917806,17.0928972 95.1733284,17.0928972 C109.431005,17.0928972 121.02587,28.5942804 121.02587,42.732243 C121.02587,56.8702056 109.431005,68.3715889 95.1733284,68.3715889 Z M55.1967699,160.452301 L158.755764,180.449536 L199,259 L6,256.58835 L55.1967699,160.452301 Z M95.1733284,34.1857944 C99.9366592,34.1857944 103.790842,38.0081936 103.790842,42.732243 C103.790842,47.4562925 99.9366592,51.2786916 95.1733284,51.2786916 C90.4099976,51.2786916 86.5558145,47.4562925 86.5558145,42.732243 C86.5558145,38.0081936 90.412152,34.1857944 95.1733284,34.1857944 Z M129.645538,17.0928972 C134.408869,17.0928972 138.263052,13.2704981 138.263052,8.54644861 C138.263052,3.82239914 134.408869,0 129.645538,0 C124.882208,0 121.028025,3.82239914 121.028025,8.54644861 C121.028025,13.2704981 124.882208,17.0928972 129.645538,17.0928972 Z" id="Shape" fill="#EC407A"></path>
                <path d="M202.596151,235.441852 L137.334819,125.673659 L137.334819,102.181818 L145.917884,102.181818 C150.662173,102.181818 154.500949,98.3395341 154.500949,93.5909091 C154.500949,88.8422841 150.662173,85 145.917884,85 L128.751755,85 C124.007466,85 120.16869,88.8422841 120.16869,93.5909091 L120.16869,127.954545 C120.16869,129.447216 120.563511,130.924852 121.299509,132.215636 L187.056513,242.991114 C189.043492,245.57483 189.395398,249.082068 187.953443,252.018011 C186.502905,254.953955 183.52029,256.816034 180.250143,256.816034 L25.7528336,256.816034 C22.4848318,256.816034 19.500071,254.953955 18.0495331,252.018011 C16.6075783,249.082068 16.9594839,245.57483 18.9464634,242.991114 L84.7034672,132.215636 C85.4416108,130.924852 85.834286,129.447216 85.834286,127.954545 L85.834286,93.5909091 C85.834286,88.8422841 81.9955103,85 77.2512213,85 L60.0850921,85 C55.3408031,85 51.5020275,88.8422841 51.5020275,93.5909091 C51.5020275,98.3395341 55.3408031,102.181818 60.0850921,102.181818 L68.6681567,102.181818 L68.6681567,125.673659 L3.39824181,235.441852 C-1.1658028,243.412068 -1.12717901,253.21 3.48192669,261.165182 C8.09103239,269.120364 16.5753918,274 25.7528336,274 L180.247997,274 C189.425439,274 197.907652,269.118216 202.518904,261.163034 C207.130155,253.207852 207.164487,243.412068 202.596151,235.441852 Z" id="Shape" fill="#4A4A4A" fill-rule="nonzero"></path>
            </g>
        </g>
    </g>
</svg>