<?xml version="1.0" encoding="UTF-8"?>
<svg width="233px" height="88px" viewBox="0 0 233 88" version="1.1" xmlns="http://www.w3.org/2000/svg" xmlns:xlink="http://www.w3.org/1999/xlink">
    <!-- Generator: Sketch 50 (54983) - http://www.bohemiancoding.com/sketch -->
    <title>2Brains</title>
    <desc>Created with Sketch.</desc>
    <defs></defs>
    <g id="Page-1" stroke="none" stroke-width="1" fill="none" fill-rule="evenodd">
        <g id="Logos" transform="translate(-119.000000, -481.000000)">
            <g id="2Brains" transform="translate(119.000000, 481.000000)">
                <rect id="Rectangle-3-Copy-10" fill="#FFFFFF" x="-1.42108547e-14" y="0" width="233" height="88"></rect>
                <g id="descarga" transform="translate(25.000000, 30.000000)" fill="#000000" fill-rule="nonzero">
                    <path d="M46.9179254,15.7079041 L46.9179254,20.6945191 L50.8276264,20.6945191 C53.0119312,20.6945191 54.6853937,20.251962 54.6853937,18.2267658 C54.6853937,15.8627608 52.6080453,15.7077127 49.7659778,15.7077127 L46.9179254,15.7077127 L46.9179254,15.7079041 Z M46.9179254,6.29686714 L46.9179254,10.8020673 L50.6359157,10.8020673 C52.4167207,10.8020673 53.6990393,10.0061537 53.6990393,8.43614811 C53.6990393,6.34510432 51.9502826,6.29686714 50.0567294,6.29686714 L46.9179254,6.29686714 Z M38,27 L38,0 L51.0166342,0 C57.1262781,0 62.0196306,1.43945893 62.0196306,6.79627516 C62.0196306,9.56914777 60.2004062,11.5857302 58.4672876,12.6779579 C61.4192074,13.4342481 63,15.9439218 63,18.8639944 C63,24.9114446 58.3545393,27 51.2790057,27 L38,27 Z" id="Shape"></path>
                    <path d="M73.9528722,11.6636371 L77.4825041,11.6636371 C80.2544988,11.6636371 81.7405066,10.9961646 81.7405066,9.10840606 C81.7405066,7.20916251 80.2256198,6.29667572 78.1356731,6.29667572 L73.9528722,6.29667572 L73.9528722,11.6636371 Z M73.9528722,17.588963 L73.9528722,27 L65,27 L65,0 L77.9174332,0 C87.0147004,0 90.0190837,2.43808356 90.0190837,7.69115155 C90.0190837,10.8020673 88.6107972,13.4340567 85.4124014,14.2925638 C88.3076648,15.330429 90.0626929,16.0191488 90.0626929,21.4536805 C90.0626929,24.9801635 89.9446573,26.1832219 91,26.1832219 L91,27 L81.9339377,26.9998086 C81.7001923,26.4046919 81.4763318,24.6819352 81.4763318,22.2702672 C81.4763318,18.7499096 80.8704546,17.588963 76.6921116,17.588963 L73.9528722,17.588963 Z" id="Shape"></path>
                    <polygon id="Shape" points="105.922297 8.13970025 100.542626 27 92 27 101.549743 0 110.43967 0 120 27 111.294972 27"></polygon>
                    <rect id="Rectangle-path" x="122" y="0" width="8" height="27"></rect>
                    <polygon id="Shape" points="150.880455 14.7353648 150.550807 8.58543606 150.550807 0 159 0 159 27 150.736067 27 141.119545 12.2944976 141.446328 18.4597404 141.446328 27 133 27 133 0 141.263933 0"></polygon>
                    <path d="M177.687422,8.12200167 C177.547846,7.22557459 177.051084,6.69057668 176.39564,6.37089427 C175.753469,6.04688675 174.95322,5.91224405 174.073328,5.91224405 C172.098347,5.91224405 171.22127,6.44366903 171.22127,7.35833682 C171.22127,11.2225449 187,8.8211659 187,18.166799 C187,24.1143962 181.702546,27 174.146937,27 C166.91372,27 162.185431,23.0385708 162,18.4097576 L170.606854,18.4097576 C170.798319,19.3392812 171.331081,20.0181362 172.098347,20.443878 C172.81473,20.8752612 173.77346,21.0930213 174.650336,21.0930213 C176.903664,21.0930213 178.38671,20.4113456 178.38671,19.1982449 C178.38671,15.3157961 162.603154,17.9817593 162.603154,8.19289595 C162.603355,2.74137066 167.639958,0 174.494871,0 C182.115844,0 185.59358,3.62049728 186.234745,8.12200167 L177.687422,8.12200167 Z" id="Shape"></path>
                    <path d="M0,33 C0.850169085,30.9307134 2.22491909,29.0802698 4.0616523,27.2744336 C11.0369987,20.3425618 22,17.608549 22,11.006848 C22,8.46022436 19.4654922,7 16.9701829,7 C12.2429548,7 10.862805,10.7862893 10.918003,14.6354865 L0,14.6354865 L0,33 Z" id="Shape"></path>
                    <path d="M33,11 C32.6476267,17.4949588 27.3767345,20.3326492 22.2154565,23.4521233 C20.0827845,24.7621496 17.8795202,25.910475 16,27 L33,27 L33,11 Z" id="Shape"></path>
                    <path d="M33,8 L33,0 L27,0 C30.3276382,1.64625564 32.6299316,4.2435838 33,8" id="Shape"></path>
                    <path d="M7,0 L0,0 L0,11 C0.637979684,5.70479166 3.08323928,2.13622546 7,0" id="Shape"></path>
                </g>
            </g>
        </g>
    </g>
</svg>