<?xml version="1.0" encoding="UTF-8"?>
<svg width="233px" height="88px" viewBox="0 0 233 88" version="1.1" xmlns="http://www.w3.org/2000/svg" xmlns:xlink="http://www.w3.org/1999/xlink">
    <!-- Generator: Sketch 52.2 (67145) - http://www.bohemiancoding.com/sketch -->
    <title>Bci Labs</title>
    <desc>Created with Sketch.</desc>
    <g id="Page-1" stroke="none" stroke-width="1" fill="none" fill-rule="evenodd">
        <g id="Logos" transform="translate(-119.000000, -61.000000)">
            <g id="Bci-Labs" transform="translate(119.000000, 61.000000)">
                <polygon id="Rectangle-3-Copy-10" fill="#FFFFFF" points="-1.42108547e-14 0 233 0 233 88 -1.42108547e-14 88"></polygon>
                <g id="Labs_Bci_Trazados-01" transform="translate(37.000000, 20.000000)">
                    <path d="M161.00084,32.8776383 C161.033771,32.34512 161.271587,31.9593356 161.539743,32.0034317 C161.8079,32.0475277 162.010812,32.5057863 161.999553,33.0418684 C161.988294,33.5779504 161.766877,34.0007702 161.497811,33.9999989 C161.206057,33.9600623 160.984589,33.4598996 161.00084,32.8776383" id="Path" fill="#000000"></path>
                    <path d="M140.137704,35.9533974 C140.031014,35.9129933 139.915434,35.8683362 139.819858,35.8236791 C139.37941,35.6478952 138.962933,35.4215313 138.579594,35.1495695 C138.579594,35.1495695 137.363779,34.3499947 137.081497,33.1017224 C136.774765,32.1192661 137.432683,30.7093775 137.432683,30.7093775 C137.432683,30.7093775 137.654952,29.7970967 138.717401,30.0416475 C139.77985,30.2861983 139.308638,31.2814138 139.308638,31.2814138 C139.16194,31.5770013 138.864099,33.1314938 138.864099,33.1314938 C138.759632,34.6455822 140.017678,34.998586 140.017678,34.998586 L140.742277,35.3239449 C140.742277,35.3239449 141.171257,35.521712 140.922315,35.8215526 C140.715605,36.0788626 140.293292,35.9916749 140.175489,35.9597769 L140.142149,35.9597769" id="Path" fill="#137EBF"></path>
                    <path d="M146.829767,34.8978668 C146.829767,35.1133376 146.858289,35.2555484 146.91972,35.3051067 C147.085975,35.3704896 147.266002,35.3949021 147.444077,35.376212 L147.707353,35.376212 C149.518106,35.376212 150.422751,34.7599655 150.421288,33.5274725 C150.421288,32.2116642 149.608058,31.55376 147.981599,31.55376 C147.683445,31.5311837 147.383878,31.5731082 147.104013,31.6765783 C146.921914,31.7778496 146.831961,31.9868563 146.831961,32.3057531 L146.829767,34.8978668 Z M150.377409,35.4817927 C152.132581,35.7690871 153.00651,36.6568268 152.999197,38.1450119 C153.020118,38.9593519 152.631104,39.7315168 151.959258,40.2092222 C151.267427,40.7263521 150.369364,40.984917 149.265068,40.984917 C148.861379,40.984917 145.805185,41 145,41 L145,31 C145.537521,31 146.829767,31.0495583 147.525254,31.0409395 C151.254995,31 152.338814,31.8403361 152.338814,33.4326654 C152.338814,34.4281405 151.685012,35.1111829 150.377409,35.4817927 Z M147.086461,35.8739496 C146.915332,35.8739496 146.834155,35.9407455 146.834155,36.0721827 L146.834155,39.2482224 C146.834155,40.0282267 147.373139,40.4182288 148.451107,40.4182288 C149.309679,40.4182288 149.962749,40.1833657 150.410318,39.7136393 C150.822557,39.2569626 151.036023,38.6597386 151.004883,38.0502047 C151.034661,37.4406104 150.779345,36.8510348 150.31159,36.4492566 C149.850857,36.0585362 149.18828,35.8638943 148.323857,35.8653307 L147.086461,35.8739496 Z" id="Shape" fill="#000000" fill-rule="nonzero"></path>
                    <path d="M157.737741,34.0022938 C158.177728,33.9995448 158.615916,34.0627232 159.039607,34.1899981 C159.590232,34.3593897 159.867679,34.5951646 159.867679,34.9019008 C159.867679,35.6984994 159.701211,36.0967986 159.372543,36.0967986 C159.210344,36.0967986 159.048144,35.9548759 158.879541,35.6641632 C158.859622,35.6321161 158.829743,35.5748892 158.789905,35.4924825 C158.388674,34.7508218 157.976772,34.3822805 157.549931,34.3822805 C156.9054,34.3822805 156.400305,34.7553999 156.034644,35.5016388 C155.765171,36.0435406 155.623048,36.6477823 155.620608,37.2619384 C155.602515,37.9517389 155.794298,38.6291051 156.166965,39.1916297 C156.622262,39.8508837 157.286712,40.1805107 158.160314,40.1805107 C158.519098,40.1502128 158.869081,40.04607 159.191136,39.8737745 C159.628648,39.6654685 159.818592,39.5624601 159.758835,39.5624601 C159.9189,39.5624601 160,39.6288433 160,39.7570316 C160,40.0866586 159.660661,40.3842385 158.986252,40.6497713 C158.489358,40.8662535 157.96015,40.9848933 157.424012,41 C156.312091,41 155.441334,40.6360369 154.82028,39.9035325 C153.686867,38.5144766 153.733226,36.4260984 154.926991,35.0964723 C155.609937,34.3639679 156.546854,33.9984787 157.737741,34.0000048" id="Path" fill="#000000"></path>
                    <path d="M160,41 L162,41 L162,35.08867 C162,35.08867 161.638484,35.08867 161.043732,35.0485574 C160.609329,35.0232231 160.014577,35 160.014577,35 L160,41 Z" id="Path" fill="#000000"></path>
                    <path d="M135.07809,39.570987 C135.280897,39.0508136 135.620249,38.5922143 136.061903,38.2414622 C136.061903,38.2414622 136.625403,37.8367259 136.985672,37.5902664 C137.345942,37.3438069 137.934845,36.9865536 137.934845,36.9865536 C137.934845,36.9865536 139.147292,36.2810915 139.426732,36.0934205 C139.599939,36.1250758 139.787002,36.1499479 139.974065,36.1657756 C139.974065,36.1657756 140.489066,36.1906476 140.625322,35.9080105 C140.761578,35.6253735 140.343573,35.5507573 140.343573,35.5507573 L140.246577,35.5304074 C140.432592,35.4011409 140.61144,35.2622635 140.782363,35.1143656 C141.3551,34.6350132 141.823912,33.554209 141.823912,33.554209 L142.269631,32.5321934 C142.269631,32.5321934 142.59295,31.9058696 143.225732,32.0121412 C144.050196,32.1500681 143.999388,33.0228513 143.999388,33.0228513 C143.803087,34.4111646 142.689946,35.2545536 142.297344,35.4919688 C141.678419,35.8695719 139.336664,37.1990967 139.336664,37.1990967 C138.591489,37.6735414 137.895366,38.2180296 137.258184,38.8248251 C136.765592,39.2826126 136.372794,39.8333297 136.103473,40.4437702 C135.872531,40.8959896 135.83558,40.9751279 135.526117,41 L135.507642,41 C135.202798,41 134.842528,40.3827206 135.073471,39.5732481" id="Path" fill="#EE4034"></path>
                    <path d="M142.812678,39.8973628 C142.616875,39.7285056 142.52883,39.4722513 142.581402,39.2242365 C142.58976,38.9453623 142.567612,38.6664154 142.515323,38.3920077 C142.473855,38.1536158 142.404805,37.9204449 142.309462,37.6968519 C142.233025,37.4892757 142.075185,37.3188059 141.869783,37.2219919 C141.483476,37.001696 141.107335,36.9405027 141.020924,36.6614613 C140.934513,36.3824199 141.125125,36.1719149 141.419939,36.0691102 C141.89421,35.9215563 142.413731,36.0135331 142.802512,36.3138834 C143.346392,36.7153114 143.628498,37.6430018 143.628498,37.6430018 C143.778527,38.0021705 143.889258,38.3754285 143.958892,38.7567197 C144.04739,39.0560432 143.991393,39.3778292 143.806403,39.6330077 C143.659949,39.7945456 143.471285,39.9154001 143.259981,39.9830334 C143.104801,40.0234336 142.938923,39.9907559 142.812678,39.894915" id="Path" fill="#02A34A"></path>
                    <path d="M137.089641,40.7449229 C137.089641,40.7449229 136.865862,40.5639962 137.125445,39.9617007 C137.398447,39.3865667 137.779228,38.8769713 138.244339,38.464294 C138.244339,38.464294 140.07485,37.2430387 140.526883,37.074015 C140.763998,36.9661431 141.034018,36.9766204 141.263116,37.1025824 C141.718732,37.4900084 141.986573,38.07474 141.992634,38.6952136 C142.047919,39.2850365 141.788847,39.8582994 141.321298,40.1807172 C141.321298,40.1807172 140.649962,40.7092137 138.964907,40.8710955 C138.141401,41.0258354 137.680417,41.0210742 137.423071,40.9615588 C137.107543,40.892521 137.103067,40.7449229 137.103067,40.7449229" id="Path" fill="#FFD600"></path>
                    <path d="M149.002475,52.9999999 C142.126312,53.0009004 135.926762,48.859374 133.294952,42.5068002 C130.663142,36.1542263 132.117427,28.8417903 136.979609,23.9796089 C141.84179,19.1174274 149.154226,17.6631424 155.5068,20.294952 C161.859374,22.9267616 166.0009,29.126312 166,36.0024749 C165.988958,45.385371 158.385371,52.9889575 149.002475,52.9999999 Z M149.002475,19.951236 C140.13762,19.951236 132.951236,27.1376204 132.951236,36.0024749 C132.951236,44.8673293 140.13762,52.0537137 149.002475,52.0537137 C157.867329,52.0537137 165.053714,44.8673293 165.053714,36.0024749 C165.045122,27.1411817 157.863768,19.9598279 149.002475,19.951236 Z" id="Shape" fill="#3F4040" fill-rule="nonzero"></path>
                    <path d="M29.5592388,28.7445049 C28.1461723,26.3437072 26.9942887,22.1232393 26.9942887,19.3365189 L26.9942887,1.46291603 C26.9930594,0.655482152 26.342138,0.00123555515 25.5388078,0 L16.4532142,0 C15.6542463,0.00737812818 15.0100848,0.659833718 15.008895,1.46291603 L15.008895,19.3365189 C15.008895,22.1232393 13.8570113,26.3437072 12.4439448,28.7445049 L7.82524865,36.5796319 L0.721966318,48.615033 C-0.0972997459,50.0039058 -0.224542704,51.3434163 0.367025435,52.3845099 C0.958593574,53.4256035 2.16628551,54 3.77579732,54 L38.225154,54 C39.8346658,54 41.0445901,53.4256035 41.6339259,52.3845099 C42.2232617,51.3434163 42.0982511,50.0039058 41.278985,48.615033 L29.5592388,28.7445049 Z M13.4462621,29.34807 C14.9508543,26.7946981 16.1764049,22.3027382 16.1764049,19.3365189 L16.1764049,1.46291603 C16.1764025,1.38933128 16.2056373,1.31879262 16.2576143,1.26697143 C16.3095912,1.21515023 16.3800058,1.18633822 16.4532142,1.18693647 L25.5388078,1.18693647 C25.6120162,1.18633822 25.6824307,1.21515023 25.7344077,1.26697143 C25.7863847,1.31879262 25.8156195,1.38933128 25.8156171,1.46291603 L25.8156171,19.3365189 C25.8156171,22.3027382 27.0389353,26.7946981 28.5457598,29.34807 L32.6554842,36.3305771 L28.4296786,36.3305771 C28.4036805,36.3283814 28.377545,36.3283814 28.3515469,36.3305771 C28.2717424,34.5443167 26.8076927,33.1373842 25.0287198,33.1373842 C23.249747,33.1373842 21.7856973,34.5443167 21.7058928,36.3305771 L9.33653782,36.3305771 L13.4462621,29.34807 Z M27.184037,36.5549508 C27.1849398,37.4301948 26.6609607,38.2197193 25.8566228,38.55508 C25.0522849,38.8904408 24.1261437,38.7055296 23.5103979,38.0866382 C22.894652,37.4677469 22.7106806,36.5368747 23.0443369,35.7284279 C23.3779932,34.9199811 24.163505,34.3933253 25.0343007,34.3942328 C26.2210572,34.3954695 27.1828065,35.3621318 27.184037,36.5549508 Z M40.6048206,51.8123572 C40.232021,52.4697719 39.385967,52.8287697 38.218457,52.8287697 L3.77356498,52.8287697 C2.60605503,52.8287697 1.76446564,52.4697719 1.38720143,51.8146009 C1.00993722,51.1594299 1.13941251,50.2439855 1.73321299,49.2343042 L8.64005005,37.5197573 L21.842065,37.5197573 C22.2637817,38.9454109 23.5712996,39.9200273 25.0510486,39.9117154 C26.5307976,39.9034035 27.8273962,38.9141596 28.2332333,37.4838576 C28.2961482,37.5071841 28.362621,37.5193317 28.4296786,37.5197573 L33.3408103,37.5197573 L40.2476473,49.2343042 C40.8526095,50.2260357 40.9753878,51.1392363 40.6048206,51.796651 L40.6048206,51.8123572 Z" id="Shape" fill="#3F4040" fill-rule="nonzero"></path>
                    <path d="M28,47 C26.8954305,47 26,47.8954305 26,49 C26,50.1045695 26.8954305,51 28,51 C29.1045695,51 30,50.1045695 30,49 C29.9988693,47.8958992 29.1041008,47.0011307 28,47 Z M28,49.9169231 C27.4935974,49.9169231 27.0830769,49.5064026 27.0830769,49 C27.0830769,48.4935974 27.4935974,48.0830769 28,48.0830769 C28.5064026,48.0830769 28.9169231,48.4935974 28.9169231,49 C28.9169231,49.2431831 28.820319,49.4764061 28.6483625,49.6483625 C28.4764061,49.820319 28.2431831,49.9169231 28,49.9169231 Z" id="Shape" fill="#FFD600" fill-rule="nonzero"></path>
                    <path d="M21.5,43 C20.1192881,43 19,44.1192881 19,45.5 C19,46.8807119 20.1192881,48 21.5,48 C22.8807119,48 24,46.8807119 24,45.5 C24,44.1192881 22.8807119,43 21.5,43 Z M21.5,46.8181818 C20.7770091,46.8181818 20.1909091,46.2320819 20.1909091,45.5090909 C20.1909091,44.7861 20.7770091,44.2 21.5,44.2 C22.2229909,44.2 22.8090909,44.7861 22.8090909,45.5090909 C22.8090909,45.8562834 22.6711692,46.1892558 22.4256671,46.434758 C22.1801649,46.6802601 21.8471925,46.8181818 21.5,46.8181818 Z" id="Shape" fill="#137EBF" fill-rule="nonzero"></path>
                    <path d="M10.5,45 C9.11928813,45 8,46.1192881 8,47.5 C8,48.8807119 9.11928813,50 10.5,50 C11.8807119,50 13,48.8807119 13,47.5 C12.9988737,46.1197549 11.8802451,45.0011263 10.5,45 Z M10.5,48.9195261 C9.92079857,48.9195114 9.39882955,48.5700514 9.17814492,48.0345399 C8.9574603,47.4990284 9.08166612,46.8832794 9.49268869,46.4751927 C9.90371125,46.067106 10.5203348,45.9473173 11.0542506,46.171835 C11.5881664,46.3963527 11.9338757,46.9208133 11.9297386,47.5 C11.9241268,48.2856317 11.2856517,48.9195462 10.5,48.9195261 Z" id="Shape" fill="#02A34A" fill-rule="nonzero"></path>
                    <path d="M25.5,40 C23.5670034,40 22,38.4329966 22,36.5 C22,34.5670034 23.5670034,33 25.5,33 C27.4329966,33 29,34.5670034 29,36.5 C29,38.4329966 27.4329966,40 25.5,40 Z M25.5,34.2786667 C24.5992431,34.277723 23.7866994,34.8197243 23.4415586,35.6517349 C23.0964177,36.4837456 23.2867165,37.4417535 23.9236482,38.0786851 C24.5605799,38.7156168 25.5185877,38.9059156 26.3505984,38.5607748 C27.1826091,38.2156339 27.7246104,37.4030903 27.7236667,36.5023333 C27.7249055,35.9115574 27.4912485,35.3445198 27.0741629,34.9261213 C26.6570773,34.5077227 26.0907769,34.2722846 25.5,34.2716667 L25.5,34.2786667 Z" id="Shape" fill="#EE4034" fill-rule="nonzero"></path>
                    <polygon id="Path" fill="#3F4040" points="44 1 45.861809 1 45.861809 29.4045434 63 29.4045434 63 31 44 31"></polygon>
                    <path d="M78.9150884,26.3397387 L78.831678,26.3397387 C78.5762466,26.9860195 78.217438,27.5864762 77.7692937,28.1176106 C77.2827916,28.6975735 76.7115032,29.2007568 76.0747468,29.6101451 C75.3729677,30.0595045 74.6090038,30.4033827 73.8073026,30.6307753 C72.9031359,30.8846121 71.9675012,31.0087662 71.0284212,30.9995191 C68.7939021,30.9995191 67.0635034,30.5159087 65.8372251,29.5486878 C64.6109468,28.5814669 63.9985393,27.0896641 64.0000026,25.0732793 C64.0000026,23.8485231 64.2451119,22.847647 64.7353306,22.0706511 C65.1998479,21.3183354 65.8372322,20.687754 66.5945032,20.2313219 C67.3653861,19.7743738 68.2075454,19.4501394 69.0858383,19.272149 C69.9556748,19.0877808 70.8350118,18.9514901 71.7198491,18.8638969 L74.1343589,18.6597709 C75.0225188,18.6123097 75.9043293,18.4822489 76.7683696,18.2712729 C77.304829,18.1484249 77.8029977,17.8959612 78.2192705,17.5359802 C78.5510067,17.2130521 78.7663681,16.7892967 78.831678,16.3309781 C78.9226721,15.7222384 78.9637823,15.1070828 78.9545985,14.4916489 C78.9593239,13.9433486 78.8478592,13.400265 78.6275422,12.8981489 C78.3963497,12.3845746 78.0465324,11.9332191 77.606863,11.5812067 C77.0740282,11.1642325 76.4626186,10.8589157 75.8091507,10.6834911 C74.9301085,10.4464878 74.0216976,10.3363603 73.1114847,10.3564504 C71.2325571,10.3564504 69.7136109,10.8195751 68.5546462,11.7458244 C67.3956814,12.6720738 66.7627872,14.0746172 66.6559634,15.9534547 L65.1018971,15.9534547 C65.2116476,13.638563 65.9542922,11.9016626 67.3298312,10.7427535 C68.7053701,9.58384437 70.6596597,9.00292654 73.1927001,9 C75.7272037,9 77.5732062,9.49751149 78.7307076,10.4925345 C79.888209,11.4875574 80.4669597,12.7884037 80.4669597,14.3950731 L80.4669597,26.6119067 C80.4669597,26.9104136 80.4669597,27.2111154 80.4867148,27.5096223 C80.4963193,27.7877923 80.5443322,28.0632995 80.6293903,28.3283214 C80.7053359,28.5617387 80.8480418,28.7677747 81.039857,28.9209454 C81.2797431,29.0835555 81.5673105,29.1608548 81.8564003,29.1404357 C82.2401816,29.1287519 82.6225021,29.08766 83,29.0175211 L83,30.3344633 C82.5865868,30.4429363 82.1608878,30.4975294 81.7334798,30.4968862 C81.225285,30.5177302 80.7181704,30.4348333 80.2430688,30.2532519 C79.9085026,30.1147522 79.6184406,29.8869657 79.4045754,29.5947808 C79.2069704,29.3062425 79.0744082,28.9782231 79.0160588,28.633413 C78.9457082,28.2356671 78.9119104,27.8323174 78.9150884,27.4284109 L78.9150884,26.3397387 Z M78.9150884,18.5763645 C78.5331568,19.0416841 77.9536744,19.3533604 77.1766413,19.5179782 C76.3200049,19.6924468 75.4535839,19.814854 74.5821407,19.8845271 L71.9766651,20.1193818 C71.212802,20.2013249 70.4496706,20.3169231 69.6872708,20.4661766 C68.9625578,20.6023237 68.2653706,20.8574523 67.6239624,21.2212234 C67.0141353,21.5732443 66.5018425,22.0719325 66.1335513,22.6720547 C65.7516198,23.2844328 65.560654,24.0833778 65.560654,25.0623048 C65.560654,26.6162966 66.0508726,27.7671577 67.03131,28.5148882 C68.0117473,29.2626187 69.3572878,29.6350207 71.0679314,29.6320941 C72.8444253,29.6320941 74.244841,29.3145648 75.2691785,28.679506 C76.2093785,28.1294742 77.0177709,27.380305 77.6375932,26.4846023 C78.1399932,25.755896 78.4942514,24.9355479 78.6802224,24.0702083 C78.7934026,23.5519887 78.8667835,23.0258727 78.8997233,22.4964624 L78.9150884,18.5763645 Z" id="Shape" fill="#3F4040" fill-rule="nonzero"></path>
                    <path d="M86,1 L87.5341208,1 L87.5341208,13.7660998 L87.6165046,13.7660998 C87.9045959,12.9679233 88.3420683,12.2314883 88.9057004,11.595885 C89.4574748,10.9778365 90.1019073,10.4486203 90.816115,10.0270283 C91.5438976,9.59936979 92.3309041,9.28085034 93.1518083,9.08172007 C93.9945484,8.87354702 94.8597342,8.76921259 95.7279733,8.77105538 C97.1373472,8.73539099 98.5365177,9.01837213 99.8204464,9.59875488 C100.94513,10.1275736 101.934813,10.9037344 102.715014,11.8688262 C103.506924,12.8672938 104.092645,14.0121349 104.438395,15.237319 C104.822178,16.5877069 105.011107,17.9856691 104.999496,19.3891308 C104.999496,21.923267 104.653632,23.9536827 103.961905,25.4803778 C103.270177,27.0070728 102.438917,28.1779828 101.468123,28.9931078 C100.594854,29.755159 99.5571371,30.3064259 98.4355072,30.6041262 C97.5541758,30.8419959 96.6474393,30.9738571 95.7346531,30.9968951 C94.5030759,31.0296593 93.2784425,30.8028049 92.1409362,30.331185 C91.2506241,29.9495073 90.4292227,29.424755 89.7094996,28.7778616 C89.1396439,28.2675487 88.6495694,27.6751724 88.255536,27.020387 C88.0037204,26.6162999 87.7947802,26.1871951 87.6320907,25.7400047 L87.5497069,25.7400047 L87.5497069,30.4909554 L86.0155861,30.4909554 L86,1 Z M95.7212936,29.6255324 C97.1329519,29.6255324 98.3241777,29.3230041 99.2949711,28.7179477 C100.25787,28.1182666 101.068667,27.3049053 101.664063,26.3413628 C102.291506,25.3221147 102.74308,24.2052602 103.000017,23.0372219 C103.273879,21.8380465 103.413522,20.6123131 103.41639,19.3824737 C103.419415,18.222191 103.258256,17.0672794 102.937673,15.9518478 C102.637134,14.887463 102.144426,13.8865922 101.483709,12.9983142 C100.839738,12.1383214 100.017241,11.426851 99.0723121,10.9124227 C98.043635,10.3734038 96.8943466,10.1038559 95.7324265,10.1291039 C94.4904542,10.1001272 93.2568979,10.3393395 92.1164437,10.8303185 C91.1293128,11.2692349 90.2603088,11.9345536 89.5803573,12.7719728 C88.8937136,13.6427787 88.3853389,14.6394906 88.0840886,15.7055351 C87.7421514,16.9033566 87.5741926,18.1438269 87.5853323,19.3891308 C87.5794634,20.6694573 87.7289884,21.9457923 88.0306504,23.1903352 C88.3041847,24.3628752 88.7901187,25.4758278 89.4645746,26.4745048 C90.1122287,27.4230362 90.9729764,28.2079208 91.9783951,28.7667664 C93.0041111,29.3392771 94.2517439,29.6255324 95.7212936,29.6255324 Z" id="Shape" fill="#3F4040" fill-rule="nonzero"></path>
                    <path d="M109.576361,23.5222894 C109.612336,24.4243657 109.840545,25.308944 110.246202,26.1187125 C111.000078,27.609675 112.33431,28.7377186 113.945961,29.2467213 C114.818162,29.5256691 115.730564,29.6636507 116.647656,29.6552955 C117.395584,29.6511273 118.142069,29.5901727 118.880461,29.4729747 C119.644595,29.3571346 120.386718,29.1290708 121.082008,28.796411 C121.7472,28.4805579 122.324818,28.0110268 122.765543,27.4279072 C123.231477,26.7771679 123.466858,25.9936969 123.435385,25.1983222 C123.435385,24.0267833 123.075159,23.1408071 122.354707,22.5403934 C121.546792,21.8963893 120.612666,21.4230588 119.610589,21.1499232 C118.451445,20.8082207 117.270722,20.5418535 116.076058,20.3525445 C114.870374,20.1623966 113.687049,19.8540646 112.543759,19.4321543 C111.51324,19.0656276 110.582044,18.47117 109.821969,17.6946157 C109.101517,16.9448308 108.741291,15.8465131 108.741291,14.3996626 C108.707362,13.4835669 108.95311,12.5784702 109.446858,11.8010429 C109.907709,11.1162675 110.52766,10.5492786 111.25543,10.1469764 C112.026431,9.72456198 112.861905,9.42783268 113.729379,9.26832229 C114.636803,9.09132691 115.559575,9.00157458 116.484661,9.00033277 C117.538313,8.992691 118.588689,9.11669415 119.610589,9.36936751 C120.524092,9.58832262 121.381133,9.99231965 122.126961,10.5555506 C122.840666,11.1112101 123.410025,11.8256842 123.788168,12.6401576 C124.21618,13.6092789 124.422007,14.6592396 124.391025,15.7154472 L122.812432,15.7154472 C122.833982,14.8733095 122.671018,14.0364751 122.334612,13.2618054 C122.035266,12.6085464 121.57476,12.0392186 120.994928,11.6055424 C120.392974,11.1676096 119.710599,10.8483594 118.985403,10.6653824 C118.169254,10.4546033 117.328447,10.3504663 116.484661,10.3556568 C115.752629,10.3567334 115.022302,10.4251266 114.30321,10.5599439 C113.610378,10.6808385 112.943142,10.915489 112.32941,11.2540807 C111.7627,11.5686196 111.272705,12.0011968 110.893716,12.5215393 C110.12437,13.7272234 110.14887,15.2655476 110.956235,16.4469268 C111.395839,16.9849994 111.959084,17.4126355 112.599579,17.6946157 C113.328801,18.0236079 114.091492,18.275438 114.874808,18.445865 L117.431371,19.0169902 C118.485255,19.2088297 119.475876,19.4336187 120.403235,19.6913573 C121.258889,19.918744 122.072708,20.2775476 122.814665,20.7545288 C123.484921,21.1959514 124.034674,21.7926188 124.415586,22.4920674 C124.831525,23.3313945 125.030908,24.2585959 124.996116,25.1917323 C124.996116,26.3354472 124.733389,27.2763393 124.207935,28.0144088 C123.686011,28.7461689 123.003891,29.3534349 122.211807,29.7914869 C121.379152,30.2521357 120.473226,30.5707578 119.532441,30.7338434 C118.580152,30.9074495 117.613918,30.9964057 116.645423,30.9996363 C115.497321,31.0086661 114.354248,30.849496 113.253791,30.5273597 C112.257366,30.2360689 111.331408,29.74883 110.532001,29.0951534 C109.754648,28.4530705 109.130346,27.6506506 108.703334,26.7447536 C108.241432,25.7311202 108.001783,24.6331206 108,23.5222894 L109.576361,23.5222894 Z" id="Path" fill="#3F4040"></path>
                    <rect id="Rectangle" fill="#3F4040" x="32" y="36" width="100" height="1"></rect>
                </g>
            </g>
        </g>
    </g>
</svg>