<?xml version="1.0" encoding="UTF-8"?>
<svg width="233px" height="121px" viewBox="0 0 233 121" version="1.1" xmlns="http://www.w3.org/2000/svg" xmlns:xlink="http://www.w3.org/1999/xlink">
    <!-- Generator: Sketch 43.2 (39069) - http://www.bohemiancoding.com/sketch -->
    <title>ComparaOnline</title>
    <desc>Created with Sketch.</desc>
    <defs></defs>
    <g id="Page-1" stroke="none" stroke-width="1" fill="none" fill-rule="evenodd">
        <g id="Logos" transform="translate(-119.000000, -3000.000000)">
            <g id="ComparaOnline" transform="translate(119.000000, 3000.000000)">
                <rect id="Rectangle-3-Copy-6" fill="#FFFFFF" x="-1.42108547e-14" y="0" width="233" height="121"></rect>
                <g id="comparaonline-logo" transform="translate(15.000000, 41.000000)" fill-rule="nonzero">
                    <path d="M19.956907,22.4917808 C19.7442224,22.1712329 19.4429192,21.9219178 19.0352737,21.7082192 C18.6453519,21.4945205 18.2199826,21.4054795 17.7591659,21.4054795 C16.6425717,21.4054795 15.7741095,21.7438356 15.1537793,22.4205479 C14.5334492,23.0972603 14.232146,23.969863 14.232146,25.0561644 C14.232146,26.1424658 14.5334492,27.0150685 15.1537793,27.6917808 C15.7741095,28.3684932 16.6425717,28.7068493 17.7591659,28.7068493 C18.2554301,28.7068493 18.6807993,28.6 19.0352737,28.3863014 C19.389748,28.1726027 19.6910513,27.9054795 19.956907,27.6205479 L22.8813206,30.7013699 C22.1900956,31.4136986 21.3748045,31.9123288 20.4531712,32.1972603 C19.5138141,32.4821918 18.6276281,32.6246575 17.7768897,32.6246575 C16.6780191,32.6246575 15.6323197,32.4465753 14.6575152,32.090411 C13.6827107,31.7342466 12.8319722,31.2178082 12.1230235,30.5589041 C11.396351,29.9 10.8469157,29.0986301 10.4215465,28.1726027 C10.013901,27.2465753 9.80121633,26.2136986 9.80121633,25.0561644 C9.80121633,23.9164384 10.013901,22.8657534 10.4215465,21.939726 C10.829192,21.0136986 11.396351,20.2123288 12.1230235,19.5534247 C12.8496959,18.8945205 13.6827107,18.3780822 14.6575152,18.0219178 C15.6323197,17.6657534 16.6602954,17.4876712 17.7768897,17.4876712 C18.6276281,17.4876712 19.5138141,17.630137 20.4531712,17.9150685 C21.3925282,18.2 22.1900956,18.6986301 22.8813206,19.4109589 L19.956907,22.4917808 L19.956907,22.4917808 Z M23.92702,25.0383562 C23.92702,23.8986301 24.1397046,22.8479452 24.5473501,21.9219178 C24.9549957,20.9958904 25.5221546,20.1945205 26.2488271,19.5356164 C26.9577758,18.8767123 27.8085143,18.360274 28.7833189,18.0041096 C29.7581234,17.6479452 30.786099,17.469863 31.9026933,17.469863 C33.0015639,17.469863 34.0472632,17.6479452 35.0220678,18.0041096 C35.9968723,18.360274 36.8476108,18.8767123 37.5565595,19.5356164 C38.2655083,20.1945205 38.8326672,20.9958904 39.2580365,21.9219178 C39.665682,22.8479452 39.8783666,23.8808219 39.8783666,25.0383562 C39.8783666,26.1780822 39.665682,27.2287671 39.2580365,28.1547945 C38.850391,29.0808219 38.283232,29.8821918 37.5565595,30.5410959 C36.8298871,31.2 35.9968723,31.7164384 35.0220678,32.0726027 C34.0472632,32.4287671 33.0192876,32.6068493 31.9026933,32.6068493 C30.8038228,32.6068493 29.7581234,32.4287671 28.7833189,32.0726027 C27.8085143,31.7164384 26.9577758,31.2 26.2488271,30.5410959 C25.5221546,29.8821918 24.9727194,29.0808219 24.5473501,28.1547945 C24.1397046,27.2287671 23.92702,26.1780822 23.92702,25.0383562 Z M28.3579496,25.0383562 C28.3579496,26.1246575 28.6592528,26.9972603 29.279583,27.6739726 C29.8999131,28.3506849 30.7683753,28.6890411 31.8849696,28.6890411 C33.0015639,28.6890411 33.8700261,28.3506849 34.4903562,27.6739726 C35.1106864,26.9972603 35.4119896,26.1246575 35.4119896,25.0383562 C35.4119896,23.9520548 35.1106864,23.0794521 34.4903562,22.4027397 C33.8700261,21.7260274 33.0015639,21.3876712 31.8849696,21.3876712 C30.7683753,21.3876712 29.8999131,21.7260274 29.279583,22.4027397 C28.6769765,23.0794521 28.3579496,23.9520548 28.3579496,25.0383562 Z M42.4660295,17.8438356 L46.719722,17.8438356 L46.719722,19.8027397 L46.7728931,19.8027397 C46.9146829,19.5178082 47.1096438,19.2506849 47.3577758,18.9657534 C47.6059079,18.6808219 47.9249348,18.4493151 48.2794092,18.2178082 C48.6338836,18.0041096 49.0415291,17.8260274 49.4846221,17.6835616 C49.927715,17.5410959 50.4239791,17.469863 50.9556907,17.469863 C51.9659427,17.469863 52.8521286,17.6835616 53.6319722,18.0931507 C54.4118158,18.5027397 54.9966985,19.1616438 55.3866203,20.0520548 C55.9006082,19.1260274 56.5209383,18.4671233 57.2476108,18.0575342 C57.9742832,17.6657534 58.8781929,17.469863 59.9238923,17.469863 C60.8809731,17.469863 61.6962641,17.630137 62.3520417,17.9506849 C63.0078193,18.2712329 63.5395308,18.7164384 63.9117289,19.2863014 C64.3016507,19.8561644 64.5675065,20.5150685 64.7447437,21.2808219 C64.9042572,22.0465753 64.9928758,22.8657534 64.9928758,23.7205479 L64.9928758,32.2328767 L60.5619461,32.2328767 L60.5619461,23.8630137 C60.5619461,23.1863014 60.4201564,22.6164384 60.1365769,22.1356164 C59.8529974,21.6547945 59.3390096,21.4054795 58.6123371,21.4054795 C58.0983493,21.4054795 57.67298,21.4945205 57.3362294,21.6547945 C56.9994787,21.8150685 56.7158992,22.0465753 56.5032146,22.3493151 C56.29053,22.6520548 56.1487402,22.990411 56.0601216,23.3821918 C55.971503,23.7739726 55.9360556,24.2013699 55.9360556,24.6287671 L55.9360556,32.2506849 L51.505126,32.2506849 L51.505126,24.6287671 C51.505126,24.3794521 51.4874023,24.0589041 51.4696785,23.6849315 C51.4519548,23.3109589 51.3810599,22.9547945 51.2569939,22.6164384 C51.1329279,22.2780822 50.9556907,21.9931507 50.6898349,21.7616438 C50.4239791,21.530137 50.0340573,21.4054795 49.5200695,21.4054795 C48.9529105,21.4054795 48.4920938,21.5123288 48.1376195,21.7082192 C47.7831451,21.9219178 47.5172893,22.1890411 47.3223284,22.5452055 C47.1273675,22.8835616 47.0210252,23.2753425 46.9501303,23.7205479 C46.8969592,24.1479452 46.8615117,24.6109589 46.8615117,25.0917808 L46.8615117,32.2684932 L42.4305821,32.2684932 L42.4305821,17.8438356 L42.4660295,17.8438356 Z M68.5376195,17.8438356 L72.6140747,17.8438356 L72.6140747,19.7493151 L72.6672459,19.7493151 C72.8444831,19.5 73.0748914,19.2328767 73.3584709,18.9657534 C73.6420504,18.6986301 73.978801,18.4493151 74.3687228,18.2356164 C74.7586447,18.0219178 75.1662902,17.8438356 75.6271069,17.7013699 C76.0879235,17.5589041 76.5664639,17.4876712 77.0804518,17.4876712 C78.1438749,17.4876712 79.1009557,17.6657534 79.9694179,18.039726 C80.8378801,18.4136986 81.5822763,18.9123288 82.2026064,19.5890411 C82.8229366,20.2479452 83.301477,21.0315068 83.6382276,21.939726 C83.9749783,22.8479452 84.1344917,23.8452055 84.1344917,24.9315068 C84.1344917,25.9465753 83.9749783,26.9082192 83.6736751,27.8164384 C83.3723719,28.7424658 82.9292789,29.5438356 82.3798436,30.2561644 C81.8126846,30.9684932 81.1391833,31.5383562 80.3238923,31.9657534 C79.5086012,32.3931507 78.6046916,32.6068493 77.5767159,32.6068493 C76.6550825,32.6068493 75.7866203,32.4643836 74.989053,32.1794521 C74.1914857,31.8945205 73.5357081,31.3958904 73.0217202,30.7191781 L72.9685491,30.7191781 L72.9685491,39 L68.5376195,39 L68.5376195,17.8438356 L68.5376195,17.8438356 Z M72.6140747,25.0383562 C72.6140747,26.1246575 72.9153779,26.9972603 73.5357081,27.6739726 C74.1560382,28.3506849 75.0245004,28.6890411 76.1410947,28.6890411 C77.257689,28.6890411 78.1261512,28.3506849 78.7464813,27.6739726 C79.3668115,26.9972603 79.6681147,26.1246575 79.6681147,25.0383562 C79.6681147,23.9520548 79.3668115,23.0794521 78.7464813,22.4027397 C78.1261512,21.7260274 77.257689,21.3876712 76.1410947,21.3876712 C75.0245004,21.3876712 74.1560382,21.7260274 73.5357081,22.4027397 C72.9153779,23.0794521 72.6140747,23.9520548 72.6140747,25.0383562 Z M95.7080799,30.4342466 L95.6549088,30.4342466 C95.1586447,31.2 94.5028671,31.7520548 93.687576,32.090411 C92.872285,32.4287671 92.0038228,32.5890411 91.0999131,32.5890411 C90.4264118,32.5890411 89.7883579,32.5 89.1680278,32.3041096 C88.5476977,32.1082192 87.9982624,31.8410959 87.5374457,31.4671233 C87.0589053,31.0931507 86.6867072,30.630137 86.4208514,30.0780822 C86.1372719,29.5260274 86.0132059,28.8849315 86.0132059,28.1547945 C86.0132059,27.3178082 86.1727194,26.6232877 86.4740226,26.0534247 C86.7753258,25.4835616 87.200695,25.0027397 87.7146829,24.6287671 C88.2286707,24.2547945 88.8312772,23.969863 89.5047785,23.7561644 C90.1782798,23.5424658 90.8695048,23.4 91.5784535,23.2931507 C92.305126,23.1863014 93.0140747,23.1328767 93.7407472,23.1150685 C94.4496959,23.0972603 95.1231972,23.0794521 95.7258036,23.0794521 C95.7258036,22.2958904 95.4422242,21.6547945 94.8927889,21.1917808 C94.3256299,20.7287671 93.6698523,20.4972603 92.9077324,20.4972603 C92.1810599,20.4972603 91.5075586,20.6575342 90.9226759,20.960274 C90.3200695,21.2630137 89.7883579,21.690411 89.3098175,22.2246575 L86.952563,19.8027397 C87.7855778,19.0369863 88.7426586,18.4493151 89.8415291,18.0753425 C90.9403997,17.6835616 92.0747176,17.5054795 93.2622068,17.5054795 C94.5560382,17.5054795 95.6194613,17.6657534 96.4701998,17.9863014 C97.3032146,18.3068493 97.9767159,18.7876712 98.47298,19.4287671 C98.9692441,20.069863 99.3237185,20.8356164 99.5186794,21.7616438 C99.7136403,22.6876712 99.8199826,23.7383562 99.8199826,24.9493151 L99.8199826,32.2684932 L95.7435274,32.2684932 L95.7435274,30.4342466 L95.7080799,30.4342466 Z M94.6092094,25.9287671 C94.2724587,25.9287671 93.8648132,25.9465753 93.3508254,25.9821918 C92.8545613,26.0178082 92.3582971,26.0890411 91.8974805,26.2315068 C91.4366638,26.3739726 91.046742,26.569863 90.7099913,26.8547945 C90.3909644,27.139726 90.2314509,27.5136986 90.2314509,28.0123288 C90.2314509,28.5465753 90.4618593,28.9383562 90.9049522,29.2054795 C91.3480452,29.4547945 91.8265856,29.5972603 92.3228497,29.5972603 C92.7482189,29.5972603 93.1735882,29.5438356 93.5812337,29.4191781 C93.9888792,29.2945205 94.3433536,29.1342466 94.6623805,28.9205479 C94.9814075,28.7068493 95.2295395,28.4219178 95.4067767,28.0835616 C95.6017376,27.7452055 95.6903562,27.3534247 95.6903562,26.890411 L95.6903562,25.9465753 L94.6092094,25.9465753 L94.6092094,25.9287671 Z M102.549435,17.8438356 L106.980365,17.8438356 L106.980365,20.1589041 L107.033536,20.1589041 C107.512076,19.2684932 108.061512,18.609589 108.717289,18.1643836 C109.373067,17.7191781 110.188358,17.5054795 111.163162,17.5054795 C111.411295,17.5054795 111.67715,17.5232877 111.925282,17.5410959 C112.173414,17.5589041 112.421546,17.5945205 112.634231,17.6657534 L112.634231,21.7260274 C112.315204,21.6191781 112.013901,21.5479452 111.712598,21.5123288 C111.411295,21.4589041 111.092268,21.4410959 110.755517,21.4410959 C109.904778,21.4410959 109.249001,21.5657534 108.752737,21.7972603 C108.256473,22.0287671 107.884275,22.3671233 107.618419,22.7945205 C107.352563,23.2219178 107.175326,23.7205479 107.104431,24.3260274 C107.033536,24.9315068 106.980365,25.5726027 106.980365,26.2849315 L106.980365,32.3041096 L102.549435,32.3041096 L102.549435,17.8438356 L102.549435,17.8438356 Z M123.552042,30.4342466 L123.498871,30.4342466 C123.002606,31.2 122.346829,31.7520548 121.531538,32.090411 C120.716247,32.4287671 119.847785,32.5890411 118.943875,32.5890411 C118.270374,32.5890411 117.63232,32.5 117.01199,32.3041096 C116.391659,32.1082192 115.842224,31.8410959 115.381407,31.4671233 C114.902867,31.0931507 114.530669,30.630137 114.264813,30.0780822 C113.981234,29.5260274 113.857168,28.8849315 113.857168,28.1547945 C113.857168,27.3178082 114.016681,26.6232877 114.317984,26.0534247 C114.619288,25.4835616 115.044657,25.0027397 115.558645,24.6287671 C116.072632,24.2547945 116.675239,23.969863 117.34874,23.7561644 C118.022242,23.5424658 118.713467,23.4 119.422415,23.2931507 C120.131364,23.1863014 120.858036,23.1328767 121.584709,23.1150685 C122.293658,23.0972603 122.967159,23.0794521 123.569765,23.0794521 C123.569765,22.2958904 123.286186,21.6547945 122.736751,21.1917808 C122.169592,20.7287671 121.513814,20.4972603 120.751694,20.4972603 C120.025022,20.4972603 119.35152,20.6575342 118.766638,20.960274 C118.164031,21.2630137 117.63232,21.690411 117.153779,22.2246575 L114.796525,19.8027397 C115.62954,19.0369863 116.58662,18.4493151 117.685491,18.0753425 C118.784361,17.6835616 119.936403,17.5054795 121.106169,17.5054795 C122.4,17.5054795 123.463423,17.6657534 124.314162,17.9863014 C125.147176,18.3068493 125.820678,18.7876712 126.316942,19.4287671 C126.813206,20.069863 127.16768,20.8356164 127.362641,21.7616438 C127.557602,22.6876712 127.663944,23.7383562 127.663944,24.9493151 L127.663944,32.2684932 L123.587489,32.2684932 L123.587489,30.4342466 L123.552042,30.4342466 Z M122.470895,25.9287671 C122.134144,25.9287671 121.726499,25.9465753 121.212511,25.9821918 C120.716247,26.0178082 120.219983,26.0890411 119.759166,26.2315068 C119.298349,26.3739726 118.908427,26.569863 118.571677,26.8547945 C118.25265,27.139726 118.093136,27.5136986 118.093136,28.0123288 C118.093136,28.5465753 118.323545,28.9383562 118.766638,29.2054795 C119.209731,29.4547945 119.688271,29.5972603 120.184535,29.5972603 C120.609904,29.5972603 121.035274,29.5438356 121.442919,29.4191781 C121.850565,29.2945205 122.205039,29.1342466 122.524066,28.9205479 C122.843093,28.7068493 123.091225,28.4219178 123.268462,28.0835616 C123.463423,27.7452055 123.552042,27.3534247 123.552042,26.890411 L123.552042,25.9465753 L122.470895,25.9465753 L122.470895,25.9287671 Z M130.428844,25.0383562 C130.428844,23.9342466 130.623805,22.9191781 130.996003,21.9931507 C131.368202,21.0671233 131.882189,20.2657534 132.555691,19.5890411 C133.211468,18.9123288 134.009036,18.3958904 134.948393,18.0219178 C135.88775,17.6479452 136.898002,17.4520548 137.996872,17.4520548 C139.095743,17.4520548 140.105995,17.6479452 141.027628,18.0219178 C141.949262,18.3958904 142.746829,18.930137 143.42033,19.5890411 C144.093831,20.2657534 144.607819,21.0671233 144.980017,21.9931507 C145.352215,22.9191781 145.547176,23.9342466 145.547176,25.0383562 C145.547176,26.1424658 145.352215,27.1575342 144.980017,28.0835616 C144.607819,29.009589 144.093831,29.8109589 143.42033,30.4876712 C142.746829,31.1643836 141.949262,31.6808219 141.027628,32.0547945 C140.105995,32.4287671 139.095743,32.6246575 137.996872,32.6246575 C136.898002,32.6246575 135.88775,32.4287671 134.948393,32.0547945 C134.009036,31.6808219 133.229192,31.1643836 132.555691,30.4876712 C131.899913,29.8109589 131.368202,29.009589 130.996003,28.0835616 C130.606082,27.1575342 130.428844,26.1424658 130.428844,25.0383562 Z M132.289835,25.0383562 C132.289835,25.8575342 132.413901,26.6054795 132.679757,27.3356164 C132.945613,28.0479452 133.317811,28.6712329 133.814075,29.2054795 C134.310339,29.739726 134.912945,30.1493151 135.621894,30.469863 C136.330843,30.790411 137.110686,30.9328767 137.979149,30.9328767 C138.847611,30.9328767 139.627454,30.7726027 140.336403,30.469863 C141.045352,30.1493151 141.647958,29.739726 142.144222,29.2054795 C142.640487,28.6712329 143.012685,28.0479452 143.27854,27.3356164 C143.544396,26.6232877 143.668462,25.8575342 143.668462,25.0383562 C143.668462,24.2191781 143.544396,23.4712329 143.27854,22.7410959 C143.012685,22.0287671 142.640487,21.4054795 142.144222,20.8712329 C141.647958,20.3369863 141.045352,19.9273973 140.336403,19.6068493 C139.627454,19.2863014 138.847611,19.1438356 137.979149,19.1438356 C137.110686,19.1438356 136.330843,19.3041096 135.621894,19.6068493 C134.912945,19.9273973 134.310339,20.3369863 133.814075,20.8712329 C133.317811,21.4054795 132.945613,22.0287671 132.679757,22.7410959 C132.413901,23.4712329 132.289835,24.2369863 132.289835,25.0383562 Z M148.258905,21.8863014 C148.258905,21.6191781 148.241182,21.2808219 148.223458,20.9068493 C148.205734,20.5150685 148.18801,20.1410959 148.170287,19.7315068 C148.152563,19.339726 148.152563,18.9657534 148.117116,18.6273973 C148.099392,18.2890411 148.081668,18.0219178 148.081668,17.8260274 L149.942659,17.8260274 C149.960382,18.360274 149.978106,18.8945205 149.99583,19.3931507 C150.013553,19.8917808 150.031277,20.2123288 150.066725,20.3547945 L150.155343,20.3547945 C150.527541,19.5712329 151.147871,18.8767123 152.016334,18.3068493 C152.884796,17.7369863 153.895048,17.4520548 155.064813,17.4520548 C156.181407,17.4520548 157.085317,17.630137 157.794266,17.9863014 C158.503215,18.3424658 159.05265,18.8054795 159.460295,19.3753425 C159.867941,19.9452055 160.15152,20.6041096 160.29331,21.3520548 C160.452824,22.1 160.523719,22.8657534 160.523719,23.6671233 L160.523719,32.2506849 L158.662728,32.2506849 L158.662728,23.7739726 C158.662728,23.1863014 158.609557,22.6342466 158.503215,22.0821918 C158.396872,21.530137 158.219635,21.0315068 157.953779,20.6041096 C157.687924,20.1589041 157.333449,19.8205479 156.872632,19.5534247 C156.411816,19.2863014 155.809209,19.1616438 155.064813,19.1616438 C154.373588,19.1616438 153.735534,19.2863014 153.132928,19.5178082 C152.530321,19.7493151 151.99861,20.1232877 151.555517,20.6041096 C151.112424,21.0849315 150.75795,21.7082192 150.492094,22.4383562 C150.226238,23.1684932 150.102172,24.0410959 150.102172,25.0383562 L150.102172,32.2506849 L148.241182,32.2506849 L148.241182,21.8863014 L148.258905,21.8863014 Z M164.086186,11.0767123 L165.947176,11.0767123 L165.947176,32.2506849 L164.086186,32.2506849 L164.086186,11.0767123 Z M169.031103,12.4657534 C169.031103,12.0739726 169.172893,11.7356164 169.438749,11.4684932 C169.704605,11.2013699 170.041355,11.0589041 170.431277,11.0589041 C170.821199,11.0589041 171.15795,11.2013699 171.423805,11.4684932 C171.689661,11.7356164 171.831451,12.0739726 171.831451,12.4657534 C171.831451,12.8575342 171.689661,13.1958904 171.423805,13.4630137 C171.15795,13.730137 170.821199,13.8726027 170.431277,13.8726027 C170.041355,13.8726027 169.704605,13.730137 169.438749,13.4630137 C169.172893,13.1958904 169.031103,12.8753425 169.031103,12.4657534 Z M169.509644,17.8438356 L171.370634,17.8438356 L171.370634,32.2506849 L169.509644,32.2506849 L169.509644,17.8438356 L169.509644,17.8438356 Z M175.057168,21.8863014 C175.057168,21.6191781 175.039444,21.2808219 175.02172,20.9068493 C175.003997,20.5150685 174.986273,20.1410959 174.968549,19.7315068 C174.950825,19.339726 174.950825,18.9657534 174.915378,18.6273973 C174.897654,18.2890411 174.87993,18.0219178 174.87993,17.8260274 L176.740921,17.8260274 C176.758645,18.360274 176.776368,18.8945205 176.794092,19.3931507 C176.811816,19.8917808 176.82954,20.2123288 176.864987,20.3547945 L176.953606,20.3547945 C177.325804,19.5712329 177.946134,18.8767123 178.814596,18.3068493 C179.683058,17.7369863 180.69331,17.4520548 181.863076,17.4520548 C182.97967,17.4520548 183.883579,17.630137 184.592528,17.9863014 C185.301477,18.3424658 185.850912,18.8054795 186.258558,19.3753425 C186.666203,19.9452055 186.949783,20.6041096 187.091573,21.3520548 C187.251086,22.1 187.321981,22.8657534 187.321981,23.6671233 L187.321981,32.2506849 L185.46099,32.2506849 L185.46099,23.7739726 C185.46099,23.1863014 185.407819,22.6342466 185.301477,22.0821918 C185.195135,21.530137 185.017897,21.0315068 184.752042,20.6041096 C184.486186,20.1589041 184.131712,19.8205479 183.670895,19.5534247 C183.210078,19.2863014 182.607472,19.1616438 181.863076,19.1616438 C181.171851,19.1616438 180.533797,19.2863014 179.93119,19.5178082 C179.328584,19.7493151 178.796872,20.1232877 178.353779,20.6041096 C177.910686,21.0849315 177.556212,21.7082192 177.290356,22.4383562 C177.0245,23.1684932 176.900434,24.0410959 176.900434,25.0383562 L176.900434,32.2506849 L175.039444,32.2506849 L175.039444,21.8863014 L175.057168,21.8863014 Z M203.415117,29.5260274 C202.688445,30.630137 201.802259,31.4136986 200.738836,31.8945205 C199.675413,32.3753425 198.505647,32.6068493 197.211816,32.6068493 C196.112945,32.6068493 195.120417,32.4109589 194.234231,32.0369863 C193.348045,31.6630137 192.585925,31.1465753 191.930148,30.469863 C191.292094,29.7931507 190.79583,28.9917808 190.459079,28.0657534 C190.122328,27.139726 189.945091,26.1246575 189.945091,25.0027397 C189.945091,23.9164384 190.122328,22.9191781 190.476803,22.0109589 C190.831277,21.1027397 191.327541,20.3013699 191.965595,19.6246575 C192.603649,18.9479452 193.365769,18.4136986 194.234231,18.039726 C195.102693,17.6479452 196.059774,17.469863 197.123197,17.469863 C198.222068,17.469863 199.179149,17.6657534 200.029887,18.039726 C200.862902,18.4315068 201.571851,18.930137 202.13901,19.5712329 C202.706169,20.2123288 203.131538,20.9246575 203.432841,21.7438356 C203.716421,22.5630137 203.875934,23.3821918 203.875934,24.2013699 L203.875934,25.5191781 L191.841529,25.5191781 C191.841529,25.9109589 191.912424,26.4273973 192.071937,27.0328767 C192.231451,27.6383562 192.51503,28.2438356 192.922676,28.8315068 C193.330321,29.4191781 193.89748,29.9178082 194.588705,30.3273973 C195.27993,30.7369863 196.18384,30.9506849 197.264987,30.9506849 C198.222068,30.9506849 199.143701,30.7191781 200.029887,30.2561644 C200.916073,29.7931507 201.607298,29.169863 202.085838,28.3863014 L203.415117,29.5260274 L203.415117,29.5260274 Z M201.99722,23.8273973 C201.99722,23.1863014 201.873154,22.5808219 201.607298,22.0109589 C201.341442,21.4410959 201.004692,20.960274 200.543875,20.5328767 C200.100782,20.1054795 199.56907,19.7671233 198.966464,19.5178082 C198.363858,19.2684932 197.70808,19.1438356 197.034579,19.1438356 C196.024327,19.1438356 195.173588,19.3575342 194.500087,19.7671233 C193.826586,20.1767123 193.294874,20.6575342 192.904952,21.209589 C192.51503,21.7438356 192.231451,22.2780822 192.071937,22.7767123 C191.912424,23.2931507 191.823805,23.6315068 191.823805,23.8273973 L201.99722,23.8273973 L201.99722,23.8273973 Z" id="Shape" fill="#444444"></path>
                    <ellipse id="Oval" fill="#088AB7" cx="14.9056473" cy="7.26575342" rx="7.07176368" ry="7.10547945"></ellipse>
                    <ellipse id="Oval" fill="#FF9000" cx="4.74995656" cy="16.0630137" rx="4.60816681" ry="4.63013699"></ellipse>
                    <ellipse id="Oval" fill="#FFDD48" cx="3.91694179" cy="25.0383562" rx="2.71172893" ry="2.72465753"></ellipse>
                </g>
            </g>
        </g>
    </g>
</svg>