<?xml version="1.0" encoding="UTF-8"?>
<svg width="233px" height="121px" viewBox="0 0 233 121" version="1.1" xmlns="http://www.w3.org/2000/svg" xmlns:xlink="http://www.w3.org/1999/xlink">
    <!-- Generator: Sketch 43.2 (39069) - http://www.bohemiancoding.com/sketch -->
    <title>Corfo</title>
    <desc>Created with Sketch.</desc>
    <defs>
        <polygon id="path-1" points="11.8457948 0.0361401515 23.4444522 0.0361401515 23.4444522 40.7083497 0.247137391 40.7083497 0.247137391 0.0361401515 11.8457948 0.0361401515"></polygon>
    </defs>
    <g id="Page-1" stroke="none" stroke-width="1" fill="none" fill-rule="evenodd">
        <g id="Logos" transform="translate(-119.000000, -3460.000000)">
            <g id="Corfo" transform="translate(119.000000, 3460.000000)">
                <rect id="Rectangle-3-Copy-7" fill="#FFFFFF" x="-1.42108547e-14" y="0" width="233" height="121"></rect>
                <g id="Page-1" transform="translate(48.000000, 34.000000)">
                    <g id="Group-3" transform="translate(120.208696, 0.379098)">
                        <mask id="mask-2" fill="white">
                            <use xlink:href="#path-1"></use>
                        </mask>
                        <g id="Clip-2"></g>
                        <path d="M0.884493913,40.7083497 C7.04978087,40.2954381 12.2579896,38.021101 16.4527722,33.8865846 C21.1129461,29.2918005 23.4444939,23.4881907 23.4444939,16.4807399 C23.4444939,10.0918258 21.6121461,4.61181566 17.6961809,0.257135101 C17.5826504,0.131267677 17.3877287,0.0361401515 17.2049113,0.0361401515 C16.8530504,0.0361401515 16.56672,0.320276515 16.56672,0.671708333 C16.56672,0.732357323 16.574233,0.790098485 16.5905113,0.847008838 C19.4780243,8.57227778 17.797607,16.3374255 12.700007,18.3915985 C9.12922435,19.8301427 4.80421565,18.0941692 1.38912,14.3297778 C1.13242435,14.0747197 0.696250435,14.0676578 0.439554783,14.3218851 C0.206650435,14.5536806 0.18578087,14.9154975 0.374441739,15.1705556 C0.374441739,15.1705556 0.444146087,15.2507285 0.445398261,15.2523902 C3.39552,18.5652374 4.90146783,22.6690139 4.90146783,27.4881162 C4.90146783,32.2989104 3.41638957,36.3403763 0.44832,39.6120985 C0.325189565,39.7279962 0.247137391,39.8920808 0.247137391,40.0740278 C0.247137391,40.4242134 0.532215652,40.7083497 0.884493913,40.7083497" id="Fill-1" fill="#0061AC" mask="url(#mask-2)"></path>
                    </g>
                    <path d="M64.3267617,25.400877 C63.7248835,25.6945677 62.3833878,25.8407899 60.7634922,25.8407899 L59.5480487,25.8407899 L59.5480487,18.3801333 L60.5076313,18.3801333 C62.0745183,18.3801333 63.4260313,18.5039237 64.1034574,18.7519199 C64.7800487,18.9999162 65.3047096,19.4269515 65.6770226,20.0297028 C66.0505878,20.6341157 66.2371617,21.307901 66.2371617,22.0514742 C66.2371617,22.807925 66.0702052,23.4821258 65.7337878,24.0736611 C65.3977878,24.6656119 64.92864,25.1076018 64.3267617,25.400877 L64.3267617,25.400877 Z M73.3207096,38.9351561 C72.8052313,38.192829 72.121127,37.0861927 71.2675617,35.6135854 C69.91104,33.2736144 68.8587965,31.6348455 68.1104139,30.6939553 C67.3620313,29.7551422 66.5957009,29.0123997 65.8130922,28.4661434 C67.1458226,27.9227949 68.3984139,27.1007104 69.1113183,26.0003051 C69.8250574,24.8974073 70.1815096,23.5930386 70.1815096,22.0834604 C70.1815096,19.8689414 69.4544139,18.1113669 67.9977183,16.8123985 C66.5426922,15.5142609 64.3442922,14.8633227 61.86624,14.8633227 L55.7272487,14.8633227 L55.7272487,40.7911813 L59.5480487,40.7911813 L59.5480487,29.5067306 L59.8206052,29.5067306 C60.9675965,29.5067306 61.7840139,29.6458909 62.2706922,29.9242116 C62.7557009,30.2025323 63.3003965,30.6561535 63.903527,31.2867369 C64.5066574,31.9152432 65.1698922,32.762252 65.8932313,33.8285942 L67.0677704,35.8528581 L68.1538226,37.7462697 L68.8370922,38.7669174 C68.94144,38.9164629 69.0119791,39.0211447 69.04704,39.0834553 L70.1159791,40.7911813 L74.6183791,40.7911813 L73.3207096,38.9351561 Z" id="Fill-4" fill="#0061AC"></path>
                    <polygon id="Fill-6" fill="#0061AC" points="77.7986087 14.8634473 90.866713 14.8634473 90.866713 18.5231569 81.6682435 18.5231569 81.6682435 25.0603703 90.866713 25.0603703 90.866713 28.708864 81.6682435 28.708864 81.6682435 40.7913059 77.7986087 40.7913059"></polygon>
                    <path d="M45.0521739,34.8572177 C43.2957913,36.7564449 41.1040696,37.7073048 38.4774261,37.7073048 C35.862887,37.7073048 33.6849391,36.7743073 31.9456696,34.9124664 C30.2055652,33.0506255 29.3361391,30.7160548 29.3361391,27.9104159 C29.3361391,25.0187884 30.2034783,22.6410157 31.9373217,20.7783439 C33.6715826,18.9169184 35.8854261,17.9851672 38.5788522,17.9851672 C41.1374609,17.9851672 43.2957913,18.9268881 45.0521739,20.8057606 C46.8089739,22.6883717 47.6875826,25.0063263 47.6875826,27.7625321 C47.6875826,30.5926798 46.8089739,32.9567442 45.0521739,34.8572177 M47.8983652,18.2958894 C45.3802435,15.7602631 42.227687,14.4920346 38.4415304,14.4920346 C34.6549565,14.4920346 31.5232696,15.7602631 29.0464696,18.2958894 C26.5688348,20.8340081 25.3300174,24.0392657 25.3300174,27.9104159 C25.3300174,31.6856078 26.5600696,34.8248162 29.0201739,37.3309487 C31.4794435,39.8358351 34.5560348,41.0886937 38.249113,41.0886937 C42.1170783,41.0886937 45.3213913,39.8358351 47.8637217,37.3309487 C50.4052174,34.8248162 51.6761739,31.659022 51.6761739,27.8381356 C51.6761739,24.011849 50.416487,20.8340081 47.8983652,18.2958894" id="Fill-8" fill="#0061AC"></path>
                    <path d="M114.107979,34.8572177 C112.350762,36.7564449 110.159457,37.7073048 107.532814,37.7073048 C104.918275,37.7073048 102.740744,36.7743073 101.00064,34.9124664 C99.260953,33.0506255 98.3919443,30.7160548 98.3919443,27.9104159 C98.3919443,25.0187884 99.2584487,22.6410157 100.992292,20.7783439 C102.72697,18.9169184 104.940814,17.9851672 107.63424,17.9851672 C110.192849,17.9851672 112.350762,18.9268881 114.107979,20.8057606 C115.864362,22.6883717 116.742553,25.0063263 116.742553,27.7625321 C116.742553,30.5926798 115.864362,32.9567442 114.107979,34.8572177 M116.953336,18.2958894 C114.434797,15.7602631 111.283075,14.4920346 107.496501,14.4920346 C103.710344,14.4920346 100.57824,15.7602631 98.10144,18.2958894 C95.6238052,20.8340081 94.3854052,24.0392657 94.3854052,27.9104159 C94.3854052,31.6856078 95.61504,34.8248162 98.0755617,37.3309487 C100.535249,39.8358351 103.61184,41.0886937 107.303666,41.0886937 C111.172049,41.0886937 114.376779,39.8358351 116.918275,37.3309487 C119.460188,34.8248162 120.731144,31.659022 120.731144,27.8381356 C120.731144,24.011849 119.471875,20.8340081 116.953336,18.2958894" id="Fill-10" fill="#0061AC"></path>
                    <path d="M133.830553,9.01331225 C132.933997,8.11105467 131.812466,7.65951048 130.465544,7.65951048 C129.118205,7.65951048 128.004605,8.11105467 127.123492,9.01331225 C126.241127,9.91640063 125.800779,11.0566847 125.800779,12.4341645 C125.800779,13.7771658 126.238205,14.892941 127.113475,15.7852289 C127.989162,16.6775168 129.083562,17.1232453 130.397927,17.1232453 C131.773231,17.1232453 132.913544,16.6775168 133.818449,15.7852289 C134.722936,14.892941 135.17497,13.7680269 135.17497,12.4075787 C135.17497,11.0479612 134.726692,9.91640063 133.830553,9.01331225" id="Fill-15" fill="#0061AC"></path>
                    <path d="M21.7397843,34.8572177 C19.742567,36.7564449 17.2528278,37.7073048 14.2680626,37.7073048 C11.2962365,37.7073048 8.82194087,36.7743073 6.84475826,34.9124664 C4.86757565,33.0506255 3.87961043,30.7160548 3.87961043,27.9104159 C3.87961043,25.0187884 4.86465391,22.6410157 6.83557565,20.7783439 C8.80649739,18.9169184 11.32128,17.9851672 14.3828452,17.9851672 C17.2908104,17.9851672 19.742567,18.9268881 21.7397843,20.8057606 C21.7619061,20.8281924 21.7802713,20.8481318 21.802393,20.8693174 L21.802393,20.6537227 L21.802393,17.0359689 L21.802393,16.6629361 C18.6565148,15.2401773 15.7978017,14.5281747 13.2254191,14.5281747 C9.49519304,14.5281747 6.35849739,15.8155119 3.81491478,18.3901861 C1.27133217,20.9631987 -4.17391304e-05,24.1368856 -4.17391304e-05,27.9104159 C-4.17391304e-05,30.2861116 0.555506087,32.4948149 1.66618435,34.5352795 C2.77728,36.5790674 4.28531478,38.1812808 6.19154087,39.3444121 C8.09693217,40.5075434 10.4184626,41.0886937 13.15488,41.0886937 C16.5228104,41.0886937 19.492967,40.3467821 22.0653496,38.8612972 L22.0653496,38.4928338 L22.0653496,34.7774601 L22.0653496,34.5444184 C22.0553322,34.5510649 22.04448,34.5560497 22.0336278,34.5626962 C21.9380452,34.6607316 21.8403757,34.7616747 21.7397843,34.8572177" id="Fill-12" fill="#0061AC"></path>
                </g>
            </g>
        </g>
    </g>
</svg>