<?xml version="1.0" encoding="UTF-8"?>
<svg width="233px" height="88px" viewBox="0 0 233 88" version="1.1" xmlns="http://www.w3.org/2000/svg" xmlns:xlink="http://www.w3.org/1999/xlink">
    <!-- Generator: Sketch 50 (54983) - http://www.bohemiancoding.com/sketch -->
    <title>Equifax</title>
    <desc>Created with Sketch.</desc>
    <defs></defs>
    <g id="Page-1" stroke="none" stroke-width="1" fill="none" fill-rule="evenodd">
        <g id="Logos" transform="translate(-125.000000, -1932.000000)">
            <g id="Equifax" transform="translate(125.000000, 1932.000000)">
                <rect id="Rectangle-3-Copy-9" fill="#FFFFFF" x="-1.42108547e-14" y="0" width="233" height="88"></rect>
                <g id="Group" transform="translate(22.000000, 28.000000)">
                    <g id="Group-4">
                        <polygon id="Fill-2" fill="#A2293E" points="29.530568 6.2810192 30.7157632 0.7132592 6.1197232 0.7132592 2.8601872 16.0230944 0.0940672 28.350416 25.3818864 28.350416 26.6657648 22.4847056 12.639792 22.4847056 13.9236704 16.5206816 25.7766192 16.5206816 27.0604976 10.9529216 15.2075488 10.9529216 16.1953776 6.2810192"></polygon>
                        <polygon id="Stroke-3" stroke="#A2293E" stroke-width="0.619" points="29.530568 6.2810192 30.7157632 0.7132592 6.1197232 0.7132592 2.8601872 16.0230944 0.0940672 28.350416 25.3818864 28.350416 26.6657648 22.4847056 12.639792 22.4847056 13.9236704 16.5206816 25.7766192 16.5206816 27.0604976 10.9529216 15.2075488 10.9529216 16.1953776 6.2810192"></polygon>
                    </g>
                    <path d="M50.175,16.52 L58.769,16.52 C59.073,14.724 59.638,12.042 59.757,9.86 C59.894,7.305 58.892,5.424 56.695,4.193 C53.547,2.437 48.909,2.53 45.434,2.404 C40.67,2.23 35.001,2.848 32,7.076 C30.452,9.257 29.581,12.636 29.239,15.278 C28.816,18.502 27.199,23.911 30.123,26.561 C32.297,28.532 37.161,29.189 39.989,29.15 C42.87,29.108 45.665,28.92 48.496,28.35 L55.904,37.397 L67.462,37.397 L50.175,16.52 Z M48.891,16.719 C47.946,21.006 46.659,24.611 41.68,24.572 C36.682,24.534 38.34,19.157 38.816,16.023 C39.489,11.571 41.199,6.902 46.323,7.275 C51.51,7.653 49.679,13.156 48.891,16.719 Z" id="Fill-5" fill="#A2293E"></path>
                    <polyline id="Fill-6" fill="#A2293E" points="96.305 3.796 93.638 16.023 90.971 28.35 101.046 28.35 106.479 3.796 96.305 3.796"></polyline>
                    <polyline id="Fill-7" fill="#A2293E" points="131.174 8.667 132.359 3.796 110.331 3.796 104.997 28.35 115.171 28.35 117.443 17.813 127.42 17.813 127.815 16.023 128.408 13.24 118.53 13.24 119.518 8.667 131.174 8.667"></polyline>
                    <path d="M63.905,3.796 L74.179,3.796 L70.326,21.193 C69.855,23.319 71.839,24.429 73.54,24.576 C75.728,24.767 77.691,23.393 78.228,21.093 L82.278,3.796 L92.452,3.796 L88.402,22.187 C86.669,26.981 82.651,28.864 78.217,29.336 C75.466,29.629 72.556,29.38 69.931,28.947 L60.843,18.011 L63.905,3.796" id="Fill-8" fill="#A2293E"></path>
                    <path d="M153.991,3.796 L166.932,3.796 L170.883,10.158 L177.303,3.796 L187.181,3.796 L174.241,15.228 L182.736,28.35 L170.092,28.35 L165.944,20.894 L158.832,28.35 L143.719,28.35 L143.126,22.982 L132.655,22.982 L129.001,28.35 L121.888,28.35 L139.076,3.796 L151.423,3.796 L153.794,23.678 L161.992,16.123 L153.991,3.796 Z M136.014,17.713 L141.545,9.363 L142.533,17.713 L136.014,17.713 Z" id="Fill-9" fill="#A2293E"></path>
                </g>
            </g>
        </g>
    </g>
</svg>