<?xml version="1.0" encoding="UTF-8"?>
<svg width="233px" height="88px" viewBox="0 0 233 88" version="1.1" xmlns="http://www.w3.org/2000/svg" xmlns:xlink="http://www.w3.org/1999/xlink">
    <!-- Generator: Sketch 50 (54983) - http://www.bohemiancoding.com/sketch -->
    <title>GetOnBoard</title>
    <desc>Created with Sketch.</desc>
    <defs>
        <path d="M20.7360648,18.8574462 C20.7360648,20.1496109 20.5372743,21.3920648 20.1396933,22.5848308 C19.7420947,23.7775967 19.164369,24.8274643 18.4064637,25.7344634 C17.6485584,26.6414624 16.7229275,27.3682941 15.6295708,27.9149794 C14.5361967,28.461663 13.2937427,28.7350022 11.9021916,28.7350022 C10.6597201,28.7350022 9.48560538,28.4803002 8.37981229,27.9708892 C7.2740192,27.4614782 6.42295435,26.7346482 5.82656527,25.7903748 L5.75201664,25.7903748 L5.75201664,28.2131687 L0.123682167,28.2131687 L0.123682167,0.0342133106 L6.23658276,0.0342133106 L6.23658276,11.6263511 L6.31111391,11.6263511 C6.83295435,11.0051067 7.56600427,10.4335904 8.51028114,9.91175 C9.45454053,9.38990956 10.6100269,9.12900683 11.9767402,9.12900683 C13.3185981,9.12900683 14.5299872,9.38990956 15.6109249,9.91175 C16.6918626,10.4335904 17.6112841,11.141785 18.3691894,12.0363511 C19.1270947,12.9309347 19.7110299,13.9683712 20.1210474,15.1487129 C20.5310648,16.3290546 20.7360648,17.5652991 20.7360648,18.8574462 Z M14.8468102,18.8574462 C14.8468102,18.2610747 14.7536331,17.677122 14.5672615,17.1055883 C14.3808899,16.5340546 14.1013413,16.0308601 13.7285981,15.5960047 C13.3558549,15.1611318 12.8961617,14.8070346 12.3494659,14.5336954 C11.8027875,14.2603562 11.1691416,14.1236954 10.4485107,14.1236954 C9.75273507,14.1236954 9.13150811,14.2603562 8.58482978,14.5336954 C8.03813396,14.8070346 7.57221374,15.1673588 7.18705162,15.6146331 C6.80188951,16.0619249 6.50371246,16.5713289 6.29248549,17.1428626 C6.08125853,17.7143963 5.97566254,18.298349 5.97566254,18.8947206 C5.97566254,19.4911096 6.08125853,20.0750623 6.29248549,20.646596 C6.50371246,21.2181297 6.80188951,21.727532 7.18705162,22.1748203 C7.57221374,22.6221068 8.03813396,22.9824171 8.58482978,23.255758 C9.13150811,23.5291006 9.75273507,23.6657702 10.4485107,23.6657702 C11.1691416,23.6657702 11.8027875,23.5291006 12.3494659,23.255758 C12.8961617,22.9824171 13.3558549,22.6221068 13.7285981,22.1748203 C14.1013413,21.727532 14.3808899,21.2119167 14.5672615,20.6279501 C14.7536331,20.0439974 14.8468102,19.4538353 14.8468102,18.8574462 Z M43.3612432,18.8574462 C43.3612432,20.3732568 43.087904,21.7461656 42.5412257,22.9762058 C41.9945299,24.2062461 41.249061,25.2499007 40.3047841,26.1072013 C39.3605247,26.9645018 38.2671681,27.6292108 37.0246967,28.1013475 C35.7822427,28.5734842 34.4528212,28.8095491 33.0364147,28.8095491 C31.644846,28.8095491 30.3216515,28.5734842 29.0667611,28.1013475 C27.8118707,27.6292108 26.7185141,26.9645018 25.7866561,26.1072013 C24.8548157,25.2499007 24.1155563,24.2062461 23.568878,22.9762058 C23.0221822,21.7461656 22.748843,20.3732568 22.748843,18.8574462 C22.748843,17.3416532 23.0221822,15.9749573 23.568878,14.7573413 C24.1155563,13.5397253 24.8548157,12.5084983 25.7866561,11.6636254 C26.7185141,10.8187351 27.8118707,10.1726702 29.0667611,9.72537841 C30.3216515,9.2781041 31.644846,9.05445819 33.0364147,9.05445819 C34.4528212,9.05445819 35.7822427,9.2781041 37.0246967,9.72537841 C38.2671681,10.1726702 39.3605247,10.8187351 40.3047841,11.6636254 C41.249061,12.5084983 41.9945299,13.5397253 42.5412257,14.7573413 C43.087904,15.9749573 43.3612432,17.3416532 43.3612432,18.8574462 Z M37.4719885,18.8574462 C37.4719885,18.2610747 37.3725845,17.677122 37.1737939,17.1055883 C36.9750034,16.5340546 36.6892453,16.0308601 36.3165021,15.5960047 C35.943759,15.1611318 35.4840482,14.8070346 34.9373699,14.5336954 C34.3906916,14.2603562 33.7570456,14.1236954 33.0364147,14.1236954 C32.3157837,14.1236954 31.6821378,14.2603562 31.135442,14.5336954 C30.5887637,14.8070346 30.1352624,15.1611318 29.7749556,15.5960047 C29.4146489,16.0308601 29.1413097,16.5340546 28.9549381,17.1055883 C28.7685666,17.677122 28.675372,18.2610747 28.675372,18.8574462 C28.675372,19.4538353 28.7685666,20.037788 28.9549381,20.6093217 C29.1413097,21.1808554 29.4208584,21.6964706 29.793584,22.1561831 C30.1663272,22.6158939 30.626038,22.9824171 31.1727163,23.255758 C31.7194121,23.5291006 32.353058,23.6657702 33.073689,23.6657702 C33.79432,23.6657702 34.4279659,23.5291006 34.9746442,23.255758 C35.5213225,22.9824171 35.9810333,22.6158939 36.3537765,22.1561831 C36.7265196,21.6964706 37.0060683,21.1808554 37.1924398,20.6093217 C37.3788114,20.037788 37.4719885,19.4538353 37.4719885,18.8574462 Z M57.2643537,20.1247555 L56.4816105,20.1247555 C55.8106728,20.1247555 55.1335431,20.1558204 54.4501864,20.2179501 C53.7668298,20.2800623 53.1580392,20.3980947 52.6237624,20.5720474 C52.089503,20.746 51.6484381,21.000695 51.3005503,21.3361604 C50.9526625,21.6716257 50.7787274,22.1126941 50.7787274,22.6593776 C50.7787274,23.0072689 50.8594855,23.3054565 51.0210017,23.553949 C51.1825179,23.8024416 51.3875179,24.0012338 51.6360192,24.1503294 C51.884503,24.2994249 52.1702786,24.4050331 52.493311,24.4671558 C52.8163609,24.5292785 53.1269569,24.5603398 53.4251515,24.5603398 C54.6676229,24.5603398 55.6180917,24.2186668 56.276593,23.5353119 C56.9351118,22.8519552 57.2643537,21.926333 57.2643537,20.7584189 L57.2643537,20.1247555 Z M46.044959,12.1854484 C47.1383157,11.141785 48.4118345,10.3590418 49.8655154,9.83720137 C51.3191962,9.31536092 52.8039245,9.05445819 54.3197351,9.05445819 C55.8852389,9.05445819 57.2084334,9.24703925 58.2893887,9.63220137 C59.3703264,10.0173635 60.2462466,10.6137351 60.9171843,11.4213336 C61.588122,12.2289497 62.0788801,13.2477402 62.3894936,14.4777927 C62.7001071,15.7078276 62.8554138,17.1677005 62.8554138,18.8574462 L62.8554138,28.2131687 L57.2643537,28.2131687 L57.2643537,26.2376596 L57.1525307,26.2376596 C56.680401,27.0079874 55.965997,27.6043625 55.0092837,28.0268006 C54.0525879,28.4492388 53.0151515,28.6604535 51.8969394,28.6604535 C51.1514531,28.6604535 50.3811288,28.5610583 49.5859667,28.3622642 C48.7907871,28.1634702 48.0639467,27.8404343 47.4054454,27.393146 C46.7469441,26.9458594 46.2064753,26.3494843 45.7840388,25.604005 C45.3616024,24.8585274 45.1503754,23.9391164 45.1503754,22.8457475 C45.1503754,21.5038843 45.5169091,20.4229501 46.249959,19.6029326 C46.983009,18.7828976 47.9272683,18.1492517 49.0827722,17.7019599 C50.2382585,17.2546856 51.5241962,16.956491 52.9406028,16.8073938 C54.3570094,16.6582965 55.7361241,16.5837479 57.0779821,16.5837479 L57.0779821,16.2855708 C57.0779821,15.3661493 56.7549497,14.6890021 56.1088673,14.2541468 C55.462785,13.8192739 54.6676229,13.6018549 53.723346,13.6018549 C52.8536177,13.6018549 52.0149718,13.7882265 51.2073733,14.1609522 C50.3997573,14.5336954 49.7102086,14.9809872 49.1386749,15.5028102 L46.044959,12.1854484 Z M78.5104522,14.6455183 C78.2370606,14.5709697 77.9699659,14.5212765 77.7089932,14.4964211 C77.4480205,14.4715832 77.1933447,14.4591468 76.9449659,14.4591468 C76.124791,14.4591468 75.4352773,14.608244 74.87625,14.9064386 C74.3170478,15.2046331 73.869791,15.5649398 73.5343046,15.9873763 C73.1988183,16.4098127 72.9565614,16.8695235 72.8075341,17.3665085 C72.6583319,17.8634936 72.5838183,18.298349 72.5838183,18.6710922 L72.5838183,28.2131687 L66.4709701,28.2131687 L66.4709701,9.65082978 L72.3602773,9.65082978 L72.3602773,12.3345456 L72.434791,12.3345456 C72.9068857,11.3902688 73.5778584,10.619962 74.4475341,10.023573 C75.3172099,9.42718387 76.3236689,9.12900683 77.4667363,9.12900683 C77.7152901,9.12900683 77.9575469,9.14142577 78.1935068,9.16628114 C78.4296416,9.19111903 78.6222227,9.22839334 78.77125,9.2781041 L78.5104522,14.6455183 Z M93.680802,28.2131687 L93.680802,25.7903748 L93.6062884,25.7903748 C93.0098294,26.7346482 92.1588695,27.4614782 91.0530589,27.9708892 C89.9472483,28.4803002 88.7730461,28.7350022 87.5306271,28.7350022 C86.139006,28.7350022 84.896587,28.461663 83.8031954,27.9149794 C82.7099787,27.3682941 81.7843302,26.6414624 81.0264249,25.7344634 C80.2685196,24.8274643 79.6907765,23.7775967 79.2931954,22.5848308 C78.8956143,21.3920648 78.6967363,20.1496109 78.6967363,18.8574462 C78.6967363,17.5652991 78.9017363,16.3290546 79.3117363,15.1487129 C79.7217363,13.9683712 80.3057765,12.9309347 81.0636817,12.0363511 C81.821587,11.141785 82.7409386,10.4335904 83.8219113,9.91175 C84.902884,9.38990956 86.1141681,9.12900683 87.4561135,9.12900683 C88.8228968,9.12900683 89.9782082,9.38990956 90.9225725,9.91175 C91.8667619,10.4335904 92.5998294,11.0051067 93.1217747,11.6263511 L93.1962884,11.6263511 L93.1962884,0.0342133106 L99.3092065,0.0342133106 L99.3092065,28.2131687 L93.680802,28.2131687 Z M93.4572611,18.8947206 C93.4572611,18.298349 93.3516126,17.7143963 93.1403157,17.1428626 C92.9291937,16.5713289 92.6309642,16.0619249 92.245802,15.6146331 C91.8606399,15.1673588 91.3946672,14.8070346 90.8480589,14.5336954 C90.3012756,14.2603562 89.6801536,14.1236954 88.984343,14.1236954 C88.2636945,14.1236954 87.6299787,14.2603562 87.0833703,14.5336954 C86.5367619,14.8070346 86.0769113,15.1611318 85.7041681,15.5960047 C85.3314249,16.0308601 85.0519113,16.5340546 84.8656271,17.1055883 C84.6791681,17.677122 84.5859386,18.2610747 84.5859386,18.8574462 C84.5859386,19.4538353 84.6791681,20.0439974 84.8656271,20.6279501 C85.0519113,21.2119167 85.3314249,21.727532 85.7041681,22.1748203 C86.0769113,22.6221068 86.5367619,22.9824171 87.0833703,23.255758 C87.6299787,23.5291006 88.2636945,23.6657702 88.984343,23.6657702 C89.6801536,23.6657702 90.3012756,23.5291006 90.8480589,23.255758 C91.3946672,22.9824171 91.8606399,22.6221068 92.245802,22.1748203 C92.6309642,21.727532 92.9291937,21.2181297 93.1403157,20.646596 C93.3516126,20.0750623 93.4572611,19.4911096 93.4572611,18.8947206 Z" id="path-1"></path>
        <path d="M12.2481028,19.1176056 L12.2481028,8.97913993 C12.2481028,8.45729949 12.204619,7.96033191 12.1176515,7.48818473 C12.0306839,7.01605503 11.8877961,6.59982807 11.6890055,6.23952133 C11.4901975,5.87921459 11.2106489,5.59343899 10.8503422,5.38222952 C10.4900179,5.17100256 10.0365341,5.06538908 9.4898558,5.06538908 C8.94315998,5.06538908 8.46482082,5.17100256 8.05480333,5.38222952 C7.64478584,5.59343899 7.303125,5.88542406 7.02978584,6.25814974 C6.75642918,6.63089292 6.55142918,7.05953882 6.41476834,7.54410495 C6.27809002,8.02867108 6.20975085,8.53184812 6.20975085,9.05368857 L6.20975085,19.1176056 L0.05959343,19.1176056 L0.05959343,0.555266638 L5.98612244,0.555266638 L5.98612244,3.12715956 L6.06065358,3.12715956 C6.28429949,2.7295785 6.57628456,2.33820691 6.9365913,1.9530448 C7.29691553,1.56788268 7.71933447,1.23862329 8.2039006,0.96528413 C8.68846672,0.691944966 9.21649915,0.468299061 9.78803285,0.294363908 C10.3595666,0.120411263 10.9683746,0.033443686 11.6144569,0.033443686 C12.8569108,0.033443686 13.9129932,0.257072099 14.7827214,0.704363908 C15.6524497,1.15165572 16.3544347,1.72939889 16.8886941,2.43759343 C17.4229535,3.14580546 17.8081156,3.95961348 18.0441805,4.87903498 C18.2802453,5.79845648 18.3982777,6.71786049 18.3982777,7.637282 L18.3982777,19.1176056 L12.2481028,19.1176056 Z" id="path-3"></path>
        <path d="M51.4209791,9.51280461 L51.4209791,16.594827 C51.4209791,17.4645517 51.5887048,18.1168365 51.9241736,18.5516989 C52.2596425,18.9865613 52.8622235,19.2039907 53.7319518,19.2039907 C54.0301463,19.2039907 54.3469693,19.1791406 54.6824381,19.1294421 C55.017907,19.0797436 55.2974556,19.0051967 55.5211015,18.9057997 L55.5956502,23.3786513 C55.1732137,23.5277468 54.6389544,23.6582034 53.992872,23.7700264 C53.3467897,23.8818476 52.7007248,23.9377573 52.0546425,23.9377573 C50.8121711,23.9377573 49.7685252,23.7824523 48.9236348,23.4718353 C48.0787619,23.1612201 47.4016323,22.7139388 46.8922282,22.1299809 C46.3828067,21.5460212 46.0162905,20.8502526 45.7926446,20.0426488 C45.5689987,19.2350468 45.4571758,18.3342747 45.4571758,17.3403028 L45.4571758,9.51280461 L42.4752828,9.51280461 L42.4752828,4.92813353 L45.4199015,4.92813353 L45.4199015,0.0452679181 L51.4209791,0.0452679181 L51.4209791,4.92813353 L55.7820218,4.92813353 L55.7820218,9.51280461 L51.4209791,9.51280461 Z M41.9161681,14.4329445 L41.9161681,15.1784309 C41.9161681,15.4269147 41.9037491,15.6629795 41.8788938,15.8866254 L28.4230751,15.8866254 C28.4727683,16.4084606 28.6280751,16.8805903 28.8889953,17.3030285 C29.1499155,17.7254667 29.4853669,18.0919881 29.8953844,18.4026034 C30.3054019,18.7132203 30.7651126,18.9554982 31.2745166,19.1294421 C31.7839206,19.3033877 32.3119706,19.3903588 32.8586489,19.3903588 C33.8277811,19.3903588 34.6477811,19.2102037 35.3187189,18.8498899 C35.9896566,18.4895744 36.5363174,18.0236577 36.9587713,17.452124 L41.2079735,20.1358346 C40.3382453,21.4031474 39.1889859,22.3784682 37.7601429,23.0618248 C36.3313174,23.7451797 34.672654,24.0868528 32.7841003,24.0868528 C31.3925491,24.0868528 30.0755465,23.8694251 28.8330751,23.4345628 C27.5906212,22.9996986 26.503474,22.366051 25.5716335,21.5336006 C24.6397756,20.7011484 23.9067432,19.6761309 23.3724838,18.4585148 C22.8382244,17.2408988 22.5710947,15.8493511 22.5710947,14.2838473 C22.5710947,12.7680542 22.8319974,11.3951489 23.3538379,10.1650964 C23.8756783,8.93506143 24.5838729,7.89141553 25.478439,7.03410623 C26.3730226,6.17681442 27.4291049,5.51210367 28.646721,5.03995648 C29.864337,4.56782679 31.1813221,4.33176195 32.5977287,4.33176195 C33.964442,4.33176195 35.2193148,4.56161732 36.3623823,5.02132807 C37.5054497,5.48103882 38.4869834,6.14574957 39.3070183,7.01547782 C40.1270358,7.88518857 40.7668912,8.9412709 41.226602,10.1837423 C41.6863127,11.4261962 41.9161681,12.8425853 41.9161681,14.4329445 Z M20.6245742,21.7386058 C20.6245742,23.5526039 20.363654,25.130511 19.8418311,26.4723741 C19.3199906,27.8142356 18.5869407,28.9262259 17.6426638,29.8083748 C16.6984044,30.6905255 15.5491363,31.3490215 14.1948489,31.7838839 C12.8405616,32.2187473 11.3434144,32.4361754 9.70336015,32.4361754 C8.06330768,32.4361754 6.37979241,32.1876862 4.65276536,31.6906999 C2.92574006,31.1937148 1.42859288,30.4730961 0.161278328,29.5288227 L3.21772688,25.1677923 C4.11230175,25.9629701 5.10004667,26.5531323 6.18098963,26.9382961 C7.26193434,27.32346 8.32422615,27.5160393 9.36789654,27.5160393 C11.1570463,27.5160393 12.4802513,27.0439096 13.3375519,26.0996362 C14.1948542,25.1553628 14.6234966,23.9004917 14.6234966,22.3349861 L14.6234966,21.2167724 L14.5116754,21.2167724 C13.9401417,21.9622517 13.1698262,22.5586268 12.2007027,23.0059134 C11.2315809,23.4532017 10.1258036,23.6768406 8.88333741,23.6768406 C7.46692735,23.6768406 6.21205798,23.4221403 5.11868733,22.9127293 C4.02531843,22.4033183 3.0996962,21.7137609 2.34179266,20.8440362 C1.58388912,19.9743097 1.00615119,18.9617164 0.60856314,17.8062248 C0.210973336,16.6507314 0.0121828072,15.4269147 0.0121828072,14.13475 C0.0121828072,12.8426028 0.210973336,11.6125678 0.60856314,10.4446625 C1.00615119,9.27673976 1.58388912,8.2455128 2.34179266,7.35092918 C3.0996962,6.45636305 4.02531843,5.74195904 5.11868733,5.20769966 C6.21205798,4.67344027 7.45450316,4.40631058 8.84606485,4.40631058 C10.0139806,4.40631058 11.1321822,4.64237543 12.2007027,5.11450512 C13.2692232,5.5866523 14.1265098,6.31968473 14.7725921,7.31365486 L14.8471407,7.31365486 L14.8471407,4.92813353 L20.6245742,4.92813353 L20.6245742,21.7386058 Z M14.8098664,14.0974932 C14.8098664,13.4762487 14.7042582,12.8798771 14.49304,12.3083434 C14.28182,11.7368097 13.9774212,11.2336152 13.5798314,10.7987598 C13.1822434,10.3638869 12.7101137,10.0222261 12.1634284,9.77372483 C11.6167448,9.52524104 10.9955213,9.40099915 10.2997405,9.40099915 C9.60396139,9.40099915 8.98894915,9.52524104 8.45468976,9.77372483 C7.92043038,10.0222261 7.46693784,10.3576775 7.09419817,10.7801139 C6.72145849,11.2025503 6.43569514,11.6995354 6.23690111,12.2710691 C6.03810708,12.8426028 5.93871007,13.4514108 5.93871007,14.0974932 C5.93871007,14.7187201 6.03810708,15.3150917 6.23690111,15.8866254 C6.43569514,16.4581591 6.72145849,16.9613502 7.09419817,17.3962125 C7.46693784,17.8310749 7.92043038,18.178961 8.45468976,18.4398777 C8.98894915,18.7007962 9.60396139,18.8312528 10.2997405,18.8312528 C10.9955213,18.8312528 11.622956,18.7007962 12.1820655,18.4398777 C12.741175,18.178961 13.2133047,17.8372879 13.5984686,17.4148497 C13.9836325,16.9924115 14.28182,16.4954334 14.49304,15.9238997 C14.7042582,15.352366 14.8098664,14.743558 14.8098664,14.0974932 Z M36.2878336,12.0846975 C36.2878336,11.1155828 35.9834296,10.2831463 35.3746216,9.58735324 C34.7658136,8.89157765 33.852619,8.54368985 32.635003,8.54368985 C32.0386314,8.54368985 31.4919531,8.63688439 30.994968,8.82325597 C30.4979829,9.00961007 30.0631276,9.26432082 29.6903844,9.58735324 C29.3176412,9.91040316 29.0194467,10.2893383 28.7958183,10.7242112 C28.5721724,11.1590666 28.447913,11.6125678 28.4230751,12.0846975 L36.2878336,12.0846975 Z" id="path-5"></path>
        <path d="M20.7284386,9.93679778 C20.7284386,11.4526084 20.4550994,12.8255172 19.9084211,14.0555574 C19.3617253,15.2855976 18.6162564,16.3292523 17.671997,17.1865528 C16.7277201,18.0438534 15.6343635,18.7085624 14.3918921,19.1806991 C13.1494381,19.6528358 11.8200166,19.8889006 10.4036101,19.8889006 C9.01204138,19.8889006 7.68884684,19.6528358 6.43395648,19.1806991 C5.17906613,18.7085624 4.08570947,18.0438534 3.15386903,17.1865528 C2.22201109,16.3292523 1.48275171,15.2855976 0.936073379,14.0555574 C0.389395051,12.8255172 0.116055887,11.4526084 0.116055887,9.93679778 C0.116055887,8.42100469 0.389395051,7.05430887 0.936073379,5.83669283 C1.48275171,4.61907679 2.22201109,3.58784983 3.15386903,2.74297696 C4.08570947,1.8980866 5.17906613,1.25202176 6.43395648,0.804729949 C7.68884684,0.357455631 9.01204138,0.133809727 10.4036101,0.133809727 C11.8200166,0.133809727 13.1494381,0.357455631 14.3918921,0.804729949 C15.6343635,1.25202176 16.7277201,1.8980866 17.671997,2.74297696 C18.6162564,3.58784983 19.3617253,4.61907679 19.9084211,5.83669283 C20.4550994,7.05430887 20.7284386,8.42100469 20.7284386,9.93679778 Z M14.8391839,9.93679778 C14.8391839,9.34042619 14.7397974,8.75647355 14.5409893,8.18493985 C14.3421988,7.61340614 14.0564407,7.1102116 13.6836975,6.67535623 C13.3109544,6.24048336 12.8512611,5.88638609 12.3045653,5.61304693 C11.7578869,5.33970776 11.124241,5.20304693 10.4036101,5.20304693 C9.6829791,5.20304693 9.04933319,5.33970776 8.50265486,5.61304693 C7.95595904,5.88638609 7.50247526,6.24048336 7.14215102,6.67535623 C6.78184428,7.1102116 6.50850512,7.61340614 6.32213353,8.18493985 C6.13576195,8.75647355 6.0425849,9.34042619 6.0425849,9.93679778 C6.0425849,10.5331869 6.13576195,11.1171395 6.32213353,11.6886732 C6.50850512,12.2602069 6.78805375,12.7758221 7.16079693,13.2355346 C7.53352261,13.6952454 7.99323336,14.0617686 8.53991169,14.3351095 C9.08660751,14.6084522 9.72025341,14.7451218 10.4408844,14.7451218 C11.1615154,14.7451218 11.7951613,14.6084522 12.3418396,14.3351095 C12.8885354,14.0617686 13.3482287,13.6952454 13.7209718,13.2355346 C14.093715,12.7758221 14.3732637,12.2602069 14.5596352,11.6886732 C14.7460068,11.1171395 14.8391839,10.5331869 14.8391839,9.93679778 Z" id="path-7"></path>
    </defs>
    <g id="Page-1" stroke="none" stroke-width="1" fill="none" fill-rule="evenodd">
        <g id="Logos" transform="translate(-119.000000, -1619.000000)">
            <g id="GetOnBoard" transform="translate(119.000000, 1619.000000)">
                <rect id="Rectangle-3-Copy-8" fill="#FFFFFF" x="-1.42108547e-14" y="0" width="233" height="88"></rect>
                <g id="getonbrd-horizontal-clearbg" transform="translate(14.000000, 27.000000)">
                    <g id="Group-3" transform="translate(102.325085, 0.924061)">
                        <mask id="mask-2" fill="white">
                            <use xlink:href="#path-1"></use>
                        </mask>
                        <g id="Clip-2"></g>
                        <polygon id="Fill-1" fill="#00B1DD" mask="url(#mask-2)" points="-1.62546459 30.5586958 101.058301 30.5586958 101.058301 -1.71493345 -1.62546459 -1.71493345"></polygon>
                    </g>
                    <g id="Group-6" transform="translate(80.285836, 10.019625)">
                        <mask id="mask-4" fill="white">
                            <use xlink:href="#path-3"></use>
                        </mask>
                        <g id="Clip-5"></g>
                        <polygon id="Fill-4" fill="#878890" mask="url(#mask-4)" points="-1.68955333 20.8667523 20.1474245 20.8667523 20.1474245 -1.71571182 -1.68955333 -1.71571182"></polygon>
                    </g>
                    <g id="Group-9" transform="translate(0.000000, 5.646758)">
                        <mask id="mask-6" fill="white">
                            <use xlink:href="#path-5"></use>
                        </mask>
                        <g id="Clip-8"></g>
                        <polygon id="Fill-7" fill="#FE7165" mask="url(#mask-6)" points="-1.73696397 34.1853221 57.5311598 34.1853221 57.5311598 -1.70386345 -1.73696397 -1.70386345"></polygon>
                    </g>
                    <g id="Group-12" transform="translate(56.672355, 9.844710)">
                        <mask id="mask-8" fill="white">
                            <use xlink:href="#path-7"></use>
                        </mask>
                        <g id="Clip-11"></g>
                        <polygon id="Fill-10" fill="#878890" mask="url(#mask-8)" points="-1.63309087 21.6380474 22.4775853 21.6380474 22.4775853 -1.61533703 -1.63309087 -1.61533703"></polygon>
                    </g>
                </g>
            </g>
        </g>
    </g>
</svg>