<?xml version="1.0" encoding="UTF-8" standalone="no"?>
<svg width="233px" height="121px" viewBox="0 0 233 121" version="1.1" xmlns="http://www.w3.org/2000/svg" xmlns:xlink="http://www.w3.org/1999/xlink">
    <!-- Generator: Sketch 41.2 (35397) - http://www.bohemiancoding.com/sketch -->
    <title>Group 15</title>
    <desc>Created with Sketch.</desc>
    <defs></defs>
    <g id="Page-1" stroke="none" stroke-width="1" fill="none" fill-rule="evenodd">
        <g id="Artboard-2" transform="translate(-119.000000, -936.000000)">
            <g id="Group-15" transform="translate(119.000000, 936.000000)">
                <rect id="Rectangle-3" fill="#FFFFFF" x="1.42108547e-14" y="0" width="233" height="121"></rect>
                <g id="Group-9" transform="translate(12.000000, 40.902222)">
                    <path d="M164.863067,13.5842 L177.323533,13.5842 C181.065733,13.5842 183.911467,13.9318667 185.511667,14.826 C187.119333,15.7154667 187.8296,17.3166 187.8296,19.4534667 L187.8296,29.7789333 L181.2384,29.7789333 L181.2384,19.9836 C181.2384,18.7376 180.883267,18.0259333 180.348467,17.6722 C179.816,17.3166 178.5742,17.1397333 176.791533,17.1397333 L171.451,17.1397333 L171.451,29.7789333 L164.863067,29.7789333 L164.863067,13.5842" id="Fill-1" fill="#1A1918"></path>
                    <polygon id="Fill-2" fill="#1A1918" points="63.2254 29.7789333 70.1670667 29.7789333 70.1670667 7.5264 63.2254 7.5264"></polygon>
                    <path d="M40.8011333,20.5216667 L40.8011333,16.6058667 L57.8848667,16.6058667 L57.8848667,29.7789333 L42.3999333,29.7789333 C39.5504667,29.7789333 37.2390667,29.6025333 35.812,29.2432 C34.2108667,29.0644667 32.7875333,28.5292 31.3679333,27.8184667 C29.5866667,26.9262 28.3397333,25.6839333 27.4498,24.2578 C26.5556667,22.8358667 26.2014667,21.0574 26.2014667,19.1016 C26.2014667,15.1816 27.4498,12.3368 30.1238,10.3768 C32.7875333,8.59553333 36.8839333,7.5264 42.3999333,7.5264 L57.8848667,7.5264 L57.8848667,11.4431333 L42.3999333,11.4431333 C39.5504667,11.4431333 37.415,11.9751333 36.1736667,13.2216 C34.923,14.4713333 34.2108667,16.2479333 34.2108667,18.9191333 C34.2108667,21.2314667 34.923,23.0150667 36.1736667,24.0832667 C37.415,25.1514667 39.5504667,25.6839333 42.3999333,25.6839333 L50.5913333,25.6839333 L50.5913333,20.5216667 L40.8011333,20.5216667" id="Fill-3" fill="#1A1918"></path>
                    <path d="M87.6106,29.9553333 C83.5198,29.9553333 80.1355333,29.2432 77.8213333,27.8184667 C75.3307333,26.2164 74.0847333,24.2578 74.0847333,21.5917333 C74.0847333,19.1016 75.3307333,16.9605333 77.8213333,15.54 C80.1355333,13.9318667 83.5198,13.2216 87.6106,13.2216 C87.9718,13.2216 88.3255333,13.2267333 88.6732,13.2388667 C92.2637333,13.3541333 95.1132,14.0737333 97.2253333,15.54 C99.7178,16.9605333 100.961933,19.1016 100.961933,21.5917333 C100.961933,24.2578 99.7178,26.2164 97.4017333,27.8184667 C94.9102,29.2432 91.7056,29.9553333 87.6106,29.9553333 M87.6106,26.5748 C89.5724667,26.5748 91.175,26.0376667 92.2436667,25.3269333 C93.3118667,24.4318667 94.0193333,23.1882 94.0193333,21.5917333 C94.0193333,20.1642 93.3118667,18.9191333 92.2436667,18.0259333 C91.175,17.1397333 89.5724667,16.7836667 87.6106,16.7836667 C85.4779333,16.7836667 83.8758667,17.1397333 82.8076667,18.0259333 C81.7404,18.9191333 81.2074667,20.1642 81.2074667,21.5917333 C81.2074667,23.1882 81.7404,24.4318667 82.8076667,25.3269333 C83.8758667,26.0376667 85.4779333,26.5748 87.6106,26.5748" id="Fill-4" fill="#BBD236"></path>
                    <path d="M117.516,29.7789333 L105.055533,29.7789333 L105.055533,7.5264 L111.817533,7.5264 L111.817533,13.5842 L117.516,13.5842 C120.008467,13.5842 121.965667,13.7582667 123.5668,14.1134 C125.174,14.4713333 126.415333,15.1816 127.484467,16.0724667 C128.3758,16.7836667 129.087467,17.493 129.616667,18.3904 C129.975067,19.2756667 130.335333,20.3448 130.335333,21.4092667 C130.335333,24.0832667 129.087467,26.0376667 126.952933,27.4628667 C124.8142,29.0644667 121.787867,29.7789333 117.8744,29.7789333 L117.516,29.7789333 Z M117.516,26.2164 C119.469933,26.2164 120.900267,25.8617333 121.6082,25.1514667 C122.682467,24.6148 123.213533,23.3688 123.213533,21.7681333 C123.213533,19.9836 122.682467,18.9191333 121.6082,18.0259333 C120.719667,17.493 119.266933,17.0048667 117.486133,17.0048667 C117.115133,17.0048667 116.650333,16.9605333 115.7352,16.9605333 L111.817533,16.9605333 L111.817533,26.2164 L117.516,26.2164 L117.516,26.2164 Z" id="Fill-5" fill="#1A1918"></path>
                    <g id="Group-10">
                        <path d="M146.173067,26.397 L152.047467,26.397 L152.047467,23.1882 L144.2154,23.1882 C142.616133,23.1882 141.575933,23.1247333 140.931,23.4812667 C140.290733,23.8364 140.122733,24.2578 140.122733,24.9732 C140.122733,25.5066 140.313133,25.844 140.832067,26.2164 C141.119067,26.4217333 142.257733,26.397 143.682467,26.397 L146.173067,26.397 Z M146.173067,29.7789333 L141.007533,29.7789333 C138.516933,29.7789333 136.562533,29.4228667 135.138267,28.5292 C133.892267,27.6448667 133.182933,26.5748 133.182933,25.1514667 C133.182933,23.1882 133.892267,21.9426667 135.492933,21.0574 C137.097333,20.3448 139.587,19.8081333 143.3292,19.8081333 L152.047467,19.8081333 L152.047467,19.4534667 C152.047467,18.5621333 151.5136,17.85 150.800533,17.493 C149.912933,17.1397333 148.309,16.7836667 146.173067,16.7836667 L134.7822,16.7836667 L134.7822,13.5842 L148.4924,13.5842 C152.047467,13.5842 154.539933,13.9318667 156.319333,15.0052 C158.101067,16.0724667 158.9896,17.493 158.9896,19.6312667 L158.9896,29.7789333 L146.173067,29.7789333 L146.173067,29.7789333 Z" id="Fill-6" fill="#1A1918"></path>
                        <path d="M1.99313333,19.6312667 C3.77393333,21.2314667 11.0726,27.6448667 11.0726,27.6448667 C11.0726,27.6448667 2.62733333,34.3574 1.9124,34.8922 C0.756,35.8176 -0.573066667,34.517 0.392466667,33.3330667 C4.7754,29.6888667 3.5896,23.3296 0.265066667,20.741 C-0.602933333,19.8025333 0.843733333,18.3278667 1.99313333,19.6312667" id="Fill-8" fill="#BBD236"></path>
                        <path d="M1.99313333,0.553933333 C3.77393333,2.15366667 11.0726,8.56706667 11.0726,8.56706667 C11.0726,8.56706667 2.62733333,15.2800667 1.9124,15.8148667 C0.756,16.7393333 -0.573066667,15.4373333 0.392466667,14.2552667 C4.7754,10.6101333 3.5896,4.25133333 0.265066667,1.66413333 C-0.602933333,0.724733333 0.843733333,-0.749933333 1.99313333,0.553933333" id="Fill-9" fill="#BBD236"></path>
                    </g>
                    <path d="M13.4404667,10.5546 C15.2208,12.1534 22.5194667,18.5691333 22.5194667,18.5691333 C22.5194667,18.5691333 14.0751333,25.2821333 13.3592667,25.8150667 C12.2028667,26.7404667 10.8733333,25.4408 11.8412,24.2559333 C16.2213333,20.6126667 15.036,14.2534 11.7119333,11.6671333 C10.8448667,10.7263333 12.2901333,9.25213333 13.4404667,10.5546" id="Fill-11" fill="#BBD236"></path>
                    <path d="M191.0314,13.5842 L195.839467,13.5842 L195.839467,7.5264 L202.422733,7.5264 L202.422733,13.5842 L209.541733,13.5842 L209.541733,16.7836667 L202.422733,16.7836667 L202.422733,23.3688 C202.422733,24.4318667 202.777867,25.3269333 203.488133,25.8617333 C204.026667,26.2164 205.0958,26.5748 206.694133,26.5748 L209.541733,26.5748 L209.541733,29.7789333 L203.488133,29.7789333 C200.995667,29.7789333 199.041267,29.2432 197.795267,28.3574667 C196.372867,27.6448667 195.839467,26.2164 195.839467,24.6148 L195.839467,16.7836667 L191.0314,16.7836667 L191.0314,13.5842" id="Fill-12" fill="#1A1918"></path>
                </g>
            </g>
        </g>
    </g>
</svg>