<?xml version="1.0" encoding="UTF-8"?>
<svg width="233px" height="88px" viewBox="0 0 233 88" version="1.1" xmlns="http://www.w3.org/2000/svg" xmlns:xlink="http://www.w3.org/1999/xlink">
    <!-- Generator: Sketch 52.2 (67145) - http://www.bohemiancoding.com/sketch -->
    <title>Leansight</title>
    <desc>Created with Sketch.</desc>
    <g id="Page-1" stroke="none" stroke-width="1" fill="none" fill-rule="evenodd">
        <g id="Logos" transform="translate(-121.000000, -1359.000000)">
            <g id="Leansight" transform="translate(121.000000, 1359.000000)">
                <polygon id="Rectangle-3-Copy-11" fill="#FFFFFF" points="-1.42108547e-14 0 233 0 233 88 -1.42108547e-14 88"></polygon>
                <g id="Group-5" transform="translate(19.000000, 19.000000)" fill="#599DD5">
                    <path d="M81.4604966,0 L0,19.755627 L26.0248307,21.7285055 L38.5327314,48 L61.8216704,23.5470432 L87,24.184538 L81.4604966,0 Z M3.20993228,19.4939186 L77.5462754,1.45617224 L26.1534989,21.2319307 L3.20993228,19.4939186 Z M38.8577878,22.9699427 L61.1376975,23.5336223 L38.8577878,46.9263246 L38.8577878,22.9699427 Z M38.4785553,22.4867888 L38.3498871,22.5606039 L38.3498871,46.4364602 L26.5395034,21.607717 L77.3295711,2.06011464 L38.4785553,22.4867888 Z M61.6049661,23.0437579 L39.5756208,22.4800783 L81.0948081,0.671047113 L86.3634312,23.6678317 L61.6049661,23.0437579 Z" id="Shape" fill-rule="nonzero"></path>
                    <g id="g3360" transform="translate(101.000000, 15.000000)">
                        <polygon id="path3362" points="0.0307692308 13.8 0.0307692308 0.06 2.10461538 0.06 2.10461538 11.8666667 7.47692308 11.8666667 7.47692308 13.8"></polygon>
                    </g>
                    <g id="g3364" transform="translate(110.000000, 14.000000)">
                        <g id="g3366">
                            <g id="g3372" transform="translate(0.000000, 4.200000)" fill-rule="nonzero">
                                <path d="M5.07318056,2.331 C4.43639639,2.29974526 3.81734994,2.55464383 3.37316111,3.031 C2.9076802,3.60522077 2.63826331,4.32411911 2.60714444,5.075 L7.39138889,5.075 C7.4296409,4.33488808 7.20745379,3.60565191 6.76648056,3.024 C6.33621896,2.54768847 5.72713329,2.29183497 5.10005833,2.324 M5.48306667,11.9 C4.06528805,11.9854203 2.67818255,11.4470293 1.65970278,10.416 C0.690441622,9.29123469 0.194297146,7.80872924 0.282216667,6.3 C0.196872515,4.78399776 0.651468273,3.28849334 1.55891111,2.1 C2.44749193,1.06161502 3.73948794,0.498018541 5.07318056,0.567 C6.2956819,0.50278745 7.48710072,0.980940744 8.35226944,1.883 C9.19427902,2.87493495 9.62651295,4.1729514 9.55505,5.495 L9.55505,6.748 L2.57354722,6.748 C2.54777366,7.63986207 2.83979042,8.51010008 3.39331944,9.191 C3.97646319,9.78202565 4.77177413,10.0895428 5.58385833,10.038 C6.16419979,10.0444984 6.74342251,9.98345336 7.31075556,9.856 C7.90228251,9.71670186 8.47865006,9.51499406 9.03093333,9.254 L9.03093333,11.137 C8.50723995,11.3989404 7.95421089,11.5917641 7.38466944,11.711 C6.75732915,11.8295297 6.12060815,11.8857818 5.48306667,11.879" id="path3374"></path>
                            </g>
                            <g id="g3376" transform="translate(10.751111, 4.200000)" fill-rule="nonzero">
                                <path d="M4.56922222,10.108 C5.28114549,10.1453952 5.97937524,9.89457356 6.51786111,9.408 C7.02593241,8.89225936 7.29330379,8.17164619 7.25028056,7.434 L7.25028056,6.475 L5.90639167,6.538 C5.11199599,6.50732939 4.32390629,6.69567522 3.62178056,7.084 C3.14218746,7.41015284 2.86765362,7.97947276 2.9028,8.575 C2.87832342,8.99787845 3.03016758,9.41119814 3.31940556,9.709 C3.6736417,9.9997701 4.11942381,10.1420846 4.56922222,10.108 Z M7.88862778,11.69 L7.44514444,10.164 L7.39138889,10.164 C6.99379771,10.7365382 6.47090348,11.2020754 5.866075,11.522 C5.24214535,11.7878817 4.57092922,11.9119791 3.89727778,11.886 C3.01489081,11.9384698 2.14819602,11.626611 1.48499722,11.018 C0.878740963,10.3614523 0.564342639,9.47027875 0.618188889,8.561 C0.563547555,7.5509344 1.0197073,6.58459436 1.82096944,6.013 C2.93753738,5.35402352 4.20723131,5.02940308 5.48978611,5.075 L7.29731667,5.019 L7.29731667,4.431 C7.34060652,3.86683212 7.17197434,3.307188 6.82695556,2.87 C6.43401897,2.49341774 5.90761286,2.30554509 5.37555556,2.352 C4.85144447,2.35143585 4.33030914,2.43405018 3.83008333,2.597 C3.34610415,2.75906321 2.87254165,2.95312392 2.41228056,3.178 L1.68658056,1.519 C2.27852679,1.20479033 2.90614677,0.969601528 3.55458611,0.819 C4.18217237,0.663230809 4.82451018,0.581053608 5.46962778,0.574 C6.54743415,0.491442304 7.61791903,0.814323105 8.48665833,1.484 C9.22023498,2.22589579 9.59518293,3.2717869 9.50801389,4.333 L9.50801389,11.69 L7.88862778,11.69 Z" id="path3378"></path>
                            </g>
                            <g id="g3380" transform="translate(22.846111, 4.200000)">
                                <path d="M9.70959722,11.69 L7.47202222,11.69 L7.47202222,4.977 C7.52045733,4.31033465 7.34985311,3.64632523 6.98822222,3.094 C6.59123731,2.64730948 6.01809179,2.41726723 5.43603056,2.471 C4.65018318,2.39548304 3.87746335,2.7185183 3.35972222,3.339 C2.84214813,4.20964626 2.60660561,5.2304149 2.68777778,6.251 L2.68777778,11.69 L0.463641667,11.69 L0.463641667,0.77 L2.21069722,0.77 L2.51979167,2.17 L2.68777778,2.17 C3.01390167,1.64113793 3.48090355,1.22274749 4.03166667,0.966 C4.63793836,0.674615063 5.2992566,0.528695836 5.96686667,0.539 C8.47993889,0.539 9.736475,1.87133333 9.736475,4.536 L9.70959722,11.69 Z" id="path3382"></path>
                            </g>
                            <g id="g3384" transform="translate(34.941111, 0.700000)">
                                <path d="M8.93014167,11.27 C8.97631936,12.4427771 8.47575166,13.5665402 7.58625278,14.287 C6.51707603,15.0801774 5.22144342,15.4725117 3.91071667,15.4 C2.59064308,15.451694 1.27650676,15.1908171 0.0671944444,14.637 L0.0671944444,12.397 C0.715680004,12.6980926 1.39082435,12.9325371 2.08302778,13.097 C2.74275143,13.2670566 3.41927165,13.356327 4.09886111,13.363 C4.79811363,13.421469 5.49600767,13.2341656 6.08109722,12.831 C6.49398913,12.4953873 6.73060584,11.9764481 6.71944444,11.431 C6.73281527,10.8972541 6.5187906,10.3847005 6.13485278,10.031 C5.39691765,9.46006741 4.57867793,9.01143398 3.70913333,8.701 C2.67964023,8.33788367 1.75503953,7.70939218 1.02135556,6.874 C0.498125474,6.17040573 0.225060381,5.29969142 0.248619444,4.41 C0.202116785,3.31301269 0.658498843,2.25821741 1.47827778,1.568 C2.43089547,0.832271754 3.60008743,0.465878807 4.78424444,0.532 C6.15046021,0.540020916 7.49946591,0.850195719 8.74199722,1.442 L8.02301667,3.36 C6.98711821,2.86836337 5.86818242,2.5947914 4.73048889,2.555 C4.13625737,2.51197959 3.54641407,2.68789666 3.06406667,3.052 C2.68576146,3.37280396 2.47422425,3.86020938 2.49291389,4.368 C2.48217458,4.7057783 2.56123756,5.04007956 2.721375,5.334 C2.91047767,5.64273998 3.16579873,5.90153273 3.46723333,6.09 C4.06793893,6.45067186 4.69475072,6.76195046 5.34195833,7.021 C6.13548106,7.33291182 6.8874424,7.7492912 7.57953333,8.26 C8.01980129,8.59725814 8.37678891,9.03873094 8.62104722,9.548 C8.85183602,10.0821106 8.9643634,10.6634544 8.9503,11.249" id="path3386"></path>
                            </g>
                            <path d="M48.5412667,15.883 L46.3171306,15.883 L46.3171306,4.97 L48.5412667,4.97 L48.5412667,15.883 Z M46.1827417,2.1 C46.1629418,1.74702044 46.2817985,1.40083169 46.5119944,1.141 C46.7678051,0.903629701 47.1040944,0.782652337 47.4459972,0.805 C47.7849608,0.769635146 48.1212591,0.894664112 48.3621415,1.14560409 C48.603024,1.39654407 48.7230419,1.74688377 48.6890944,2.1 C48.7166207,2.44964528 48.5937612,2.79398335 48.3536984,3.04001397 C48.1136356,3.28604459 47.7811341,3.40838757 47.4459972,3.374 C47.1027172,3.39768864 46.765127,3.27371315 46.5119944,3.031 C46.284639,2.78063661 46.1656505,2.44418291 46.1827417,2.1 Z" id="path3388" fill-rule="nonzero"></path>
                            <g id="g3390" transform="translate(49.723889, 4.200000)" fill-rule="nonzero">
                                <path d="M3.57474444,4.305 C3.53720549,4.88196958 3.72085812,5.45089675 4.08542222,5.887 C4.47362479,6.274792 5.00005569,6.47536819 5.53682222,6.44 C6.82695556,6.44 7.47202222,5.74 7.47202222,4.284 C7.509667,3.6945912 7.33741877,3.11141094 6.98822222,2.646 C6.61486112,2.23177576 6.08037624,2.01781977 5.53682222,2.065 C4.99129845,2.02279387 4.45557157,2.23271951 4.07198333,2.639 C3.71215969,3.1100594 3.53475924,3.70443998 3.57474444,4.305 Z M2.62058333,13.405 C2.6157324,13.8917241 2.87609524,14.3392597 3.29252778,14.56 C3.85609254,14.8627312 4.48713129,15.0029091 5.12021667,14.966 C6.04607078,15.024055 6.97091005,14.8361815 7.80799444,14.42 C8.34378396,14.1552937 8.6879841,13.5957049 8.69496111,12.978 C8.72698286,12.5742571 8.54042308,12.1855588 8.21116111,11.97 C7.63793328,11.7210151 7.01602472,11.617835 6.39691111,11.669 L4.70361111,11.669 C4.16058495,11.6377116 3.62393323,11.8034502 3.18501667,12.138 C2.81148467,12.4405789 2.60125531,12.9124869 2.62058333,13.405 Z M10.8519028,0.805 L10.8519028,2.079 L9.05781111,2.429 C9.23968538,2.68499436 9.37830269,2.97143702 9.46769722,3.276 C9.57660916,3.61917788 9.63107935,3.97855952 9.62896389,4.34 C9.67611458,5.35743688 9.26334185,6.33920017 8.51353611,6.993 C7.62841087,7.68147005 6.53892546,8.02344926 5.43603056,7.959 C5.1297533,7.96382561 4.82373765,7.93804091 4.52218611,7.882 C4.11242343,8.08235668 3.83777439,8.49682436 3.80320556,8.967 C3.7972125,9.20872388 3.92906551,9.43124422 4.13917778,9.534 C4.53465996,9.68361819 4.95576318,9.74560635 5.37555556,9.716 L7.20324444,9.716 C8.14021922,9.64853158 9.07077563,9.92055982 9.83726667,10.486 C10.4484849,11.0285436 10.7856093,11.8342383 10.7511111,12.67 C10.7908823,13.8306653 10.2288839,14.9240649 9.27955278,15.533 C7.98855687,16.2864192 6.51651902,16.6363779 5.03958333,16.541 C3.89786775,16.6181993 2.75963924,16.3430657 1.76721389,15.75 C1.03802775,15.2604493 0.611333092,14.4060312 0.645066667,13.503 C0.628261922,12.876735 0.847789174,12.2685621 1.25653611,11.809 C1.71923072,11.318172 2.31464075,10.9860589 2.963275,10.857 C2.66557149,10.7221911 2.4113379,10.501079 2.23085556,10.22 C1.8305043,9.62806781 1.84684788,8.83352273 2.27117222,8.26 C2.55484396,7.9264025 2.88839534,7.64274693 3.25893056,7.42 C2.70357275,7.18119786 2.23371788,6.76759351 1.91504167,6.237 C1.57185096,5.65704697 1.39684512,4.98613579 1.41108333,4.305 C1.35292956,3.26602988 1.74796689,2.25520627 2.48619444,1.554 C3.35814824,0.847987777 4.44823316,0.49933896 5.55026111,0.574 C5.86253586,0.575182356 6.17445016,0.596221481 6.48426389,0.637 C6.73055305,0.667358701 6.97505965,0.711758639 7.21668333,0.77 L10.8519028,0.805 Z" id="path3392"></path>
                            </g>
                            <g id="g3394" transform="translate(62.490833, 0.000000)">
                                <path d="M9.24595556,15.89 L7.00838056,15.89 L7.00838056,9.177 C7.05814852,8.50919202 6.88486273,7.84398466 6.51786111,7.294 C6.12475346,6.84570738 5.55276587,6.61513173 4.97238889,6.671 C4.18978494,6.60066157 3.42237368,6.92617168 2.90951944,7.546 C2.39134498,8.4215557 2.15586941,9.4469403 2.237575,10.472 L2.237575,15.89 L0,15.89 L0,0.532 L2.22413611,0.532 L2.22413611,4.431 C2.22392014,5.10009395 2.1857769,5.76859081 2.10990556,6.433 L2.25101389,6.433 C2.55657743,5.9094339 2.99642155,5.48516645 3.52098889,5.208 C4.10806087,4.90828182 4.75552193,4.759461 5.40915278,4.774 C7.94910278,4.774 9.21907778,6.10633333 9.21907778,8.771 L9.24595556,15.89 Z" id="path3396"></path>
                            </g>
                            <g id="g3398" transform="translate(73.241944, 2.100000)">
                                <path d="M5.48978611,12.11 C6.04379474,12.1072484 6.59424508,12.0175757 7.12261111,11.844 L7.12261111,13.587 C6.81549423,13.7184452 6.49555672,13.8146785 6.16845,13.874 C5.76913085,13.9475422 5.36446016,13.9850148 4.95895,13.986 C2.85576389,13.986 1.80081111,12.824 1.80081111,10.486 L1.80081111,4.627 L0.369569444,4.627 L0.369569444,3.605 L1.90160278,2.751 L2.68777778,0.448 L4.03166667,0.448 L4.03166667,2.87 L7.0151,2.87 L7.0151,4.627 L4.03166667,4.627 L4.03166667,10.5 C3.99503172,10.9534086 4.14108692,11.4022612 4.43483333,11.739 C4.72246313,12.0112983 5.10145927,12.1546407 5.48978611,12.138" id="path3400"></path>
                            </g>
                        </g>
                    </g>
                </g>
            </g>
        </g>
    </g>
</svg>