<?xml version="1.0" encoding="UTF-8" standalone="no"?>
<svg width="233px" height="121px" viewBox="0 0 233 121" version="1.1" xmlns="http://www.w3.org/2000/svg" xmlns:xlink="http://www.w3.org/1999/xlink">
    <!-- Generator: Sketch 41.2 (35397) - http://www.bohemiancoding.com/sketch -->
    <title>Group 12</title>
    <desc>Created with Sketch.</desc>
    <defs>
        <polygon id="path-1" points="7.33945014 46.463269 0 46.463269 0 0.0724605743 14.6789003 0.0724605743 14.6789003 46.463269"></polygon>
    </defs>
    <g id="Page-1" stroke="none" stroke-width="1" fill="none" fill-rule="evenodd">
        <g id="Artboard-2" transform="translate(-119.000000, -616.000000)">
            <g id="Group-12" transform="translate(119.000000, 616.000000)">
                <rect id="Rectangle-3" fill="#FFFFFF" x="1.42108547e-14" y="0" width="233" height="121"></rect>
                <g id="Page-1" transform="translate(62.000000, 35.000000)">
                    <g id="Group-3" transform="translate(0.000000, 0.281361)">
                        <mask id="mask-2" fill="white">
                            <use xlink:href="#path-1"></use>
                        </mask>
                        <g id="Clip-2"></g>
                        <path d="M9.27166406,46.463269 C7.54178958,46.4234434 6.07860102,46.1874394 4.88430391,45.7552573 C3.68835265,45.3227064 2.7322533,44.7319591 2.0149031,43.9846749 C1.29700151,43.2372062 0.781457748,42.3520072 0.469925954,41.328709 C0.156556214,40.3063327 -3.67589137e-05,39.1840235 -3.67589137e-05,37.9638096 C-3.67589137e-05,36.7056138 0.138176757,35.3779074 0.41386861,33.9812437 C0.690111847,32.5843956 0.99355668,31.1971351 1.32475449,29.8196467 L7.72631933,1.25303324 L14.6789003,0.0724605743 C13.5307356,5.22785528 12.3812844,10.353012 11.2327521,15.4468244 C10.0838523,20.5432181 8.91694054,25.6683748 7.73109798,30.8221101 C7.55667694,31.6484926 7.36442782,32.4671311 7.15637237,33.2719413 C6.94739794,34.0782265 6.84318642,34.8751085 6.84318642,35.6622184 C6.84318642,36.3320638 6.85164097,36.9513897 6.87057181,37.521671 C6.88839989,38.0928742 7.03617072,38.583873 7.31241396,38.9966954 C7.5882896,39.4098866 8.00219497,39.7544892 8.55431386,40.0295813 C9.10588136,40.3063327 9.82286397,40.4822294 10.7059969,40.5609588 L9.27166406,46.463269 Z" id="Fill-1" fill="#199BD8" mask="url(#mask-2)"></path>
                    </g>
                    <path d="M18.2798402,8.60385428 C17.4364069,8.60385428 16.7004935,8.35051883 16.0759596,7.84403233 C15.4495877,7.33717706 15.1380559,6.57735511 15.1380559,5.56456647 C15.1380559,4.39265958 15.5359711,3.42633421 16.3343747,2.6661435 C17.131308,1.9076122 18.0456859,1.52687152 19.0773249,1.52687152 C19.9216771,1.52687152 20.6645748,1.7883196 21.3052826,2.31029386 C21.9459905,2.83282126 22.266712,3.60075585 22.266712,4.614282 C22.266712,5.78618889 21.860526,6.74366411 21.0477864,7.48818269 C20.2343117,8.2323325 19.3118467,8.60385428 18.2798402,8.60385428 L18.2798402,8.60385428 Z M14.0595493,37.1975713 L8.38415685,37.1975713 L14.2938874,12.3555789 L19.9685447,12.3555789 L14.0595493,37.1975713 Z" id="Fill-4" fill="#199BD8"></path>
                    <path d="M21.5757547,13.624653 C22.8259254,13.2479686 24.2567661,12.8958066 25.8669903,12.5668761 C27.4770307,12.2372082 29.235761,12.0727429 31.143181,12.0727429 C34.0191984,12.0727429 36.130079,12.7781734 37.4749039,14.1905092 C38.8191774,15.6021076 39.4920493,17.4993578 39.4920493,19.8831816 C39.4920493,20.5414112 39.4365433,21.2398353 39.3275531,21.9758725 C39.2174602,22.7132003 39.0842091,23.4750504 38.9285351,24.2579196 L35.833067,37.1975713 L30.1648425,37.1975713 L33.0664074,24.8698704 C33.2217138,24.1815871 33.3783067,23.4750504 33.5352673,22.7533947 C33.6909413,22.0321078 33.7854117,21.3414276 33.8170244,20.6835667 C33.8475343,19.5848579 33.5893029,18.6758741 33.0428817,17.9534809 C32.4955414,17.232194 31.4247543,16.8711817 29.8301526,16.8711817 C28.4849601,16.8711817 27.3281571,17.0129685 26.3591922,17.2952513 L21.6562567,37.1975713 L15.9475974,37.1975713 L21.5757547,13.624653 Z" id="Fill-6" fill="#199BD8"></path>
                    <path d="M53.6558101,16.3474559 C52.7177227,16.3474559 51.8266866,16.5369965 50.9827019,16.9122059 C50.1385335,17.2888902 49.388284,17.8066238 48.7312185,18.4659597 C48.0743367,19.1238206 47.5038383,19.9004209 47.0191721,20.7941014 C46.534322,21.6883349 46.1816202,22.6530009 45.9638236,23.6875461 C49.7161736,23.562169 52.4435012,23.1076771 54.1478282,22.3229642 C55.852339,21.5397262 56.7038593,20.3639474 56.7038593,18.7948901 C56.7038593,18.1680048 56.4765054,17.602886 56.0238194,17.101009 C55.570582,16.5996851 54.7815519,16.3474559 53.6558101,16.3474559 M40.0074093,28.016374 C40.0074093,25.9152017 40.3432019,23.8842775 41.0160738,21.9228638 C41.6874754,19.9631095 42.6571755,18.2233182 43.9237039,16.7009086 C45.1900485,15.1792365 46.7140731,13.9652915 48.4966966,13.0544639 C50.2785849,12.1451113 52.279924,11.6906194 54.4992434,11.6906194 C56.8760748,11.6906194 58.7208209,12.3018327 60.0338493,13.5259186 C61.3465101,14.7490825 62.0043108,16.317771 62.0043108,18.2303245 C62.0043108,20.2064885 61.5185418,21.8055993 60.550312,23.0289477 C59.5806119,24.251743 58.322538,25.2103244 56.7744364,25.899714 C55.2263347,26.5896566 53.4744049,27.0603738 51.5215876,27.3107592 C49.5676675,27.5622509 47.5887514,27.7189722 45.5886989,27.7820295 C45.5570863,27.8445337 45.5420151,27.907591 45.5420151,27.9684357 L45.5420151,28.4391529 C45.5420151,31.2946158 47.3389746,32.7217019 50.9350991,32.7217019 C53.0617861,32.7217019 55.1870027,32.2826977 57.3135059,31.4043207 L57.783101,36.0159845 C57.0326677,36.3609559 55.9692324,36.7050053 54.5937138,37.0503454 C53.2170925,37.394948 51.6541035,37.5677102 49.9034602,37.5677102 C48.1520818,37.5677102 46.6508477,37.3164029 45.4014123,36.8143415 C44.1503226,36.3139395 43.1262193,35.6234437 42.3289184,34.7439604 C41.532169,33.8665052 40.9453129,32.8548228 40.5701882,31.7090976 C40.1950635,30.5661381 40.0074093,29.3333864 40.0074093,28.016374" id="Fill-8" fill="#199BD8"></path>
                    <path d="M67.0284824,5.81675877 L72.9376616,4.86739619 L71.1465835,12.3677109 L79.1756493,12.3677109 L78.0508265,17.1141551 L70.0127548,17.1141551 L67.6669847,26.938924 C67.5175598,27.6353199 67.4124293,28.2144514 67.3530636,28.6715245 C67.2925952,29.1313634 67.2630043,29.550086 67.2630043,29.9289829 C67.2630043,30.3091704 67.3017849,30.6817984 67.3798976,31.0450232 C67.4576427,31.4091699 67.6146033,31.7255626 67.8487576,31.9951233 C68.0840146,32.2628402 68.4275267,32.4857533 68.8811317,32.659253 C69.3340015,32.8327528 69.9511836,32.9195949 70.7330457,32.9195949 C71.5777656,32.9195949 72.3905052,32.8095212 73.1723673,32.5878987 C73.9538618,32.3668295 74.6414372,32.1291661 75.2354613,31.8752776 L75.6583726,36.4801194 C74.9384493,36.7966965 74.0317907,37.0970484 72.9376616,37.3813593 C71.8431649,37.6669609 70.5617492,37.8094852 69.0921278,37.8094852 C66.4026619,37.8094852 64.4796193,37.2157878 63.3233677,36.0287619 C62.1660133,34.8428423 61.5877956,33.2199467 61.5877956,31.1628408 C61.5877956,30.4043095 61.6418312,29.6207028 61.7521079,28.8144175 C61.8614657,28.0072104 62.0250429,27.1441368 62.2444936,26.2274091 L67.0284824,5.81675877 Z" id="Fill-10" fill="#199BD8"></path>
                    <path d="M85.3598403,33.1975263 C86.8610743,33.1975263 88.0489386,32.9548848 88.9249035,32.4684955 C89.7990305,31.9821062 90.2379319,31.2375876 90.2379319,30.2349398 C90.2379319,29.4183294 89.9561748,28.7683968 89.3928445,28.2810856 C88.8308007,27.795065 87.8458456,27.2229399 86.4387144,26.5637884 C85.6877298,26.2177108 84.9911483,25.8578048 84.3515432,25.481858 C83.7104678,25.1055424 83.1557758,24.6659851 82.6869158,24.1639237 C82.2176883,23.662231 81.842196,23.0751713 81.5608065,22.3996101 C81.279417,21.7253396 81.1384466,20.917395 81.1384466,19.9766981 C81.1384466,17.529817 82.0304016,15.5861036 83.81229,14.1422391 C85.5949135,12.7002183 88.1735513,11.9789314 91.5507765,11.9789314 C93.1137655,11.9789314 94.5129936,12.1428435 95.7484607,12.4719583 C96.9822736,12.8018106 97.9130093,13.1394068 98.539565,13.4845626 L96.5218682,17.9072389 C95.9914371,17.5932431 95.2244624,17.2880974 94.2242523,16.9888518 C93.2227557,16.6921875 92.1758618,16.5426569 91.0819166,16.5426569 C90.5492799,16.5426569 90.0269357,16.5900421 89.5110244,16.6833374 C88.9943779,16.7775546 88.5325021,16.9346447 88.1274189,17.1531327 C87.7199463,17.3736488 87.3836023,17.6791632 87.1189381,18.0715197 C86.8522522,18.464245 86.7201039,18.9417841 86.7201039,19.5065341 C86.7201039,20.2285586 87.0084775,20.8161714 87.5872466,21.2708477 C88.1658319,21.7253396 89.0020972,22.2049069 90.0976966,22.7060464 C91.1287842,23.1767636 92.0041977,23.6312555 92.7235697,24.0706284 C93.4414712,24.5100013 94.0365981,25.0037657 94.505458,25.5524748 C94.9743179,26.1011839 95.3189328,26.7131346 95.5378321,27.3870364 C95.7559962,28.0618601 95.8660892,28.8688828 95.8660892,29.8108703 C95.8660892,30.970977 95.6315673,32.0453479 95.1627074,33.0328767 C94.6931123,34.0211431 94.012521,34.8681759 93.1222201,35.5741594 C92.231184,36.2794055 91.1287842,36.8367803 89.8159396,37.243887 C88.502176,37.6515469 87.0022285,37.8556534 85.3126051,37.8556534 C84.1561696,37.8556534 83.1164437,37.7765552 82.1939788,37.6202027 C81.2709625,37.4632969 80.4653909,37.2824221 79.778183,37.0794218 C79.0907913,36.8764216 78.5125736,36.6642025 78.0429785,36.4447926 C77.5743023,36.2255671 77.2148001,36.0375015 76.9644719,35.8798582 L78.9818011,31.4096124 C79.2003329,31.5364645 79.5206868,31.6998234 79.9424953,31.9037455 C80.3644877,32.1084052 80.8493377,32.3034772 81.3974131,32.4922803 C81.9434668,32.6801615 82.5529296,32.8448111 83.2261691,32.9862291 C83.8975707,33.1267252 84.6097746,33.1975263 85.3598403,33.1975263" id="Fill-12" fill="#199BD8"></path>
                    <g id="Group-16" transform="translate(95.940765, 0.096983)" fill="#199BD8">
                        <path d="M15.6607676,3.73186708 C19.9225961,4.16958057 23.0399358,7.90452677 22.6179434,12.0738676 C22.1988918,16.2432085 18.4042691,19.2694055 14.1463004,18.8291107 C12.8551435,18.6978335 11.6766528,18.26012 10.6602688,17.6007841 L6.63571911,18.4373073 L4.77424772,18.7042868 L5.4042955,17.4416659 L5.40833898,17.4444315 L5.57154856,17.0983539 L5.57283512,17.0922695 L7.42548437,13.207977 C7.1845297,12.3421377 7.09208103,11.4257788 7.18581626,10.485082 C7.6041327,6.31500358 11.3994905,3.28935975 15.6607676,3.73186708 M16.0219239,0.149585913 C9.73853902,-0.496290402 4.14622168,3.9627084 3.52830434,10.1087664 C3.40314024,11.3533182 3.50110274,12.5750072 3.7733025,13.7332701 L0.0687391687,22.3888977 L8.89161365,20.7512519 C10.3264978,21.6357134 11.9861628,22.2235106 13.7847765,22.4099168 C20.06761,23.0556088 25.6580894,18.59956 26.2771095,12.4529489 C26.8959458,6.30486279 22.3042061,0.797674765 16.0219239,0.149585913" id="Fill-14"></path>
                    </g>
                    <path d="M106.515771,12.6784433 C106.516874,12.208648 106.590943,11.7607937 106.740001,11.3354336 C106.887955,10.9106265 107.101157,10.5379985 107.377217,10.2166275 C107.652725,9.89451908 107.991274,9.64118363 108.390108,9.45440867 C108.790413,9.26800246 109.245305,9.17581343 109.756437,9.17655094 C110.024226,9.17655094 110.270878,9.19904507 110.494924,9.24477082 C110.718418,9.28975907 110.930885,9.35724143 111.130302,9.44684917 L110.685886,10.4528158 C110.561457,10.3965805 110.423795,10.3484578 110.271981,10.3075259 C110.120718,10.2653033 109.934902,10.2452061 109.713429,10.2452061 C109.416969,10.2439155 109.149548,10.3042071 108.912085,10.4255279 C108.673887,10.5451892 108.472448,10.7098388 108.307217,10.916711 C108.141434,11.1246894 108.012778,11.3700966 107.923638,11.6531169 C107.833578,11.9363216 107.788365,12.237411 107.788365,12.5554631 C107.788365,12.7356005 107.806377,12.9002501 107.84479,13.0486744 C107.882835,13.1969144 107.944039,13.3281915 108.030974,13.4423215 C108.116255,13.5564516 108.234802,13.6443999 108.386065,13.7074572 C108.538247,13.7692238 108.727555,13.800015 108.954909,13.8022275 C109.189982,13.8022275 109.415315,13.771252 109.633111,13.7089322 C109.850172,13.6471656 110.017426,13.5853989 110.134135,13.5221572 L110.236325,14.5498805 C110.077894,14.6254755 109.867265,14.6997799 109.605542,14.7720561 C109.343267,14.844701 109.046439,14.8808391 108.716895,14.8808391 C108.337176,14.8793641 108.009837,14.8222069 107.735248,14.7073394 C107.459005,14.5933937 107.228711,14.4377786 107.046938,14.2406785 C106.864246,14.0430252 106.73026,13.8110776 106.644611,13.5452045 C106.558044,13.2780407 106.515771,12.9893047 106.515771,12.6784433" id="Fill-17" fill="#199BD8"></path>
                    <path d="M112.821322,14.8427282 C112.496925,14.835353 112.222335,14.7933148 111.999025,14.7169823 C111.775347,14.6406498 111.596699,14.5370294 111.461977,14.4053834 C111.327991,14.2739219 111.230764,14.1177537 111.172685,13.9383538 C111.11387,13.7596915 111.085198,13.5620382 111.085198,13.3476065 C111.085934,13.125431 111.111481,12.8925615 111.16423,12.6471543 C111.21606,12.4021159 111.27322,12.1579994 111.334791,11.9162797 L112.539565,6.89695603 L113.842668,6.6913745 C113.626342,7.59667073 113.4102,8.49698876 113.194793,9.39177544 C112.977915,10.2869309 112.759199,11.187802 112.53497,12.0936514 C112.502806,12.2391257 112.465863,12.3825718 112.426715,12.5241742 C112.387383,12.6659609 112.368452,12.8062726 112.368452,12.944003 C112.368085,13.0616362 112.369739,13.170788 112.373047,13.2705365 C112.376907,13.3708382 112.404292,13.4571271 112.455019,13.5297721 C112.507033,13.6029701 112.584411,13.6636305 112.687703,13.7117532 C112.791363,13.760429 112.92535,13.7917733 113.091132,13.8061548 L112.821322,14.8427282 Z" id="Fill-19" fill="#199BD8"></path>
                </g>
            </g>
        </g>
    </g>
</svg>