<?xml version="1.0" encoding="UTF-8"?>
<svg width="233px" height="88px" viewBox="0 0 233 88" version="1.1" xmlns="http://www.w3.org/2000/svg" xmlns:xlink="http://www.w3.org/1999/xlink">
    <!-- Generator: Sketch 50 (54983) - http://www.bohemiancoding.com/sketch -->
    <title>Mediastream</title>
    <desc>Created with Sketch.</desc>
    <defs></defs>
    <g id="Page-1" stroke="none" stroke-width="1" fill="none" fill-rule="evenodd">
        <g id="Logos" transform="translate(-119.000000, -936.000000)">
            <g id="Mediastream" transform="translate(119.000000, 936.000000)">
                <rect id="Rectangle-3-Copy-10" fill="#FFFFFF" x="-1.42108547e-14" y="0" width="233" height="88"></rect>
                <g id="mediastream" transform="translate(9.000000, 26.000000)" fill-rule="nonzero">
                    <path d="M13.9639734,8.3126211 C14.7651017,7.79985013 15.0017166,6.73301133 14.4929656,5.92752427 C14.2479412,5.53998398 13.8590931,5.26650062 13.4125516,5.16765109 C12.9660102,5.06880156 12.4986335,5.15274504 12.113946,5.40088793 C8.33283367,7.81583228 6.04268749,12.0022242 6.04180894,16.5007669 C6.04093039,20.9993096 8.32944122,25.1866025 12.10961,27.6030347 C12.3849103,27.783093 12.7067658,27.878173 13.0353464,27.8765084 C13.6240266,27.8774667 14.172409,27.5765237 14.4893523,27.0785745 C14.73506,26.6925069 14.8178242,26.2242416 14.7194198,25.7768934 C14.6210154,25.3295451 14.349512,24.9397985 13.9646961,24.6934777 C11.1747238,22.9116667 9.48507873,19.8225349 9.4849323,16.5032485 C9.48478586,13.1839621 11.1741584,10.0946802 13.9639734,8.3126211 M29.947921,16.5052256 C29.9535628,12.0042505 27.6627817,7.81381859 23.8775186,5.40088793 C23.493169,5.15285172 23.026125,5.06896503 22.5799361,5.1678266 C22.1337472,5.26668818 21.7452815,5.54012919 21.500667,5.92752427 C21.254948,6.31421937 21.1723328,6.78305759 21.2709964,7.23089619 C21.36966,7.67873479 21.6415201,8.06888771 22.0267685,8.31552268 C24.8154216,10.0970077 26.5041221,13.1850552 26.5041221,16.5030494 C26.5041221,19.8210436 24.8154216,22.9090911 22.0267685,24.6905761 C21.382134,25.1040835 21.0865432,25.8948889 21.3011025,26.6319783 C21.5156619,27.3690677 22.1889283,27.8757157 22.9539502,27.875783 C23.2825608,27.8776609 23.6044761,27.7825632 23.8796866,27.6023093 C27.6619838,25.1893251 29.9521165,21.0022689 29.950089,16.5037748 M27.1194025,0.269447863 C26.3170135,-0.2408165 25.2545352,-0.00259301627 24.7447189,0.801887362 C24.2341321,1.6081586 24.4712793,2.67723749 25.2744338,3.18988576 C29.809385,6.08676469 32.5556094,11.1084707 32.5556094,16.5041375 C32.5556094,21.8998042 29.809385,26.9215103 25.2744338,29.8183892 C24.6292529,30.2318585 24.3339356,31.0235569 24.5499232,31.7606863 C24.7659108,32.4978158 25.4412179,33.002959 26.2066742,32.9999691 C26.5336445,33.0011605 26.8539469,32.9071764 27.1287972,32.729397 C32.65557,29.1968498 36.0014638,23.0750183 35.9999995,16.498157 C35.9985352,9.92129558 32.6499158,3.80096589 27.1215705,0.270898652 M10.7177535,29.8212908 C6.18364859,26.9224582 3.43894849,21.8995968 3.44041274,16.5035976 C3.441877,11.1075984 6.18930268,6.08623859 10.7249801,3.18988576 C11.526259,2.67556013 11.7613285,1.60710155 11.250359,0.801887362 C11.0057848,0.414545716 10.6176763,0.140846975 10.1717243,0.0412212843 C9.72577226,-0.0584044066 9.25865491,0.0242368578 8.8735074,0.270898652 C3.34725601,3.80280783 0.000732180142,9.92307542 1.2012906e-07,16.4991527 C-0.000731939883,23.0752301 3.34442917,29.1962482 8.86989406,32.729397 C9.14441085,32.9079082 9.4649351,33.0019574 9.79201709,32.9999691 C10.3811481,33.0027099 10.9303313,32.7013274 11.246023,32.2020353 C11.4906038,31.8160433 11.5723529,31.3483135 11.4732756,30.9018032 C11.3741983,30.455293 11.1024159,30.0666025 10.7177535,29.8212908" id="path" fill="#97D700"></path>
                    <path d="M211.311489,12.8692767 C210.860982,12.1098073 210.211821,11.4884827 209.434356,11.0726363 C208.646755,10.6354293 207.759833,10.4098613 206.859678,10.417826 C206.036205,10.4095327 205.219855,10.5714448 204.461512,10.89347 C203.655409,11.2637744 202.904014,11.743693 202.228517,12.319691 C201.92418,11.8352484 201.511592,11.4285023 201.023409,11.1316475 C200.140146,10.6379857 199.140488,10.3923691 198.129731,10.4206699 C196.693739,10.4035495 195.306799,10.9441655 194.259207,11.9293643 C193.800895,11.1068944 192.956808,10.5748371 192.019124,10.5173628 C191.432878,10.5232768 190.885353,10.8120053 190.548183,11.2930394 C190.189785,11.7887595 190.001702,12.38786 190.012264,13.0000966 L190.012264,23.4756404 C189.994354,24.1035253 190.201048,24.7171134 190.594969,25.2054489 C190.982204,25.671105 191.563182,25.9298747 192.167281,25.9057618 C192.779716,25.9381223 193.372326,25.6829847 193.770784,25.2154026 C194.166743,24.7245655 194.372212,24.1065915 194.349236,23.4756404 L194.349236,16.3957256 C194.335463,15.7939795 194.572912,15.2138123 195.004248,14.795315 C195.423617,14.3718549 195.997155,14.1384248 196.592155,14.1490364 C197.245509,14.1005242 197.879854,14.3824864 198.282851,14.9005397 C198.669477,15.4705717 198.862173,16.1506103 198.832239,16.8393756 L198.832239,23.4756404 C198.814748,24.1049014 199.024729,24.7192807 199.423451,25.2054489 C199.819835,25.6735925 200.409477,25.9320264 201.021282,25.9057618 C201.624413,25.9350057 202.206716,25.6808441 202.59643,25.2182465 C202.991606,24.7261506 203.195373,24.1069827 203.16992,23.4756404 L203.16992,16.3957256 C203.157742,15.7999025 203.385421,15.2242854 203.801538,14.7988699 C204.218579,14.3680274 204.796635,14.1323065 205.395117,14.1490364 C206.007197,14.1243835 206.603364,14.3481246 207.048951,14.7697198 C207.483587,15.1959218 207.717088,15.7873396 207.691202,16.3964365 L207.691202,23.4756404 C207.687341,23.8942195 207.772909,24.3087736 207.942148,24.6914121 C208.102152,25.0514175 208.359205,25.3594617 208.684353,25.5808451 C209.02957,25.8030436 209.433326,25.9162303 209.843384,25.9057618 C210.451626,25.9407962 211.040954,25.6872565 211.434836,25.2210904 C211.824351,24.7254046 212.024022,24.1062161 211.997692,23.4756404 L211.997692,15.4266631 C212.009308,14.526363 211.772037,13.6404325 211.312198,12.8671438 L211.311489,12.8692767 Z M183.443006,20.0835663 C183.20756,20.623804 182.829623,21.089383 182.349902,21.4301579 C181.860634,21.7765229 181.273534,21.9564368 180.674801,21.9434837 C179.805054,21.9851475 178.982951,21.5436509 178.53538,20.7945439 C178.044607,19.9886675 177.795328,19.0582096 177.817277,18.1141584 C177.806974,17.2107819 178.07239,16.3258531 178.577913,15.5781013 C179.028277,14.8535529 179.827325,14.4221527 180.678346,14.4440921 C181.60211,14.376807 182.495103,14.7923648 183.040358,15.5432634 C183.584973,16.3648614 183.856663,17.3381153 183.81659,18.3238968 C183.817021,18.9302959 183.689713,19.5299455 183.443006,20.0835663 Z M186.053129,10.5173628 C185.080121,10.5243972 184.227571,11.1723485 183.957658,12.1099526 C183.464297,11.5753571 182.88247,11.1303636 182.237898,10.7946441 C181.601626,10.5082111 180.909047,10.3696757 180.211898,10.3893869 C178.514554,10.4074034 176.900008,11.1277813 175.750162,12.3801241 C174.220111,13.9115888 173.397718,16.0146184 173.481723,18.1809903 C173.379351,20.5153427 174.320481,22.7738337 176.048603,24.3409002 C177.209853,25.4043799 178.725853,25.9935465 180.298382,25.9925011 C180.9969,26.0151629 181.690592,25.8688458 182.320838,25.5659145 C182.945593,25.2204139 183.493604,24.75086 183.931429,24.185907 C184.333368,25.3348468 185.034458,25.9036289 186.029735,25.9036289 C186.661907,25.9273605 187.267494,25.6474406 187.660176,25.1499927 C188.070054,24.6321924 188.285798,23.986572 188.269819,23.3256242 L188.269819,12.7306361 C188.280839,12.1404877 188.050259,11.5715889 187.631821,11.1565317 C187.21845,10.7352853 186.650093,10.5037737 186.060927,10.5166519 L186.053129,10.5173628 Z M161.77445,16.6708739 C162.369443,14.8517192 163.332584,13.9428529 164.663875,13.9442748 C166.172387,13.9442748 167.158685,14.8531412 167.62277,16.6708739 L161.77445,16.6708739 Z M171.44509,19.1592955 C171.766363,18.7264554 171.917745,18.1902506 171.870422,17.6527339 C171.878373,16.3872847 171.55576,15.1418102 170.934691,14.0402568 C170.327121,12.9351965 169.433457,12.0150715 168.347961,11.3769347 C167.251731,10.7225596 165.997664,10.3819918 164.722003,10.3922308 C163.389285,10.3823897 162.0801,10.7444988 160.940799,11.4380788 C159.809158,12.1213724 158.87785,13.0927106 158.241356,14.2535501 C157.588681,15.434651 157.250536,16.7645292 157.259548,18.1148694 C157.178918,19.9537706 157.754196,21.7613214 158.88219,23.2132897 C159.617827,24.1104585 160.554432,24.8205865 161.61566,25.2857894 C162.687985,25.7575424 163.847392,25.9973752 165.018318,25.9896572 C166.719451,26.0237652 168.39941,25.6068288 169.888373,24.7809953 C171.050948,24.1126763 171.632945,23.3782365 171.632945,22.5620342 C171.629334,22.2546568 171.539412,21.9545244 171.373492,21.6960635 C171.20074,21.4177614 170.958923,21.1891952 170.671694,21.0327214 C170.398637,20.8740904 170.089083,20.7895512 169.773534,20.7874341 C169.486923,20.8061429 169.206336,20.8784861 168.946262,21.0007274 L167.702165,21.6199889 C166.943841,22.0047301 166.106332,22.206325 165.256504,22.2086784 C164.520433,22.215104 163.803335,21.9746157 163.219162,21.5254289 C162.594407,21.0521684 162.138077,20.3898355 161.917645,19.6363614 L170.010302,19.6363614 C170.534423,19.6890118 171.056129,19.515545 171.44509,19.1592955 Z M154.644463,10.4142711 C153.735197,10.4142711 152.761894,10.9593539 151.724556,12.0495195 C151.371032,11.1141423 150.47257,10.4998641 149.475257,10.511675 C148.871552,10.5093941 148.298852,10.7796179 147.915705,11.2475368 C147.527404,11.7434709 147.339832,12.3680162 147.39042,12.9965417 L147.39042,23.4756404 C147.371195,24.1039612 147.578595,24.7181518 147.974543,25.2054489 C148.359775,25.6713185 148.939637,25.9302915 149.542601,25.9057618 C150.155543,25.9386829 150.748821,25.6834835 151.147522,25.2154026 C151.543932,24.7247342 151.749905,24.1067623 151.727392,23.4756404 L151.727392,17.5311568 C151.660648,16.8647125 151.911615,16.2057949 152.404379,15.7537128 C153.1065,15.2655328 153.882538,14.8941355 154.702591,14.6538305 C155.298001,14.4868344 155.863346,14.2264841 156.377692,13.8824198 C156.769465,13.5451439 156.973092,13.0377585 156.923535,12.5223196 C156.934263,11.9459121 156.688768,11.3945919 156.253637,11.0178911 C155.813176,10.6212345 155.239158,10.4068037 154.647298,10.417826 L154.644463,10.4142711 Z M143.61276,10.7143036 L142.375751,10.7143036 L142.375751,7.99694727 C142.397185,7.36749996 142.191267,6.75146016 141.795882,6.26216195 C141.407413,5.79859161 140.826034,5.54265031 140.222861,5.56966977 C139.609794,5.53904117 139.017759,5.79791552 138.622902,6.26927172 C138.225376,6.7543881 138.017268,7.36791664 138.037362,7.99552532 L138.037362,10.7143036 C137.456206,10.6790794 136.874339,10.7705219 136.331779,10.9823422 C136.025013,11.1361737 135.776271,11.385649 135.622892,11.6933198 C135.448564,11.9926648 135.354308,12.332106 135.349261,12.6787347 C135.337084,13.1712677 135.517174,13.649097 135.851153,14.0103957 C136.221901,14.4369823 136.949929,14.6588073 138.033817,14.6588073 L138.033817,23.4756404 C138.015357,24.1050492 138.225452,24.7197605 138.625029,25.2054489 C139.019915,25.6735561 139.608512,25.9321056 140.219316,25.9057618 C140.823039,25.9349084 141.405947,25.6808258 141.796591,25.2182465 C142.191841,24.7260745 142.396286,24.1071431 142.372207,23.4756404 L142.372207,14.6552524 L143.609215,14.6552524 C144.174617,14.6724562 144.727025,14.48323 145.163805,14.1227302 C145.587187,13.7644086 145.822293,13.2303859 145.801094,12.6751798 C145.828111,12.1233031 145.595624,11.590638 145.17302,11.2361612 C144.73256,10.8799485 144.178947,10.6946986 143.613468,10.7143036 L143.61276,10.7143036 Z M129.73771,16.5485857 L128.831752,16.1888311 C128.484739,16.0597148 128.157753,15.8818557 127.860577,15.6605747 C127.622866,15.501192 127.476789,15.2362588 127.468562,14.9495971 C127.494082,14.5230106 127.837656,14.28744 128.499284,14.2428854 C129.112033,14.2781637 129.712939,14.4271458 130.271502,14.6822696 C130.817312,14.9479416 131.392727,15.1474725 131.985591,15.2766468 C132.478998,15.2780868 132.94714,15.0579327 133.261588,14.6765817 C133.593916,14.3158122 133.779321,13.8431979 133.781203,13.3520305 C133.706793,12.5553881 133.244166,11.847288 132.545612,11.4608301 C131.405533,10.7168276 130.06498,10.342292 128.70557,10.3879649 C127.13685,10.3355267 125.621541,10.9629174 124.546529,12.1099526 C123.707705,12.9340815 123.245902,14.0693478 123.270532,15.2467858 C123.220212,16.1958368 123.575202,17.1214791 124.24667,17.7920856 C125.060571,18.5087022 126.002863,19.0636327 127.023381,19.427334 L128.200134,19.8667182 C128.639207,20.0208244 129.065799,20.2086033 129.476131,20.4283905 C129.749577,20.5822815 129.910189,20.8803736 129.888703,21.1941133 C129.889827,21.4846405 129.727809,21.7510672 129.469751,21.8830506 C129.20791,22.0538479 128.902368,22.1449659 128.590022,22.1454013 C127.99275,22.1048316 127.409655,21.9445455 126.875223,21.6740232 C126.702964,21.585862 126.510146,21.491302 126.29748,21.3896322 C126.084814,21.2879624 125.895541,21.205489 125.736042,21.140079 C125.556602,21.0716819 125.373124,21.0144579 125.186654,20.9687334 C124.996245,20.922792 124.801204,20.8989364 124.605366,20.8976357 C124.1234,20.9078254 123.671327,21.134007 123.37332,21.5140532 C123.039339,21.8593712 122.846812,22.3178759 122.833857,22.7987898 C122.832092,23.5330436 123.202119,24.2179794 123.816375,24.6174704 C124.505875,25.1161357 125.286948,25.4730284 126.114587,25.6675843 C126.893268,25.8707438 127.69337,25.9798231 128.497866,25.9925011 C129.94093,26.0655932 131.360181,25.6023375 132.483939,24.6914121 C133.00401,24.2373141 133.415833,23.6719386 133.689047,23.0369672 C133.969621,22.4030095 134.114517,21.7170843 134.11438,21.0234787 C134.105885,20.0476481 133.721881,19.112826 133.042542,18.4141909 C132.081099,17.5694916 130.955253,16.9342147 129.736292,16.5485857 L129.73771,16.5485857 Z M115.991678,20.0835663 C115.759368,20.6236534 115.383719,21.0894345 114.905663,21.4301579 C114.415496,21.7763233 113.827793,21.9561933 113.228435,21.9434837 C112.357904,21.9869578 111.534512,21.5450616 111.087596,20.7945439 C110.596921,19.9894095 110.347633,19.0596601 110.369493,18.1162913 C110.358936,17.212984 110.624106,16.3280483 111.12942,15.5802343 C111.578634,14.8548181 112.378028,14.4230853 113.229144,14.446225 C114.154232,14.380372 115.048259,14.7954141 115.596828,15.5453964 C116.136249,16.3690618 116.405194,17.3413619 116.36597,18.3260297 C116.369236,18.9322658 116.241798,19.5320458 115.992387,20.0842773 L115.991678,20.0835663 Z M118.607472,10.5180738 C117.634625,10.5269694 116.782442,11.1739847 116.509874,12.1106636 C116.016446,11.5766027 115.434311,11.1325198 114.789405,10.798199 C114.153201,10.5123395 113.460984,10.373828 112.764114,10.3929418 C111.066449,10.4104242 109.451482,11.1308757 108.301669,12.383679 C106.772948,13.9160173 105.950793,16.0184393 106.03323,18.1845452 C105.931402,20.5185088 106.871843,22.776593 108.598693,24.344455 C109.761507,25.4076904 111.278495,25.9967495 112.852016,25.996056 C113.550553,26.0189419 114.244299,25.8726137 114.874472,25.5694694 C115.499703,25.2255309 116.047312,24.7557016 116.482937,24.1894619 C116.889129,25.3384017 117.58951,25.9071838 118.58337,25.9071838 C119.215541,25.9309154 119.821128,25.6509955 120.21381,25.1535475 C120.625349,24.636735 120.840858,23.990317 120.822035,23.329179 L120.822035,12.7306361 C120.833306,12.1404411 120.602687,11.571447 120.184037,11.1565317 C119.76963,10.7355281 119.200745,10.5041146 118.611016,10.5166519 L118.607472,10.5180738 Z M101.618989,10.5166519 C101.01402,10.4882384 100.429764,10.7410958 100.035335,11.2020343 C99.6448343,11.6844224 99.4418502,12.2923922 99.4639722,12.9133573 L99.4639722,23.4756404 C99.4444269,24.1040091 99.6518643,24.7183092 100.048095,25.2054489 C100.433873,25.6722228 101.015024,25.9313028 101.618989,25.9057618 C102.231055,25.9383341 102.823324,25.6831177 103.221075,25.2154026 C103.61731,24.724558 103.823705,24.10683 103.802362,23.4756404 L103.802362,12.9112244 C103.823012,12.2877055 103.613787,11.6784294 103.214695,11.1999013 C102.814477,10.7398306 102.227162,10.4875687 101.618989,10.5145189 L101.618989,10.5166519 Z M102.925469,4.34749929 C102.547658,4.11814918 102.113768,3.99852689 101.672156,4.00196418 C101.003416,3.99529965 100.362279,4.26900536 99.9034823,4.75702238 C99.4278472,5.23033392 99.1625747,5.87599075 99.1676574,6.54797494 C99.1623029,7.22022075 99.4276024,7.8661999 99.9034823,8.33963847 C100.361711,8.82889381 101.002897,9.10390882 101.672156,9.09825156 C102.342627,9.10481716 102.985255,8.82973447 103.444374,8.33963847 C103.922239,7.86725344 104.188972,7.22089676 104.183743,6.54797494 C104.185491,6.10351679 104.067698,5.66681146 103.842769,5.28385678 C103.622745,4.89729616 103.306423,4.57465146 102.92476,4.34749929 L102.925469,4.34749929 Z M92.6047795,19.7472739 C92.3994036,20.3021512 92.0549119,20.794579 91.6045396,21.1770499 C91.1621552,21.5476833 90.6007072,21.7447317 90.02443,21.7316124 C89.1458832,21.7554543 88.316439,21.3260917 87.8268796,20.5940482 C87.2836329,19.8398941 86.9977079,18.9299666 87.0116593,17.999691 C87.008159,17.3786951 87.1259229,16.7630199 87.3583051,16.1874091 C87.5708617,15.6350994 87.9255228,15.1491301 88.3861916,14.7789625 C88.8536632,14.4150111 89.4321096,14.2241386 90.0237211,14.2386195 C90.5998057,14.2259484 91.1610234,14.4226634 91.6038307,14.7924711 C92.0523186,15.1734947 92.3965688,15.6628856 92.6040706,16.2144263 C92.8253531,16.7756269 92.9398055,17.3734512 92.9415009,17.9769397 C92.9404767,18.5853367 92.8260333,19.1881775 92.6040706,19.7543837 L92.6047795,19.7472739 Z M95.0986447,4.00907396 C94.4872767,3.97798295 93.8956457,4.23075103 93.4944329,4.69445636 C93.0997823,5.17316821 92.8930667,5.7799737 92.9131454,6.40080258 L92.9131454,11.7914347 C91.9812429,10.9361628 90.7776277,10.4392432 89.5154489,10.3886759 C87.9684859,10.3790037 86.4743925,10.9527728 85.3294699,11.9961962 C84.5086165,12.7280117 83.8535636,13.6276685 83.4083855,14.6346341 C82.9350993,15.6203148 82.6831937,16.698136 82.6704339,17.7920856 C82.6320175,19.7416671 83.1993558,21.6549364 84.2937857,23.266613 C84.8583772,24.0785109 85.5931732,24.7567496 86.4466761,25.2537954 C87.2693479,25.7387879 88.2067412,25.9934088 89.1610053,25.9910791 C89.9086619,26.0084478 90.6514566,25.8661881 91.3401246,25.5737353 C91.9950202,25.2599483 92.5582587,24.7822203 92.9755275,24.186618 C93.1322437,24.6804361 93.4115483,25.1261947 93.7872033,25.4820192 C94.1706192,25.7813022 94.6489554,25.9315387 95.1340891,25.9050509 C95.7415723,25.9398185 96.3270196,25.6716395 96.6986032,25.1883854 C97.0767233,24.6787968 97.2716207,24.0557921 97.2515352,23.4208951 L97.2515352,6.39227085 C97.2731987,5.77168917 97.0674127,5.16465162 96.6730832,4.68592463 C96.2799112,4.2271532 95.6983836,3.97498278 95.0958092,4.00196418 L95.0986447,4.00907396 Z M70.9936436,16.6730068 C71.5938348,14.8538522 72.5574488,13.9449858 73.8844857,13.9464078 C75.3967784,13.9464078 76.3816591,14.8552741 76.8391276,16.6730068 L70.9936436,16.6730068 Z M80.6635742,19.1614284 C80.9848477,18.7285883 81.136229,18.1923836 81.0889065,17.6548669 C81.0974586,16.3893031 80.7766362,15.1434001 80.1581376,14.0402568 C79.5493315,12.9354069 78.6550586,12.0154111 77.5692815,11.3769347 C76.4737488,10.7221349 75.2200148,10.3815243 73.9447411,10.3922308 C72.6128068,10.3815664 71.3043126,10.743756 70.1663722,11.4380788 C69.0333595,12.1210228 68.10059,13.0923546 67.4626763,14.2535501 C66.8094741,15.4343785 66.4717499,16.7645223 66.4822853,18.1148694 C66.4025183,19.9530805 66.9763245,21.7599534 68.1013837,23.2132897 C68.8388127,24.1085838 69.7749348,24.8183459 70.8348528,25.2857894 C71.9089846,25.7581419 73.0703667,25.9979836 74.2431826,25.9896572 C75.944752,26.0236457 77.6251385,25.6067247 79.1146556,24.7809953 C80.2765218,24.1126763 80.8556826,23.3782365 80.8556826,22.5620342 C80.8526146,22.254982 80.7637057,21.9549535 80.5990654,21.6960635 C80.4266232,21.4185142 80.185932,21.1900892 79.9001026,21.0327214 C79.6251102,20.8744075 79.3140463,20.7899228 78.9969803,20.7874341 C78.7104774,20.8068153 78.4300117,20.8791271 78.1697089,21.0007274 L76.9291563,21.6199889 C76.1696715,22.0050205 75.3309455,22.2066162 74.4799509,22.2086784 C73.743228,22.2137309 73.025664,21.9734208 72.4397735,21.5254289 C71.8178128,21.0505014 71.3635169,20.3885968 71.1432188,19.6363614 L79.2365842,19.6363614 C79.7589983,19.6886141 80.2789709,19.5159848 80.6671186,19.1614284 L80.6635742,19.1614284 Z M62.4274504,11.0740583 C61.6382316,10.6377014 60.750397,10.4122115 59.8492275,10.4192479 C59.0250475,10.4107427 58.2079606,10.5726574 57.4489354,10.8948919 C56.6423773,11.2633617 55.8910359,11.7429198 55.2166495,12.319691 C54.9097294,11.8351462 54.4950596,11.4285012 54.0051613,11.1316475 C53.123967,10.6373007 52.1257067,10.3916065 51.1164458,10.4206699 C49.6798543,10.4037367 48.2923191,10.9442881 47.2437949,11.9293643 C46.7850179,11.1066743 45.9404095,10.5746254 45.0022935,10.5173628 C44.4174958,10.5244098 43.8717441,10.8130376 43.5356059,11.2930394 C43.1762819,11.7892929 42.9885797,12.3897635 43.0011049,13.0029405 L43.0011049,23.4756404 C42.9828994,24.1038084 43.1901825,24.717652 43.585228,25.2054489 C43.9713457,25.6717728 44.5522617,25.9307482 45.1561221,25.9057618 C45.7680153,25.9396617 46.3604174,25.6841618 46.7567894,25.2154026 C47.1555059,24.7258073 47.3628888,24.1073838 47.3402036,23.4756404 L47.3402036,16.3957256 C47.3263296,15.7950859 47.5614562,15.2155766 47.9895443,14.795315 C48.4101825,14.372893 48.9836869,14.1396848 49.5788694,14.1490364 C50.2320276,14.0993272 50.8664872,14.381577 51.2681477,14.9005397 C51.6587647,15.4689735 51.8538859,16.1496682 51.8239153,16.8393756 L51.8239153,23.4756404 C51.8061414,24.1044626 52.0150428,24.7186262 52.4122917,25.2054489 C52.8078986,25.6725847 53.395997,25.9309152 54.006579,25.9057618 C54.6104828,25.935903 55.1938109,25.6816371 55.5838531,25.2182465 C55.978367,24.7257505 56.1822729,24.1069269 56.1580518,23.4756404 L56.1580518,16.3957256 C56.1454976,15.7996975 56.3735217,15.223854 56.7903792,14.7988699 C57.2058728,14.3692088 57.781695,14.13356 58.3782865,14.1490364 C58.9924185,14.1239569 59.5908574,14.3473361 60.0392093,14.7690088 C60.4736172,15.1953636 60.7070755,15.7866745 60.6814611,16.3957256 L60.6814611,23.4749294 C60.6756301,23.8938482 60.7617889,24.3089213 60.933825,24.6907011 C61.0925957,25.0510542 61.3493196,25.3592921 61.6746121,25.5801341 C62.0200865,25.8029317 62.424479,25.9161586 62.8350605,25.9050509 C63.4426375,25.9386224 64.030913,25.6853099 64.4250946,25.2203794 C64.8142735,24.7245135 65.0139023,24.1054534 64.987951,23.4749294 L64.987951,15.4266631 C64.9983195,14.5264256 64.7608758,13.6407667 64.3017482,12.8671438 C63.8513813,12.1093112 63.204306,11.4883415 62.429577,11.0705034 L62.4274504,11.0740583 Z" id="path-2" fill="#878787"></path>
                </g>
            </g>
        </g>
    </g>
</svg>