<?xml version="1.0" encoding="UTF-8" standalone="no"?>
<svg width="233px" height="121px" viewBox="0 0 233 121" version="1.1" xmlns="http://www.w3.org/2000/svg" xmlns:xlink="http://www.w3.org/1999/xlink">
    <!-- Generator: Sketch 41.2 (35397) - http://www.bohemiancoding.com/sketch -->
    <title>Group 8</title>
    <desc>Created with Sketch.</desc>
    <defs>
        <polygon id="path-1" points="0 62.7528176 149.753941 62.7528176 149.753941 0.000370588235 0 0.000370588235"></polygon>
    </defs>
    <g id="Page-1" stroke="none" stroke-width="1" fill="none" fill-rule="evenodd">
        <g id="Artboard-2" transform="translate(-119.000000, -326.000000)">
            <g id="Group-8" transform="translate(119.000000, 326.000000)">
                <rect id="Rectangle-3" fill="#FFFFFF" x="-1.42108547e-14" y="0" width="233" height="121"></rect>
                <g id="Page-1" transform="translate(42.000000, 28.000000)">
                    <path d="M120.290764,20.0073918 C121.619335,20.4691447 122.801601,21.2377447 123.754064,22.2346271 L126.274507,19.9303094 C124.420567,17.9973212 122.321305,17.2939447 122.321305,17.2939447 C121.597906,17.0923447 120.91367,16.9359565 120.257512,16.8106976 L120.290764,20.0073918 Z" id="Fill-1" fill="#424242"></path>
                    <path d="M127.092488,34.0412718 C128.393719,31.8607306 128.786823,29.8017424 128.786823,29.8017424 C129.541995,25.8245894 128.598399,23.0103424 127.22032,21.0714247 L124.689532,23.3853776 C125.639778,24.7913894 126.195443,26.4879424 126.195443,28.3142012 C126.195443,29.7669071 125.838547,31.1336365 125.217118,32.3410129 L127.092488,34.0412718 Z" id="Fill-3" fill="#424242"></path>
                    <path d="M124.415394,33.6120565 C122.814163,35.7340447 120.283374,37.1111506 117.425985,37.1111506 C112.58165,37.1111506 108.655788,33.17328 108.655788,28.3148682 C108.655788,25.6295859 109.858005,23.2303976 111.748153,21.6168565 L109.419828,18.8833976 C109.083621,19.2035859 108.928448,19.4251976 108.928448,19.4251976 C104.956773,23.2237271 104.956773,28.9678447 104.956773,28.9678447 C102.924754,32.2104918 102.462931,35.8237271 102.462931,35.8237271 L105.510961,35.8237271 C105.326232,44.2546094 111.514655,42.4943153 111.514655,42.4943153 L111.514655,46.8487271 L124.041502,46.8487271 L124.076232,37.3987271 C124.947414,36.7805859 125.660468,36.0438565 126.251601,35.2782212 L124.415394,33.6120565 Z" id="Fill-5" fill="#424242"></path>
                    <path d="M112.957833,20.75472 C114.267192,19.9742612 115.791576,19.5176965 117.426059,19.5176965 C117.898227,19.5176965 118.357094,19.5658729 118.808571,19.6377671 L118.776798,16.5767082 C114.699458,16.0860494 112.095517,17.0458729 110.596256,17.9812376 L112.957833,20.75472 Z" id="Fill-7" fill="#424242"></path>
                    <polygon id="Fill-9" fill="#424242" points="117.241256 35.2677706 117.241256 29.8942412 111.237562 34.0411235 114.70234 28.5045353 109.944458 28.0413 114.70234 26.0957118 111.699384 23.2236529 116.040517 24.9839471 115.301601 20.7547941 118.072537 23.6868882 121.028202 21.0712765 120.257512 25.0765941 125.834852 25.8096176 121.490025 28.0116529 124.689532 31.2839471 119.550369 29.8015941"></polygon>
                    <g id="Group-14" transform="translate(104.926108, 15.317524)">
                        <path d="M0.123029557,0.679658824 L2.70923645,3.28192941" id="Fill-11" fill="#424242"></path>
                        <path d="M0.123029557,0.679658824 L2.70923645,3.28192941" id="Stroke-13" stroke="#2F2F2F"></path>
                    </g>
                    <g id="Group-18" transform="translate(104.926108, 10.129288)">
                        <path d="M0.123029557,0.494364706 L5.01834975,7.16865882" id="Fill-15" fill="#424242"></path>
                        <path d="M0.123029557,0.494364706 L5.01834975,7.16865882" id="Stroke-17" stroke="#2F2F2F"></path>
                    </g>
                    <g id="Group-22" transform="translate(110.098522, 11.611641)">
                        <path d="M0.497512315,0.309070588 L1.87780788,4.38554118" id="Fill-19" fill="#424242"></path>
                        <path d="M0.497512315,0.309070588 L1.87780788,4.38554118" id="Stroke-21" stroke="#2F2F2F"></path>
                    </g>
                    <g id="Group-26" transform="translate(118.965517, 9.388112)">
                        <path d="M0.307758621,0.587011765 L0.307758621,6.14583529" id="Fill-23" fill="#424242"></path>
                        <path d="M0.307758621,0.587011765 L0.307758621,6.14583529" id="Stroke-25" stroke="#2F2F2F"></path>
                    </g>
                    <g id="Group-30" transform="translate(121.182266, 12.352818)">
                        <path d="M1.13903941,0.401717647 L0.123029557,3.18112941" id="Fill-27" fill="#424242"></path>
                        <path d="M1.13903941,0.401717647 L0.123029557,3.18112941" id="Stroke-29" stroke="#2F2F2F"></path>
                    </g>
                    <g id="Group-34" transform="translate(124.137931, 12.352818)">
                        <path d="M3.26342365,0.401717647 L0.551600985,4.45743529" id="Fill-31" fill="#424242"></path>
                        <path d="M3.26342365,0.401717647 L0.551600985,4.45743529" id="Stroke-33" stroke="#2F2F2F"></path>
                    </g>
                    <g id="Group-38" transform="translate(127.093596, 16.058700)">
                        <path d="M2.36431034,0.696631765 L0.71135468,2.92090235" id="Fill-35" fill="#424242"></path>
                        <path d="M2.36431034,0.696631765 L0.71135468,2.92090235" id="Stroke-37" stroke="#2F2F2F"></path>
                    </g>
                    <g id="Group-42" transform="translate(128.571429, 17.541053)">
                        <path d="M5.29544335,0.326414118 L0.0594827586,3.21329647" id="Fill-39" fill="#424242"></path>
                        <path d="M5.29544335,0.326414118 L0.0594827586,3.21329647" id="Stroke-41" stroke="#2F2F2F"></path>
                    </g>
                    <g id="Group-46" transform="translate(130.049261, 27.917524)">
                        <path d="M4.83362069,0.0937588235 L0.0306650246,0.0937588235" id="Fill-43" fill="#424242"></path>
                        <path d="M4.83362069,0.0937588235 L0.0306650246,0.0937588235" id="Stroke-45" stroke="#2F2F2F"></path>
                    </g>
                    <g id="Group-50" transform="translate(129.310345, 31.623406)">
                        <path d="M3.17105911,1.79142353 L0.147413793,0.123776471" id="Fill-47" fill="#424242"></path>
                        <path d="M3.17105911,1.79142353 L0.147413793,0.123776471" id="Stroke-49" stroke="#2F2F2F"></path>
                    </g>
                    <g id="Group-54" transform="translate(127.093596, 34.588112)">
                        <path d="M3.87605911,2.99583529 L0.711280788,0.123776471" id="Fill-51" fill="#424242"></path>
                        <path d="M3.87605911,2.99583529 L0.711280788,0.123776471" id="Stroke-53" stroke="#2F2F2F"></path>
                    </g>
                    <polygon id="Fill-55" fill="#424242" points="20.6896552 46.8486529 16.0100985 46.8486529 16.0100985 16.8102529 23.2758621 16.8102529 26.6009852 36.1482882 30.2955665 16.7554059 37.1918719 16.7554059 37.1918719 46.8486529 32.6357143 46.8486529 32.6357143 26.9295353 28.941133 46.8486529 24.7536946 46.8486529 20.8130542 27.0533118"></polygon>
                    <mask id="mask-2" fill="white">
                        <use xlink:href="#path-1"></use>
                    </mask>
                    <g id="Clip-58"></g>
                    <polygon id="Fill-57" fill="#424242" mask="url(#mask-2)" points="41.3793103 46.8486529 47.1672414 46.8486529 47.1672414 16.8102529 41.3793103 16.8102529"></polygon>
                    <polygon id="Fill-59" fill="#424242" mask="url(#mask-2)" points="68.2270936 46.8486529 74.0150246 46.8486529 74.0150246 16.8102529 68.2270936 16.8102529"></polygon>
                    <polygon id="Fill-60" fill="#424242" mask="url(#mask-2)" points="50.2463054 16.7553318 65.0246305 16.7553318 65.0246305 22.2348494 60.714532 22.2348494 60.714532 46.8485788 54.4337438 46.8485788 54.4337438 22.2348494 50.2463054 22.2348494"></polygon>
                    <polygon id="Stroke-61" stroke="#2F2F2F" stroke-width="2" mask="url(#mask-2)" points="149.014655 62.0116412 0.738546798 62.0116412 0.738546798 0.741547059 87.6846059 0.741547059 149.014655 0.741547059"></polygon>
                    <g id="Group-64" mask="url(#mask-2)">
                        <g transform="translate(87.192118, 0.493994)">
                            <path d="M0.492487685,61.5176471 L0.492487685,0.494364706" id="Fill-62" stroke="none" fill="#7D7D7D" fill-rule="evenodd"></path>
                            <path d="M0.492487685,61.5176471 L0.492487685,0.494364706" id="Stroke-63" stroke="#2F2F2F" stroke-width="2" fill="none"></path>
                        </g>
                    </g>
                </g>
            </g>
        </g>
    </g>
</svg>