<?xml version="1.0" encoding="UTF-8"?>
<svg width="233px" height="88px" viewBox="0 0 233 88" version="1.1" xmlns="http://www.w3.org/2000/svg" xmlns:xlink="http://www.w3.org/1999/xlink">
    <!-- Generator: Sketch 50 (54983) - http://www.bohemiancoding.com/sketch -->
    <title>Nic</title>
    <desc>Created with Sketch.</desc>
    <defs>
        <polygon id="path-1" points="0.222933333 0.142551724 4.7036 0.142551724 4.7036 25.7695264 0.222933333 25.7695264"></polygon>
        <polygon id="path-3" points="0 0.0538416667 4.87425 0.0538416667 4.87425 6.99055 0 6.99055"></polygon>
    </defs>
    <g id="Page-1" stroke="none" stroke-width="1" fill="none" fill-rule="evenodd">
        <g id="Logos" transform="translate(-119.000000, -1777.000000)">
            <g id="Nic" transform="translate(119.000000, 1777.000000)">
                <rect id="Rectangle-3-Copy-8" fill="#FFFFFF" x="-1.42108547e-14" y="0" width="233" height="88"></rect>
                <g id="Group" transform="translate(48.000000, 20.000000)">
                    <path d="M61.1431724,27 L49.8568276,27 C48.8311337,27 48,26.1047809 48,25 C48,23.8955522 48.8311337,23 49.8568276,23 L61.1431724,23 C62.1688663,23 63,23.8955522 63,25 C63,26.1047809 62.1688663,27 61.1431724,27" id="Fill-1" fill="#064892"></path>
                    <path d="M56.2103352,8.42591127 L57.6051736,11.1520982 C57.7207205,11.3776545 57.9435391,11.5337407 58.2016041,11.5701017 L61.3207583,12.0073203 C61.9705182,12.0983706 62.2301157,12.8684548 61.7599592,13.3104033 L59.502963,15.4323475 C59.3160037,15.6079445 59.2307994,15.8609933 59.274934,16.108721 L59.807921,19.1051025 C59.9188706,19.7291515 59.2396876,20.2050961 58.6585815,19.9106608 L55.8685982,18.4958343 C55.6378108,18.3787696 55.3622759,18.3787696 55.1314885,18.4958343 L52.3415052,19.9106608 C51.7603991,20.2050961 51.0812161,19.7291515 51.1921657,19.1051025 L51.7248462,16.108721 C51.7689808,15.8609933 51.6837765,15.6079445 51.4971237,15.4323475 L49.2401275,13.3104033 C48.769971,12.8684548 49.029262,12.0983706 49.6790219,12.0073203 L52.7981761,11.5701017 C53.0562411,11.5337407 53.2793662,11.3776545 53.3946066,11.1520982 L54.7897515,8.42591127 C55.0803046,7.85802958 55.9197821,7.85802958 56.2103352,8.42591127" id="Fill-3" fill="#064892"></path>
                    <path d="M67,15.1076833 C67,10.5657076 69.7510467,8 75.2176804,8 C79.2554473,8 81.8994986,9.80302672 82.8643075,12.5419757 C83.1501425,13.408781 82.9358433,13.790271 82.0780299,14.1020456 L80.5060913,14.58766 C79.6485861,14.8997339 79.2554473,14.691186 78.9338444,13.859388 C78.326098,12.2993181 77.0042266,11.536338 75.0391492,11.536338 C72.4308658,11.536338 71.144454,12.6808082 71.144454,14.934442 L71.144454,20.065558 C71.144454,22.250374 72.5024017,23.463662 75.0391492,23.463662 C77.0042266,23.463662 78.326098,22.666273 78.9338444,21.0711957 C79.2554473,20.2387994 79.6485861,20.1002661 80.5060913,20.3776318 L82.1141061,20.8285381 C82.9358433,21.140612 83.1859105,21.6606353 82.8643075,22.3886081 C81.6139719,25.474339 78.9699206,27 74.8960775,27 C69.607975,27 67,24.4342924 67,19.8923167 L67,15.1076833 Z" id="Fill-5" fill="#E10C19"></path>
                    <path d="M90.0988708,0 C90.9279314,0 91.1804435,0.281072886 91.1804435,1.08911953 L91.1804435,7.76482799 C91.5763153,7.58896793 93.5945463,7.27302624 95.5042468,7.27302624 C100.51344,7.27302624 103,9.62712536 103,14.3350204 L103,24.9111837 C103,25.7192303 102.712037,26 101.882976,26 L99.9365804,26 C99.1078308,26 98.8198674,25.7192303 98.8198674,24.9111837 L98.8198674,14.4408397 C98.8198674,12.1567813 97.5224777,10.9973178 94.891936,10.9973178 C93.1262172,10.9973178 91.9009737,11.1731778 91.1804435,11.5242915 L91.1804435,24.9111837 C91.1804435,25.7192303 90.9279314,26 90.0988708,26 L88.117024,26 C87.2882743,26 87,25.7192303 87,24.9111837 L87,1.08911953 C87,0.281072886 87.2882743,0 88.117024,0 L90.0988708,0 Z" id="Fill-7" fill="#E10C19"></path>
                    <path d="M110.566029,7.81170838 C111.457453,7.81170838 111.767862,8.05745106 111.767862,8.86497788 L111.767862,24.9118841 C111.767862,25.7191079 111.457453,26 110.566029,26 L108.434306,26 C107.542547,26 107.271274,25.7191079 107.271274,24.9118841 L107.271274,8.86497788 C107.271274,8.05745106 107.542547,7.81170838 108.434306,7.81170838 L110.566029,7.81170838 Z M109.635804,1 C111.457453,1 112,1.52663475 112,3.106539 L112,3.42258045 C112,5.07308648 111.457453,5.56457184 109.635804,5.56457184 L109.363861,5.56457184 C107.619815,5.56457184 107,5.07308648 107,3.42258045 L107,3.106539 C107,1.52663475 107.542547,1 109.363861,1 L109.635804,1 Z" id="Fill-9" fill="#E10C19"></path>
                    <g id="Group-13" transform="translate(115.000000, 0.000000)">
                        <mask id="mask-2" fill="white">
                            <use xlink:href="#path-1"></use>
                        </mask>
                        <g id="Clip-12"></g>
                        <path d="M4.7036,24.6957563 C4.7036,25.4921931 4.39426667,25.7695264 3.5056,25.7695264 L1.41993333,25.7695264 C0.492933333,25.7695264 0.222933333,25.4921931 0.222933333,24.6957563 L0.222933333,1.21626207 C0.222933333,0.419825287 0.492933333,0.142491954 1.41993333,0.142491954 L3.5056,0.142491954 C4.39426667,0.142491954 4.7036,0.419825287 4.7036,1.21626207 L4.7036,24.6957563 Z" id="Fill-11" fill="#E10C19" mask="url(#mask-2)"></path>
                    </g>
                    <path d="M135.991352,14.934442 C135.991352,12.6808082 134.643704,11.398104 132.017297,11.398104 C129.425483,11.398104 128.008648,12.6808082 128.008648,14.934442 L128.008648,15.6971229 L135.991352,15.6971229 L135.991352,14.934442 Z M124,15.4891734 C124,10.6348246 126.799076,8 132.017297,8 C137.270111,8 140,10.9819058 140,15.1770996 L140,17.2922001 C140,18.2972394 139.481697,18.7828538 138.445389,18.7828538 L128.008648,18.7828538 L128.008648,20.065558 C128.008648,22.319491 129.425483,23.532779 131.948408,23.532779 C133.883546,23.532779 135.231194,22.9086314 136.026243,21.6953434 C136.578841,20.8979544 136.95907,20.8282389 137.788414,21.2794444 L138.997987,21.938001 C139.792738,22.319491 139.931112,22.8739232 139.412808,23.6713123 C138.064862,25.8905372 135.57653,27 131.948408,27 C126.557221,27 124,24.122817 124,19.5799436 L124,15.4891734 Z" id="Fill-14" fill="#E10C19"></path>
                    <path d="M8.50455773,8 C13.5495131,8 16,10.5665366 16,15.1652608 L16,25.8953095 C16,26.7151369 15.7117257,27 14.882976,27 L12.9008183,27 C12.0720686,27 11.8198674,26.7151369 11.8198674,25.8953095 L11.8198674,15.2723151 C11.8198674,12.9549569 10.5227887,11.7785891 7.89193602,11.7785891 C6.7388389,11.7785891 5.58574177,11.9210207 4.43233368,12.2418762 C4.25227887,12.3132458 4.18044353,12.4203002 4.18044353,12.5984165 L4.18044353,25.8953095 C4.18044353,26.7151369 3.92793143,27 3.09918175,27 L1.11733494,27 C0.288585256,27 0,26.7151369 0,25.8953095 L0,11.2439325 C0,10.1032495 0.252512099,9.6753396 1.40560922,9.21205252 C3.45960234,8.39191749 5.80186974,8 8.50455773,8" id="Fill-16" fill="#064892"></path>
                    <path d="M23.5657904,7.81170838 C24.4571543,7.81170838 24.7672085,8.05745106 24.7672085,8.86497788 L24.7672085,24.9118841 C24.7672085,25.7191079 24.4571543,26 23.5657904,26 L21.4342096,26 C20.5428457,26 20.2712556,25.7191079 20.2712556,24.9118841 L20.2712556,8.86497788 C20.2712556,8.05745106 20.5428457,7.81170838 21.4342096,7.81170838 L23.5657904,7.81170838 Z M22.6356278,1 C24.4571543,1 25,1.52663475 25,3.106539 L25,3.42258045 C25,5.07308648 24.4571543,5.56457184 22.6356278,5.56457184 L22.3643722,5.56457184 C20.6201084,5.56457184 20,5.07308648 20,3.42258045 L20,3.106539 C20,1.52663475 20.5428457,1 22.3643722,1 L22.6356278,1 Z" id="Fill-18" fill="#064892"></path>
                    <path d="M28,15.1076833 C28,10.5657076 30.7513032,8 36.2178339,8 C40.2555248,8 42.8995262,9.80302672 43.8643169,12.5419757 C44.1501466,13.408781 43.9358514,13.790271 43.0780541,14.1020456 L41.5058368,14.58766 C40.6486562,14.8997339 40.2555248,14.691186 39.9339278,13.859388 C39.3265013,12.2993181 38.0046547,11.536338 36.039306,11.536338 C33.4310719,11.536338 32.1446842,12.6808082 32.1446842,14.934442 L32.1446842,20.065558 C32.1446842,22.250374 33.502298,23.463662 36.039306,23.463662 C38.0046547,23.463662 39.3265013,22.666273 39.9339278,21.0711957 C40.2555248,20.2387994 40.6486562,20.1002661 41.5058368,20.3776318 L43.1138213,20.8285381 C43.9358514,21.140612 44.1859138,21.6606353 43.8643169,22.3886081 C42.6136965,25.474339 39.9696951,27 35.8965454,27 C30.6085425,27 28,24.4342924 28,19.8923167 L28,15.1076833 Z" id="Fill-20" fill="#064892"></path>
                    <g id="Group-24" transform="translate(0.000000, 38.000000)">
                        <mask id="mask-4" fill="white">
                            <use xlink:href="#path-3"></use>
                        </mask>
                        <g id="Clip-23"></g>
                        <path d="M2.42147222,0.0538416667 C3.63897222,0.0538416667 4.31036111,0.495716667 4.77591667,1.50138333 C4.82952778,1.60463333 4.79369444,1.68921667 4.67730556,1.7458 L4.39980556,1.87734167 C4.28341667,1.9243 4.23869444,1.91496667 4.16702778,1.79275833 C3.80897222,1.04084167 3.30758333,0.702508333 2.42147222,0.702508333 C1.35619444,0.702508333 0.77425,1.14409167 0.77425,1.94325833 C0.810083333,2.52600833 1.06091667,2.80775833 1.58008333,2.96759167 C1.93813889,3.0898 2.16175,3.127425 2.62730556,3.17438333 C3.15563889,3.2403 3.43313889,3.277925 3.87175,3.44709167 C4.09536111,3.531675 4.26563889,3.634925 4.39980556,3.75713333 C4.65952778,4.00155 4.87425,4.443425 4.87425,5.01684167 C4.87425,6.25759167 4.01480556,6.99055 2.43925,6.99055 C1.15925,6.99055 0.43425,6.47371667 0.0134166667,5.37384167 C-0.0224166667,5.25163333 0.0134166667,5.16705 0.120916667,5.12009167 L0.398416667,5.01684167 C0.49675,4.97921667 0.577305556,5.01684167 0.631194444,5.129425 C0.962305556,5.94725833 1.56202778,6.35150833 2.43925,6.35150833 C3.63008333,6.35150833 4.22091667,5.90963333 4.22091667,5.03550833 C4.18508333,4.45275833 3.95230556,4.18005 3.47786111,4.02050833 C3.13758333,3.90763333 2.91369444,3.87934167 2.47508333,3.83238333 C2.19758333,3.80409167 1.96480556,3.76646667 1.79480556,3.73846667 C1.62480556,3.710175 1.41897222,3.64455 1.17730556,3.55996667 C0.935361111,3.47509167 0.747583333,3.37184167 0.613138889,3.24963333 C0.335638889,3.00521667 0.112027778,2.57296667 0.112027778,1.98059167 C0.112027778,0.805758333 0.962305556,0.0538416667 2.42147222,0.0538416667" id="Fill-22" fill="#064892" mask="url(#mask-4)"></path>
                    </g>
                    <path d="M13.3443364,40.3808182 C13.3443364,39.2709078 12.6977165,38.6354539 11.5045218,38.6354539 C10.3116098,38.6354539 9.65566358,39.2709078 9.65566358,40.3808182 L9.65566358,42.6191818 C9.65566358,43.7290922 10.3116098,44.3645461 11.5045218,44.3645461 C12.6977165,44.3645461 13.3443364,43.7290922 13.3443364,42.6191818 L13.3443364,40.3808182 Z M9,40.3808182 C9,38.8915192 9.89249378,38 11.5045218,38 C13.1075062,38 14,38.8915192 14,40.3808182 L14,42.6191818 C14,44.1084808 13.1075062,45 11.5045218,45 C9.89249378,45 9,44.1084808 9,42.6191818 L9,40.3808182 Z" id="Fill-25" fill="#064892"></path>
                    <path d="M24.8138259,38 C24.95324,38 25,38.0492548 25,38.1973253 L25,44.8026747 C25,44.9507452 24.95324,45 24.8138259,45 L24.5347092,45 C24.3952951,45 24.3488238,44.9507452 24.3488238,44.8026747 L24.3580603,40.7802981 C24.3580603,40.1788383 24.3952951,39.5972641 24.4697648,39.0352694 L24.4325299,39.0352694 C24.2371194,39.5379136 23.9952374,40.0506534 23.7161207,40.573183 L22.3023524,43.2155063 C22.2558811,43.314016 22.190648,43.3632708 22.0884688,43.3632708 L21.9022947,43.3632708 C21.8001155,43.3632708 21.7256458,43.314016 21.6791745,43.2155063 L20.2466445,40.5435077 C20.0139991,40.1295835 19.7908789,39.6266335 19.5674701,39.0254797 L19.5302352,39.0254797 C19.5954683,39.6266335 19.6327031,40.2085136 19.6327031,40.7900878 L19.6327031,44.8026747 C19.6327031,44.9507452 19.5862318,45 19.4465291,45 L19.1861741,45 C19.04676,45 19,44.9507452 19,44.8026747 L19,38.1973253 C19,38.0492548 19.04676,38 19.1861741,38 L19.428056,38 C19.548997,38 19.6327031,38.0492548 19.688411,38.1578602 L21.9952374,42.4858616 L24.2835907,38.16765 C24.3580603,38.0195796 24.3952951,38 24.5439457,38 L24.8138259,38 Z" id="Fill-27" fill="#064892"></path>
                    <path d="M34.3443364,40.3808182 C34.3443364,39.2709078 33.6977165,38.6354539 32.5045218,38.6354539 C31.3116098,38.6354539 30.6556636,39.2709078 30.6556636,40.3808182 L30.6556636,42.6191818 C30.6556636,43.7290922 31.3116098,44.3645461 32.5045218,44.3645461 C33.6977165,44.3645461 34.3443364,43.7290922 34.3443364,42.6191818 L34.3443364,40.3808182 Z M30,40.3808182 C30,38.8915192 30.8924938,38 32.5045218,38 C34.1075062,38 35,38.8915192 35,40.3808182 L35,42.6191818 C35,44.1084808 34.1075062,45 32.5045218,45 C30.8924938,45 30,44.1084808 30,42.6191818 L30,40.3808182 Z" id="Fill-29" fill="#064892"></path>
                    <path d="M41.4839542,38 C42.7328589,38 43.4215659,38.4459067 43.8991302,39.4607493 C43.9541242,39.5649413 43.9173666,39.6502964 43.7979755,39.707396 L43.5133175,39.8401379 C43.3939264,39.8875247 43.3480506,39.8781062 43.2745354,39.7547828 C42.907244,38.9960056 42.392922,38.6545852 41.4839542,38.6545852 C40.3911981,38.6545852 39.7942427,39.1001976 39.7942427,39.906656 C39.8310004,40.4947231 40.0883038,40.7790439 40.6208621,40.9403355 C40.9881535,41.0636589 41.2175325,41.1016272 41.6950968,41.149014 C42.2370582,41.2155321 42.5217162,41.2535004 42.9716411,41.4242106 C43.2010201,41.5095657 43.3756901,41.6137577 43.5133175,41.7370811 C43.7797391,41.9837279 44,42.4296346 44,43.0082832 C44,44.260354 43.1183867,45 41.5021905,45 C40.1891736,45 39.4454726,44.478451 39.0137841,43.3685406 C38.9770265,43.2452172 39.0137841,43.1598621 39.124057,43.1124753 L39.408715,43.0082832 C39.5095848,42.9703149 39.5922182,43.0082832 39.6474971,43.1218938 C39.9871491,43.9471892 40.6023408,44.3551276 41.5021905,44.3551276 C42.7237407,44.3551276 43.3298143,43.9092209 43.3298143,43.0271202 C43.2930567,42.4390531 43.0542745,42.1638565 42.567592,42.0028592 C42.218537,41.8889543 41.988873,41.8604045 41.5389481,41.8130177 C41.2542902,41.7844679 41.015508,41.7464996 40.841123,41.7182441 C40.6667379,41.6896943 40.4555952,41.6234705 40.2076949,41.5381155 C39.9595096,41.452466 39.7668882,41.348274 39.6289758,41.2249506 C39.3443179,40.9783038 39.1149388,40.5421099 39.1149388,39.94433 C39.1149388,38.7587773 39.9871491,38 41.4839542,38" id="Fill-31" fill="#064892"></path>
                    <path d="M57.7199701,38 C57.8337747,38 57.8861954,38.0691403 57.8861954,38.1973253 L57.8861954,38.4732748 C57.8861954,38.6014597 57.8337747,38.6702941 57.7199701,38.6702941 L54.6301351,38.6702941 L54.6301351,41.1155981 L57.3261357,41.1155981 C57.4399402,41.1155981 57.492361,41.1844325 57.492361,41.3126175 L57.492361,41.5885669 C57.492361,41.7167519 57.4399402,41.7858922 57.3261357,41.7858922 L54.6301351,41.7858922 L54.6301351,44.3293999 L57.8337747,44.3293999 C57.9475793,44.3293999 58,44.3985403 58,44.5267252 L58,44.8026747 C58,44.9308597 57.9475793,45 57.8337747,45 L54.1749168,45 C54.0437292,45 54,44.9507452 54,44.8026747 L54,38.1973253 C54,38.0492548 54.0437292,38 54.1749168,38 L57.7199701,38 Z" id="Fill-33" fill="#064892"></path>
                    <path d="M63.493036,38 C63.6324601,38 63.6696976,38.0492548 63.6696976,38.1973253 L63.6696976,44.3293999 L66.8233384,44.3293999 C66.9442881,44.3293999 67,44.3985403 67,44.5267252 L67,44.8026747 C67,44.9308597 66.9442881,45 66.8233384,45 L63.1861875,45 C63.0464747,45 63,44.9507452 63,44.8026747 L63,38.1973253 C63,38.0492548 63.0464747,38 63.1861875,38 L63.493036,38 Z" id="Fill-35" fill="#064892"></path>
                    <path d="M78.7387649,41.7069621 C79.6841469,41.7069621 80.2690377,41.1351777 80.2690377,40.1886281 C80.2690377,39.2420786 79.6841469,38.6702941 78.7387649,38.6702941 L76.7019295,38.6702941 L76.7019295,41.7069621 L78.7387649,41.7069621 Z M78.797133,38 C80.1616766,38 81,38.8183646 81,40.1886281 C81,41.5591976 80.1616766,42.3674665 78.797133,42.3674665 L76.7019295,42.3674665 L76.7019295,44.8026747 C76.7019295,44.9507452 76.6629166,45 76.5165427,45 L76.1950644,45 C76.0486905,45 76,44.9507452 76,44.8026747 L76,38.1970194 C76,38.0492548 76.0486905,38 76.1950644,38 L78.797133,38 Z" id="Fill-37" fill="#064892"></path>
                    <path d="M85.6785673,42.5282486 C85.6785673,43.6772385 86.3011881,44.3435627 87.5,44.3435627 C88.6991002,44.3435627 89.3217211,43.6772385 89.3217211,42.5282486 L89.3217211,38.1929464 C89.3217211,38.0482366 89.3681509,38 89.5074403,38 L89.8142808,38 C89.9535702,38 90,38.0482366 90,38.1929464 L90,42.5186612 C90,44.0634309 89.1264852,45 87.5,45 C85.8738032,45 85,44.0634309 85,42.5186612 L85,38.1929464 C85,38.0482366 85.0467182,38 85.1860076,38 L85.4925597,38 C85.6321375,38 85.6785673,38.0482366 85.6785673,38.1929464 L85.6785673,42.5282486 Z" id="Fill-39" fill="#064892"></path>
                    <path d="M99.8129567,38 C99.9530217,38 100,38.0492548 100,38.1973253 L100,44.8026747 C100,44.9507452 99.9530217,45 99.8129567,45 L99.5139775,45 C99.4203109,45 99.3550632,44.9605349 99.3176546,44.8913946 L96.3365619,40.3761636 C96.2057766,40.1690486 96.056142,39.8927931 95.887948,39.5480093 C95.7197541,39.2029195 95.6168078,39.0153839 95.5889688,38.9661291 L95.5515601,38.9661291 C95.5515601,39.0153839 95.5701195,39.2521743 95.6075281,39.6660985 C95.6356571,40.0803287 95.6542164,40.4254185 95.6542164,40.7111577 L95.6542164,44.8026747 C95.6542164,44.9308597 95.5982485,45 95.4767428,45 L95.1870433,45 C95.0466883,45 95,44.9507452 95,44.8026747 L95,38.1973253 C95,38.0492548 95.0466883,38 95.1870433,38 L95.4860225,38 C95.5701195,38 95.6356571,38.0296753 95.6823454,38.0985097 L98.5886208,42.5253267 C98.7289758,42.7422315 98.8971697,43.0282767 99.083923,43.3831563 C99.2616866,43.7380359 99.3736225,43.945151 99.4203109,44.0139854 L99.4484399,44.0139854 C99.4484399,43.945151 99.4298805,43.6985709 99.3924719,43.2647612 C99.3550632,42.8407412 99.3362139,42.4760719 99.3362139,42.1802369 L99.3362139,38.1872296 C99.3362139,38.0590446 99.4017515,38 99.5232572,38 L99.8129567,38 Z" id="Fill-41" fill="#064892"></path>
                    <path d="M108.806446,38 C108.951386,38 109,38.0492548 109,38.1973253 L109,38.4732748 C109,38.6210393 108.951386,38.6702941 108.806446,38.6702941 L106.852899,38.6702941 L106.852899,44.8026747 C106.852899,44.9507452 106.804585,45 106.659645,45 L106.340355,45 C106.195415,45 106.147101,44.9507452 106.147101,44.8026747 L106.147101,38.6702941 L104.193554,38.6702941 C104.048614,38.6702941 104,38.6210393 104,38.4732748 L104,38.1973253 C104,38.0492548 104.048614,38 104.193554,38 L108.806446,38 Z" id="Fill-43" fill="#064892"></path>
                    <path d="M116.344336,40.3808182 C116.344336,39.2709078 115.697716,38.6354539 114.504522,38.6354539 C113.31161,38.6354539 112.655664,39.2709078 112.655664,40.3808182 L112.655664,42.6191818 C112.655664,43.7290922 113.31161,44.3645461 114.504522,44.3645461 C115.697716,44.3645461 116.344336,43.7290922 116.344336,42.6191818 L116.344336,40.3808182 Z M112,40.3808182 C112,38.8915192 112.892494,38 114.504522,38 C116.107506,38 117,38.8915192 117,40.3808182 L117,42.6191818 C117,44.1084808 116.107506,45 114.504522,45 C112.892494,45 112,44.1084808 112,42.6191818 L112,40.3808182 Z" id="Fill-45" fill="#064892"></path>
                    <path d="M127,40.3808182 C127,38.8915192 127.892359,38 129.520643,38 C130.891438,38 131.636498,38.5312618 131.967636,39.622041 C132.013595,39.7642013 131.995326,39.8213009 131.857447,39.8686877 L131.572269,39.9728798 C131.452659,40.0014296 131.37901,39.9634613 131.33305,39.8592692 C131.075277,39.0148425 130.560301,38.6354539 129.520643,38.6354539 C128.315416,38.6354539 127.671696,39.2709078 127.671696,40.3713997 L127.671696,42.6288946 C127.671696,43.7196737 128.333971,44.3645461 129.520643,44.3645461 C130.57857,44.3645461 131.093832,43.975739 131.35132,43.1124753 C131.39728,42.9988647 131.480064,42.9608964 131.590538,42.9891519 L131.875716,43.1030568 C131.986191,43.1504436 132.023015,43.2263802 131.986191,43.3402851 C131.655053,44.4404827 130.909708,45 129.520643,45 C127.910629,45 127,44.1084808 127,42.6191818 L127,40.3808182 Z" id="Fill-47" fill="#064892"></path>
                    <path d="M137.493036,38 C137.63246,38 137.669698,38.0492548 137.669698,38.1973253 L137.669698,44.3293999 L140.823338,44.3293999 C140.944288,44.3293999 141,44.3985403 141,44.5267252 L141,44.8026747 C141,44.9308597 140.944288,45 140.823338,45 L137.186187,45 C137.046475,45 137,44.9507452 137,44.8026747 L137,38.1973253 C137,38.0492548 137.046475,38 137.186187,38 L137.493036,38 Z" id="Fill-49" fill="#064892"></path>
                </g>
            </g>
        </g>
    </g>
</svg>