<?xml version="1.0" encoding="UTF-8"?>
<svg width="233px" height="88px" viewBox="0 0 233 88" version="1.1" xmlns="http://www.w3.org/2000/svg" xmlns:xlink="http://www.w3.org/1999/xlink">
    <!-- Generator: Sketch 50 (54983) - http://www.bohemiancoding.com/sketch -->
    <title>ThoughtWorks</title>
    <desc>Created with Sketch.</desc>
    <defs></defs>
    <g id="Page-1" stroke="none" stroke-width="1" fill="none" fill-rule="evenodd">
        <g id="Logos" transform="translate(-119.000000, -201.000000)">
            <g id="ThoughtWorks" transform="translate(119.000000, 201.000000)">
                <rect id="Rectangle-3-Copy-10" fill="#FFFFFF" x="-1.42108547e-14" y="0" width="233" height="88"></rect>
                <g id="Group" transform="translate(15.000000, 30.000000)" fill="#000000">
                    <path d="M25.0926335,9.1581875 C26.6294579,7.8876875 28.510743,6.881875 30.55101,6.881875 C32.5382829,6.881875 35.3469621,8.07296875 35.3469621,12.5726563 L35.3469621,25.4894063 L30.524513,25.4894063 L30.524513,14.504875 C30.524513,13.0490938 30.6305009,10.7198438 28.53724,10.7198438 C27.1329004,10.7198438 26.0200276,11.7256563 25.1191305,12.705 L25.1191305,25.4894063 L20.2701844,25.4894063 L20.2701844,0.1588125 L25.0926335,0.1588125 L25.0926335,9.1581875 Z" id="Shape"></path>
                    <path d="M37.5992048,16.3841563 C37.5992048,11.540375 40.2753991,6.881875 45.6277876,6.881875 C50.9801762,6.881875 53.6563705,11.540375 53.6563705,16.3841563 C53.6563705,21.2014688 50.9536792,25.8864375 45.6277876,25.8864375 C40.3018961,25.8864375 37.5992048,21.2014688 37.5992048,16.3841563 M48.7014365,16.3841563 C48.7014365,14.1078438 48.250988,10.4286875 45.6277876,10.4286875 C43.0310843,10.4286875 42.5541388,14.1078438 42.5541388,16.3841563 C42.5541388,18.6604688 43.0045873,22.339625 45.6277876,22.339625 C48.224491,22.339625 48.7014365,18.6604688 48.7014365,16.3841563" id="Shape"></path>
                    <path d="M66.1629418,23.610125 C64.6261173,24.880625 62.7448323,25.8864375 60.7310623,25.8864375 C58.7437893,25.8864375 55.9351102,24.6953438 55.9351102,20.1956563 L55.9351102,7.2524375 L60.7575593,7.2524375 L60.7575593,18.2369688 C60.7575593,19.69275 60.6515714,22.022 62.7448323,22.022 C64.1491718,22.022 65.2620447,21.0161875 66.1629418,20.0368438 L66.1629418,7.2524375 L70.9853909,7.2524375 L70.9853909,25.4894063 L66.1629418,25.4894063 L66.1629418,23.610125 Z" id="Shape"></path>
                    <path d="M79.0669677,19.5074687 C78.5105312,19.5074687 77.6891251,19.798625 77.6891251,20.645625 C77.6891251,23.0278125 90.3281812,18.8986875 90.3281812,26.0187812 C90.3281812,28.7185937 88.4998901,31.5772187 81.2662164,31.5772187 C74.9599368,31.5772187 72.813682,29.3538437 72.813682,26.998125 C72.813682,25.5952812 73.6880821,24.880625 74.800955,24.2189062 C74.0060458,23.6365937 73.3701185,22.9484062 73.3701185,21.916125 C73.3701185,20.11625 74.3505065,19.1898437 75.754846,18.2634375 C74.4299974,16.9664687 73.4761063,15.3254062 73.4761063,13.234375 C73.4761063,9.18465625 76.8942159,6.85540625 80.8422649,6.85540625 C82.4320832,6.85540625 83.9689077,7.305375 85.3467503,8.12590625 C86.3271383,7.22596875 87.2015384,6.64365625 88.6323749,6.64365625 C89.0828235,6.64365625 89.586266,6.670125 90.0367145,6.776 L90.0367145,10.164 C89.559769,9.97871875 89.0298295,9.76696875 88.4998901,9.76696875 C87.9699506,9.76696875 87.6519869,9.92578125 87.2015384,10.164 C87.7314779,11.1433437 88.1554294,12.2285625 88.1819264,13.2608437 C88.1819264,17.3105625 84.7903139,19.6398125 80.8422649,19.6398125 L79.0669677,19.5074687 Z M77.5301432,25.515875 C77.0796947,25.8070313 76.788228,26.0717188 76.788228,26.6540313 C76.788228,28.3480313 80.2063375,28.4539063 81.3457074,28.4539063 C82.1671135,28.4539063 86.4066292,28.3480313 86.4066292,26.89225 C86.4066292,25.939375 85.7442049,26.04525 82.8825318,25.8864375 L77.5301432,25.515875 Z M80.8687618,16.4370937 C82.8825318,16.4370937 83.4654652,14.7695625 83.4654652,13.0490937 C83.4654652,11.3815625 82.697053,9.97871875 80.8687618,9.97871875 C78.8549919,9.97871875 78.2190645,11.6727187 78.2190645,13.3931875 C78.2190645,15.0607187 79.0139737,16.4370937 80.8687618,16.4370937 L80.8687618,16.4370937 Z" id="Shape"></path>
                    <path d="M96.9259275,9.1581875 C98.462752,7.8876875 100.344037,6.881875 102.384304,6.881875 C104.371577,6.881875 107.180256,8.07296875 107.180256,12.5726563 L107.180256,25.4894063 L102.357807,25.4894063 L102.357807,14.504875 C102.357807,13.0490938 102.463795,10.7198438 100.370534,10.7198438 C98.9661945,10.7198438 97.8533216,11.7256563 96.9524245,12.705 L96.9524245,25.4894063 L92.1299754,25.4894063 L92.1299754,0.1588125 L96.9524245,0.1588125 L96.9524245,9.1581875 L96.9259275,9.1581875 Z" id="Shape"></path>
                    <path d="M116.242221,7.2524375 L120.004791,7.2524375 L120.004791,11.2492187 L116.242221,11.2492187 L116.242221,20.53975 C116.242221,21.4132187 116.507191,22.339625 118.070512,22.339625 C118.891918,22.339625 119.421858,22.022 120.004791,21.6514375 L120.004791,25.3305937 C118.997906,25.62175 117.938027,25.8864375 116.904645,25.8864375 C113.910487,25.8864375 111.419772,24.1924375 111.419772,20.222125 L111.419772,11.2492187 L109.167529,11.2492187 L109.167529,7.2524375 L111.419772,7.2524375 L111.419772,2.6998125 L116.242221,2.6998125 L116.242221,7.2524375 Z" id="Shape"></path>
                    <polygon id="Shape" points="140.645933 25.4894063 138.04923 25.4894063 133.730223 4.79084375 133.677229 4.79084375 129.146247 25.4894063 126.523046 25.4894063 121.223652 0.1588125 123.767361 0.1588125 127.927386 20.6191563 128.006877 20.6191563 132.564356 0.1588125 135.081569 0.1588125 139.427072 20.6191563 139.480066 20.6191563 143.958055 0.1588125 146.44877 0.1588125"></polygon>
                    <path d="M145.044431,16.5165 C145.044431,9.76696875 148.250564,7.01421875 152.251607,7.01421875 C156.279147,7.01421875 159.458784,9.7934375 159.458784,16.5165 C159.458784,23.2660312 156.279147,26.0187812 152.251607,26.0187812 C148.224067,26.0187812 145.044431,23.2395625 145.044431,16.5165 M156.915075,16.5165 C156.915075,13.446125 156.173159,9.1581875 152.251607,9.1581875 C148.330055,9.1581875 147.58814,13.446125 147.58814,16.5165 C147.58814,19.586875 148.330055,23.8748125 152.251607,23.8748125 C156.146662,23.8748125 156.915075,19.5604063 156.915075,16.5165" id="Shape"></path>
                    <path d="M164.069257,11.3815625 L164.122251,11.3815625 C165.129136,9.23759375 166.427488,7.2524375 169.103682,7.2524375 L170.08407,7.2524375 L170.08407,9.55521875 C166.745452,9.10525 165.023148,12.6785313 164.04276,15.2989375 L164.04276,25.4894063 L161.499051,25.4894063 L161.499051,7.517125 L164.04276,7.517125 L164.04276,11.3815625 L164.069257,11.3815625 Z" id="Shape"></path>
                    <polygon id="Shape" points="174.217598 15.8547813 180.894835 7.517125 183.730011 7.517125 178.775077 13.6843438 184.498424 25.4894063 181.742738 25.4894063 177.158762 15.7224375 174.217598 19.3486563 174.217598 25.4894063 171.673889 25.4894063 171.673889 0.1588125 174.217598 0.1588125"></polygon>
                    <path d="M195.600655,11.5139062 C194.59377,10.0051875 193.37491,9.13171875 191.493624,9.13171875 C189.824315,9.13171875 188.260994,9.97871875 188.260994,11.8050625 C188.260994,16.198875 197.74691,14.293125 197.74691,20.3544687 C197.74691,23.8748125 195.229698,26.0187812 191.838085,26.0187812 C188.923418,26.0187812 186.591684,24.7482812 185.134351,22.23375 L187.148121,20.96325 C188.128509,22.8160625 189.69183,23.8483437 191.838085,23.8483437 C193.692873,23.8483437 195.362183,22.8425312 195.362183,20.7779687 C195.362183,16.2518125 185.876266,18.3957812 185.876266,11.963875 C185.876266,8.86703125 188.419976,6.98775 191.387637,6.98775 C193.904849,6.98775 195.99811,8.02003125 197.375952,10.1110625 L195.600655,11.5139062 Z" id="Shape"></path>
                    <path d="M202.012923,2.14396875 C202.012923,1.56165625 201.615468,1.19109375 201.006038,1.19109375 L199.601698,1.19109375 L199.601698,4.31440625 L200.052147,4.31440625 L200.052147,3.09684375 L200.873553,3.09684375 L201.535977,4.31440625 L202.065917,4.31440625 L201.350498,3.04390625 C201.747953,2.93803125 202.012923,2.5939375 202.012923,2.14396875 L202.012923,2.14396875 Z M200.052147,1.6410625 L201.006038,1.6410625 C201.376995,1.6410625 201.562474,1.799875 201.562474,2.14396875 C201.562474,2.51453125 201.271008,2.646875 201.032535,2.646875 L200.052147,2.646875 L200.052147,1.6410625 Z" id="Shape"></path>
                    <path d="M200.661577,0 C199.15125,0 197.905892,1.24403125 197.905892,2.75275 C197.905892,4.26146875 199.124753,5.5055 200.661577,5.5055 C202.171905,5.5055 203.417262,4.26146875 203.417262,2.75275 C203.417262,1.24403125 202.171905,0 200.661577,0 M200.661577,5.05553125 C199.389722,5.05553125 198.382837,4.02325 198.382837,2.75275 C198.382837,1.48225 199.416219,0.44996875 200.661577,0.44996875 C201.933432,0.44996875 202.966814,1.48225 202.966814,2.75275 C202.940317,4.02325 201.933432,5.05553125 200.661577,5.05553125" id="Shape"></path>
                    <polygon id="Shape" points="18.2564145 4.3938125 11.6851651 4.3938125 11.6851651 25.4364687 6.5977463 25.4364687 6.5977463 4.3938125 0 4.3938125 0 0.07940625 18.2564145 0.07940625"></polygon>
                </g>
            </g>
        </g>
    </g>
</svg>