<?xml version="1.0" encoding="UTF-8"?>
<svg width="233px" height="88px" viewBox="0 0 233 88" version="1.1" xmlns="http://www.w3.org/2000/svg" xmlns:xlink="http://www.w3.org/1999/xlink">
    <!-- Generator: Sketch 50 (54983) - http://www.bohemiancoding.com/sketch -->
    <title>Welcu</title>
    <desc>Created with Sketch.</desc>
    <defs></defs>
    <g id="Page-1" stroke="none" stroke-width="1" fill="none" fill-rule="evenodd">
        <g id="Logos" transform="translate(-120.000000, -1219.000000)">
            <g id="Welcu" transform="translate(120.000000, 1219.000000)">
                <rect id="Rectangle-3-Copy-10" fill="#FFFFFF" x="-1.42108547e-14" y="0" width="233" height="88"></rect>
                <g id="welcu" transform="translate(41.000000, 18.000000)" fill="#5252CA" fill-rule="nonzero">
                    <polygon id="Shape" points="37 44.1 30.4 44.1 23.6 23.8 16.8 44.1 10.2 44.1 0.3 11.9 8.9 11.9 14.1 31.9 20.7 11.9 26.6 11.9 33.2 31.9 38.4 11.9 46.9 11.9"></polygon>
                    <path d="M54.8,30.5 C54.8,34.7 57.3,37.7 61.9,37.7 C65.4,37.7 67.2,36.7 69.2,34.7 L74.1,39.5 C70.8,42.8 67.7,44.6 61.8,44.6 C54.2,44.6 46.9,41.1 46.9,28 C46.9,17.5 52.6,11.5 61,11.5 C70,11.5 75,18 75,26.9 L75,30.5 L54.8,30.5 Z M66.4,21.5 C65.5,19.6 63.7,18.2 61,18.2 C58.3,18.2 56.5,19.6 55.6,21.5 C55.1,22.7 54.9,23.5 54.9,25 L67.2,25 C67,23.6 66.9,22.7 66.4,21.5 Z" id="Shape"></path>
                    <path d="M88.3,44.1 C81.7,44.1 78.9,39.5 78.9,34.9 L78.9,0 L87,0 L87,34.4 C87,36.3 87.8,37.3 89.9,37.3 L93,37.3 L93,44.1 L88.3,44.1 L88.3,44.1 Z" id="Shape"></path>
                    <path d="M109.1,44.5 C102.7,44.5 94.7,41 94.7,27.9 C94.7,14.8 102.7,11.4 109.1,11.4 C113.6,11.4 116.9,12.8 119.8,15.7 L114.3,21.2 C112.6,19.4 111.2,18.7 109.1,18.7 C107.2,18.7 105.7,19.4 104.5,20.8 C103.3,22.3 102.7,24.5 102.7,27.9 C102.7,31.3 103.3,33.5 104.5,35.1 C105.7,36.5 107.2,37.2 109.1,37.2 C111.2,37.2 112.6,36.5 114.3,34.7 L119.8,40.1 C116.9,43.1 113.6,44.5 109.1,44.5 Z" id="Shape"></path>
                    <path d="M141.8,44.1 L141.8,41.1 C139.7,43.3 136.7,44.4 133.7,44.4 C130.5,44.4 127.9,43.3 126.1,41.5 C123.5,38.9 122.8,35.9 122.8,32.3 L122.8,11.9 L130.9,11.9 L130.9,31.4 C130.9,35.8 133.7,37.3 136.2,37.3 C138.7,37.3 141.6,35.8 141.6,31.4 L141.6,11.9 L149.7,11.9 L149.7,44.2 L141.8,44.2 L141.8,44.1 Z" id="Shape"></path>
                </g>
            </g>
        </g>
    </g>
</svg>