<svg width="233" height="121" xmlns="http://www.w3.org/2000/svg"><title>Airbnb</title><g fill="none" fill-rule="evenodd"><path fill="#FFF" d="M0 0h233v121H0z"/><path d="M120.148 47.542a2.722 2.722 0 0 1-2.726 2.73 2.722 2.722 0 0 1-2.725-2.73c0-1.512 1.174-2.73 2.725-2.73 1.552.042 2.726 1.26 2.726 2.73zm-11.237 5.502v.672s-1.3-1.68-4.066-1.68c-4.57 0-8.134 3.486-8.134 8.316 0 4.788 3.522 8.316 8.134 8.316 2.809 0 4.066-1.722 4.066-1.722v.714c0 .336.252.588.587.588h3.396V52.456h-3.396a.6.6 0 0 0-.587.588zm0 10.122c-.628.924-1.886 1.722-3.395 1.722-2.684 0-4.738-1.68-4.738-4.536s2.054-4.536 4.738-4.536c1.467 0 2.809.84 3.395 1.722v5.628zm6.499-10.71h4.025v15.792h-4.025V52.456zm60.121-.42c-2.767 0-4.067 1.68-4.067 1.68v-8.862h-4.025v23.394h3.396a.6.6 0 0 0 .587-.588v-.714s1.3 1.722 4.067 1.722c4.57 0 8.134-3.528 8.134-8.316s-3.564-8.316-8.092-8.316zm-.67 12.81c-1.552 0-2.768-.798-3.397-1.722v-5.628c.63-.84 1.97-1.722 3.396-1.722 2.683 0 4.738 1.68 4.738 4.536s-2.055 4.536-4.738 4.536zm-9.518-5.964v9.408h-4.025v-8.946c0-2.604-.838-3.654-3.102-3.654-1.216 0-2.474.63-3.27 1.554v11.004h-4.025V52.456h3.186a.6.6 0 0 1 .587.588v.672c1.174-1.218 2.725-1.68 4.276-1.68 1.761 0 3.229.504 4.403 1.512 1.425 1.176 1.97 2.688 1.97 5.334zm-24.19-6.846c-2.768 0-4.068 1.68-4.068 1.68v-8.862h-4.024v23.394h3.396a.6.6 0 0 0 .586-.588v-.714s1.3 1.722 4.067 1.722c4.57 0 8.134-3.528 8.134-8.316.042-4.788-3.522-8.316-8.092-8.316zm-.672 12.81c-1.55 0-2.767-.798-3.396-1.722v-5.628c.63-.84 1.97-1.722 3.396-1.722 2.684 0 4.738 1.68 4.738 4.536s-2.054 4.536-4.738 4.536zm-10.9-12.81c1.216 0 1.844.21 1.844.21v3.738s-3.354-1.134-5.45 1.26V68.29h-4.025V52.456h3.396a.6.6 0 0 1 .587.588v.672c.755-.882 2.39-1.68 3.648-1.68zM87.78 66.82c-.21-.504-.42-1.05-.629-1.512-.335-.756-.67-1.47-.964-2.142l-.042-.042A438.707 438.707 0 0 0 76.88 44.14l-.125-.252c-.336-.63-.671-1.302-1.007-1.974-.419-.756-.838-1.554-1.509-2.31C72.898 37.924 70.97 37 68.915 37c-2.097 0-3.983.924-5.367 2.52-.629.756-1.09 1.554-1.51 2.31-.335.672-.67 1.344-1.005 1.974l-.126.252c-3.228 6.3-6.373 12.684-9.266 18.984l-.042.084c-.293.672-.629 1.386-.964 2.142-.21.462-.42.966-.629 1.512-.545 1.554-.713 3.024-.503 4.536a8.923 8.923 0 0 0 5.45 6.972 8.597 8.597 0 0 0 3.396.672c.336 0 .755-.042 1.09-.084 1.384-.168 2.81-.63 4.193-1.428 1.719-.966 3.354-2.352 5.199-4.368 1.844 2.016 3.521 3.402 5.199 4.368 1.383.798 2.809 1.26 4.192 1.428.335.042.755.084 1.09.084 1.174 0 2.348-.21 3.396-.672 2.935-1.176 4.99-3.864 5.45-6.972.336-1.47.168-2.94-.377-4.494zm-18.908 2.184c-2.264-2.856-3.732-5.544-4.235-7.812-.21-.966-.251-1.806-.126-2.562a4.08 4.08 0 0 1 .671-1.764c.797-1.134 2.138-1.848 3.69-1.848 1.55 0 2.934.672 3.69 1.848a4.08 4.08 0 0 1 .67 1.764c.126.756.084 1.638-.126 2.562-.503 2.226-1.97 4.914-4.234 7.812zM85.6 70.978a6.24 6.24 0 0 1-3.815 4.914c-1.006.42-2.097.546-3.187.42-1.048-.126-2.096-.462-3.186-1.092-1.51-.84-3.019-2.142-4.78-4.074 2.768-3.402 4.445-6.51 5.074-9.282.293-1.302.335-2.478.21-3.57a6.822 6.822 0 0 0-1.133-2.856c-1.3-1.89-3.48-2.982-5.911-2.982-2.432 0-4.612 1.134-5.912 2.982a6.822 6.822 0 0 0-1.132 2.856 8.735 8.735 0 0 0 .21 3.57c.629 2.772 2.348 5.922 5.073 9.324-1.72 1.932-3.27 3.234-4.78 4.074-1.09.63-2.138.966-3.186 1.092a6.695 6.695 0 0 1-3.186-.42 6.24 6.24 0 0 1-3.816-4.914 6.964 6.964 0 0 1 .378-3.276c.126-.42.335-.84.545-1.344.293-.672.629-1.386.964-2.1l.042-.084a459.475 459.475 0 0 1 9.224-18.858l.125-.252c.336-.63.671-1.302 1.007-1.932.335-.672.712-1.302 1.173-1.848.88-1.008 2.055-1.554 3.355-1.554 1.3 0 2.473.546 3.354 1.554.46.546.838 1.176 1.173 1.848.336.63.671 1.302 1.007 1.932l.125.252a557.553 557.553 0 0 1 9.182 18.9v.042c.336.672.629 1.428.964 2.1.21.504.42.924.545 1.344.336 1.092.462 2.142.294 3.234z" fill-rule="nonzero" fill="#FF5A5F"/></g></svg>