<svg width="233" height="121" xmlns="http://www.w3.org/2000/svg"><title>Atlassian</title><defs><linearGradient x1="99.685%" y1="15.814%" x2="39.844%" y2="97.439%" id="a"><stop stop-color="#0052CC" offset="0%"/><stop stop-color="#2684FF" offset="92.3%"/></linearGradient></defs><g fill="none" fill-rule="evenodd"><path fill="#FFF" d="M0 0h233v121H0z"/><g fill-rule="nonzero"><path d="M6.48 9.9a.591.591 0 0 0-1.005.11L.382 20.185a.608.608 0 0 0 .544.88h7.092a.587.587 0 0 0 .544-.336c1.53-3.159.603-7.963-2.082-10.83z" fill="url(#a)" transform="translate(30 48)"/><path d="M40.215 48.644a13.417 13.417 0 0 0-.784 13.252l3.419 6.834a.609.609 0 0 0 .544.336h7.09a.609.609 0 0 0 .544-.88S41.49 49.117 41.25 48.64a.575.575 0 0 0-1.035.004z" fill="#2684FF"/><path d="M123.377 56.804c0 2.52 1.17 4.52 5.745 5.404 2.73.573 3.301 1.013 3.301 1.922 0 .884-.573 1.455-2.495 1.455a14.088 14.088 0 0 1-6.629-1.792v4.104c1.378.676 3.197 1.43 6.577 1.43 4.783 0 6.68-2.133 6.68-5.3m0 0c0-2.989-1.585-4.392-6.056-5.353-2.47-.545-3.068-1.09-3.068-1.87 0-.987.884-1.403 2.522-1.403 1.975 0 3.925.597 5.77 1.429v-3.923a13.049 13.049 0 0 0-5.64-1.17c-4.42 0-6.707 1.923-6.707 5.067m61.448-4.807v17.07h3.639V56.05l1.534 3.455 5.146 9.562h4.576v-17.07h-3.64v11.016l-1.377-3.196-4.134-7.82zm-27.123 0h3.977v17.069h-3.977zm-4.59 12.029c0-2.988-1.585-4.39-6.056-5.352-2.47-.545-3.067-1.09-3.067-1.87 0-.987.883-1.403 2.52-1.403 1.977 0 3.926.597 5.772 1.429v-3.923a13.049 13.049 0 0 0-5.641-1.17c-4.42 0-6.707 1.923-6.707 5.067 0 2.52 1.17 4.52 5.745 5.404 2.73.573 3.301 1.013 3.301 1.922 0 .884-.573 1.455-2.495 1.455a14.088 14.088 0 0 1-6.629-1.792v4.104c1.378.676 3.198 1.43 6.577 1.43 4.783 0 6.68-2.133 6.68-5.3m-60.631-12.03v17.07h8.175l1.287-3.69h-5.459v-13.38zm-16.151 0v3.69h4.42v13.38h4.003v-13.38h4.73v-3.69zm-5.804 0H65.28l-5.955 17.07h4.548l.844-2.875c2.08.61 4.29.61 6.37 0l.844 2.875h4.549l-5.954-17.07zm-2.623 11.117c-.74 0-1.478-.106-2.189-.315l2.189-7.449 2.189 7.452a7.772 7.772 0 0 1-2.189.312zm46.846-11.117h-5.246l-5.955 17.07h4.549l.844-2.875c2.08.61 4.29.61 6.37 0l.844 2.875h4.549l-5.955-17.07zm-2.623 11.117c-.74 0-1.478-.106-2.189-.315l2.189-7.449 2.189 7.452a7.772 7.772 0 0 1-2.19.312zm63.884-11.117h-5.246l-5.955 17.07h4.549l.844-2.875c2.08.61 4.29.61 6.37 0l.844 2.875h4.55l-5.956-17.07zm-2.624 11.117a7.761 7.761 0 0 1-2.189-.315l2.189-7.449 2.188 7.452a7.772 7.772 0 0 1-2.188.312z" fill="#0052CC"/></g></g></svg>