<svg width="233" height="121" xmlns="http://www.w3.org/2000/svg" xmlns:xlink="http://www.w3.org/1999/xlink"><title>Atlassian</title><defs><path id="a" d="M.128 20.863h15.859V.005H.127v20.858z"/><path id="c" d="M14.393 20.863H.07V.005h14.322v20.858z"/><path id="e" d="M14.369 20.863H.047V.005H14.37v20.858z"/><path id="g" d="M.002 20.863h15.86V.005H.001z"/><path id="i" d="M17.224.005v20.458H.203V.005h17.02z"/><path id="k" d="M40.284.028h134.55v37.086H0V.028h40.284H0v8.24h40.284V.027z"/></defs><g fill="none" fill-rule="evenodd"><path fill="#FFF" d="M0 0h233v121H0z"/><path d="M79.02 47.176a.693.693 0 0 0-.66-.483h-6.47a.693.693 0 0 0-.662.483l-8.164 25.83a.691.691 0 0 0 .662.9h4.454a.693.693 0 0 0 .665-.497l5.622-18.996s.147-.474.656-.474c.518 0 .644.493.644.494l2.608 9.007h-3.504a.693.693 0 0 0-.667.505l-1.006 3.566a.69.69 0 0 0 .668.879h5.967l1.571 5.03c.09.289.359.486.663.486h4.456a.695.695 0 0 0 .661-.9l-8.163-25.83zm19.409 22.749a.693.693 0 0 0-.853-.568c-.723.18-1.416.278-1.95.278-1.015 0-1.466-.438-1.466-1.422v-9.896h3.978c.382 0 .693-.31.693-.692V54.54a.692.692 0 0 0-.693-.692H94.16v-4.765a.69.69 0 0 0-.79-.685l-4.095.569a.693.693 0 0 0-.598.685v4.196h-2.231a.692.692 0 0 0-.693.692v3.086c0 .382.31.692.693.692h2.23v10.536c0 3.618 1.907 5.452 5.667 5.452 1.07 0 2.887-.246 4.075-.658a.69.69 0 0 0 .458-.756l-.447-2.966zm7.582-23.736h-4.095a.693.693 0 0 0-.694.692v26.333c0 .382.31.692.694.692h4.095c.383 0 .694-.31.694-.692V46.88a.693.693 0 0 0-.694-.692" fill="#1F5081"/><g transform="translate(108.786 53.442)"><mask id="b" fill="#fff"><use xlink:href="#a"/></mask><path d="M10.504 13.109v2.406c-.678.361-1.909.878-3.388.878-1.277 0-1.666-.388-1.666-1.662 0-1.237.24-1.622 1.746-1.622h3.308zM7.757.005C5.683.005 3.16.33 1.328.836a.691.691 0 0 0-.5.777l.48 2.966a.69.69 0 0 0 .817.569c1.703-.33 3.461-.513 4.95-.513 2.957 0 3.43.622 3.43 2.621v1.742h-4.39c-4.197 0-5.987 1.727-5.987 5.773 0 3.871 1.963 6.092 5.385 6.092 1.98 0 3.962-.548 5.628-1.55l.176.64c.082.302.356.51.669.51h3.307c.383 0 .694-.31.694-.691V7.336c0-5.344-2.23-7.331-8.23-7.331z" fill="#1F5081" mask="url(#b)"/></g><g transform="translate(126.836 53.442)"><mask id="d" fill="#fff"><use xlink:href="#c"/></mask><path d="M8.2 8.048c-2.542-.653-2.542-.68-2.542-2.07 0-.935.093-1.383 2.187-1.383 1.434 0 3.551.25 4.91.482a.693.693 0 0 0 .805-.597l.386-3.114a.692.692 0 0 0-.53-.76c-1.573-.364-3.76-.6-5.571-.6-6.3 0-7.59 2.372-7.59 5.932 0 3.915.73 5.23 5.556 6.404 3.178.763 3.178 1.33 3.178 2.27 0 1.235-.106 1.662-2.187 1.662-1.674 0-3.613-.26-5.319-.714a.695.695 0 0 0-.86.544l-.542 2.955a.69.69 0 0 0 .468.783c1.86.602 4.53 1.022 6.494 1.022 6.099 0 7.349-2.547 7.349-6.372 0-4.223-.752-5.006-6.193-6.443" fill="#1F5081" mask="url(#d)"/></g><g transform="translate(142.686 53.442)"><mask id="f" fill="#fff"><use xlink:href="#e"/></mask><path d="M8.176 8.048c-2.541-.653-2.541-.68-2.541-2.07 0-.935.093-1.383 2.186-1.383 1.435 0 3.551.25 4.91.482a.693.693 0 0 0 .806-.597l.386-3.114a.692.692 0 0 0-.531-.76c-1.572-.364-3.759-.6-5.57-.6C1.522.005.231 2.377.231 5.937c0 3.915.73 5.23 5.557 6.404 3.178.763 3.178 1.33 3.178 2.27 0 1.235-.106 1.662-2.187 1.662-1.675 0-3.614-.26-5.32-.714a.695.695 0 0 0-.86.544l-.541 2.955a.69.69 0 0 0 .468.783c1.86.602 4.53 1.022 6.493 1.022 6.099 0 7.349-2.547 7.349-6.372 0-4.223-.752-5.006-6.193-6.443" fill="#1F5081" mask="url(#f)"/></g><path d="M164.116 46.188h-4.095a.693.693 0 0 0-.694.691v3.613c0 .382.31.692.694.692h4.095c.383 0 .693-.31.693-.692v-3.613a.693.693 0 0 0-.693-.691m0 7.659h-4.095a.692.692 0 0 0-.694.691v18.676c0 .382.31.692.694.692h4.095c.383 0 .693-.31.693-.692V54.538a.692.692 0 0 0-.693-.69" fill="#1F5081"/><g transform="translate(167.12 53.442)"><mask id="h" fill="#fff"><use xlink:href="#g"/></mask><path d="M10.379 13.109v2.406c-.68.361-1.91.878-3.389.878-1.276 0-1.666-.388-1.666-1.662 0-1.237.241-1.622 1.746-1.622h3.309zM7.63.005c-2.074 0-4.597.326-6.428.831a.691.691 0 0 0-.5.777l.48 2.966A.69.69 0 0 0 2 5.148c1.702-.33 3.46-.513 4.95-.513 2.956 0 3.429.622 3.429 2.621v1.742h-4.39c-4.196 0-5.987 1.727-5.987 5.773 0 3.871 1.963 6.092 5.386 6.092 1.98 0 3.962-.548 5.628-1.55l.175.64c.082.302.357.51.67.51h3.307c.383 0 .693-.31.693-.691V7.336c0-5.344-2.23-7.331-8.23-7.331z" fill="#1F5081" mask="url(#h)"/></g><g transform="translate(185.61 53.442)"><mask id="j" fill="#fff"><use xlink:href="#i"/></mask><path d="M12.52.005c-2.172 0-5.128.747-7.627 1.916L4.595.902a.693.693 0 0 0-.666-.497H.896a.692.692 0 0 0-.693.691v18.676c0 .382.31.691.693.691h4.096c.382 0 .693-.31.693-.691V6.838c1.475-.75 3.55-1.523 4.791-1.523.922 0 1.265.342 1.265 1.262v13.195c0 .382.31.691.694.691h4.095c.383 0 .694-.31.694-.691V6.057c0-4.016-1.583-6.052-4.705-6.052" fill="#1F5081" mask="url(#j)"/></g><g transform="translate(28 37.191)"><mask id="l" fill="#fff"><use xlink:href="#k"/></mask><path d="M40.1.41a.957.957 0 0 0-.762-.382.922.922 0 0 0-.44.112c-5.595 3.055-12.08 4.671-18.756 4.673C13.466 4.81 6.98 3.195 1.386.14a.918.918 0 0 0-.44-.112.957.957 0 0 0-.763.382.93.93 0 0 0 .178 1.29A33.034 33.034 0 0 0 20.14 8.267h.003A33.029 33.029 0 0 0 39.926 1.7.93.93 0 0 0 40.1.41" fill="#59AFE1" mask="url(#l)"/></g><path d="M61.67 46.305a.754.754 0 0 0-.723-.104 36.97 36.97 0 0 1-4.772 1.438.938.938 0 0 0-.657.571c-1.095 2.993-3.891 5.842-6.825 8.827-.118.112-.282.259-.551.259-.268 0-.431-.142-.551-.259-2.934-2.985-5.73-5.824-6.825-8.817a.939.939 0 0 0-.657-.571 37.1 37.1 0 0 1-4.774-1.452.74.74 0 0 0-.72.103.747.747 0 0 0-.292.66c.248 2.489 1.234 4.922 3.013 7.471 1.672 2.397 3.853 4.616 5.961 6.761 3.885 3.953 7.556 7.687 7.878 12.017a.75.75 0 0 0 .748.694h4.565a.752.752 0 0 0 .75-.786c-.144-2.895-1.236-5.794-3.339-8.862-.44-.643-.912-1.27-1.406-1.882a.542.542 0 0 1 .037-.715l.457-.466c2.109-2.146 4.29-4.364 5.962-6.761 1.778-2.55 2.764-4.968 3.012-7.456a.767.767 0 0 0-.29-.67M43.244 64.56a.696.696 0 0 0-.533-.228c-.34 0-.543.235-.62.352-1.92 2.915-2.91 5.666-3.048 8.43a.756.756 0 0 0 .207.556.76.76 0 0 0 .546.233h4.557a.756.756 0 0 0 .75-.696c.1-1.333.516-2.668 1.273-4.072.262-.485.058-.941-.093-1.136-.75-.975-1.67-2.014-3.04-3.439" fill="#59AFE1"/><path d="M48.146 48.536c1.43 0 2.26-.085 2.552-.085a.696.696 0 0 1 .635.969c-.19.506-1.055 2.327-2.664 3.888a.735.735 0 0 1-.527.208h-.001a.734.734 0 0 1-.526-.208c-1.61-1.561-2.475-3.382-2.664-3.888a.696.696 0 0 1 .635-.97c.291 0 1.121.086 2.55.086h.01z" fill="#59AFE1"/></g></svg>