<svg width="233" height="121" xmlns="http://www.w3.org/2000/svg"><title>Bci</title><g fill="none" fill-rule="evenodd"><path fill="#FFF" d="M0 0h233v121H0z"/><path d="M110.4 39.725v35.648" stroke="#888" stroke-width="1.92" stroke-linecap="round" stroke-linejoin="round"/><path fill="#000" d="M149.582 72.224h1.627V46.71h-1.627zm19.758 0V60.347c0-2.152-.492-3.746-1.46-4.765-.976-1.02-2.444-1.533-4.403-1.533-1.928 0-3.872.46-5.832 1.367l.606 1.412c1.777-.921 3.494-1.374 5.158-1.374 1.536 0 2.655.43 3.344 1.29.688.862 1.043 2.138 1.043 3.822v1.178l-3.41.098c-2.762.053-4.865.566-6.325 1.54-1.452.967-2.186 2.326-2.186 4.085 0 1.601.492 2.847 1.468 3.753.976.906 2.345 1.36 4.107 1.36 1.294 0 2.413-.242 3.366-.726.953-.483 1.876-1.298 2.784-2.454h.128l.409 2.824h1.203zm-10.704-1.985c-.696-.62-1.036-1.503-1.036-2.636 0-1.42.537-2.461 1.611-3.133 1.067-.672 2.867-1.073 5.386-1.201l3.131-.128v1.782c0 1.963-.552 3.496-1.656 4.598-1.112 1.103-2.617 1.654-4.523 1.654-1.264 0-2.232-.31-2.913-.936zm20.56-15.435c-.961.506-1.778 1.3-2.451 2.364h-.114l.053-1.39c.038-.808.06-1.691.06-2.658v-6.41h-1.625v25.514h1.02l.462-2.665h.144a5.996 5.996 0 0 0 2.405 2.228c1.021.52 2.156.792 3.427.792 2.398 0 4.266-.808 5.59-2.416 1.33-1.608 1.997-3.896 1.997-6.864 0-3.02-.636-5.316-1.892-6.886-1.263-1.571-3.139-2.364-5.627-2.364-1.347 0-2.496.257-3.45.755m9.244 8.442c0 2.545-.492 4.5-1.475 5.875-.983 1.374-2.443 2.054-4.387 2.054-2.005 0-3.472-.59-4.418-1.767-.938-1.178-1.414-3.126-1.414-5.845v-.279c0-2.794.454-4.795 1.361-6.01.9-1.209 2.406-1.82 4.501-1.82 3.888 0 5.832 2.597 5.832 7.792m17.269 2.266c-.37-.59-.923-1.11-1.664-1.579-.742-.468-1.922-.989-3.54-1.57-1.937-.687-3.245-1.314-3.911-1.873-.666-.559-1.006-1.299-1.006-2.235 0-.876.431-1.563 1.293-2.061.863-.491 2.02-.74 3.487-.74 1.513 0 3.155.355 4.925 1.08l.612-1.458a15.094 15.094 0 0 0-5.521-1.027c-2.035 0-3.616.393-4.743 1.17-1.127.778-1.694 1.835-1.694 3.172 0 .838.181 1.556.552 2.137.37.589.915 1.118 1.649 1.578.726.468 1.99 1.02 3.79 1.669 1.679.596 2.881 1.193 3.615 1.805.734.611 1.104 1.374 1.104 2.265 0 1.012-.461 1.82-1.384 2.424-.923.611-2.27.906-4.047.906-2.012 0-3.91-.446-5.718-1.337v1.722c1.407.68 3.313 1.02 5.71 1.02 2.247 0 3.987-.431 5.212-1.292 1.218-.86 1.83-2.084 1.83-3.685 0-.8-.18-1.495-.551-2.091"/><path fill="#333" d="M122.994 69.808h19.107l-5.348-8.155-7.647-2.801z"/><path stroke="#333" stroke-width=".96" stroke-linecap="round" stroke-linejoin="round" d="M122.994 69.808h19.107l-5.348-8.155-7.647-2.801z"/><path d="M130.891 55.288c0-.982.802-1.782 1.785-1.782a1.782 1.782 0 0 1 0 3.564 1.782 1.782 0 0 1-1.785-1.782" fill="#333"/><path d="M130.891 55.288c0-.982.802-1.782 1.785-1.782a1.782 1.782 0 0 1 0 3.564 1.782 1.782 0 0 1-1.785-1.782z" stroke="#333" stroke-width=".96" stroke-linecap="round" stroke-linejoin="round"/><path d="M133.304 49.503c0-.4.325-.717.726-.717a.718.718 0 1 1 0 1.435.724.724 0 0 1-.726-.718" fill="#333"/><path d="M133.304 49.503c0-.4.325-.717.726-.717a.718.718 0 1 1 0 1.435.724.724 0 0 1-.726-.718z" stroke="#333" stroke-width=".96" stroke-linecap="round" stroke-linejoin="round"/><path d="M131.406 44.112a.889.889 0 0 1 1.777 0c0 .49-.4.891-.892.891a.887.887 0 0 1-.885-.891" fill="#333"/><path d="M131.406 44.112a.889.889 0 0 1 1.777 0c0 .49-.4.891-.892.891a.887.887 0 0 1-.885-.891z" stroke="#333" stroke-width=".96" stroke-linecap="round" stroke-linejoin="round"/><path d="M133.372 65.376a1.238 1.238 0 0 1 2.473-.001c0 .68-.559 1.232-1.24 1.232-.68 0-1.233-.552-1.233-1.231m-6.588 1.85c0-.34.28-.62.62-.62a.616.616 0 1 1-.62.62" fill="#FFF"/><path d="M136.466 51.844c.265.015.983-.06 1.248-.166.537-.211.87-.498 1.203-1.057.499-.846.25-1.933 0-2.492-.295-.65-1.173-1.2-1.68-1.208-5.241-.03-9.205-.068-9.576 0-.53.098-1.346.732-1.558 1.216-.34.785-.28 1.653.098 2.416.227.46.681.785 1.143.997.385.173.832.294 1.255.294v3.232c0 .604-7.632 12.49-8.517 14.37-.749 1.57 1.225 2.778 2.693 2.778 6.452 0 13.086.016 19.447-.045 1.316-.007 3.502-1.17 2.791-2.726-1.444-3.141-7.866-12.059-8.517-14.377-.068-.257-.03-3.134-.03-3.232z" stroke="#000" stroke-width=".96" stroke-linecap="round" stroke-linejoin="round"/><path d="M62.52 57.659c-.447 0-.674.18-.674.558v9.13c0 2.227 1.445 3.345 4.327 3.345 2.292 0 4.039-.672 5.242-2.024 1.059-1.186 1.588-2.771 1.588-4.757 0-1.94-.62-3.466-1.853-4.584-1.233-1.117-3.003-1.668-5.318-1.668H62.52zm8.819-1.126c4.675.808 7.004 3.353 7.004 7.627 0 2.454-.922 4.417-2.776 5.905-1.845 1.487-4.25 2.227-7.208 2.227-1.074 0-9.251.038-11.4.038V43.697c1.438 0 4.895.143 6.748.12 9.977-.12 12.874 2.281 12.874 6.85 0 2.854-1.747 4.81-5.242 5.866zm-9.493-1.668c0 .634.083 1.02.25 1.163.166.135.628.203 1.391.203h.712c4.833 0 7.253-1.767 7.253-5.3 0-3.76-2.17-5.649-6.527-5.649-1.165 0-1.944.121-2.345.355-.492.287-.734.884-.734 1.797v7.43zm27.836-.937c1.248 0 2.443.159 3.578.499 1.513.453 2.269 1.095 2.269 1.925 0 2.145-.454 3.217-1.362 3.217-.438 0-.892-.385-1.353-1.163l-.243-.468c-1.104-1.994-2.239-2.99-3.41-2.99-1.77 0-3.163 1.004-4.169 3.013-.756 1.532-1.134 3.118-1.134 4.75 0 2.038.506 3.767 1.505 5.194 1.256 1.782 3.078 2.673 5.476 2.673.696 0 1.642-.279 2.837-.83.386-.181.696-.325.938-.446 0 0 .083-.045.204-.105.265-.121.719-.295.908-.159.113.083.174.219.174.393 0 .89-.93 1.691-2.791 2.408-1.597.627-3.026.944-4.297.944-3.056 0-5.446-.981-7.156-2.952-1.497-1.714-2.246-3.821-2.246-6.335 0-2.65.847-4.856 2.541-6.615 1.876-1.971 4.456-2.953 7.731-2.953m7.64 18.395V54.804s1.202.068 2.072.144c1.195.098 1.922.113 1.922.113l.03 17.262h-4.024zm.008-21.785c0-1.276.87-2.318 1.943-2.318 1.074 0 1.944 1.042 1.944 2.318 0 1.284-.87 2.326-1.944 2.326-1.074 0-1.944-1.042-1.944-2.326" fill="#171616"/><path d="M43.503 57.319c1.27-.952 2.292-2.228 3.048-3.647.432-.8.787-1.624 1.128-2.47.468-1.162.854-2.68 2.02-3.284.824-.43 1.905-.197 2.533.513.62.687.757 1.692.59 2.583-.34 1.91-1.384 3.624-2.7 4.953-.78.778-1.65 1.36-2.557 1.926-.537.34-1.074.672-1.611 1.004-.151-.574-.983-.884-1.445-1.11-.325-.159-.665-.31-1.006-.468M30.19 68.396c.938-2.915 3.586-4.546 5.893-6.124 1.702-1.17 3.441-2.273 5.158-3.413l.084-.053c.786.468 1.596.869 2.405 1.208.09.023.19.046.295.068l-.09.06c-1.604.982-3.185 1.919-4.683 3.067a32.974 32.974 0 0 0-4.175 3.85c-.96 1.043-1.558 2.289-2.194 3.565-.234.468-.454 1.132-.87 1.457-.287.227-.771.28-1.081.083-1.12-.702-1.037-2.658-.742-3.768" fill="#EE0027"/><path d="M50.084 69.212c-.757-.612-.492-1.722-.545-2.59-.06-1.035-.242-2.183-.68-3.126-.47-1.02-1.536-1.246-2.376-1.79-.794-.514-.733-1.556.084-2.009 1.671-.944 3.623.197 4.515 1.737.568.974.916 2.092 1.256 3.164.34 1.095.794 2.514.25 3.61-.424.868-1.65 1.683-2.504 1.004" fill="#008A2A"/><path d="M43.73 60.014c-3.843-1.608-7.851-4.704-8.275-9.4-.106-1.194.076-2.402.378-3.557.25-.974.537-2.016.999-2.9.801-1.54 2.723-1.887 4.084-.906 1.589 1.148.59 3.217.204 4.75a33.832 33.832 0 0 0-.643 3.133c-.166 1.035-.189 2.107.137 3.12a4.872 4.872 0 0 0 1.399 2.151c.719.642 1.657.967 2.496 1.382.59.287 1.77.71 1.392 1.631-.348.868-1.46.8-2.17.596" fill="#0061C6"/><path d="M34.97 71.409c.107.385.44.823 1.476.891 1.793.106 3.66-.159 5.491-.559 3.056-.664 4.327-1.533 4.327-1.533s1.868-1.034 1.77-3.858c-.098-2.832-1.914-4.13-1.914-4.13s-.726-.514-1.929-.076c-.824.302-3.139 1.669-4.629 2.635-.817.521-1.618 1.216-2.284 1.926-.666.71-1.452 1.638-1.982 2.93-.09.196-.151.385-.197.55-.105.356-.219.854-.128 1.224" fill="#FFCB00"/><path d="M62.52 57.659c-.447 0-.674.18-.674.558v9.13c0 2.227 1.445 3.345 4.327 3.345 2.292 0 4.039-.672 5.242-2.024 1.059-1.186 1.588-2.771 1.588-4.757 0-1.94-.62-3.466-1.853-4.584-1.233-1.117-3.003-1.668-5.318-1.668H62.52zm8.819-1.126c4.675.808 7.004 3.353 7.004 7.627 0 2.454-.922 4.417-2.776 5.905-1.845 1.487-4.25 2.227-7.208 2.227-1.074 0-9.251.038-11.4.038V43.697c1.438 0 4.895.143 6.748.12 9.977-.12 12.874 2.281 12.874 6.85 0 2.854-1.747 4.81-5.242 5.866zm-9.493-1.668c0 .634.083 1.02.25 1.163.166.135.628.203 1.391.203h.712c4.833 0 7.253-1.767 7.253-5.3 0-3.76-2.17-5.649-6.527-5.649-1.165 0-1.944.121-2.345.355-.492.287-.734.884-.734 1.797v7.43zm27.836-.937c1.248 0 2.443.159 3.578.499 1.513.453 2.269 1.095 2.269 1.925 0 2.145-.454 3.217-1.362 3.217-.438 0-.892-.385-1.353-1.163l-.243-.468c-1.104-1.994-2.239-2.99-3.41-2.99-1.77 0-3.163 1.004-4.169 3.013-.756 1.532-1.134 3.118-1.134 4.75 0 2.038.506 3.767 1.505 5.194 1.256 1.782 3.078 2.673 5.476 2.673.696 0 1.642-.279 2.837-.83.386-.181.696-.325.938-.446 0 0 .083-.045.204-.105.265-.121.719-.295.908-.159.113.083.174.219.174.393 0 .89-.93 1.691-2.791 2.408-1.597.627-3.026.944-4.297.944-3.056 0-5.446-.981-7.156-2.952-1.497-1.714-2.246-3.821-2.246-6.335 0-2.65.847-4.856 2.541-6.615 1.876-1.971 4.456-2.953 7.731-2.953m7.64 18.395V54.804s1.202.068 2.072.144c1.195.098 1.922.113 1.922.113l.03 17.262h-4.024zm.008-21.785c0-1.276.87-2.318 1.943-2.318 1.074 0 1.944 1.042 1.944 2.318 0 1.284-.87 2.326-1.944 2.326-1.074 0-1.944-1.042-1.944-2.326" fill="#171616"/><path d="M43.503 57.319c1.27-.952 2.292-2.228 3.048-3.647.432-.8.787-1.624 1.128-2.47.468-1.162.854-2.68 2.02-3.284.824-.43 1.905-.197 2.533.513.62.687.757 1.692.59 2.583-.34 1.91-1.384 3.624-2.7 4.953-.78.778-1.65 1.36-2.557 1.926-.537.34-1.074.672-1.611 1.004-.151-.574-.983-.884-1.445-1.11-.325-.159-.665-.31-1.006-.468M30.19 68.396c.938-2.915 3.586-4.546 5.893-6.124 1.702-1.17 3.441-2.273 5.158-3.413l.084-.053c.786.468 1.596.869 2.405 1.208.09.023.19.046.295.068l-.09.06c-1.604.982-3.185 1.919-4.683 3.067a32.974 32.974 0 0 0-4.175 3.85c-.96 1.043-1.558 2.289-2.194 3.565-.234.468-.454 1.132-.87 1.457-.287.227-.771.28-1.081.083-1.12-.702-1.037-2.658-.742-3.768" fill="#EE0027"/><path d="M50.084 69.212c-.757-.612-.492-1.722-.545-2.59-.06-1.035-.242-2.183-.68-3.126-.47-1.02-1.536-1.246-2.376-1.79-.794-.514-.733-1.556.084-2.009 1.671-.944 3.623.197 4.515 1.737.568.974.916 2.092 1.256 3.164.34 1.095.794 2.514.25 3.61-.424.868-1.65 1.683-2.504 1.004" fill="#008A2A"/><path d="M43.73 60.014c-3.843-1.608-7.851-4.704-8.275-9.4-.106-1.194.076-2.402.378-3.557.25-.974.537-2.016.999-2.9.801-1.54 2.723-1.887 4.084-.906 1.589 1.148.59 3.217.204 4.75a33.832 33.832 0 0 0-.643 3.133c-.166 1.035-.189 2.107.137 3.12a4.872 4.872 0 0 0 1.399 2.151c.719.642 1.657.967 2.496 1.382.59.287 1.77.71 1.392 1.631-.348.868-1.46.8-2.17.596" fill="#0061C6"/><path d="M34.97 71.409c.107.385.44.823 1.476.891 1.793.106 3.66-.159 5.491-.559 3.056-.664 4.327-1.533 4.327-1.533s1.868-1.034 1.77-3.858c-.098-2.832-1.914-4.13-1.914-4.13s-.726-.514-1.929-.076c-.824.302-3.139 1.669-4.629 2.635-.817.521-1.618 1.216-2.284 1.926-.666.71-1.452 1.638-1.982 2.93-.09.196-.151.385-.197.55-.105.356-.219.854-.128 1.224" fill="#FFCB00"/></g></svg>