<?xml version="1.0" encoding="UTF-8" standalone="no"?>
<svg width="188px" height="102px" viewBox="0 0 188 102" version="1.1" xmlns="http://www.w3.org/2000/svg" xmlns:xlink="http://www.w3.org/1999/xlink">
    <!-- Generator: Sketch 41.2 (35397) - http://www.bohemiancoding.com/sketch -->
    <title>Group 7</title>
    <desc>Created with Sketch.</desc>
    <defs></defs>
    <g id="Page-1" stroke="none" stroke-width="1" fill="none" fill-rule="evenodd">
        <g id="Artboard" transform="translate(-413.000000, -163.000000)">
            <g id="Group-7" transform="translate(413.000000, 163.000000)">
                <g id="Logo-BCI" transform="translate(32.000000, 18.000000)"></g>
                <g id="Group-2">
                    <rect id="Rectangle-2" fill="#FFFFFF" x="0" y="0" width="188" height="102"></rect>
                    <path d="M85.2546801,45.0419069 C85.2546801,46.0327426 85.3888016,46.6388887 85.6612034,46.8551466 C85.9325656,47.0651664 86.6946669,47.1753747 87.9527059,47.1753747 L89.1098939,47.1753747 C97.0490559,47.1753747 101.020716,44.4201653 101.020716,38.9118258 C101.020716,33.0364716 97.4493411,30.1003541 90.3097096,30.1003541 C88.3945791,30.1003541 87.1136667,30.2833415 86.4534561,30.6461974 C85.6518461,31.0963883 85.2546801,32.0341992 85.2546801,33.453392 L85.2546801,45.0419069 Z M100.83253,47.6473993 C108.498251,48.9137559 112.327472,52.8822973 112.327472,59.5499041 C112.327472,63.3718475 110.808468,66.4400072 107.774618,68.7575022 C104.733491,71.0781164 100.789903,72.2321852 95.9407339,72.2321852 C94.1773999,72.2321852 80.7652482,72.2997658 77.235461,72.2997658 L77.235461,27.6196258 C79.5893456,27.6196258 85.2629977,27.8462808 88.3072442,27.810931 C104.679427,27.6196258 109.437101,31.3719092 109.437101,38.4938657 C109.437101,42.9479477 106.569604,45.996353 100.83253,47.6473993 L100.83253,47.6473993 Z M86.3650815,49.3940981 C85.6216948,49.3940981 85.2546801,49.6914528 85.2546801,50.2788843 L85.2546801,64.5155194 C85.2546801,67.9964406 87.617922,69.7389806 92.3558425,69.7389806 C96.1174832,69.7389806 98.9860202,68.6847231 100.955215,66.5845257 C102.696715,64.7286582 103.562787,62.2604064 103.562787,59.1568969 C103.562787,56.1344841 102.548038,53.7473291 100.526858,52.0068684 C98.4973604,50.2653681 95.5924339,49.3940981 91.796483,49.3940981 L86.3650815,49.3940981 Z" id="Fill-1" fill="#000000"></path>
                    <path d="M130.926903,43.5746799 C132.982394,43.5746799 134.939112,43.8366847 136.799138,44.3658929 C139.286105,45.0697709 140.525429,46.0678845 140.525429,47.3560749 C140.525429,50.7091128 139.783082,52.3851119 138.299428,52.3851119 C137.569557,52.3851119 136.832409,51.7820849 136.073427,50.5687531 C135.99337,50.4263139 135.855089,50.1809444 135.668983,49.8368031 C133.859902,46.7280951 131.999876,45.1758205 130.080586,45.1758205 C127.164223,45.1758205 124.886237,46.7447303 123.241429,49.8773515 C122.001064,52.269705 121.382442,54.7400362 121.382442,57.2914641 C121.382442,60.4677528 122.200687,63.167858 123.847575,65.394899 C125.584916,67.7456645 127.997024,69.0993561 131.090137,69.4580532 C131.652615,69.521475 133.509522,69.7221374 137.395927,68.3549297 C138.274475,68.047178 139.030338,67.5980269 139.857941,67.2060594 C140.273822,67.0022778 141.118059,66.8598387 141.234506,67.5065331 C141.35927,68.1989745 140.759362,68.9402818 140.305013,69.3863138 C139.567864,70.1089064 137.019555,72.490863 130.38002,72.9712052 C130.084745,72.9982374 129.797787,73.0013565 129.50875,73.0013565 C124.488031,73.0013565 120.572514,71.4667568 117.76532,68.3944384 C115.307465,65.7213654 114.078538,62.4327889 114.078538,58.5162327 C114.078538,54.3802994 115.4655,50.9326487 118.25398,48.1867965 C121.328377,45.1134384 125.556844,43.5746799 130.926903,43.5746799" id="Fill-3" fill="#000000"></path>
                    <path d="M143.467265,72.2772043 L150.07145,72.2772043 L150.027783,45.3520499 C150.027783,45.3520499 148.833166,45.3229383 146.869169,45.1732212 C145.43542,45.0567746 143.468305,44.9517648 143.468305,44.9517648" id="Fill-6" fill="#000000"></path>
                    <path d="M143.476934,38.3066154 C143.476934,36.3031103 144.905485,34.680136 146.672977,34.680136 C148.44047,34.680136 149.867981,36.3031103 149.867981,38.3066154 C149.867981,40.2997236 148.44047,41.9247773 146.672977,41.9247773 C144.905485,41.9247773 143.476934,40.2997236 143.476934,38.3066154" id="Fill-8" fill="#000000"></path>
                    <path d="M33.315239,66.1536733 C34.8436005,61.6091373 39.1968314,59.0691461 42.9782264,56.6008943 C45.7708651,54.7782972 48.6206874,53.0492733 51.4413981,51.2713835 C52.4582263,50.6340463 53.4573796,49.9769549 54.4679697,49.3396178 C56.8676011,47.8268518 58.7754537,45.6320416 60.1613761,43.1845838 C60.8642144,41.9379815 61.4422885,40.6445926 62.0026877,39.32937 C62.7845434,37.51717 63.4114835,35.1424913 65.3151773,34.2067598 C66.6771865,33.5413507 68.4488382,33.9042066 69.4812619,35.0010919 C70.4887328,36.074064 70.7226657,37.6440136 70.4492242,39.0476108 C69.8794677,42.01284 68.1691584,44.6952704 66.0128171,46.7653164 C64.7443811,47.9786483 63.3127119,48.8800696 61.8165811,49.7721337 C59.8359494,50.9501157 57.8490795,52.1166609 55.8549317,53.276968 C53.2317644,54.810528 50.636669,56.2692294 48.1860921,58.065834 C45.7136815,59.8769943 43.4471319,61.8669833 41.324061,64.066992 C39.7509924,65.7003634 38.7632758,67.6456452 37.7225344,69.6377136 C37.3451227,70.3603063 36.9822668,71.4020874 36.3012622,71.9063427 C35.8229994,72.2484046 35.0359453,72.3450968 34.5223326,72.0352657 C32.6945371,70.9321422 32.8255395,67.886856 33.315239,66.1536733" id="Fill-10" fill="#DF2C20"></path>
                    <path d="M65.9571931,67.4289714 C64.7137099,66.4745253 65.1462258,64.7455014 65.0609702,63.3866113 C64.9590795,61.7698752 64.6617248,59.9857471 63.9495291,58.5166486 C63.1759911,56.9238256 61.4251335,56.5703271 60.0412905,55.7146526 C58.7375046,54.9120029 58.8414748,53.2983859 60.1733326,52.5851505 C62.9295818,51.1108535 66.1173071,52.8887434 67.5936835,55.301891 C68.5169386,56.8104981 69.0950127,58.557197 69.6439752,60.2290373 C70.2085332,61.9435053 70.9498405,64.1497523 70.0660941,65.8652601 C69.3684543,67.2241502 67.3524727,68.496745 65.9571931,67.4289714" id="Fill-12" fill="#22913B"></path>
                    <path d="M55.5272177,53.0792168 C49.2172682,50.5683372 42.6442742,45.7430817 41.944555,38.4142246 C41.7678057,36.5489997 42.0807559,34.6598618 42.5694157,32.8601382 C42.9811376,31.3432134 43.4510827,29.7254376 44.2059061,28.3426344 C45.5180097,25.9326059 48.674544,25.4002786 50.9036644,26.9213622 C53.5205935,28.7117285 51.8778648,31.9410419 51.2457262,34.338594 C50.8236073,35.941814 50.4513941,37.5876617 50.1841908,39.2241522 C49.9211463,40.8471265 49.8785185,42.5168874 50.4150046,44.089956 C50.8558381,45.3906228 51.6574481,46.5675651 52.7096262,47.4502719 C53.8980052,48.4442267 55.4232476,48.9578393 56.8091699,49.6055734 C57.7698543,50.0526452 59.712017,50.7149351 59.0944342,52.1528426 C58.5122013,53.5075738 56.7000012,53.3900876 55.5272177,53.0792168" id="Fill-14" fill="#1369B2"></path>
                    <path d="M41.1596842,70.8536448 C41.3197983,71.4587511 41.8781181,72.1376763 43.568673,72.2416465 C46.5141478,72.4173561 49.5802281,72.0035548 52.5870454,71.3776544 C57.5994472,70.3400321 59.6923666,68.9842611 59.6923666,68.9842611 C59.6923666,68.9842611 62.7553278,67.3737632 62.5910549,62.9612693 C62.4226232,58.5477357 59.4480367,56.518238 59.4480367,56.518238 C59.4480367,56.518238 58.2544592,55.7207868 56.2821451,56.4028311 C54.9388506,56.873816 51.1397806,59.0062441 48.6829656,60.5096528 C47.3531871,61.3206201 46.0369248,62.4102274 44.9389998,63.5143906 C43.8400351,64.6195935 42.5549638,66.0689376 41.6816144,68.0849192 C41.5412547,68.3989091 41.4362448,68.6848271 41.3603466,68.9468319 C41.1939944,69.504112 41.0037289,70.2745309 41.1596842,70.8536448" id="Fill-16" fill="#F8C500"></path>
                </g>
            </g>
        </g>
    </g>
</svg>