<svg width="233" height="121" xmlns="http://www.w3.org/2000/svg"><title>Group 5</title><g fill="none" fill-rule="evenodd"><path fill="#FFF" d="M0 0h233v121H0z"/><path d="M109.926 53.645c0 .97.13 1.564.396 1.776.265.205 1.008.313 2.234.313h1.127c7.738 0 11.608-2.698 11.608-8.091 0-5.753-3.48-8.628-10.438-8.628-1.867 0-3.115.18-3.759.534-.78.441-1.168 1.36-1.168 2.75v11.346zm15.182 2.551c7.47 1.24 11.203 5.126 11.203 11.655 0 3.742-1.48 6.747-4.437 9.016-2.964 2.272-6.808 3.402-11.533 3.402-1.719 0-14.79.066-18.23.066v-43.75c2.294 0 7.823.223 10.79.188 15.956-.187 20.593 3.487 20.593 10.46 0 4.362-2.795 7.347-8.386 8.963zm-14.1 1.71c-.724 0-1.082.292-1.082.867v13.94c0 3.409 2.303 5.115 6.92 5.115 3.667 0 6.462-1.033 8.382-3.089 1.697-1.817 2.54-4.234 2.54-7.273 0-2.96-.988-5.297-2.958-7-1.978-1.706-4.809-2.56-8.508-2.56h-5.294zm43.429-5.697c2.003 0 3.91.256 5.723.774 2.424.69 3.632 1.667 3.632 2.928 0 3.283-.724 4.924-2.17 4.924-.711 0-1.43-.59-2.17-1.778-.077-.14-.212-.38-.393-.717-1.763-3.044-3.576-4.564-5.447-4.564-2.842 0-5.062 1.537-6.665 4.604-1.209 2.342-1.812 4.761-1.812 7.26 0 3.11.798 5.754 2.403 7.934 1.693 2.302 4.044 3.627 7.058 3.979.548.062 2.358.258 6.146-1.08.856-.302 1.593-.742 2.4-1.125.405-.2 1.227-.34 1.34.294.122.678-.462 1.404-.905 1.84-.718.708-3.202 3.04-9.673 3.51a8.99 8.99 0 0 1-.849.03c-4.893 0-8.709-1.502-11.445-4.51-2.395-2.618-3.593-5.838-3.593-9.673 0-4.05 1.352-7.426 4.07-10.114 2.996-3.01 7.117-4.516 12.35-4.516m12.222 28.104h6.436l-.043-26.364s-1.164-.029-3.078-.175c-1.397-.114-3.314-.217-3.314-.217m.008-6.507c0-1.962 1.392-3.55 3.115-3.55 1.723 0 3.114 1.588 3.114 3.55 0 1.952-1.391 3.543-3.114 3.543-1.723 0-3.115-1.591-3.115-3.543" fill="#000"/><path d="M59.307 74.317c1.49-4.45 5.732-6.937 9.418-9.354 2.721-1.784 5.499-3.477 8.248-5.218.99-.624 1.964-1.268 2.95-1.892 2.338-1.48 4.197-3.63 5.548-6.026.685-1.221 1.248-2.488 1.794-3.775.762-1.775 1.373-4.1 3.229-5.016 1.327-.652 3.054-.296 4.06.778.982 1.05 1.21 2.587.943 3.962-.555 2.903-2.222 5.53-4.323 7.557-1.237 1.188-2.632 2.07-4.09 2.944a702.677 702.677 0 0 1-5.81 3.432c-2.557 1.501-5.086 2.93-7.474 4.689a51.82 51.82 0 0 0-6.688 5.876c-1.533 1.6-2.495 3.504-3.51 5.455-.367.707-.721 1.727-1.385 2.221-.466.335-1.233.43-1.733.126-1.782-1.08-1.654-4.062-1.177-5.759" fill="#DF2C20"/><path d="M91.12 75.566c-1.213-.935-.791-2.628-.874-3.958-.1-1.583-.39-3.33-1.083-4.769-.754-1.56-2.46-1.906-3.81-2.743-1.27-.786-1.169-2.366.13-3.065 2.686-1.443 5.792.298 7.231 2.66.9 1.478 1.463 3.188 1.998 4.825.55 1.679 1.273 3.839.412 5.519-.68 1.33-2.645 2.576-4.005 1.53" fill="#22913B"/><path d="M80.954 61.515c-6.149-2.459-12.555-7.183-13.237-14.36-.172-1.826.133-3.676.61-5.438.4-1.485.858-3.07 1.594-4.423 1.279-2.36 4.355-2.881 6.527-1.392 2.55 1.753.95 4.915.334 7.263a51.728 51.728 0 0 0-1.035 4.784c-.256 1.589-.298 3.224.225 4.764a7.434 7.434 0 0 0 2.237 3.29c1.158.974 2.644 1.477 3.995 2.11.936.439 2.829 1.087 2.227 2.495-.567 1.326-2.334 1.211-3.477.907" fill="#1369B2"/><path d="M66.952 78.92c.156.592.7 1.256 2.348 1.358 2.87.172 5.859-.233 8.79-.846 4.884-1.016 6.924-2.343 6.924-2.343s2.985-1.577 2.825-5.898c-.164-4.321-3.063-6.309-3.063-6.309s-1.164-.78-3.086-.113c-1.309.462-5.011 2.55-7.406 4.022-1.296.794-2.579 1.86-3.649 2.942-1.07 1.082-2.323 2.501-3.174 4.475-.137.308-.24.588-.313.844-.162.546-.348 1.3-.196 1.867" fill="#F8C500"/></g></svg>