<svg width="233" height="121" xmlns="http://www.w3.org/2000/svg"><title>ComparaOnline</title><g fill="none" fill-rule="evenodd"><path fill="#FFF" d="M0 0h233v121H0z"/><g transform="translate(15 41)" fill-rule="nonzero"><path d="M19.957 22.492c-.213-.32-.514-.57-.922-.784a2.605 2.605 0 0 0-1.276-.303c-1.116 0-1.985.339-2.605 1.016-.62.676-.922 1.549-.922 2.635 0 1.086.301 1.96.922 2.636.62.676 1.489 1.015 2.605 1.015.496 0 .922-.107 1.276-.32.355-.214.656-.482.922-.766l2.924 3.08a5.684 5.684 0 0 1-2.428 1.496c-.94.285-1.825.428-2.676.428a9.043 9.043 0 0 1-3.12-.535 7.442 7.442 0 0 1-2.534-1.531c-.727-.659-1.276-1.46-1.701-2.386-.408-.926-.62-1.96-.62-3.117 0-1.14.212-2.19.62-3.116a6.98 6.98 0 0 1 1.701-2.387 7.616 7.616 0 0 1 2.535-1.531 8.97 8.97 0 0 1 3.119-.534c.85 0 1.737.142 2.676.427a5.58 5.58 0 0 1 2.428 1.496l-2.924 3.08zm3.97 2.546c0-1.14.213-2.19.62-3.116a6.98 6.98 0 0 1 1.702-2.386 7.442 7.442 0 0 1 2.534-1.532 8.97 8.97 0 0 1 3.12-.534c1.099 0 2.144.178 3.12.534a7.442 7.442 0 0 1 2.534 1.532 7.489 7.489 0 0 1 1.701 2.386c.408.926.62 1.959.62 3.116 0 1.14-.212 2.19-.62 3.117a6.98 6.98 0 0 1-1.701 2.386 7.616 7.616 0 0 1-2.535 1.532 8.97 8.97 0 0 1-3.12.534 9.043 9.043 0 0 1-3.119-.534 7.442 7.442 0 0 1-2.534-1.532c-.727-.659-1.276-1.46-1.702-2.386-.407-.926-.62-1.977-.62-3.117zm4.43 0c0 1.087.302 1.96.923 2.636.62.677 1.488 1.015 2.605 1.015s1.985-.338 2.605-1.015c.62-.677.922-1.55.922-2.636s-.301-1.959-.922-2.635c-.62-.677-1.488-1.015-2.605-1.015s-1.985.338-2.605 1.015c-.603.676-.922 1.55-.922 2.635zm14.109-7.194h4.254v1.959h.053a4.01 4.01 0 0 1 .585-.837c.248-.285.567-.517.921-.748a5.748 5.748 0 0 1 1.206-.534 4.794 4.794 0 0 1 1.47-.214c1.01 0 1.897.214 2.677.623.78.41 1.365 1.069 1.755 1.96.514-.927 1.134-1.586 1.86-1.995.727-.392 1.631-.588 2.677-.588.957 0 1.772.16 2.428.48.656.321 1.188.766 1.56 1.336.39.57.656 1.23.833 1.995.16.766.248 1.585.248 2.44v8.512h-4.431v-8.37c0-.677-.142-1.247-.425-1.727-.284-.481-.798-.73-1.525-.73-.514 0-.939.089-1.276.249-.337.16-.62.392-.833.694a2.85 2.85 0 0 0-.443 1.033 5.72 5.72 0 0 0-.124 1.247v7.622h-4.43v-7.622c0-.25-.019-.57-.036-.944a3.577 3.577 0 0 0-.213-1.069 2.012 2.012 0 0 0-.567-.854c-.266-.232-.656-.357-1.17-.357-.567 0-1.028.107-1.382.303a2.17 2.17 0 0 0-.816.837c-.195.339-.301.73-.372 1.176-.053.427-.088.89-.088 1.37v7.177H42.43V17.844h.035zm26.072 0h4.076v1.905h.053c.177-.249.408-.516.691-.783a4.92 4.92 0 0 1 1.01-.73c.39-.214.798-.392 1.26-.535.46-.142.938-.213 1.452-.213 1.064 0 2.021.178 2.89.552.868.374 1.612.872 2.233 1.549a6.867 6.867 0 0 1 1.435 2.35c.337.909.496 1.906.496 2.993a9.108 9.108 0 0 1-.46 2.884 8.017 8.017 0 0 1-1.294 2.44 6.38 6.38 0 0 1-2.056 1.71c-.815.427-1.72.64-2.747.64-.922 0-1.79-.142-2.588-.427a4.228 4.228 0 0 1-1.967-1.46h-.053V39h-4.431V17.844zm4.076 7.194c0 1.087.301 1.96.922 2.636.62.677 1.489 1.015 2.605 1.015 1.117 0 1.985-.338 2.605-1.015.62-.677.922-1.55.922-2.636s-.301-1.959-.922-2.635c-.62-.677-1.488-1.015-2.605-1.015-1.116 0-1.985.338-2.605 1.015-.62.676-.922 1.55-.922 2.635zm23.094 5.396h-.053a4.24 4.24 0 0 1-1.967 1.656 6.698 6.698 0 0 1-2.588.499 6.344 6.344 0 0 1-1.932-.285c-.62-.196-1.17-.463-1.63-.837a3.87 3.87 0 0 1-1.117-1.389c-.284-.552-.408-1.193-.408-1.923 0-.837.16-1.532.461-2.102a4.17 4.17 0 0 1 1.24-1.424c.515-.374 1.117-.66 1.79-.873a13.456 13.456 0 0 1 2.074-.463c.727-.107 1.436-.16 2.163-.178.709-.018 1.382-.036 1.985-.036 0-.783-.284-1.424-.833-1.887a3.034 3.034 0 0 0-1.985-.695c-.727 0-1.4.16-1.985.463a5.44 5.44 0 0 0-1.613 1.265l-2.357-2.422a8.078 8.078 0 0 1 2.889-1.728 10.071 10.071 0 0 1 3.42-.57c1.294 0 2.357.16 3.208.481.833.32 1.507.802 2.003 1.443.496.64.85 1.407 1.046 2.333.195.926.301 1.976.301 3.187v7.32h-4.076v-1.835h-.036zM94.61 25.93c-.337 0-.744.018-1.258.053a6.532 6.532 0 0 0-1.454.25c-.46.142-.85.338-1.187.623-.319.285-.479.659-.479 1.157 0 .535.23.926.674 1.193.443.25.922.392 1.418.392a4.3 4.3 0 0 0 1.258-.178 4.024 4.024 0 0 0 1.081-.498 2.25 2.25 0 0 0 .745-.837c.195-.339.283-.73.283-1.194v-.943h-1.08v-.018zm7.94-8.085h4.431v2.315h.054c.478-.89 1.028-1.55 1.683-1.995.656-.445 1.471-.659 2.446-.659.248 0 .514.018.762.036s.497.054.71.125v4.06a4.572 4.572 0 0 0-.922-.214 5.499 5.499 0 0 0-.957-.07c-.851 0-1.507.124-2.003.355-.497.232-.869.57-1.135.998a3.639 3.639 0 0 0-.514 1.531c-.07.606-.124 1.247-.124 1.959v6.02h-4.43V17.843zm21.003 12.59h-.053a4.24 4.24 0 0 1-1.967 1.656 6.698 6.698 0 0 1-2.588.499 6.344 6.344 0 0 1-1.932-.285c-.62-.196-1.17-.463-1.63-.837a3.87 3.87 0 0 1-1.117-1.389c-.284-.552-.408-1.193-.408-1.923 0-.837.16-1.532.461-2.102a4.17 4.17 0 0 1 1.24-1.424c.515-.374 1.117-.66 1.79-.873a13.456 13.456 0 0 1 2.074-.463c.71-.107 1.436-.16 2.163-.178.709-.018 1.382-.036 1.985-.036 0-.783-.284-1.424-.833-1.887a3.034 3.034 0 0 0-1.985-.695c-.727 0-1.4.16-1.985.463a5.44 5.44 0 0 0-1.613 1.265l-2.357-2.422a8.078 8.078 0 0 1 2.888-1.728c1.1-.391 2.251-.57 3.421-.57 1.294 0 2.357.16 3.208.481.833.32 1.507.802 2.003 1.443.496.64.85 1.407 1.046 2.333.195.926.3 1.976.3 3.187v7.32h-4.076v-1.835h-.035zm-1.081-4.505c-.337 0-.745.018-1.258.053a6.532 6.532 0 0 0-1.454.25c-.46.142-.85.338-1.187.623-.32.285-.479.659-.479 1.157 0 .535.23.926.674 1.193.443.25.921.392 1.418.392a4.3 4.3 0 0 0 1.258-.178 4.024 4.024 0 0 0 1.081-.498 2.25 2.25 0 0 0 .744-.837c.195-.339.284-.73.284-1.194v-.943h-1.081v-.018zm7.958-.89a8.1 8.1 0 0 1 .567-3.046 7.119 7.119 0 0 1 1.56-2.404c.655-.677 1.453-1.193 2.392-1.567.94-.374 1.95-.57 3.049-.57a7.99 7.99 0 0 1 3.03.57c.922.374 1.72.908 2.393 1.567a7.119 7.119 0 0 1 1.56 2.404c.372.926.567 1.941.567 3.045 0 1.104-.195 2.12-.567 3.046a7.119 7.119 0 0 1-1.56 2.404 7.079 7.079 0 0 1-2.392 1.567 7.99 7.99 0 0 1-3.031.57 8.148 8.148 0 0 1-3.049-.57 6.91 6.91 0 0 1-2.392-1.567 7.396 7.396 0 0 1-1.56-2.404c-.39-.926-.567-1.942-.567-3.046zm1.86 0c0 .819.125 1.566.39 2.297a5.564 5.564 0 0 0 1.135 1.87c.496.534 1.099.943 1.808 1.264.709.32 1.489.463 2.357.463.869 0 1.648-.16 2.357-.463.71-.32 1.312-.73 1.808-1.265a5.564 5.564 0 0 0 1.135-1.87c.265-.712.39-1.477.39-2.297 0-.819-.125-1.567-.39-2.297a5.564 5.564 0 0 0-1.135-1.87c-.496-.534-1.099-.944-1.808-1.264-.709-.32-1.488-.463-2.357-.463a5.92 5.92 0 0 0-2.357.463c-.71.32-1.312.73-1.808 1.264a5.564 5.564 0 0 0-1.134 1.87 6.655 6.655 0 0 0-.39 2.297zm15.97-3.153c0-.267-.018-.605-.036-.98l-.053-1.174c-.017-.392-.017-.766-.053-1.105-.018-.338-.035-.605-.035-.801h1.86l.054 1.567c.018.499.035.82.07.962h.09c.372-.784.992-1.478 1.86-2.048.869-.57 1.879-.855 3.049-.855 1.116 0 2.02.178 2.73.534.708.356 1.258.82 1.665 1.39a4.94 4.94 0 0 1 .833 1.976c.16.748.23 1.514.23 2.315v8.584h-1.86v-8.477a8.78 8.78 0 0 0-.16-1.692c-.106-.552-.283-1.05-.55-1.478a2.923 2.923 0 0 0-1.08-1.05c-.461-.268-1.064-.392-1.808-.392a5.31 5.31 0 0 0-1.932.356 4.189 4.189 0 0 0-1.577 1.086c-.444.48-.798 1.104-1.064 1.834s-.39 1.603-.39 2.6v7.213h-1.86V21.886h.017zm15.827-10.81h1.861v21.175h-1.86V11.077zm4.945 1.39c0-.392.142-.73.408-.998.266-.267.602-.41.992-.41s.727.143.993.41c.266.268.407.606.407.998s-.141.73-.407.997-.603.41-.993.41-.726-.143-.992-.41a1.345 1.345 0 0 1-.408-.997zm.479 5.378h1.86V32.25h-1.86V17.844zm5.547 4.042c0-.267-.018-.605-.035-.98-.018-.39-.036-.765-.053-1.174-.018-.392-.018-.766-.054-1.105-.017-.338-.035-.605-.035-.801h1.86l.054 1.567c.018.499.036.82.071.962h.089c.372-.784.992-1.478 1.86-2.048.87-.57 1.88-.855 3.05-.855 1.116 0 2.02.178 2.729.534.708.356 1.258.82 1.666 1.39a4.94 4.94 0 0 1 .833 1.976c.16.748.23 1.514.23 2.315v8.584h-1.861v-8.477a8.78 8.78 0 0 0-.16-1.692c-.106-.552-.283-1.05-.549-1.478a2.924 2.924 0 0 0-1.081-1.05c-.46-.268-1.064-.392-1.808-.392a5.31 5.31 0 0 0-1.932.356 4.189 4.189 0 0 0-1.577 1.086c-.443.48-.798 1.104-1.064 1.834s-.39 1.603-.39 2.6v7.213h-1.86V21.886h.017zm28.358 7.64c-.727 1.104-1.613 1.888-2.676 2.369-1.064.48-2.233.712-3.527.712-1.1 0-2.092-.196-2.978-.57a6.884 6.884 0 0 1-2.304-1.567 6.911 6.911 0 0 1-1.47-2.404c-.338-.926-.515-1.941-.515-3.063 0-1.087.177-2.084.532-2.992.354-.908.85-1.71 1.489-2.386a6.787 6.787 0 0 1 2.268-1.585c.869-.392 1.826-.57 2.89-.57 1.098 0 2.055.196 2.906.57.833.392 1.542.89 2.109 1.531a6.73 6.73 0 0 1 1.294 2.173c.283.819.443 1.638.443 2.457v1.318h-12.034c0 .392.07.908.23 1.514.16.605.443 1.21.85 1.799.408.587.975 1.086 1.667 1.495.69.41 1.595.624 2.676.624.957 0 1.879-.232 2.765-.695.886-.463 1.577-1.086 2.056-1.87l1.33 1.14zm-1.418-5.699c0-.64-.124-1.246-.39-1.816a4.622 4.622 0 0 0-1.063-1.478 5.011 5.011 0 0 0-1.578-1.015 5.046 5.046 0 0 0-1.931-.374c-1.01 0-1.861.214-2.535.623-.673.41-1.205.89-1.595 1.443-.39.534-.674 1.068-.833 1.567-.16.516-.248.855-.248 1.05h10.173z" fill="#444"/><ellipse fill="#088AB7" cx="14.906" cy="7.266" rx="7.072" ry="7.105"/><ellipse fill="#FF9000" cx="4.75" cy="16.063" rx="4.608" ry="4.63"/><ellipse fill="#FFDD48" cx="3.917" cy="25.038" rx="2.712" ry="2.725"/></g></g></svg>