<svg width="233" height="121" xmlns="http://www.w3.org/2000/svg" xmlns:xlink="http://www.w3.org/1999/xlink"><title>Group 17</title><defs><path d="M56.459.081v13.956c0 1.71.429 3.02 1.29 3.939.859.916 2.096 1.376 3.711 1.376h3.996v-3.38h-1.797c-1.046 0-1.777-.245-2.199-.732-.42-.488-.628-1.36-.628-2.618V6.454h4.624V2.388h-4.624V.081h-4.373zM18.968 4.496c-1.598 1.597-2.396 3.728-2.396 6.39 0 2.65.798 4.773 2.396 6.365 1.597 1.593 3.738 2.39 6.42 2.39s4.814-.795 6.395-2.381c1.584-1.588 2.375-3.713 2.375-6.374 0-2.662-.797-4.793-2.39-6.39-1.59-1.598-3.717-2.397-6.38-2.397-2.682 0-4.823.799-6.42 2.397zm3.302 10.156c-.736-.903-1.104-2.16-1.104-3.775 0-1.604.37-2.856 1.113-3.757.742-.902 1.768-1.352 3.078-1.352 1.32 0 2.352.448 3.094 1.345.743.895 1.113 2.151 1.113 3.764 0 1.615-.373 2.872-1.12 3.775-.747.901-1.775 1.351-3.087 1.351-1.32 0-2.35-.45-3.087-1.35zM135.872 2.388v16.964h4.404V6.122h5.128v13.23h4.466V6.122h2.457c1.148 0 1.905.198 2.276.597.367.398.553 1.22.553 2.467v10.166h4.403V8.604c0-2.192-.536-3.777-1.612-4.753-1.074-.975-2.829-1.463-5.264-1.463h-16.811zm-8.303 0v13.23h-3.513c-1.147 0-1.912-.19-2.296-.567-.384-.378-.573-1.133-.573-2.265V2.388h-4.374v10.76c0 2.167.542 3.742 1.622 4.728 1.082.982 2.838 1.476 5.268 1.476h8.24V2.388h-4.374zm-18.931 0v13.23h-3.515c-1.145 0-1.911-.19-2.295-.567-.385-.378-.575-1.133-.575-2.265V2.388h-4.372v10.76c0 2.167.54 3.742 1.621 4.728 1.08.982 2.839 1.476 5.268 1.476h8.24V2.388h-4.372zm-29.491 0v16.964h4.374V6.122h3.522c1.16 0 1.931.188 2.315.565.386.377.58 1.2.58 2.467v10.198h4.37V8.604c0-2.224-.53-3.816-1.597-4.777-1.064-.958-2.842-1.439-5.33-1.439h-8.234zm-9.072 16.964h4.592V2.388h-4.592v16.964zM36.827 2.388v16.964H41.2V6.122h3.525c1.159 0 1.932.188 2.316.565.385.377.577 1.2.577 2.467v10.198h4.373V8.604c0-2.224-.533-3.816-1.598-4.777-1.064-.958-2.84-1.439-5.33-1.439h-8.235zm-27.984 0c-1.473 0-2.7.16-3.677.478a6.508 6.508 0 0 0-2.555 1.55C1.833 5.18 1.229 6.131.799 7.268a10.327 10.327 0 0 0-.645 3.671c0 1.248.218 2.431.653 3.547.435 1.115 1.036 2.062 1.804 2.838a6.351 6.351 0 0 0 2.525 1.547c.967.32 2.202.48 3.707.48h5.938v-3.638h-4.65c-1.114 0-1.889-.041-2.323-.126a3.426 3.426 0 0 1-1.144-.424 3.832 3.832 0 0 1-1.473-1.647c-.316-.68-.475-1.538-.475-2.576 0-1.8.387-3.064 1.165-3.792.778-.727 2.194-1.091 4.25-1.091h4.65V2.388H8.843z" id="a"/><path d="M6.424 3.74c-.897.682-1.432 1.791-1.432 3.004 0 .563.125 1.096.347 1.574l-.01.003a25.293 25.293 0 0 0 1.774 3.275l.003.017c.356.707.163 1.707-.631 1.927-2.205.608-4.187 4.019-4.279 6.423-.135 3.47-.143 4.266-2.034 6.294a.546.546 0 0 0 .387.936c.105 0 .205-.03.288-.083 1.757-.861 3.023-1.5 3.587-3.98.563-2.48 1.803-4.625 4.495-4.741 1.335-.058 1.658 1.149 1.577 1.934-.259 2.505-.716 4.006-3.371 5.77-4.023 2.689-4.41 4.204-4.948 6.538-.068.296-.006.6.27.726.237.109.51.034.66-.164 2.124-3.465 3.71-2.771 6.693-3.699 2.426-.752 5.125-2.254 6.957-6.628.155-.342.666-1.097 1.351-1.024.815.085 1.097.948 1.03 1.428-.364 3.895-3.69 7.462-7.275 8.661h-.006a.55.55 0 0 0-.375.52c0 .303.223.545.525.545 5.283.43 10.413-3.775 10.96-9.027a1.432 1.432 0 0 1 1.621-1.214v.002c1.511.418 3.448.46 3.448.46a3.727 3.727 0 0 0 3.557-2.62l.006-.018-.006.019-.002.007a15.81 15.81 0 0 0 .747-4.816c0-8.708-7.052-15.768-15.752-15.768a15.682 15.682 0 0 0-10.162 3.72z" id="c"/></defs><g fill="none" fill-rule="evenodd"><path fill="#FFF" d="M0 0h233v121H0z"/><g transform="translate(57.509 49.713)"><mask id="b" fill="#fff"><use xlink:href="#a"/></mask><path fill="#757684" mask="url(#b)" d="M-.618 20.422h160.949V-.699H-.618z"/></g><g transform="translate(16 43)"><mask id="d" fill="#fff"><use xlink:href="#c"/></mask><path fill="#65BB45" mask="url(#d)" d="M-.772 34.188H33.11V-.76H-.772z"/></g></g></svg>