<?xml version="1.0" encoding="UTF-8" standalone="no"?>
<svg width="308px" height="98px" viewBox="0 0 308 98" version="1.1" xmlns="http://www.w3.org/2000/svg" xmlns:xlink="http://www.w3.org/1999/xlink">
    <!-- Generator: Sketch 41.2 (35397) - http://www.bohemiancoding.com/sketch -->
    <title>Group 4</title>
    <desc>Created with Sketch.</desc>
    <defs>
        <path d="M80.4954274,0.114601174 L80.4954274,3.37169876 L80.4954274,3.41423343 L80.4954274,19.8169672 C80.4954274,22.2306442 81.1076963,24.0810124 82.3342141,25.3775484 C83.5594119,26.6707785 85.3236175,27.3198179 87.6263909,27.3198179 L93.3229335,27.3198179 L93.3229335,22.5484421 L90.7612163,22.5484421 C89.2698147,22.5484421 88.2272196,22.2030958 87.6263909,21.5159296 C87.0279822,20.8270002 86.7303179,19.5948172 86.7303179,17.8193806 L86.7303179,9.11123408 L93.3229335,9.11123408 L93.3229335,3.37169876 L86.7303179,3.37169876 L86.7303179,0.114601174 L80.4954274,0.114601174 Z M27.0432322,6.34780309 C24.7657592,8.60192002 23.6276827,11.6106416 23.6276827,15.367797 C23.6276827,19.1104069 24.7657592,22.106346 27.0432322,24.3542921 C29.3209252,26.6031198 32.3725895,27.7292967 36.196245,27.7292967 C40.0207804,27.7292967 43.0601245,26.6064256 45.3149372,24.3664134 C47.57261,22.1246381 48.7001263,19.1253932 48.7001263,15.367797 C48.7001263,11.6106416 47.5642498,8.60192002 45.2940369,6.34780309 C43.026024,4.0912619 39.99306,2.96354227 36.196245,2.96354227 C32.3725895,2.96354227 29.3209252,4.0912619 27.0432322,6.34780309 Z M31.7517405,20.6857322 C30.7018853,19.4105738 30.1776177,17.6353575 30.1776177,15.3556757 C30.1776177,13.0909802 30.7049653,11.3234775 31.7640607,10.0520656 C32.822496,8.77822952 34.2844172,8.14307455 36.1524643,8.14307455 C38.0345916,8.14307455 39.505973,8.77492371 40.5644083,10.0419278 C41.6235037,11.304965 42.1508513,13.0790793 42.1508513,15.3556757 C42.1508513,17.6353575 41.6195436,19.4105738 40.5540682,20.6857322 C39.4881527,21.9575849 38.0231515,22.5927398 36.1524643,22.5927398 C34.270997,22.5927398 32.8015957,21.9575849 31.7517405,20.6857322 Z M193.71787,3.37169876 L193.71787,27.3198179 L199.996761,27.3198179 L199.996761,8.64158965 L207.308347,8.64158965 L207.308347,27.3198179 L213.676559,27.3198179 L213.676559,8.64158965 L217.17945,8.64158965 C218.815834,8.64158965 219.895169,8.92258292 220.423397,9.48567138 C220.947444,10.0480987 221.211888,11.2086559 221.211888,12.9684451 L221.211888,27.3198179 L227.490119,27.3198179 L227.490119,12.1468429 C227.490119,9.05195001 226.725168,6.81524364 225.191306,5.43738492 C223.659864,4.06040774 221.158428,3.37169876 217.686337,3.37169876 L193.71787,3.37169876 Z M181.881038,3.37169876 L181.881038,22.0479435 L176.871345,22.0479435 C175.236281,22.0479435 174.146166,21.7812754 173.599018,21.2488207 C173.05143,20.7148233 172.781486,19.6483712 172.781486,18.0514479 L172.781486,3.37169876 L166.544835,3.37169876 L166.544835,18.560762 C166.544835,21.6217153 167.317927,23.844978 168.858169,25.23606 C170.401051,26.6233953 172.904028,27.3198179 176.369298,27.3198179 L188.117468,27.3198179 L188.117468,3.37169876 L181.881038,3.37169876 Z M154.889726,3.37169876 L154.889726,22.0479435 L149.878274,22.0479435 C148.24519,22.0479435 147.153534,21.7812754 146.606606,21.2488207 C146.057918,20.7148233 145.786654,19.6483712 145.786654,18.0514479 L145.786654,3.37169876 L139.553744,3.37169876 L139.553744,18.560762 C139.553744,21.6217153 140.323535,23.844978 141.864878,25.23606 C143.40424,26.6233953 145.911396,27.3198179 149.374906,27.3198179 L161.123297,27.3198179 L161.123297,3.37169876 L154.889726,3.37169876 Z M112.842717,3.37169876 L112.842717,27.3198179 L119.078927,27.3198179 L119.078927,8.64158965 L124.1016,8.64158965 C125.755804,8.64158965 126.85406,8.90869854 127.401868,9.44115323 C127.952096,9.97338752 128.22732,11.133504 128.22732,12.923927 L128.22732,27.3198179 L134.45869,27.3198179 L134.45869,12.1468429 C134.45869,9.00655032 133.703199,6.76014692 132.182097,5.40322495 C130.665395,4.04982917 128.130518,3.37169876 124.584067,3.37169876 L112.842717,3.37169876 Z M99.908289,27.3198179 L106.455804,27.3198179 L106.455804,3.37169876 L99.908289,3.37169876 L99.908289,27.3198179 Z M52.5064015,3.37169876 L52.5064015,27.3198179 L58.7393119,27.3198179 L58.7393119,8.64158965 L63.7652848,8.64158965 C65.4170688,8.64158965 66.5190647,8.90869854 67.0673127,9.44115323 C67.6160007,9.97338752 67.8892446,11.133504 67.8892446,12.923927 L67.8892446,27.3198179 L74.124135,27.3198179 L74.124135,12.1468429 C74.124135,9.00655032 73.364464,6.76014692 71.845342,5.40322495 C70.32842,4.04982917 67.7959633,3.37169876 64.2479718,3.37169876 L52.5064015,3.37169876 Z M12.6079429,3.37169876 C10.5077924,3.37169876 8.75854703,3.59693414 7.36570683,4.04652336 C5.97308663,4.49941839 4.75910902,5.22889894 3.72223398,6.23364269 C2.61363791,7.31353836 1.75232541,8.65635557 1.13939652,10.2620943 C0.527127645,11.8684942 0.219343181,13.5956662 0.219343181,15.4444916 C0.219343181,17.2047216 0.530427693,18.8754745 1.15039668,20.4510202 C1.77102569,22.0252436 2.62771811,23.3612289 3.72223398,24.4569924 C4.7437088,25.4619565 5.94206618,26.1920982 7.3223662,26.6419078 C8.7013462,27.092599 10.4624717,27.3198179 12.6079429,27.3198179 L21.0741056,27.3198179 L21.0741056,22.183261 L14.4451895,22.183261 C12.8554464,22.183261 11.7510304,22.1246381 11.1321615,22.0051884 C10.5128525,21.8886038 9.96966459,21.687611 9.5010578,21.4068381 C8.55482407,20.8179644 7.85411391,20.0430841 7.40090734,19.080875 C6.95056081,18.1217514 6.72417752,16.9096236 6.72417752,15.4444916 C6.72417752,12.9040922 7.27616553,11.1196196 8.38476161,10.0908537 C9.4942377,9.06539361 11.513207,8.55079026 14.4451895,8.55079026 L21.0741056,8.55079026 L21.0741056,3.37169876 L12.6079429,3.37169876 Z" id="path-1"></path>
        <path d="M9.15851283,5.28091024 C7.87985428,6.24267855 7.11710322,7.80874766 7.11710322,9.52137405 C7.11710322,10.3152076 7.29552581,11.0676083 7.6121104,11.7430941 L7.5982502,11.7475018 C8.32998081,13.3554445 9.17413305,14.9005768 10.1276269,16.3712184 L10.1307069,16.3945794 C10.6395743,17.3922708 10.3641303,18.8049507 9.23111388,19.1152554 C6.08748829,19.9743234 3.26264732,24.7886746 3.13152542,28.1828529 C2.93880262,33.0829346 2.92736246,34.2060261 0.230343341,37.0690719 C0.0882212795,37.2103399 0,37.4014153 0,37.6167333 C0,38.0434023 0.349145064,38.3898505 0.782111343,38.3898505 C0.932373522,38.3898505 1.07471559,38.346875 1.19395732,38.2732658 C3.69847364,37.0569507 5.50315981,36.1544664 6.30793149,32.6534006 C7.11006312,29.1521143 8.87822876,26.1251006 12.7159644,25.960692 C14.620092,25.8795897 15.0807787,27.5827394 14.964397,28.6906242 C14.5956717,32.2282743 13.9438022,34.3472941 10.1584273,36.837225 C4.42316415,40.6329481 3.87007613,42.7715823 3.10336501,46.0674679 C3.0063436,46.4848807 3.09478488,46.9144147 3.48749058,47.0920465 C3.8267355,47.2458765 4.21592114,47.1398705 4.43020425,46.8606403 C7.45766816,41.9695944 9.71952096,42.9481121 13.9728427,41.6390141 C17.4317328,40.5763086 21.2791486,38.4559665 23.8905865,32.2820487 C24.1127897,31.7985199 24.8412203,30.7322882 25.8180344,30.8354293 C26.9787713,30.9564216 27.3807171,32.1744999 27.2850157,32.8515284 C26.7662482,38.3512828 22.0247394,43.3869024 16.9140653,45.0794736 L16.9054852,45.0794736 C16.5959407,45.1819535 16.3708774,45.472203 16.3708774,45.814023 C16.3708774,46.240692 16.687682,46.5827324 17.1182283,46.5827324 C24.6515775,47.1907798 31.9647036,41.2526759 32.7452749,33.8390819 C32.9058772,32.7320787 33.9405522,31.9644712 35.0564084,32.1240313 L35.0548684,32.1282186 C37.2104597,32.7177535 39.9717197,32.7757153 39.9717197,32.7757153 C42.3534743,32.7757153 44.3709035,31.2213267 45.0436733,29.0793867 L45.0520334,29.0527198 C45.0493934,29.0617557 45.0465333,29.0705712 45.0436733,29.0793867 L45.0405932,29.0895245 C45.7318433,26.9453806 46.1056287,24.6608502 46.1056287,22.2908098 C46.1056287,9.99674853 36.0512629,0.0299726146 23.647263,0.0299726146 C18.1251829,0.0299726146 13.0701696,2.00507977 9.15851283,5.28091024 Z" id="path-3"></path>
    </defs>
    <g id="Page-1" stroke="none" stroke-width="1" fill="none" fill-rule="evenodd">
        <g id="Artboard" transform="translate(-19.000000, -109.000000)">
            <g id="Group-4" transform="translate(19.000000, 109.000000)">
                <rect id="Rectangle" fill="#FFFFFF" x="0" y="0" width="308" height="98"></rect>
                <g id="Group-3" transform="translate(68.646579, 33.246489)">
                    <mask id="mask-2" fill="white">
                        <use xlink:href="#path-1"></use>
                    </mask>
                    <g id="Clip-2"></g>
                    <polygon id="Fill-1" fill="#757684" mask="url(#mask-2)" points="-0.880672773 28.831231 228.590135 28.831231 228.590135 -0.987333188 -0.880672773 -0.987333188"></polygon>
                </g>
                <g id="Group-6" transform="translate(9.465721, 23.769854)">
                    <mask id="mask-4" fill="white">
                        <use xlink:href="#path-3"></use>
                    </mask>
                    <g id="Clip-5"></g>
                    <polygon id="Fill-4" fill="#65BB45" mask="url(#mask-4)" points="-1.10001595 48.2647251 47.2056446 48.2647251 47.2056446 -1.07196175 -1.10001595 -1.07196175"></polygon>
                </g>
            </g>
        </g>
    </g>
</svg>