<svg width="233" height="121" xmlns="http://www.w3.org/2000/svg" xmlns:xlink="http://www.w3.org/1999/xlink"><title>Etermax</title><defs><path id="a" d="M28.297.031v25.82H.1V.032h28.198z"/><path id="c" d="M14.834.054H.182v27.4h14.652V.055z"/><path id="e" d="M.035 23.09h21.357V.163H.035z"/></defs><g fill="none" fill-rule="evenodd"><path fill="#FFF" d="M0 0h233v121H0z"/><g transform="translate(164.636 45.4)"><mask id="b" fill="#fff"><use xlink:href="#a"/></mask><path d="M28.146 1.89l-1.68 4.43-3.317-1.304-7.749 9.933 5.038 10.112c.037.075.037.15.037.227 0 .301-.187.564-.488.564H14.61c-.412 0-.526-.227-.79-.791l-2.706-5.827L6.603 25.1c-.45.563-.716.753-1.128.753H.437c-.225 0-.338-.15-.338-.34a.63.63 0 0 1 .15-.413L8.67 14.65 3.933 5.1c-.037-.076-.076-.152-.076-.264 0-.263.19-.526.49-.526h5.377c.413 0 .564.3.789.79l2.444 5.188L19.615.82c.452-.565.715-.79 1.127-.79L27.92 1.1c.2.03.378.188.378.377 0 .15-.086.264-.152.413" fill="#3CAF49" mask="url(#b)"/></g><path d="M59.42 56.463c0-.904-.235-1.592-.7-2.058-.467-.468-1.244-.7-2.332-.7-1.322 0-2.327.408-3.013 1.225-.686.814-1.171 1.896-1.455 3.244h7.304a25.3 25.3 0 0 0 .136-.894c.04-.284.06-.557.06-.817m5.867.313c0 .336-.018.679-.057 1.03-.04.349-.085.703-.136 1.068l-.389 2.254c-.13.621-.455.932-.971.932H51.258a9.37 9.37 0 0 0-.156 1.594c0 1.01.266 1.716.796 2.117.531.404 1.42.603 2.662.603.623 0 1.29-.012 2.003-.038.712-.026 1.412-.058 2.098-.097.688-.04 1.335-.078 1.944-.117.609-.04 1.107-.07 1.496-.097.311-.025.525 0 .64.077.117.078.149.26.098.544l-.543 2.954c-.053.311-.138.545-.254.7-.116.155-.357.272-.718.349a34.631 34.631 0 0 1-3.79.7c-1.23.154-2.688.233-4.372.233a9.947 9.947 0 0 1-3.052-.466 7.705 7.705 0 0 1-2.604-1.418c-.762-.634-1.372-1.445-1.826-2.429-.453-.986-.68-2.151-.68-3.5 0-.336.02-.685.06-1.048.038-.363.082-.738.135-1.126l.467-2.721c.596-3.394 1.877-5.946 3.847-7.657 1.97-1.71 4.56-2.564 7.773-2.564 1.321 0 2.48.208 3.478.622.998.414 1.832.99 2.506 1.728a7.29 7.29 0 0 1 1.516 2.585c.337.985.505 2.047.505 3.188" fill="#3CAF49"/><g transform="translate(66.273 44.127)"><mask id="d" fill="#fff"><use xlink:href="#c"/></mask><path d="M14.834 5.613L14.25 8.76a1.11 1.11 0 0 1-.33.545.814.814 0 0 1-.564.233h-3.187l-2.02 11.311a7.104 7.104 0 0 0-.117 1.088c0 .284.077.48.233.581.156.105.44.156.855.156h1.905a.98.98 0 0 1 .505.117c.13.078.193.22.193.427v.117l-.543 3.032c-.078.44-.364.698-.855.777-.597.103-1.126.181-1.593.232a14.31 14.31 0 0 1-1.55.079c-1.776 0-3.134-.35-4.074-1.05-.94-.698-1.412-1.904-1.412-3.614 0-.284.02-.596.059-.932.037-.336.083-.687.134-1.052l1.97-11.27-3.017-.503c-.44-.08-.66-.313-.66-.701v-.117l.427-2.564c.051-.207.174-.395.369-.564.193-.168.394-.253.602-.253h3.09l.542-3.186a.903.903 0 0 1 .328-.506c.167-.129.367-.22.6-.272l4.885-.817h.116c.389 0 .582.184.582.545v.118l-.736 4.118h3.186c.44 0 .66.221.66.66v.118z" fill="#3CAF49" mask="url(#d)"/></g><path d="M93.931 56.463c0-.904-.234-1.592-.7-2.058-.466-.468-1.243-.7-2.33-.7-1.322 0-2.328.408-3.014 1.225-.686.814-1.173 1.896-1.456 3.244h7.304c.051-.311.1-.61.138-.894a6.25 6.25 0 0 0 .058-.817m5.868.313c0 .336-.02.679-.058 1.03-.039.349-.084.703-.136 1.068l-.39 2.254c-.13.621-.451.932-.97.932H85.77c-.051.286-.09.564-.118.837a8.016 8.016 0 0 0-.038.757c0 1.01.265 1.716.797 2.117.532.404 1.42.603 2.663.603.622 0 1.288-.012 2.002-.038a100.38 100.38 0 0 0 2.097-.097c.687-.04 1.335-.078 1.944-.117.61-.04 1.107-.07 1.497-.097.311-.025.524 0 .64.077.117.078.149.26.097.544l-.544 2.954c-.052.311-.136.545-.252.7-.117.155-.355.272-.718.349a34.65 34.65 0 0 1-3.79.7c-1.231.154-2.688.233-4.372.233a9.95 9.95 0 0 1-3.052-.466 7.677 7.677 0 0 1-2.603-1.418c-.764-.634-1.374-1.445-1.827-2.429-.453-.986-.68-2.151-.68-3.5 0-.336.02-.685.059-1.048.039-.363.083-.738.136-1.126l.465-2.721c.596-3.394 1.879-5.946 3.849-7.657 1.968-1.71 4.56-2.564 7.772-2.564 1.32 0 2.48.208 3.48.622.995.414 1.83.99 2.505 1.728a7.29 7.29 0 0 1 1.516 2.585c.337.985.505 2.047.505 3.188m15.817-7.346l-.66 3.692c-.052.182-.137.35-.253.505a.534.534 0 0 1-.448.233h-.31c-.96 0-1.879.13-2.76.39-.88.259-1.71.58-2.486.971l-2.681 15.196a1.16 1.16 0 0 1-.351.562c-.181.17-.376.253-.582.253h-4.704c-.208 0-.369-.063-.486-.193a.674.674 0 0 1-.174-.467v-.155l3.653-20.677c.052-.207.162-.389.331-.544a.807.807 0 0 1 .562-.233h4.625c.44 0 .661.207.661.623v.154l-.156.778c.96-.803 1.867-1.315 2.72-1.535.855-.22 1.803-.33 2.84-.33.438 0 .659.22.659.66v.117zm29.458 5.364c0 .802-.077 1.592-.234 2.37l-2.329 13.253a1.104 1.104 0 0 1-.37.562c-.196.17-.395.253-.603.253h-4.701c-.209 0-.365-.063-.468-.193a.715.715 0 0 1-.155-.467v-.155l2.33-13.254c.053-.337.099-.64.136-.913.042-.272.061-.524.061-.758 0-.545-.144-.94-.429-1.184-.284-.247-.816-.371-1.593-.371-.312 0-.765.04-1.361.118a6.578 6.578 0 0 0-1.788.506c0 .439-.026.873-.075 1.3-.055.428-.118.862-.197 1.302l-2.33 13.254a1.14 1.14 0 0 1-.351.562c-.181.17-.376.253-.582.253h-4.703c-.21 0-.371-.063-.486-.193a.724.724 0 0 1-.175-.507v-.115l2.332-13.254c.051-.362.105-.692.156-.99a5.08 5.08 0 0 0 .078-.835c0-.442-.104-.785-.312-1.03-.208-.247-.621-.371-1.243-.371-.495 0-1.05.118-1.672.35-.621.234-1.241.507-1.865.818l-2.681 15.312a1.143 1.143 0 0 1-.35.562c-.182.17-.377.253-.584.253h-4.702c-.21 0-.37-.063-.486-.193a.728.728 0 0 1-.175-.507v-.115l3.653-20.677c.052-.207.162-.389.332-.544a.811.811 0 0 1 .563-.233h4.236c.44 0 .66.22.66.66v.117l-.154.895a17.42 17.42 0 0 1 2.504-1.38c.897-.402 1.886-.602 2.974-.602 1.14 0 2.065.16 2.778.485.715.325 1.29.746 1.731 1.263 1.14-.648 2.24-1.1 3.305-1.36 1.06-.26 2.251-.388 3.573-.388 1.088 0 1.995.16 2.721.485.725.325 1.316.771 1.769 1.341.452.57.777 1.224.97 1.962.196.74.292 1.524.292 2.353" fill="#3CAF49"/><g transform="translate(145.545 48.491)"><mask id="f" fill="#fff"><use xlink:href="#e"/></mask><path d="M12.588 16.523c-.648.363-1.327.68-2.04.952a5.79 5.79 0 0 1-2.08.408c-.88 0-1.47-.233-1.767-.699-.3-.466-.447-1.023-.447-1.671 0-.414.038-.842.115-1.284l.702-4.08c.284-1.58.744-2.77 1.38-3.575.634-.802 1.65-1.205 3.05-1.205.544 0 1.087.027 1.632.077.544.052.997.104 1.36.156l-1.905 10.92zM21.235 1.52c-.14-.127-.435-.258-.874-.388a27.708 27.708 0 0 0-3.982-.738 36.553 36.553 0 0 0-4.064-.232c-3.056 0-5.583.757-7.579 2.272C2.743 3.95 1.448 6.405.853 9.799a8.427 8.427 0 0 0-.157.896c-.052.387-.117.79-.194 1.205a17.04 17.04 0 0 0-.27 1.553c-.053.363-.1.725-.139 1.088-.04.363-.058.726-.058 1.089 0 .986.123 1.922.37 2.816a6.952 6.952 0 0 0 1.147 2.371c.516.687 1.19 1.238 2.02 1.653.829.413 1.827.621 2.992.621a9.018 9.018 0 0 0 2.993-.501c.96-.334 1.97-.913 3.03-1.737l-.155 1.117c-.05.258-.007.45.138.58.14.128.315.19.523.19h3.966c.309 0 .522-.075.64-.232.116-.156.2-.337.252-.544L21.373 2.3c.049-.39.004-.647-.138-.779z" fill="#3CAF49" mask="url(#f)"/></g></g></svg>