<svg width="233" height="121" xmlns="http://www.w3.org/2000/svg"><title>Everis</title><g fill="none" fill-rule="evenodd"><path fill="#FFF" d="M0 0h233v121H0z"/><g fill-rule="nonzero"><path d="M174.374 30.59c2.289 21.89-4.764 92.59-35.114 68.857-42.908-33.559-75.694 9.397-83.638-17.442-3.457-11.68 6.695-52.285 50.585-53.405 40.966-1.05 65.879-19.9 68.167 1.99l13.408 50.802" fill="#A1CC39"/><path d="M93.5 45.299c-.057-1.2-.344-2.214-.85-3.042-.515-.83-1.42-1.28-2.757-1.314-1.362.046-2.429.51-3.224 1.384a5.276 5.276 0 0 0-1.348 2.972H93.5zm-7.608 5.003c.417 1.153 1.085 2.085 2.01 2.797.919.707 2.125 1.073 3.645 1.098.941-.028 1.864-.319 2.775-.874a8.87 8.87 0 0 0 2.237-1.904l.137-.164.857.59-.132.193a11.578 11.578 0 0 1-3.27 3.226c-1.315.86-2.816 1.307-4.485 1.332-1.635-.014-3.005-.387-4.113-1.12-1.102-.73-1.935-1.724-2.487-2.974-.558-1.245-.83-2.649-.832-4.21.015-1.581.378-3.032 1.085-4.342a8.457 8.457 0 0 1 2.911-3.155c1.234-.794 2.644-1.2 4.221-1.22 2.096.023 3.739.649 4.917 1.89 1.152 1.218 1.754 2.876 1.821 4.957l.01.243H85.302c-.011 1.301.184 2.517.59 3.637zm28.682-9.586l-.206.027c-.389.05-.76.2-1.116.456-.355.25-.674.853-.952 1.51l-4.713 13.002-3.12.034-4.549-11.919c-.332-.941-.714-1.646-1.139-2.124-.419-.475-1.045-.911-1.86-.97l-.217-.016v-1.128s7.312.008 7.544 0l.251-.014v1.142l-.22.013c-.698.042-1.133.155-1.348.313a.728.728 0 0 0-.31.674c-.006.133.034.36.138.667.09.275 3.193 8.54 4.064 10.862.844-2.286 3.818-10.34 3.914-10.657a2.88 2.88 0 0 0 .153-.942c.01-.24-.104-.447-.382-.62-.257-.165-.708-.27-1.376-.298l-.226-.01v-1.144l.252.014c.23.008 5.418 0 5.418 0v1.128zm11.269 4.583c-.056-1.2-.344-2.214-.854-3.042-.516-.83-1.42-1.28-2.753-1.314-1.36.046-2.433.51-3.226 1.384a5.258 5.258 0 0 0-1.349 2.972h8.182zm-7.612 5.003c.417 1.153 1.087 2.085 2.01 2.797.922.707 2.133 1.073 3.648 1.098.936-.028 1.86-.319 2.776-.874a8.941 8.941 0 0 0 2.237-1.904l.136-.164.856.59-.131.193a11.598 11.598 0 0 1-3.267 3.226c-1.324.86-2.824 1.307-4.49 1.332-1.631-.014-3.008-.387-4.114-1.12-1.103-.73-1.932-1.724-2.491-2.974-.547-1.245-.827-2.649-.827-4.21.013-1.581.377-3.032 1.087-4.342a8.441 8.441 0 0 1 2.906-3.155c1.238-.794 2.642-1.2 4.223-1.22 2.097.023 3.746.649 4.918 1.89 1.149 1.218 1.756 2.876 1.823 4.957l.007.243h-11.893c-.016 1.301.18 2.517.586 3.637z" fill="#FEFEFE"/><path d="M138.64 40.688a6.751 6.751 0 0 1 3.536-1.079c.278.006.63.066 1.046.176.386.099.719.213.994.333l.146.06-.003 3.393h-2.331l-.037-.195a3.75 3.75 0 0 0-.441-1.178c-.211-.37-.545-.561-1.017-.572-.86.046-1.668.35-2.42.923a19.272 19.272 0 0 0-2.003 1.732l-.037 9.462c-.013.474.053.824.179 1.058.115.213.376.383.837.482.445.094 1.132.145 2.057.143l.234-.001-.001 1.17-9.485-.003v-1.167l.24.001c1.209.008 1.925-.117 2.218-.333.289-.214.44-.646.397-1.353v-10.5c.043-.708-.108-1.14-.397-1.352-.293-.216-1.01-.342-2.219-.333l-.24.002V40.39l.217-.018c.96-.078 1.887-.168 2.784-.272.88-.098 1.718-.252 2.516-.452l.27-.073.302 3.295c.8-.828 1.687-1.554 2.657-2.18m18.664 11.066c.231 1.3.722 2.191 1.449 2.702.757.528 1.808.793 3.16.772a5.235 5.235 0 0 0 1.602-.254 3.229 3.229 0 0 0 1.353-.796c.355-.354.543-.814.558-1.405-.023-.7-.335-1.271-.953-1.721-.634-.465-1.424-.887-2.371-1.256a48.274 48.274 0 0 1-2.876-1.23c-.967-.448-1.784-1.024-2.445-1.722-.67-.714-1.013-1.639-1.04-2.764.024-1.035.352-1.898.988-2.572a5.692 5.692 0 0 1 2.323-1.469 8.387 8.387 0 0 1 2.757-.466c.902.01 1.799.133 2.694.369.867.226 1.708.486 2.523.783l.16.058v3.098h-1.631l-.042-.187c-.194-.916-.626-1.626-1.29-2.143-.69-.535-1.538-.812-2.55-.82a3.96 3.96 0 0 0-2.166.596c-.625.387-.959.99-1.002 1.825.028.563.334 1.064.952 1.493.637.443 1.426.866 2.378 1.261.96.403 1.914.834 2.871 1.3.973.47 1.78 1.035 2.44 1.698.67.674 1.018 1.507 1.046 2.488-.019 1.18-.312 2.166-.894 2.941-.572.772-1.333 1.341-2.268 1.71-.936.37-1.953.55-3.047.55a15.541 15.541 0 0 1-3.517-.441c-1.159-.282-2.135-.645-2.92-1.097l-.12-3.487 1.845-.006.033.192zm-5.887-16.211c-.393.403-.908.61-1.52.625-.61-.015-1.123-.222-1.515-.625-.396-.4-.602-.907-.615-1.501.013-.596.22-1.103.615-1.506.392-.401.906-.608 1.516-.623.61.015 1.126.222 1.519.623.393.403.596.91.605 1.506-.009.594-.212 1.101-.605 1.501m-5.91 5.835l-.222.003v-1.11l.203-.018a64.48 64.48 0 0 0 5.507-.64l.259-.04s-.068 10.745-.068 12.365c-.036 1.145.106 1.846.384 2.162.268.304.888.498 1.94.532l.214.009v1.102h-8.51l.005-1.104.216-.006c1.21-.035 1.925-.23 2.226-.535.305-.318.461-1.017.418-2.16v-8.46c.037-.933-.133-1.488-.435-1.734-.308-.252-1-.385-2.137-.366" fill="#FEFEFE"/></g></g></svg>