<svg width="233" height="121" xmlns="http://www.w3.org/2000/svg" xmlns:xlink="http://www.w3.org/1999/xlink"><title>GetOnBoard</title><defs><path d="M20.736 18.857a11.71 11.71 0 0 1-.596 3.728 9.584 9.584 0 0 1-1.734 3.15 8.562 8.562 0 0 1-2.776 2.18c-1.094.547-2.336.82-3.728.82a8.319 8.319 0 0 1-3.522-.764c-1.106-.51-1.957-1.236-2.553-2.18h-.075v2.422H.124V.034h6.113v11.592h.074c.522-.62 1.255-1.192 2.2-1.714.944-.522 2.099-.783 3.466-.783 1.342 0 2.553.26 3.634.783 1.08.522 2 1.23 2.758 2.124a9.671 9.671 0 0 1 1.752 3.113c.41 1.18.615 2.416.615 3.708zm-5.89 0c0-.596-.092-1.18-.279-1.751a4.378 4.378 0 0 0-.838-1.51 4.357 4.357 0 0 0-1.38-1.062c-.546-.274-1.18-.41-1.9-.41-.696 0-1.317.136-1.864.41a4.446 4.446 0 0 0-1.398 1.08 4.95 4.95 0 0 0-.895 1.529 5.016 5.016 0 0 0 0 3.504c.212.571.51 1.08.895 1.528.385.447.851.807 1.398 1.08.547.274 1.168.41 1.864.41.72 0 1.354-.136 1.9-.41a4.236 4.236 0 0 0 1.38-1.08 4.55 4.55 0 0 0 .838-1.547c.187-.584.28-1.174.28-1.77zm28.515 0c0 1.516-.273 2.89-.82 4.12a9.222 9.222 0 0 1-2.236 3.13 10.237 10.237 0 0 1-3.28 1.994 11.14 11.14 0 0 1-3.989.709 11.19 11.19 0 0 1-3.97-.709 9.976 9.976 0 0 1-3.28-1.994c-.931-.857-1.67-1.9-2.217-3.13-.547-1.23-.82-2.604-.82-4.12 0-1.515.273-2.882.82-4.1.547-1.217 1.286-2.249 2.218-3.093a9.643 9.643 0 0 1 3.28-1.939 11.734 11.734 0 0 1 3.97-.67c1.416 0 2.745.223 3.988.67a9.886 9.886 0 0 1 3.28 1.939 9.086 9.086 0 0 1 2.236 3.093c.547 1.218.82 2.585.82 4.1zm-5.889 0c0-.596-.1-1.18-.298-1.751a4.632 4.632 0 0 0-.857-1.51 4.358 4.358 0 0 0-1.38-1.062c-.546-.274-1.18-.41-1.9-.41-.721 0-1.355.136-1.902.41-.546.273-1 .627-1.36 1.062a4.55 4.55 0 0 0-.82 1.51 5.617 5.617 0 0 0 0 3.503c.186.572.466 1.087.839 1.547.372.46.832.826 1.379 1.1.546.273 1.18.41 1.9.41.721 0 1.355-.137 1.902-.41a4.128 4.128 0 0 0 1.379-1.1c.373-.46.652-.975.838-1.547.187-.571.28-1.155.28-1.752zm19.792 1.268h-.782c-.671 0-1.348.03-2.032.093a8.355 8.355 0 0 0-1.826.354c-.534.174-.976.429-1.323.764-.348.336-.522.777-.522 1.323 0 .348.08.646.242.895.162.248.367.447.615.596.249.15.534.255.857.317.323.062.634.093.932.093 1.243 0 2.193-.341 2.852-1.025.658-.683.987-1.609.987-2.777v-.633zm-11.219-7.94a10.705 10.705 0 0 1 3.82-2.348 13.09 13.09 0 0 1 4.455-.783c1.565 0 2.888.193 3.97.578 1.08.385 1.956.982 2.627 1.79.671.807 1.162 1.826 1.472 3.056.311 1.23.466 2.69.466 4.38v9.355h-5.59v-1.975h-.112c-.473.77-1.187 1.366-2.144 1.789-.956.422-1.994.633-3.112.633a9.501 9.501 0 0 1-2.311-.298 6.769 6.769 0 0 1-2.18-.969 5.248 5.248 0 0 1-1.622-1.789c-.422-.745-.634-1.665-.634-2.758 0-1.342.367-2.423 1.1-3.243.733-.82 1.677-1.454 2.833-1.901 1.155-.447 2.441-.746 3.858-.895a39.524 39.524 0 0 1 4.137-.223v-.298c0-.92-.323-1.597-.97-2.032-.645-.435-1.44-.652-2.385-.652-.87 0-1.708.186-2.516.559-.807.373-1.497.82-2.068 1.342l-3.094-3.318zm32.465 2.46a4.762 4.762 0 0 0-.801-.149 8.064 8.064 0 0 0-.764-.037c-.82 0-1.51.15-2.069.447-.559.299-1.006.659-1.342 1.081a4.093 4.093 0 0 0-.726 1.38c-.15.496-.224.931-.224 1.304v9.542H66.47V9.651h5.89v2.684h.074a6.025 6.025 0 0 1 2.013-2.311c.87-.597 1.876-.895 3.019-.895.248 0 .49.012.727.037.236.025.428.062.577.112l-.26 5.368zm15.17 13.568V25.79h-.074c-.596.945-1.447 1.671-2.553 2.18a8.319 8.319 0 0 1-3.522.765c-1.392 0-2.634-.273-3.728-.82a8.563 8.563 0 0 1-2.777-2.18 9.583 9.583 0 0 1-1.733-3.15 11.71 11.71 0 0 1-.596-3.728c0-1.292.205-2.528.615-3.708a9.671 9.671 0 0 1 1.752-3.113 8.297 8.297 0 0 1 2.758-2.124c1.08-.522 2.292-.783 3.634-.783 1.367 0 2.522.26 3.467.783.944.522 1.677 1.093 2.199 1.714h.074V.034h6.113v28.18h-5.628zm-.223-9.318a5 5 0 0 0-.317-1.752 4.948 4.948 0 0 0-.894-1.528 4.447 4.447 0 0 0-1.398-1.081c-.547-.274-1.168-.41-1.864-.41-.72 0-1.354.136-1.9.41a4.359 4.359 0 0 0-1.38 1.062 4.376 4.376 0 0 0-.838 1.51 5.614 5.614 0 0 0-.28 1.751c0 .597.093 1.187.28 1.771.186.584.465 1.1.838 1.547.373.447.833.807 1.38 1.08.546.274 1.18.41 1.9.41.696 0 1.317-.136 1.864-.41a4.447 4.447 0 0 0 1.398-1.08c.385-.447.683-.957.894-1.528a5.015 5.015 0 0 0 .317-1.752z" id="a"/><path d="M12.248 19.118V8.979c0-.522-.043-1.019-.13-1.49a4.11 4.11 0 0 0-.429-1.25 2.223 2.223 0 0 0-.839-.857c-.36-.211-.813-.317-1.36-.317-.547 0-1.025.106-1.435.317-.41.211-.752.503-1.025.876a3.978 3.978 0 0 0-.615 1.286 5.534 5.534 0 0 0-.205 1.51v10.064H.06V.555h5.926v2.572h.075a6.13 6.13 0 0 1 .876-1.174c.36-.385.782-.714 1.267-.988a7.885 7.885 0 0 1 1.584-.67 6.24 6.24 0 0 1 1.826-.262c1.243 0 2.299.224 3.169.671.87.448 1.571 1.025 2.106 1.734.534.708.92 1.522 1.155 2.441.236.92.354 1.839.354 2.758v11.48h-6.15z" id="c"/><path d="M51.421 9.513v7.082c0 .87.168 1.522.503 1.957.336.435.938.652 1.808.652a6.5 6.5 0 0 0 .95-.075 3.26 3.26 0 0 0 .84-.223l.074 4.473c-.423.149-.957.28-1.603.391-.646.112-1.292.168-1.938.168-1.243 0-2.286-.156-3.131-.466-.845-.31-1.522-.758-2.032-1.342a5.26 5.26 0 0 1-1.1-2.087c-.223-.808-.335-1.709-.335-2.703V9.513h-2.982V4.928h2.945V.045h6.001v4.883h4.361v4.585h-4.361zm-9.505 4.92v.745c0 .249-.012.485-.037.709H28.423c.05.521.205.994.466 1.416.26.422.596.789 1.006 1.1.41.31.87.552 1.38.726a4.863 4.863 0 0 0 1.584.261c.969 0 1.789-.18 2.46-.54a4.867 4.867 0 0 0 1.64-1.398l4.249 2.684c-.87 1.267-2.019 2.242-3.448 2.926-1.429.683-3.087 1.025-4.976 1.025a11.89 11.89 0 0 1-3.95-.652 9.594 9.594 0 0 1-3.262-1.901c-.932-.833-1.665-1.858-2.2-3.075-.534-1.218-.8-2.61-.8-4.175 0-1.516.26-2.889.782-4.119s1.23-2.274 2.124-3.13a9.472 9.472 0 0 1 3.169-1.995c1.217-.472 2.534-.708 3.95-.708 1.367 0 2.622.23 3.765.69a8.195 8.195 0 0 1 2.945 1.993c.82.87 1.46 1.926 1.92 3.169.46 1.242.69 2.659.69 4.249zm-21.291 7.306c0 1.814-.261 3.392-.783 4.733-.522 1.342-1.255 2.454-2.2 3.336-.944.883-2.093 1.541-3.447 1.976-1.354.435-2.852.652-4.492.652-1.64 0-3.323-.248-5.05-.745-1.727-.497-3.224-1.218-4.492-2.162l3.057-4.361a8.957 8.957 0 0 0 2.963 1.77c1.08.385 2.143.578 3.187.578 1.789 0 3.112-.472 3.97-1.416.857-.945 1.285-2.2 1.285-3.765v-1.118h-.111c-.572.745-1.342 1.342-2.311 1.789-.97.447-2.075.67-3.318.67-1.416 0-2.67-.254-3.764-.763a8.258 8.258 0 0 1-2.777-2.069 9.053 9.053 0 0 1-1.733-3.038 11.205 11.205 0 0 1-.597-3.671c0-1.292.199-2.522.597-3.69A9.44 9.44 0 0 1 2.342 7.35a8.458 8.458 0 0 1 2.777-2.143c1.093-.535 2.336-.802 3.727-.802 1.168 0 2.286.236 3.355.709a5.813 5.813 0 0 1 2.572 2.199h.074V4.928h5.778v16.81zm-5.815-7.642a5.12 5.12 0 0 0-.317-1.789 4.55 4.55 0 0 0-.913-1.51 4.319 4.319 0 0 0-1.417-1.024c-.546-.249-1.167-.373-1.863-.373s-1.311.124-1.845.373a4.09 4.09 0 0 0-1.36 1.006 4.42 4.42 0 0 0-.858 1.491 5.52 5.52 0 0 0-.298 1.826c0 .622.1 1.218.298 1.79a4.65 4.65 0 0 0 .857 1.51c.373.434.826.782 1.36 1.043.535.26 1.15.391 1.846.391.696 0 1.323-.13 1.882-.391a4.418 4.418 0 0 0 1.416-1.025c.386-.423.684-.92.895-1.491.211-.572.317-1.18.317-1.827zm21.478-2.012c0-.97-.305-1.802-.913-2.498-.61-.695-1.522-1.043-2.74-1.043-.596 0-1.143.093-1.64.28a4.248 4.248 0 0 0-1.305.763c-.372.323-.67.702-.894 1.137a3.328 3.328 0 0 0-.373 1.36h7.865z" id="e"/><path d="M20.728 9.937c0 1.516-.273 2.889-.82 4.119a9.222 9.222 0 0 1-2.236 3.13 10.238 10.238 0 0 1-3.28 1.995c-1.243.472-2.572.708-3.988.708-1.392 0-2.715-.236-3.97-.708a9.975 9.975 0 0 1-3.28-1.994c-.932-.858-1.671-1.901-2.218-3.131-.547-1.23-.82-2.603-.82-4.12 0-1.515.273-2.882.82-4.1.547-1.217 1.286-2.248 2.218-3.093A9.643 9.643 0 0 1 6.434.805a11.734 11.734 0 0 1 3.97-.671c1.416 0 2.745.223 3.988.67a9.886 9.886 0 0 1 3.28 1.939 9.086 9.086 0 0 1 2.236 3.094c.547 1.217.82 2.584.82 4.1zm-5.889 0c0-.597-.1-1.18-.298-1.752a4.632 4.632 0 0 0-.857-1.51 4.357 4.357 0 0 0-1.38-1.062c-.546-.273-1.18-.41-1.9-.41-.721 0-1.355.137-1.901.41-.547.273-1 .627-1.36 1.062a4.55 4.55 0 0 0-.82 1.51 5.617 5.617 0 0 0 0 3.504 4.79 4.79 0 0 0 .838 1.547c.373.46.832.826 1.379 1.1.547.272 1.18.41 1.9.41.722 0 1.355-.138 1.902-.41a4.127 4.127 0 0 0 1.379-1.1 4.81 4.81 0 0 0 .839-1.547c.186-.572.28-1.156.28-1.752z" id="g"/></defs><g fill="none" fill-rule="evenodd"><path fill="#FFF" d="M0 0h233v121H0z"/><g transform="translate(116.325 38.924)"><mask id="b" fill="#fff"><use xlink:href="#a"/></mask><path fill="#00B1DD" mask="url(#b)" d="M-1.625 30.559h102.683V-1.715H-1.625z"/></g><g transform="translate(94.286 48.02)"><mask id="d" fill="#fff"><use xlink:href="#c"/></mask><path fill="#878890" mask="url(#d)" d="M-1.69 20.867h21.837V-1.716H-1.69z"/></g><g transform="translate(14 43.647)"><mask id="f" fill="#fff"><use xlink:href="#e"/></mask><path fill="#FE7165" mask="url(#f)" d="M-1.737 34.185h59.268V-1.704H-1.737z"/></g><g transform="translate(70.672 47.845)"><mask id="h" fill="#fff"><use xlink:href="#g"/></mask><path fill="#878890" mask="url(#h)" d="M-1.633 21.638h24.11V-1.615h-24.11z"/></g></g></svg>