<svg width="233" height="121" xmlns="http://www.w3.org/2000/svg"><title>Group 15</title><g fill="none" fill-rule="evenodd"><path fill="#FFF" d="M0 0h233v121H0z"/><path d="M176.863 54.486h12.46c3.743 0 6.588.348 8.189 1.242 1.607.89 2.318 2.49 2.318 4.628V70.68h-6.592v-9.795c0-1.246-.355-1.958-.89-2.312-.532-.355-1.774-.532-3.556-.532h-5.341v12.64h-6.588V54.485M75.225 70.681h6.942V48.43h-6.942zm-22.424-9.257v-3.916h17.084v13.173H54.4c-2.85 0-5.16-.176-6.588-.536-1.601-.178-3.024-.714-4.444-1.424a9.565 9.565 0 0 1-3.918-3.561c-.894-1.422-1.249-3.2-1.249-5.156 0-3.92 1.249-6.765 3.923-8.725 2.664-1.781 6.76-2.85 12.276-2.85h15.485v3.916H54.4c-2.85 0-4.985.532-6.226 1.779-1.251 1.25-1.963 3.026-1.963 5.697 0 2.313.712 4.096 1.963 5.164 1.241 1.069 3.376 1.601 6.226 1.601h8.191v-5.162h-9.79" fill="#1A1918"/><path d="M99.61 70.858c-4.09 0-7.474-.713-9.789-2.137-2.49-1.602-3.736-3.561-3.736-6.227 0-2.49 1.246-4.631 3.736-6.052 2.315-1.608 5.699-2.318 9.79-2.318.36 0 .715.005 1.062.017 3.59.115 6.44.835 8.552 2.301 2.493 1.42 3.737 3.562 3.737 6.052 0 2.666-1.244 4.625-3.56 6.227-2.492 1.424-5.696 2.137-9.791 2.137m0-3.381c1.961 0 3.564-.537 4.633-1.248 1.068-.895 1.775-2.139 1.775-3.735 0-1.428-.707-2.673-1.775-3.566-1.069-.886-2.672-1.242-4.633-1.242-2.133 0-3.735.356-4.803 1.242-1.068.893-1.6 2.138-1.6 3.566 0 1.596.532 2.84 1.6 3.735 1.068.71 2.67 1.248 4.803 1.248" fill="#BBD236"/><path d="M129.516 70.681h-12.46V48.43h6.762v6.057h5.698c2.492 0 4.45.174 6.05.53 1.608.358 2.85 1.068 3.918 1.959.892.71 1.603 1.42 2.133 2.318.358.885.718 1.954.718 3.018 0 2.674-1.248 4.629-3.382 6.054-2.139 1.602-5.165 2.316-9.079 2.316h-.358zm0-3.562c1.954 0 3.384-.355 4.092-1.065 1.074-.537 1.606-1.783 1.606-3.384 0-1.784-.532-2.849-1.606-3.742-.888-.533-2.341-1.02-4.122-1.02-.37 0-.836-.045-1.75-.045h-3.918v9.256h5.698zm28.657.181h5.874v-3.21h-7.832c-1.599 0-2.64-.063-3.284.293-.64.356-.808.777-.808 1.492 0 .534.19.871.71 1.244.286.205 1.425.18 2.85.18h2.49zm0 3.381h-5.165c-2.491 0-4.445-.356-5.87-1.25-1.246-.884-1.955-1.954-1.955-3.377 0-1.964.71-3.21 2.31-4.094 1.604-.713 4.094-1.25 7.836-1.25h8.718v-.354c0-.892-.533-1.604-1.246-1.96-.888-.354-2.492-.71-4.628-.71h-11.39v-3.2h13.71c3.554 0 6.047.348 7.826 1.421 1.782 1.068 2.67 2.488 2.67 4.626v10.148h-12.816z" fill="#1A1918"/><path d="M13.993 60.533c1.78 1.6 9.08 8.014 9.08 8.014s-8.446 6.713-9.16 7.247c-1.157.926-2.486-.375-1.52-1.559 4.382-3.644 3.197-10.003-.128-12.592-.868-.938.579-2.413 1.728-1.11m0-19.077c1.78 1.6 9.08 8.013 9.08 8.013s-8.446 6.713-9.16 7.248c-1.157.925-2.486-.377-1.52-1.56 4.382-3.645 3.197-10.003-.128-12.59-.868-.94.579-2.415 1.728-1.11m11.447 10c1.78 1.599 9.08 8.014 9.08 8.014s-8.445 6.713-9.16 7.246c-1.157.926-2.487-.374-1.519-1.559 4.38-3.643 3.195-10.002-.13-12.589-.866-.94.58-2.415 1.73-1.112" fill="#BBD236"/><path d="M203.031 54.486h4.808V48.43h6.584v6.057h7.119v3.2h-7.12v6.585c0 1.063.356 1.958 1.066 2.493.539.355 1.608.713 3.206.713h2.848v3.204h-6.054c-2.492 0-4.447-.536-5.693-1.421-1.422-.713-1.956-2.141-1.956-3.743v-7.831h-4.808v-3.2" fill="#1A1918"/></g></svg>