<?xml version="1.0" encoding="UTF-8" standalone="no"?>
<svg width="272px" height="146px" viewBox="0 0 272 146" version="1.1" xmlns="http://www.w3.org/2000/svg" xmlns:xlink="http://www.w3.org/1999/xlink">
    <!-- Generator: Sketch 41.2 (35397) - http://www.bohemiancoding.com/sketch -->
    <title>Group 11</title>
    <desc>Created with Sketch.</desc>
    <defs></defs>
    <g id="Page-1" stroke="none" stroke-width="1" fill="none" fill-rule="evenodd">
        <g id="Artboard" transform="translate(-44.000000, -305.000000)">
            <g id="Group-11" transform="translate(44.000000, 305.000000)">
                <rect id="Rectangle-4" fill="#FFFFFF" x="0" y="0" width="272" height="146"></rect>
                <g id="Group-9" transform="translate(12.000000, 48.000000)">
                    <path d="M192.340244,15.8482333 L206.877456,15.8482333 C211.243356,15.8482333 214.563378,16.2538444 216.430278,17.297 C218.305889,18.3347111 219.134533,20.2027 219.134533,22.6957111 L219.134533,34.7420889 L211.4448,34.7420889 L211.4448,23.3142 C211.4448,21.8605333 211.030478,21.0302556 210.406544,20.6175667 C209.785333,20.2027 208.336567,19.9963556 206.256789,19.9963556 L200.026167,19.9963556 L200.026167,34.7420889 L192.340244,34.7420889 L192.340244,15.8482333" id="Fill-1" fill="#1A1918"></path>
                    <polygon id="Fill-2" fill="#1A1918" points="73.7629667 34.7420889 81.8615778 34.7420889 81.8615778 8.7808 73.7629667 8.7808"></polygon>
                    <path d="M47.6013222,23.9419444 L47.6013222,19.3735111 L67.5323444,19.3735111 L67.5323444,34.7420889 L49.4665889,34.7420889 C46.1422111,34.7420889 43.4455778,34.5362889 41.7806667,34.1170667 C39.9126778,33.9085444 38.2521222,33.2840667 36.5959222,32.4548778 C34.5177778,31.4139 33.0630222,29.9645889 32.0247667,28.3007667 C30.9816111,26.6418444 30.5683778,24.5669667 30.5683778,22.2852 C30.5683778,17.7118667 32.0247667,14.3929333 35.1444333,12.1062667 C38.2521222,10.0281222 43.0312556,8.7808 49.4665889,8.7808 L67.5323444,8.7808 L67.5323444,13.3503222 L49.4665889,13.3503222 C46.1422111,13.3503222 43.6508333,13.9709889 42.2026111,15.4252 C40.7435,16.8832222 39.9126778,18.9559222 39.9126778,22.0723222 C39.9126778,24.7700444 40.7435,26.8509111 42.2026111,28.0971444 C43.6508333,29.3433778 46.1422111,29.9645889 49.4665889,29.9645889 L59.0232222,29.9645889 L59.0232222,23.9419444 L47.6013222,23.9419444" id="Fill-3" fill="#1A1918"></path>
                    <path d="M102.212367,34.9478889 C97.4397667,34.9478889 93.4914556,34.1170667 90.7915556,32.4548778 C87.8858556,30.5858 86.4321889,28.3007667 86.4321889,25.1903556 C86.4321889,22.2852 87.8858556,19.7872889 90.7915556,18.13 C93.4914556,16.2538444 97.4397667,15.4252 102.212367,15.4252 C102.633767,15.4252 103.046456,15.4311889 103.452067,15.4453444 C107.641022,15.5798222 110.9654,16.4193556 113.429556,18.13 C116.337433,19.7872889 117.788922,22.2852 117.788922,25.1903556 C117.788922,28.3007667 116.337433,30.5858 113.635356,32.4548778 C110.728567,34.1170667 106.989867,34.9478889 102.212367,34.9478889 M102.212367,31.0039333 C104.501211,31.0039333 106.370833,30.3772778 107.617611,29.5480889 C108.863844,28.5038444 109.689222,27.0529 109.689222,25.1903556 C109.689222,23.5249 108.863844,22.0723222 107.617611,21.0302556 C106.370833,19.9963556 104.501211,19.5809444 102.212367,19.5809444 C99.7242556,19.5809444 97.8551778,19.9963556 96.6089444,21.0302556 C95.3638,22.0723222 94.7420444,23.5249 94.7420444,25.1903556 C94.7420444,27.0529 95.3638,28.5038444 96.6089444,29.5480889 C97.8551778,30.3772778 99.7242556,31.0039333 102.212367,31.0039333" id="Fill-4" fill="#BBD236"></path>
                    <path d="M137.102,34.7420889 L122.564789,34.7420889 L122.564789,8.7808 L130.453789,8.7808 L130.453789,15.8482333 L137.102,15.8482333 C140.009878,15.8482333 142.293278,16.0513111 144.161267,16.4656333 C146.036333,16.8832222 147.484556,17.7118667 148.731878,18.7512111 C149.771767,19.5809444 150.602044,20.4085 151.219444,21.4554667 C151.637578,22.4882778 152.057889,23.7356 152.057889,24.9774778 C152.057889,28.0971444 150.602044,30.3772778 148.111756,32.0400111 C145.616567,33.9085444 142.085844,34.7420889 137.520133,34.7420889 L137.102,34.7420889 Z M137.102,30.5858 C139.381589,30.5858 141.050311,30.1720222 141.876233,29.3433778 C143.129544,28.7172667 143.749122,27.2636 143.749122,25.3961556 C143.749122,23.3142 143.129544,22.0723222 141.876233,21.0302556 C140.839611,20.4085 139.144756,19.8390111 137.067156,19.8390111 C136.634322,19.8390111 136.092056,19.7872889 135.0244,19.7872889 L130.453789,19.7872889 L130.453789,30.5858 L137.102,30.5858 L137.102,30.5858 Z" id="Fill-5" fill="#1A1918"></path>
                    <g id="Group-10">
                        <path d="M170.535244,30.7965 L177.388711,30.7965 L177.388711,27.0529 L168.2513,27.0529 C166.385489,27.0529 165.171922,26.9788556 164.4195,27.3948111 C163.672522,27.8091333 163.476522,28.3007667 163.476522,29.1354 C163.476522,29.7577 163.698656,30.1513333 164.304078,30.5858 C164.638911,30.8253556 165.967356,30.7965 167.629544,30.7965 L170.535244,30.7965 Z M170.535244,34.7420889 L164.508789,34.7420889 C161.603089,34.7420889 159.322956,34.3266778 157.661311,33.2840667 C156.207644,32.2523444 155.380089,31.0039333 155.380089,29.3433778 C155.380089,27.0529 156.207644,25.5997778 158.075089,24.5669667 C159.946889,23.7356 162.8515,23.1094889 167.2174,23.1094889 L177.388711,23.1094889 L177.388711,22.6957111 C177.388711,21.6558222 176.765867,20.825 175.933956,20.4085 C174.898422,19.9963556 173.027167,19.5809444 170.535244,19.5809444 L157.2459,19.5809444 L157.2459,15.8482333 L173.241133,15.8482333 C177.388711,15.8482333 180.296589,16.2538444 182.372556,17.5060667 C184.451244,18.7512111 185.487867,20.4085 185.487867,22.9031444 L185.487867,34.7420889 L170.535244,34.7420889 L170.535244,34.7420889 Z" id="Fill-6" fill="#1A1918"></path>
                        <path d="M2.32532222,22.9031444 C4.40292222,24.7700444 12.9180333,32.2523444 12.9180333,32.2523444 C12.9180333,32.2523444 3.06522222,40.0836333 2.23113333,40.7075667 C0.882,41.7872 -0.668577778,40.2698333 0.457877778,38.8885778 C5.5713,34.6370111 4.18786667,27.2178667 0.309244444,24.1978333 C-0.703422222,23.1029556 0.984355556,21.3825111 2.32532222,22.9031444" id="Fill-8" fill="#BBD236"></path>
                        <path d="M2.32532222,0.646255556 C4.40292222,2.51261111 12.9180333,9.99491111 12.9180333,9.99491111 C12.9180333,9.99491111 3.06522222,17.8267444 2.23113333,18.4506778 C0.882,19.5292222 -0.668577778,18.0102222 0.457877778,16.6311444 C5.5713,12.3784889 4.18786667,4.95988889 0.309244444,1.94148889 C-0.703422222,0.845522222 0.984355556,-0.874922222 2.32532222,0.646255556" id="Fill-9" fill="#BBD236"></path>
                    </g>
                    <path d="M15.6805444,12.3137 C17.7576,14.1789667 26.2727111,21.6639889 26.2727111,21.6639889 C26.2727111,21.6639889 16.4209889,29.4958222 15.5858111,30.1175778 C14.2366778,31.1972111 12.6855556,29.6809333 13.8147333,28.2985889 C18.9248889,24.0481111 17.542,16.6289667 13.6639222,13.6116556 C12.6523444,12.5140556 14.3384889,10.7941556 15.6805444,12.3137" id="Fill-11" fill="#BBD236"></path>
                    <path d="M222.869967,15.8482333 L228.479378,15.8482333 L228.479378,8.7808 L236.159856,8.7808 L236.159856,15.8482333 L244.465356,15.8482333 L244.465356,19.5809444 L236.159856,19.5809444 L236.159856,27.2636 C236.159856,28.5038444 236.574178,29.5480889 237.402822,30.1720222 C238.031111,30.5858 239.278433,31.0039333 241.143156,31.0039333 L244.465356,31.0039333 L244.465356,34.7420889 L237.402822,34.7420889 C234.494944,34.7420889 232.214811,34.1170667 230.761144,33.0837111 C229.101678,32.2523444 228.479378,30.5858 228.479378,28.7172667 L228.479378,19.5809444 L222.869967,19.5809444 L222.869967,15.8482333" id="Fill-12" fill="#1A1918"></path>
                </g>
            </g>
        </g>
    </g>
</svg>