<?xml version="1.0" encoding="UTF-8"?>
<svg width="233px" height="121px" viewBox="0 0 233 121" version="1.1" xmlns="http://www.w3.org/2000/svg" xmlns:xlink="http://www.w3.org/1999/xlink">
    <!-- Generator: Sketch 43.2 (39069) - http://www.bohemiancoding.com/sketch -->
    <title>Groupon Copy</title>
    <desc>Created with Sketch.</desc>
    <defs></defs>
    <g id="Page-1" stroke="none" stroke-width="1" fill="none" fill-rule="evenodd">
        <g id="Logos" transform="translate(-119.000000, -2076.000000)">
            <g id="Groupon-Copy" transform="translate(119.000000, 2076.000000)">
                <rect id="Rectangle-3-Copy-3" fill="#FFFFFF" x="-1.42108547e-14" y="0" width="233" height="121"></rect>
                <g id="ixda_santiago" transform="translate(56.000000, 31.000000)" fill-rule="nonzero">
                    <g id="Group">
                        <g transform="translate(0.000000, 52.165060)" id="Shape" fill="#268383">
                            <path d="M0.625527273,5.27636759 C1.10236364,5.66803312 1.73771818,5.9245826 2.40853636,5.9245826 C3.18574545,5.9245826 3.65360909,5.55942718 3.65360909,5.02110086 C3.65360909,4.56572553 3.39724545,4.21895616 2.83196364,4.14669472 C2.54996364,4.11077779 2.32949091,4.07357812 2.0022,4.02825438 C0.917354545,3.87304194 0.334981818,3.14358626 0.334981818,2.20547034 C0.334981818,1.09247319 1.08484545,0.308714538 2.38161818,0.308714538 C3.1584,0.308714538 3.84716364,0.590918963 4.42099091,0.982584498 L3.8916,1.79328085 C3.43228182,1.49269038 2.89391818,1.29300937 2.33889091,1.29300937 C1.75651818,1.29300937 1.28865455,1.60257907 1.28865455,2.22257364 C1.28865455,2.58730148 1.54501818,2.95202932 2.17994545,3.05122845 C2.34743636,3.07944889 2.585,3.11536582 2.8858,3.15128275 C4.05909091,3.29794353 4.606,4.13686032 4.606,5.02024569 C4.606,6.21448351 3.75145455,6.9071671 2.40041818,6.9071671 C1.47451818,6.9071671 0.661418182,6.61598344 0.000427272727,6.0148025 L0.625527273,5.27636759 Z"></path>
                            <path d="M23.1799727,5.40421474 L20.7970727,5.40421474 L20.3116909,6.85414687 L19.3058909,6.85414687 L21.5913727,0.363017511 L22.3869545,0.363017511 L24.6724364,6.85414687 L23.6666364,6.85414687 L23.1799727,5.40421474 Z M22.9069455,4.52938102 L21.9981364,1.69493688 L21.9806182,1.69493688 L21.0718091,4.52938102 L22.9069455,4.52938102 Z"></path>
                            <polygon points="40.0187909 0.363017511 40.9190545 0.363017511 43.7612727 4.97534953 43.7787909 4.97534953 43.7787909 0.363017511 44.7316091 0.363017511 44.7316091 6.85414687 43.8313455 6.85414687 40.9895545 2.24095969 40.9720364 2.24095969 40.9720364 6.85414687 40.0187909 6.85414687 40.0187909 0.363017511"></polygon>
                            <polygon points="61.7990182 1.23870639 60.0775364 1.23870639 60.0775364 0.362589928 64.4724636 0.362589928 64.4724636 1.23870639 62.7522636 1.23870639 62.7522636 6.85371929 61.7994455 6.85371929 61.7994455 1.23870639"></polygon>
                            <polygon points="79.8183909 0.363017511 80.7716364 0.363017511 80.7716364 6.85414687 79.8183909 6.85414687"></polygon>
                            <path d="M99.9912182,5.40421474 L97.6070364,5.40421474 L97.1216545,6.85414687 L96.1158545,6.85414687 L98.4021909,0.363017511 L99.1952091,0.363017511 L101.4824,6.85414687 L100.4766,6.85414687 L99.9912182,5.40421474 Z M99.7164818,4.52938102 L98.8076727,1.69493688 L98.7905818,1.69493688 L97.8817727,4.52938102 L99.7164818,4.52938102 Z"></path>
                            <path d="M118.708755,3.27955749 L120.941682,3.27955749 L120.941682,4.60121488 C120.941682,5.88738292 119.952545,6.90802226 118.698927,6.90802226 C117.7115,6.90802226 117.031709,6.30641374 116.731764,5.74200489 C116.528382,5.35760825 116.457882,5.16733406 116.457882,3.60794082 C116.457882,2.05025791 116.528382,1.8578458 116.731764,1.47601466 C117.031709,0.909467897 117.711927,0.30914212 118.698927,0.30914212 C119.891445,0.30914212 120.711809,1.17542419 120.906218,2.23240804 L119.899991,2.23240804 C119.750018,1.72999864 119.3001,1.29386453 118.698927,1.29386453 C118.249436,1.29386453 117.923855,1.51193159 117.729018,1.76677073 C117.482055,2.09472648 117.411127,2.27687661 117.411127,3.6083684 C117.411127,4.93900502 117.482055,5.12115515 117.729018,5.45039365 C117.923427,5.70566038 118.249436,5.92501018 118.698927,5.92501018 C119.423155,5.92501018 119.988436,5.35803584 119.988436,4.54733949 L119.988436,4.21040451 L118.709182,4.21040451 L118.709182,3.27955749 L118.708755,3.27955749 Z"></path>
                            <path d="M136.789655,1.47558708 C137.090455,0.909040315 137.769818,0.308714538 138.758527,0.308714538 C139.746809,0.308714538 140.425318,0.909040315 140.726545,1.47558708 C140.9295,1.8578458 140.999573,2.05025791 140.999573,3.60751323 C140.999573,5.16690647 140.9295,5.35718067 140.726545,5.7415773 C140.425318,6.30555857 139.746809,6.90759468 138.758527,6.90759468 C137.769818,6.90759468 137.090455,6.30598615 136.789655,5.7415773 C136.586273,5.35718067 136.5162,5.16690647 136.5162,3.60751323 C136.516627,2.05025791 136.5867,1.8578458 136.789655,1.47558708 Z M137.787336,5.44953848 C137.981318,5.70480521 138.308182,5.92415502 138.758527,5.92415502 C139.208018,5.92415502 139.535736,5.70437763 139.728864,5.44953848 C139.976255,5.12029999 140.046327,4.93857744 140.046327,3.60751323 C140.046327,2.27644903 139.976255,2.09387132 139.728864,1.76591557 C139.535736,1.51064884 139.207591,1.29300937 138.758527,1.29300937 C138.307755,1.29300937 137.981318,1.51107642 137.787336,1.76591557 C137.5408,2.09387132 137.469445,2.27602145 137.469445,3.60751323 C137.469445,4.93857744 137.5408,5.12072757 137.787336,5.44953848 Z"></path>
                        </g>
                        <g id="Shape">
                            <polygon fill="#268383" points="0 1.19594815 6.67912727 1.19594815 6.67912727 45.274569 0 45.274569"></polygon>
                            <path d="M67.4155182,1.19594815 L82.8216909,1.19594815 C88.6343091,1.19594815 93.4001091,3.7960771 96.2444636,8.62562101 C98.4094545,12.3413126 98.5940364,14.0118773 98.5940364,23.2344034 C98.5940364,33.1423442 98.0988273,34.8766187 96.1201273,37.971033 C93.5231636,42.0574386 88.9432273,45.274569 82.3871545,45.274569 L67.4155182,45.274569 L67.4155182,1.19594815 L67.4155182,1.19594815 Z M74.0972091,38.961314 L82.0778091,38.961314 C85.8497727,38.961314 88.5112545,37.6623184 90.2429909,35.1237614 C91.7286182,32.8956292 91.9132,31.6560676 91.9132,23.4845392 C91.9132,15.5592982 91.7286182,13.6407357 89.9332182,11.2253224 C87.8917091,8.43662956 85.6651909,7.51134112 82.0778091,7.51134112 L74.0972091,7.51134112 L74.0972091,38.961314 L74.0972091,38.961314 Z" fill="#268383"></path>
                            <path d="M130.4861,35.4316207 L113.781018,35.4316207 L110.378218,45.274569 L103.323518,45.274569 L119.350518,1.19594815 L124.918736,1.19594815 L140.941891,45.274569 L133.889755,45.274569 L130.4861,35.4316207 Z M128.567645,29.4899348 L122.197436,10.2337587 L122.071818,10.2337587 L115.698191,29.4899348 L128.567645,29.4899348 Z" fill="#268383"></path>
                            <g transform="translate(17.518182, 0.000000)">
                                <path d="M20.2864818,10.0092779 C19.9057818,10.3902538 19.2828182,10.3902538 18.9012636,10.0092779 L14.9323273,6.03618162 C14.5516273,5.65520565 14.5516273,5.03179042 14.9323273,4.65124203 L18.9012636,0.678145785 C19.2832455,0.298452559 19.9062091,0.298452559 20.2864818,0.678145785 L24.2567,4.65124203 C24.6361182,5.03179042 24.6361182,5.65520565 24.2567,6.03618162 L20.2864818,10.0092779 Z" fill="#55C4C4"></path>
                                <g transform="translate(0.000000, 5.986154)" fill="#55C4C4">
                                    <path d="M0.1034,5.96049952 C0.102118182,6.0391747 0.102118182,6.12084295 0.1034,6.19438713 L0.1034,5.96049952 Z"></path>
                                    <path d="M5.62248182,39.293118 C5.77544545,39.293118 5.91559091,39.2944007 6.04847273,39.293118 L5.62248182,39.293118 Z"></path>
                                    <path d="M32.5022091,0.451954663 C32.5184455,0.442120266 32.5316909,0.428437627 32.5492091,0.419885978 C32.5329727,0.428437627 32.5180182,0.442120266 32.5022091,0.451954663 Z"></path>
                                    <path d="M6.4343,39.2409529 C6.37277273,39.2584838 6.31124545,39.2755871 6.24330909,39.2820008 C6.30868182,39.2751595 6.37362727,39.2584838 6.4343,39.2409529 Z"></path>
                                    <path d="M0.1269,6.48300529 C0.129463636,6.50523958 0.135872727,6.52490838 0.139290909,6.54457717 C0.135445455,6.52490838 0.129463636,6.50523958 0.1269,6.48300529 Z"></path>
                                    <path d="M0.1034,33.3078187 C0.100836364,33.4407968 0.102118182,33.5814714 0.1034,33.7354011 L0.1034,33.3078187 Z"></path>
                                    <path d="M32.6632909,39.2229944 C32.7628455,39.2601941 32.8700909,39.2820008 32.9824636,39.287987 C32.8705182,39.2845663 32.7632727,39.2636148 32.6632909,39.2229944 Z"></path>
                                    <path d="M6.8526,39.0160445 C6.7774,39.0895887 6.68639091,39.1464572 6.59068182,39.1930637 C6.67912727,39.1537261 6.76629091,39.0925818 6.8526,39.0160445 Z"></path>
                                    <path d="M39.0813545,33.2462468 L39.0813545,33.771318 C39.0813545,33.5742025 39.0877636,33.4065902 39.0813545,33.2462468 Z"></path>
                                    <path d="M33.5622727,39.293118 L33.0743273,39.293118 C33.2225909,39.2969662 33.3811091,39.293118 33.5622727,39.293118 Z"></path>
                                    <path d="M32.0416091,38.3310574 L32.0416091,33.2107574 C32.0416091,32.6809828 32.4748636,32.2478417 33.0055364,32.2478417 L38.1195636,32.2478417 C38.5147909,32.2478417 38.8574636,32.4907086 39.0048727,32.8374779 C38.9583,32.7233134 38.8954909,32.6104317 38.7822636,32.4996878 L26.7797455,20.4833379 C26.3977636,20.1019343 26.3977636,19.4785191 26.7797455,19.0983983 L38.6899727,7.17184064 C38.7194545,7.14233745 38.7344091,7.10898602 38.7600455,7.07820008 C38.5891364,7.23341252 38.3682364,7.33474956 38.1212727,7.33474956 L33.0059636,7.33474956 C32.4752909,7.33474956 32.0420364,6.90118094 32.0420364,6.37226144 L32.0420364,1.2506787 C32.0420364,0.997977467 32.1454364,0.767938102 32.3090818,0.595194788 C32.2907091,0.612298086 32.2697727,0.618284241 32.2522545,0.637953034 L20.2826364,12.5978621 C19.9045,12.9784105 19.2802545,12.9784105 18.8995545,12.5978621 L6.92651818,0.645221936 C6.91540909,0.634532374 6.90344545,0.631966879 6.89319091,0.622132483 C7.04359091,0.79188272 7.14186364,1.00909461 7.14271818,1.2506787 L7.144,6.37226144 C7.144,6.90118094 6.71031818,7.33474956 6.18092727,7.33474956 L1.06647273,7.33474956 C0.816945455,7.33474956 0.590918182,7.23212977 0.418727273,7.07477942 C0.4277,7.08247591 0.431118182,7.0923103 0.438809091,7.0995792 L12.4045818,19.0988258 C12.7861364,19.4793742 12.7861364,20.1027895 12.4045818,20.4837654 L0.415309091,32.4847224 C0.302081818,32.5958939 0.237136364,32.7087756 0.188427273,32.8225126 C0.339681818,32.4847224 0.676372727,32.2478417 1.06647273,32.2478417 L6.18092727,32.2478417 C6.71031818,32.2478417 7.14229091,32.6809828 7.14357273,33.2107574 L7.14485455,38.3310574 C7.14485455,38.5944482 7.03632727,38.8351771 6.86370909,39.0087756 C6.87866364,38.9942378 6.89703636,38.9891068 6.91327273,38.9720035 L18.8999818,26.983874 C19.2806818,26.6028981 19.9049273,26.6028981 20.2830636,26.983874 L32.2830182,38.9865413 C32.3962455,39.0998507 32.5081909,39.1648432 32.6227,39.21316 C32.2830182,39.062651 32.0416091,38.722723 32.0416091,38.3310574 Z"></path>
                                    <path d="M39.0053,32.8374779 C39.0531545,32.9482218 39.0779364,33.0726483 39.0792182,33.200923 C39.0728091,33.073931 39.0518727,32.9529252 39.0053,32.8374779 Z"></path>
                                    <path d="M0.167490909,32.8943464 C0.139290909,32.9849939 0.118354545,33.0777793 0.112372727,33.1761233 C0.113227273,33.076069 0.1363,32.982856 0.167490909,32.8943464 Z"></path>
                                </g>
                                <g transform="translate(0.000000, 5.986154)" fill="#268383">
                                    <path d="M6.1805,0.289473327 L1.06604545,0.289473327 C0.536654545,0.289473327 0.1034,0.723469526 0.1034,1.2506787 L0.1034,6.37226144 C0.1034,6.90118094 0.537081818,7.33474956 1.06604545,7.33474956 L6.18135455,7.33474956 C6.71074545,7.33474956 7.14442727,6.90118094 7.14442727,6.37226144 L7.14314545,1.2506787 C7.14229091,0.723041944 6.71031818,0.289473327 6.1805,0.289473327 Z"></path>
                                    <path d="M38.1195636,0.289473327 L33.0055364,0.289473327 C32.4748636,0.289473327 32.0416091,0.723469526 32.0416091,1.2506787 L32.0416091,6.37226144 C32.0416091,6.90118094 32.4748636,7.33474956 33.0055364,7.33474956 L38.1208455,7.33474956 C38.6502364,7.33474956 39.0813545,6.90118094 39.0813545,6.37226144 L39.0813545,1.2506787 C39.0787909,0.723041944 38.6481,0.289473327 38.1195636,0.289473327 Z"></path>
                                    <path d="M6.1805,32.2478417 L1.06604545,32.2478417 C0.536654545,32.2478417 0.1034,32.6809828 0.1034,33.2107574 L0.1034,38.3310574 C0.1034,38.8582666 0.537081818,39.2935455 1.06604545,39.2935455 L6.18135455,39.2935455 C6.71074545,39.2935455 7.14442727,38.8582666 7.14442727,38.3310574 L7.14314545,33.2107574 C7.14229091,32.6809828 6.71031818,32.2478417 6.1805,32.2478417 Z"></path>
                                    <path d="M38.1195636,32.2478417 L33.0055364,32.2478417 C32.4748636,32.2478417 32.0416091,32.6809828 32.0416091,33.2107574 L32.0416091,38.3310574 C32.0416091,38.8582666 32.4748636,39.2935455 33.0055364,39.2935455 L38.1208455,39.2935455 C38.6502364,39.2935455 39.0813545,38.8582666 39.0813545,38.3310574 L39.0813545,33.2107574 C39.0787909,32.6809828 38.6481,32.2478417 38.1195636,32.2478417 Z"></path>
                                </g>
                            </g>
                        </g>
                    </g>
                </g>
            </g>
        </g>
    </g>
</svg>