<svg width="233" height="121" xmlns="http://www.w3.org/2000/svg"><title>IXDA SCL</title><g fill="none" fill-rule="evenodd"><path fill="#FFF" d="M0 0h233v121H0z"/><g fill-rule="nonzero"><path d="M72.48 81.038c.364.3.851.497 1.365.497.595 0 .954-.28.954-.692 0-.35-.197-.615-.63-.67-.216-.028-.385-.057-.635-.091-.831-.12-1.277-.679-1.277-1.398 0-.853.574-1.454 1.567-1.454.595 0 1.123.216 1.562.517l-.405.621c-.352-.23-.764-.383-1.19-.383-.446 0-.804.237-.804.712 0 .28.196.56.683.635.128.022.31.05.54.077.9.113 1.318.756 1.318 1.433 0 .916-.655 1.447-1.69 1.447-.709 0-1.331-.224-1.838-.684l.48-.567zm17.275.098H87.93l-.372 1.112h-.77l1.75-4.976h.61l1.75 4.976h-.77l-.373-1.112zm-.21-.67l-.695-2.173h-.014l-.696 2.173h1.406zm13.108-3.194h.69l2.176 3.536h.014v-3.536h.73v4.976h-.69l-2.177-3.537h-.013v3.537h-.73v-4.976zm16.682.671h-1.318v-.672h3.366v.672h-1.317v4.305h-.73v-4.305zm13.802-.671h.73v4.976h-.73zm15.452 3.864h-1.826l-.372 1.112h-.77l1.75-4.976h.608l1.752 4.976h-.77l-.372-1.112zm-.21-.67l-.697-2.173h-.013l-.696 2.173h1.406zm14.547-.958h1.71v1.013c0 .986-.757 1.768-1.718 1.768a1.703 1.703 0 0 1-1.506-.894c-.156-.294-.21-.44-.21-1.636 0-1.194.054-1.341.21-1.634a1.7 1.7 0 0 1 1.506-.895c.914 0 1.542.664 1.691 1.475h-.77c-.116-.385-.46-.72-.92-.72a.916.916 0 0 0-.744.363c-.189.251-.243.39-.243 1.412 0 1.02.054 1.16.243 1.412a.916.916 0 0 0 .743.364c.555 0 .988-.435.988-1.056v-.259h-.98v-.713zm13.849-1.384c.23-.434.75-.894 1.508-.894.757 0 1.277.46 1.508.894.155.294.209.441.209 1.635 0 1.196-.054 1.341-.21 1.636-.23.432-.75.894-1.507.894a1.705 1.705 0 0 1-1.508-.894c-.156-.295-.21-.44-.21-1.636 0-1.194.055-1.341.21-1.635zm.764 3.047a.916.916 0 0 0 .744.364.916.916 0 0 0 .743-.364c.19-.252.244-.392.244-1.412s-.054-1.16-.244-1.412a.914.914 0 0 0-.743-.362.916.916 0 0 0-.744.362c-.189.252-.243.391-.243 1.412 0 1.02.054 1.16.243 1.412zM72 37.917h5.116V71.71H72zm51.637 0h11.8c4.453 0 8.104 1.993 10.282 5.696 1.658 2.849 1.8 4.13 1.8 11.2 0 7.596-.38 8.926-1.895 11.298-1.99 3.133-5.497 5.6-10.519 5.6h-11.468V37.917zm5.118 28.953h6.113c2.89 0 4.928-.996 6.254-2.942 1.138-1.708 1.28-2.658 1.28-8.923 0-6.076-.142-7.547-1.517-9.399-1.564-2.138-3.27-2.847-6.017-2.847h-6.113V66.87zm43.192-2.706H159.15l-2.606 7.547h-5.404l12.276-33.794h4.265l12.273 33.794h-5.401l-2.607-7.547zm-1.47-4.555l-4.879-14.763h-.096l-4.882 14.763h9.857z" fill="#268383"/><path d="M100.957 44.674a.752.752 0 0 1-1.061 0l-3.04-3.046a.754.754 0 0 1 0-1.062l3.04-3.046a.754.754 0 0 1 1.06 0l3.042 3.046c.29.292.29.77 0 1.062l-3.041 3.046z" fill="#55C4C4"/><path d="M85.497 46.16v.178-.179zm4.228 25.554h.326-.326zm20.588-29.778c.013-.008.023-.018.036-.025-.012.007-.023.017-.036.025zM90.347 71.674zM85.515 46.56c.002.017.007.032.01.047-.003-.015-.008-.03-.01-.047zm-.018 20.565c-.002.102 0 .21 0 .328v-.328zm24.94 4.535zm-19.77-.158zm24.686-4.424v.403c0-.151.005-.28 0-.403zm-4.228 4.636h-.373c.113.003.235 0 .373 0zm-1.165-.737V67.05a.74.74 0 0 1 .739-.738h3.917a.74.74 0 0 1 .678.452.732.732 0 0 0-.17-.26l-9.194-9.212a.752.752 0 0 1 0-1.062l9.123-9.143c.023-.023.034-.048.054-.072a.726.726 0 0 1-.49.197H110.7a.74.74 0 0 1-.738-.738v-3.927c0-.193.08-.37.205-.502-.015.013-.03.017-.044.032l-9.168 9.17a.75.75 0 0 1-1.06 0l-9.17-9.164c-.009-.008-.018-.01-.026-.018a.73.73 0 0 1 .191.482l.001 3.927a.74.74 0 0 1-.737.738h-3.918a.736.736 0 0 1-.496-.2c.007.006.01.014.015.02l9.166 9.199a.753.753 0 0 1 0 1.062l-9.184 9.2a.775.775 0 0 0-.173.26.74.74 0 0 1 .672-.441h3.918a.74.74 0 0 1 .737.738v3.926a.738.738 0 0 1-.215.52c.012-.012.026-.016.038-.03l9.182-9.19a.75.75 0 0 1 1.06 0l9.19 9.202a.782.782 0 0 0 .26.174.745.745 0 0 1-.444-.676zm5.335-4.212zm-29.749.043a.909.909 0 0 0-.042.216c0-.076.019-.148.042-.216z" fill="#55C4C4"/><path d="M90.152 41.811h-3.917a.74.74 0 0 0-.738.737v3.927a.74.74 0 0 0 .738.738h3.918a.74.74 0 0 0 .738-.738l-.001-3.927a.74.74 0 0 0-.738-.737zm24.464 0H110.7a.74.74 0 0 0-.738.737v3.927a.74.74 0 0 0 .738.738h3.918a.739.739 0 0 0 .736-.738v-3.927a.741.741 0 0 0-.737-.737zM90.152 66.313h-3.917a.74.74 0 0 0-.738.738v3.926c0 .404.333.737.738.737h3.918a.741.741 0 0 0 .738-.737l-.001-3.926a.74.74 0 0 0-.738-.738zm24.464 0H110.7a.74.74 0 0 0-.738.738v3.926a.74.74 0 0 0 .738.737h3.918a.74.74 0 0 0 .736-.737V67.05a.741.741 0 0 0-.737-.738z" fill="#268383"/></g></g></svg>