<svg width="233" height="121" xmlns="http://www.w3.org/2000/svg"><title>Groupon Copy</title><g fill="none" fill-rule="evenodd"><path fill="#FFF" d="M0 0h233v121H0z"/><g fill-rule="nonzero"><path d="M56.626 88.441a2.843 2.843 0 0 0 1.783.649c.777 0 1.245-.366 1.245-.904 0-.455-.257-.802-.822-.874-.282-.036-.503-.073-.83-.119-1.085-.155-1.667-.884-1.667-1.822 0-1.113.75-1.897 2.047-1.897.776 0 1.465.282 2.039.674l-.53.81c-.459-.3-.997-.5-1.552-.5-.582 0-1.05.31-1.05.93 0 .364.256.73.89.828.168.029.406.064.707.1 1.173.147 1.72.986 1.72 1.87 0 1.194-.855 1.886-2.206 1.886-.925 0-1.739-.291-2.4-.892l.626-.739zm22.554.129h-2.383l-.485 1.45h-1.006l2.285-6.492h.796l2.285 6.491h-1.005l-.487-1.45zm-.273-.876l-.909-2.834h-.017l-.91 2.834h1.836zm17.112-4.166h.9l2.842 4.612h.018v-4.612h.953v6.491h-.9l-2.842-4.613h-.018v4.613h-.953v-6.49zm21.78.876h-1.721v-.876h4.394v.876h-1.72v5.615h-.953v-5.615zm18.019-.876h.954v6.491h-.954zm20.173 5.042h-2.384l-.485 1.45h-1.006l2.286-6.492h.793l2.287 6.491h-1.005l-.486-1.45zm-.275-.876l-.908-2.834h-.017l-.91 2.834h1.835zm18.993-1.249h2.233v1.321c0 1.286-.99 2.307-2.243 2.307a2.224 2.224 0 0 1-1.967-1.166c-.204-.384-.274-.575-.274-2.134 0-1.558.07-1.75.274-2.132.3-.566.98-1.167 1.967-1.167 1.192 0 2.013.866 2.207 1.923H175.9c-.15-.502-.6-.938-1.201-.938-.45 0-.775.218-.97.473-.247.328-.318.51-.318 1.841s.071 1.513.318 1.842c.194.256.52.475.97.475.724 0 1.29-.567 1.29-1.378v-.337h-1.28v-.93zm18.081-1.805c.3-.566.98-1.166 1.969-1.166.988 0 1.666.6 1.968 1.167.202.382.273.574.273 2.132 0 1.559-.07 1.75-.273 2.134a2.227 2.227 0 0 1-1.968 1.166 2.226 2.226 0 0 1-1.97-1.166c-.203-.385-.273-.575-.273-2.134 0-1.558.07-1.75.274-2.132zm.997 3.975c.194.255.521.474.972.474.449 0 .777-.22.97-.474.247-.33.317-.511.317-1.842s-.07-1.514-.317-1.842a1.194 1.194 0 0 0-.97-.473c-.451 0-.778.218-.972.473-.246.328-.318.51-.318 1.842 0 1.33.072 1.513.318 1.842zM56 32.196h6.68v44.079H56zm67.416 0h15.406c5.812 0 10.578 2.6 13.422 7.43 2.165 3.715 2.35 5.386 2.35 14.608 0 9.908-.495 11.643-2.474 14.737-2.597 4.086-7.177 7.304-13.733 7.304h-14.971v-44.08zm6.681 37.765h7.98c3.773 0 6.434-1.299 8.166-3.837 1.486-2.228 1.67-3.468 1.67-11.64 0-7.925-.184-9.843-1.98-12.259-2.041-2.788-4.268-3.714-7.855-3.714h-7.98v31.45zm56.389-3.529h-16.705l-3.403 9.843h-7.054l16.027-44.08h5.568l16.023 44.08h-7.052l-3.404-9.843zm-1.918-5.942l-6.37-19.256h-.126l-6.374 19.256h12.87z" fill="#268383"/><path d="M93.805 41.01a.982.982 0 0 1-1.386 0l-3.968-3.974a.982.982 0 0 1 0-1.385l3.968-3.973a.985.985 0 0 1 1.386 0l3.97 3.973a.985.985 0 0 1 0 1.385l-3.97 3.973z" fill="#55C4C4"/><g fill="#55C4C4"><path d="M73.622 42.947c-.002.078-.002.16 0 .234v-.234zM79.14 76.28h.427-.426zm26.88-38.842c.017-.01.03-.023.047-.032-.016.009-.03.022-.047.032zM79.952 76.227zM73.645 43.47c.003.021.01.041.012.06-.003-.019-.01-.039-.012-.06zm-.023 26.824c-.003.133-.002.274 0 .428v-.428zm32.559 5.916zm-25.811-.208zm32.23-5.77v.525c0-.197.006-.364 0-.525zm-5.52 6.048h-.487c.148.003.306 0 .487 0zm-1.52-.963v-5.12c0-.53.433-.963.964-.963h5.114c.395 0 .738.243.885.59a.955.955 0 0 0-.223-.338l-12.002-12.017a.98.98 0 0 1 0-1.384l11.91-11.927c.03-.03.045-.063.07-.094a.948.948 0 0 1-.639.257h-5.115a.966.966 0 0 1-.964-.963v-5.121c0-.253.104-.483.267-.656-.018.017-.039.023-.057.043L93.8 49.584a.98.98 0 0 1-1.382 0L80.445 37.631c-.011-.01-.023-.013-.034-.023.15.17.249.387.25.629l.001 5.121a.966.966 0 0 1-.963.963h-5.114a.961.961 0 0 1-.648-.26c.009.008.012.017.02.025l11.966 11.999a.98.98 0 0 1 0 1.385l-11.99 12a1.01 1.01 0 0 0-.226.339.965.965 0 0 1 .878-.575h5.114c.53 0 .961.433.963.963l.001 5.12a.962.962 0 0 1-.281.678c.015-.015.033-.02.05-.037L92.417 63.97a.98.98 0 0 1 1.383 0l12 12.003c.113.113.225.178.34.226a.971.971 0 0 1-.581-.882z"/><path d="M112.523 69.824a.93.93 0 0 1 .074.363 1.108 1.108 0 0 0-.074-.363zm-38.837.056a1.11 1.11 0 0 0-.055.282c0-.1.023-.193.055-.281z"/></g><path d="M79.699 37.276h-5.115a.966.966 0 0 0-.962.96v5.122c0 .53.433.963.962.963H79.7a.967.967 0 0 0 .963-.963l-.002-5.121a.966.966 0 0 0-.962-.961zm31.939 0h-5.114a.966.966 0 0 0-.964.96v5.122c0 .53.433.963.964.963h5.115c.53 0 .96-.434.96-.963v-5.121a.967.967 0 0 0-.961-.961zM79.699 69.234h-5.115a.966.966 0 0 0-.962.963v5.12c0 .527.433.963.962.963H79.7a.968.968 0 0 0 .963-.963l-.002-5.12a.966.966 0 0 0-.962-.963zm31.939 0h-5.114a.966.966 0 0 0-.964.963v5.12c0 .527.433.963.964.963h5.115c.53 0 .96-.436.96-.963v-5.12a.967.967 0 0 0-.961-.963z" fill="#268383"/></g></g></svg>