<svg width="233" height="121" xmlns="http://www.w3.org/2000/svg" xmlns:xlink="http://www.w3.org/1999/xlink"><title>Group 12</title><defs><path id="a" d="M7.34 46.463H0V.073h14.679v46.39z"/></defs><g fill="none" fill-rule="evenodd"><path fill="#FFF" d="M0 0h233v121H0z"/><g transform="translate(62 35.281)"><mask id="b" fill="#fff"><use xlink:href="#a"/></mask><path d="M9.272 46.463c-1.73-.04-3.193-.276-4.388-.708-1.196-.432-2.152-1.023-2.87-1.77A6.515 6.515 0 0 1 .47 41.329C.157 40.306 0 39.184 0 37.964c0-1.258.138-2.586.414-3.983.276-1.397.58-2.784.91-4.161L7.727 1.253 14.68.073a5984.078 5984.078 0 0 1-3.446 15.374A3559.314 3559.314 0 0 1 7.73 30.822a56.033 56.033 0 0 1-.575 2.45 9.5 9.5 0 0 0-.313 2.39c0 .67.009 1.29.028 1.86.017.57.165 1.062.441 1.475.276.413.69.757 1.242 1.033.552.276 1.269.452 2.152.531l-1.434 5.902z" fill="#199BD8" mask="url(#b)"/></g><path d="M80.28 43.604c-.844 0-1.58-.253-2.204-.76-.626-.507-.938-1.267-.938-2.28 0-1.171.398-2.138 1.196-2.898.797-.758 1.712-1.14 2.743-1.14.845 0 1.588.262 2.228.784.641.523.962 1.29.962 2.304 0 1.172-.406 2.13-1.22 2.874-.813.744-1.735 1.116-2.767 1.116zm-4.22 28.594h-5.676l5.91-24.842h5.675l-5.91 24.842zm7.516-23.573a48.99 48.99 0 0 1 4.291-1.058c1.61-.33 3.369-.494 5.276-.494 2.876 0 4.987.705 6.332 2.118 1.344 1.411 2.017 3.308 2.017 5.692 0 .658-.055 1.357-.164 2.093-.11.737-.244 1.5-.4 2.282l-3.095 12.94h-5.668l2.901-12.328c.156-.688.312-1.395.47-2.117.155-.72.25-1.412.281-2.07.03-1.098-.228-2.007-.774-2.73-.547-.72-1.618-1.082-3.213-1.082-1.345 0-2.502.142-3.47.424l-4.704 19.903h-5.708l5.628-23.573zm32.08 2.722c-.938 0-1.83.19-2.673.565a7.424 7.424 0 0 0-2.252 1.554 10.045 10.045 0 0 0-1.712 2.328 10.631 10.631 0 0 0-1.055 2.894c3.752-.126 6.48-.58 8.184-1.365 1.704-.783 2.556-1.96 2.556-3.528 0-.627-.227-1.192-.68-1.694-.453-.501-1.242-.754-2.368-.754m-13.649 11.67c0-2.102.336-4.133 1.01-6.094.67-1.96 1.64-3.7 2.907-5.222a14.413 14.413 0 0 1 4.573-3.647c1.782-.909 3.783-1.363 6.002-1.363 2.377 0 4.222.61 5.535 1.835 1.313 1.223 1.97 2.792 1.97 4.704 0 1.976-.485 3.576-1.454 4.799-.97 1.223-2.227 2.181-3.776 2.87-1.548.69-3.3 1.161-5.252 1.412a61.692 61.692 0 0 1-5.933.471.412.412 0 0 0-.047.186v.471c0 2.856 1.797 4.283 5.393 4.283 2.127 0 4.252-.44 6.379-1.318l.47 4.612c-.751.345-1.815.689-3.19 1.034-1.377.345-2.94.518-4.69.518-1.752 0-3.253-.252-4.503-.754-1.25-.5-2.275-1.19-3.072-2.07a8.307 8.307 0 0 1-1.759-3.035c-.375-1.143-.563-2.376-.563-3.693m27.021-22.199l5.91-.95-1.791 7.5h8.029l-1.125 4.747h-8.038l-2.346 9.825c-.15.696-.255 1.275-.314 1.733a9.7 9.7 0 0 0-.09 1.257c0 .38.039.753.117 1.116.078.364.235.68.469.95.235.268.579.49 1.032.664.453.174 1.07.26 1.852.26a8.9 8.9 0 0 0 2.44-.331 17.18 17.18 0 0 0 2.062-.713l.423 4.605c-.72.317-1.626.617-2.72.901-1.095.286-2.376.428-3.846.428-2.69 0-4.612-.593-5.769-1.78-1.157-1.186-1.735-2.81-1.735-4.866 0-.759.054-1.542.164-2.349.11-.807.273-1.67.492-2.587l4.784-20.41zm18.332 27.381c1.501 0 2.689-.243 3.565-.73.874-.486 1.313-1.23 1.313-2.233 0-.817-.282-1.467-.845-1.954-.562-.486-1.547-1.058-2.954-1.717a23.684 23.684 0 0 1-2.087-1.082 7.348 7.348 0 0 1-1.665-1.318 5.843 5.843 0 0 1-1.126-1.764c-.282-.675-.423-1.483-.423-2.423 0-2.447.892-4.39 2.674-5.835 1.783-1.442 4.362-2.163 7.739-2.163 1.563 0 2.962.164 4.197.493 1.234.33 2.165.667 2.792 1.013l-2.018 4.422c-.53-.314-1.298-.619-2.298-.918a11.004 11.004 0 0 0-3.142-.446 8.8 8.8 0 0 0-1.571.14 4.659 4.659 0 0 0-1.384.47 2.82 2.82 0 0 0-1.008.919c-.267.392-.399.87-.399 1.435 0 .722.288 1.31.867 1.764.579.454 1.415.934 2.51 1.435 1.032.47 1.907.925 2.627 1.365.717.439 1.313.933 1.781 1.481a5.34 5.34 0 0 1 1.033 1.835c.218.675.328 1.482.328 2.424 0 1.16-.234 2.234-.703 3.222a7.108 7.108 0 0 1-2.04 2.541c-.892.705-1.994 1.263-3.307 1.67-1.314.408-2.814.612-4.503.612a18.8 18.8 0 0 1-3.119-.236 21.095 21.095 0 0 1-2.416-.54 12.547 12.547 0 0 1-1.735-.635c-.469-.22-.828-.407-1.079-.565l2.018-4.47c.218.126.539.29.96.494.422.204.907.4 1.455.588.546.188 1.156.353 1.83.494.67.14 1.383.212 2.133.212" fill="#199BD8"/><path d="M173.602 38.829c4.261.438 7.379 4.173 6.957 8.342-.42 4.17-4.214 7.195-8.472 6.755a7.835 7.835 0 0 1-3.486-1.228l-4.025.836-1.861.267.63-1.262.004.002.163-.346.002-.006 1.852-3.884a7.388 7.388 0 0 1-.24-2.723c.419-4.17 4.214-7.196 8.476-6.753m.36-3.582c-6.283-.646-11.875 3.813-12.493 9.959a11.01 11.01 0 0 0 .245 3.624l-3.704 8.656 8.822-1.638a11.581 11.581 0 0 0 4.894 1.659c6.282.646 11.873-3.81 12.492-9.957.619-6.148-3.973-11.655-10.255-12.303" fill="#199BD8"/><path d="M168.516 47.678a4.06 4.06 0 0 1 .224-1.343 3.43 3.43 0 0 1 .637-1.118 2.972 2.972 0 0 1 1.013-.763c.4-.186.855-.278 1.366-.277.268 0 .515.022.739.068.223.045.436.112.635.202l-.444 1.006a2.73 2.73 0 0 0-.414-.145 2.11 2.11 0 0 0-.559-.063 1.72 1.72 0 0 0-.8.18 1.8 1.8 0 0 0-.606.492 2.256 2.256 0 0 0-.383.736 2.96 2.96 0 0 0-.136.902c0 .18.018.345.057.494.038.148.099.28.186.393a.828.828 0 0 0 .355.265c.152.062.342.093.569.095.235 0 .46-.03.678-.093.217-.062.384-.124.501-.187l.102 1.028c-.158.075-.369.15-.63.222-.263.073-.56.109-.89.109-.379-.002-.706-.059-.98-.174a1.913 1.913 0 0 1-.69-.466 1.843 1.843 0 0 1-.401-.696 2.796 2.796 0 0 1-.13-.867m6.306 2.165a2.762 2.762 0 0 1-.822-.126 1.402 1.402 0 0 1-.537-.312 1.137 1.137 0 0 1-.29-.467 1.884 1.884 0 0 1-.087-.59c0-.223.026-.455.08-.7.051-.246.108-.49.17-.732l1.205-5.019 1.303-.206-.648 2.7a560.035 560.035 0 0 1-.768 3.133c-.04.142-.059.282-.059.42 0 .118.002.227.005.327.004.1.031.186.082.259.052.073.13.134.233.182.103.048.237.08.403.094l-.27 1.037z" fill="#199BD8"/></g></svg>