<?xml version="1.0" encoding="UTF-8" standalone="no"?>
<svg width="180px" height="68px" viewBox="0 0 180 68" version="1.1" xmlns="http://www.w3.org/2000/svg" xmlns:xlink="http://www.w3.org/1999/xlink">
    <!-- Generator: Sketch 41.2 (35397) - http://www.bohemiancoding.com/sketch -->
    <title>Group 13</title>
    <desc>Created with Sketch.</desc>
    <defs>
        <polygon id="path-1" points="7.99582373 50.3352081 0 50.3352081 0 0.0784989555 15.9916475 0.0784989555 15.9916475 50.3352081"></polygon>
    </defs>
    <g id="Page-1" stroke="none" stroke-width="1" fill="none" fill-rule="evenodd">
        <g id="Artboard" transform="translate(-635.000000, -180.000000)">
            <g id="Group-13" transform="translate(635.000000, 180.000000)">
                <rect id="Rectangle-6" fill="#FFFFFF" x="0" y="0" width="180" height="68"></rect>
                <g id="Page-1" transform="translate(28.479167, 8.748299)">
                    <g id="Group-3" transform="translate(0.000000, 0.304808)">
                        <mask id="mask-2" fill="white">
                            <use xlink:href="#path-1"></use>
                        </mask>
                        <g id="Clip-2"></g>
                        <path d="M10.1008373,50.3352081 C8.21625856,50.2920636 6.62221574,50.0363927 5.32111157,49.5681954 C4.01820532,49.0995986 2.97660116,48.4596224 2.19509769,47.6500644 C1.41299352,46.8403068 0.851344213,45.8813412 0.511951852,44.7727681 C0.170557176,43.6651938 -4.00462962e-05,42.4493588 -4.00462962e-05,41.1274604 C-4.00462962e-05,39.7644149 0.150534028,38.3260664 0.45088125,36.813014 C0.751829167,35.2997619 1.08241134,33.7968964 1.44322847,32.3046172 L8.41729097,1.35745268 L15.9916475,0.0784989555 C14.7408014,5.66350988 13.4885537,11.215763 12.2373072,16.7340598 C10.9856602,22.255153 9.71439051,27.8074061 8.42249699,33.3906193 C8.23247731,34.2858669 8.02303519,35.1727254 7.79637315,36.0446031 C7.56870995,36.9180787 7.4551787,37.7813675 7.4551787,38.6340699 C7.4551787,39.3597358 7.46438935,40.0306722 7.48501319,40.6484769 C7.50443565,41.2672804 7.66542176,41.7991957 7.96636968,42.2464201 C8.26691713,42.6940439 8.71783843,43.0673633 9.3193338,43.3653797 C9.92022847,43.6651938 10.7013315,43.8557485 11.6634438,43.9410387 L10.1008373,50.3352081 Z" id="Fill-1" fill="#199BD8" mask="url(#mask-2)"></path>
                    </g>
                    <path d="M19.9146227,9.32084213 C18.9957604,9.32084213 18.1940336,9.0463954 17.513647,8.49770169 C16.8312581,7.94860848 16.4918657,7.12546804 16.4918657,6.02828035 C16.4918657,4.75871454 16.9253669,3.71186206 17.7951725,2.88832213 C18.6633762,2.06657988 19.6595278,1.65411081 20.7834271,1.65411081 C21.7032905,1.65411081 22.5126262,1.93734623 23.2106331,2.50281835 C23.90864,3.0688897 24.258044,3.90081883 24.258044,4.9988055 C24.258044,6.2683713 23.8155324,7.30563612 22.9301088,8.11219791 C22.0438843,8.91836021 21.0389225,9.32084213 19.9146227,9.32084213 L19.9146227,9.32084213 Z M15.3169074,40.2973689 L9.13395949,40.2973689 L15.5722025,13.3852104 L21.7543495,13.3852104 L15.3169074,40.2973689 Z" id="Fill-4" fill="#199BD8"></path>
                    <path d="M23.5052937,14.7600408 C24.8672683,14.351966 26.4260704,13.9704571 28.1802984,13.6141158 C29.9343262,13.2569755 31.8503412,13.0788049 33.9283435,13.0788049 C37.0615657,13.0788049 39.3612243,13.8430211 40.8263181,15.3730517 C42.2908111,16.9022832 43.0238586,18.9576376 43.0238586,21.5401134 C43.0238586,22.2531955 42.9633887,23.0098216 42.8446514,23.8071952 C42.7247127,24.605967 42.5795449,25.4313046 42.4099488,26.2794129 L39.0376502,40.2973689 L32.8625113,40.2973689 L36.0235657,26.9423596 C36.1927613,26.1967194 36.3633586,25.4313046 36.5343562,24.6495109 C36.7039523,23.8681168 36.8068713,23.1198799 36.8413111,22.4071973 C36.8745495,21.2169294 36.5932243,20.2321969 35.9979361,19.4496043 C35.4016468,18.6682101 34.2350981,18.2771135 32.4978898,18.2771135 C31.0323956,18.2771135 29.7721387,18.4307158 28.7165183,18.7365222 L23.5929951,40.2973689 L17.3738053,40.2973689 L23.5052937,14.7600408 Z" id="Fill-6" fill="#199BD8"></path>
                    <path d="M58.4542972,17.7097439 C57.4323157,17.7097439 56.4615935,17.9150796 55.5421306,18.3215563 C54.6224674,18.7296311 53.8051225,19.2905091 53.0892949,20.0047897 C52.3736676,20.7174723 51.7521491,21.5587893 51.2241387,22.5269431 C50.695928,23.4956961 50.3116838,24.5407509 50.0744095,25.6615083 C54.1623354,25.5256831 57.1335704,25.0333169 58.9903169,24.1832112 C60.8472637,23.3347034 61.7749361,22.060943 61.7749361,20.361131 C61.7749361,19.6820052 61.5272498,19.0697932 61.0340796,18.5260931 C60.5403088,17.9829921 59.680715,17.7097439 58.4542972,17.7097439 M43.5853076,30.3510718 C43.5853076,28.0748019 43.9511306,25.874634 44.684178,23.7497691 C45.4156236,21.6267019 46.4720449,19.741928 47.85184,18.092651 C49.231435,16.4441729 50.8917544,15.1290657 52.8337995,14.1423359 C54.7750438,13.1572039 56.9553644,12.6648377 59.3731595,12.6648377 C61.962553,12.6648377 63.9722764,13.3269854 65.4027301,14.6530784 C66.8327833,15.9781728 67.5494118,17.6775853 67.5494118,19.7495183 C67.5494118,21.8903625 67.0202,23.6227326 65.9653806,24.9480267 C64.9089593,26.2727215 63.5383748,27.3111848 61.851825,28.0580235 C60.1652752,28.8054614 58.2566688,29.315405 56.1292093,29.5866558 C54.0005484,29.8591051 51.844656,30.0288866 49.665737,30.0971986 C49.6312972,30.1649115 49.6148782,30.2332235 49.6148782,30.2991387 L49.6148782,30.8090823 C49.6148782,33.9025004 51.5725414,35.4485104 55.4902706,35.4485104 C57.8071491,35.4485104 60.1224257,34.9729226 62.4391039,34.0213474 L62.9506954,39.0173166 C62.1331502,39.3910355 60.9746109,39.7637558 59.4760785,40.1378742 C57.9763447,40.5111937 56.2735762,40.6983527 54.3663713,40.6983527 C52.4583655,40.6983527 50.8228748,40.4261032 49.4617012,39.8822033 C48.0987255,39.3401011 46.9830356,38.592064 46.1144315,37.6392904 C45.246428,36.688714 44.6070889,35.5927247 44.1984164,34.3515224 C43.789744,33.1133163 43.5853076,31.7778353 43.5853076,30.3510718" id="Fill-8" fill="#199BD8"></path>
                    <path d="M73.0228995,6.30148867 L79.4605419,5.27301253 L77.5092861,13.3983535 L86.2563984,13.3983535 L85.0309817,18.5403347 L76.2740581,18.5403347 L73.7185037,29.1838343 C73.5557155,29.9382632 73.4411831,30.5656556 73.3765083,31.0608183 C73.3106322,31.558977 73.2783949,32.0125931 73.2783949,32.4230648 C73.2783949,32.8349346 73.3206438,33.238615 73.4057421,33.6321085 C73.49044,34.0266007 73.6614377,34.3693595 73.9165326,34.6613836 C74.1728289,34.9514103 74.5470616,35.1928994 75.0412329,35.3808575 C75.5346032,35.5688155 76.2069806,35.6628944 77.0587653,35.6628944 C77.9790292,35.6628944 78.8644528,35.5436479 79.7162375,35.303557 C80.5676218,35.0640652 81.3166877,34.8065967 81.9638359,34.5315507 L82.4245685,39.5201294 C81.6402618,39.8630879 80.6525199,40.1884691 79.4605419,40.4964726 C78.2681634,40.8058743 76.8721495,40.9602756 75.2710986,40.9602756 C72.3411113,40.9602756 70.2460894,40.3171035 68.9864331,39.0311588 C67.7255755,37.7464125 67.0956472,35.9882756 67.0956472,33.7597442 C67.0956472,32.9380019 67.1545153,32.0890946 67.2746542,31.215619 C67.3937919,30.3411446 67.5719979,29.4061482 67.8110743,28.4130265 L73.0228995,6.30148867 Z" id="Fill-10" fill="#199BD8"></path>
                    <path d="M92.9936471,35.9639869 C94.6291378,35.9639869 95.9232339,35.7011252 96.8775372,35.1742035 C97.8298381,34.6472817 98.3079909,33.8407199 98.3079909,32.7545181 C98.3079909,31.8698569 98.001036,31.1657632 97.3873265,30.6378427 C96.7750186,30.1113205 95.7019781,29.4915183 94.1690059,28.7774374 C93.3508601,28.40252 92.5919828,28.0126219 91.8951772,27.6053462 C91.1967698,27.1976709 90.5924712,26.7214839 90.0816807,26.177584 C89.5704897,25.6340836 89.1614168,24.9981022 88.8548624,24.2662443 C88.548308,23.5357845 88.3947304,22.6605112 88.3947304,21.641423 C88.3947304,18.9906351 89.3664538,16.8849456 91.307698,15.320759 C93.2497432,13.7585699 96.0589909,12.9771757 99.7382443,12.9771757 C101.441013,12.9771757 102.965375,13.1547471 104.311331,13.5112882 C105.655485,13.8686282 106.669457,14.2343574 107.352046,14.6082761 L105.153905,19.3995088 C104.576037,19.0593466 103.740471,18.7287722 102.650811,18.4045895 C101.55975,18.0832031 100.419232,17.9212117 99.2274538,17.9212117 C98.647183,17.9212117 98.0781251,17.9725456 97.5160753,18.0736155 C96.9532247,18.1756841 96.4500429,18.345865 96.0087328,18.5825604 C95.5648196,18.8214529 95.1983959,19.1524268 94.9100626,19.5774797 C94.6195267,20.0029321 94.4755603,20.5202661 94.4755603,21.1320786 C94.4755603,21.9142718 94.7897235,22.5508524 95.4202524,23.0434183 C96.0505811,23.5357845 96.9616344,24.0553158 98.1552142,24.598217 C99.2785128,25.1081606 100.232215,25.6005268 101.015921,26.0765141 C101.798026,26.5525014 102.446375,27.0874129 102.957166,27.6818477 C103.467956,28.2762825 103.84339,28.9392292 104.081866,29.6692894 C104.319541,30.4003484 104.439479,31.274623 104.439479,32.2951095 C104.439479,33.5518917 104.183984,34.7157935 103.673193,35.7856165 C103.161602,36.8562383 102.420145,37.7738572 101.450223,38.5386727 C100.479501,39.3026892 99.2785128,39.906512 97.8482594,40.3475443 C96.4170047,40.7891758 94.7829156,41.0102912 92.9421876,41.0102912 C91.6823311,41.0102912 90.5496216,40.9246015 89.5446598,40.7552195 C88.5390973,40.5852383 87.6614828,40.3892906 86.9128172,40.1693736 C86.1639515,39.9494567 85.5340233,39.7195527 85.0224318,39.4818586 C84.5118416,39.2443643 84.1201888,39.0406266 83.8474735,38.8698464 L86.0452142,34.0270801 C86.2832895,34.1645032 86.6322929,34.3414754 87.0918242,34.562391 C87.5515557,34.7841056 88.0797663,34.9954336 88.6768566,35.1999703 C89.2717443,35.4035083 89.9357119,35.5818787 90.6691598,35.7350815 C91.4006054,35.8872856 92.1765024,35.9639869 92.9936471,35.9639869" id="Fill-12" fill="#199BD8"></path>
                    <g id="Group-16" transform="translate(104.520833, 0.105065)" fill="#199BD8">
                        <path d="M17.0613241,4.042856 C21.7042917,4.51704562 25.1004178,8.56323733 24.6406863,13.0800233 C24.1841586,17.5968092 20.0501794,20.8751893 15.4114167,20.3982033 C14.0047905,20.2559863 12.7209062,19.7817967 11.6136262,19.0675161 L7.22915741,19.9737496 L5.20121296,20.2629773 L5.88760648,18.895138 L5.89201157,18.8981342 L6.06981713,18.5232168 L6.07121875,18.5166252 L8.08955208,14.3086418 C7.82704861,13.3706492 7.72633218,12.377927 7.82845023,11.3588388 C8.28417708,6.84125388 12.4189572,3.56347307 17.0613241,4.042856 M17.4547789,0.162051406 C10.6094653,-0.537647935 4.51702199,4.2929341 3.84384375,10.9511636 C3.70748611,12.2994281 3.81420949,13.6229245 4.11075231,14.8777093 L0.0748865741,24.2546392 L9.68679861,22.4805229 C11.2500058,23.4386895 13.0580961,24.0754699 15.0175613,24.2774099 C21.8622743,24.9769095 27.9527153,20.1495234 28.6270949,13.4906947 C29.3012743,6.83026802 24.2988912,0.864147662 17.4547789,0.162051406" id="Fill-14"></path>
                    </g>
                    <path d="M116.041572,13.7349802 C116.042773,13.2260353 116.123467,12.7408599 116.285855,12.280053 C116.447041,11.8198454 116.679309,11.416165 116.980057,11.0680132 C117.280204,10.7190623 117.64903,10.4446156 118.083533,10.2422761 C118.519637,10.040336 119.01521,9.94046455 119.572054,9.94126352 C119.863791,9.94126352 120.132502,9.96563215 120.376584,10.0151684 C120.620065,10.0639057 120.851533,10.1370116 121.068784,10.2340866 L120.584624,11.3238838 C120.449067,11.2629622 120.299094,11.2108293 120.133703,11.1664864 C119.968912,11.1207453 119.766478,11.0989733 119.525199,11.0989733 C119.202226,11.0975751 118.910889,11.162891 118.65219,11.2943219 C118.39269,11.423955 118.173236,11.6023254 117.993228,11.8264369 C117.81262,12.0517469 117.672458,12.3176047 117.575345,12.62421 C117.477232,12.9310151 117.427975,13.2571952 117.427975,13.6017517 C117.427975,13.7969005 117.447598,13.9752709 117.489446,14.1360639 C117.530894,14.2966572 117.597571,14.4388742 117.69228,14.562515 C117.785188,14.6861559 117.914337,14.7814332 118.079128,14.8497453 C118.244919,14.9166592 118.451158,14.9500162 118.698844,14.9524131 C118.95494,14.9524131 119.200424,14.9188563 119.437698,14.8513432 C119.674172,14.7844294 119.856382,14.7175155 119.983529,14.6490037 L120.094858,15.7623705 C119.922258,15.8442651 119.692793,15.9247615 119.407664,16.0030607 C119.121933,16.0817594 118.798559,16.120909 118.439544,16.120909 C118.025866,16.1193111 117.669254,16.0573908 117.370108,15.932951 C117.06916,15.8095099 116.81827,15.6409269 116.620241,15.4274017 C116.421211,15.2132773 116.275242,14.9620008 116.181934,14.6739715 C116.087625,14.3845441 116.041572,14.0717467 116.041572,13.7349802" id="Fill-17" fill="#199BD8"></path>
                    <path d="M122.911034,16.0796222 C122.557625,16.0716325 122.258479,16.0260911 122.015198,15.9433975 C121.771516,15.860704 121.576891,15.7484485 121.430122,15.605832 C121.284153,15.4634154 121.17823,15.2942331 121.114957,15.0998833 C121.050883,14.9063324 121.019647,14.6922081 121.019647,14.4599071 C121.020448,14.2192169 121.04828,13.9669416 121.105747,13.7010839 C121.162212,13.4356256 121.224484,13.171166 121.291561,12.909303 L122.604079,7.47170236 L124.02372,7.24898904 C123.788048,8.22972663 123.552575,9.20507116 123.317904,10.1744234 C123.081631,11.1441751 122.843355,12.1201189 122.599073,13.1014557 C122.564033,13.2590528 122.523786,13.4144528 122.481137,13.5678553 C122.438287,13.7214576 122.417663,13.873462 122.417663,14.0226699 C122.417263,14.1501059 122.419065,14.2683537 122.422669,14.3764146 C122.426874,14.4850747 122.456708,14.5785544 122.511972,14.6572531 C122.568638,14.736551 122.652935,14.8022664 122.765465,14.8543993 C122.878396,14.9071314 123.024365,14.9410877 123.204973,14.9566677 L122.911034,16.0796222 Z" id="Fill-19" fill="#199BD8"></path>
                </g>
            </g>
        </g>
    </g>
</svg>