<svg width="233" height="121" xmlns="http://www.w3.org/2000/svg"><title>MercadoLibre</title><g fill="none" fill-rule="evenodd"><path fill="#FFF" d="M0 0h233v121H0z"/><g fill-rule="nonzero"><g transform="translate(33 37.83)"><path d="M59.626 19.214C59.626 8.638 46.31 0 29.883 0S.14 8.638.14 19.214v1.135c0 11.24 11.634 20.32 29.743 20.32 18.221 0 29.743-9.08 29.743-20.32v-1.135z" fill="#002E6D"/><ellipse fill="#FFE900" cx="29.883" cy="19.186" rx="28.593" ry="18.079"/><g fill="#FFF"><path d="M20.38 13.483c-.028.027-.309.332-.112.553.448.582 1.85.886 3.252.582.84-.194 1.906-1.024 2.971-1.855 1.121-.886 2.243-1.772 3.364-2.132 1.205-.387 1.962-.221 2.467-.055.56.166 1.205.526 2.242 1.301 1.963 1.44 9.84 8.25 11.186 9.413 1.093-.498 5.97-2.547 12.586-3.987-.56-3.488-2.719-6.672-5.97-9.274-4.542 1.882-10.065 2.851-15.503.249-.028 0-2.971-1.384-5.859-1.301-4.289.11-6.167 1.938-8.13 3.876l-2.494 2.63z"/><path d="M45.441 22.038c-.084-.083-9.25-8.002-11.325-9.552-1.206-.886-1.878-1.107-2.58-1.218-.364-.055-.868.028-1.233.11-.953.25-2.214 1.08-3.335 1.966-1.15.914-2.243 1.772-3.28 1.994-1.29.277-2.888-.056-3.617-.526-.28-.194-.504-.416-.588-.637-.28-.61.224-1.107.308-1.19l2.523-2.714c.28-.277.589-.581.897-.858-.813.11-1.57.305-2.299.526-.925.25-1.794.498-2.69.498-.365 0-2.355-.332-2.748-.415-2.299-.609-4.289-1.218-7.288-2.602-3.589 2.63-6 5.952-6.7 9.579.504.138 1.345.387 1.71.443 8.13 1.8 10.652 3.627 11.129 4.014a2.684 2.684 0 0 1 2.018-.886c.897 0 1.71.443 2.215 1.135a3.169 3.169 0 0 1 1.934-.664c.364 0 .757.055 1.177.194.925.304 1.402.913 1.626 1.467.309-.138.673-.25 1.122-.25.448 0 .897.112 1.345.305 1.486.637 1.738 2.077 1.598 3.184.112 0 .224-.027.336-.027 1.766 0 3.224 1.44 3.224 3.183 0 .554-.14 1.052-.392 1.495.476.277 1.71.886 2.803.748.869-.11 1.205-.388 1.318-.554.084-.11.168-.249.084-.332l-2.3-2.52s-.363-.36-.251-.498c.14-.138.364.056.532.194 1.178.969 2.607 2.409 2.607 2.409.028.027.112.193.645.304.449.083 1.262.028 1.822-.415.14-.11.28-.25.393-.415l-.028.027c.588-.747-.056-1.495-.056-1.495l-2.692-2.962s-.392-.36-.252-.498c.112-.111.365.055.533.193.84.693 2.046 1.883 3.195 2.99.225.167 1.234.776 2.58-.083.812-.526.98-1.162.953-1.66-.056-.637-.561-1.108-.561-1.108l-3.7-3.6s-.393-.331-.253-.498c.112-.138.365.056.533.194 1.177.97 4.317 3.82 4.317 3.82.056.028 1.121.804 2.495-.055.476-.304.785-.775.813-1.3.028-.887-.617-1.44-.617-1.44z"/><path d="M27.668 26.633c-.56 0-1.177.333-1.261.277-.056-.027.028-.249.084-.387.056-.139.813-2.354-1.01-3.129-1.4-.581-2.242.083-2.55.388-.084.083-.112.083-.112-.028-.028-.388-.197-1.495-1.402-1.855-1.71-.526-2.831.665-3.112 1.08-.112-.97-.953-1.717-1.962-1.717-1.093 0-1.99.886-1.99 1.966s.897 1.966 1.99 1.966a2.04 2.04 0 0 0 1.374-.554s.028.028 0 .055c-.084.499-.253 2.27 1.626 2.99.757.277 1.401.083 1.934-.304.168-.11.196-.056.168.083-.056.443.028 1.44 1.402 1.993 1.065.416 1.682 0 2.074-.387.168-.166.224-.139.224.11.056 1.33 1.15 2.354 2.495 2.354 1.374 0 2.523-1.108 2.523-2.464.028-1.33-1.093-2.409-2.495-2.437z"/></g><path d="M45.778 21.096c-2.832-2.436-9.335-8.028-11.101-9.33-1.01-.747-1.71-1.135-2.3-1.329a3.827 3.827 0 0 0-1.12-.166c-.449 0-.926.083-1.43.25-1.15.36-2.27 1.245-3.392 2.104l-.056.055c-1.037.803-2.075 1.633-2.888 1.8-.336.083-.7.11-1.065.11-.897 0-1.71-.249-2.018-.637-.056-.055-.028-.166.112-.304l.028-.028 2.495-2.63c1.934-1.91 3.784-3.737 8.017-3.82h.225c2.635 0 5.27 1.162 5.55 1.3 2.467 1.191 5.018 1.8 7.569 1.8 2.663 0 5.41-.664 8.326-1.965-.337-.277-.673-.526-1.01-.776-2.55 1.08-4.961 1.634-7.288 1.634-2.383 0-4.766-.582-7.092-1.689-.112-.055-3.028-1.412-6.055-1.412h-.253c-3.56.083-5.55 1.329-6.896 2.409-1.317.027-2.439.332-3.448.609-.897.249-1.682.47-2.439.47-.308 0-.869-.027-.925-.027-.869-.028-5.242-1.08-8.718-2.381-.364.249-.7.498-1.037.775 3.644 1.467 8.045 2.602 9.447 2.686l1.205.083c.925 0 1.85-.25 2.748-.499.532-.138 1.12-.304 1.71-.415l-.477.47-2.523 2.686c-.196.194-.617.72-.336 1.384.112.25.336.526.672.72.59.388 1.682.665 2.692.665.392 0 .728-.028 1.065-.111 1.065-.222 2.158-1.108 3.336-2.021.925-.748 2.27-1.661 3.28-1.938.28-.083.644-.11.925-.11h.224c.673.082 1.317.304 2.495 1.162 2.074 1.523 11.241 9.44 11.325 9.524 0 0 .589.498.56 1.329-.027.47-.28.858-.728 1.162-.393.25-.785.36-1.206.36-.616 0-1.037-.277-1.065-.304-.028-.028-3.168-2.88-4.317-3.82-.196-.14-.364-.278-.532-.278a.344.344 0 0 0-.253.111c-.168.222.028.526.253.72l3.672 3.627s.448.415.504.969c.028.609-.252 1.107-.869 1.495-.42.277-.869.415-1.29.415-.56 0-.952-.25-1.036-.305l-.533-.498c-.953-.941-1.962-1.91-2.691-2.492-.168-.138-.365-.276-.56-.276a.32.32 0 0 0-.225.083c-.084.083-.14.249.056.526.084.11.196.193.196.193l2.663 2.963c.028.027.561.636.056 1.273l-.084.111-.252.25c-.448.36-1.065.414-1.317.414-.14 0-.253 0-.365-.027-.252-.056-.448-.111-.533-.222l-.028-.027c-.14-.139-1.485-1.523-2.607-2.437-.14-.11-.336-.277-.532-.277a.344.344 0 0 0-.253.111c-.224.25.113.61.253.72l2.27 2.492c0 .027-.028.083-.084.166-.084.11-.364.387-1.177.498-.112 0-.196.028-.308.028-.841 0-1.766-.415-2.243-.665.224-.443.336-.94.336-1.44 0-1.854-1.513-3.35-3.392-3.377h-.112c.056-.858-.056-2.464-1.738-3.156a3.792 3.792 0 0 0-1.43-.305c-.364 0-.7.056-1.037.194-.336-.664-.925-1.135-1.654-1.384-.42-.138-.813-.222-1.233-.222-.7 0-1.346.194-1.906.61a2.913 2.913 0 0 0-2.243-1.08 3 3 0 0 0-2.046.83c-.701-.526-3.532-2.298-11.073-3.986-.365-.083-1.206-.333-1.71-.471-.084.415-.14.803-.196 1.218 0 0 1.401.332 1.653.388 7.71 1.689 10.26 3.46 10.681 3.793-.14.332-.224.72-.224 1.107 0 1.578 1.29 2.852 2.887 2.852.168 0 .365-.028.533-.056.252 1.163 1.009 2.021 2.186 2.492a2.752 2.752 0 0 0 1.682.11c.224.554.701 1.219 1.794 1.662.393.138.757.221 1.122.221.308 0 .588-.055.869-.166a3.424 3.424 0 0 0 3.14 2.077 3.37 3.37 0 0 0 2.438-1.025c.56.305 1.71.859 2.888.859.14 0 .308 0 .448-.028 1.177-.139 1.71-.582 1.962-.941.056-.056.084-.139.113-.194.28.083.588.138.925.138.644 0 1.233-.221 1.85-.664.616-.443 1.037-1.052 1.093-1.578v-.028c.196.055.42.055.617.055.645 0 1.29-.193 1.906-.609 1.177-.775 1.402-1.772 1.374-2.436.196.055.42.055.616.055.617 0 1.206-.193 1.794-.553.73-.471 1.178-1.163 1.234-1.994a2.507 2.507 0 0 0-.393-1.605c1.99-.859 6.532-2.492 11.886-3.683a9.086 9.086 0 0 0-.168-1.218c-6.391 1.44-11.241 3.489-12.446 4.042zm-18.11 10.327c-1.261 0-2.27-.97-2.326-2.187 0-.111-.028-.388-.253-.388-.112 0-.196.056-.28.139-.28.249-.617.498-1.15.498-.224 0-.476-.055-.756-.166-1.318-.526-1.346-1.44-1.29-1.8.028-.11.028-.194-.056-.277l-.084-.083h-.084a.45.45 0 0 0-.224.083c-.393.277-.757.388-1.122.388-.196 0-.42-.028-.616-.11-1.738-.665-1.598-2.299-1.514-2.797 0-.11 0-.166-.084-.221l-.112-.111-.112.11a1.769 1.769 0 0 1-1.262.499 1.807 1.807 0 0 1-1.822-1.8c0-.996.813-1.8 1.822-1.8.897 0 1.682.665 1.794 1.579l.056.47.28-.415c.029-.055.757-1.135 2.103-1.135.252 0 .533.028.785.11 1.065.333 1.261 1.274 1.29 1.69.028.221.196.249.224.249a.237.237 0 0 0 .196-.11c.196-.222.645-.555 1.346-.555.308 0 .644.083 1.009.222 1.71.72.925 2.88.925 2.88-.14.36-.14.498-.028.608l.056.028h.056c.084 0 .168-.028.336-.083.225-.083.589-.194.925-.194 1.29.028 2.327 1.052 2.327 2.298a2.349 2.349 0 0 1-2.355 2.38z" fill="#002E6D"/></g><path d="M104.596 46.44v8.639h-3.504v-7.946c0-3.848 1.962-5.786 5.887-5.786 1.766 0 3.111.387 4.092 1.162.981-.747 2.327-1.107 4.093-1.107 3.897 0 5.859 1.91 5.83 5.786v7.946h-1.793c-1.15-.083-1.71-.61-1.71-1.689v-6.949c-.084-1.412-.841-2.104-2.383-2.104-1.514 0-2.299.692-2.327 2.104v8.583h-3.476V46.44c-.084-1.412-.84-2.104-2.383-2.104-1.541 0-2.298.692-2.326 2.104zm33.274 1.717c.113-4.374 2.3-6.81 6.869-6.81h1.037v3.516l-1.598.027c-1.906 0-2.831 1.218-2.831 3.184v7.032h-3.504v-6.949h.028zm27.192-2.575h-3.195c.112-2.602 1.457-4.346 5.354-4.346 3.784 0 5.69 1.218 5.775 3.737v4.596c0 3.738-2.27 5.399-5.971 5.648-3.28.25-5.579-1.246-5.579-4.236.084-3.24 2.467-4.125 5.915-4.457 1.486-.166 2.215-.61 2.215-1.357-.084-.775-.813-1.135-2.215-1.163-1.598 0-2.13.942-2.299 1.578zm4.57 3.821v-1.107c-.813.332-1.738.47-2.747.664-1.374.25-2.075.886-2.075 1.883.084 1.08.645 1.578 1.738 1.578 1.934.027 3.084-1.08 3.084-3.018zm18.109-12.375v12.181c0 4.07-2.159 6.091-6.42 6.063-4.232-.083-6.363-2.353-6.363-6.866 0-4.595 1.822-6.949 5.466-7.087 1.71 0 3.028.692 3.897 2.104v-4.707c1.15-1.633 3.42-1.688 3.42-1.688zm-9.223 11.24c-.028 2.74.897 4.125 2.888 4.125 1.962 0 2.943-1.384 2.943-4.125-.084-2.602-1.037-3.876-2.887-3.876-1.879 0-2.86 1.274-2.944 3.876zm-52.085 8.915h.897v17.912h-3.448V59.37c0-.499 1.094-2.187 2.551-2.187zm18.754 3.987c-1.71 0-3 .691-3.896 2.103V57.21h-.365c-1.71.028-2.607.914-3.055 1.661v-.11V69.06c0 4.07 2.158 6.09 6.42 6.063 4.232-.083 6.363-2.353 6.363-6.866 0-4.596-1.794-6.95-5.467-7.088zm-1.009 11.046c-1.962 0-2.887-1.384-2.887-4.125.112-2.603 1.065-3.876 2.915-3.876s2.831 1.273 2.887 3.876c.057 2.74-.953 4.125-2.915 4.125zm-17.072-20.543c.56.526 1.346.803 2.383.803.729 0 1.373-.194 1.906-.554.533-.36.87-.747.981-1.162h3.224c-.505 1.578-1.318 2.713-2.383 3.377-1.065.692-2.355 1.025-3.868 1.025-1.038 0-1.99-.166-2.832-.499-.84-.332-1.57-.803-2.13-1.412a6.019 6.019 0 0 1-1.346-2.187 8.136 8.136 0 0 1-.476-2.796c0-.997.168-1.91.476-2.74a6.51 6.51 0 0 1 1.402-2.216 6.59 6.59 0 0 1 2.158-1.467c.841-.36 1.767-.526 2.776-.526 1.15 0 2.13.221 2.971.637.841.443 1.542 1.024 2.075 1.744.532.72.925 1.55 1.177 2.492.252.94.336 1.91.252 2.934h-9.615c.028 1.19.336 2.021.87 2.547zm4.149-6.921c-.449-.47-1.093-.72-1.99-.72-.59 0-1.066.11-1.458.305-.393.193-.7.443-.925.72a2.93 2.93 0 0 0-.505.913 6.53 6.53 0 0 0-.168.858h5.971c-.168-.913-.477-1.605-.925-2.076zm22.258-.748c-.589 0-1.093.139-1.486.388-.392.277-.729.61-.98 1.024a4.606 4.606 0 0 0-.534 1.385 6.791 6.791 0 0 0-.168 1.495c0 .47.056.969.168 1.467.113.498.28.941.505 1.357.224.415.56.747.953.996.393.25.897.388 1.458.388.897 0 1.57-.25 2.046-.748.477-.498.785-1.135.897-1.965h3.56c-.252 1.772-.925 3.128-2.074 4.042-1.15.913-2.607 1.384-4.401 1.384-1.01 0-1.934-.166-2.775-.498-.841-.333-1.57-.803-2.159-1.412a6.21 6.21 0 0 1-1.373-2.16c-.337-.83-.505-1.744-.505-2.74 0-1.025.14-1.994.448-2.88.309-.886.757-1.661 1.346-2.298a6.259 6.259 0 0 1 2.159-1.495c.84-.36 1.822-.554 2.915-.554.813 0 1.57.111 2.299.305a6.26 6.26 0 0 1 1.99.941 4.859 4.859 0 0 1 1.43 1.578c.364.637.56 1.357.616 2.215h-3.616c-.224-1.467-1.121-2.215-2.719-2.215zm36.891 1.357a6.672 6.672 0 0 1 1.402-2.215 6.44 6.44 0 0 1 2.186-1.412c.841-.332 1.794-.498 2.86-.498 1.065 0 2.018.166 2.887.498a6.297 6.297 0 0 1 2.215 1.412c.616.61 1.065 1.357 1.401 2.215.337.858.505 1.827.505 2.907 0 1.052-.168 2.021-.505 2.88a6.672 6.672 0 0 1-1.401 2.214 6.297 6.297 0 0 1-2.215 1.412c-.869.332-1.822.498-2.887.498-1.066 0-2.019-.166-2.86-.498a6.44 6.44 0 0 1-2.186-1.412c-.617-.609-1.066-1.357-1.402-2.215-.336-.858-.504-1.827-.504-2.879s.168-2.021.504-2.907zm3.364 4.457c.112.499.28.97.533 1.357.252.415.588.72 1.009.969.42.25.925.36 1.57.36.616 0 1.149-.11 1.57-.36.42-.25.756-.554 1.009-.97.252-.414.42-.857.532-1.356a7.103 7.103 0 0 0 .169-1.55 7.55 7.55 0 0 0-.169-1.578c-.112-.526-.28-.97-.532-1.357a3.056 3.056 0 0 0-1.01-.969c-.42-.249-.953-.36-1.57-.36-.616 0-1.149.139-1.57.36-.42.25-.756.582-1.008.97-.253.387-.42.858-.533 1.356a7.55 7.55 0 0 0-.168 1.578c0 .526.056 1.052.168 1.55zM152.672 68.09c.112-4.374 2.299-6.81 6.868-6.81h1.037v3.516l-1.598.028c-1.906 0-2.831 1.218-2.831 3.184v7.032h-3.504v-6.95h.028zm13.372 3.517c.56.526 1.345.803 2.382.803.73 0 1.374-.194 1.907-.554.532-.36.869-.748.98-1.163h3.225c-.505 1.578-1.318 2.713-2.383 3.378-1.065.692-2.355 1.024-3.869 1.024-1.037 0-1.99-.166-2.831-.498-.841-.332-1.57-.803-2.13-1.412a6.019 6.019 0 0 1-1.346-2.187 8.136 8.136 0 0 1-.477-2.797c0-.996.168-1.91.477-2.74a6.51 6.51 0 0 1 1.401-2.215 6.59 6.59 0 0 1 2.159-1.468c.841-.36 1.766-.526 2.775-.526 1.15 0 2.13.222 2.972.637.84.443 1.542 1.025 2.074 1.744.533.72.925 1.55 1.178 2.492.252.941.336 1.91.252 2.935h-9.615c.028 1.19.308 2.02.869 2.547zm4.148-6.922c-.448-.47-1.093-.72-1.99-.72-.589 0-1.065.111-1.458.305a2.75 2.75 0 0 0-.925.72 2.93 2.93 0 0 0-.504.914c-.084.332-.14.609-.168.858h5.97c-.196-.914-.504-1.606-.925-2.077zm-39.161-7.502h3.448v3.101h-3.448zm0 4.678h3.448v13.261h-3.448z" fill="#002E6D"/></g></g></svg>