<?xml version="1.0" encoding="UTF-8"?>
<svg width="233px" height="121px" viewBox="0 0 233 121" version="1.1" xmlns="http://www.w3.org/2000/svg" xmlns:xlink="http://www.w3.org/1999/xlink">
    <!-- Generator: Sketch 43.1 (39012) - http://www.bohemiancoding.com/sketch -->
    <title>MercadoPago</title>
    <desc>Created with Sketch.</desc>
    <defs></defs>
    <g id="Page-1" stroke="none" stroke-width="1" fill="none" fill-rule="evenodd">
        <g id="Logos" transform="translate(-119.000000, -1346.000000)">
            <g id="MercadoPago" transform="translate(119.000000, 1346.000000)">
                <rect id="Rectangle-3" fill="#FFFFFF" x="-1.42108547e-14" y="0" width="233" height="121"></rect>
                <g id="Group" transform="translate(36.000000, 37.000000)">
                    <path d="M58.8874447,19.2839394 C58.8874447,8.67193939 45.7197632,0.0216363636 29.4761342,0.0216363636 C13.2333526,0.0216363636 0.0660947368,8.67193939 0.0660947368,19.2839394 C0.0660947368,19.558 0.0627052632,20.315697 0.0627052632,20.4115758 C0.0627052632,31.6692727 11.5720868,40.7875152 29.4727447,40.7875152 C47.4839842,40.7875152 58.8874447,31.6718182 58.8874447,20.413697 L58.8874447,19.2839394" id="Fill-1" fill="#273673"></path>
                    <path d="M57.7612921,19.2746061 C57.7612921,29.2790909 45.1003368,37.3893333 29.4816421,37.3893333 C13.8633711,37.3893333 1.20283947,29.2790909 1.20283947,19.2746061 C1.20283947,9.26927273 13.8633711,1.15860606 29.4816421,1.15860606 C45.1003368,1.15860606 57.7612921,9.26927273 57.7612921,19.2746061" id="Fill-2" fill="#00A3DB"></path>
                    <path d="M20.0919526,13.5592121 C20.0771237,13.5876364 19.79495,13.8799394 19.9775579,14.1149697 C20.4241211,14.6855758 21.8023658,15.0130909 23.1962868,14.7 C24.0262842,14.5133333 25.0901553,13.6661212 26.1205553,12.8473333 C27.2373868,11.9585455 28.3453211,11.0693333 29.4591868,10.7155152 C30.6383,10.3396364 31.3941526,10.5008485 31.8932526,10.6518788 C32.4410763,10.8156364 33.0850763,11.1766667 34.1125105,11.9483636 C36.0474763,13.4052121 43.8280132,20.2053939 45.1723632,21.3809697 C46.2553,20.8913939 51.0670816,18.8168485 57.6062237,17.374 C57.0380632,13.8833333 54.9175237,10.6896364 51.7013368,8.07460606 C47.2191816,9.95993939 41.7413684,10.9433333 36.3847289,8.32363636 C36.3576132,8.31260606 33.4583421,6.93848485 30.5988974,7.00636364 C26.3484974,7.10478788 24.5075895,8.94684848 22.5590658,10.8966667 L20.0919526,13.5592121" id="Fill-3" fill="#FFFFFF"></path>
                    <path d="M44.8562947,22.1208485 C44.7652026,22.0393939 35.7076816,14.1035152 33.6557789,12.5592727 C32.4681921,11.6675152 31.8076684,11.4401212 31.1145211,11.3514545 C30.7531184,11.3043636 30.2544421,11.3718182 29.90575,11.4672727 C28.9511895,11.7277576 27.7034395,12.5630909 26.5950816,13.4429697 C25.4477447,14.3580606 24.3656553,15.219697 23.3623711,15.4445455 C22.0794553,15.7326061 20.5135184,15.3927879 19.7987632,14.9091515 C19.5093868,14.7144242 19.3055947,14.4887273 19.2077237,14.2596364 C18.9437684,13.6470303 19.4305816,13.1570303 19.5106579,13.0747273 L22.0099711,10.3676364 C22.3006184,10.0774545 22.5933842,9.78684848 22.8925053,9.50090909 C22.0862342,9.60612121 21.34055,9.81230303 20.6147789,10.0142424 C19.7093658,10.2696364 18.8382711,10.5118788 17.9570079,10.5114545 C17.58925,10.5114545 15.6178474,10.1881818 15.2437342,10.0859394 C12.9821079,9.46612121 10.9967237,8.86284848 8.03135789,7.47642424 C4.47791842,10.1249697 2.10189737,13.4370303 1.41552895,17.0846667 C1.92606842,17.22 2.74843947,17.4652121 3.09416579,17.542 C11.1352684,19.3318788 13.6396658,21.1764848 14.0942789,21.5612727 C14.5861763,21.0131515 15.2954237,20.6665455 16.0877132,20.6665455 C16.97745,20.6678182 17.7790605,21.1149697 18.2662974,21.8069091 C18.7268421,21.4429091 19.3619447,21.1319394 20.1830447,21.1323636 C20.5558868,21.1323636 20.9427105,21.2015152 21.3333474,21.334303 C22.2404553,21.645697 22.7086263,22.2506667 22.9513974,22.7979394 C23.2560263,22.6604848 23.6297158,22.5590909 24.0707711,22.5603636 C24.5033526,22.5603636 24.9537289,22.6592121 25.4079184,22.8556364 C26.8903895,23.4928485 27.1212974,24.9509697 26.9865658,26.0501818 C27.0920632,26.0378788 27.1984079,26.0327879 27.3064474,26.0327879 C29.0643132,26.0340606 30.4942474,27.4646061 30.4934,29.2260606 C30.4934,29.7707879 30.3544316,30.2832727 30.1120842,30.7329697 C30.5904237,31.0023636 31.8097868,31.6115758 32.8800132,31.4753939 C33.7354316,31.3676364 34.0603974,31.0749091 34.1764868,30.910303 C34.2561395,30.7970303 34.3404526,30.6646667 34.2620711,30.5700606 L31.9932421,28.0458182 C31.9932421,28.0458182 31.6195526,27.692 31.7428447,27.5558182 C31.8712211,27.4158182 32.1017053,27.6169091 32.2648237,27.7535152 C33.4197868,28.7190909 34.8298079,30.1763636 34.8298079,30.1763636 C34.8535342,30.1920606 34.9467447,30.3770303 35.4683,30.4703636 C35.9169816,30.5509697 36.7109658,30.5038788 37.2613316,30.0516364 C37.4003,29.9370909 37.5392684,29.7945455 37.6549342,29.6477576 C37.6460368,29.6545455 37.6384105,29.6647273 37.6295132,29.6681212 C38.2099605,28.9248485 37.5655368,28.1722424 37.5655368,28.1722424 L34.9166632,25.1940606 C34.9166632,25.1940606 34.5378895,24.8436364 34.6662658,24.7023636 C34.7819316,24.5797576 35.02555,24.7647273 35.1916342,24.9026061 C36.0301053,25.6047273 37.21515,26.7955758 38.3510474,27.9096364 C38.5726342,28.0721212 39.5708342,28.6906667 40.8927289,27.8209697 C41.6943395,27.2944848 41.8557632,26.6475152 41.8328842,26.1587879 C41.7769579,25.5126667 41.2736211,25.0523636 41.2736211,25.0523636 L37.6549342,21.4098182 C37.6549342,21.4098182 37.2731947,21.0827273 37.4079263,20.917697 C37.5185079,20.7785455 37.7667868,20.9787879 37.9290579,21.1149697 C39.0823263,22.0809697 42.2023368,24.9454545 42.2023368,24.9454545 C42.2468237,24.9768485 43.3251,25.7455758 44.6571632,24.8962424 C45.1333842,24.5912121 45.4380132,24.1313333 45.4642816,23.5976364 C45.5096158,22.6706667 44.8562947,22.1208485 44.8562947,22.1208485" id="Fill-4" fill="#FFFFFF"></path>
                    <path d="M27.3060237,26.738303 C26.7450658,26.7319394 26.1315711,27.0653939 26.0510711,27.0170303 C26.0070079,26.9873333 26.0853895,26.7616364 26.1379263,26.6313939 C26.1917342,26.5024242 26.9306395,24.2764242 25.1299816,23.5030303 C23.7517368,22.9099394 22.9090289,23.5772727 22.6196526,23.8784848 C22.5433895,23.9573939 22.5094947,23.9510303 22.5005974,23.8504848 C22.4730579,23.4495758 22.2938395,22.3652121 21.1045579,22.0016364 C19.4043132,21.4806667 18.3112079,22.6689697 18.0336947,23.0974545 C17.9095553,22.1272121 17.0905737,21.3741818 16.0872895,21.3733333 C14.9967263,21.3720606 14.1129211,22.2566061 14.11165,23.3477576 C14.1112263,24.4389091 14.9950316,25.3238788 16.0847474,25.3238788 C16.6147763,25.3251515 17.0952342,25.1130303 17.4494342,24.7727879 C17.46045,24.7829697 17.4651105,24.8016364 17.4591789,24.8393939 C17.3765605,25.327697 17.2231868,27.104 19.0806184,27.8269091 C19.8254553,28.1162424 20.4588632,27.9011515 20.9838079,27.5320606 C21.1401474,27.4217576 21.1659921,27.4684242 21.1435368,27.6156364 C21.0765947,28.0721212 21.1613316,29.0504242 22.5306789,29.6061818 C23.5725184,30.03 24.1889789,29.5964242 24.59275,29.2226667 C24.7685789,29.0618788 24.8164553,29.0877576 24.8257763,29.3359394 C24.8753474,30.6578788 25.9718421,31.7070303 27.3030579,31.708303 C28.6753711,31.7095758 29.7871184,30.5989091 29.7875421,29.2260606 C29.7888132,27.8519394 28.6779132,26.7535758 27.3060237,26.738303" id="Fill-5" fill="#FFFFFF"></path>
                    <path d="M27.3060237,31.5313939 C26.0629342,31.5301212 25.0520237,30.5628485 25.0062658,29.33 C25.0033,29.2243636 24.9922842,28.9435152 24.7550211,28.9435152 C24.65715,28.9435152 24.5724132,29.0020606 24.4749658,29.090303 C24.2016895,29.344 23.8534211,29.6019394 23.345,29.6019394 C23.1145158,29.6019394 22.8641184,29.5480606 22.6001632,29.440303 C21.2871658,28.9078788 21.2689474,28.0046667 21.3223316,27.6415152 C21.3367368,27.5447879 21.3418211,27.4438182 21.2753026,27.3657576 L21.1943789,27.2932121 L21.1126079,27.2932121 C21.0460895,27.2932121 20.9774526,27.3203636 20.8842421,27.3861212 C20.5046211,27.6533939 20.1402526,27.7827879 19.7699526,27.7827879 C19.5661605,27.7827879 19.3572842,27.7420606 19.1475605,27.6610303 C17.4189289,26.9873333 17.5557789,25.354 17.6400921,24.862303 C17.6523789,24.7626061 17.6278053,24.6853939 17.5646763,24.6336364 L17.4426553,24.5330909 L17.3282605,24.6425455 C16.9914316,24.9679394 16.5508,25.145697 16.0877132,25.145697 C15.0975632,25.1448485 14.2917158,24.3392121 14.2925632,23.3477576 C14.2934105,22.3558788 15.1001053,21.5510909 16.0902553,21.5523636 C16.9846526,21.5523636 17.7464368,22.2260606 17.8604079,23.1207879 L17.9222658,23.6035758 L18.1870684,23.1950303 C18.2167263,23.1475152 18.9420737,22.0491515 20.2754079,22.0504242 C20.5291947,22.0504242 20.7910316,22.0911515 21.0545632,22.1730303 C22.1180105,22.4975758 22.2980763,23.4631515 22.3256158,23.8649091 C22.3446816,24.0995152 22.5111895,24.1105455 22.5438132,24.1105455 C22.6357526,24.1105455 22.7031184,24.052 22.7509947,24.0019394 C22.9518211,23.7923636 23.3886395,23.4436364 24.0724658,23.4436364 C24.3855684,23.4449091 24.7185842,23.5191515 25.0621921,23.6667879 C26.7518447,24.3926667 25.9854,26.542303 25.9765026,26.5647879 C25.8311789,26.9211515 25.8252474,27.0785455 25.9616737,27.1693333 L26.0286158,27.2011515 L26.0777632,27.2011515 C26.1536026,27.2011515 26.2485079,27.1680606 26.4048474,27.1150303 C26.6349079,27.035697 26.9823289,26.9156364 27.3064474,26.9164848 L27.3072947,26.9164848 C28.5791947,26.9304848 29.6138316,27.9669091 29.6134079,29.2260606 C29.6121368,30.4979394 28.5770763,31.5313939 27.3060237,31.5313939 Z M45.2066816,21.1705455 C42.4167211,18.7324242 35.9686711,13.1192727 34.2218211,11.8066667 C33.2244684,11.0553333 32.5440316,10.6582424 31.9462132,10.4800606 C31.6784447,10.3990303 31.3068737,10.3065455 30.8285342,10.3061212 C30.3845132,10.3061212 29.9074447,10.386303 29.4091921,10.5449697 C28.2804974,10.9026061 27.1564632,11.7977576 26.0684421,12.6632121 L26.0125158,12.7073333 C24.9994868,13.5138182 23.9525632,14.3478788 23.1602737,14.5252121 C22.8145474,14.6032727 22.4586526,14.6435758 22.1040289,14.6435758 C21.2164105,14.642303 20.4190368,14.3856364 20.1203395,14.0042424 C20.0711921,13.9410303 20.1025447,13.8387879 20.2182105,13.6915758 L20.2334632,13.6724848 L22.6878658,11.0235152 C24.6101211,9.09872727 26.4260316,7.28127273 30.6056763,7.1849697 C30.6743132,7.18327273 30.7450684,7.182 30.8141289,7.182 C33.4159737,7.18369697 36.0169711,8.34993939 36.3084658,8.48484848 C38.7480395,9.67654545 41.2655711,10.2815152 43.7970842,10.2836364 C46.4353658,10.2844848 49.1566895,9.63072727 52.0182526,8.31133333 C51.6987947,8.04193939 51.3662026,7.78018182 51.0242895,7.52309091 C48.5101474,8.61466667 46.1150605,9.16575758 43.8042868,9.16533333 C41.4439421,9.16321212 39.0857158,8.59557576 36.79655,7.47684848 C36.6753763,7.41915152 33.8036447,6.06327273 30.8154,6.062 C30.7374421,6.062 30.6577895,6.06327273 30.5798316,6.06454545 C27.0691842,6.14684848 25.0914263,7.39539394 23.7614816,8.48909091 C22.4679737,8.52048485 21.3519895,8.83272727 20.3592974,9.11060606 C19.4733737,9.35709091 18.7082,9.57090909 17.9620921,9.57048485 C17.6544974,9.57048485 17.1011658,9.54206061 17.0515947,9.54036364 C16.1936342,9.51448485 11.8703605,8.45260606 8.43089211,7.14890909 C8.07965789,7.39793939 7.74198158,7.65460606 7.41320263,7.91636364 C11.0060447,9.39145455 15.3780421,10.5322424 16.7579816,10.6213333 C17.1418395,10.6467879 17.5511184,10.6900606 17.9603974,10.6909091 C18.8730132,10.6909091 19.7839342,10.4346667 20.6656211,10.1877576 C21.1863289,10.0409697 21.7608447,9.88187879 22.3654421,9.76606061 C22.2040184,9.92472727 22.0430184,10.0850909 21.8815947,10.2471515 L19.3877895,12.948303 C19.1916237,13.1468485 18.7653974,13.676303 19.0463,14.3283636 C19.1581526,14.5918182 19.3848237,14.8429697 19.7021632,15.0572121 C20.2961684,15.4581212 21.3604632,15.7287879 22.3489184,15.7296364 C22.7234553,15.7300606 23.0785026,15.692303 23.4047395,15.6189091 C24.4499684,15.384303 25.5464632,14.5095152 26.7082053,13.5846667 C27.6339553,12.8486061 28.9486474,11.9135758 29.9553211,11.6390909 C30.2366474,11.562303 30.5823737,11.5147879 30.8598868,11.5147879 C30.9429289,11.5156364 31.0213105,11.5177576 31.0941842,11.5283636 C31.7593684,11.6127879 32.4025211,11.8393333 33.5507053,12.7022424 C35.5975237,14.2418182 44.6558921,22.1768485 44.7444421,22.2553333 C44.7507974,22.2604242 45.3282789,22.7589091 45.2884526,23.5887273 C45.2668447,24.0507273 45.0100921,24.4618182 44.5648,24.7464848 C44.1779763,24.9921212 43.7788658,25.1172727 43.3755184,25.1172727 C42.7700737,25.116 42.3531684,24.8321818 42.3260526,24.8126667 C42.2925816,24.7855152 39.1890947,21.9358788 38.0476895,20.9787879 C37.8655053,20.8281818 37.6888289,20.692 37.5100342,20.692 C37.4147053,20.6911515 37.3299684,20.732303 37.2731947,20.804 C37.0931289,21.0258788 37.2943789,21.3326061 37.5316421,21.5349697 L41.1571079,25.1834545 C41.1617684,25.1872727 41.6087553,25.6068485 41.6574789,26.1668485 C41.6862895,26.7713939 41.3973368,27.2775152 40.7969763,27.6716364 C40.3690553,27.9537576 39.93605,28.0971515 39.5119421,28.0971515 C38.9552211,28.0971515 38.5641605,27.8430303 38.4777289,27.7827879 L37.9578684,27.2694545 C37.0075447,26.3331515 36.0258684,25.3650303 35.3077237,24.7647273 C35.1327421,24.6187879 34.94505,24.484303 34.7675263,24.484303 C34.6794,24.484303 34.5997474,24.5169697 34.5391605,24.5810303 C34.4569658,24.6722424 34.3997684,24.8364242 34.6039842,25.1083636 C34.6882974,25.2199394 34.7870158,25.3124242 34.7870158,25.3124242 L37.4329237,28.2880606 C37.4545316,28.3143636 37.9782053,28.9371515 37.4922395,29.5573939 L37.3990289,29.6761818 C37.3198,29.7635758 37.2342158,29.8441818 37.1528684,29.9137576 C36.7016447,30.2845455 36.0987421,30.3244242 35.8602079,30.3244242 C35.7326789,30.3244242 35.6093868,30.3129697 35.5026184,30.2934545 C35.2416289,30.2467879 35.0662237,30.1738182 34.9810632,30.073697 L34.9492868,30.0401818 C34.8043868,29.8904242 33.4710526,28.5273333 32.3677789,27.6050303 C32.2224553,27.4828485 32.0411184,27.3292727 31.8534263,27.3292727 C31.7606395,27.3292727 31.6784447,27.3657576 31.6144684,27.4361818 C31.3962711,27.6754545 31.7237789,28.0335152 31.8627474,28.1650303 L34.1192895,30.6566061 C34.1167474,30.6782424 34.0883605,30.73 34.0337053,30.8084848 C33.9532053,30.9204848 33.6790816,31.1945455 32.8609474,31.2972121 C32.7626526,31.3107879 32.6613921,31.3154545 32.5614026,31.3154545 C31.717,31.3154545 30.8166711,30.9056364 30.3531605,30.6591515 C30.5641553,30.2124242 30.6734658,29.7207273 30.6734658,29.2273333 C30.6743132,27.3674545 29.1664211,25.8546061 27.3094132,25.8533333 C27.2695868,25.8533333 27.2276421,25.8546061 27.1878158,25.8558788 C27.2484026,25.0069697 27.1285,23.3990909 25.4807921,22.6914545 C25.0062658,22.4861212 24.5330105,22.3813333 24.0733132,22.3813333 C23.7136053,22.3813333 23.3674553,22.4428485 23.0420658,22.568 C22.7005763,21.9036364 22.1336868,21.4195758 21.3939342,21.1675758 C20.9855026,21.0258788 20.5787658,20.9541818 20.1860105,20.9541818 C19.5000658,20.9541818 18.8683526,21.1561212 18.3048526,21.5574545 C17.7650789,20.8850303 16.9494868,20.4870909 16.0906789,20.4870909 C15.3390632,20.4870909 14.6162579,20.788303 14.0802974,21.3194545 C13.3782526,20.7823636 10.5921053,19.010303 3.13526316,17.3146061 C2.77428421,17.2331515 1.94555789,16.9951515 1.43798421,16.8462424 C1.35367105,17.2505455 1.28927105,17.6590909 1.24690263,18.0714545 C1.24690263,18.0714545 2.62218158,18.4010909 2.89291579,18.4621818 C10.5107579,20.1561818 13.0274421,21.9176364 13.4528211,22.2506667 C13.3087684,22.5972727 13.2337763,22.9710303 13.2329289,23.3477576 C13.2320816,24.9233939 14.5120316,26.2067273 16.0872895,26.208 C16.2635421,26.208 16.4385237,26.1927273 16.6105395,26.1609091 C16.8478026,27.3203636 17.6057737,28.1998182 18.7637026,28.6507879 C19.1022263,28.7810303 19.4449868,28.8480606 19.7809684,28.8480606 C19.9983184,28.8484848 20.2169395,28.8213333 20.4309,28.7666061 C20.6444368,29.3104848 21.1257421,29.9888485 22.2014763,30.4262424 C22.5789789,30.5781212 22.9564816,30.6578788 23.3229684,30.6578788 C23.6225132,30.6578788 23.9152789,30.6052727 24.1944868,30.5021818 C24.7101105,31.7596364 25.9375237,32.5928485 27.3051763,32.5928485 C28.2118605,32.5941212 29.0825316,32.2241818 29.7172105,31.57 C30.2607974,31.8724848 31.4077105,32.4197576 32.5664868,32.4214545 C32.7168947,32.4214545 32.8575579,32.4104242 32.9982211,32.3938788 C34.1493711,32.2483636 34.6849079,31.7973939 34.9310684,31.4469697 C34.9755553,31.3858788 35.0158053,31.3209697 35.0497,31.2535152 C35.3212816,31.332 35.6199789,31.3956364 35.9623158,31.3964848 C36.5910632,31.3964848 37.1943895,31.1818182 37.8044947,30.7367879 C38.4035842,30.3044848 38.8289632,29.6833939 38.8903974,29.1547879 C38.8916684,29.1475758 38.8929395,29.1399394 38.8937868,29.1318788 C39.0954605,29.1738788 39.3030658,29.1950909 39.5098237,29.1950909 C40.1567895,29.1950909 40.7935868,28.9931515 41.4019974,28.5939394 C42.5751789,27.8235152 42.7793947,26.8176364 42.7599053,26.1587879 C42.9649684,26.2020606 43.1746921,26.223697 43.3835684,26.223697 C43.9911316,26.223697 44.5872553,26.0408485 45.1562632,25.677697 C45.8837289,25.2127273 46.3213947,24.4995758 46.3874895,23.6701818 C46.4332474,23.1063636 46.2938553,22.5374545 45.9964289,22.0487273 C47.9627474,21.2006667 52.4563421,19.5592727 57.7473105,18.3650303 C57.7155342,17.9539394 57.6562184,17.5483636 57.5829211,17.1444848 C51.1806289,18.5673939 46.4031658,20.637697 45.2066816,21.1705455 L45.2066816,21.1705455 Z" id="Fill-6" fill="#273673"></path>
                    <path d="M156.474205,14.6507879 C155.959005,15.3355152 155.222218,15.6778788 154.258761,15.6778788 C153.297421,15.6778788 152.556821,15.3355152 152.037808,14.6507879 C151.517947,13.9669091 151.2595,12.9928485 151.2595,11.7307273 C151.2595,10.4707273 151.517947,9.49921212 152.037808,8.81830303 C152.556821,8.13781818 153.297421,7.79715152 154.258761,7.79715152 C155.222218,7.79715152 155.959005,8.13781818 156.474205,8.81830303 C156.988558,9.49921212 157.247429,10.4707273 157.247429,11.7307273 C157.247429,12.9928485 156.988558,13.9669091 156.474205,14.6507879 Z M159.104437,7.01060606 C158.043108,5.67848485 156.431837,5.01327273 154.268929,5.01327273 C152.108987,5.01327273 150.496868,5.67848485 149.435963,7.01060606 C148.373363,8.34187879 147.842063,9.91539394 147.842063,11.7307273 C147.842063,13.5787273 148.373363,15.1577576 149.435963,16.4724848 C150.496868,17.7825455 152.108987,18.4401212 154.268929,18.4401212 C156.431837,18.4401212 158.043108,17.7825455 159.104437,16.4724848 C160.167037,15.1577576 160.697066,13.5787273 160.697066,11.7307273 C160.697066,9.91539394 160.167037,8.34187879 159.104437,7.01060606 L159.104437,7.01060606 Z" id="Fill-7" fill="#273673"></path>
                    <path d="M130.301537,13.0959394 C130.279505,14.2010909 129.963013,14.9621818 129.356297,15.3792121 C128.748734,15.7966667 128.085245,16.0062424 127.365405,16.0062424 C126.909521,16.0062424 126.523968,15.8793939 126.206205,15.6286667 C125.889289,15.3775152 125.731679,14.9693939 125.731679,14.4051515 C125.731679,13.7721818 125.990126,13.3050909 126.509563,13.0030303 C126.818429,12.8261212 127.322613,12.6738182 128.026776,12.5529091 L128.778816,12.4133333 C129.152929,12.3420606 129.447389,12.2661212 129.662621,12.1846667 C129.880395,12.1053333 130.090542,12.0005455 130.301537,11.8677576 L130.301537,13.0959394 Z M131.973818,5.8969697 C130.897661,5.35054545 129.665163,5.07436364 128.278868,5.07436364 C126.147313,5.07436364 124.642811,5.63181818 123.767479,6.74290909 C123.216689,7.45521212 122.907824,8.36266667 122.835797,9.46739394 L126.020208,9.46739394 C126.098589,8.97993939 126.254929,8.59387879 126.490074,8.30836364 C126.818429,7.92230303 127.376845,7.72927273 128.166168,7.72927273 C128.871603,7.72927273 129.405021,7.826 129.769813,8.02539394 C130.132487,8.22181818 130.315095,8.57987879 130.315095,9.09618182 C130.315095,9.52212121 130.079103,9.83393939 129.603305,10.0358788 C129.338503,10.1521212 128.899566,10.2484242 128.283953,10.3256364 L127.155258,10.4647879 C125.873189,10.6264242 124.899563,10.8979394 124.240311,11.2772121 C123.034505,11.9729697 122.43245,13.0959394 122.43245,14.6495152 C122.43245,15.846303 122.805292,16.7724242 123.556061,17.4253333 C124.303016,18.0782424 125.255034,18.352303 126.403218,18.4057576 C133.604579,18.7277576 133.522808,14.6058182 133.589326,13.7484242 L133.589326,9.00412121 C133.589326,7.48278788 133.049976,6.44593939 131.973818,5.8969697 L131.973818,5.8969697 Z" id="Fill-8" fill="#273673"></path>
                    <path d="M115.553513,7.90066667 C116.377155,7.90066667 116.980905,8.15521212 117.371966,8.66387879 C117.639734,9.04060606 117.807513,9.46527273 117.872337,9.93575758 L121.424505,9.93575758 C121.229611,8.14121212 120.602134,6.88842424 119.543771,6.17866667 C118.481595,5.47230303 117.121568,5.11593939 115.458184,5.11593939 C113.501611,5.11593939 111.964908,5.71793939 110.855279,6.9189697 C109.742684,8.12169697 109.185963,9.80212121 109.185963,11.9627879 C109.185963,13.8761212 109.6893,15.4356364 110.695974,16.6375152 C111.702647,17.8385455 113.273245,18.4401212 115.406918,18.4401212 C117.543558,18.4401212 119.1561,17.7197576 120.24285,16.2786061 C120.924558,15.386 121.306297,14.4378182 121.386797,13.4357576 L117.846492,13.4357576 C117.774889,14.098 117.568132,14.6384848 117.225371,15.0542424 C116.883882,15.4687273 116.308518,15.6778788 115.494197,15.6778788 C114.347708,15.6778788 113.567282,15.1547879 113.152071,14.1052121 C112.9254,13.5456364 112.810582,12.8044848 112.810582,11.8821818 C112.810582,10.9149091 112.9254,10.1389697 113.152071,9.55309091 C113.583382,8.45260606 114.384992,7.90066667 115.553513,7.90066667" id="Fill-9" fill="#273673"></path>
                    <path d="M108.233945,5.11593939 C100.937255,5.11593939 101.368989,11.5852121 101.368989,11.5852121 L101.368989,18.156303 L104.680082,18.156303 L104.680082,11.9929091 C104.680082,10.9832121 104.808034,10.2352727 105.060126,9.74866667 C105.514739,8.8870303 106.401934,8.45472727 107.726371,8.45472727 C107.825937,8.45472727 107.957279,8.45981818 108.119126,8.46745455 C108.279703,8.47509091 108.463158,8.48993939 108.673729,8.51412121 L108.673729,5.1409697 C108.526711,5.13078788 108.431382,5.12654545 108.390284,5.12272727 C108.347916,5.11890909 108.295379,5.11593939 108.233945,5.11593939" id="Fill-10" fill="#273673"></path>
                    <path d="M91.6195921,8.54933333 C92.0860684,8.07036364 92.7398132,7.83024242 93.5833684,7.83024242 C94.3599816,7.83024242 95.0094895,8.05551515 95.5348579,8.50945455 C96.0576842,8.96127273 96.35045,9.62563636 96.4097658,10.498303 L90.7442605,10.498303 C90.8624684,9.67824242 91.1556579,9.02957576 91.6195921,8.54933333 Z M96.0708184,14.7229091 C95.93185,14.9214545 95.7822895,15.0915758 95.6174763,15.2243636 C95.1497289,15.61 94.5146263,15.7270909 93.7668237,15.7270909 C93.0588474,15.7270909 92.5055158,15.6197576 92.0038737,15.3032727 C91.1776895,14.7950303 90.7129079,13.9346667 90.6633368,12.6712727 L99.8250842,12.6712727 C99.8382184,11.5843636 99.8030526,10.7515758 99.71535,10.1720606 C99.5628237,9.18527273 99.2281132,8.316 98.7137605,7.56763636 C98.1426342,6.71915152 97.4155921,6.09806061 96.5394132,5.70351515 C95.6628105,5.31193939 94.6777447,5.11509091 93.5833684,5.11509091 C91.7382237,5.11509091 90.2405,5.69715152 89.0851132,6.86042424 C87.93015,8.02624242 87.3501263,9.69733333 87.3501263,11.8792121 C87.3501263,14.208303 87.9907368,15.8891515 89.2711105,16.9221818 C90.5502132,17.9547879 92.0288711,18.4723636 93.7015763,18.4723636 C95.7289053,18.4723636 97.3071289,17.8601818 98.4332816,16.6345455 C99.0412684,15.989697 99.4217368,15.3520606 99.5823132,14.7229091 L96.0708184,14.7229091 L96.0708184,14.7229091 Z" id="Fill-11" fill="#273673"></path>
                    <path d="M86.0206053,18.1550303 L82.9963474,18.1550303 L82.9963474,10.5288485 C82.9963474,9.83224242 82.7667105,8.17472727 80.7715816,8.17472727 C79.4412132,8.17472727 78.4786026,9.13563636 78.4786026,10.5288485 L78.4786026,18.1550303 L75.4513789,18.1550303 L75.4513789,10.5288485 C75.4513789,9.83224242 75.2450447,8.17472727 73.2511868,8.17472727 C71.8975158,8.17472727 70.9573605,9.13563636 70.9573605,10.5288485 L70.9573605,18.1550303 L67.9309842,18.1550303 L67.9309842,10.6013939 C67.9309842,7.45266667 70.0167816,5.07224242 73.2511868,5.07224242 C74.8565263,5.07224242 76.1623211,5.74678788 77.0118079,6.82860606 C77.9049342,5.74678788 79.2344553,5.07224242 80.7715816,5.07224242 C84.0733526,5.07224242 86.0206053,7.35636364 86.0206053,10.6013939 L86.0206053,18.1550303" id="Fill-12" fill="#273673"></path>
                    <path d="M142.885805,14.6783636 C142.402382,15.372 141.692287,15.7186061 140.763147,15.7186061 C139.830618,15.7186061 139.137047,15.3690303 138.680316,14.6724242 C138.223161,13.9741212 137.994795,12.9584848 137.994795,11.7960606 C137.994795,10.7172121 138.218076,9.814 138.668876,9.086 C139.117982,8.35884848 139.822992,7.99357576 140.785179,7.99357576 C141.416468,7.99357576 141.9698,8.19424242 142.448139,8.59430303 C143.224753,9.2569697 143.613271,10.4461212 143.613271,11.985697 C143.613271,13.0874545 143.3705,13.9847273 142.885805,14.6783636 Z M146.857421,1.13357576 C146.857421,1.13357576 143.522179,0.776787879 143.522179,3.45969697 L143.519637,7.0110303 C143.150608,6.41793939 142.67015,5.95339394 142.077839,5.61951515 C141.4868,5.28436364 140.810176,5.11593939 140.046274,5.11593939 C138.392211,5.11593939 137.073705,5.73278788 136.083979,6.96478788 C135.094253,8.19806061 134.601932,9.97521212 134.601932,12.1235758 C134.601932,13.9881212 135.103574,15.5166667 136.107705,16.7070909 C137.111413,17.8958182 139.080274,18.4176364 140.828395,18.4176364 C146.925211,18.4176364 146.854879,13.1820606 146.854879,13.1820606 L146.857421,1.13357576 L146.857421,1.13357576 Z" id="Fill-13" fill="#273673"></path>
                    <path d="M97.6587868,30.227697 C97.6587868,28.9774545 97.4160158,28.0165455 96.9270842,27.342 C96.4411184,26.6712727 95.7437342,26.3314545 94.8345079,26.3314545 C93.9596,26.3314545 93.2774684,26.6712727 92.7885368,27.342 C92.3360421,27.9520606 92.1097947,28.9163636 92.1097947,30.227697 C92.1097947,31.4499394 92.3521421,32.3595152 92.8398026,32.9695758 C93.3253447,33.6441212 94.024,33.9801212 94.9323789,33.9801212 C95.7750868,33.9801212 96.4411184,33.6441212 96.9270842,32.9695758 C97.4160158,32.296303 97.6587868,31.3850303 97.6587868,30.227697 M92.1097947,39.1987273 C92.1097947,39.6475758 91.9471,40.0327879 91.6208632,40.3526667 C91.2975921,40.6738182 90.9078026,40.8341818 90.4531895,40.8341818 L88.79955,40.8341818 L88.79955,29.3130303 C88.79955,27.0721818 89.5537079,25.6692121 90.7946789,24.7210303 C91.6149316,24.094 92.8372605,23.4958182 95.1264263,23.4958182 C96.67245,23.4958182 98.4832763,24.0965455 99.4611395,25.2903636 C100.558482,26.6330909 101.016061,28.1293939 101.016061,30.0834545 C101.016061,32.1049697 100.529247,33.7357576 99.5568921,34.9893939 C98.5836895,36.2090909 97.3329737,36.8161818 95.8077105,36.8161818 C94.9967789,36.8161818 94.2832947,36.6715152 93.6672579,36.3851515 C93.0156316,36.0635758 92.4991605,35.5672121 92.1097947,34.8930909 L92.1097947,39.1987273" id="Fill-14" fill="#00A3DB"></path>
                    <path d="M117.505003,30.2293939 C117.505003,32.4392727 118.143495,33.6640606 119.417937,33.906303 C120.691108,34.1426061 121.632534,33.8464848 122.238403,33.0149697 C122.525237,32.6649697 122.731571,32.1100606 122.859524,31.3591515 C122.985782,30.6069697 122.99595,29.8615758 122.883674,29.1250909 C122.773939,28.3864848 122.509137,27.7297576 122.09435,27.1532121 C121.681258,26.5775152 121.074966,26.2881818 120.278016,26.2881818 C119.193808,26.2881818 118.462953,26.6903636 118.079518,27.4879394 C117.694389,28.2906061 117.505003,29.2031515 117.505003,30.2293939 M122.9557,35.7538788 L122.9557,34.9397576 C122.382879,35.8387273 121.607961,36.3953333 120.636453,36.6214545 C119.663674,36.8441818 118.699792,36.7644242 117.745655,36.3792121 C116.788129,35.9965455 115.966605,35.2829697 115.281084,34.2431515 C114.597258,33.1986667 114.254921,31.8292121 114.254921,30.1309697 C114.254921,28.1476364 114.709111,26.5359394 115.616218,25.3030909 C116.525021,24.0702424 117.984613,23.507697 119.992029,23.4525455 C121.970211,23.4003636 123.120513,23.8487879 124.246666,24.7027879 C125.477892,25.6386667 126.206205,27.074303 126.206205,29.3151515 L126.206205,36.0932727 C126.211289,38.2501212 124.709329,42.2473333 119.992029,41.9083636 C117.069455,41.6962424 115.446745,40.4956364 114.542179,37.7753939 L118.031642,37.7753939 C118.2867,38.2225455 118.676066,38.5670303 119.204824,38.8054545 C119.72765,39.0489697 120.256832,39.1109091 120.778811,38.9989091 C121.304603,38.8869091 121.782942,38.5733939 122.216371,38.0630303 C122.644292,37.5501212 122.890876,36.7801212 122.9557,35.7538788" id="Fill-15" fill="#00A3DB"></path>
                    <path d="M109.749039,31.5657576 C109.728279,32.6721818 109.411363,33.4315758 108.805071,33.8494545 C108.198355,34.2664848 107.534866,34.4752121 106.814603,34.4752121 C106.358718,34.4752121 105.973166,34.3487879 105.65625,34.0984848 C105.338063,33.8477576 105.179182,33.4387879 105.179182,32.8745455 C105.179182,32.2424242 105.439324,31.7744848 105.958761,31.4728485 C106.26805,31.2959394 106.771387,31.1436364 107.47555,31.0231515 L108.227166,30.8831515 C108.602974,30.8118788 108.897434,30.7367879 109.1097,30.6549091 C109.328745,30.5755758 109.538892,30.4703636 109.749039,30.3375758 L109.749039,31.5657576 Z M111.422592,24.3672121 C110.345163,23.8216364 109.113089,23.5454545 107.728066,23.5454545 C105.594816,23.5454545 104.092432,24.1024848 103.215829,25.2135758 C102.666311,25.9246061 102.35575,26.8324848 102.284571,27.9380606 L105.4711,27.9380606 C105.548634,27.4501818 105.704126,27.0641212 105.939695,26.7790303 C106.26805,26.3929697 106.826889,26.1995152 107.614942,26.1995152 C108.322071,26.1995152 108.854642,26.2966667 109.218163,26.4952121 C109.580837,26.6924848 109.763868,27.049697 109.763868,27.5672727 C109.763868,27.9923636 109.527453,28.3054545 109.052503,28.5065455 C108.788547,28.6223636 108.349187,28.7186667 107.73315,28.796303 L106.604455,28.9341818 C105.322811,29.0966667 104.348337,29.3690303 103.690355,29.7470303 C102.483279,30.4423636 101.881647,31.5657576 101.881647,33.1184848 C101.881647,34.315697 102.254489,35.2418182 103.005258,35.894303 C103.752213,36.5467879 104.703808,36.8221212 105.852416,36.8751515 C113.051658,37.1975758 112.971158,33.0747879 113.036829,32.2178182 L113.036829,27.4735152 C113.036829,25.9517576 112.499174,24.9170303 111.422592,24.3672121 L111.422592,24.3672121 Z" id="Fill-16" fill="#00A3DB"></path>
                    <path d="M136.099655,33.0501818 C135.585303,33.7357576 134.847245,34.077697 133.885482,34.077697 C132.923295,34.077697 132.181847,33.7357576 131.664529,33.0501818 C131.142974,32.3671515 130.885374,31.3935152 130.885374,30.1322424 C130.885374,28.8718182 131.142974,27.900303 131.664529,27.2202424 C132.181847,26.5384848 132.923295,26.1995152 133.885482,26.1995152 C134.847245,26.1995152 135.585303,26.5384848 136.099655,27.2202424 C136.615279,27.900303 136.872455,28.8718182 136.872455,30.1322424 C136.872455,31.3935152 136.615279,32.3671515 136.099655,33.0501818 M138.731158,25.4121212 C137.668558,24.0791515 136.056439,23.4143636 133.893532,23.4143636 C131.735708,23.4143636 130.123166,24.0791515 129.061413,25.4121212 C127.998813,26.7429697 127.467937,28.3156364 127.467937,30.1322424 C127.467937,31.9798182 127.998813,33.5584242 129.061413,34.8727273 C130.123166,36.1819394 131.735708,36.8395152 133.893532,36.8395152 C136.056439,36.8395152 137.668558,36.1819394 138.731158,34.8727273 C139.792063,33.5584242 140.321245,31.9798182 140.321245,30.1322424 C140.321245,28.3156364 139.792063,26.7429697 138.731158,25.4121212" id="Fill-17" fill="#00A3DB"></path>
                </g>
            </g>
        </g>
    </g>
</svg>