<?xml version="1.0" encoding="UTF-8"?>
<svg width="233px" height="121px" viewBox="0 0 233 121" version="1.1" xmlns="http://www.w3.org/2000/svg" xmlns:xlink="http://www.w3.org/1999/xlink">
    <!-- Generator: Sketch 43.2 (39069) - http://www.bohemiancoding.com/sketch -->
    <title>MercadoLibre</title>
    <desc>Created with Sketch.</desc>
    <defs></defs>
    <g id="Page-1" stroke="none" stroke-width="1" fill="none" fill-rule="evenodd">
        <g id="Logos" transform="translate(-119.000000, -1476.000000)">
            <g id="MercadoLibre" transform="translate(119.000000, 1476.000000)">
                <rect id="Rectangle-3" fill="#FFFFFF" x="-1.42108547e-14" y="0" width="233" height="121"></rect>
                <g id="ml" transform="translate(33.000000, 37.000000)" fill-rule="nonzero">
                    <g id="Group" transform="translate(0.000000, 0.830562)">
                        <path d="M59.6257377,19.2136629 C59.6257377,8.6378427 46.3101639,-2.84217094e-14 29.8829508,-2.84217094e-14 C13.4557377,-2.84217094e-14 0.140163934,8.6378427 0.140163934,19.2136629 L0.140163934,20.348764 C0.140163934,31.5890337 11.7737705,40.6698427 29.8829508,40.6698427 C48.1042623,40.6698427 59.6257377,31.5890337 59.6257377,20.348764 L59.6257377,19.2136629 Z" id="Shape" fill="#002E6D"></path>
                        <ellipse id="Oval" fill="#FFE900" cx="29.8829508" cy="19.1859775" rx="28.5934426" ry="18.0785618"></ellipse>
                        <g transform="translate(1.401639, 6.921348)" id="Shape" fill="#FFFFFF">
                            <path d="M18.9781967,6.5614382 C18.9501639,6.5891236 18.6698361,6.89366292 18.8660656,7.11514607 C19.3145902,7.69653933 20.7162295,8.00107865 22.1178689,7.69653933 C22.9588525,7.50274157 24.0240984,6.67217978 25.0893443,5.84161798 C26.2106557,4.95568539 27.3319672,4.06975281 28.4532787,3.7098427 C29.6586885,3.32224719 30.4155738,3.48835955 30.9201639,3.65447191 C31.4808197,3.82058427 32.1255738,4.18049438 33.1627869,4.95568539 C35.125082,6.39532584 43.0022951,13.2059326 44.3478689,14.3687191 C45.4411475,13.870382 50.3188525,11.8216629 56.9345902,10.3820225 C56.3739344,6.89366292 54.2154098,3.7098427 50.9636066,1.10741573 C46.4222951,2.99002247 40.8998361,3.95901124 35.4614754,1.35658427 C35.4334426,1.35658427 32.49,-0.0276853933 29.602623,0.0553707865 C25.3136066,0.16611236 23.4354098,1.99334831 21.4731148,3.93132584 L18.9781967,6.5614382 Z"></path>
                            <path d="M44.0395082,15.1162247 C43.9554098,15.0331685 34.7886885,7.11514607 32.7142623,5.56476404 C31.5088525,4.67883146 30.8360656,4.45734831 30.1352459,4.34660674 C29.7708197,4.29123596 29.2662295,4.37429213 28.9018033,4.45734831 C27.9486885,4.70651685 26.6872131,5.53707865 25.5659016,6.42301124 C24.4165574,7.33662921 23.3232787,8.1948764 22.2860656,8.41635955 C20.9965574,8.69321348 19.3986885,8.36098876 18.6698361,7.89033708 C18.3895082,7.69653933 18.1652459,7.47505618 18.0811475,7.25357303 C17.8008197,6.64449438 18.3054098,6.1461573 18.3895082,6.06310112 L20.912459,3.34993258 C21.1927869,3.07307865 21.5011475,2.76853933 21.8095082,2.49168539 C20.9965574,2.60242697 20.2396721,2.79622472 19.5108197,3.01770787 C18.5857377,3.2668764 17.7167213,3.51604494 16.8196721,3.51604494 C16.4552459,3.51604494 14.464918,3.18382022 14.072459,3.10076404 C11.7737705,2.49168539 9.78344262,1.88260674 6.78393443,0.498337079 C3.1957377,3.12844944 0.784918033,6.45069663 0.0840983607,10.0774831 C0.588688525,10.2159101 1.42967213,10.4650787 1.79409836,10.5204494 C9.92360656,12.32 12.4465574,14.147236 12.9231148,14.5348315 C13.4277049,13.9811236 14.1285246,13.6488989 14.9414754,13.6488989 C15.8385246,13.6488989 16.6514754,14.0918652 17.1560656,14.784 C17.632623,14.4240899 18.277377,14.1195506 19.0903279,14.1195506 C19.4547541,14.1195506 19.8472131,14.1749213 20.2677049,14.3133483 C21.1927869,14.6178876 21.6693443,15.2269663 21.8936066,15.7806742 C22.2019672,15.6422472 22.5663934,15.5315056 23.014918,15.5315056 C23.4634426,15.5315056 23.9119672,15.6422472 24.3604918,15.8360449 C25.8462295,16.472809 26.0985246,17.9124494 25.9583607,19.0198652 C26.0704918,19.0198652 26.182623,18.9921798 26.2947541,18.9921798 C28.0608197,18.9921798 29.5185246,20.4318202 29.5185246,22.176 C29.5185246,22.7297079 29.3783607,23.2280449 29.1260656,23.6710112 C29.602623,23.9478652 30.8360656,24.5569438 31.9293443,24.4185169 C32.7983607,24.3077753 33.1347541,24.0309213 33.2468852,23.864809 C33.3309836,23.7540674 33.415082,23.6156404 33.3309836,23.5325843 L31.0322951,21.0132135 C31.0322951,21.0132135 30.6678689,20.6533034 30.78,20.5148764 C30.9201639,20.3764494 31.1444262,20.5702472 31.312623,20.7086742 C32.49,21.6776629 33.9196721,23.1173034 33.9196721,23.1173034 C33.9477049,23.1449888 34.0318033,23.3111011 34.5644262,23.4218427 C35.0129508,23.5048989 35.8259016,23.4495281 36.3865574,23.0065618 C36.5267213,22.8958202 36.6668852,22.7573933 36.7790164,22.5912809 L36.7509836,22.6189663 C37.3396721,21.8714607 36.694918,21.1239551 36.694918,21.1239551 L34.0037705,18.161618 C34.0037705,18.161618 33.6113115,17.8017079 33.7514754,17.6632809 C33.8636066,17.5525393 34.1159016,17.7186517 34.2840984,17.8570787 C35.125082,18.5492135 36.3304918,19.7396854 37.4798361,20.8471011 C37.7040984,21.0132135 38.7132787,21.6222921 40.0588525,20.7640449 C40.8718033,20.2380225 41.04,19.6012584 41.0119672,19.1029213 C40.9559016,18.4661573 40.4513115,17.9955056 40.4513115,17.9955056 L36.7509836,14.3964045 C36.7509836,14.3964045 36.3585246,14.0641798 36.4986885,13.8980674 C36.6108197,13.7596404 36.8631148,13.9534382 37.0313115,14.0918652 C38.2086885,15.0608539 41.3483607,17.9124494 41.3483607,17.9124494 C41.4044262,17.9401348 42.4696721,18.7153258 43.8432787,17.8570787 C44.3198361,17.5525393 44.6281967,17.0818876 44.6562295,16.5558652 C44.6842623,15.6699326 44.0395082,15.1162247 44.0395082,15.1162247 Z"></path>
                            <path d="M26.2667213,19.712 C25.7060656,19.712 25.0893443,20.0442247 25.0052459,19.9888539 C24.9491803,19.9611685 25.0332787,19.7396854 25.0893443,19.6012584 C25.1454098,19.4628315 25.9022951,17.248 24.0801639,16.472809 C22.6785246,15.8914157 21.837541,16.5558652 21.5291803,16.8604045 C21.445082,16.9434607 21.4170492,16.9434607 21.4170492,16.8327191 C21.3890164,16.4451236 21.2208197,15.3377079 20.0154098,14.9777978 C18.3054098,14.4517753 17.1840984,15.6422472 16.9037705,16.0575281 C16.7916393,15.0885393 15.9506557,14.3410337 14.9414754,14.3410337 C13.8481967,14.3410337 12.9511475,15.2269663 12.9511475,16.3066966 C12.9511475,17.386427 13.8481967,18.2723596 14.9414754,18.2723596 C15.4740984,18.2723596 15.9506557,18.0508764 16.315082,17.7186517 C16.315082,17.7186517 16.3431148,17.7463371 16.315082,17.7740225 C16.2309836,18.2723596 16.0627869,20.0442247 17.9409836,20.7640449 C18.6978689,21.0408989 19.342623,20.8471011 19.8752459,20.4595056 C20.0434426,20.348764 20.0714754,20.4041348 20.0434426,20.5425618 C19.987377,20.9855281 20.0714754,21.9822022 21.445082,22.5359101 C22.5103279,22.951191 23.1270492,22.5359101 23.5195082,22.1483146 C23.6877049,21.9822022 23.7437705,22.0098876 23.7437705,22.2590562 C23.7998361,23.5879551 24.8931148,24.6123146 26.2386885,24.6123146 C27.6122951,24.6123146 28.7616393,23.5048989 28.7616393,22.1483146 C28.7896721,20.8194157 27.6683607,19.7396854 26.2667213,19.712 Z"></path>
                        </g>
                        <path d="M45.777541,21.0962697 C42.9462295,18.6599551 36.442623,13.0675056 34.6765574,11.7662921 C33.667377,11.0187865 32.9665574,10.631191 32.3778689,10.4373933 C32.097541,10.3543371 31.7331148,10.2712809 31.2565574,10.2712809 C30.8080328,10.2712809 30.3314754,10.3543371 29.8268852,10.5204494 C28.677541,10.8803596 27.5562295,11.7662921 26.434918,12.6245393 L26.3788525,12.6799101 C25.3416393,13.4827865 24.3044262,14.3133483 23.4914754,14.4794607 C23.155082,14.5625169 22.7906557,14.5902022 22.4262295,14.5902022 C21.5291803,14.5902022 20.7162295,14.3410337 20.4078689,13.9534382 C20.3518033,13.8980674 20.3798361,13.7873258 20.52,13.6488989 L20.5480328,13.6212135 L23.0429508,10.9911011 C24.9772131,9.08080899 26.827377,7.25357303 31.0603279,7.17051685 L31.2845902,7.17051685 C33.9196721,7.17051685 36.5547541,8.33330337 36.835082,8.47173034 C39.3019672,9.66220225 41.8529508,10.2712809 44.4039344,10.2712809 C47.0670492,10.2712809 49.8142623,9.60683146 52.7296721,8.30561798 C52.3932787,8.02876404 52.0568852,7.77959551 51.7204918,7.53042697 C49.1695082,8.6101573 46.7586885,9.16386517 44.4319672,9.16386517 C42.0491803,9.16386517 39.6663934,8.58247191 37.3396721,7.47505618 C37.227541,7.41968539 34.3121311,6.06310112 31.2845902,6.06310112 L31.0322951,6.06310112 C27.4721311,6.1461573 25.4818033,7.392 24.1362295,8.47173034 C22.8186885,8.49941573 21.697377,8.80395506 20.6881967,9.08080899 C19.7911475,9.32997753 19.0062295,9.55146067 18.2493443,9.55146067 C17.9409836,9.55146067 17.3803279,9.52377528 17.3242623,9.52377528 C16.4552459,9.49608989 12.0821311,8.44404494 8.60606557,7.14283146 C8.24163934,7.392 7.9052459,7.64116854 7.56885246,7.91802247 C11.2131148,9.38534831 15.6142623,10.5204494 17.0159016,10.6035056 C17.4083607,10.631191 17.8288525,10.6588764 18.2213115,10.6865618 C19.1463934,10.6865618 20.0714754,10.4373933 20.9685246,10.1882247 C21.5011475,10.0497978 22.0898361,9.88368539 22.6785246,9.77294382 C22.5103279,9.93905618 22.3421311,10.1051685 22.2019672,10.2435955 L19.6790164,12.9290787 C19.4827869,13.1228764 19.0622951,13.6488989 19.342623,14.3133483 C19.4547541,14.5625169 19.6790164,14.8393708 20.0154098,15.0331685 C20.6040984,15.420764 21.697377,15.697618 22.7065574,15.697618 C23.0990164,15.697618 23.4354098,15.6699326 23.7718033,15.5868764 C24.8370492,15.3653933 25.9303279,14.4794607 27.1077049,13.5658427 C28.0327869,12.8183371 29.3783607,11.9047191 30.387541,11.6278652 C30.6678689,11.544809 31.0322951,11.5171236 31.312623,11.5171236 L31.5368852,11.5171236 C32.2096721,11.6001798 32.8544262,11.8216629 34.0318033,12.6799101 C36.1062295,14.2026067 45.2729508,22.1206292 45.3570492,22.2036854 C45.3570492,22.2036854 45.9457377,22.7020225 45.9177049,23.5325843 C45.8896721,24.003236 45.637377,24.3908315 45.1888525,24.6953708 C44.7963934,24.9445393 44.4039344,25.0552809 43.9834426,25.0552809 C43.3667213,25.0552809 42.9462295,24.778427 42.9181967,24.7507416 C42.8901639,24.7230562 39.7504918,21.8714607 38.6011475,20.9301573 C38.404918,20.7917303 38.2367213,20.6533034 38.0685246,20.6533034 C37.9844262,20.6533034 37.9003279,20.6809888 37.8162295,20.7640449 C37.6480328,20.9855281 37.8442623,21.2900674 38.0685246,21.4838652 L41.7408197,25.1106517 C41.7408197,25.1106517 42.1893443,25.5259326 42.2454098,26.0796404 C42.2734426,26.6887191 41.9931148,27.1870562 41.3763934,27.5746517 C40.9559016,27.8515056 40.507377,27.9899326 40.0868852,27.9899326 C39.5262295,27.9899326 39.1337705,27.740764 39.0496721,27.6853933 L38.5170492,27.1870562 C37.5639344,26.2457528 36.5547541,25.276764 35.8259016,24.6953708 C35.6577049,24.5569438 35.4614754,24.4185169 35.2652459,24.4185169 C35.1811475,24.4185169 35.0970492,24.4462022 35.0409836,24.501573 C34.9568852,24.5846292 34.9008197,24.7507416 35.0970492,25.0275955 C35.1811475,25.1383371 35.2932787,25.2213933 35.2932787,25.2213933 L37.9563934,28.1837303 C37.9844262,28.2114157 38.5170492,28.8204944 38.012459,29.4572584 L37.9283607,29.568 C37.8442623,29.6510562 37.7601639,29.7341124 37.6760656,29.8171685 C37.227541,30.1770787 36.6108197,30.2324494 36.3585246,30.2324494 C36.2183607,30.2324494 36.1062295,30.2324494 35.9940984,30.204764 C35.7418033,30.1493933 35.5455738,30.0940225 35.4614754,29.9832809 L35.4334426,29.9555955 C35.2932787,29.8171685 33.9477049,28.4328989 32.8263934,27.5192809 C32.6862295,27.4085393 32.49,27.242427 32.2937705,27.242427 C32.2096721,27.242427 32.1255738,27.2701124 32.0414754,27.3531685 C31.8172131,27.6023371 32.1536066,27.9622472 32.2937705,28.0729888 L34.5644262,30.5646742 C34.5644262,30.5923596 34.5363934,30.6477303 34.4803279,30.7307865 C34.3962295,30.8415281 34.1159016,31.118382 33.3029508,31.2291236 C33.1908197,31.2291236 33.1067213,31.256809 32.9945902,31.256809 C32.1536066,31.256809 31.2285246,30.8415281 30.7519672,30.5923596 C30.9762295,30.1493933 31.0883607,29.6510562 31.0883607,29.1527191 C31.0883607,27.2977978 29.5745902,25.8027865 27.6963934,25.7751011 L27.5842623,25.7751011 C27.6403279,24.9168539 27.5281967,23.3111011 25.8462295,22.6189663 C25.3696721,22.4251685 24.8931148,22.314427 24.4165574,22.314427 C24.0521311,22.314427 23.7157377,22.3697978 23.3793443,22.5082247 C23.0429508,21.8437753 22.4542623,21.3731236 21.7254098,21.1239551 C21.304918,20.9855281 20.912459,20.9024719 20.4919672,20.9024719 C19.7911475,20.9024719 19.1463934,21.0962697 18.5857377,21.5115506 C18.0531148,20.8471011 17.2121311,20.4318202 16.3431148,20.4318202 C15.5862295,20.4318202 14.857377,20.7363596 14.2967213,21.262382 C13.5959016,20.7363596 10.7645902,18.9644944 3.22377049,17.2756854 C2.85934426,17.1926292 2.01836066,16.9434607 1.51377049,16.8050337 C1.42967213,17.2203146 1.37360656,17.6079101 1.31754098,18.023191 C1.31754098,18.023191 2.71918033,18.3554157 2.97147541,18.4107865 C10.6804918,20.0995955 13.2314754,21.8714607 13.6519672,22.2036854 C13.5118033,22.5359101 13.4277049,22.9235056 13.4277049,23.3111011 C13.4277049,24.8891685 14.7172131,26.1626966 16.315082,26.1626966 C16.4832787,26.1626966 16.6795082,26.1350112 16.8477049,26.1073258 C17.1,27.2701124 17.8568852,28.1283596 19.0342623,28.5990112 C19.3706557,28.7374382 19.735082,28.792809 20.0714754,28.792809 C20.2957377,28.792809 20.52,28.7651236 20.7162295,28.7097528 C20.9404918,29.2634607 21.4170492,29.9279101 22.5103279,30.3708764 C22.9027869,30.5093034 23.2672131,30.5923596 23.6316393,30.5923596 C23.94,30.5923596 24.2203279,30.5369888 24.5006557,30.4262472 C25.0332787,31.6720899 26.2667213,32.5026517 27.6403279,32.5026517 C28.5654098,32.5026517 29.4344262,32.1427416 30.0791803,31.4782921 C30.6398361,31.7828315 31.7891803,32.3365393 32.9665574,32.3365393 C33.1067213,32.3365393 33.274918,32.3365393 33.415082,32.3088539 C34.592459,32.170427 35.125082,31.7274607 35.377377,31.3675506 C35.4334426,31.3121798 35.4614754,31.2291236 35.4895082,31.1737528 C35.7698361,31.256809 36.0781967,31.3121798 36.4145902,31.3121798 C37.0593443,31.3121798 37.6480328,31.0906966 38.2647541,30.6477303 C38.8814754,30.204764 39.3019672,29.5956854 39.3580328,29.0696629 L39.3580328,29.0419775 C39.5542623,29.0973483 39.7785246,29.0973483 39.9747541,29.0973483 C40.6195082,29.0973483 41.2642623,28.9035506 41.8809836,28.4882697 C43.0583607,27.7130787 43.282623,26.7164045 43.2545902,26.0519551 C43.4508197,26.1073258 43.675082,26.1073258 43.8713115,26.1073258 C44.4880328,26.1073258 45.0767213,25.9135281 45.6654098,25.553618 C46.3942623,25.0829663 46.8427869,24.3908315 46.8988525,23.5602697 C46.954918,23.0065618 46.8147541,22.4251685 46.5063934,21.9545169 C48.4967213,21.0962697 53.0380328,19.4628315 58.3922951,18.2723596 C58.3642623,17.8570787 58.3081967,17.4694831 58.2240984,17.0542022 C51.832623,18.4938427 46.9829508,20.5425618 45.777541,21.0962697 Z M27.6683607,31.4229213 C26.4068852,31.4229213 25.3977049,30.4539326 25.3416393,29.2357753 C25.3416393,29.1250337 25.3136066,28.8481798 25.0893443,28.8481798 C24.9772131,28.8481798 24.8931148,28.9035506 24.8090164,28.9866067 C24.5286885,29.2357753 24.1922951,29.4849438 23.6596721,29.4849438 C23.4354098,29.4849438 23.1831148,29.429573 22.9027869,29.3188315 C21.5852459,28.792809 21.5572131,27.879191 21.6132787,27.5192809 C21.6413115,27.4085393 21.6413115,27.3254831 21.5572131,27.242427 L21.4731148,27.1593708 L21.3890164,27.1593708 C21.3329508,27.1593708 21.2488525,27.1870562 21.1647541,27.242427 C20.7722951,27.5192809 20.4078689,27.6300225 20.0434426,27.6300225 C19.8472131,27.6300225 19.6229508,27.6023371 19.4267213,27.5192809 C17.6886885,26.8548315 17.8288525,25.2213933 17.9129508,24.7230562 C17.9129508,24.6123146 17.9129508,24.5569438 17.8288525,24.501573 L17.7167213,24.3908315 L17.6045902,24.501573 C17.2681967,24.8337978 16.8196721,24.9999101 16.3431148,24.9999101 C15.3339344,24.9999101 14.5209836,24.1970337 14.5209836,23.2003596 C14.5209836,22.2036854 15.3339344,21.400809 16.3431148,21.400809 C17.2401639,21.400809 18.025082,22.0652584 18.1372131,22.9788764 L18.1932787,23.4495281 L18.4736066,23.0342472 C18.5016393,22.9788764 19.2304918,21.8991461 20.5760656,21.8991461 C20.8283607,21.8991461 21.1086885,21.9268315 21.3609836,22.0098876 C22.4262295,22.3421124 22.622459,23.2834157 22.6504918,23.6986966 C22.6785246,23.9201798 22.8467213,23.9478652 22.8747541,23.9478652 C22.9588525,23.9478652 23.0429508,23.8924944 23.0709836,23.8371236 C23.2672131,23.6156404 23.7157377,23.2834157 24.4165574,23.2834157 C24.724918,23.2834157 25.0613115,23.3664719 25.4257377,23.5048989 C27.1357377,24.2247191 26.3508197,26.3841798 26.3508197,26.3841798 C26.2106557,26.7440899 26.2106557,26.8825169 26.3227869,26.9932584 L26.3788525,27.0209438 L26.434918,27.0209438 C26.5190164,27.0209438 26.6031148,26.9932584 26.7713115,26.9378876 C26.9955738,26.8548315 27.36,26.7440899 27.6963934,26.7440899 L27.6963934,26.7440899 C28.9859016,26.7717753 30.0231148,27.7961348 30.0231148,29.0419775 C30.0231148,30.3985618 28.9578689,31.4229213 27.6683607,31.4229213 Z" id="Shape" fill="#002E6D"></path>
                    </g>
                    <path d="M71.5957377,9.4407191 L71.5957377,18.0785618 L68.0916393,18.0785618 L68.0916393,10.1328539 C68.0916393,6.28458427 70.0539344,4.34660674 73.9785246,4.34660674 C75.7445902,4.34660674 77.0901639,4.73420225 78.0713115,5.50939326 C79.052459,4.76188764 80.3980328,4.40197753 82.1640984,4.40197753 C86.0606557,4.40197753 88.0229508,6.31226966 87.994918,10.1882247 L87.994918,18.1339326 L86.2008197,18.1339326 C85.0514754,18.0508764 84.4908197,17.5248539 84.4908197,16.4451236 L84.4908197,9.49608989 C84.4067213,8.08413483 83.6498361,7.392 82.1080328,7.392 C80.5942623,7.392 79.8093443,8.08413483 79.7813115,9.49608989 L79.7813115,18.0785618 L76.3052459,18.0785618 L76.3052459,9.4407191 C76.2211475,8.02876404 75.4642623,7.33662921 73.922459,7.33662921 C72.3806557,7.33662921 71.6237705,8.02876404 71.5957377,9.4407191 Z" id="Shape" fill="#002E6D"></path>
                    <path d="M104.870656,11.1572135 C104.982787,6.78292135 107.169344,4.34660674 111.738689,4.34660674 L112.775902,4.34660674 L112.775902,7.86265169 L111.178033,7.89033708 C109.271803,7.89033708 108.346721,9.10849438 108.346721,11.0741573 L108.346721,18.1062472 L104.842623,18.1062472 L104.842623,11.1572135 L104.870656,11.1572135 Z" id="Shape" fill="#002E6D"></path>
                    <path d="M132.062459,8.58247191 L128.866721,8.58247191 C128.978852,5.98004494 130.324426,4.23586517 134.220984,4.23586517 C138.00541,4.23586517 139.911639,5.45402247 139.995738,7.97339326 L139.995738,12.5691685 C139.995738,16.3066966 137.725082,17.9678202 134.024754,18.2169888 C130.744918,18.4661573 128.44623,16.9711461 128.44623,13.9811236 C128.530328,10.7419326 130.913115,9.856 134.361148,9.52377528 C135.846885,9.35766292 136.575738,8.91469663 136.575738,8.16719101 C136.491639,7.392 135.762787,7.03208989 134.361148,7.00440449 C132.763279,7.00440449 132.230656,7.94570787 132.062459,8.58247191 Z M136.631803,12.4030562 L136.631803,11.2956404 C135.818852,11.6278652 134.89377,11.7662921 133.88459,11.9600899 C132.510984,12.2092584 131.810164,12.8460225 131.810164,13.8426966 C131.894262,14.922427 132.454918,15.420764 133.548197,15.420764 C135.482459,15.4484494 136.631803,14.3410337 136.631803,12.4030562 Z" id="Shape" fill="#002E6D"></path>
                    <path d="M154.740984,0.0276853933 L154.740984,12.2092584 C154.740984,16.2790112 152.582459,18.3000449 148.321475,18.2723596 C144.088525,18.1893034 141.958033,15.9191011 141.958033,11.406382 C141.958033,6.81060674 143.780164,4.45734831 147.424426,4.31892135 C149.134426,4.31892135 150.451967,5.01105618 151.320984,6.42301124 L151.320984,2.10408989 L151.320984,1.71649438 C152.470328,0.0830561798 154.740984,0.0276853933 154.740984,0.0276853933 Z M145.518197,11.2679551 C145.490164,14.008809 146.415246,15.3930787 148.405574,15.3930787 C150.367869,15.3930787 151.349016,14.008809 151.349016,11.2679551 C151.264918,8.66552809 150.311803,7.392 148.461639,7.392 C146.583443,7.392 145.602295,8.66552809 145.518197,11.2679551 Z" id="Shape" fill="#002E6D"></path>
                    <path d="M93.4332787,20.1826517 L94.3303279,20.1826517 L94.3303279,38.0951011 L90.8822951,38.0951011 L90.8822951,22.3697978 C90.8822951,21.8714607 91.9755738,20.1826517 93.4332787,20.1826517 Z" id="Shape" fill="#002E6D"></path>
                    <path d="M112.187213,24.1693483 C110.477213,24.1693483 109.187705,24.8614831 108.290656,26.2734382 L108.290656,20.2103371 L107.92623,20.2103371 L107.92623,20.2103371 C106.21623,20.2380225 105.31918,21.1239551 104.870656,21.8714607 L104.870656,21.7607191 L104.870656,32.0596854 C104.870656,36.1294382 107.02918,38.1504719 111.290164,38.1227865 C115.523115,38.0397303 117.653607,35.7695281 117.653607,31.256809 C117.653607,26.6610337 115.859508,24.3077753 112.187213,24.1693483 Z M111.178033,35.2158202 C109.215738,35.2158202 108.290656,33.8315506 108.290656,31.0906966 C108.402787,28.4882697 109.355902,27.2147416 111.206066,27.2147416 C113.05623,27.2147416 114.037377,28.4882697 114.093443,31.0906966 C114.149508,33.8315506 113.140328,35.2158202 111.178033,35.2158202 Z" id="Shape" fill="#002E6D"></path>
                    <path d="M94.1060656,14.6732584 C94.6667213,15.1992809 95.4516393,15.4761348 96.4888525,15.4761348 C97.2177049,15.4761348 97.862459,15.2823371 98.395082,14.922427 C98.9277049,14.5625169 99.2640984,14.1749213 99.3762295,13.7596404 L102.6,13.7596404 C102.09541,15.3377079 101.282459,16.472809 100.217213,17.1372584 C99.1519672,17.8293933 97.862459,18.161618 96.3486885,18.161618 C95.3114754,18.161618 94.3583607,17.9955056 93.517377,17.6632809 C92.6763934,17.3310562 91.947541,16.8604045 91.3868852,16.2513258 C90.7981967,15.6422472 90.3496721,14.922427 90.0413115,14.0641798 C89.7329508,13.2059326 89.5647541,12.2923146 89.5647541,11.2679551 C89.5647541,10.2712809 89.7329508,9.35766292 90.0413115,8.52710112 C90.3777049,7.66885393 90.8262295,6.94903371 91.4429508,6.31226966 C92.0316393,5.70319101 92.7604918,5.20485393 93.6014754,4.84494382 C94.442459,4.48503371 95.367541,4.31892135 96.3767213,4.31892135 C97.5260656,4.31892135 98.5072131,4.54040449 99.3481967,4.95568539 C100.18918,5.39865169 100.89,5.98004494 101.422623,6.69986517 C101.955246,7.41968539 102.347705,8.25024719 102.6,9.19155056 C102.852295,10.1328539 102.936393,11.1018427 102.852295,12.1262022 L93.2370492,12.1262022 C93.265082,13.3166742 93.5734426,14.147236 94.1060656,14.6732584 Z M98.254918,7.75191011 C97.8063934,7.28125843 97.1616393,7.03208989 96.2645902,7.03208989 C95.6759016,7.03208989 95.1993443,7.14283146 94.8068852,7.33662921 C94.4144262,7.53042697 94.1060656,7.77959551 93.8818033,8.05644944 C93.657541,8.33330337 93.4893443,8.6378427 93.3772131,8.97006742 C93.2931148,9.30229213 93.2370492,9.57914607 93.2090164,9.82831461 L99.18,9.82831461 C99.0118033,8.91469663 98.7034426,8.2225618 98.254918,7.75191011 Z" id="Shape" fill="#002E6D"></path>
                    <path d="M120.512951,7.00440449 C119.924262,7.00440449 119.419672,7.14283146 119.027213,7.392 C118.634754,7.66885393 118.298361,8.00107865 118.046066,8.41635955 C117.79377,8.83164045 117.625574,9.30229213 117.513443,9.80062921 C117.401311,10.2989663 117.345246,10.7973034 117.345246,11.2956404 C117.345246,11.7662921 117.401311,12.2646292 117.513443,12.7629663 C117.625574,13.2613034 117.79377,13.7042697 118.018033,14.1195506 C118.242295,14.5348315 118.578689,14.8670562 118.971148,15.1162247 C119.363607,15.3653933 119.868197,15.5038202 120.428852,15.5038202 C121.325902,15.5038202 121.998689,15.2546517 122.475246,14.7563146 C122.951803,14.2579775 123.260164,13.6212135 123.372295,12.7906517 L126.932459,12.7906517 C126.680164,14.5625169 126.007377,15.9191011 124.858033,16.8327191 C123.708689,17.7463371 122.250984,18.2169888 120.456885,18.2169888 C119.447705,18.2169888 118.522623,18.0508764 117.681639,17.7186517 C116.840656,17.386427 116.111803,16.9157753 115.523115,16.3066966 C114.934426,15.697618 114.457869,14.9777978 114.149508,14.147236 C113.813115,13.3166742 113.644918,12.4030562 113.644918,11.406382 C113.644918,10.3820225 113.785082,9.41303371 114.093443,8.52710112 C114.401803,7.64116854 114.850328,6.86597753 115.439016,6.22921348 C116.027705,5.59244944 116.756557,5.09411236 117.597541,4.73420225 C118.438525,4.37429213 119.419672,4.18049438 120.512951,4.18049438 C121.325902,4.18049438 122.082787,4.29123596 122.811639,4.48503371 C123.540492,4.67883146 124.213279,5.01105618 124.801967,5.42633708 C125.390656,5.84161798 125.867213,6.36764045 126.231639,7.00440449 C126.596066,7.64116854 126.792295,8.36098876 126.848361,9.21923596 L123.232131,9.21923596 C123.007869,7.75191011 122.11082,7.00440449 120.512951,7.00440449 Z" id="Shape" fill="#002E6D"></path>
                    <path d="M157.404098,8.36098876 C157.740492,7.50274157 158.217049,6.75523596 158.805738,6.1461573 C159.422459,5.53707865 160.151311,5.06642697 160.992295,4.73420225 C161.833279,4.40197753 162.786393,4.23586517 163.851639,4.23586517 C164.916885,4.23586517 165.87,4.40197753 166.739016,4.73420225 C167.608033,5.06642697 168.336885,5.53707865 168.953607,6.1461573 C169.570328,6.75523596 170.018852,7.50274157 170.355246,8.36098876 C170.691639,9.21923596 170.859836,10.1882247 170.859836,11.2679551 C170.859836,12.32 170.691639,13.2889888 170.355246,14.147236 C170.018852,15.0054831 169.542295,15.7529888 168.953607,16.3620674 C168.336885,16.9711461 167.608033,17.4417978 166.739016,17.7740225 C165.87,18.1062472 164.916885,18.2723596 163.851639,18.2723596 C162.786393,18.2723596 161.833279,18.1062472 160.992295,17.7740225 C160.151311,17.4417978 159.422459,16.9711461 158.805738,16.3620674 C158.189016,15.7529888 157.740492,15.0054831 157.404098,14.147236 C157.067705,13.2889888 156.899508,12.32 156.899508,11.2679551 C156.899508,10.2159101 157.067705,9.24692135 157.404098,8.36098876 Z M160.768033,12.8183371 C160.880164,13.3166742 161.048361,13.7873258 161.300656,14.1749213 C161.552951,14.5902022 161.889344,14.8947416 162.309836,15.1439101 C162.730328,15.3930787 163.234918,15.5038202 163.879672,15.5038202 C164.496393,15.5038202 165.029016,15.3930787 165.449508,15.1439101 C165.87,14.8947416 166.206393,14.5902022 166.458689,14.1749213 C166.710984,13.7596404 166.87918,13.3166742 166.991311,12.8183371 C167.103443,12.32 167.159508,11.7939775 167.159508,11.2679551 C167.159508,10.7419326 167.103443,10.2159101 166.991311,9.68988764 C166.87918,9.16386517 166.710984,8.72089888 166.458689,8.33330337 C166.206393,7.94570787 165.87,7.61348315 165.449508,7.36431461 C165.029016,7.11514607 164.496393,7.00440449 163.879672,7.00440449 C163.262951,7.00440449 162.730328,7.14283146 162.309836,7.36431461 C161.889344,7.61348315 161.552951,7.94570787 161.300656,8.33330337 C161.048361,8.72089888 160.880164,9.19155056 160.768033,9.68988764 C160.655902,10.2159101 160.599836,10.7419326 160.599836,11.2679551 C160.599836,11.7939775 160.655902,12.32 160.768033,12.8183371 Z" id="Shape" fill="#002E6D"></path>
                    <path d="M119.671967,31.0906966 C119.784098,26.7164045 121.970656,24.2800899 126.54,24.2800899 L127.577213,24.2800899 L127.577213,27.7961348 L125.979344,27.8238202 C124.073115,27.8238202 123.148033,29.0419775 123.148033,31.0076404 L123.148033,38.0397303 L119.643934,38.0397303 L119.643934,31.0906966 L119.671967,31.0906966 Z" id="Shape" fill="#002E6D"></path>
                    <path d="M133.043607,34.6067416 C133.604262,35.132764 134.38918,35.409618 135.426393,35.409618 C136.155246,35.409618 136.8,35.2158202 137.332623,34.8559101 C137.865246,34.496 138.201639,34.1084045 138.31377,33.6931236 L141.537541,33.6931236 C141.032951,35.271191 140.22,36.4062921 139.154754,37.0707416 C138.089508,37.7628764 136.8,38.0951011 135.28623,38.0951011 C134.249016,38.0951011 133.295902,37.9289888 132.454918,37.596764 C131.613934,37.2645393 130.885082,36.7938876 130.324426,36.184809 C129.735738,35.5757303 129.287213,34.8559101 128.978852,33.9976629 C128.670492,33.1394157 128.502295,32.2257978 128.502295,31.2014382 C128.502295,30.204764 128.670492,29.2911461 128.978852,28.4605843 C129.315246,27.6023371 129.76377,26.8825169 130.380492,26.2457528 C130.96918,25.6366742 131.698033,25.1383371 132.539016,24.778427 C133.38,24.4185169 134.305082,24.2524045 135.314262,24.2524045 C136.463607,24.2524045 137.444754,24.4738876 138.285738,24.8891685 C139.126721,25.3321348 139.827541,25.9135281 140.360164,26.6333483 C140.892787,27.3531685 141.285246,28.1837303 141.537541,29.1250337 C141.789836,30.0663371 141.873934,31.0353258 141.789836,32.0596854 L132.17459,32.0596854 C132.202623,33.2501573 132.482951,34.0807191 133.043607,34.6067416 Z M137.192459,27.6853933 C136.743934,27.2147416 136.09918,26.965573 135.202131,26.965573 C134.613443,26.965573 134.136885,27.0763146 133.744426,27.2701124 C133.351967,27.4639101 133.043607,27.7130787 132.819344,27.9899326 C132.595082,28.2667865 132.426885,28.5713258 132.314754,28.9035506 C132.230656,29.2357753 132.17459,29.5126292 132.146557,29.7617978 L138.117541,29.7617978 C137.921311,28.8481798 137.612951,28.1560449 137.192459,27.6853933 Z" id="Shape" fill="#002E6D"></path>
                    <rect id="Rectangle-path" fill="#002E6D" x="98.0306557" y="20.1826517" width="3.44803279" height="3.10076404"></rect>
                    <rect id="Rectangle-path" fill="#002E6D" x="98.0306557" y="24.8614831" width="3.44803279" height="13.2613034"></rect>
                </g>
            </g>
        </g>
    </g>
</svg>