<svg width="233" height="121" xmlns="http://www.w3.org/2000/svg"><title>MercadoPago</title><g fill="none" fill-rule="evenodd"><path fill="#FFF" d="M0 0h233v121H0z"/><path d="M94.887 56.284c0-10.612-13.167-19.262-29.41-19.262-16.244 0-29.41 8.65-29.41 19.262l-.004 1.128c0 11.257 11.51 20.376 29.41 20.376 18.011 0 29.414-9.116 29.414-20.374v-1.13" fill="#273673"/><path d="M93.761 56.275c0 10.004-12.66 18.114-28.28 18.114-15.618 0-28.278-8.11-28.278-18.114 0-10.006 12.66-18.116 28.279-18.116 15.618 0 28.28 8.11 28.28 18.116" fill="#00A3DB"/><path d="M56.092 50.56c-.015.028-.297.32-.114.555.446.57 1.824.898 3.218.585.83-.187 1.894-1.034 2.925-1.853 1.116-.888 2.224-1.778 3.338-2.131 1.18-.376 1.935-.215 2.434-.064.548.164 1.192.525 2.22 1.296 1.934 1.457 9.715 8.257 11.06 9.433 1.082-.49 5.894-2.564 12.433-4.007-.568-3.49-2.688-6.684-5.905-9.3-4.482 1.886-9.96 2.87-15.316.25-.027-.011-2.927-1.386-5.786-1.318-4.25.099-6.091 1.94-8.04 3.89l-2.467 2.663" fill="#FFF"/><path d="M80.856 59.12c-.09-.08-9.148-8.016-11.2-9.56-1.188-.892-1.848-1.12-2.541-1.209-.362-.047-.86.02-1.21.116-.954.26-2.202 1.096-3.31 1.976-1.147.915-2.23 1.777-3.233 2.002-1.283.288-2.848-.052-3.563-.536-.29-.195-.493-.42-.591-.65-.264-.612.223-1.102.303-1.184l2.499-2.707c.29-.29.583-.581.883-.867-.807.105-1.552.311-2.278.513-.906.256-1.777.498-2.658.497-.368 0-2.34-.323-2.713-.425-2.262-.62-4.247-1.223-7.213-2.61-3.553 2.649-5.93 5.961-6.615 9.609.51.135 1.332.38 1.678.457 8.041 1.79 10.546 3.634 11 4.02a2.67 2.67 0 0 1 1.994-.895c.89 0 1.691.448 2.178 1.14a3.038 3.038 0 0 1 1.917-.675c.373 0 .76.07 1.15.202.907.312 1.376.917 1.618 1.464a2.68 2.68 0 0 1 1.12-.238c.432 0 .883.1 1.337.296 1.482.637 1.713 2.095 1.579 3.194a3.193 3.193 0 0 1 3.507 3.176c0 .545-.14 1.057-.382 1.507.478.27 1.698.879 2.768.742.855-.107 1.18-.4 1.296-.565.08-.113.164-.245.086-.34l-2.269-2.524s-.373-.354-.25-.49c.128-.14.359.06.522.198 1.155.965 2.565 2.422 2.565 2.422.024.016.117.201.638.294.449.081 1.243.034 1.793-.418.14-.115.278-.257.394-.404-.009.007-.017.017-.025.02.58-.743-.064-1.496-.064-1.496l-2.65-2.978s-.378-.35-.25-.492c.116-.122.36.063.526.2.838.703 2.023 1.894 3.159 3.008.222.162 1.22.78 2.542-.089.801-.527.963-1.173.94-1.662-.056-.646-.56-1.107-.56-1.107l-3.618-3.642s-.382-.327-.247-.492c.11-.14.359.06.521.197 1.153.966 4.273 3.83 4.273 3.83.045.032 1.123.8 2.455-.049.476-.305.781-.765.807-1.298.046-.927-.608-1.477-.608-1.477" fill="#FFF"/><path d="M63.306 63.738c-.56-.006-1.174.327-1.255.279-.044-.03.034-.255.087-.386.054-.129.793-2.355-1.008-3.128-1.378-.593-2.221.074-2.51.375-.077.08-.11.073-.12-.028-.027-.4-.206-1.485-1.395-1.848-1.7-.521-2.794.667-3.071 1.095a1.968 1.968 0 0 0-3.922.25c0 1.092.883 1.977 1.973 1.977.53.001 1.01-.211 1.364-.551.011.01.016.029.01.066-.082.489-.236 2.265 1.622 2.988.744.29 1.378.074 1.903-.295.156-.11.182-.064.16.084-.067.456.017 1.434 1.387 1.99 1.042.424 1.658-.01 2.062-.383.176-.161.223-.135.233.113a2.476 2.476 0 0 0 2.477 2.372 2.481 2.481 0 0 0 2.485-2.482 2.493 2.493 0 0 0-2.482-2.488" fill="#FFF"/><path d="M63.306 68.531a2.289 2.289 0 0 1-2.3-2.201c-.003-.106-.014-.386-.251-.386-.098 0-.183.058-.28.146-.273.254-.622.512-1.13.512-.23 0-.48-.054-.745-.162-1.313-.532-1.331-1.435-1.278-1.798.015-.097.02-.198-.047-.276l-.08-.073h-.082c-.067 0-.136.027-.229.093-.38.267-.744.397-1.114.397-.204 0-.413-.04-.622-.122-1.73-.674-1.592-2.307-1.508-2.799.012-.1-.012-.177-.075-.228l-.122-.1-.115.109a1.777 1.777 0 0 1-1.24.503 1.798 1.798 0 0 1 .003-3.593c.894 0 1.655.673 1.77 1.568l.061.483.265-.409c.03-.047.755-1.146 2.088-1.145.254 0 .516.041.78.123 1.063.325 1.243 1.29 1.27 1.692.02.235.186.246.219.246.092 0 .16-.059.207-.11.2-.209.638-.557 1.321-.557.314 0 .647.075.99.223 1.69.726.923 2.875.915 2.898-.146.356-.152.514-.015.604l.067.032h.049c.076 0 .17-.033.327-.086.23-.08.577-.2.901-.199h.001c1.272.014 2.307 1.05 2.306 2.31a2.31 2.31 0 0 1-2.307 2.305zm17.9-10.36c-2.79-2.439-9.237-8.052-10.984-9.364-.998-.752-1.678-1.149-2.276-1.327a3.765 3.765 0 0 0-1.117-.174c-.444 0-.922.08-1.42.239-1.129.358-2.253 1.253-3.34 2.118l-.056.044c-1.014.807-2.06 1.64-2.853 1.818a4.808 4.808 0 0 1-1.056.119c-.888-.002-1.685-.258-1.984-.64-.049-.063-.017-.165.098-.312l.015-.02 2.455-2.648c1.922-1.925 3.738-3.743 7.918-3.839.068-.002.14-.003.208-.003 2.602.002 5.203 1.168 5.494 1.303 2.44 1.192 4.958 1.797 7.49 1.799 2.637 0 5.359-.653 8.22-1.973a22.74 22.74 0 0 0-.994-.788c-2.514 1.092-4.909 1.643-7.22 1.642-2.36-.002-4.718-.57-7.007-1.688-.122-.058-2.993-1.414-5.982-1.415-.078 0-.157.001-.235.003-3.51.082-5.489 1.33-6.819 2.424-1.293.031-2.409.344-3.402.622-.886.246-1.65.46-2.397.46-.308 0-.86-.029-.91-.03-.858-.027-5.182-1.088-8.621-2.392-.351.249-.689.506-1.018.767 3.593 1.475 7.965 2.616 9.345 2.705.384.026.793.07 1.202.07.913 0 1.824-.256 2.706-.503.52-.147 1.095-.306 1.7-.422a64.48 64.48 0 0 0-.484.481l-2.494 2.701c-.196.199-.623.728-.342 1.38.112.264.339.515.656.73.594.4 1.658.67 2.647.672a4.8 4.8 0 0 0 1.056-.111c1.045-.235 2.141-1.11 3.303-2.034.926-.736 2.24-1.671 3.247-1.946.282-.077.627-.124.905-.124.083 0 .161.003.234.013.665.085 1.309.311 2.457 1.174 2.047 1.54 11.105 9.475 11.193 9.553.007.005.584.504.544 1.334-.021.462-.278.873-.723 1.157-.387.246-.786.371-1.19.371a1.954 1.954 0 0 1-1.049-.304c-.033-.027-3.137-2.877-4.278-3.834-.182-.15-.36-.287-.538-.287-.095 0-.18.04-.237.112-.18.222.021.529.259.731l3.625 3.648c.005.004.452.424.5.984.03.604-.26 1.11-.86 1.505-.428.282-.86.425-1.285.425-.557 0-.948-.254-1.034-.314l-.52-.514c-.95-.936-1.932-1.904-2.65-2.504-.175-.146-.363-.28-.54-.28a.307.307 0 0 0-.229.096c-.082.091-.14.255.065.527.084.112.183.204.183.204l2.646 2.976c.022.026.545.65.06 1.27l-.094.118a2.73 2.73 0 0 1-.246.238c-.451.37-1.054.41-1.293.41-.127 0-.25-.011-.357-.03-.261-.047-.437-.12-.522-.22l-.032-.034c-.145-.15-1.478-1.513-2.581-2.435-.146-.122-.327-.276-.515-.276a.315.315 0 0 0-.239.107c-.218.24.11.598.249.729l2.256 2.492a.523.523 0 0 1-.085.151c-.08.112-.355.387-1.173.49-.098.013-.2.017-.3.017-.844 0-1.744-.41-2.208-.656a3.372 3.372 0 0 0-3.165-4.803c.06-.849-.06-2.457-1.707-3.165a3.543 3.543 0 0 0-1.408-.31c-.36 0-.706.062-1.03.187-.342-.664-.91-1.148-1.65-1.4a3.69 3.69 0 0 0-1.207-.214 3.18 3.18 0 0 0-1.881.603 2.848 2.848 0 0 0-2.214-1.07 2.86 2.86 0 0 0-2.01.832c-.703-.537-3.489-2.309-10.946-4.004-.36-.082-1.19-.32-1.697-.469-.084.405-.149.813-.191 1.225 0 0 1.375.33 1.646.391 7.618 1.694 10.134 3.456 10.56 3.789a2.86 2.86 0 0 0 3.158 3.91c.237 1.16.995 2.039 2.153 2.49.338.13.681.197 1.017.197.217 0 .436-.027.65-.081.213.543.695 1.222 1.77 1.66.378.151.755.23 1.122.23.3 0 .592-.052.871-.155a3.357 3.357 0 0 0 5.523 1.068c.544.302 1.69.85 2.85.851.15 0 .29-.01.431-.027 1.151-.146 1.687-.597 1.933-.947.045-.061.085-.126.119-.193.271.078.57.142.912.142.63 0 1.232-.214 1.842-.66.6-.432 1.025-1.053 1.086-1.581a.329.329 0 0 0 .004-.023c.201.042.41.063.616.063.647 0 1.284-.202 1.892-.601 1.173-.77 1.377-1.776 1.358-2.435.205.043.415.065.624.065.607 0 1.203-.183 1.772-.546.728-.465 1.165-1.178 1.231-2.008a2.706 2.706 0 0 0-.39-1.621c1.966-.848 6.46-2.49 11.75-3.684a12.014 12.014 0 0 0-.164-1.22c-6.402 1.422-11.18 3.493-12.376 4.026zm111.268-6.521c-.515.686-1.252 1.028-2.215 1.028-.962 0-1.702-.342-2.221-1.027-.52-.684-.779-1.658-.779-2.92 0-1.26.259-2.232.779-2.913.519-.68 1.26-1.02 2.22-1.02.964 0 1.701.34 2.216 1.02.515.681.773 1.653.773 2.913 0 1.262-.258 2.236-.773 2.92zm2.63-7.64c-1.06-1.332-2.672-1.997-4.835-1.997-2.16 0-3.772.665-4.833 1.998-1.063 1.33-1.594 2.904-1.594 4.72 0 1.848.531 3.427 1.594 4.741 1.06 1.31 2.673 1.968 4.833 1.968 2.163 0 3.774-.657 4.835-1.968 1.063-1.314 1.593-2.893 1.593-4.741 0-1.816-.53-3.39-1.593-4.72zm-28.802 6.086c-.022 1.105-.339 1.866-.946 2.283a3.443 3.443 0 0 1-1.99.627c-.456 0-.842-.127-1.16-.377-.317-.251-.474-.66-.474-1.224 0-.633.258-1.1.778-1.402.308-.177.813-.33 1.517-.45l.752-.14a5.47 5.47 0 0 0 .884-.228 3.34 3.34 0 0 0 .639-.317v1.228zm1.672-7.199c-1.076-.546-2.309-.823-3.695-.823-2.132 0-3.636.558-4.512 1.669-.55.712-.86 1.62-.931 2.724h3.184c.079-.487.235-.873.47-1.159.328-.386.887-.579 1.676-.579.706 0 1.239.097 1.604.296.362.197.545.555.545 1.071 0 .426-.236.738-.712.94-.264.116-.703.212-1.319.29l-1.129.139c-1.282.161-2.255.433-2.915.812-1.205.696-1.808 1.819-1.808 3.373 0 1.196.373 2.122 1.124 2.775.747.653 1.699.927 2.847.98 7.202.323 7.12-3.8 7.186-4.657v-4.744c0-1.521-.539-2.558-1.615-3.107zm-16.42 2.003c.823 0 1.427.255 1.818.764.268.377.436.801.5 1.272h3.553c-.195-1.795-.823-3.048-1.881-3.757-1.062-.707-2.422-1.063-4.086-1.063-1.956 0-3.493.602-4.603 1.803-1.112 1.203-1.669 2.883-1.669 5.044 0 1.913.503 3.473 1.51 4.675 1.007 1.2 2.577 1.802 4.71 1.802 2.138 0 3.75-.72 4.837-2.161.682-.893 1.063-1.841 1.144-2.843h-3.54c-.072.662-.279 1.202-.622 1.618-.341.415-.916.624-1.73.624-1.147 0-1.928-.523-2.343-1.573-.227-.56-.341-1.3-.341-2.223 0-.967.114-1.743.341-2.329.431-1.1 1.233-1.652 2.402-1.652m-7.32-2.785c-7.297 0-6.865 6.47-6.865 6.47v6.57h3.311v-6.163c0-1.01.128-1.758.38-2.244.455-.862 1.342-1.294 2.666-1.294a9.037 9.037 0 0 1 .948.06V42.14c-.147-.01-.243-.014-.284-.018a1.745 1.745 0 0 0-.156-.007M127.62 45.55c.466-.48 1.12-.72 1.963-.72.777 0 1.426.226 1.952.68.523.451.815 1.116.875 1.988h-5.666c.118-.82.412-1.468.876-1.949zm4.45 6.173a2.416 2.416 0 0 1-.453.501c-.467.386-1.102.503-1.85.503-.708 0-1.261-.107-1.763-.424-.826-.508-1.291-1.368-1.34-2.632h9.161c.013-1.087-.022-1.92-.11-2.499-.152-.987-.487-1.856-1.001-2.604-.571-.849-1.298-1.47-2.175-1.864-.876-.392-1.861-.589-2.956-.589-1.845 0-3.342.582-4.498 1.745-1.155 1.166-1.735 2.837-1.735 5.02 0 2.328.64 4.01 1.921 5.042 1.28 1.033 2.758 1.55 4.43 1.55 2.028 0 3.606-.612 4.732-1.837.608-.645.989-1.283 1.15-1.912h-3.512zm-10.05 3.432h-3.024v-7.626c0-.697-.23-2.354-2.224-2.354-1.33 0-2.293.96-2.293 2.354v7.626h-3.028v-7.626c0-.697-.206-2.354-2.2-2.354-1.353 0-2.294.96-2.294 2.354v7.626h-3.026v-7.554c0-3.148 2.086-5.529 5.32-5.529 1.606 0 2.911.675 3.76 1.757a4.815 4.815 0 0 1 3.76-1.757c3.302 0 5.25 2.284 5.25 5.53v7.553m56.865-3.477c-.484.694-1.194 1.04-2.123 1.04-.932 0-1.626-.349-2.083-1.046-.457-.698-.685-1.714-.685-2.876 0-1.079.223-1.982.674-2.71.449-.727 1.154-1.092 2.116-1.092.631 0 1.185.2 1.663.6.777.663 1.165 1.852 1.165 3.392 0 1.101-.243 1.999-.727 2.692zm3.971-13.544s-3.335-.357-3.335 2.326l-.002 3.551a3.982 3.982 0 0 0-1.442-1.391c-.591-.336-1.268-.504-2.032-.504-1.654 0-2.972.617-3.962 1.849-.99 1.233-1.482 3.01-1.482 5.159 0 1.864.502 3.393 1.506 4.583 1.003 1.189 2.972 1.71 4.72 1.71 6.097 0 6.027-5.235 6.027-5.235l.002-12.048z" fill="#273673"/><path d="M133.659 67.228c0-1.25-.243-2.211-.732-2.886-.486-.67-1.183-1.01-2.092-1.01-.875 0-1.558.34-2.046 1.01-.453.61-.68 1.574-.68 2.886 0 1.222.243 2.132.73 2.742.486.674 1.185 1.01 2.093 1.01.843 0 1.51-.336 1.995-1.01.489-.674.732-1.585.732-2.742m-5.55 8.97c0 .45-.162.835-.488 1.155a1.598 1.598 0 0 1-1.168.481H124.8V66.313c0-2.24.754-3.644 1.995-4.592.82-.627 2.042-1.225 4.331-1.225 1.546 0 3.357.6 4.335 1.794 1.097 1.343 1.555 2.84 1.555 4.793 0 2.022-.487 3.653-1.46 4.906-.972 1.22-2.223 1.827-3.748 1.827-.811 0-1.525-.144-2.14-.43-.652-.322-1.169-.819-1.558-1.493V76.2m25.395-8.97c0 2.21.638 3.434 1.913 3.676 1.273.237 2.215-.06 2.82-.891.287-.35.494-.905.622-1.656a7.025 7.025 0 0 0 .024-2.234 4.442 4.442 0 0 0-.79-1.972c-.413-.575-1.019-.865-1.816-.865-1.084 0-1.815.402-2.198 1.2-.386.803-.575 1.715-.575 2.741m5.45 5.525v-.814c-.572.899-1.347 1.455-2.319 1.681a4.732 4.732 0 0 1-2.89-.242c-.958-.382-1.78-1.096-2.465-2.136-.684-1.044-1.026-2.414-1.026-4.112 0-1.983.454-3.595 1.361-4.828.909-1.233 2.369-1.795 4.376-1.85 1.978-.053 3.129.396 4.255 1.25 1.23.936 1.96 2.371 1.96 4.612v6.778c.004 2.157-1.498 6.154-6.215 5.815-2.923-.212-4.545-1.412-5.45-4.133h3.49c.255.448.644.792 1.173 1.03a2.442 2.442 0 0 0 1.574.194c.526-.112 1.004-.426 1.437-.936.428-.513.675-1.283.74-2.31m-13.207-4.187c-.02 1.106-.338 1.866-.944 2.283a3.44 3.44 0 0 1-1.99.626c-.456 0-.842-.126-1.159-.377-.318-.25-.477-.66-.477-1.223 0-.633.26-1.1.78-1.402.309-.177.812-.33 1.517-.45l.751-.14a5.33 5.33 0 0 0 .883-.228c.219-.08.429-.185.639-.317v1.228zm1.674-7.199c-1.078-.545-2.31-.822-3.695-.822-2.133 0-3.636.557-4.512 1.669-.55.71-.86 1.618-.931 2.724h3.186c.078-.488.233-.874.469-1.159.328-.386.887-.58 1.675-.58.707 0 1.24.098 1.603.296.363.197.546.555.546 1.072 0 .425-.237.738-.711.94-.264.115-.704.212-1.32.29l-1.129.137c-1.281.163-2.256.435-2.914.813-1.207.695-1.808 1.819-1.808 3.371 0 1.198.372 2.124 1.123 2.776.747.653 1.699.928 2.847.981 7.2.323 7.12-3.8 7.185-4.657v-4.744c0-1.522-.538-2.557-1.614-3.107zM172.1 70.05c-.515.686-1.253 1.028-2.215 1.028s-1.703-.342-2.22-1.028c-.522-.683-.78-1.656-.78-2.918 0-1.26.258-2.232.78-2.912.517-.682 1.258-1.02 2.22-1.02.962 0 1.7.338 2.215 1.02.515.68.772 1.652.772 2.912 0 1.262-.257 2.235-.772 2.918m2.631-7.638c-1.062-1.333-2.675-1.998-4.837-1.998-2.158 0-3.77.665-4.833 1.998-1.062 1.331-1.593 2.904-1.593 4.72 0 1.848.53 3.426 1.593 4.74 1.062 1.31 2.675 1.968 4.833 1.968 2.162 0 3.775-.658 4.837-1.967 1.061-1.315 1.59-2.893 1.59-4.74 0-1.817-.529-3.39-1.59-4.72" fill="#00A3DB"/></g></svg>