<?xml version="1.0" encoding="UTF-8"?>
<svg width="233px" height="121px" viewBox="0 0 233 121" version="1.1" xmlns="http://www.w3.org/2000/svg" xmlns:xlink="http://www.w3.org/1999/xlink">
    <!-- Generator: Sketch 43.1 (39012) - http://www.bohemiancoding.com/sketch -->
    <title>MercadoLibre</title>
    <desc>Created with Sketch.</desc>
    <defs></defs>
    <g id="Page-1" stroke="none" stroke-width="1" fill="none" fill-rule="evenodd">
        <g id="Logos" transform="translate(-119.000000, -1476.000000)">
            <g id="MercadoLibre" transform="translate(119.000000, 1476.000000)">
                <rect id="Rectangle-3" fill="#FFFFFF" x="-1.42108547e-14" y="0" width="233" height="121"></rect>
                <g id="Mercado_Libre_com" transform="translate(59.000000, 19.000000)">
                    <path d="M11.287566,43.5359867 C11.287566,43.5359867 3.66877358,42.1321467 3.41871698,44.37184 C2.38730189,47.57804 1.81386792,52.84572 1.58460377,53.7619333 C1.35533962,54.6781467 0.0946603774,61.4344 0.0946603774,61.4344 C0.0946603774,61.4344 -0.0952075472,63.8676133 2.19907547,63.8676133 C4.49281132,63.8676133 8.08662264,64.10432 8.54569811,63.4931467 C9.00422642,62.8819733 9.53935849,62.1335867 9.53935849,62.1335867 C10.1521887,61.828 11.1923585,63.72384 11.3597925,63.90752 C11.8949245,63.90752 16.7609057,64.10268 18.1321132,63.8151333 C18.8965094,62.7458533 19.3271321,62.2708 19.3271321,62.2708 C19.7172642,61.5880133 21.0036604,63.5674933 21.3325094,63.7954533 C21.7910377,63.7954533 30.195566,63.8397333 30.195566,63.8397333 C30.195566,63.8397333 31.0239811,63.69596 30.8313774,64.5301733 C30.6387736,65.36384 27.9735094,78.5221067 27.9735094,78.5221067 C27.9735094,78.5221067 27.3174528,81.3625867 30.0877736,81.4352933 C32.8575472,81.508 39.2003396,81.4352933 39.2003396,81.4352933 C39.2003396,81.4352933 41.6784717,81.65396 42.1889811,79.3962267 C43.9514151,79.2655733 44.8476792,79.3207867 46.4508868,79.3962267 C46.4508868,79.3962267 48.8753962,81.67528 52.6207736,81.5681333 C56.3666981,81.4615333 59.4970566,79.2961867 59.3635472,79.5635067 C59.3635472,79.5635067 60.0841698,80.32392 62.118,80.4310667 C64.2043585,80.5999867 66.2239623,80.5070533 66.9101132,80.14188 C67.5524906,79.8215333 68.3146981,78.6292533 68.3146981,77.3462267 C68.3146981,76.5114667 68.4257736,75.44164 68.5943019,74.9370667 C69.4943962,74.8419467 71.3317925,80.19272 75.5931509,80.42232 C79.9907547,80.56172 83.3071509,80.1790533 84.4239245,78.2963333 C84.9585094,76.70444 84.357717,74.68724 84.5826038,73.12268 C84.8080377,71.5575733 86.7526792,70.9649867 88.0390755,71.2498 C88.7317925,71.4028667 89.036566,71.668 89.8896038,71.6308267 C91.0780566,71.57944 91.6646226,71.4373067 92.452,71.1902133 C92.829,71.0458933 93.7487925,71.6598 94.5339811,71.6505067 C95.7820755,71.76476 96.1147547,71.23668 96.6044717,71.2918933 C96.9721698,71.23668 96.9273019,71.6718267 97.9745849,71.8030267 C97.9745849,71.8030267 99.3791698,71.9227467 100.032491,71.27604 C100.477887,71.1437467 100.309906,71.4865067 101.029981,71.68276 C101.029981,71.68276 102.341547,71.98944 103.163943,71.3673333 C103.706736,71.0535467 104.442679,71.7161067 104.928566,71.7161067 C105.413906,71.7161067 107.670434,71.6516 107.979038,68.8144 C108.287642,65.9772 108.399811,63.0279333 108.399811,63.0279333 C108.399811,63.0279333 113.524604,60.40448 114.847113,56.6297467 C116.169075,52.8550133 116.885868,48.43576 113.10766,44.9442 C109.329453,41.4520933 102.011604,42.2409333 100.40566,43.4676533 C98.8445849,44.2499333 97.8219245,44.9830133 97.8219245,44.9830133 C97.8219245,44.9830133 98.3882453,41.38376 98.1994717,40.53424 C98.0106981,39.6852667 97.7272642,38.6471467 95.1769057,38.6471467 C92.6265472,38.6471467 90.4816415,38.458 89.9147736,39.9678933 C89.3479057,41.4777867 89.0644717,44.32264 89.0644717,44.32264 C89.0644717,44.32264 84.5831509,43.98152 82.7266038,46.13812 C81.2443208,43.3233333 78.4324151,43.2834267 75.1986415,43.2522667 C72.1788113,43.4348533 69.0621321,44.0607867 67.1103774,45.9030533 C65.4798113,44.85892 64.3838302,44.8622 61.8980377,44.8622 C59.4122453,44.8622 57.0544906,45.8751733 57.0544906,45.8751733 C57.0544906,45.8751733 57.2284906,43.3309867 55.0430943,42.88436 C52.8576981,42.4371867 51.9751132,43.3085733 51.3469623,43.58792 C50.7188113,43.86672 49.3749623,42.9510533 47.350434,43.02048 C45.3264528,43.0904533 44.769434,44.1859733 44.1018868,44.71952 C44.1018868,44.71952 41.5290943,43.0029867 38.1114717,43.1790133 C34.6933019,43.35504 32.6857358,44.9196 31.4141132,46.2255867 C30.3848868,47.28776 29.9017358,42.8127467 25.6814151,42.7138 C21.4605472,42.6148533 20.6425283,43.788 19.626434,44.21768 C19.626434,44.21768 17.4087547,42.6164933 15.0006604,42.71708 C12.5920189,42.81712 11.287566,43.5359867 11.287566,43.5359867 Z M110.722547,63.2854133 C110.876849,63.2854133 111.022396,63.3132933 111.158094,63.3690533 C111.29434,63.4248133 111.414717,63.5068133 111.519774,63.61396 C111.623189,63.71728 111.703075,63.8375467 111.75834,63.97312 C111.814151,64.10924 111.841509,64.25192 111.841509,64.4028 C111.841509,64.5564133 111.814698,64.69964 111.759981,64.83248 C111.705811,64.9658667 111.625377,65.0844933 111.519774,65.18836 C111.41034,65.2955067 111.287774,65.3786 111.149887,65.4354533 C111.012,65.4939467 110.869736,65.5223733 110.722547,65.5223733 C110.572075,65.5223733 110.430358,65.4944933 110.295755,65.43764 C110.160057,65.3813333 110.039679,65.2993333 109.934075,65.1910933 C109.827377,65.0855867 109.745849,64.9658667 109.689491,64.8297467 C109.633679,64.6941733 109.605226,64.5525867 109.605226,64.4028 C109.605226,64.25684 109.634226,64.1152533 109.692226,63.97804 C109.749679,63.8397333 109.832302,63.71564 109.940094,63.6068533 C110.042962,63.50244 110.160604,63.4226267 110.29466,63.3674133 C110.427623,63.3132933 110.570434,63.2854133 110.722547,63.2854133 Z M111.719491,64.4088133 C111.719491,64.2721467 111.694868,64.14368 111.64617,64.0228667 C111.598019,63.9020533 111.526887,63.7949067 111.436057,63.7036133 C111.339755,63.6084933 111.230868,63.5357867 111.108849,63.4854933 C110.987925,63.4357467 110.858245,63.4100533 110.722547,63.4100533 C110.590132,63.4100533 110.464283,63.4346533 110.345547,63.4833067 C110.226811,63.53196 110.12066,63.6035733 110.026547,63.6965067 C109.930245,63.7949067 109.856377,63.9047867 109.804943,64.0261467 C109.752962,64.1475067 109.727792,64.27488 109.727792,64.4049867 C109.727792,64.5367333 109.752415,64.6624667 109.803302,64.78164 C109.853642,64.90136 109.925868,65.0096 110.021075,65.1041733 C110.116283,65.1992933 110.224075,65.272 110.344453,65.3217467 C110.46483,65.37204 110.590679,65.3977333 110.722547,65.3977333 C110.854415,65.3977333 110.981906,65.37204 111.105019,65.3217467 C111.227585,65.2698133 111.337566,65.1976533 111.436057,65.10144 C111.527981,65.01124 111.598566,64.9073733 111.647264,64.78984 C111.695415,64.6728533 111.719491,64.5460267 111.719491,64.4088133 Z M110.755925,63.7413333 C110.937038,63.7413333 111.071094,63.7703067 111.158094,63.8288 C111.245094,63.8867467 111.288321,63.9764 111.288321,64.0972133 C111.288321,64.18796 111.260962,64.2634 111.206245,64.3246267 C111.150434,64.3858533 111.07766,64.4230267 110.984642,64.4361467 L111.271906,65.0298267 L111.050302,65.0298267 L110.778358,64.46348 L110.477415,64.46348 L110.477415,65.0298267 L110.283717,65.0298267 L110.283717,63.7413333 L110.755925,63.7413333 Z M110.718717,63.87308 L110.477415,63.87308 L110.477415,64.3361067 L110.718717,64.3361067 C110.855509,64.3361067 110.951264,64.3180667 111.005981,64.2841733 C111.060698,64.2497333 111.088057,64.1917867 111.088057,64.11088 C111.088057,64.0261467 111.059604,63.9654667 111.001604,63.92884 C110.943604,63.8916667 110.848943,63.87308 110.718717,63.87308 L110.718717,63.87308 Z" id="Fill-1" fill="#0061A1"></path>
                    <path d="M59.4839245,0.428586667 C78.7153019,0.428586667 94.311283,8.93526667 94.311283,19.42416 C94.311283,29.9136 78.7153019,38.42028 59.4839245,38.42028 C40.2525472,38.42028 24.656566,29.9136 24.656566,19.42416 C24.656566,8.93526667 40.2525472,0.428586667 59.4839245,0.428586667" id="Fill-2" fill="#0061A1"></path>
                    <path d="M59.1605472,1.97456 C76.988434,1.97456 91.4463019,9.38736 91.4463019,18.52872 C91.4463019,23.7051067 87.3293962,27.3858133 80.8656792,30.80576 C80.5641887,30.9653867 80.2851321,31.0326267 80.0799434,31.1233733 C79.6208679,31.3261867 79.4621887,31.0446533 79.7795472,30.8341867 C82.2489245,29.1974667 84.2324151,27.306 85.7677736,25.58072 C88.3334528,22.6970533 88.0128113,17.56932 88.0128113,17.56932 L85.6873396,17.63164 C85.2742264,17.6425733 79.988566,18.4325067 78.5451321,19.00596 C77.4628302,19.1262267 73.8717547,20.4234667 72.1957736,21.2057467 C71.514,21.5239067 71.3060755,21.5014933 70.9164906,21.0007467 C70.7430377,20.7782533 70.5695849,20.55576 70.3966792,20.3332667 C69.5053396,19.62096 68.6145472,18.9086533 67.7232075,18.1968933 C66.1194528,16.8712267 64.5156981,15.54556 62.9113962,14.22044 C62.1442642,13.70384 61.393,13.3424933 60.3085094,12.9844267 C58.7616604,12.72148 56.3973396,13.46604 56.6643585,13.62676 C57.0085283,13.2227733 60.4655472,13.2287867 60.7139623,13.62676 C64.1682453,16.15072 67.5979057,18.7506667 70.7528868,22.1728 C71.2814528,22.7407867 71.1156604,23.4935467 70.6549434,24.0281867 C70.2084528,24.5447867 69.226283,24.3376 68.317434,23.657 C67.8424906,23.3005733 63.0115283,19.8975733 63.0115283,19.8975733 C63.9072453,21.4375333 65.8628302,22.7714 66.9910943,23.7554 C67.7976226,24.3042533 68.3967736,25.6523333 67.6296415,26.4111067 C67.0277547,27.0069733 65.7670755,26.5931467 65.2029434,26.1323067 C64.1359623,25.5074667 63.2008491,24.4912133 61.9527547,24.0369333 C61.9527547,24.0369333 63.7430943,25.7933733 64.2185849,26.20884 C64.6935283,26.6243067 64.9058302,27.5399733 64.6683585,27.95544 C64.4303396,28.3709067 63.8623774,28.58356 63.4465283,28.58356 C62.3073208,28.58356 62.0501509,27.6941333 61.1292642,27.1584 C61.4351321,27.87016 62.2586226,28.26048 62.0206038,28.99848 C62.0206038,29.4729867 60.0464151,29.81028 59.3679245,29.4308933 C58.6073585,28.7989467 60.3117925,26.6013467 56.9138679,25.6293733 C56.8120943,23.0201333 54.900283,22.92064 53.9230377,22.92064 C53.9230377,22.92064 53.3326415,23.1956133 53.1274528,22.6555067 C52.7001132,21.9043867 51.4191887,21.6387067 50.5480943,21.96452 C49.7787736,22.25152 49.5396604,22.8523067 49.0669057,22.8539467 C48.8343585,22.8544933 48.7878491,22.4898667 48.7309434,22.24168 C47.8861132,20.8597067 46.3928868,21.5113333 45.7811509,21.4348 C45.1694151,21.3588133 41.8847547,19.8713333 40.4320189,19.4132267 C38.9787358,18.9545733 33.9321887,17.6556933 33.0911887,17.3501067 C32.1806981,17.01992 30.9271321,16.6378 30.7356226,17.0745867 C30.5747547,17.8639733 29.554283,24.4206933 38.3265094,30.57944 C39.1248302,31.15836 39.2873396,31.56508 37.9429434,31.0042 C31.1618679,27.9691067 26.8753396,23.5050267 26.8753396,18.52872 C26.8753396,9.38790667 41.3332075,1.97456 59.1605472,1.97456 Z M38.7275849,7.82936 C52.2973962,0.96432 69.8801509,2.29928 80.9887925,8.48317333 C81.0708679,8.64662667 74.855566,12.3 71.6923774,12.1469333 C68.7797925,12.58208 64.8899623,11.6855467 63.2966038,10.9131067 C61.6288302,10.0477333 56.6769434,9.61750667 54.9369434,10.8278267 C53.0847736,11.81456 52.4155849,13.6475333 52.4155849,13.6475333 C52.4155849,13.6475333 52.1759245,12.7187467 51.8476226,12.64604 C51.5198679,12.5733333 49.4105283,12.62964 48.6614528,12.5760667 C45.2279623,12.33116 41.586,9.60821333 38.7275849,7.82936 L38.7275849,7.82936 Z" id="Fill-3" fill="#FFFFFF"></path>
                    <path d="M46.8749434,22.0279333 C47.5983019,22.0279333 48.7139811,22.7653867 48.7139811,23.45856 C48.7139811,24.1511867 48.5673396,24.36056 47.8439811,24.36056 C47.1206226,24.36056 46.0054906,23.6231067 46.0054906,22.9299333 C46.0054906,22.2373067 46.1515849,22.0279333 46.8749434,22.0279333" id="Fill-4" fill="#FFFFFF"></path>
                    <path d="M52.2038302,23.001 C52.4659245,23.1950667 52.6437547,23.4820667 52.7318491,23.8106133 C53.5427547,23.4006133 54.5435283,23.3754667 55.1437736,23.8204533 C56.0011887,24.4567733 56.1226604,25.7485467 55.3522453,26.7850267 C54.581283,27.8220533 53.2336038,28.2812533 52.3756415,27.6449333 C51.9543208,27.33224 51.6320377,26.82876 51.504,26.27444 C50.9261887,26.5390267 50.2745094,26.5428533 49.8274717,26.2110267 C49.122717,25.6884133 48.8562453,24.4485733 49.4893208,23.5968667 C50.1223962,22.74516 51.4990755,22.4783867 52.2038302,23.001" id="Fill-5" fill="#FFFFFF"></path>
                    <path d="M58.3939623,29.25432 C57.948566,29.9075867 56.6008868,30.1186 55.8096792,29.58068 C55.0190189,29.0422133 54.7355849,28.1205333 55.1809811,27.4678133 C55.6263774,26.8145467 56.695,25.9847067 57.7959057,26.6396133 C58.8973585,27.2950667 58.8393585,28.6016 58.3939623,29.25432" id="Fill-6" fill="#FFFFFF"></path>
                    <path d="M33.8632453,18.61564 C34.3168491,18.0766267 43.9109245,21.54632 45.2301509,22.6423867 C45.6892264,23.7985867 45.9310755,24.84928 48.1224906,24.7782133 C48.3435472,25.8682667 49.097,27.634 51.5012642,27.3552 C51.6883962,28.4479867 52.6202264,29.0444 54.2962075,29.1449867 C55.0584151,31.1261067 58.5925849,31.1720267 59.240434,29.86112 C60.6072642,30.4143467 62.2438491,30.76148 63.5887925,29.1373333 C64.4128302,29.2499467 65.565717,28.94272 66.2628113,27.6219733 C67.9666981,27.60776 69.1699245,26.41712 69.4358491,25.2089867 C71.3908868,25.26584 71.807283,23.9483733 72.3183396,22.3477333 C77.8868868,19.37332 84.8288302,18.51232 84.8288302,18.51232 C84.4682453,28.1434933 75.5307736,35.3048267 58.6002453,35.3316133 C41.669717,35.3578533 34.535717,27.2076 33.8632453,18.61564" id="Fill-7" fill="#F8DC30"></path>
                    <path d="M44.1478491,7.26028 C46.8891698,5.21028 52.1294151,4.38208 59.388717,4.32413333 C66.6480189,4.26618667 71.5473774,5.68588 76.1671321,7.74845333 C77.1427358,8.16446667 76.6508302,9.38517333 75.5285849,10.1395733 C74.4741887,10.8486 73.2687736,11.20284 72.9787736,11.2689867 C71.1348113,11.6926533 67.8102075,11.26844 65.2264717,10.3407467 C63.2615849,9.38790667 61.940717,9.12441333 58.9230755,9.15666667 C55.905434,9.18892 54.6206792,9.5366 51.8563774,11.46196 C48.078717,13.2424533 41.4059811,9.30973333 44.1478491,7.26028" id="Fill-8" fill="#F8DC30"></path>
                    <path d="M38.3779434,45.2875067 C40.6432264,45.2875067 44.801717,46.2829867 44.2414151,50.0976267 C43.7828868,51.4714 43.5787925,54.5278133 34.7819434,54.19872 C33.5721509,54.29712 35.2366415,58.3058267 42.1238679,55.7889733 L42.0915849,58.9498 C40.9841132,59.4428933 36.8852642,60.4531333 34.0498302,59.3865867 C30.2409811,57.54268 29.518717,52.05524 32.1883585,48.7675867 C33.5683208,47.068 35.8538491,45.2875067 38.3779434,45.2875067 Z M34.6473396,51.4079867 C35.3373208,49.13932 38.3675472,47.3150933 40.0391509,48.4773067 C41.4798491,49.9505733 39.8848491,51.0247733 37.142434,51.42056 C36.3107358,51.54192 35.4790377,51.4276667 34.6473396,51.4079867 Z M65.0398868,47.18116 L64.3630377,50.4584267 C59.2497358,50.0768533 57.5644528,51.8857733 57.3745849,54.8536267 C57.1841698,57.82148 59.6601132,58.0040667 62.955717,57.2923067 L62.843,60.5154533 C54.9199811,61.9991067 53.0513962,59.2389867 53.0513962,54.75468 C53.2297736,50.2698267 57.6514528,46.0533867 65.0398868,47.18116 Z M92.735434,64.58976 L92.4733396,65.8563867 C90.4969623,65.7104267 89.8441887,66.40852 89.7714151,67.5559733 C89.6975472,68.7039733 90.6545472,68.7755867 91.9289057,68.49952 L91.8862264,69.74592 C88.8209811,70.3204667 88.0992642,69.25228 88.0992642,67.5177067 C88.1687547,65.7847733 89.8781132,64.1540667 92.735434,64.58976 Z M105.599943,44.49484 C110.400264,44.19308 114.164245,47.7076 113.82883,52.9167867 C113.492868,58.1259733 107.489321,62.44136 102.388604,62.0406533 C97.2873396,61.6394 94.9536604,58.7344133 95.3153396,53.56404 C95.6770189,48.3942133 100.799075,44.7966 105.599943,44.49484 Z M106.25217,48.56696 C107.923774,49.2535733 108.656981,51.8201733 107.572491,54.4562 C106.488,57.0922267 104.188245,58.5458133 102.516094,57.8592 C100.844491,57.1725867 100.111283,54.5420267 101.195774,51.9054533 C102.280264,49.2694267 104.580566,47.8803467 106.25217,48.56696 Z M94.8978491,64.5422 C96.3117358,64.1267333 97.8164528,64.85052 98.0697925,66.4303867 C98.3231321,68.0097067 96.9634151,69.7415467 95.4116415,69.96732 C93.8604151,70.1930933 92.9307736,69.3763733 92.6878302,67.8068933 C92.4448868,66.2374133 93.4834151,64.95712 94.8978491,64.5422 Z M95.6518491,65.5371333 C96.1979245,65.62952 96.5207547,66.4528 96.3757547,67.3138 C96.2302075,68.1753467 95.7125849,68.9784 95.0247925,68.8510267 C94.3375472,68.7236533 93.9747736,67.84516 94.1203208,66.98416 C94.2653208,66.1226133 95.1057736,65.4452933 95.6518491,65.5371333 Z M46.5646981,45.3952 C46.5646981,45.3952 46.6336415,46.95484 46.4963019,47.7081467 C46.3589623,48.462 44.3026981,58.59884 44.3026981,58.59884 L48.2811698,58.59884 C48.2811698,58.59884 49.0329811,52.70796 49.6496415,51.7496533 C50.8988302,49.8089867 51.3874528,48.8911333 53.9389057,48.72276 L54.6015283,45.25744 C54.1550377,45.2481467 51.1434151,45.15412 49.8291132,47.5922533 L49.8504528,45.4110533 L46.5646981,45.3952 Z M78.3109434,55.0548 L78.3109434,59.6085333 L74.2717358,59.6085333 L74.2717358,57.6952 C71.9145283,59.9316133 69.6114906,61.0271333 67.2356792,59.3822133 C64.8604151,57.7367467 64.4248679,52.3154533 67.3817736,48.8320933 C70.0689245,45.6668933 75.490283,44.7955067 79.2373019,46.0922 C79.6668302,46.2408933 80.1943019,46.2944667 80.0815849,46.72032 C79.4113019,49.2502933 78.3109434,52.40292 78.3109434,55.0548 Z M92.9274906,56.21756 C92.6183396,58.98096 92.7584151,60.7313867 92.7584151,60.7313867 L88.7197547,60.7313867 L88.7197547,58.8180533 C86.3625472,61.0544667 84.0589623,62.1499867 81.6836981,60.50452 C79.308434,58.8596 79.147566,53.6536933 81.8297925,49.9549467 C83.6918113,47.3872533 86.9989057,46.4404267 90.6594717,46.9165733 L91.836434,40.93768 L96.051283,40.93768 C94.8830755,45.8352667 93.2311698,53.50008 92.9274906,56.21756 Z M75.2889245,48.70308 C75.3113585,48.71456 75.1718302,51.81088 74.062717,54.161 C73.3793019,55.6080267 71.9883962,57.2846533 70.4951698,56.5182267 C69.0024906,55.7523467 69.1825094,53.05564 70.2872453,51.3642533 C71.391434,49.6734133 73.4170566,48.4494267 75.2889245,48.70308 Z M89.9476038,49.7925867 C89.9700377,49.80352 89.8305094,52.9003867 88.7208491,55.24996 C88.0379811,56.6975333 86.6470755,58.3736133 85.1538491,57.6071867 C83.6606226,56.8413067 83.8406415,54.1446 84.9453774,52.4532133 C86.0501132,50.7623733 88.0757358,49.5383867 89.9476038,49.7925867 Z M86.9606038,68.0228267 C87.4831509,68.0228267 87.9061132,68.4639867 87.9061132,69.0084667 C87.9061132,69.5524 87.4831509,69.99356 86.9606038,69.99356 C86.4386038,69.99356 86.0156415,69.5524 86.0156415,69.0084667 C86.0156415,68.4639867 86.4386038,68.0228267 86.9606038,68.0228267 Z M5.18443396,45.2650933 C5.18443396,45.2650933 5.31739623,46.31032 5.21069811,46.9521067 C5.10345283,47.5933467 2.32109434,61.3862933 2.32109434,61.3862933 L7.105,61.3862933 C7.56298113,58.5944667 9.0589434,48.64732 12.6450943,48.7369733 C13.684717,48.7577467 14.4173774,49.6520933 14.0753962,52.0131467 C13.4324717,55.1373467 12.9132075,58.2615467 12.2746604,61.3862933 L17.0027547,61.3862933 C17.4946604,58.63492 18.7433019,48.3264267 22.3973019,48.74408 C23.3488302,48.7413467 24.3129434,49.54276 23.9643962,51.94864 C23.3165472,55.0947067 22.7950943,58.2402267 22.1499811,61.3862933 L26.9360755,61.3862933 L26.9360755,61.3682533 C27.9078491,57.0009333 28.6695094,52.6937467 28.9857736,48.3264267 C29.0120377,47.1325067 27.7245472,45.0234667 25.1539434,45.0595467 C23.0790755,44.9092133 20.8291132,45.7827867 19.5011321,47.4867467 C19.2789811,47.5742133 19.1618868,47.6327067 18.9408302,47.4867467 C18.0976415,46.0473733 17.3595094,45.0207333 14.999566,44.9879333 C12.4820377,45.0371333 11.0391509,46.10532 9.71883019,47.51736 C9.73032075,47.5118933 9.47971698,47.6174 9.49120755,47.5195467 C9.49120755,46.77116 9.46549057,46.01348 9.46549057,45.2650933 L5.18443396,45.2650933 Z M98.9025849,64.49956 C98.9025849,64.49956 98.944717,64.84232 98.9113396,65.0527867 C98.8796038,65.2638 98.0189057,69.7902 98.0189057,69.7902 L99.4984528,69.7902 C99.6396226,68.87344 100.10034,65.6109333 101.206717,65.63936 C101.529,65.6448267 101.754434,65.93948 101.648283,66.7124667 C101.450755,67.7396533 101.290981,68.7641067 101.091811,69.7902 L102.553849,69.7902 C102.705415,68.8871067 103.092264,65.50324 104.21834,65.641 C104.514358,65.6399067 104.810377,65.9034 104.703132,66.6927867 C104.502868,67.7248933 104.341453,68.7564533 104.143925,69.7902 L105.620736,69.7902 L105.620736,69.7841867 C105.920585,68.3508267 106.156962,66.9371467 106.254358,65.50324 C106.262566,65.1134667 105.865321,64.4202933 105.07083,64.4317733 C104.430094,64.38312 103.735189,64.66848 103.324264,65.2288133 C103.255321,65.2566933 103.220302,65.2763733 103.150811,65.2288133 C102.891453,64.7575867 102.663283,64.4202933 101.936094,64.4082667 C101.158019,64.42412 100.711528,64.7761733 100.303887,65.2386533 C100.306075,65.2364667 100.231113,65.272 100.233849,65.2397467 C100.233849,64.9937467 100.225642,64.74392 100.225642,64.49956 L98.9025849,64.49956 L98.9025849,64.49956 Z" id="Fill-9" fill="#FFFFFF"></path>
                    <path d="M59.6956792,65.5371333 C62.4714717,67.3897867 62.1300377,71.42856 59.9648868,75.3733067 C57.3986604,79.7985733 51.2025094,79.7854533 49.5194151,78.9129733 C47.8363208,78.0404933 47.7816038,76.4250933 47.8270189,73.7710267 C48.5405283,69.39168 49.5276226,64.4771467 50.4189623,60.1426267 L54.5511887,60.1940133 L53.2702642,66.6403067 C55.0901509,64.7876533 57.7849623,64.47168 59.6956792,65.5371333 Z M56.0367547,68.3327867 C57.1885472,68.7515333 57.6426981,70.7075067 56.8049811,73.0089733 C55.966717,75.31044 54.2020943,76.5874533 53.0503019,76.1687067 C51.8985094,75.74996 51.3940189,73.79344 52.232283,71.4919733 C53.0705472,69.1905067 54.8849623,67.91404 56.0367547,68.3327867 Z M63.854717,63.85176 C63.854717,63.85176 63.861283,66.3073867 63.7069811,67.1541733 C63.5532264,68.0004133 61.4422453,78.1946533 61.4422453,78.1946533 L65.9131698,78.1946533 C65.9131698,78.1946533 66.8220189,71.6280933 67.450717,70.49868 C68.7163208,68.2261867 69.3493962,67.7806533 72.1219057,67.69264 L72.7686604,63.5084533 C72.2669057,63.4986133 69.1589811,63.44504 67.6821698,66.1849333 L67.6761509,63.8692533 L63.854717,63.85176 Z M33.4643585,61.2796933 L37.8521132,61.2796933 L35.2836981,75.17924 L40.100434,75.17924 L39.3502642,79.34976 L30.253566,79.34976 L33.4643585,61.2796933 Z M45.7242453,60.1885467 C47.0363585,60.1885467 48.1006038,61.3152267 48.1006038,62.7048533 C48.1006038,64.09448 47.0363585,65.2217067 45.7242453,65.2217067 C44.4121321,65.2217067 43.3478868,64.09448 43.3478868,62.7048533 C43.3478868,61.3152267 44.4121321,60.1885467 45.7242453,60.1885467 Z M42.9260189,66.8228933 L47.063717,66.8228933 L44.9510943,77.1920667 L40.7324151,77.1920667 L42.9260189,66.8228933 Z M75.0793585,69.9831733 C75.7436226,67.7194267 78.6600377,65.8995733 80.268717,67.0590533 C81.6552453,68.52904 80.120434,69.6005067 77.4808868,69.9952 C76.6803774,70.11656 75.8798679,70.0028533 75.0793585,69.9831733 Z M78.6698868,63.8769067 C80.8503585,63.8769067 84.8529057,64.8702 84.3133962,68.6755467 C83.8723774,70.04604 83.6753962,73.0953467 75.2084906,72.7673467 C74.0446604,72.8652 75.6462264,76.8646133 82.2751887,74.3537733 L82.2445472,77.5069467 C81.1786604,77.9989467 77.2330189,79.0064533 74.504283,77.94264 C70.8382453,76.1031067 70.1427925,70.62824 72.7128491,67.3487867 C74.0408302,65.6530267 76.2404528,63.8769067 78.6698868,63.8769067 L78.6698868,63.8769067 Z" id="Fill-10" fill="#F8DC30"></path>
                    <path d="M33.8632453,18.61564 C34.3168491,18.0766267 43.9109245,21.54632 45.2301509,22.6423867 C45.6892264,23.7985867 45.9310755,24.84928 48.1224906,24.7782133 C48.3435472,25.8682667 49.097,27.634 51.5012642,27.3552 C51.6883962,28.4479867 52.6202264,29.0444 54.2962075,29.1449867 C55.0584151,31.1261067 58.5925849,31.1720267 59.240434,29.86112 C60.6072642,30.4143467 62.2438491,30.76148 63.5887925,29.1373333 C64.4128302,29.2499467 65.565717,28.94272 66.2628113,27.6219733 C67.9666981,27.60776 69.1699245,26.41712 69.4358491,25.2089867 C71.3908868,25.26584 71.807283,23.9483733 72.3183396,22.3477333 C77.8868868,19.37332 84.8288302,18.51232 84.8288302,18.51232 C84.8156981,18.8589067 84.7905283,19.20112 84.7555094,19.5411467 C84.3183208,19.4586 82.9350755,19.6532133 79.692,20.4535333 C76.498717,21.0302667 73.8137547,22.25152 73.3694528,22.8998667 C72.8649623,25.3784533 71.6989434,26.3788533 70.2943585,26.7216133 C69.7827547,28.2572 68.6101698,28.8814933 67.0928679,28.659 C66.5079434,29.7960667 65.623717,30.21536 64.3269245,30.3361733 C63.0514717,32.0680133 60.4923585,31.66184 59.5835094,30.9079867 C58.2828868,31.8132667 55.1339245,32.2877733 53.624283,30.3361733 C51.7934528,30.7117333 50.4014528,29.0815733 50.4807925,28.41136 C48.0190755,28.58192 47.6256604,27.03212 47.5911887,26.23016 C47.5911887,26.23016 46.3556792,25.9901733 45.439717,25.2472533 C44.5243019,24.5037867 43.7801509,23.36016 43.2078113,22.8452 C42.6354717,22.3307867 37.3251887,20.4956267 36.3523208,20.0380667 C35.3794528,19.5805067 33.9360189,18.8999067 33.9360189,18.8999067 C33.9206981,18.9053733 33.9053774,18.91084 33.8900566,18.9163067 C33.8802075,18.81572 33.8709057,18.71568 33.8632453,18.61564" id="Fill-11" fill="#F5C02E"></path>
                </g>
            </g>
        </g>
    </g>
</svg>