<svg width="233" height="121" xmlns="http://www.w3.org/2000/svg"><title>Microsoft</title><g fill="none" fill-rule="evenodd"><path fill="#FFF" d="M0 0h233v121H0z"/><g fill-rule="nonzero"><path d="M95.29 64.463l-1.085 3.084h-.09a21.932 21.932 0 0 0-1.056-3.024L87.24 49.86h-5.7v23.37h3.77V58.81c0-.908 0-1.936-.03-3.205-.03-.635-.09-1.119-.12-1.482h.09c.181.907.392 1.572.543 1.996l6.996 17.05h2.653l6.936-17.202c.15-.393.302-1.179.452-1.844h.09a218.63 218.63 0 0 0-.18 4.203V73.14h4.01V49.8h-5.488l-5.97 14.663zm15.26-8.072h3.92V73.14h-3.92V56.39zm1.99-7.075a2.35 2.35 0 0 0-1.66.665c-.451.424-.693.968-.693 1.633 0 .635.242 1.179.694 1.602.452.424.995.635 1.658.635.664 0 1.237-.242 1.659-.635a2.13 2.13 0 0 0 .693-1.602c0-.635-.24-1.18-.693-1.633-.392-.423-.965-.665-1.659-.665zm15.83 6.924a10.908 10.908 0 0 0-2.2-.242c-1.78 0-3.408.393-4.765 1.179-1.357.786-2.443 1.874-3.136 3.235-.724 1.39-1.086 2.993-1.086 4.837 0 1.602.362 3.023 1.056 4.323.693 1.27 1.658 2.298 2.955 2.993 1.236.695 2.684 1.058 4.312 1.058 1.87 0 3.468-.393 4.734-1.118l.03-.03v-3.628l-.15.12a6.732 6.732 0 0 1-1.9.998c-.694.242-1.327.363-1.87.363-1.568 0-2.804-.454-3.679-1.451-.904-.968-1.356-2.298-1.356-3.96 0-1.724.452-3.084 1.387-4.082.934-.998 2.17-1.512 3.679-1.512 1.266 0 2.563.424 3.739 1.27l.15.121v-3.84l-.03-.03c-.512-.211-1.085-.453-1.87-.604zm12.937-.121a4.13 4.13 0 0 0-2.653.937c-.664.544-1.116 1.33-1.508 2.267h-.03v-2.932h-3.92V73.14h3.92v-8.556c0-1.451.301-2.66.965-3.537.663-.907 1.508-1.361 2.533-1.361.362 0 .724.09 1.176.151.422.121.724.242.935.393l.15.121v-3.93l-.09-.03c-.271-.182-.814-.272-1.478-.272zm10.675-.091c-2.744 0-4.945.816-6.483 2.419-1.568 1.602-2.322 3.809-2.322 6.59 0 2.6.784 4.716 2.292 6.258 1.508 1.512 3.558 2.298 6.121 2.298 2.684 0 4.825-.816 6.363-2.449 1.568-1.632 2.322-3.81 2.322-6.5 0-2.66-.724-4.777-2.201-6.318-1.418-1.542-3.498-2.298-6.092-2.298zm3.136 12.879c-.723.937-1.87 1.39-3.287 1.39-1.417 0-2.563-.453-3.377-1.45-.814-.938-1.206-2.298-1.206-4.021 0-1.784.422-3.145 1.206-4.112.814-.967 1.93-1.451 3.347-1.451 1.387 0 2.473.453 3.257 1.39.784.938 1.206 2.298 1.206 4.082-.06 1.814-.392 3.235-1.146 4.172zm13.902-5.563c-1.236-.514-2.02-.907-2.382-1.24-.302-.302-.453-.725-.453-1.27 0-.453.181-.906.634-1.208.452-.303.965-.454 1.718-.454.664 0 1.357.121 2.02.302.664.182 1.267.454 1.75.817l.15.12v-3.688l-.09-.03a10.86 10.86 0 0 0-1.78-.514 12.058 12.058 0 0 0-1.929-.181c-1.87 0-3.408.453-4.614 1.45-1.206.938-1.779 2.208-1.779 3.69 0 .785.12 1.48.392 2.055a4.58 4.58 0 0 0 1.206 1.572c.543.423 1.327.907 2.413 1.36.904.394 1.598.696 2.02.938.422.242.694.514.905.725.15.242.241.545.241.938 0 1.118-.844 1.662-2.563 1.662-.664 0-1.357-.12-2.171-.393a8.381 8.381 0 0 1-2.202-1.118l-.15-.121v3.84l.09.03c.573.272 1.267.453 2.11.665.845.15 1.6.272 2.263.272 2.02 0 3.678-.454 4.855-1.451 1.206-.968 1.839-2.207 1.839-3.81 0-1.118-.302-2.116-.965-2.872a12.22 12.22 0 0 0-3.528-2.086zm14.836-7.316c-2.744 0-4.945.816-6.483 2.419-1.538 1.602-2.322 3.809-2.322 6.59 0 2.6.784 4.716 2.292 6.258 1.507 1.512 3.558 2.298 6.121 2.298 2.684 0 4.825-.816 6.363-2.449 1.568-1.632 2.322-3.81 2.322-6.5 0-2.66-.724-4.777-2.201-6.318-1.418-1.542-3.498-2.298-6.092-2.298zm3.106 12.879c-.724.937-1.87 1.39-3.287 1.39-1.447 0-2.563-.453-3.377-1.45-.814-.938-1.206-2.298-1.206-4.021 0-1.784.422-3.145 1.206-4.112.814-.967 1.93-1.451 3.347-1.451 1.357 0 2.473.453 3.257 1.39.784.938 1.206 2.298 1.206 4.082 0 1.814-.392 3.235-1.146 4.172zm26.145-9.281V56.39h-3.95v-4.958l-.121.03-3.74 1.118-.09.03v3.78h-5.91v-2.117c0-.967.24-1.723.663-2.207.422-.483 1.055-.725 1.84-.725.542 0 1.115.12 1.748.393l.151.09V48.41l-.09-.03c-.543-.181-1.267-.302-2.202-.302a7.047 7.047 0 0 0-3.136.725 5.237 5.237 0 0 0-2.14 2.147c-.513.907-.785 1.935-.785 3.114v2.328h-2.744v3.204h2.744V73.14h3.95V59.626h5.911v8.616c0 3.537 1.659 5.32 4.976 5.32.542 0 1.115-.09 1.658-.18.573-.122.995-.273 1.236-.394l.03-.03v-3.235l-.15.121a2.545 2.545 0 0 1-.814.363c-.302.09-.573.12-.784.12-.784 0-1.327-.18-1.72-.634-.361-.423-.542-1.119-.542-2.146v-7.921h4.01z" fill="#737373"/><path fill="#F25022" d="M31 42h18.485v18.533H31z"/><path fill="#7FBA00" d="M51.415 42H69.9v18.533H51.415z"/><path fill="#00A4EF" d="M31 62.467h18.485V81H31z"/><path fill="#FFB900" d="M51.415 62.467H69.9V81H51.415z"/></g></g></svg>