<?xml version="1.0" encoding="UTF-8" standalone="no"?>
<svg width="203px" height="85px" viewBox="0 0 203 85" version="1.1" xmlns="http://www.w3.org/2000/svg" xmlns:xlink="http://www.w3.org/1999/xlink">
    <!-- Generator: Sketch 41.2 (35397) - http://www.bohemiancoding.com/sketch -->
    <title>Page 1</title>
    <desc>Created with Sketch.</desc>
    <defs>
        <polygon id="path-1" points="0 84.6665 202.667 84.6665 202.667 0.0005 0 0.0005"></polygon>
    </defs>
    <g id="Page-1" stroke="none" stroke-width="1" fill="none" fill-rule="evenodd">
        <g id="Artboard" transform="translate(-250.000000, -125.000000)">
            <g id="Page-1" transform="translate(250.000000, 125.000000)">
                <path d="M162.7935,26.9941 C164.5915,27.6171 166.1915,28.6541 167.4805,29.9991 L170.8915,26.8901 C168.3825,24.2821 165.5415,23.3331 165.5415,23.3331 C164.5625,23.0611 163.6365,22.8501 162.7485,22.6811 L162.7935,26.9941 Z" id="Fill-1" fill="#424242"></path>
                <path d="M171.9985,45.9287 C173.7595,42.9867 174.2915,40.2087 174.2915,40.2087 C175.3135,34.8427 174.0365,31.0457 172.1715,28.4297 L168.7465,31.5517 C170.0325,33.4487 170.7845,35.7377 170.7845,38.2017 C170.7845,40.1617 170.3015,42.0057 169.4605,43.6347 L171.9985,45.9287 Z" id="Fill-3" fill="#424242"></path>
                <path d="M168.3755,45.3496 C166.2085,48.2126 162.7835,50.0706 158.9165,50.0706 C152.3605,50.0706 147.0475,44.7576 147.0475,38.2026 C147.0475,34.5796 148.6745,31.3426 151.2325,29.1656 L148.0815,25.4776 C147.6265,25.9096 147.4165,26.2086 147.4165,26.2086 C142.0415,31.3336 142.0415,39.0836 142.0415,39.0836 C139.2915,43.4586 138.6665,48.3336 138.6665,48.3336 L142.7915,48.3336 C142.5415,59.7086 150.9165,57.3336 150.9165,57.3336 L150.9165,63.2086 L167.8695,63.2086 L167.9165,50.4586 C169.0955,49.6246 170.0605,48.6306 170.8605,47.5976 L168.3755,45.3496 Z" id="Fill-5" fill="#424242"></path>
                <path d="M152.8696,28.0024 C154.6416,26.9494 156.7046,26.3334 158.9166,26.3334 C159.5556,26.3334 160.1766,26.3984 160.7876,26.4954 L160.7446,22.3654 C155.2266,21.7034 151.7026,22.9984 149.6736,24.2604 L152.8696,28.0024 Z" id="Fill-7" fill="#424242"></path>
                <polygon id="Fill-9" fill="#424242" points="158.6665 47.5835 158.6665 40.3335 150.5415 45.9285 155.2305 38.4585 148.7915 37.8335 155.2305 35.2085 151.1665 31.3335 157.0415 33.7085 156.0415 28.0025 159.7915 31.9585 163.7915 28.4295 162.7485 33.8335 170.2965 34.8225 164.4165 37.7935 168.7465 42.2085 161.7915 40.2085"></polygon>
                <g id="Group-14" transform="translate(142.000000, 20.666500)">
                    <path d="M0.1665,0.917 L3.6665,4.428" id="Fill-11" fill="#424242"></path>
                    <path d="M0.1665,0.917 L3.6665,4.428" id="Stroke-13" stroke="#2F2F2F"></path>
                </g>
                <g id="Group-18" transform="translate(142.000000, 13.666500)">
                    <path d="M0.1665,0.667 L6.7915,9.672" id="Fill-15" fill="#424242"></path>
                    <path d="M0.1665,0.667 L6.7915,9.672" id="Stroke-17" stroke="#2F2F2F"></path>
                </g>
                <g id="Group-22" transform="translate(149.000000, 15.666500)">
                    <path d="M0.6733,0.417 L2.5413,5.917" id="Fill-19" fill="#424242"></path>
                    <path d="M0.6733,0.417 L2.5413,5.917" id="Stroke-21" stroke="#2F2F2F"></path>
                </g>
                <g id="Group-26" transform="translate(161.000000, 12.666500)">
                    <path d="M0.4165,0.792 L0.4165,8.292" id="Fill-23" fill="#424242"></path>
                    <path d="M0.4165,0.792 L0.4165,8.292" id="Stroke-25" stroke="#2F2F2F"></path>
                </g>
                <g id="Group-30" transform="translate(164.000000, 16.666500)">
                    <path d="M1.5415,0.542 L0.1665,4.292" id="Fill-27" fill="#424242"></path>
                    <path d="M1.5415,0.542 L0.1665,4.292" id="Stroke-29" stroke="#2F2F2F"></path>
                </g>
                <g id="Group-34" transform="translate(168.000000, 16.666500)">
                    <path d="M4.4165,0.542 L0.7465,6.014" id="Fill-31" fill="#424242"></path>
                    <path d="M4.4165,0.542 L0.7465,6.014" id="Stroke-33" stroke="#2F2F2F"></path>
                </g>
                <g id="Group-38" transform="translate(172.000000, 21.666500)">
                    <path d="M3.1997,0.9399 L0.9627,3.9409" id="Fill-35" fill="#424242"></path>
                    <path d="M3.1997,0.9399 L0.9627,3.9409" id="Stroke-37" stroke="#2F2F2F"></path>
                </g>
                <g id="Group-42" transform="translate(174.000000, 23.666500)">
                    <path d="M7.1665,0.4404 L0.0805,4.3354" id="Fill-39" fill="#424242"></path>
                    <path d="M7.1665,0.4404 L0.0805,4.3354" id="Stroke-41" stroke="#2F2F2F"></path>
                </g>
                <g id="Group-46" transform="translate(176.000000, 37.666500)">
                    <path d="M6.5415,0.1265 L0.0415,0.1265" id="Fill-43" fill="#424242"></path>
                    <path d="M6.5415,0.1265 L0.0415,0.1265" id="Stroke-45" stroke="#2F2F2F"></path>
                </g>
                <g id="Group-50" transform="translate(175.000000, 42.666500)">
                    <path d="M4.2915,2.417 L0.1995,0.167" id="Fill-47" fill="#424242"></path>
                    <path d="M4.2915,2.417 L0.1995,0.167" id="Stroke-49" stroke="#2F2F2F"></path>
                </g>
                <g id="Group-54" transform="translate(172.000000, 46.666500)">
                    <path d="M5.2456,4.042 L0.9626,0.167" id="Fill-51" fill="#424242"></path>
                    <path d="M5.2456,4.042 L0.9626,0.167" id="Stroke-53" stroke="#2F2F2F"></path>
                </g>
                <polygon id="Fill-55" fill="#424242" points="28 63.2085 21.667 63.2085 21.667 22.6805 31.5 22.6805 36 48.7715 41 22.6065 50.333 22.6065 50.333 63.2085 44.167 63.2085 44.167 36.3335 39.167 63.2085 33.5 63.2085 28.167 36.5005"></polygon>
                <mask id="mask-2" fill="white">
                    <use xlink:href="#path-1"></use>
                </mask>
                <g id="Clip-58"></g>
                <polygon id="Fill-57" fill="#424242" mask="url(#mask-2)" points="56 63.2085 63.833 63.2085 63.833 22.6805 56 22.6805"></polygon>
                <polygon id="Fill-59" fill="#424242" mask="url(#mask-2)" points="92.334 63.2085 100.167 63.2085 100.167 22.6805 92.334 22.6805"></polygon>
                <polygon id="Fill-60" fill="#424242" mask="url(#mask-2)" points="68 22.6064 88 22.6064 88 29.9994 82.167 29.9994 82.167 63.2084 73.667 63.2084 73.667 29.9994 68 29.9994"></polygon>
                <polygon id="Stroke-61" stroke="#2F2F2F" stroke-width="2" mask="url(#mask-2)" points="201.6665 83.6665 0.9995 83.6665 0.9995 1.0005 118.6665 1.0005 201.6665 1.0005"></polygon>
                <g id="Group-64" mask="url(#mask-2)">
                    <g transform="translate(118.000000, 0.666500)">
                        <path d="M0.6665,83 L0.6665,0.667" id="Fill-62" stroke="none" fill="#7D7D7D" fill-rule="evenodd"></path>
                        <path d="M0.6665,83 L0.6665,0.667" id="Stroke-63" stroke="#2F2F2F" stroke-width="2" fill="none"></path>
                    </g>
                </g>
            </g>
        </g>
    </g>
</svg>