<svg width="233" height="121" xmlns="http://www.w3.org/2000/svg" xmlns:xlink="http://www.w3.org/1999/xlink"><title>Group 8</title><defs><path id="a" d="M0 62.753h149.754V0H0z"/></defs><g fill="none" fill-rule="evenodd"><path fill="#FFF" d="M0 0h233v121H0z"/><g transform="translate(42 28)"><path d="M120.29 20.007a8.77 8.77 0 0 1 3.464 2.228l2.52-2.305c-1.853-1.933-3.953-2.636-3.953-2.636a25.372 25.372 0 0 0-2.063-.483l.033 3.196zm6.802 14.034c1.302-2.18 1.695-4.24 1.695-4.24.755-3.976-.189-6.79-1.567-8.73l-2.53 2.314a8.773 8.773 0 0 1 1.505 4.93 8.762 8.762 0 0 1-.978 4.026l1.875 1.7zm-2.677-.429c-1.6 2.122-4.132 3.5-6.989 3.5-4.844 0-8.77-3.939-8.77-8.797a8.782 8.782 0 0 1 3.092-6.698l-2.328-2.734c-.336.32-.492.542-.492.542-3.971 3.799-3.971 9.543-3.971 9.543-2.032 3.242-2.494 6.856-2.494 6.856h3.048c-.185 8.43 6.004 6.67 6.004 6.67v4.355h12.527l.034-9.45a10.267 10.267 0 0 0 2.176-2.12l-1.837-1.667zm-11.457-12.857a8.696 8.696 0 0 1 4.468-1.237c.472 0 .931.048 1.383.12l-.032-3.061c-4.078-.491-6.681.469-8.18 1.404l2.36 2.774z" fill="#424242"/><path fill="#424242" d="M117.241 35.268v-5.374l-6.003 4.147 3.464-5.536-4.758-.464 4.758-1.945-3.003-2.872 4.342 1.76-.74-4.23 2.772 2.933 2.955-2.616-.77 4.006 5.577.733-4.345 2.202 3.2 3.272-5.14-1.482zM105.05 15.997l2.585 2.602"/><path d="M105.05 15.997l2.585 2.602" stroke="#2F2F2F"/><path d="M105.05 10.624l4.894 6.674" fill="#424242"/><path d="M105.05 10.624l4.894 6.674" stroke="#2F2F2F"/><path d="M110.596 11.92l1.38 4.077" fill="#424242"/><path d="M110.596 11.92l1.38 4.077" stroke="#2F2F2F"/><path d="M119.273 9.975v5.559" fill="#424242"/><path d="M119.273 9.975v5.559" stroke="#2F2F2F"/><path d="M122.321 12.755l-1.016 2.779" fill="#424242"/><path d="M122.321 12.755l-1.016 2.779" stroke="#2F2F2F"/><path d="M127.401 12.755l-2.711 4.055" fill="#424242"/><path d="M127.401 12.755l-2.711 4.055" stroke="#2F2F2F"/><path d="M129.458 16.755l-1.653 2.225" fill="#424242"/><path d="M129.458 16.755l-1.653 2.225" stroke="#2F2F2F"/><path d="M133.867 17.867l-5.236 2.887" fill="#424242"/><path d="M133.867 17.867l-5.236 2.887" stroke="#2F2F2F"/><path d="M134.883 28.011h-4.803" fill="#424242"/><path d="M134.883 28.011h-4.803" stroke="#2F2F2F"/><path d="M132.481 33.415l-3.023-1.668" fill="#424242"/><path d="M132.481 33.415l-3.023-1.668" stroke="#2F2F2F"/><path d="M130.97 37.584l-3.165-2.872" fill="#424242"/><path d="M130.97 37.584l-3.165-2.872" stroke="#2F2F2F"/><path fill="#424242" d="M20.69 46.849h-4.68V16.81h7.266L26.6 36.148l3.695-19.393h6.896V46.85h-4.556V26.93L28.94 46.85h-4.187l-3.94-19.796z"/><mask id="b" fill="#fff"><use xlink:href="#a"/></mask><path fill="#424242" mask="url(#b)" d="M41.38 46.849h5.787V16.81H41.38zm26.847 0h5.788V16.81h-5.788zM50.246 16.755h14.779v5.48h-4.31v24.614h-6.281V22.235h-4.188z"/><path stroke="#2F2F2F" stroke-width="2" mask="url(#b)" d="M149.015 62.012H.739V.742h148.276z"/><g mask="url(#b)"><path d="M87.685 62.012V.988" fill="#7D7D7D"/><path d="M87.685 62.012V.988" stroke="#2F2F2F" stroke-width="2"/></g></g></g></svg>