<svg width="233" height="121" xmlns="http://www.w3.org/2000/svg"><title>Scotiabank</title><g fill="none" fill-rule="evenodd"><path fill="#FFF" d="M0 0h233v121H0z"/><path d="M98.714 67.69c2.08 0 3.301-1.796 3.301-3.933 0-2.167-1.163-3.96-3.3-3.96-2.229 0-3.298 1.793-3.298 3.96 0 2.137 1.226 3.933 3.297 3.933zm0 3.624c-4.977 0-8.542-2.946-8.542-7.557 0-4.554 3.693-7.585 8.542-7.585 4.85 0 8.546 3.012 8.546 7.585 0 4.61-3.595 7.557-8.546 7.557zm61.292-7.554c0-1.935-1.12-3.656-3.073-3.656-1.718 0-3.103 1.447-3.103 3.657 0 2.144 1.134 3.67 3.103 3.67 1.776 0 3.073-1.455 3.073-3.67zm-11.201 7.244V50.581h5.104v6.999h.058c.36-.222 2.01-1.39 4.438-1.39 3.975 0 6.896 3.148 6.896 7.313 0 5.204-3.24 7.825-6.928 7.825-2.79 0-4.207-1.28-4.556-1.65h-.08l-.074 1.326h-4.858zm-24.862-21.797c-1.576 0-2.872 1.276-2.872 2.828 0 1.554 1.297 2.83 2.872 2.83 1.577 0 2.872-1.276 2.872-2.83 0-1.552-1.295-2.828-2.872-2.828zm-2.562 7.334h5.124v14.496h-5.124V56.541zm65.78 14.476h4.974v-7.482c0-1.754 1.18-2.953 2.688-2.953 1.724 0 2.702 1.104 2.702 2.953v7.482h4.976v-8.721c0-3.282-2.146-6.092-6.08-6.092-2.63 0-3.997 1.407-4.622 1.961h-.105l-.05-1.604h-4.482v14.456m18.478.001h5.104v-6.706h.049l4.535 6.706H221l-5.47-7.677 5.326-6.789h-5.663l-4.4 5.972h-.049V50.598h-5.103v20.42M88.87 56.755c-.384-.105-1.787-.58-3.649-.58-4.608 0-8.06 2.841-8.06 7.572 0 4.3 3.101 7.57 7.854 7.57 2.024 0 3.515-.533 3.855-.632l-.25-4.223c-.394.176-1.413.75-2.589.75-2.064 0-3.57-1.44-3.57-3.465 0-2.127 1.612-3.497 3.63-3.497 1.137 0 2.151.52 2.53.705l.249-4.2m45.338 6.873c0 2.395 1.358 3.892 3.114 3.892 1.592 0 3.143-1.469 3.143-3.696 0-2.243-1.375-3.78-3.143-3.78-1.828.002-3.114 1.61-3.114 3.584zm11.3-7.095v14.483h-4.966l-.075-1.46h-.107c-.551.49-1.698 1.78-4.902 1.78-3.551 0-6.663-3.042-6.663-7.575 0-4.205 2.76-7.564 6.991-7.564 2.879 0 4.055 1.25 4.495 1.646h.132l.05-1.31h5.045zm27.045 7.087c0 2.395 1.357 3.893 3.115 3.893 1.59 0 3.143-1.47 3.143-3.696 0-2.244-1.376-3.779-3.143-3.779-1.831 0-3.115 1.608-3.115 3.581zm11.3-7.094V71.01h-4.967l-.074-1.462h-.106c-.551.49-1.7 1.783-4.902 1.783-3.552 0-6.663-3.044-6.663-7.576 0-4.207 2.758-7.566 6.99-7.566 2.88 0 4.054 1.25 4.496 1.647h.132l.05-1.31h5.045zM60.747 70.48c1.429.426 3.602.816 5.906.816 4.365 0 8.718-1.522 8.718-6.242 0-6.48-9.066-5.582-9.066-8.165 0-1.32 1.393-1.606 2.759-1.606 1.895 0 4.293.897 4.825 1.11l.411-4.464c-1.323-.443-3.33-.696-5.217-.696-4.31 0-8.559 1.66-8.559 5.863 0 6.365 9.041 5.039 9.041 8.377 0 1.286-1.3 1.773-2.962 1.773-2.282 0-4.428-1.125-5.357-1.53l-.5 4.764m58.151-3.412c-.252.068-.942.243-1.416.243-1.036 0-2.168-.478-2.168-2.247v-4.896h3.213v-3.64h-3.213v-4.665h-5.115v4.665h-2.236v3.64h2.236v5.728c0 3.152 1.485 5.41 5.268 5.41a15.47 15.47 0 0 0 2.8-.274l.631-3.964m-76.201-5.762c.129 6.254-5.61 10.977-10.405 10.977H20.437L13 79.583h19.162c6.118 0 11.986-5.422 11.986-11.895 0-1.902-.233-4.378-1.451-6.255v-.127h-.001zm-2.034 4.607c.74-1.301 1.103-2.732 1.192-4.124h-5.378c0 1.29-.219 2.695-.71 4.124h4.896zm-5.247.818c-.61 1.53-2.06 3.52-3.472 4.607 2.732 0 5.855-1.174 8.137-4.607h-4.665zm-.61-.818c.48-1.301.7-2.732.83-4.124h-8.138c.13 1.392.35 2.823.83 4.124h6.477zm-7.41 0c-.478-1.43-.738-2.832-.738-4.124H21.28c.129 1.392.48 2.823 1.19 4.124h4.925zm4.184 4.596c1.063-.946 2.255-2.476 2.863-3.778H28.69c.61 1.302 1.801 2.832 2.89 3.778zm-8.629-3.778c2.384 3.433 5.506 4.607 8.28 4.607-1.453-1.087-2.993-3.076-3.487-4.607h-4.792zm12.816-9.894c.492 1.264.711 2.693.711 4.122h5.378c-.09-1.429-.453-2.858-1.192-4.122h-4.897zm4.315-.958c-2.282-3.293-5.404-4.595-8.137-4.595 1.411 1.048 2.861 3.039 3.472 4.595h4.665zm-11.754.958c-.48 1.264-.699 2.693-.829 4.122h8.137c-.13-1.429-.35-2.858-.83-4.122h-6.478zm-5.855 0c-.711 1.264-1.062 2.693-1.19 4.122h5.376c0-1.429.26-2.858.74-4.122h-4.926zm9.108-4.634c-1.088.945-2.279 2.374-2.889 3.676h5.753c-.61-1.302-1.801-2.73-2.864-3.676zm-3.835 3.676c.494-1.557 2.034-3.548 3.487-4.595-2.775 0-5.897 1.302-8.28 4.595h4.793zm-7.307 5.297c-1.191-1.863-1.452-4.339-1.452-6.241C18.986 48.462 24.856 43 30.97 43h19.165l-7.438 7.39H30.842c-4.767 0-10.535 4.762-10.404 10.786z" fill-rule="nonzero" fill="#ED1B2E"/></g></svg>