<?xml version="1.0" encoding="UTF-8" standalone="no"?>
<svg width="282px" height="73px" viewBox="0 0 282 73" version="1.1" xmlns="http://www.w3.org/2000/svg" xmlns:xlink="http://www.w3.org/1999/xlink">
    <!-- Generator: Sketch 41.2 (35397) - http://www.bohemiancoding.com/sketch -->
    <title>Group</title>
    <desc>Created with Sketch.</desc>
    <defs>
        <linearGradient x1="50%" y1="0%" x2="50%" y2="100%" id="linearGradient-1">
            <stop stop-color="#00A169" offset="0%"></stop>
            <stop stop-color="#006838" offset="100%"></stop>
        </linearGradient>
    </defs>
    <g id="Page-1" stroke="none" stroke-width="1" fill="none" fill-rule="evenodd">
        <g id="Artboard" transform="translate(-19.000000, -16.000000)" fill="url(#linearGradient-1)">
            <g id="Group" transform="translate(19.000000, 16.000000)">
                <path d="M69.6164,33.643 C69.6164,33.643 69.3094,37.486 77.0724,40.484 C77.0724,40.484 85.7584,44.403 86.5264,48.861 C86.5264,48.861 89.1394,59.699 79.2234,62.927 C79.2234,62.927 72.6914,64.003 67.3114,62.697 C67.3114,62.697 61.7764,61.236 62.0074,53.242 C62.0074,53.242 62.2384,50.245 62.6994,49.246 C62.6994,49.246 62.9304,48.4 63.9294,48.4 L67.1574,48.4 C67.1574,48.4 68.2234,48.429 68.0034,49.784 C68.0034,49.784 67.1574,55.855 68.8484,56.855 C68.8484,56.855 70.5394,59.238 77.7644,57.931 C77.7644,57.931 81.2224,57.162 81.3764,52.781 C81.3764,52.781 81.9914,49.015 77.2254,47.017 C77.2254,47.017 69.7704,43.083 68.3634,42.13 C68.3634,42.13 60.6244,37.793 66.2354,27.109 C66.2354,27.109 68.4254,22.037 76.9184,22.287 C76.9184,22.287 85.6804,21.941 87.2954,28.416 C87.2954,28.416 87.9104,32.414 87.5244,34.642 C87.5244,34.642 87.3824,36.625 85.9114,36.64 L82.9904,36.64 C82.9904,36.64 81.5224,36.594 81.9914,34.104 C81.9914,34.104 83.4524,28.262 78.5324,27.417 C78.5324,27.417 73.0374,26.361 71.0774,29.05 C71.0774,29.05 69.5404,30.798 69.6164,33.643" id="Fill-1"></path>
                <path d="M94.5949,25.0854 C94.5949,25.0854 94.6609,22.7124 96.3429,22.8084 L99.8779,22.8084 C99.8779,22.8084 100.7999,22.8464 100.6089,24.2684 L98.0709,52.9624 C98.0709,52.9624 97.1479,58.0734 102.4509,58.1124 L110.5599,58.1124 L113.4429,24.6494 C113.4429,24.6494 113.3649,22.8054 114.9419,22.8054 L118.6299,22.8054 C118.6299,22.8054 119.4379,22.8824 119.2829,24.3804 L116.2089,61.1874 C116.2089,61.1874 116.0849,63.1614 115.0559,65.6444 L112.2129,72.1004 C112.2129,72.1004 111.6359,73.5234 109.7919,72.7924 L107.1009,71.5244 C107.1009,71.5244 106.1179,71.1014 107.1009,69.5644 L109.6379,64.4914 C109.6379,64.4914 110.2529,63.2614 109.2919,63.2614 C109.2919,63.2614 100.8099,63.3534 98.9919,63.2234 C98.9919,63.2234 91.3839,62.3004 92.0359,54.6534 L94.5949,25.0854 Z" id="Fill-3"></path>
                <path d="M126.7453,26.2065 C126.7453,26.2065 126.9293,22.7815 129.3973,22.7865 L143.8473,22.7865 C143.8473,22.7865 152.0853,22.2225 150.9183,32.9335 L148.4673,60.5785 C148.4673,60.5785 148.5693,62.9865 146.8273,63.2425 L143.4973,63.2425 C143.4973,63.2425 142.1133,63.2935 142.4723,60.8345 L144.9743,32.6505 C144.9743,32.6505 145.3973,27.9455 141.7983,27.9355 L132.5743,27.9355 L129.5083,61.8085 C129.5083,61.8085 129.2513,63.2425 128.0733,63.2425 L124.6403,63.2425 C124.6403,63.2425 123.3583,63.5505 123.5643,61.0395 L126.7453,26.2065 Z" id="Fill-6"></path>
                <path d="M173.5383,56.9311 C173.5383,56.9311 173.5383,57.9551 172.8203,57.9551 L164.7763,57.9551 C164.7763,57.9551 160.7793,57.5461 161.0363,53.2421 L162.8803,32.7451 C162.8803,32.7451 162.9823,28.1351 168.1573,28.1351 L176.0503,28.1341 L173.5383,56.9311 Z M180.3543,22.8051 L166.3643,22.8051 C157.6023,23.3181 157.0913,30.9521 157.0913,30.9521 C156.8863,31.5161 155.1943,55.9581 155.1943,55.9581 C155.1943,62.5681 162.4703,63.2851 162.4703,63.2851 L176.3063,63.2851 C179.1243,63.1831 179.1243,61.0811 179.1243,61.0811 L182.1983,25.1111 C182.4543,22.8571 180.3543,22.8051 180.3543,22.8051 L180.3543,22.8051 Z" id="Fill-8"></path>
                <path d="M207.7306,32.2377 L205.8086,53.5917 C205.8086,53.5917 205.7306,57.7427 201.5036,57.9737 L192.7426,57.9737 L195.2796,28.0097 L204.1936,28.0097 C204.1936,28.0097 208.0376,28.1637 207.7306,32.2377 M205.8086,22.7837 L192.8186,22.7837 C189.5896,22.7067 189.5136,25.6287 189.5136,25.6287 L185.8246,71.1177 C185.4986,72.9037 186.7266,72.9617 186.7266,72.9617 L190.2836,72.9617 C191.5896,72.9617 191.5116,71.0397 191.5116,71.0397 L192.0506,64.1237 C192.1266,63.2767 192.8186,63.2627 192.8186,63.2627 L202.8416,63.2627 C211.0666,62.6477 211.6506,53.0547 211.6506,53.0547 L213.6486,31.3917 C213.9556,23.0917 205.8086,22.7837 205.8086,22.7837" id="Fill-10"></path>
                <path d="M221.2941,14.4428 C221.2941,14.4428 221.2881,13.1798 222.2881,13.1798 L226.6321,13.1798 C226.6321,13.1798 227.3661,13.1768 227.2841,14.4428 L226.5701,22.8048 L235.2131,22.8048 C235.2131,22.8048 236.5061,22.8908 236.4941,24.2658 L236.3421,26.9048 C236.3421,26.9048 236.1881,27.9808 234.6511,28.0318 L226.8611,28.0318 C226.8611,28.0318 225.9711,28.0378 225.8871,28.9038 L224.0431,52.9348 C224.0431,52.9348 223.5551,57.7508 226.8361,57.7508 L232.1511,57.8008 C232.1511,57.8008 233.5331,57.6478 233.3811,59.3388 L233.1251,62.0028 C233.1251,62.0028 233.0221,63.2328 231.1251,63.2848 L225.3361,63.2848 C225.3361,63.2848 217.1171,63.2848 218.0081,55.2388 L221.2941,14.4428 Z" id="Fill-12"></path>
                <path d="M249.1789,22.852 L245.5659,22.852 C244.0289,22.878 243.8489,24.492 243.8489,24.492 L240.7489,61.621 C240.5439,63.388 241.7489,63.259 241.7489,63.259 L244.9519,63.259 C246.5659,63.183 246.6669,61.493 246.6669,61.493 L249.9739,24.799 C250.2809,22.852 249.1789,22.852 249.1789,22.852" id="Fill-16"></path>
                <path d="M265.882,22.8051 L274.465,22.8051 C274.465,22.8051 281.076,22.7671 281.692,28.6461 C281.85,30.1631 281.692,32.1301 281.537,34.6421 C281.537,34.6421 281.537,36.5631 280.383,36.5631 L277.078,36.5631 C277.078,36.5631 275.619,36.8701 275.772,34.3341 L275.926,30.7981 C275.926,30.7981 276.335,27.7631 272.185,27.8001 L267.611,27.8001 C267.611,27.8001 264.114,27.7631 263.269,32.0291 L261.277,53.7301 C261.277,53.7301 260.546,57.6501 264.927,57.8411 L270.499,57.8411 C270.499,57.8411 274.152,58.0731 274.534,50.5011 C274.534,50.5011 274.419,48.1971 276.111,48.1571 L279.148,48.1571 C279.148,48.1571 280.915,47.8881 280.607,50.5401 C280.607,50.5401 280.275,53.9351 279.454,57.0101 C278.54,60.4391 275.683,63.2611 270.845,63.2611 L262.392,63.2611 C262.392,63.2611 254.704,63.1071 255.089,54.4601 L257.081,32.4901 C257.081,32.4901 257.657,23.1131 265.882,22.8051" id="Fill-18"></path>
                <path d="M39.9654484,72.7799023 C46.6433432,71.1684135 51.60688,65.1396015 51.60688,57.9488271 C51.60688,53.8361278 49.9850274,50.1043459 47.3467116,47.3610827 L47.3467116,47.3588872 L25.9024589,25.8046767 L12.2083958,9.88628571 C6.64056421,2.95567669 8.17483789,0.550518797 8.17483789,0.550518797 C8.16717474,0.559849624 8.18250105,0.541736842 8.17483789,0.551067669 C3.58186947,2.20701504 0.298206316,6.61281203 0.298206316,11.7881278 C0.298206316,14.5983534 1.26704842,17.1824436 2.88780632,19.2215038 L2.88999579,19.2231504 L25.9013642,42.3065188 L39.0809011,58.0042632 C39.0809011,58.0042632 44.5803116,64.2021278 39.9654484,72.7799023 L39.9654484,72.7799023 Z M41.1592589,71.4060752 C41.1592589,71.4060752 44.7855747,64.111015 39.8658274,58.0042632 L26.6742484,43.0815263 L41.4997221,57.9526692 C43.6224168,61.1833308 43.4198905,64.4227744 43.4198905,64.4227744 C43.4198905,67.447609 42.3465011,69.7726316 41.1592589,71.4060752 L41.1592589,71.4060752 Z M25.1454484,25.0461353 L8.72877474,8.63430827 L8.72330105,8.63869925 C7.80481684,7.41965414 7.25471158,5.86469925 7.25471158,4.1708797 C7.25471158,3.25755639 7.41454316,2.3853985 7.70629053,1.58349624 C7.73639579,2.96665414 8.46384842,5.66271429 12.0031326,10.0685113 L25.1454484,25.0461353 Z" id="Fill-21"></path>
            </g>
        </g>
    </g>
</svg>