<svg width="233" height="121" xmlns="http://www.w3.org/2000/svg"><title>Group 13</title><defs><linearGradient x1="50%" y1="0%" x2="50%" y2="100%" id="a"><stop stop-color="#00A169" offset="0%"/><stop stop-color="#006838" offset="100%"/></linearGradient></defs><g fill="none" fill-rule="evenodd"><path fill="#FFF" d="M0 0h233v121H0z"/><path d="M43.449 21.368s-.192 2.44 4.653 4.345c0 0 5.421 2.489 5.9 5.32 0 0 1.631 6.884-4.558 8.934 0 0-4.076.684-7.434-.146 0 0-3.455-.928-3.31-6.005 0 0 .144-1.904.432-2.538 0 0 .144-.537.767-.537h2.015s.665.018.528.879c0 0-.528 3.855.527 4.49 0 0 1.056 1.514 5.565.684 0 0 2.158-.488 2.254-3.27 0 0 .384-2.393-2.59-3.662 0 0-4.653-2.498-5.531-3.104 0 0-4.83-2.754-1.329-9.54 0 0 1.367-3.222 6.668-3.063 0 0 5.468-.22 6.476 3.893 0 0 .384 2.54.143 3.954 0 0-.088 1.26-1.007 1.27h-1.823s-.916-.03-.623-1.611c0 0 .912-3.71-2.159-4.248 0 0-3.43-.67-4.653 1.038 0 0-.959 1.11-.911 2.917m15.589-5.435s.041-1.508 1.09-1.447h2.207s.576.025.456.928l-1.584 18.224s-.576 3.246 2.734 3.271h5.06l1.8-21.253s-.048-1.171.936-1.171h2.302s.504.048.407 1l-1.918 23.377s-.078 1.254-.72 2.831l-1.774 4.1s-.36.904-1.511.44l-1.68-.805s-.613-.269 0-1.245l1.583-3.222s.384-.781-.215-.781c0 0-5.294.058-6.429-.025 0 0-4.748-.586-4.341-5.443l1.597-18.78zm20.065.712s.115-2.176 1.656-2.172h9.018s5.141-.359 4.413 6.444l-1.53 17.559s.064 1.529-1.023 1.692h-2.078s-.864.032-.64-1.53l1.561-17.9s.264-2.989-1.982-2.995h-5.757l-1.913 21.514s-.16.91-.896.91H77.79s-.8.196-.672-1.399l1.985-22.123zm29.205 19.514s0 .65-.449.65h-5.02s-2.494-.26-2.334-2.993l1.15-13.018s.064-2.928 3.294-2.928l4.926-.001-1.567 18.29zm4.254-21.675h-8.732c-5.468.326-5.787 5.175-5.787 5.175-.128.358-1.184 15.882-1.184 15.882 0 4.198 4.54 4.654 4.54 4.654h8.636c1.759-.065 1.759-1.4 1.759-1.4l1.918-22.846c.16-1.432-1.15-1.465-1.15-1.465zm17.085 5.991l-1.2 13.563s-.048 2.636-2.686 2.783h-5.468l1.584-19.031h5.563s2.4.098 2.207 2.685m-1.2-6.004h-8.106c-2.016-.05-2.063 1.807-2.063 1.807l-2.302 28.891c-.204 1.135.563 1.172.563 1.172h2.22c.815 0 .766-1.221.766-1.221l.336-4.393c.048-.538.48-.547.48-.547h6.255c5.134-.39 5.498-6.483 5.498-6.483l1.247-13.759c.192-5.272-4.893-5.467-4.893-5.467m9.665-5.298s-.004-.802.62-.802h2.711s.458-.002.407.802l-.446 5.311h5.395s.807.055.8.928l-.096 1.676s-.096.684-1.055.716h-4.862s-.555.004-.608.554l-1.15 15.263s-.305 3.059 1.742 3.059l3.318.031s.862-.097.767.977l-.16 1.692s-.064.781-1.248.814h-3.613s-5.13 0-4.573-5.11l2.05-25.91zm17.403 5.341h-2.255c-.96.017-1.072 1.042-1.072 1.042l-1.934 23.582c-.128 1.122.624 1.04.624 1.04h1.999c1.007-.048 1.07-1.122 1.07-1.122l2.064-23.305c.192-1.237-.496-1.237-.496-1.237m10.424-.03h5.357s4.126-.024 4.51 3.71c.1.964 0 2.213-.096 3.808 0 0 0 1.22-.72 1.22h-2.063s-.91.195-.815-1.415l.096-2.246s.255-1.928-2.335-1.904h-2.854s-2.183-.024-2.71 2.686l-1.244 13.783s-.456 2.49 2.279 2.61h3.477s2.28.148 2.518-4.661c0 0-.071-1.463.985-1.489h1.895s1.103-.17.91 1.514c0 0-.207 2.156-.719 4.11-.57 2.177-2.354 3.97-5.373 3.97h-5.276s-4.798-.098-4.558-5.59l1.244-13.954s.36-5.956 5.493-6.152M24.943 46.225c4.168-1.023 7.266-4.853 7.266-9.42a9.76 9.76 0 0 0-2.66-6.724v-.002L16.167 16.39 7.62 6.28C4.144 1.877 5.102.35 5.102.35c-.005.007.005-.005 0 .001C2.235 1.402.186 4.2.186 7.487c0 1.785.605 3.426 1.616 4.721l.002.001L16.165 26.87l8.226 9.97s3.432 3.937.552 9.385zm.745-.872s2.263-4.634-.807-8.512l-8.233-9.478 9.253 9.445c1.324 2.052 1.198 4.11 1.198 4.11a7.53 7.53 0 0 1-1.411 4.435zm-9.994-29.445L5.448 5.484l-.004.003a4.761 4.761 0 0 1-.916-2.838c0-.58.1-1.134.282-1.643.018.878.472 2.59 2.681 5.389l8.203 9.513z" transform="translate(23 33)" fill="url(#a)"/></g></svg>