<svg width="233" height="121" xmlns="http://www.w3.org/2000/svg" xmlns:xlink="http://www.w3.org/1999/xlink"><title>Group 11</title><defs><path id="a" d="M0 49.964h149.993V.267H0z"/></defs><g fill="none" fill-rule="evenodd"><path fill="#FFF" d="M0 0h233v121H0z"/><path fill="#497DA2" d="M42 80.14h1.669v-7.31H42z"/><g transform="translate(42 32.732)"><path d="M4.45 42.171l.032.375a3.395 3.395 0 0 1 1.808-.523c.46 0 .972.116 1.262.405.32.31.45.77.45 1.38v3.6h-1.53v-3.42c0-.267-.053-.417-.161-.522-.138-.13-.352-.172-.663-.172-.29 0-.749.075-.995.172v3.943H3.124V42.17H4.45zm4.079 0h1.646l1.166 3.635 1.112-3.635h1.53l-1.808 5.238H10.4zm9.284 2.096c0-.663-.31-1.09-.92-1.09-.62 0-.898.416-.93 1.09h1.85zm-1.85.994c.042.887.588 1.133 1.615 1.133a7.91 7.91 0 0 0 1.305-.129L19 47.376a9.355 9.355 0 0 1-1.764.183c-.985 0-1.723-.246-2.171-.673-.523-.503-.706-1.251-.706-2.085 0-1.838.94-2.779 2.545-2.779 1.572 0 2.406.823 2.406 2.64v.481c0 .086-.043.118-.128.118h-3.22zm8.087-2.95l-.117 1.122a6.753 6.753 0 0 0-1.615-.235c-.545 0-.845.128-.845.427 0 .887 2.865.043 2.865 2.213 0 1.09-.79 1.721-2.362 1.721-.62 0-1.423-.14-1.84-.289l.117-1.133c.397.128 1.123.246 1.691.246.577 0 .94-.107.94-.48 0-.93-2.855-.023-2.855-2.193 0-.971.706-1.688 2.278-1.688a5.71 5.71 0 0 1 1.743.29m.751.021l.888-.161v-1.165a5.627 5.627 0 0 1 1.529-.225v1.39h1.357v.994h-1.357v2.447c0 .589.118.803.737.803.214 0 .556-.043.74-.065l.051 1.08a6.99 6.99 0 0 1-1.336.128c-1.304 0-1.72-.578-1.72-1.732v-2.661h-.89v-.833z" fill="#497DA2"/><mask id="b" fill="#fff"><use xlink:href="#a"/></mask><path d="M29.68 47.409h1.528V42.17h-1.529v5.238zm1.603-6.84c0 .523-.278.726-.802.726h-.075c-.524 0-.803-.203-.803-.726v-.14c0-.523.28-.737.803-.737h.075c.524 0 .802.214.802.738v.139zm3.498 2.543c-.706 0-.983.321-.983.92 0 .608.277.93.983.93.695 0 .974-.322.974-.93 0-.599-.279-.92-.974-.92zm-1.102 4.725a.56.56 0 0 0-.149.396c0 .384.29.576 1.262.576h.161c.769 0 1.176-.18 1.176-.513 0-.341-.214-.46-.92-.46h-1.53zm.417-1.829a1.045 1.045 0 0 0-.138.418c0 .096.043.139.15.139h1.027c1.004 0 1.604.17 1.978.556.256.266.384.609.384 1.112 0 1.09-.78 1.73-2.662 1.73h-.086c-1.807 0-2.576-.437-2.576-1.378 0-.427.246-.76.62-.952-.182-.149-.268-.384-.268-.683 0-.44.257-.909.695-1.273-.492-.32-.801-.854-.801-1.645 0-1.39.887-2.01 2.362-2.01.172 0 .343.011.514.032l.513-1.304c.407.096.877.3 1.188.535l-.76 1.057c.556.31.899.856.899 1.69 0 1.4-.877 2.02-2.354 2.02-.246 0-.47-.01-.685-.044zm7.115-.854H40.4c-.364 0-.587.043-.727.182-.096.096-.15.245-.15.437 0 .386.193.62.75.62.287 0 .694-.085.94-.16v-1.08zm.193 1.935a2.984 2.984 0 0 1-1.571.47c-1.198 0-1.84-.706-1.84-1.72 0-.471.16-.9.46-1.188.374-.352.95-.48 1.924-.48h.834V44c0-.29-.063-.471-.192-.588-.182-.16-.47-.214-.888-.214a8.2 8.2 0 0 0-1.464.139l-.075-1.122a9.958 9.958 0 0 1 1.86-.193c.802 0 1.519.17 1.883.599.267.31.406.759.406 1.389v3.4h-1.209l-.128-.32zm2.751-.578c-.288-.438-.428-1.025-.428-1.603 0-.876.203-1.593.674-2.106.47-.502 1.23-.78 2.096-.78a6 6 0 0 1 1.54.192l-.096 1.133a4.955 4.955 0 0 0-1.209-.148c-.47 0-.834.137-1.058.373-.257.278-.354.684-.354 1.218 0 1.08.438 1.604 1.541 1.604.342 0 .759-.043 1.09-.108l.118 1.101a5.922 5.922 0 0 1-1.476.172c-.898 0-1.892-.203-2.438-1.048m4.825.898h1.53V42.17h-1.53v5.238zm1.605-6.84c0 .523-.279.726-.802.726h-.075c-.525 0-.802-.203-.802-.726v-.14c0-.523.277-.737.802-.737h.075c.523 0 .802.214.802.738v.139zm3.637 2.618c-.77 0-1.07.523-1.07 1.603s.3 1.604 1.07 1.604 1.07-.524 1.07-1.604-.3-1.603-1.07-1.603zm-1.357-2.416l1.956-1.816.75 1.015-2.172 1.464-.534-.663zm1.357 6.788c-1.817 0-2.663-1.09-2.663-2.769 0-1.678.846-2.768 2.663-2.768 1.818 0 2.663 1.09 2.663 2.768 0 1.678-.845 2.77-2.663 2.77zm5.008-5.388l.032.375a3.395 3.395 0 0 1 1.808-.523c.46 0 .972.116 1.262.405.32.31.45.77.45 1.38v3.6h-1.53v-3.42c0-.267-.053-.417-.161-.522-.138-.13-.352-.172-.663-.172-.29 0-.75.075-.995.172v3.943h-1.529V42.17h1.326zm7.64 4.929c-.31-.311-.46-.717-.46-1.326V42.17h1.53v3.389c0 .268.053.417.16.523.14.128.332.171.653.171.29 0 .738-.095.984-.192v-3.89h1.529v5.013c0 1.85-.524 2.779-2.427 2.779a6.22 6.22 0 0 1-1.336-.138l-.108-1.134c.352.063.684.117 1.198.117.374 0 .727-.086.887-.245.193-.182.257-.471.257-.845v-.64a3.478 3.478 0 0 1-1.647.426c-.46 0-.93-.118-1.22-.405m9.908-.908h.706c.749 0 1.284-.225 1.572-.652.289-.428.386-.92.386-1.818 0-1.047-.161-1.539-.514-1.923-.332-.353-.824-.481-1.636-.481h-.514v4.874zm-1.667 1.218v-7.312h2.256c1.39 0 2.31.214 2.92.825.587.576.886 1.485.886 2.799 0 1.326-.289 2.245-.887 2.866-.545.554-1.39.822-2.695.822h-2.48zm10.376-3.142c0-.663-.31-1.09-.92-1.09-.62 0-.898.416-.93 1.09h1.85zm-1.85.994c.042.887.588 1.133 1.615 1.133a7.91 7.91 0 0 0 1.305-.129l.117 1.111a9.355 9.355 0 0 1-1.764.183c-.985 0-1.722-.246-2.171-.673-.523-.503-.706-1.251-.706-2.085 0-1.838.94-2.779 2.545-2.779 1.572 0 2.407.823 2.407 2.64v.481c0 .086-.043.118-.13.118h-3.219zm8.088-2.95l-.118 1.122a6.753 6.753 0 0 0-1.615-.235c-.545 0-.845.128-.845.427 0 .887 2.866.043 2.866 2.213 0 1.09-.791 1.721-2.363 1.721-.62 0-1.422-.14-1.84-.289l.118-1.133c.396.128 1.122.246 1.69.246.577 0 .94-.107.94-.48 0-.93-2.854-.023-2.854-2.193 0-.971.705-1.688 2.277-1.688a5.71 5.71 0 0 1 1.744.29m4.204 2.842h-.812c-.364 0-.588.043-.728.182-.096.096-.149.245-.149.437 0 .386.192.62.749.62.288 0 .695-.085.94-.16v-1.08zm.193 1.935a2.984 2.984 0 0 1-1.572.47c-1.198 0-1.84-.706-1.84-1.72 0-.471.16-.9.46-1.188.374-.352.951-.48 1.925-.48h.834V44c0-.29-.063-.471-.192-.588-.182-.16-.471-.214-.888-.214-.492 0-1.102.063-1.465.139l-.075-1.122a9.958 9.958 0 0 1 1.86-.193c.803 0 1.52.17 1.883.599.267.31.406.759.406 1.389v3.4H96.25l-.128-.32zm3.916-4.918l.054.428c.406-.374 1.1-.566 1.604-.566.086 0 .203.01.268.022v1.336a5.656 5.656 0 0 0-.674-.043 4.47 4.47 0 0 0-1.049.128v3.933h-1.529V42.17h1.326zm4.065 0l.054.428c.406-.374 1.101-.566 1.604-.566.086 0 .203.01.268.022v1.336a5.656 5.656 0 0 0-.674-.043 4.47 4.47 0 0 0-1.049.128v3.933h-1.528V42.17h1.325zm5.094 1.016c-.771 0-1.07.523-1.07 1.603s.299 1.604 1.07 1.604c.77 0 1.069-.524 1.069-1.604s-.3-1.603-1.07-1.603m0 4.372c-1.817 0-2.663-1.09-2.663-2.769 0-1.678.846-2.768 2.664-2.768 1.817 0 2.662 1.09 2.662 2.768 0 1.678-.845 2.77-2.662 2.77m3.713-.151h1.529v-7.642h-1.529zm2.878 0h1.53v-7.642h-1.53zm5.242-4.222c-.771 0-1.07.523-1.07 1.603s.299 1.604 1.07 1.604c.77 0 1.068-.524 1.068-1.604s-.299-1.603-1.068-1.603m0 4.372c-1.818 0-2.664-1.09-2.664-2.769 0-1.678.846-2.768 2.664-2.768 1.817 0 2.662 1.09 2.662 2.768 0 1.678-.845 2.77-2.662 2.77m8.186-1.818c.321.363.78.523 1.604.523.353 0 .92-.063 1.347-.15l.171 1.22c-.438.128-1.24.224-1.84.224-1.293 0-2.105-.31-2.65-.887-.62-.663-.888-1.614-.888-2.886 0-2.288 1.036-3.827 3.539-3.827.632 0 1.444.14 1.914.331l-.214 1.22c-.567-.16-1.111-.258-1.571-.258-1.572 0-1.936 1.038-1.936 2.49 0 .867.161 1.593.524 2m5.734-5.975v2.683a3.431 3.431 0 0 1 1.637-.428c.46 0 .972.117 1.261.406.321.31.45.77.45 1.38v3.6h-1.53V43.99c0-.268-.052-.417-.16-.524-.138-.129-.352-.172-.663-.172-.29 0-.749.075-.995.172v3.943h-1.529v-7.641h1.529zm4.634 7.642h1.529V42.17h-1.529v5.238zm1.605-6.84c0 .523-.279.726-.802.726h-.075c-.525 0-.803-.203-.803-.726v-.14c0-.523.278-.737.803-.737h.075c.523 0 .802.214.802.738v.139zm1.274 6.84h1.528v-7.642h-1.528zm6.032-3.142c0-.663-.31-1.09-.92-1.09-.62 0-.897.416-.93 1.09h1.85zm-1.85.994c.043.887.589 1.133 1.615 1.133a7.9 7.9 0 0 0 1.305-.129l.117 1.111a9.355 9.355 0 0 1-1.763.183c-.985 0-1.723-.246-2.172-.673-.523-.503-.706-1.251-.706-2.085 0-1.838.941-2.779 2.546-2.779 1.571 0 2.406.823 2.406 2.64v.481c0 .086-.043.118-.129.118h-3.22zM44.464 9.483c.493 0 .659.335.659.762 0 2.022-2.497 4.605-5.677 6.493.797-3.13 3.05-7.283 5.018-7.255m2.945 6.905c-1.981 2.867-4.747 5.47-7.123 5.47-1.01.034-1.457-.546-1.44-1.71 0-.694.166-1.676.305-2.17 2.245-1.134 4.53-2.405 6.57-4.51 1.135-1.218 1.896-2.443 1.932-3.71.02-1.19-.73-1.8-2.21-1.818-2.154-.026-4.74 1.443-6.416 3.231-2.203 2.403-3.9 5.801-3.945 8.82-.025 2.14.992 3.843 3.747 3.74 2.948-.078 5.85-2.354 7.338-3.999-.176.705-.296 1.367-.296 1.91 0 1.903.946 3.25 2.813 3.824l.374-.176c-.168-.512-.211-1.054-.168-1.65.13-1.852.86-3.936 1.944-6.679C52.892 11.78 55.89 5.847 57.207 2.35l-3.143.596c-.488.105-.797.475-.96.828a398.632 398.632 0 0 0-5.015 11.133c-.228.478-.436.983-.68 1.482m78.474-6.41c.945-.446 1.734-.472 2.397-.336-.251.523-1.39 2.814-2.275 4.878-1.4 3.234-3.508 6.5-5.458 6.965-.672.194-1.068-.095-1.058-.765.057-2.864 3.214-9.251 6.394-10.742M98.185 21.528c0 1.435.91 2.316 2.643 2.267 1.797-.034 3.629-1.101 5.141-2.56.292 1.545 1.403 2.665 3.673 2.584 2.364-.088 4.628-1.566 6.2-3.283v.495c0 1.588.819 2.777 2.636 2.777 1.954 0 4.205-1.473 5.98-4l.06.03c-.164.6-.355 1.618-.382 2.292-.03 1.912 1.101 3.012 2.68 3.328l.383-.155c-.579-1.386.226-4.828.56-5.975 1.172-3.773 3.036-8.084 4.114-10.32-.49-.421-1.64-.705-2.869-.759-4.064-.15-8.154 1.528-11.138 6.804-.512.92-1.072 1.98-1.486 3.095a13.22 13.22 0 0 1-1.057 1.25c-1.077 1.04-2.61 2.371-4.169 2.39-.886.017-1.375-.603-1.354-1.708.017-4.224 3.745-10.639 6.278-10.658.694 0 .991.305.991.898 0 .7-.478 1.67-1.163 2.291l.297.27c1.7-.652 3.276-1.835 3.286-3.094 0-1.432-1.655-1.699-3.123-1.689-1.977.03-4.437.995-6.41 3.148-2.474 2.702-3.752 5.942-4.004 8.252-1.127 1.321-2.395 2.214-3.235 2.227-.475.018-.817-.24-.822-.739 0-.439.252-1.335.69-2.501 1.09-2.721 2.674-6.112 4.618-10.144 0 0-2.96.497-3.382.622a1.475 1.475 0 0 0-.992.814c-1.267 2.68-2.77 5.778-3.706 8.091-.58 1.456-.938 2.834-.938 3.66M62.02 9.483c.488 0 .688.335.688.762-.022 2.022-2.498 4.605-5.706 6.493.81-3.13 3.056-7.283 5.017-7.255m-5.427 1.688c-2.206 2.403-3.91 5.801-3.947 8.82-.02 2.095 1.084 3.843 3.905 3.74 3.029-.078 5.787-1.83 8.17-4.333-.6 1.606-1.114 2.984-1.424 3.73-.885 2.209-1.536 3.998-2.894 5.033l.148.267c3.991.234 5.485-2.571 7.127-7.14 1.64-4.579 3.03-8.558 4.112-11.317 1.75 0 4.222.061 5.607-.25-3.618 1.605-6.688 7.37-6.325 11.17.16 1.682 1.166 2.84 3.308 2.84 4.15 0 7.643-4.907 8.973-8.145.763-1.856 1.27-3.44 1.35-5.031.991-.172 1.932-.343 2.407-.413.904-.127.73.878.444 1.637-1.695 4.734-4.635 11.614-4.648 11.718h3.244c1.404-2.922 2.273-4.79 3.391-6.777 1.353-2.338 4.366-6.191 5.567-6.202.425 0 .536.272.43.682-.21 1.59-4.092 7.66-4.028 10.659.038 1.96 1.07 3.144 2.873 3.592l.376-.213c-.228-.426-.258-.96-.263-1.585-.033-2 1.596-5.506 2.223-6.866 1.003-2.131 2.789-5.25 2.674-6.957-.061-.84-.684-1.58-2.12-1.593-2.64-.015-5.27 2.553-7.479 5.992l-.058-.012c.886-2.003 1.575-3.857 1.553-4.762-.018-.828-.49-1.152-1.482-1.152-.69.018-1.643.284-2.577.535-1.306.337-2.68.695-4.192 1.01-.923.123-1.247.294-1.219.628.188 5.257-3.39 11.437-5.775 11.457-1.025 0-1.256-.748-1.256-1.784-.012-3.636 2.98-9.74 5.898-10.706.252-.072.504-.128.673-.181l.37-.98c-.62.13-2.092.151-2.87.171h-6.413C74.14 4.42 76.515 1.803 80 1.65c2.158-.07 3.617.744 3.745 1.98.088 1.055-.202 1.911-1.047 2.783l.239.239c1.908-.9 3.22-2.433 3.229-3.474C86.198 1.56 84.243.562 81.13.595c-3.96.026-8.834.918-12.239 7.974-1.02.16-1.943.543-2.712 1.366l.138.311c.556-.196 1.215-.23 1.953-.23-.475 1.156-1.42 3.67-2.366 6.25-2.865 3.789-5.751 5.594-7.86 5.594-1.155.033-1.616-.601-1.628-1.71-.013-.695.16-1.664.3-2.17 2.252-1.135 4.52-2.406 6.575-4.511 1.121-1.218 1.902-2.443 1.934-3.71.015-1.19-.716-1.8-2.222-1.818-2.143-.026-4.725 1.443-6.41 3.231m50.663-5.296c.898-.01 1.805-.851 2-1.84.223-1.025-.368-1.813-1.28-1.79-.893.004-1.793.827-2.007 1.847-.193 1 .367 1.804 1.287 1.783M74.775 34.747c-32.838 0-66.207.399-66.207.885 0 .479 33.369.899 66.207.899 32.844 0 66.207-.42 66.207-.899 0-.486-33.363-.885-66.207-.885" fill="#497DA2" mask="url(#b)"/><path d="M21.733 11.354l.211-.178c-.297-.485-.408-1.346-.388-1.861.107-4.275 4.625-6.7 11.683-6.7h3.903C34.872 3.94 32.97 5.69 31.509 8.99c-.626 1.42-3.616 9.063-4.836 12.495-1.516 4.085-2.487 5.94-3.69 6.62l.206.368c3.381.212 5.397-1.519 6.698-4.711 1.238-3.014 2.879-7.82 3.677-9.956 2.602-6.871 3.738-9.763 5.815-11.19 2.885-.017 5.673-.017 5.673-.017 3.106-.084 4.425-.853 5.4-2.054L50.23.267c-.775.42-2.461.504-3.887.507H32.324c-7.888 0-12.731 2.59-13.512 6.446-.389 1.866.649 3.885 2.921 4.134" fill="#497DA2" mask="url(#b)"/></g></g></svg>