<?xml version="1.0" encoding="UTF-8" standalone="no"?>
<svg width="188px" height="102px" viewBox="0 0 188 102" version="1.1" xmlns="http://www.w3.org/2000/svg" xmlns:xlink="http://www.w3.org/1999/xlink">
    <!-- Generator: Sketch 41.2 (35397) - http://www.bohemiancoding.com/sketch -->
    <title>Group 8</title>
    <desc>Created with Sketch.</desc>
    <defs>
        <polygon id="path-1" points="0 54.862119 164.992064 54.862119 164.992064 0.292963716 0 0.292963716"></polygon>
    </defs>
    <g id="Page-1" stroke="none" stroke-width="1" fill="none" fill-rule="evenodd">
        <g id="Artboard" transform="translate(-415.000000, -265.000000)">
            <g id="Group-8" transform="translate(415.000000, 265.000000)">
                <rect id="Rectangle-2" fill="#FFFFFF" x="0" y="0" width="188" height="102"></rect>
                <g id="Page-1" transform="translate(14.000000, 25.000000)">
                    <polygon id="Fill-1" fill="#497DA2" points="0 52.8606392 1.83543237 52.8606392 1.83543237 44.8332139 0 44.8332139"></polygon>
                    <g id="Group-42" transform="translate(0.000000, 0.804169)">
                        <path d="M4.89507285,46.3059327 L4.93026388,46.7173985 C5.56590194,46.3059327 6.30711309,46.1424435 6.91855731,46.1424435 C7.42442843,46.1424435 7.98858469,46.2708209 8.30750344,46.5879239 C8.65941378,46.9280691 8.80127764,47.4328006 8.80127764,48.1021184 L8.80127764,52.05658 L7.11870632,52.05658 L7.11870632,48.3007193 C7.11870632,48.0077556 7.06042117,47.8431692 6.94165143,47.7268615 C6.78989009,47.5853173 6.55455005,47.5381358 6.21253719,47.5381358 C5.89471816,47.5381358 5.38884705,47.620429 5.11831597,47.7268615 L5.11831597,52.05658 L3.43684437,52.05658 L3.43684437,46.3059327 L4.89507285,46.3059327 Z" id="Fill-2" fill="#497DA2"></path>
                        <polygon id="Fill-4" fill="#497DA2" points="9.3819297 46.3059327 11.1920685 46.3059327 12.4754415 50.2966032 13.69833 46.3059327 15.3809013 46.3059327 13.3926079 52.05658 11.4395055 52.05658"></polygon>
                        <path d="M19.5941479,48.6065208 C19.5941479,47.8790491 19.2532347,47.4094293 18.5824056,47.4094293 C17.9005793,47.4094293 17.5948572,47.8669794 17.5585665,48.6065208 L19.5941479,48.6065208 Z M17.5585665,49.6982769 C17.6058544,50.6726282 18.2063015,50.9425498 19.3357137,50.9425498 C19.7481086,50.9425498 20.335359,50.8832987 20.7708481,50.8010055 L20.8995153,52.021139 C20.3474559,52.1275716 19.6766268,52.2219344 18.9596095,52.2219344 C17.8763855,52.2219344 17.0647923,51.9520128 16.5710181,51.482393 C15.9958646,50.9304801 15.7946159,50.1086456 15.7946159,49.1935454 C15.7946159,47.1746194 16.8294522,46.1421144 18.5945025,46.1421144 C20.3232621,46.1421144 21.2415281,47.0451448 21.2415281,49.0410287 L21.2415281,49.5688023 C21.2415281,49.6631652 21.1942402,49.6982769 21.0996643,49.6982769 L17.5585665,49.6982769 Z" id="Fill-6" fill="#497DA2"></path>
                        <path d="M26.4555197,46.4592174 L26.3257528,47.6914206 C25.7264055,47.5268343 25.0192857,47.4335687 24.5497053,47.4335687 C23.950358,47.4335687 23.6204421,47.5740157 23.6204421,47.9020911 C23.6204421,48.8764424 26.772239,47.9492726 26.772239,50.3313858 C26.772239,51.5284772 25.9023607,52.2219344 24.1736011,52.2219344 C23.4906751,52.2219344 22.6086998,52.0683205 22.1501167,51.9048313 L22.2787839,50.6605585 C22.7153726,50.8010055 23.5137692,50.9304801 24.1384101,50.9304801 C24.7729484,50.9304801 25.1732464,50.8130752 25.1732464,50.4027065 C25.1732464,49.3811739 22.0324466,50.3785672 22.0324466,47.9953567 C22.0324466,46.9288372 22.8088488,46.1421144 24.5376084,46.1421144 C25.1138616,46.1421144 25.8319786,46.2474496 26.4555197,46.4592174" id="Fill-8" fill="#497DA2"></path>
                        <path d="M27.2814093,46.4828081 L28.2579605,46.3061521 L28.2579605,45.0267675 C28.7638316,44.8742508 29.39837,44.779888 29.9394321,44.779888 L29.9394321,46.3061521 L31.4328516,46.3061521 L31.4328516,47.3979083 L29.9394321,47.3979083 L29.9394321,50.0850549 C29.9394321,50.7313306 30.0691991,50.9661405 30.7510253,50.9661405 C30.9863654,50.9661405 31.3624696,50.9189591 31.5637183,50.8948197 L31.6209037,52.0809388 C31.2447995,52.1632319 30.6564494,52.2213858 30.1505783,52.2213858 C28.7165437,52.2213858 28.2579605,51.5871797 28.2579605,50.3198647 L28.2579605,47.3979083 L27.2814093,47.3979083 L27.2814093,46.4828081 Z" id="Fill-10" fill="#497DA2"></path>
                        <mask id="mask-2" fill="white">
                            <use xlink:href="#path-1"></use>
                        </mask>
                        <g id="Clip-13"></g>
                        <path d="M32.6473822,52.0564702 L34.3288538,52.0564702 L34.3288538,46.3058229 L32.6473822,46.3058229 L32.6473822,52.0564702 Z M34.4113328,44.5458462 C34.4113328,45.1208012 34.1056107,45.3435414 33.5293575,45.3435414 L33.4468785,45.3435414 C32.8706253,45.3435414 32.5638035,45.1208012 32.5638035,44.5458462 L32.5638035,44.3933295 C32.5638035,43.8183745 32.8706253,43.5835646 33.4468785,43.5835646 L33.5293575,43.5835646 C34.1056107,43.5835646 34.4113328,43.8183745 34.4113328,44.3933295 L34.4113328,44.5458462 Z" id="Fill-12" fill="#497DA2" mask="url(#mask-2)"></path>
                        <path d="M38.2592524,47.3389864 C37.4828502,47.3389864 37.1782278,47.6912012 37.1782278,48.3484493 C37.1782278,49.01667 37.4828502,49.369982 38.2592524,49.369982 C39.0235577,49.369982 39.3303795,49.01667 39.3303795,48.3484493 C39.3303795,47.6912012 39.0235577,47.3389864 38.2592524,47.3389864 L38.2592524,47.3389864 Z M37.0473612,52.5267483 C36.918694,52.6671954 36.8835029,52.819712 36.8835029,52.9612563 C36.8835029,53.3836946 37.201322,53.5943652 38.2713493,53.5943652 L38.4484042,53.5943652 C39.2940888,53.5943652 39.7416747,53.3957643 39.7416747,53.0303826 C39.7416747,52.6562229 39.5063347,52.5267483 38.7299325,52.5267483 L37.0473612,52.5267483 Z M37.5059443,50.5187948 C37.401471,50.7075205 37.354183,50.8951489 37.354183,50.9774421 C37.354183,51.0827774 37.401471,51.1299588 37.5180413,51.1299588 L38.6485532,51.1299588 C39.7526719,51.1299588 40.4125038,51.3175872 40.823799,51.7411228 C41.106427,52.0329893 41.2471912,52.4093434 41.2471912,52.9612563 C41.2471912,54.1583478 40.3894097,54.8616801 38.3186373,54.8616801 L38.2240614,54.8616801 C36.235768,54.8616801 35.3900834,54.381088 35.3900834,53.3485829 C35.3900834,52.8789631 35.6606145,52.5146787 36.0719097,52.3029109 C35.8717607,52.1394218 35.7771848,51.8815698 35.7771848,51.5523971 C35.7771848,51.0707077 36.0598128,50.5550038 36.5414901,50.1556075 C36.0004279,49.8033927 35.6606145,49.2174653 35.6606145,48.3484493 C35.6606145,46.8221852 36.636066,46.1418949 38.2592524,46.1418949 C38.4484042,46.1418949 38.6364563,46.1539646 38.8245084,46.1770067 L39.3886647,44.7451054 C39.8362506,44.8504406 40.353119,45.0742781 40.6951318,45.33213 L39.8593448,46.4930125 C40.470789,46.8342549 40.8479929,47.4333492 40.8479929,48.3484493 C40.8479929,49.8856859 39.8835386,50.5659762 38.2592524,50.5659762 C37.9887213,50.5659762 37.7412844,50.5550038 37.5059443,50.5187948 L37.5059443,50.5187948 Z" id="Fill-14" fill="#497DA2" mask="url(#mask-2)"></path>
                        <path d="M45.3323204,49.5805428 L44.4393479,49.5805428 C44.0390499,49.5805428 43.7927126,49.6277242 43.6387518,49.7802409 C43.5331787,49.8855762 43.4748936,50.0501626 43.4748936,50.2608331 C43.4748936,50.6843687 43.6860398,50.9422206 44.2985837,50.9422206 C44.615303,50.9422206 45.062889,50.8478578 45.3323204,50.7655646 L45.3323204,49.5805428 Z M45.5445663,51.7059013 C45.0507921,52.0219071 44.427251,52.2216052 43.8158067,52.2216052 C42.4983424,52.2216052 41.7923223,51.4469521 41.7923223,50.3321538 C41.7923223,49.8153527 41.9682774,49.3457329 42.2981934,49.0286299 C42.7094886,48.6424006 43.3440269,48.5008563 44.415154,48.5008563 L45.3323204,48.5008563 L45.3323204,48.3132279 C45.3323204,47.9961248 45.263038,47.7964267 45.1211742,47.6680493 C44.9210252,47.4913933 44.6032061,47.4332395 44.144623,47.4332395 C43.6035608,47.4332395 42.9327317,47.5023657 42.5335334,47.5857562 L42.4510544,46.353553 C43.0394045,46.2350508 43.8037098,46.1417852 44.497633,46.1417852 C45.3796083,46.1417852 46.1681074,46.3294136 46.5684054,46.7990334 C46.8620306,47.1391785 47.0148917,47.6329376 47.0148917,48.3242003 L47.0148917,52.0570189 L45.6853304,52.0570189 L45.5445663,51.7059013 Z" id="Fill-15" fill="#497DA2" mask="url(#mask-2)"></path>
                        <path d="M48.5702254,51.0710369 C48.2535061,50.5904447 48.0995453,49.9452662 48.0995453,49.3110601 C48.0995453,48.3487785 48.3227885,47.5620557 48.8407565,46.9980731 C49.3587245,46.4472575 50.1945116,46.1422241 51.146869,46.1422241 C51.6758342,46.1422241 52.2883781,46.2014752 52.8404375,46.3528946 L52.7348644,47.5971675 C52.3818543,47.5028046 51.8880801,47.4336784 51.4053031,47.4336784 C50.8873351,47.4336784 50.4881368,47.5850978 50.2417995,47.844047 C49.9591715,48.1490804 49.8524987,48.5945608 49.8524987,49.1815855 C49.8524987,50.3666073 50.334176,50.9426595 51.547167,50.9426595 C51.9232711,50.9426595 52.3818543,50.8954781 52.7469613,50.8241573 L52.8756285,52.0333184 C52.3114722,52.162793 51.8880801,52.2220441 51.2524421,52.2220441 C50.2648937,52.2220441 49.1706724,51.9982067 48.5702254,51.0710369" id="Fill-16" fill="#497DA2" mask="url(#mask-2)"></path>
                        <path d="M53.878573,52.0564702 L55.5600446,52.0564702 L55.5600446,46.3058229 L53.878573,46.3058229 L53.878573,52.0564702 Z M55.6436233,44.5458462 C55.6436233,45.1208012 55.3368015,45.3435414 54.761648,45.3435414 L54.679169,45.3435414 C54.1018161,45.3435414 53.796094,45.1208012 53.796094,44.5458462 L53.796094,44.3933295 C53.796094,43.8183745 54.1018161,43.5835646 54.679169,43.5835646 L54.761648,43.5835646 C55.3368015,43.5835646 55.6436233,43.8183745 55.6436233,44.3933295 L55.6436233,44.5458462 Z" id="Fill-17" fill="#497DA2" mask="url(#mask-2)"></path>
                        <path d="M59.6447339,47.421499 C58.7968499,47.421499 58.4680337,47.9953567 58.4680337,49.1814758 C58.4680337,50.3675948 58.7968499,50.9425498 59.6447339,50.9425498 C60.4915181,50.9425498 60.8203344,50.3675948 60.8203344,49.1814758 C60.8203344,47.9953567 60.4915181,47.421499 59.6447339,47.421499 L59.6447339,47.421499 Z M58.1513144,44.7683669 L60.3034661,42.7735803 L61.1271562,43.8883785 L58.7385648,45.4958386 L58.1513144,44.7683669 Z M59.6447339,52.2219344 C57.6454433,52.2219344 56.7150803,51.0237457 56.7150803,49.1814758 C56.7150803,47.3392058 57.6454433,46.1421144 59.6447339,46.1421144 C61.6440245,46.1421144 62.5732878,47.3392058 62.5732878,49.1814758 C62.5732878,51.0237457 61.6440245,52.2219344 59.6447339,52.2219344 L59.6447339,52.2219344 Z" id="Fill-18" fill="#497DA2" mask="url(#mask-2)"></path>
                        <path d="M65.1530105,46.3059327 L65.1882015,46.7173985 C65.8238396,46.3059327 66.5650508,46.1424435 67.176495,46.1424435 C67.6823661,46.1424435 68.2465224,46.2708209 68.5654411,46.5879239 C68.9173514,46.9280691 69.0592153,47.4328006 69.0592153,48.1021184 L69.0592153,52.05658 L67.376644,52.05658 L67.376644,48.3007193 C67.376644,48.0077556 67.3183588,47.8431692 67.1995891,47.7268615 C67.0478278,47.5853173 66.8124877,47.5381358 66.4704748,47.5381358 C66.1526558,47.5381358 65.6467847,47.620429 65.3762536,47.7268615 L65.3762536,52.05658 L63.694782,52.05658 L63.694782,46.3059327 L65.1530105,46.3059327 Z" id="Fill-19" fill="#497DA2" mask="url(#mask-2)"></path>
                        <path d="M73.5577292,51.7172029 C73.216816,51.3759605 73.0518581,50.9304801 73.0518581,50.2611623 L73.0518581,46.3056035 L74.7344294,46.3056035 L74.7344294,50.0263524 C74.7344294,50.3204134 74.7927145,50.4849997 74.9103846,50.6013074 C75.0632456,50.7417544 75.2754915,50.7889358 75.6285016,50.7889358 C75.9463206,50.7889358 76.4400948,50.6846978 76.7106259,50.5782653 L76.7106259,46.3056035 L78.3920975,46.3056035 L78.3920975,51.8104685 C78.3920975,53.8414642 77.8158443,54.8618996 75.7230775,54.8618996 C75.1578215,54.8618996 74.6871414,54.8037457 74.2527521,54.7104801 L74.1339824,53.4662073 C74.5221835,53.5353335 74.8872904,53.5945846 75.4525464,53.5945846 C75.8638416,53.5945846 76.2520427,53.5002218 76.4279979,53.324663 C76.6402438,53.1249649 76.7106259,52.8078618 76.7106259,52.3974932 L76.7106259,51.6941608 C76.1464696,52.0101666 75.4756405,52.1626833 74.8993874,52.1626833 C74.3935162,52.1626833 73.8755482,52.0332087 73.5577292,51.7172029" id="Fill-20" fill="#497DA2" mask="url(#mask-2)"></path>
                        <path d="M84.4561725,50.7195901 L85.2325747,50.7195901 C86.0562648,50.7195901 86.6446149,50.4727106 86.9613342,50.0030909 C87.2791533,49.5334711 87.3858261,48.9936279 87.3858261,48.007207 C87.3858261,46.857297 87.2087712,46.3174537 86.8205701,45.8961126 C86.4554631,45.5076888 85.914401,45.3672418 85.0214285,45.3672418 L84.4561725,45.3672418 L84.4561725,50.7195901 Z M82.6218398,52.0571286 L82.6218398,44.0286061 L85.1039075,44.0286061 C86.632518,44.0286061 87.6442603,44.263416 88.3150893,44.9338311 C88.9617246,45.5669399 89.2905408,46.5643332 89.2905408,48.007207 C89.2905408,49.4632476 88.9727218,50.4727106 88.3150893,51.1540981 C87.7146423,51.7630676 86.7853791,52.0571286 85.3502447,52.0571286 L82.6218398,52.0571286 Z" id="Fill-21" fill="#497DA2" mask="url(#mask-2)"></path>
                        <path d="M94.0357219,48.6065208 C94.0357219,47.8790491 93.6948087,47.4094293 93.0239796,47.4094293 C92.3421533,47.4094293 92.0364312,47.8669794 92.0001405,48.6065208 L94.0357219,48.6065208 Z M92.0001405,49.6982769 C92.0474284,50.6726282 92.6478754,50.9425498 93.7772877,50.9425498 C94.1896826,50.9425498 94.776933,50.8832987 95.2124221,50.8010055 L95.3410893,52.021139 C94.7890299,52.1275716 94.1182008,52.2219344 93.4011835,52.2219344 C92.3179595,52.2219344 91.5063663,51.9520128 91.0125921,51.482393 C90.4374386,50.9304801 90.2361899,50.1086456 90.2361899,49.1935454 C90.2361899,47.1746194 91.2710262,46.1421144 93.0360765,46.1421144 C94.7648361,46.1421144 95.6831021,47.0451448 95.6831021,49.0410287 L95.6831021,49.5688023 C95.6831021,49.6631652 95.6358142,49.6982769 95.5412383,49.6982769 L92.0001405,49.6982769 Z" id="Fill-22" fill="#497DA2" mask="url(#mask-2)"></path>
                        <path d="M100.897094,46.4592174 L100.767327,47.6914206 C100.167979,47.5268343 99.4608597,47.4335687 98.9912793,47.4335687 C98.391932,47.4335687 98.062016,47.5740157 98.062016,47.9020911 C98.062016,48.8764424 101.213813,47.9492726 101.213813,50.3313858 C101.213813,51.5284772 100.343935,52.2219344 98.6151751,52.2219344 C97.9322491,52.2219344 97.0502738,52.0683205 96.5916907,51.9048313 L96.7203579,50.6605585 C97.1569466,50.8010055 97.9553432,50.9304801 98.5799841,50.9304801 C99.2145224,50.9304801 99.6148204,50.8130752 99.6148204,50.4027065 C99.6148204,49.3811739 96.4740206,50.3785672 96.4740206,47.9953567 C96.4740206,46.9288372 97.2504228,46.1421144 98.9791824,46.1421144 C99.5554356,46.1421144 100.273553,46.2474496 100.897094,46.4592174" id="Fill-23" fill="#497DA2" mask="url(#mask-2)"></path>
                        <path d="M105.521526,49.5805428 L104.628553,49.5805428 C104.228255,49.5805428 103.981918,49.6277242 103.827957,49.7802409 C103.722384,49.8855762 103.664099,50.0501626 103.664099,50.2608331 C103.664099,50.6843687 103.875245,50.9422206 104.487789,50.9422206 C104.804508,50.9422206 105.252094,50.8478578 105.521526,50.7655646 L105.521526,49.5805428 Z M105.733771,51.7059013 C105.239997,52.0219071 104.616456,52.2216052 104.005012,52.2216052 C102.687548,52.2216052 101.981527,51.4469521 101.981527,50.3321538 C101.981527,49.8153527 102.157483,49.3457329 102.487399,49.0286299 C102.898694,48.6424006 103.533232,48.5008563 104.604359,48.5008563 L105.521526,48.5008563 L105.521526,48.3132279 C105.521526,47.9961248 105.452243,47.7964267 105.310379,47.6680493 C105.11023,47.4913933 104.792411,47.4332395 104.333828,47.4332395 C103.792766,47.4332395 103.121937,47.5023657 102.722739,47.5857562 L102.64026,46.353553 C103.22861,46.2350508 103.992915,46.1417852 104.686838,46.1417852 C105.568813,46.1417852 106.357313,46.3294136 106.757611,46.7990334 C107.051236,47.1391785 107.204097,47.6329376 107.204097,48.3242003 L107.204097,52.0570189 L105.874536,52.0570189 L105.733771,51.7059013 Z" id="Fill-24" fill="#497DA2" mask="url(#mask-2)"></path>
                        <path d="M110.041814,46.3059327 L110.101199,46.7755524 C110.547685,46.3651837 111.31199,46.153416 111.865149,46.153416 C111.959725,46.153416 112.088392,46.1654856 112.159874,46.1775553 L112.159874,47.6445684 C111.971822,47.620429 111.689194,47.5973869 111.418663,47.5973869 C110.972177,47.5973869 110.630164,47.6555408 110.265057,47.737834 L110.265057,52.05658 L108.583585,52.05658 L108.583585,46.3059327 L110.041814,46.3059327 Z" id="Fill-25" fill="#497DA2" mask="url(#mask-2)"></path>
                        <path d="M114.513715,46.3059327 L114.573099,46.7755524 C115.019586,46.3651837 115.783891,46.153416 116.33705,46.153416 C116.431626,46.153416 116.560293,46.1654856 116.631775,46.1775553 L116.631775,47.6445684 C116.443723,47.620429 116.161095,47.5973869 115.890564,47.5973869 C115.444077,47.5973869 115.102065,47.6555408 114.736958,47.737834 L114.736958,52.05658 L113.055486,52.05658 L113.055486,46.3059327 L114.513715,46.3059327 Z" id="Fill-26" fill="#497DA2" mask="url(#mask-2)"></path>
                        <path d="M120.116457,47.421499 C119.268573,47.421499 118.939757,47.9953567 118.939757,49.1814758 C118.939757,50.3675948 119.268573,50.9425498 120.116457,50.9425498 C120.963241,50.9425498 121.292058,50.3675948 121.292058,49.1814758 C121.292058,47.9953567 120.963241,47.421499 120.116457,47.421499 M120.116457,52.2219344 C118.117166,52.2219344 117.186803,51.0237457 117.186803,49.1814758 C117.186803,47.3392058 118.117166,46.1421144 120.116457,46.1421144 C122.115748,46.1421144 123.045011,47.3392058 123.045011,49.1814758 C123.045011,51.0237457 122.115748,52.2219344 120.116457,52.2219344" id="Fill-27" fill="#497DA2" mask="url(#mask-2)"></path>
                        <polygon id="Fill-28" fill="#497DA2" mask="url(#mask-2)" points="124.201256 52.0564702 125.882728 52.0564702 125.882728 43.6658578 124.201256 43.6658578"></polygon>
                        <polygon id="Fill-29" fill="#497DA2" mask="url(#mask-2)" points="127.36735 52.0564702 129.048821 52.0564702 129.048821 43.6658578 127.36735 43.6658578"></polygon>
                        <path d="M133.132631,47.421499 C132.284747,47.421499 131.955931,47.9953567 131.955931,49.1814758 C131.955931,50.3675948 132.284747,50.9425498 133.132631,50.9425498 C133.979415,50.9425498 134.308231,50.3675948 134.308231,49.1814758 C134.308231,47.9953567 133.979415,47.421499 133.132631,47.421499 M133.132631,52.2219344 C131.13334,52.2219344 130.202977,51.0237457 130.202977,49.1814758 C130.202977,47.3392058 131.13334,46.1421144 133.132631,46.1421144 C135.131921,46.1421144 136.061185,47.3392058 136.061185,49.1814758 C136.061185,51.0237457 135.131921,52.2219344 133.132631,52.2219344" id="Fill-30" fill="#497DA2" mask="url(#mask-2)"></path>
                        <path d="M142.137687,50.2267089 C142.490697,50.6250078 142.996568,50.8005666 143.901637,50.8005666 C144.289838,50.8005666 144.913379,50.7314403 145.384059,50.6370775 L145.572112,51.9757132 C145.090434,52.1161602 144.208459,52.2214955 143.548627,52.2214955 C142.12559,52.2214955 141.232617,51.8813504 140.63217,51.2471443 C139.950344,50.5196726 139.655619,49.4750978 139.655619,48.0783083 C139.655619,45.5667205 140.796028,43.8769672 143.548627,43.8769672 C144.24365,43.8769672 145.137722,44.0294839 145.654591,44.2401544 L145.419251,45.5787901 C144.795709,45.4032313 144.196362,45.2967988 143.690491,45.2967988 C141.961731,45.2967988 141.561433,46.4357364 141.561433,48.0311269 C141.561433,48.982436 141.738488,49.7801312 142.137687,50.2267089" id="Fill-31" fill="#497DA2" mask="url(#mask-2)"></path>
                        <path d="M148.44502,43.665748 L148.44502,46.6118438 C149.03337,46.2826711 149.693202,46.1422241 150.245261,46.1422241 C150.751132,46.1422241 151.315288,46.2706015 151.633107,46.5877045 C151.986117,46.9289469 152.127981,47.4336784 152.127981,48.101899 L152.127981,52.0563605 L150.44541,52.0563605 L150.44541,48.3015971 C150.44541,48.0075361 150.387125,47.844047 150.268355,47.7266421 C150.116594,47.5850978 149.881254,47.5379164 149.539241,47.5379164 C149.221422,47.5379164 148.715551,47.6202096 148.44502,47.7266421 L148.44502,52.0563605 L146.763548,52.0563605 L146.763548,43.665748 L148.44502,43.665748 Z" id="Fill-32" fill="#497DA2" mask="url(#mask-2)"></path>
                        <path d="M153.542881,52.0564702 L155.224352,52.0564702 L155.224352,46.3058229 L153.542881,46.3058229 L153.542881,52.0564702 Z M155.307931,44.5458462 C155.307931,45.1208012 155.001109,45.3435414 154.425956,45.3435414 L154.343477,45.3435414 C153.766124,45.3435414 153.460402,45.1208012 153.460402,44.5458462 L153.460402,44.3933295 C153.460402,43.8183745 153.766124,43.5835646 154.343477,43.5835646 L154.425956,43.5835646 C155.001109,43.5835646 155.307931,43.8183745 155.307931,44.3933295 L155.307931,44.5458462 Z" id="Fill-33" fill="#497DA2" mask="url(#mask-2)"></path>
                        <polygon id="Fill-34" fill="#497DA2" mask="url(#mask-2)" points="156.708974 52.0564702 158.390446 52.0564702 158.390446 43.6658578 156.708974 43.6658578"></polygon>
                        <path d="M163.344903,48.6065208 C163.344903,47.8790491 163.00399,47.4094293 162.333161,47.4094293 C161.651335,47.4094293 161.345613,47.8669794 161.309322,48.6065208 L163.344903,48.6065208 Z M161.309322,49.6982769 C161.35661,50.6726282 161.957057,50.9425498 163.086469,50.9425498 C163.498864,50.9425498 164.086115,50.8832987 164.521604,50.8010055 L164.650271,52.021139 C164.098212,52.1275716 163.427382,52.2219344 162.710365,52.2219344 C161.627141,52.2219344 160.815548,51.9520128 160.321774,51.482393 C159.74662,50.9304801 159.545371,50.1086456 159.545371,49.1935454 C159.545371,47.1746194 160.580208,46.1421144 162.345258,46.1421144 C164.074018,46.1421144 164.992284,47.0451448 164.992284,49.0410287 L164.992284,49.5688023 C164.992284,49.6631652 164.944996,49.6982769 164.85042,49.6982769 L161.309322,49.6982769 Z" id="Fill-35" fill="#497DA2" mask="url(#mask-2)"></path>
                        <path d="M48.9101488,10.4121718 C49.4523107,10.4121718 49.6348642,10.7808453 49.6348642,11.2493678 C49.6348642,13.4701864 46.8888638,16.3054607 43.3906551,18.3792488 C44.2671317,14.9415884 46.7459002,10.3814491 48.9101488,10.4121718 M52.1499234,17.9952139 C49.9702787,21.1432023 46.9284537,24.0015187 44.3144197,24.0015187 C43.2037027,24.0377277 42.7121279,23.4013271 42.7308232,22.124137 C42.7308232,21.3615536 42.9133767,20.2829643 43.0662377,19.7409266 C45.5351087,18.4955565 48.0490682,17.0998642 50.2935963,14.7879745 C51.5417783,13.450436 52.3786651,12.1063141 52.418255,10.7150107 C52.4402494,9.40819507 51.6154596,8.73887721 49.9867745,8.71802961 C47.617978,8.68950131 44.7741026,10.3024476 42.9298725,12.2665115 C40.50609,14.9042821 38.6387657,18.6360035 38.5903781,21.95187 C38.5628851,24.2999687 39.6813001,26.1707669 42.7121279,26.0577509 C45.9552017,25.972166 49.1465886,23.4726479 50.7840714,21.6665869 C50.5905207,22.4401428 50.4585543,23.1676145 50.4585543,23.7634171 C50.4585543,25.8536639 51.4988893,27.3316493 53.5520662,27.9625637 L53.9633614,27.7694491 C53.7786084,27.207661 53.7313205,26.6118583 53.7786084,25.9568046 C53.921572,23.9236145 54.7243675,21.6358642 55.9175635,18.6239338 C58.1807869,12.9336348 61.4777469,6.42040406 62.9271776,2.57895849 L59.4707582,3.23401219 C58.9340949,3.34922264 58.5931818,3.75520232 58.4139275,4.14252888 C56.7467522,7.68442729 55.0333888,11.4556493 52.8977329,16.3669062 C52.6469968,16.8924853 52.418255,17.4465927 52.1499234,17.9952139" id="Fill-36" fill="#497DA2" mask="url(#mask-2)"></path>
                        <path d="M138.471551,10.9572819 C139.510786,10.4679118 140.378465,10.4393835 141.107579,10.5886084 C140.831549,11.1624662 139.578968,13.678443 138.605716,15.9442485 C137.065009,19.4960221 134.7468,23.0829074 132.601246,23.5920279 C131.862235,23.8059901 131.426745,23.4877898 131.437743,22.7526374 C131.500427,19.6079408 134.973342,12.5943675 138.471551,10.9572819 M108.003813,23.638112 C108.003813,25.2137521 109.004558,26.1815199 110.910373,26.127755 C112.887669,26.0904488 114.902356,24.9185939 116.566232,23.3177173 C116.88735,25.0129567 118.109138,26.2429655 120.606602,26.1540888 C123.20634,26.0575315 125.697205,24.43471 127.427065,22.5496476 L127.427065,23.0927826 C127.427065,24.8363007 128.326635,26.1420192 130.325926,26.1420192 C132.474778,26.1420192 134.951347,24.5246839 136.90335,21.7508552 L136.969333,21.7826752 C136.788979,22.4410206 136.578933,23.5591106 136.54924,24.2997492 C136.517349,26.3987739 137.761132,27.6068377 139.497589,27.9535663 L139.918782,27.7834938 C139.282044,26.2616186 140.167319,22.4827158 140.534625,21.2230816 C141.824596,17.0798943 143.874474,12.3463907 145.059972,9.89076226 C144.521109,9.42882322 143.256432,9.11720639 141.904876,9.0579553 C137.434515,8.8922717 132.934461,10.7356389 129.652897,16.5290787 C129.089841,17.5385417 128.472898,18.7027158 128.017614,19.9272383 C127.549133,20.5471803 127.061958,21.1001904 126.85521,21.2998885 C125.670812,22.4410206 123.983842,23.9036447 122.269379,23.9233951 C121.295027,23.9431454 120.757264,23.2617579 120.780358,22.0482078 C120.799053,17.4101643 124.899908,10.3669655 127.685499,10.3461179 C128.448704,10.3461179 128.776421,10.6807768 128.776421,11.3314415 C128.776421,12.1006084 128.249655,13.1649335 127.496347,13.8474183 L127.822964,14.1436737 C129.692487,13.4282717 131.426745,12.1291367 131.437743,10.7466113 C131.437743,9.17426299 129.617706,8.88129927 128.002218,8.8922717 C125.828072,8.92409173 123.121661,9.98402787 120.951914,12.3485852 C118.230108,15.3155286 116.824666,18.8727884 116.547536,21.4096128 C115.307052,22.8601672 113.912608,23.8411019 112.988843,23.855366 C112.466476,23.8751164 112.090372,23.5920279 112.084873,23.0434067 C112.084873,22.5617173 112.362003,21.5774909 112.84368,20.297009 C114.043474,17.309218 115.785431,13.5862746 117.923286,9.1589016 C117.923286,9.1589016 114.667015,9.70423106 114.202934,9.84138636 C113.70586,9.9642775 113.325357,10.2890612 113.112012,10.7356389 C111.718667,13.678443 110.064688,17.0798943 109.03535,19.6200104 C108.396413,21.2186926 108.003813,22.7317898 108.003813,23.638112" id="Fill-37" fill="#497DA2" mask="url(#mask-2)"></path>
                        <path d="M68.2210089,10.4121718 C68.7587718,10.4121718 68.9787158,10.7808453 68.9787158,11.2493678 C68.954522,13.4701864 66.230516,16.3054607 62.7026148,18.3792488 C63.5922881,14.9415884 66.0633586,10.3814491 68.2210089,10.4121718 M62.2517297,12.2665115 C59.8246481,14.9042821 57.9496258,18.6360035 57.9100359,21.95187 C57.8869417,24.25169 59.1021321,26.1707669 62.2055415,26.0577509 C65.5365928,25.972166 68.5707198,24.0476029 71.1913521,21.300108 C70.5315202,23.0633765 69.9662642,24.5764737 69.6253511,25.3961138 C68.652099,27.8210194 67.9361814,29.7850833 66.4416622,30.9218264 L66.6055204,31.2147901 C70.9956019,31.4715448 72.6385834,28.3915855 74.4443233,23.3760906 C76.2489635,18.3474287 77.7786738,13.9782096 78.9674709,10.9487234 C80.8919806,10.9487234 83.6115877,11.0156552 85.1357994,10.6744128 C81.1559133,12.436584 77.7786738,18.7665753 78.1778721,22.9393881 C78.354927,24.786047 79.4612451,26.0577509 81.8168449,26.0577509 C86.3817819,26.0577509 90.2242029,20.6691936 91.6868303,17.1141283 C92.5270162,15.0765492 93.0845742,13.3363228 93.1714521,11.5895129 C94.2623741,11.4007872 95.2972105,11.2131588 95.8195774,11.1363518 C96.8148238,10.997002 96.6234726,12.1008279 96.307853,12.9336348 C94.4438279,18.1323692 91.2095519,25.686883 91.1952555,25.8009962 L94.7638463,25.8009962 C96.307853,22.5926595 97.2646092,20.5419135 98.494096,18.3594984 C99.9820169,15.7919512 103.296572,11.5609846 104.617336,11.5489149 C105.084717,11.5489149 105.206786,11.8473649 105.091315,12.2983315 C104.860374,14.0429469 100.589062,20.7086943 100.659444,24.0015187 C100.701234,26.153211 101.837244,27.4545405 103.820039,27.9461051 L104.233534,27.7123925 C103.982798,27.2449672 103.949806,26.6590398 103.944307,25.972166 C103.908017,23.7754868 105.70056,19.9263605 106.390084,18.4330136 C107.493103,16.0925956 109.457203,12.6681022 109.330735,10.7940122 C109.263652,9.87232859 108.578527,9.05817475 106.999329,9.04500784 C104.094969,9.0285492 101.201606,11.8473649 98.7723251,15.6240731 L98.7085413,15.6109062 C99.6828931,13.4109353 100.4406,11.3755507 100.416406,10.3814491 C100.396611,9.47293237 99.8786432,9.11742583 98.7866214,9.11742583 C98.026715,9.1371762 96.9797818,9.42904267 95.9515437,9.70445051 C94.5153097,10.0742212 93.0031949,10.4681312 91.3404186,10.8126653 C90.3253772,10.9487234 89.9690679,11.1363518 89.9998601,11.5028308 C90.2066074,17.2754229 86.2707102,24.0618671 83.6467787,24.0838119 C82.5195659,24.0838119 82.2655306,23.2619774 82.2655306,22.124137 C82.252334,18.1323692 85.5426957,11.4304128 88.7538775,10.3682821 C89.0310069,10.2892807 89.3081363,10.2278351 89.493989,10.1696813 L89.8997856,9.09438374 C89.2179593,9.23592801 87.5991717,9.26006734 86.7446894,9.28201219 L79.6899868,9.28201219 C81.5529122,4.8524447 84.1669462,1.97986415 87.99837,1.81088882 C90.3726651,1.73298462 91.9771563,2.62723716 92.1179205,3.98562322 C92.2146958,5.14321393 91.8957771,6.08355065 90.9665138,7.04034601 L91.2293469,7.30258694 C93.328712,6.3150688 94.7715444,4.63189898 94.7814419,3.48857242 C94.8166329,1.71213701 92.6666807,0.615991872 89.2421531,0.652200871 C84.886163,0.680729173 79.5250288,1.66056662 75.7793832,9.40819507 C74.6576689,9.5826566 73.6415278,10.0039977 72.7958433,10.9081254 L72.9476046,11.2493678 C73.5590488,11.0343083 74.2837642,10.997002 75.0953574,10.997002 C74.5729905,12.2665115 73.5337553,15.0260761 72.4934203,17.8591559 C69.3416233,22.019899 66.1667322,24.0015187 63.8463234,24.0015187 C62.5772468,24.0377277 62.0691762,23.3420761 62.0559796,22.124137 C62.0416832,21.3615536 62.2319347,20.2972284 62.3858955,19.7409266 C64.8635643,18.4955565 67.3588285,17.0998642 69.6187527,14.7879745 C70.8526384,13.450436 71.7115195,12.1063141 71.7467106,10.7150107 C71.7632064,9.40819507 70.9593112,8.73887721 69.3020334,8.71802961 C66.9453339,8.68950131 64.1047576,10.3024476 62.2517297,12.2665115" id="Fill-38" fill="#497DA2" mask="url(#mask-2)"></path>
                        <path d="M117.981351,6.45244354 C118.968899,6.44037388 119.967445,5.51759303 120.18189,4.43132308 C120.427128,3.30664964 119.777194,2.4409254 118.774249,2.46616197 C117.7911,2.47055094 116.801352,3.37467866 116.566012,4.49386589 C116.353766,5.59330276 116.969609,6.47548563 117.981351,6.45244354" id="Fill-39" fill="#497DA2" mask="url(#mask-2)"></path>
                        <path d="M82.2520041,38.1535315 C46.130607,38.1535315 9.42525866,38.5913312 9.42525866,39.1256882 C9.42525866,39.6512673 46.130607,40.1121091 82.2520041,40.1121091 C118.381099,40.1121091 155.079849,39.6512673 155.079849,39.1256882 C155.079849,38.5913312 118.381099,38.1535315 82.2520041,38.1535315" id="Fill-40" fill="#497DA2" mask="url(#mask-2)"></path>
                        <path d="M23.9068091,12.4666485 L24.13885,12.2713393 C23.8122332,11.7391768 23.6890646,10.7933538 23.711059,10.228274 C23.8298287,5.53427112 28.7994626,2.8723611 36.5623847,2.8723611 L40.8556909,2.8723611 C38.3582272,4.32511001 36.2676598,6.24747866 34.6598695,9.87167025 C33.9714449,11.4308517 30.6821829,19.8225614 29.3405247,23.591589 C27.6722497,28.0771158 26.6044218,30.1135977 25.2814589,30.8608197 L25.5080011,31.2646049 C29.2272536,31.4972203 31.4442887,29.5967965 32.8761239,26.0911071 C34.2375771,22.7818241 36.0422173,17.5040882 36.9208934,15.1592813 C39.7823644,7.61464267 41.0327458,4.43922322 43.3168639,2.8723611 C46.4906552,2.85370798 49.5566741,2.85370798 49.5566741,2.85370798 C52.9735036,2.76153962 54.4251337,1.91666299 55.4973605,0.598874891 L55.252123,0.292744267 C54.3998402,0.754683309 52.5446128,0.846851669 50.9764124,0.850143396 L35.5561411,0.850143396 C26.8793518,0.850143396 21.552309,3.69419565 20.6934278,7.92735675 C20.2656368,9.97700552 21.407146,12.1934351 23.9068091,12.4666485" id="Fill-41" fill="#497DA2" mask="url(#mask-2)"></path>
                    </g>
                </g>
            </g>
        </g>
    </g>
</svg>