<svg width="233" height="121" xmlns="http://www.w3.org/2000/svg"><title>Group 7</title><g fill="none" fill-rule="evenodd"><path fill="#FFF" d="M0 0h233v121H0z"/><g fill="#000"><path d="M40.093 54.158c1.536-1.27 3.418-2.276 5.458-2.276 1.987 0 4.796 1.191 4.796 5.69V70.49h-4.822V59.505c0-1.456.106-3.785-1.988-3.785-1.404 0-2.517 1.006-3.418 1.985v12.784H35.27V45.16h4.823v9zM52.6 61.384c0-4.844 2.675-9.502 8.028-9.502 5.352 0 8.028 4.658 8.028 9.502 0 4.817-2.702 9.502-8.028 9.502-5.326 0-8.029-4.685-8.029-9.502m11.102 0c0-2.276-.45-5.955-3.073-5.955-2.597 0-3.074 3.679-3.074 5.955 0 2.276.45 5.956 3.074 5.956 2.596 0 3.073-3.68 3.073-5.956m17.462 7.226c-1.537 1.27-3.418 2.276-5.432 2.276-1.987 0-4.796-1.19-4.796-5.69V52.252h4.823v10.985c0 1.456-.106 3.785 1.987 3.785 1.404 0 2.517-1.006 3.418-1.985V52.252h4.822V70.49h-4.822v-1.88zm12.904-4.103c-.556 0-1.378.292-1.378 1.139 0 2.382 12.64-1.747 12.64 5.373 0 2.7-1.83 5.558-9.063 5.558-6.306 0-8.452-2.223-8.452-4.579 0-1.403.874-2.117 1.987-2.78-.795-.581-1.43-1.27-1.43-2.302 0-1.8.98-2.726 2.384-3.653-1.325-1.297-2.279-2.938-2.279-5.029 0-4.05 3.418-6.379 7.366-6.379 1.59 0 3.127.45 4.505 1.27.98-.899 1.855-1.481 3.285-1.481.45 0 .954.026 1.405.132v3.388c-.477-.185-1.007-.397-1.537-.397s-.848.159-1.298.397c.53.98.953 2.065.98 3.097 0 4.05-3.392 6.379-7.34 6.379l-1.775-.133zm-1.537 6.009c-.45.291-.742.556-.742 1.138 0 1.694 3.418 1.8 4.558 1.8.821 0 5.06-.106 5.06-1.562 0-.953-.662-.847-3.523-1.006l-5.353-.37zm3.339-9.079c2.014 0 2.596-1.667 2.596-3.388 0-1.667-.768-3.07-2.596-3.07-2.014 0-2.65 1.694-2.65 3.414 0 1.668.795 3.044 2.65 3.044zm16.057-7.279c1.537-1.27 3.418-2.276 5.458-2.276 1.988 0 4.796 1.191 4.796 5.69V70.49h-4.822V59.505c0-1.456.106-3.785-1.987-3.785-1.405 0-2.518 1.006-3.419 1.985v12.784h-4.822V45.16h4.822v9h-.026zm19.316-1.906h3.763v3.997h-3.763v9.29c0 .874.265 1.8 1.829 1.8.82 0 1.35-.317 1.934-.688v3.68c-1.007.29-2.067.555-3.1.555-2.995 0-5.485-1.694-5.485-5.664V56.25h-2.252v-3.997h2.252V47.7h4.822v4.552zm24.404 18.238h-2.597l-4.319-20.7h-.053l-4.53 20.7h-2.624l-5.3-25.331h2.544l4.16 20.46h.08l4.557-20.46h2.518l4.345 20.46h.053l4.478-20.46h2.49zm4.398-8.973c0-6.75 3.207-9.503 7.208-9.503 4.027 0 7.207 2.78 7.207 9.502 0 6.75-3.18 9.503-7.207 9.503-4.028 0-7.208-2.78-7.208-9.503m11.871 0c0-3.07-.742-7.358-4.663-7.358-3.922 0-4.664 4.288-4.664 7.358 0 3.07.742 7.359 4.664 7.359 3.895 0 4.663-4.315 4.663-7.359m7.155-5.134h.052c1.007-2.144 2.305-4.13 4.982-4.13h.98v2.303c-3.339-.45-5.06 3.124-6.041 5.744v10.19h-2.544V52.517h2.544v3.865h.026zm10.148 4.473l6.677-8.338h2.835l-4.955 6.167 5.723 11.805h-2.755l-4.584-9.767-2.941 3.627v6.14h-2.544V45.16h2.544zm21.382-4.341c-1.006-1.509-2.225-2.382-4.106-2.382-1.67 0-3.233.847-3.233 2.673 0 4.394 9.486 2.488 9.486 8.55 0 3.52-2.517 5.664-5.909 5.664-2.915 0-5.246-1.27-6.704-3.785l2.014-1.27c.98 1.852 2.544 2.884 4.69 2.884 1.855 0 3.524-1.005 3.524-3.07 0-4.526-9.486-2.382-9.486-8.814 0-3.097 2.544-4.976 5.512-4.976 2.517 0 4.61 1.032 5.988 3.123l-1.775 1.403zm6.413-9.37c0-.582-.398-.953-1.007-.953h-1.404v3.123h.45v-1.217h.822l.662 1.217h.53l-.716-1.27c.398-.106.663-.45.663-.9zm-1.96-.503h.953c.371 0 .556.159.556.503 0 .37-.291.503-.53.503h-.98V46.64z"/><path d="M215.662 45a2.77 2.77 0 0 0-2.756 2.753 2.752 2.752 0 0 0 2.756 2.752 2.77 2.77 0 0 0 2.755-2.752A2.77 2.77 0 0 0 215.662 45m0 5.056a2.283 2.283 0 0 1-2.28-2.303c0-1.27 1.034-2.303 2.28-2.303a2.306 2.306 0 0 1 2.305 2.303c-.027 1.27-1.034 2.303-2.305 2.303m-182.406-.662h-6.57v21.042h-5.088V49.394H15v-4.315h18.256z"/></g></g></svg>