<svg width="233" height="121" xmlns="http://www.w3.org/2000/svg"><title>Welcu</title><g fill="none" fill-rule="evenodd"><path fill="#FFF" d="M0 0h233v121H0z"/><path d="M79 75.1h-6.6l-6.8-20.3-6.8 20.3h-6.6l-9.9-32.2h8.6l5.2 20 6.6-20h5.9l6.6 20 5.2-20h8.5zm17.8-13.6c0 4.2 2.5 7.2 7.1 7.2 3.5 0 5.3-1 7.3-3l4.9 4.8c-3.3 3.3-6.4 5.1-12.3 5.1-7.6 0-14.9-3.5-14.9-16.6 0-10.5 5.7-16.5 14.1-16.5 9 0 14 6.5 14 15.4v3.6H96.8zm11.6-9c-.9-1.9-2.7-3.3-5.4-3.3s-4.5 1.4-5.4 3.3c-.5 1.2-.7 2-.7 3.5h12.3c-.2-1.4-.3-2.3-.8-3.5zm21.9 22.6c-6.6 0-9.4-4.6-9.4-9.2V31h8.1v34.4c0 1.9.8 2.9 2.9 2.9h3.1v6.8h-4.7zm20.8.4c-6.4 0-14.4-3.5-14.4-16.6 0-13.1 8-16.5 14.4-16.5 4.5 0 7.8 1.4 10.7 4.3l-5.5 5.5c-1.7-1.8-3.1-2.5-5.2-2.5-1.9 0-3.4.7-4.6 2.1-1.2 1.5-1.8 3.7-1.8 7.1 0 3.4.6 5.6 1.8 7.2 1.2 1.4 2.7 2.1 4.6 2.1 2.1 0 3.5-.7 5.2-2.5l5.5 5.4c-2.9 3-6.2 4.4-10.7 4.4zm32.7-.4v-3c-2.1 2.2-5.1 3.3-8.1 3.3-3.2 0-5.8-1.1-7.6-2.9-2.6-2.6-3.3-5.6-3.3-9.2V42.9h8.1v19.5c0 4.4 2.8 5.9 5.3 5.9s5.4-1.5 5.4-5.9V42.9h8.1v32.3h-7.9v-.1z" fill-rule="nonzero" fill="#5252CA"/></g></svg>