<?xml version="1.0" encoding="UTF-8"?>
<svg width="230px" height="231px" viewBox="0 0 230 231" version="1.1" xmlns="http://www.w3.org/2000/svg" xmlns:xlink="http://www.w3.org/1999/xlink">
    <!-- Generator: Sketch 48.2 (47327) - http://www.bohemiancoding.com/sketch -->
    <title>Group Copy 4</title>
    <desc>Created with Sketch.</desc>
    <defs></defs>
    <g id="Home-(NEW)-Copy" stroke="none" stroke-width="1" fill="none" fill-rule="evenodd" transform="translate(-1024.000000, -2623.000000)">
        <g id="Group-18" transform="translate(0.000000, 2623.000000)" fill-rule="nonzero">
            <g id="Group-11" transform="translate(175.000000, 0.000000)">
                <g id="Group-Copy-4" transform="translate(849.000000, 0.000000)">
                    <g id="Group-12">
                        <path d="M33.6348318,197.205913 C-11.2116106,152.153212 -11.2116106,78.8574305 33.6348318,33.7804032 C78.505496,-11.2601344 151.485421,-11.2601344 196.356085,33.7804032 C241.214638,78.8452673 241.214638,152.141049 196.356085,197.205913 C151.497532,242.270777 78.505496,242.258614 33.6348318,197.205913 Z" id="Shape" fill="#4A4A4A"></path>
                        <path d="M217,115.5 C217,171.471611 171.247333,217 115,217 C58.7526667,217 13,171.471611 13,115.5 C13,59.5283889 58.7526667,14 115,14 C171.247333,14 217,59.5283889 217,115.5 Z" id="Shape" fill="#7E57C2"></path>
                        <path d="M78.2093886,168.964 C74.4363363,168.964 70.6225809,167.317375 67.7449964,164.448425 L67.4465072,164.130201 C64.6515623,161.34389 63.0012373,157.530134 63.0000039,153.754615 C62.997537,150.578542 64.1668256,147.661487 66.2895529,145.53876 L104.663925,107.168089 C104.956247,106.870833 105.27077,106.589612 105.607496,106.325658 C100.353098,94.5846695 102.021925,81.7730663 110.098403,73.6854874 L118.279722,65.5054015 C123.124622,60.6654351 129.83693,58 137.179519,58 C141.518714,58 145.866544,58.8967012 150.104598,60.6629683 C151.058037,61.0613651 151.752456,61.9087292 151.952271,62.922606 C152.152086,63.9364827 151.833862,64.9848954 151.10244,65.715084 L138.806409,78.0098814 C135.546462,81.2661279 136.231014,87.2519477 140.328458,91.3555584 L140.571443,91.5899094 C142.884118,93.9025845 145.82584,95.2050831 148.677523,95.2050831 C150.151468,95.2050831 152.261861,94.8498562 153.952889,93.1600616 L166.253854,80.8603305 C166.984042,80.1289085 168.031221,79.8082176 169.046332,80.011733 C170.060208,80.2127815 170.908806,80.9059673 171.305969,81.8606396 C176.198973,93.6053287 174.336499,105.797752 166.447502,113.679348 L158.28345,121.856967 C153.426216,126.706801 146.710207,129.375937 139.372552,129.375937 C139.370085,129.375937 139.370085,129.375937 139.370085,129.375937 C134.766937,129.375937 130.073748,128.338625 125.635879,126.356508 C125.375626,126.690767 125.098105,127.00529 124.804549,127.302546 L86.4215436,165.674451 C84.3012831,167.795945 81.3854623,168.964 78.2093886,168.964 Z M137.178286,64.1992026 C131.490955,64.1992026 126.332765,66.220789 122.65962,69.8902334 L114.482001,78.0678525 C107.738857,84.8196303 106.903827,96.0783492 112.403677,106.08144 C112.837843,106.870833 112.906915,107.807004 112.594858,108.650668 C112.282801,109.494331 111.619218,110.160382 110.776787,110.476139 C110.056466,110.74626 109.49649,111.091619 109.064791,111.529486 L70.6706846,149.922359 C69.452059,151.140984 69.1967397,152.677834 69.1967397,153.750915 C69.1979731,155.894611 70.1859479,158.111078 71.9078116,159.830475 L72.2050674,160.147466 C73.8455249,161.779289 76.065693,162.766031 78.2093886,162.766031 C79.2837032,162.766031 80.8205529,162.510711 82.0379451,161.293319 L120.414784,122.922648 C120.862517,122.473681 121.214044,121.902604 121.489098,121.179816 C121.807322,120.339852 122.474606,119.679969 123.31457,119.370379 C124.158234,119.059556 125.091938,119.129861 125.880097,119.562794 C130.179823,121.927273 134.844643,123.177967 139.366385,123.179201 L139.368852,123.179201 C145.053715,123.179201 150.211906,121.152681 153.894918,117.475836 L162.058969,109.298217 C167.154255,104.209098 168.926689,96.6444921 167.070382,88.8085322 L158.332787,97.5436601 C155.843732,100.033949 152.413573,101.404286 148.677523,101.405519 C144.189083,101.405519 139.653773,99.4406704 136.229781,96.0166779 L135.981862,95.7810934 C129.427432,89.215563 128.747814,79.2975789 134.420344,73.6287498 L143.143137,64.908423 C141.144986,64.4384874 139.133267,64.1992026 137.178286,64.1992026 Z" id="Shape" fill="#FFFFFF"></path>
                    </g>
                </g>
            </g>
        </g>
    </g>
</svg>