<?xml version="1.0" encoding="UTF-8"?>
<svg width="230px" height="231px" viewBox="0 0 230 231" version="1.1" xmlns="http://www.w3.org/2000/svg" xmlns:xlink="http://www.w3.org/1999/xlink">
    <!-- Generator: Sketch 48.2 (47327) - http://www.bohemiancoding.com/sketch -->
    <title>Group Copy 3</title>
    <desc>Created with Sketch.</desc>
    <defs></defs>
    <g id="Home-(NEW)-Copy" stroke="none" stroke-width="1" fill="none" fill-rule="evenodd" transform="translate(-175.000000, -2623.000000)">
        <g id="Group-18" transform="translate(0.000000, 2623.000000)" fill-rule="nonzero">
            <g id="Group-11" transform="translate(175.000000, 0.000000)">
                <g id="Group-Copy-3">
                    <g id="Group-12">
                        <path d="M33.6348318,197.205913 C-11.2116106,152.153212 -11.2116106,78.8574305 33.6348318,33.7804032 C78.505496,-11.2601344 151.485421,-11.2601344 196.356085,33.7804032 C241.214638,78.8452673 241.214638,152.141049 196.356085,197.205913 C151.497532,242.270777 78.505496,242.258614 33.6348318,197.205913 Z" id="Shape" fill="#4A4A4A"></path>
                        <path d="M217,115.5 C217,171.471611 171.247333,217 115,217 C58.7526667,217 13,171.471611 13,115.5 C13,59.5283889 58.7526667,14 115,14 C171.247333,14 217,59.5283889 217,115.5 Z" id="Shape" fill="#42A5F5"></path>
                        <g id="if_General_Office_34_2530821" transform="translate(68.000000, 52.000000)" fill="#FFFFFF">
                            <g id="Group-15">
                                <g id="Group" transform="translate(8.000000, 0.000000)">
                                    <path d="M39.0619091,78.7810571 C17.5423091,78.7810571 0.0330363636,61.2479476 0.0330363636,39.6978762 C0.0330363636,18.1506638 17.5408727,0.61898381 39.0619091,0.61898381 C60.5915636,0.61898381 78.1080182,18.1506638 78.1080182,39.6978762 C78.1080182,61.2493771 60.593,78.7810571 39.0619091,78.7810571 Z M39.0619091,7.80377048 C21.5196,7.80377048 7.2522,22.1104448 7.2522,39.6993057 C7.2522,57.2881667 21.5210364,71.5977 39.0619091,71.5977 C56.6128364,71.5977 70.8888545,57.2867371 70.8888545,39.6993057 C70.8888545,22.1118743 56.6128364,7.80377048 39.0619091,7.80377048 Z" id="Shape"></path>
                                </g>
                                <path d="M92.4865354,118 C90.5459509,118 88.9730708,116.387955 88.9730708,114.399049 L88.9730708,86.3738225 C88.9730708,77.3793267 84.1425813,71.0228533 74.2075717,66.9447372 C72.4054006,66.2053458 71.5315784,64.1104035 72.253006,62.2633579 C72.9730356,60.4191782 75.0170806,59.5178658 76.8192517,60.260123 C92.6710867,66.767054 96,78.0513704 96,86.3738225 L96,114.400482 C96,116.387955 94.4271199,118 92.4865354,118 Z" id="Shape"></path>
                                <path d="M3.59593266,118 C1.60979874,118 0,116.387741 0,114.398571 L0,86.373925 C0,74.4546724 6.58228819,65.4288875 19.0299675,60.2739577 C20.8658536,59.5144045 22.967893,60.3886072 23.7262871,62.2244329 C24.4846811,64.0616918 23.6132434,66.168377 21.7773574,66.9279302 C11.9625933,70.9922564 7.19186531,77.3538726 7.19186531,86.373925 L7.19186531,114.400005 C7.19186531,116.387741 5.58206657,118 3.59593266,118 Z" id="Shape"></path>
                                <g id="Group" transform="translate(32.000000, 74.000000)">
                                    <path d="M16.3565217,55.8779487 C15.5587826,55.8779487 14.7624783,55.6137436 14.103913,55.0867692 L1.66721739,45.1316923 C0.611217391,44.2845128 0.116217391,42.9175385 0.387391304,41.5893333 L8.2743913,3.13169231 C8.61873913,1.45312821 10.0951304,0.248410256 11.8053913,0.248410256 L20.777087,0.248410256 C22.4844783,0.248410256 23.9594348,1.44738462 24.3066522,3.12164103 L32.3084348,41.5792821 C32.583913,42.9089231 32.0917826,44.281641 31.0314783,45.1302564 L18.6091304,55.0853333 C17.952,55.6137436 17.1528261,55.8779487 16.3565217,55.8779487 Z M7.89417391,40.8771282 L16.3536522,47.6502564 L24.8002174,40.8843077 L17.8458261,7.46666667 L14.7466957,7.46666667 L7.89417391,40.8771282 Z" id="Shape"></path>
                                </g>
                            </g>
                        </g>
                    </g>
                </g>
            </g>
        </g>
    </g>
</svg>