<?xml version="1.0" encoding="UTF-8"?>
<svg width="335px" height="335px" viewBox="0 0 335 335" version="1.1" xmlns="http://www.w3.org/2000/svg" xmlns:xlink="http://www.w3.org/1999/xlink">
    <!-- Generator: Sketch 48.2 (47327) - http://www.bohemiancoding.com/sketch -->
    <title>Group 2</title>
    <desc>Created with Sketch.</desc>
    <defs></defs>
    <g id="Page-1" stroke="none" stroke-width="1" fill="none" fill-rule="evenodd">
        <g id="Group-2" fill-rule="nonzero">
            <g id="programa-04">
                <circle id="Oval" fill="#D6EDFF" cx="167.063802" cy="167.936198" r="126.933594"></circle>
                <g id="Group">
                    <path d="M167.623402,334.860367 C122.937037,334.860367 80.9243748,317.449229 49.3260664,285.826293 C17.7314977,254.218325 0.328121746,212.181634 0.328121746,167.465732 C0.328121746,122.74983 17.7314977,80.7131394 49.3260664,49.0976867 C80.9206354,17.482234 122.929558,0.0748383304 167.615923,0.0748383304 C212.302287,0.0748383304 254.31869,17.482234 285.913258,49.1014286 C317.507827,80.7206232 334.911202,122.753571 334.911202,167.469474 C334.911202,212.181634 317.511567,254.218325 285.913258,285.833776 C254.31869,317.449229 212.306027,334.860367 167.623402,334.860367 Z M167.615923,18.8779689 C127.951632,18.8779689 90.6581495,34.332084 62.6123138,62.3927161 C34.5664781,90.4570899 19.1188316,127.775223 19.1188316,167.465732 C19.1188316,207.15624 34.5664781,244.470632 62.6123138,272.535007 C90.6656284,300.603122 127.959111,316.060979 167.623402,316.060979 C207.283953,316.060979 244.577436,300.603122 272.627011,272.535007 C300.672846,244.470632 316.116754,207.152498 316.116754,167.465732 C316.116754,127.775223 300.672846,90.4570899 272.627011,62.3927161 C244.577436,34.332084 207.287693,18.8779689 167.615923,18.8779689 Z" id="Shape" fill="#454B53"></path>
                    <g id="Shape" transform="translate(126.268727, 84.094649)">
                        <polygon fill="#42C6B9" points="73.1773505 115.229759 9.51330329 51.534856 114.501955 10.1679688"></polygon>
                        <path d="M73.1773505,124.629453 C70.7130563,124.629453 68.3123327,123.656555 66.5360965,121.875403 L2.8720494,58.1804997 C0.628382532,55.9390918 -0.32891533,52.7210435 0.31426917,49.6189947 C0.95745367,46.5169459 3.12259218,43.9462493 6.06927466,42.7862551 L111.054186,1.41936802 C114.546828,0.0460846561 118.499421,0.876790124 121.139469,3.5223251 C123.783256,6.16786009 124.609674,10.1305497 123.241037,13.610532 L81.9201722,118.672322 C80.7572049,121.620952 78.1919458,123.787522 75.0919461,124.434874 C74.4562406,124.565841 73.8130561,124.629453 73.1773505,124.629453 Z M26.2959315,55.0298061 L69.684709,98.4435215 L97.850207,26.838207 L26.2959315,55.0298061 Z" fill="#454B53"></path>
                    </g>
                    <g id="Shape" transform="translate(84.234889, 126.128128)">
                        <polygon fill="#EC407A" points="115.222406 73.1962814 51.5583592 9.49389458 10.2374946 114.540717"></polygon>
                        <path d="M10.2374946,123.944153 C7.79189768,123.944153 5.3874347,122.986223 3.59250121,121.190103 C0.948713761,118.544568 0.122296474,114.578136 1.4946727,111.101896 L42.8192767,6.0550733 C43.9785047,3.10644309 46.5437638,0.939873412 49.6437635,0.292521862 C52.7475027,-0.347345863 55.9634252,0.606842851 58.1996132,2.85199276 L121.86366,66.5506377 C124.107327,68.7920456 125.064625,72.0100939 124.42144,75.1121427 C123.778256,78.2141915 121.609378,80.7848881 118.662696,81.9448823 L13.6777838,123.29306 C12.5596898,123.727122 11.3892436,123.944153 10.2374946,123.944153 Z M55.0510007,26.283874 L26.8892422,97.8817047 L98.4435176,69.7013313 L55.0510007,26.283874 Z" fill="#454B53"></path>
                    </g>
                </g>
            </g>
        </g>
    </g>
</svg>