<?xml version="1.0" encoding="UTF-8"?>
<svg width="885px" height="235px" viewBox="0 0 885 235" version="1.1" xmlns="http://www.w3.org/2000/svg" xmlns:xlink="http://www.w3.org/1999/xlink">
    <!-- Generator: Sketch 48.2 (47327) - http://www.bohemiancoding.com/sketch -->
    <title>Group 2</title>
    <desc>Created with Sketch.</desc>
    <defs></defs>
    <g id="Page-1" stroke="none" stroke-width="1" fill="none" fill-rule="evenodd">
        <g id="Group-2">
            <g id="programa-01">
                <g id="if_General_Office_20_2530826" fill-rule="nonzero">
                    <g id="Group_1_" transform="translate(0.000000, 36.000000)">
                        <path d="M153.5,116.7 C153.5,125.4 146.4,132.5 137.6,132.5 L5,132.5 L5,5.2 L153.5,5.2 L153.5,116.7 Z" id="Shape_9_" fill="#E0F1F8"></path>
                        <path d="M137.6,137.3 L5,137.3 C2.3,137.3 0.2,135.1 0.2,132.5 L0.2,5.2 C0.2,2.5 2.4,0.4 5,0.4 L153.5,0.4 C156.2,0.4 158.3,2.6 158.3,5.2 L158.3,116.7 C158.3,128.1 149,137.3 137.6,137.3 Z M9.9,127.7 L137.6,127.7 C143.7,127.7 148.7,122.8 148.7,116.7 L148.7,10 L9.9,10 L9.9,127.7 Z" id="Shape_10_" fill="#454B53"></path>
                    </g>
                    <path d="M65.1,84 L33.9,84 C31.2,84 29,81.8 29,79 C29,76.2 31.2,74 33.9,74 L65.1,74 C67.8,74 70,76.2 70,79 C70,81.8 67.8,84 65.1,84 Z" id="Shape_11_" fill="#454B53"></path>
                    <path d="M50,100 C47.2,100 45,97.8 45,95.1 L45,63.9 C45,61.2 47.2,59 50,59 C52.8,59 55,61.2 55,63.9 L55,95.1 C55,97.8 52.8,100 50,100 Z" id="Shape_12_" fill="#454B53"></path>
                    <path d="M62.2,151 C61,151 59.7,150.5 58.8,149.6 L32.4,123.2 C30.5,121.3 30.5,118.3 32.4,116.4 C34.3,114.5 37.3,114.5 39.2,116.4 L65.6,142.8 C67.5,144.7 67.5,147.7 65.6,149.6 C64.6,150.5 63.4,151 62.2,151 Z" id="Shape_13_" fill="#454B53"></path>
                    <path d="M35.8,151 C34.6,151 33.3,150.5 32.4,149.6 C30.5,147.7 30.5,144.7 32.4,142.8 L58.8,116.4 C60.7,114.5 63.7,114.5 65.6,116.4 C67.5,118.3 67.5,121.3 65.6,123.2 L39.2,149.6 C38.3,150.5 37.1,151 35.8,151 Z" id="Shape_14_" fill="#454B53"></path>
                    <path d="M126.1,84 L94.9,84 C92.2,84 90,81.8 90,79 C90,76.2 92.2,74 94.9,74 L126.1,74 C128.8,74 131,76.2 131,79 C131,81.8 128.8,84 126.1,84 Z" id="Shape_15_" fill="#454B53"></path>
                    <path d="M126.1,138 L94.9,138 C92.2,138 90,135.8 90,133 C90,130.2 92.2,128 94.9,128 L126.1,128 C128.8,128 131,130.2 131,133 C131,135.8 128.8,138 126.1,138 Z" id="Shape_16_" fill="#454B53"></path>
                    <path d="M112.2,124 L108.8,124 C106.1,124 104,121.8 104,119 C104,116.2 106.2,114 108.8,114 L112.2,114 C114.9,114 117,116.2 117,119 C117,121.8 114.8,124 112.2,124 Z" id="Shape_17_" fill="#454B53"></path>
                    <path d="M112.2,152 L108.8,152 C106.1,152 104,149.8 104,147 C104,144.2 106.2,142 108.8,142 L112.2,142 C114.9,142 117,144.2 117,147 C117,149.8 114.8,152 112.2,152 Z" id="Shape_18_" fill="#454B53"></path>
                    <g id="Group_2_">
                        <rect id="Rectangle-path" fill="#42C6B9" x="5" y="5.1" width="148.5" height="35.5"></rect>
                        <path d="M153.5,45.5 L5,45.5 C2.3,45.5 0.2,43.3 0.2,40.7 L0.2,5.1 C0.2,2.4 2.4,0.3 5,0.3 L153.5,0.3 C156.2,0.3 158.3,2.5 158.3,5.1 L158.3,40.6 C158.3,43.3 156.2,45.5 153.5,45.5 Z M9.9,35.8 L148.7,35.8 L148.7,9.9 L9.9,9.9 L9.9,35.8 Z" id="Shape_19_" fill="#454B53"></path>
                    </g>
                </g>
                <g id="if_General_Office_57_2530795" transform="translate(96.000000, 119.000000)" fill-rule="nonzero">
                    <g id="Group_3_">
                        <path d="M101.3,58.4 C101.3,56.4 101.1,54.4 100.8,52.4 L115.3,44.1 L100.3,18.3 L85.3,26.6 C82.2,24.1 78.6,22.1 74.3,20.6 L74.3,7.4 L42.5,7.4 L42.5,20.6 C40.3,22.1 37,24 34,26.4 L20.4,18 L5.5,43.5 L20,52 C19.7,54.1 19.5,56.2 19.5,58.4 C19.5,60.4 19.7,62.4 20,64.4 L5.6,72.6 L20.6,98.4 L33.5,90.1 C36.6,92.6 40.3,94.6 42.4,96.1 L42.4,112.8 L74.2,112.8 L74.2,96.1 C78.4,94.7 81.8,92.8 84.8,90.4 L99.4,98.8 L115,73.2 L100.7,64.8 C101,62.7 101.3,60.6 101.3,58.4 Z M60.5,76.4 C50.4,76.4 42.3,68.3 42.3,58.3 C42.3,48.3 50.5,40.2 60.5,40.2 C70.6,40.2 78.7,48.3 78.7,58.3 C78.7,68.4 70.5,76.4 60.5,76.4 Z" id="Shape_20_" fill="#DBEEFD"></path>
                        <path d="M75.1,115.9 L43.3,115.9 C40.4,115.9 38,113.5 38,110.6 L38,99 C37.8,98.9 37.7,98.8 37.5,98.7 C36.4,98 35.1,97.3 33.8,96.4 L23.4,102.8 C22.2,103.6 20.7,103.8 19.3,103.4 C17.9,103.1 16.7,102.2 16,100.9 L1,75.1 C-0.5,72.6 0.4,69.4 2.9,67.9 L14.3,61.4 C14.2,60.4 14.2,59.3 14.2,58.3 C14.2,57.1 14.2,55.9 14.3,54.7 L2.9,48.1 C0.4,46.6 -0.5,43.4 1,40.9 L16,15.3 C16.7,14.1 17.9,13.2 19.3,12.8 C20.7,12.5 22.2,12.7 23.4,13.4 L34.2,20 C35.5,19.2 36.7,18.5 37.8,17.8 C37.9,17.8 38,17.7 38,17.7 L38,5.3 C38,2.4 40.4,0 43.3,0 L75.1,0 C78,0 80.4,2.4 80.4,5.3 L80.4,17.1 C82.3,18 84.2,19 86,20.3 L97.6,13.7 C100.1,12.3 103.4,13.1 104.8,15.6 L119.8,41.4 C121.3,43.9 120.4,47.1 117.9,48.6 L106.5,55.2 C106.6,56.3 106.6,57.3 106.6,58.3 C106.6,59.5 106.5,60.7 106.4,61.9 L117.7,68.6 C118.9,69.3 119.8,70.5 120.1,71.8 C120.4,73.2 120.2,74.6 119.5,75.8 L104.2,101.4 C102.7,103.9 99.5,104.7 96.9,103.2 L85.5,96.5 C84,97.5 82.3,98.5 80.3,99.4 L80.3,110.5 C80.4,113.6 78.1,115.9 75.1,115.9 Z M48.6,105.4 L69.8,105.4 L69.8,96 C69.8,93.7 71.3,91.7 73.4,91 C76.9,89.8 79.3,88.3 82,86.2 C83.7,84.9 86.1,84.7 88,85.8 L97.9,91.6 L107.8,75.1 L98,69.3 C96.1,68.2 95.1,66.1 95.5,63.9 C95.9,61.6 96,59.9 96,58.3 C96,56.7 95.9,55.1 95.6,53.1 C95.3,51 96.3,48.8 98.2,47.8 L108.1,42.1 L98.4,25.4 L88.4,31.1 C86.5,32.2 84.2,32 82.5,30.6 C79.4,28.1 76.7,26.6 73.5,25.5 C71.4,24.8 70,22.8 70,20.5 L70,10.6 L48.6,10.6 L48.6,20.7 C48.6,22.4 47.7,24.1 46.3,25.1 C45.5,25.7 44.4,26.3 43.2,27 C41.4,28.1 39.3,29.3 37.6,30.6 C35.9,31.9 33.4,32.1 31.6,30.9 L22.4,25.3 L12.8,41.7 L22.7,47.5 C24.6,48.6 25.6,50.7 25.3,52.9 C25,54.7 24.9,56.6 24.9,58.5 C24.9,60.3 25.1,62.2 25.4,63.7 C25.7,65.8 24.7,67.9 22.8,69 L13,74.7 L22.5,91 L31.2,85.6 C33.1,84.4 35.6,84.6 37.3,85.9 C39,87.2 41.1,88.4 42.9,89.5 C44.2,90.2 45.4,91 46.3,91.6 C47.7,92.6 48.6,94.2 48.6,95.9 L48.6,105.4 Z M60.5,81.7 C47.5,81.7 37,71.2 37,58.4 C37,45.5 47.5,35 60.5,35 C73.5,35 84,45.5 84,58.4 C84,71.2 73.5,81.7 60.5,81.7 Z M60.5,45.6 C53.4,45.6 47.6,51.3 47.6,58.4 C47.6,65.5 53.4,71.2 60.5,71.2 C67.6,71.2 73.4,65.5 73.4,58.4 C73.4,51.3 67.6,45.6 60.5,45.6 Z" id="Shape_21_" fill="#454B53"></path>
                    </g>
                </g>
                <path d="M234,37 C349.1,91.6666667 473.7,91.6666667 608,37" id="Line" stroke="#F25565" stroke-width="12" stroke-linecap="round" transform="translate(421.000000, 57.500000) scale(1, -1) translate(-421.000000, -57.500000) "></path>
                <polygon id="Line-decoration-1" stroke="#F25565" stroke-width="12" stroke-linecap="round" transform="translate(610.150000, 80.300000) rotate(65.000000) translate(-610.150000, -80.300000) " points="615.4 75.9 604.9 79.8 608.4 84.7"></polygon>
            </g>
            <g id="if_General_Office_32_2530819" transform="translate(644.000000, 0.000000)" fill-rule="nonzero">
                <g id="Group" transform="translate(71.000000, 9.000000)">
                    <path d="M50.8673314,77.3936644 C72.3568257,77.3936644 89.8441406,60.0678796 89.8441406,38.7715468 C89.8441406,17.4832192 72.3595189,0.165439498 50.8673314,0.165439498 C29.3805304,0.165439498 11.9012952,17.4832192 11.9012952,38.7715468 C11.9012952,60.0678796 29.3805304,77.3936644 50.8673314,77.3936644 Z" id="Shape" fill="#FFEDF3"></path>
                    <path d="M79.2865748,71.0562643 C71.6215666,77.7592323 61.5703331,81.8631992 50.5656867,81.8631992 C39.663384,81.8631992 29.4101562,77.8339469 21.7666941,71.2403824 C21.7020559,71.2830765 21.0502878,71.3444492 20.9775699,71.3764697 C8.38390214,77.2789241 0.239494243,87.4748002 0.239494243,100.090896 L0.239494243,169.532791 L99.4886924,169.532791 L99.4886924,100.082891 C99.4859992,87.5148259 92.1064762,76.9560502 79.2865748,71.0562643 Z" id="Shape" fill="#CDFFFA"></path>
                </g>
                <path d="M48.0096274,104.973536 L48.0096274,139 L8,139 L8,99.0189724 C8,91.6510056 12.365893,86.2096735 19.367246,82.8481394 C23.9428081,86.6906604 30.2116465,89.0042342 36.6052248,89.0042342 C42.6325458,89.0042342 48.3758847,86.9324974 52.8267069,83.4769156 L56.0354392,85.7636186 C49.1667881,92.9891703 48.0096274,104.433434 48.0096274,104.973536 Z M37.0112927,84.5033792 C24.8982619,84.5033792 15.0438177,74.5208859 15.0438177,62.2516896 C15.0438177,49.9824933 24.8982619,40 37.0112927,40 C49.1349396,40 59,49.9824933 59,62.2516896 C59,74.5208859 49.1375937,84.5033792 37.0112927,84.5033792 Z" id="Shape" fill="#E0F1F8"></path>
                <path d="M183.609452,86.5937833 L187.171221,84.3185108 C191.687995,87.7528338 197.415339,89.8193166 203.521996,89.8193166 C210.002585,89.8193166 216.189946,87.5145994 220.830467,83.6867881 C227.929792,87.0381306 232,92.4559559 232,99.7957171 L232,139 L191.451261,139 L191.451261,105.730163 C191.451261,105.192128 190.57696,93.7889978 183.609452,86.5937833 Z M181,63.1665073 C181,50.944279 190.999314,41 203.287952,41 C215.56583,41 225.554383,50.944279 225.554383,63.1665073 C225.554383,75.3887356 215.56583,85.3356915 203.287952,85.3356915 C190.999314,85.3356915 181,75.3887356 181,63.1665073 Z" id="Shape" fill="#E0F1F8"></path>
                <g id="Group" fill="#454B53">
                    <path d="M120.109044,96.1095432 C93.8025556,96.1095432 72.3964,74.7135603 72.3964,48.412157 C72.3964,22.1187821 93.8025556,0.728151561 120.109044,0.728151561 C146.420889,0.728151561 167.8324,22.1187821 167.8324,48.412157 C167.8324,74.7135603 146.420889,96.1095432 120.109044,96.1095432 Z M120.109044,14.1759082 C101.217322,14.1759082 85.8522333,29.5344505 85.8522333,48.412157 C85.8522333,67.3005681 101.217322,82.6617866 120.109044,82.6617866 C139.003444,82.6617866 154.376567,67.3005681 154.376567,48.412157 C154.373889,29.5344505 139.000767,14.1759082 120.109044,14.1759082 Z" id="Shape"></path>
                    <path d="M170.949333,184.265275 C167.232578,184.265275 164.220078,181.254583 164.220078,177.540058 L164.220078,109.902526 C164.220078,98.8874082 157.946044,89.951675 146.554778,84.7491996 C143.175422,83.2050492 141.691933,79.2175552 143.234333,75.8375519 C144.782089,72.4575486 148.766622,70.972274 152.151333,72.5191005 C168.375989,79.9347689 177.675911,93.5591528 177.675911,109.905202 L177.675911,177.540058 C177.678589,181.254583 174.666089,184.265275 170.949333,184.265275 Z" id="Shape"></path>
                    <path d="M69.9355222,184.270627 C66.2187667,184.270627 63.2062667,181.259935 63.2062667,177.545411 L63.2062667,109.905202 C63.2062667,93.829446 72.1527222,80.3790132 87.7534556,73.0034874 C91.1167444,71.411166 95.1227,72.8482695 96.7133,76.2041873 C98.3039,79.560105 96.8686111,83.5690084 93.5106778,85.1586537 C82.4889444,90.3691576 76.6647778,98.9275507 76.6647778,109.905202 L76.6647778,177.542734 C76.6647778,181.259935 73.6522778,184.270627 69.9355222,184.270627 Z" id="Shape"></path>
                    <path d="M37.0872222,93.7116945 C19.9226667,93.7116945 5.9527,79.747437 5.9527,62.5851558 C5.9527,45.4201984 19.9226667,31.458617 37.0872222,31.458617 C54.2678444,31.458617 68.2458444,45.4201984 68.2458444,62.5851558 C68.2431667,79.747437 54.2678444,93.7116945 37.0872222,93.7116945 Z M37.0872222,44.9063736 C27.3401111,44.9063736 19.4085333,52.8358667 19.4085333,62.5824796 C19.4085333,72.3290924 27.3401111,80.2585855 37.0872222,80.2585855 C46.8504,80.2585855 54.7873333,72.3290924 54.7873333,62.5824796 C54.7873333,52.8358667 46.8477222,44.9063736 37.0872222,44.9063736 Z" id="Shape"></path>
                    <path d="M7.20857778,145.19051 C3.49182222,145.19051 0.479322222,142.179818 0.479322222,138.465293 L0.479322222,99.2031963 C0.479322222,88.412877 6.08658889,79.8143412 16.2675,74.9918821 C19.6227556,73.4075891 23.6367444,74.8313118 25.2273444,78.1899058 C26.8206222,81.5458235 25.3906889,85.5547269 22.0300778,87.1443721 C16.5834778,89.7242005 13.9378333,93.6688758 13.9378333,99.2031963 L13.9378333,138.465293 C13.9378333,142.179818 10.9253333,145.19051 7.20857778,145.19051 Z" id="Shape"></path>
                    <path d="M203.387933,93.7116945 C186.215344,93.7116945 172.2427,79.747437 172.2427,62.5851558 C172.2427,45.4201984 186.215344,31.458617 203.387933,31.458617 C220.560522,31.458617 234.530489,45.4201984 234.530489,62.5851558 C234.530489,79.747437 220.560522,93.7116945 203.387933,93.7116945 Z M203.387933,44.9063736 C193.632789,44.9063736 185.701211,52.8358667 185.701211,62.5824796 C185.701211,72.3290924 193.635467,80.2585855 203.387933,80.2585855 C213.1404,80.2585855 221.071978,72.3290924 221.071978,62.5824796 C221.071978,52.8358667 213.1404,44.9063736 203.387933,44.9063736 Z" id="Shape"></path>
                    <path d="M233.662889,145.19051 C229.948811,145.19051 226.936311,142.179818 226.936311,138.465293 L226.936311,99.2031963 C226.936311,93.5591528 224.186233,89.5556017 218.520056,86.9650687 C215.1407,85.4209184 213.657211,81.428072 215.204967,78.0534211 C216.752722,74.6734178 220.747967,73.1961717 224.121967,74.740322 C234.6135,79.5413718 240.392144,88.2282212 240.392144,99.2058724 L240.392144,138.467969 C240.392144,142.179818 237.379644,145.19051 233.662889,145.19051 Z" id="Shape"></path>
                </g>
            </g>
        </g>
    </g>
</svg>