<?xml version="1.0" encoding="UTF-8"?>
<svg width="493px" height="454px" viewBox="0 0 493 454" version="1.1" xmlns="http://www.w3.org/2000/svg" xmlns:xlink="http://www.w3.org/1999/xlink">
    <!-- Generator: Sketch 48.2 (47327) - http://www.bohemiancoding.com/sketch -->
    <title>Group 3</title>
    <desc>Created with Sketch.</desc>
    <defs>
        <polygon id="path-1" points="0.0573885951 0.0977589286 169.506539 0.0977589286 169.506539 169.454937 0.0573885951 169.454937"></polygon>
    </defs>
    <g id="Home-(NEW)-Copy" stroke="none" stroke-width="1" fill="none" fill-rule="evenodd" transform="translate(-454.000000, -468.000000)">
        <g id="Group-3" transform="translate(454.000000, 468.000000)">
            <g id="if_world8_216560" transform="translate(133.000000, 0.000000)" fill="#414A52" fill-rule="nonzero">
                <path d="M179.992785,0 C80.7471241,0 0,80.7503608 0,180 C0,279.249639 80.7615536,360 180.007215,360 C279.252876,360 360,279.249639 360,180 C360,80.7503608 279.238446,0 179.992785,0 Z M231.000842,113.391053 C232.010902,116.839827 234.218606,120.649351 237.667241,124.906205 L239.052467,126.796537 C239.629644,127.590188 240.379975,128.441558 241.101447,129.292929 C239.023608,128.715729 236.397451,128.051948 233.107539,127.330447 L228.605555,113.607504 C229.51461,113.578644 230.308229,113.492063 231.000842,113.391053 Z M214.060684,116.666667 L218.851257,124.329004 L218.461662,124.372294 L216.441541,125.959596 C214.912021,127.200577 203.455048,126.753247 199.400377,125.093795 C199.284941,124.487734 199.097359,123.621934 198.866488,122.640693 L201.10305,124.300144 L204.147661,123.795094 C209.255682,122.943723 212.502305,119.63925 214.060684,116.666667 Z M179.992785,340.37518 C142.591687,340.37518 106.95098,327.518038 78.3229789,303.953824 C79.751493,303.059163 80.8914185,302.207792 81.5984609,301.616162 L85.3645437,298.455988 L82.0169145,288.398268 L86.8796345,273.073593 L87.2836587,270.634921 C87.2836587,264.790765 84.9605195,258.037518 78.7847208,256.825397 C78.0776785,256.536797 76.2595695,253.665224 75.1773618,252.900433 C72.1038919,250.649351 69.6653172,247.344877 66.678424,247.344877 C66.678424,247.344877 66.6639945,247.344877 66.6495651,247.344877 C66.1012465,247.344877 64.5428674,248.225108 63.6049541,247.604618 C62.7680468,247.070707 61.6714097,247.243867 60.4881959,246.652237 C59.7811536,246.320346 58.5979398,246.132756 58.7566636,246.363636 C57.6167381,244.689755 56.0727885,242.251082 54.6875626,238.701299 C53.5764961,235.598846 52.580865,234.054834 47.3574091,228.181818 C43.9232033,224.285714 43.1007255,223.434343 39.9262495,221.948052 L38.5987414,221.341991 C37.2568039,220.678211 36.3766083,220 35.5108421,219.379509 C34.1400457,218.398268 32.4373722,217.157287 29.9699387,216.147186 C27.8920999,215.295815 27.2283458,214.790765 25.2226542,213.088023 C24.5011824,212.438672 23.6498457,211.717172 22.6253557,211.053391 C20.6340936,200.894661 19.624033,190.46176 19.624033,180 L19.6528919,178.008658 C21.2401299,173.881674 22.7119323,166.883117 22.00489,163.333333 C21.9616017,162.438672 22.5243497,159.63925 22.8706561,157.979798 C23.462263,155.064935 23.9672933,152.178932 23.9095755,150.764791 C24.2125937,149.55267 26.3625797,146.262626 27.5025051,144.502165 C29.0175959,142.164502 30.3162451,140 30.907852,138.556999 C31.5138883,137.085137 34.8470881,131.962482 36.8527797,128.888889 L40.2004088,123.636364 C41.0806044,122.265512 43.1151549,119.018759 42.3359654,115.440115 C46.1309071,112.756133 51.0224859,109.278499 51.6573811,108.744589 C52.4365706,107.965368 58.9586757,100.836941 52.2778468,88.4559885 C52.0614053,88.0519481 54.5721271,87.7344877 54.4711211,87.5613276 C55.0338691,86.5223665 58.439216,84.8196248 58.439216,82.5396825 L58.439216,82.005772 C58.439216,77.6046176 60.1563189,74.1558442 64.0234078,74.1558442 L66.4186941,74.1558442 C67.2844603,74.1558442 68.135797,71.6305916 68.929416,71.4862915 L74.8166259,72.9148629 L87.0094994,67.7777778 L88.3081486,65.0793651 C88.3225781,65.0649351 89.6067979,62.5829726 92.3195318,60.6493506 C96.3597739,57.7489177 97.586276,55.9163059 99.4765321,52.7849928 L93.6903283,48.4415584 L100.515452,51.5151515 C101.309071,50.7359307 102.910738,45.4112554 107.066415,40.952381 C111.900277,35.7575758 114.670728,30.8802309 114.353281,30.8802309 L117.369033,30.8802309 L119.504589,32.2366522 C120.153914,31.5151515 122.866648,30.3607504 124.958916,27.5324675 C152.735581,17.3448773 183.369273,16.0894661 212.228145,21.976912 C208.418774,22.0634921 204.840274,23.6940837 199.385947,26.3059163 C198.058439,26.9408369 196.875225,27.7777778 196.168183,28.008658 C194.927252,28.3116883 193.051425,29.1919192 191.074592,30.0865801 C189.876949,30.6060606 187.654816,31.6450216 187.395086,31.7604618 C182.474648,31.7604618 178.232394,35.8152958 174.855906,40.2453102 C170.628081,47.9365079 171.652571,52.5685426 173.008938,54.8484848 L175.77939,59.7402597 L177.785082,59.7402597 C175.158924,59.7402597 172.72035,63.5786436 171.205259,64.9062049 L163.918394,55.9163059 L157.035553,41.3997114 L145.001403,51.7893218 L145.001403,57.1717172 L137.627961,54.6464646 L130.153513,70.2308802 L140.802437,84.9206349 L145.030262,81.1976912 L145.030262,82.2077922 L151.783238,80.4906205 C151.624514,82.1933622 151.278208,83.8672439 151.840956,85.4256854 L132.072628,90.01443 L133.775302,97.3737374 C134.07832,98.5569986 134.150467,100.880231 134.251473,102.279942 C131.538739,113.044733 133.991743,116.320346 134.958515,117.575758 L136.733336,119.53824 C134.237044,122.063492 132.592088,124.877345 131.76961,126.262626 C130.644114,127.575758 128.595134,129.89899 128.162251,133.333333 C127.512926,134.155844 126.069983,135.468975 125.045493,136.161616 L123.732414,136.969697 C118.999559,139.87013 114.569722,142.770563 112.33316,146.493506 C109.548278,151.183261 107.787887,155.295815 107.124133,158.730159 C106.359373,162.554113 106.359373,165.541126 106.359373,170.05772 C106.359373,171.443001 106.287226,172.626263 106.215079,173.722944 C106.070784,176.118326 105.912061,178.600289 106.460379,181.832612 C107.614734,188.744589 117.123732,201.154401 117.253597,201.313131 C120.226061,205.036075 123.746844,209.206349 127.830374,211.630592 C129.937072,212.900433 132.664235,215.151515 133.789731,216.103896 C136.502465,219.292929 142.808129,222.034632 148.983927,219.68254 C150.71546,219.018759 152.461421,218.701299 154.149665,218.297258 C157.266424,217.604618 160.816065,216.839827 164.307988,214.862915 C165.116037,214.401154 165.837509,213.982684 166.501263,213.679654 C169.199567,218.167388 174.740471,220.38961 180.353521,218.542569 L180.468957,218.499278 C180.656539,219.65368 180.829693,220.721501 181.017275,221.717172 C181.219287,222.698413 181.392441,223.549784 181.378011,225.252525 C181.262576,227.705628 181.046134,232.279942 184.768929,236.031746 C185.50483,236.767677 186.601467,237.647908 187.784681,238.629149 C188.289711,239.018759 189.040042,239.61039 189.617219,240.12987 C189.86252,243.217893 190.511844,248.383838 192.127941,251.601732 C192.907131,253.116883 193.109143,254.285714 193.383302,253.766234 C192.012506,256.479076 189.314201,263.852814 189.040042,264.776335 C187.366227,272.308802 188.332999,275.180375 188.621588,276.002886 C189.790372,279.61039 191.983647,282.987013 195.331276,286.320346 C195.7353,286.724387 195.922883,287.316017 196.312477,288.773449 C196.774219,290.44733 197.394685,292.727273 198.981923,294.848485 C199.616818,295.743146 201.074191,299.437229 201.795663,301.673882 L202.704718,306.695527 L202.690288,320.620491 L210.943926,319.437229 C210.943926,319.437229 224.478737,317.460317 227.119323,316.796537 C230.192793,316.002886 240.596417,311.197691 244.333641,307.474747 C246.238326,305.569986 247.147381,303.795094 247.753417,302.611833 C248.244018,301.702742 248.301736,301.587302 248.777907,301.168831 C251.865806,298.715729 257.478857,294.401154 257.478857,294.401154 L260.523468,292.063492 L259.859714,281.544012 L265.039881,274.559885 L269.455289,270.05772 C268.416369,272.539683 267.103291,275.772006 266.627119,277.662338 C265.761353,281.096681 266.338531,285.238095 269.080123,288.715729 L272.283458,290.707071 L275.789811,290.707071 L278.37268,291.673882 C281.056555,290.793651 283.177682,289.466089 285.269951,287.474747 C285.904846,286.868687 286.510882,286.594517 286.900477,286.305916 C290.839713,283.708514 294.649084,277.070707 295.558139,273.520924 L298.054431,264.285714 C298.775903,261.414141 299.511804,255.873016 299.511804,253.246753 C299.511804,250.634921 298.819191,247.748918 298.674897,247.186147 L294.158483,228.961039 L281.532727,252.683983 C279.685759,253.578644 278.358251,254.415584 277.160608,255.281385 C277.175037,254.184704 277.074031,253.290043 276.944166,252.828283 C276.641148,251.616162 276.006253,246.031746 275.443505,240.909091 C276.33813,239.033189 277.506914,236.854257 278.170668,235.916306 C279.353882,234.343434 280.032065,232.770563 280.565955,231.529582 C281.215279,230.02886 281.532727,229.321789 282.586076,228.427128 C286.467594,225.209235 289.064892,221.630592 290.984007,219.018759 L292.484669,217.012987 C294.548078,214.300144 297.765842,209.97114 298.833621,208.297258 C300.608441,205.656566 301.834943,200.923521 302.397691,198.369408 L304.691972,187.950938 L296.048739,189.393939 C297.087659,188.874459 298.025572,188.383838 298.660467,187.950938 C299.165498,187.619048 300.045693,187.113997 301.041324,186.551227 C304.98056,184.343434 307.924165,182.640693 309.756704,180.808081 L313.623793,177.994228 C317.01471,175.743146 321.242535,172.929293 321.776424,168.066378 C322.526755,168.658009 323.320374,169.220779 324.243857,169.65368 C324.864323,170.04329 326.350555,171.673882 327.548198,173.174603 C328.442823,175.281385 330.693815,180.591631 331.155557,182.453102 C331.473005,183.708514 332.410918,186.046176 333.435408,188.484848 C334.229027,190.33189 335.094793,192.279942 335.282376,192.453102 C335.282376,194.083694 336.018277,198.961039 338.731011,202.063492 C328.053229,280.05772 260.927492,340.37518 179.992785,340.37518 Z M182.301495,110.25974 C182.243777,110.25974 182.113912,110.2886 182.070624,110.2886 C181.392441,110.15873 179.256884,109.466089 177.56864,108.802309 L175.952543,108.167388 L174.23544,108.326118 C173.629404,108.398268 172.734779,108.513709 171.753577,108.629149 C171.811295,108.542569 171.955589,108.326118 171.998878,108.282828 C172.503908,107.518038 172.980079,106.796537 174.928053,106.176046 C178.492124,104.978355 180.411239,103.318903 181.074993,102.453102 C182.099483,102.135642 184.538058,101.645022 186.500461,101.327561 L189.530643,103.333333 C190.425268,104.401154 191.695058,105.584416 193.527596,106.738817 L181.998477,110.02886 L182.301495,110.25974 Z" id="Shape"></path>
            </g>
            <g id="Page-1" transform="translate(0.000000, 202.000000)">
                <path d="M221.454591,29.4026181 C191.378779,-0.467539355 142.615115,-0.467539355 112.545409,29.4026181 C82.4848635,59.2849092 82.4848635,107.710541 112.545409,137.592832 C142.615115,167.469056 191.378779,167.469056 221.454591,137.592832 C251.515136,107.719641 251.515136,59.2849092 221.454591,29.4026181" id="Fill-1" fill="#DAF1F9"></path>
                <g id="Group-5" transform="translate(82.000000, 0.000000)">
                    <mask id="mask-2" fill="white">
                        <use xlink:href="#path-1"></use>
                    </mask>
                    <g id="Clip-4"></g>
                    <path d="M84.7820022,15.4389018 C66.2373052,15.4389018 48.8021722,22.6483839 35.6891426,35.7420982 C8.64390123,62.7784196 8.64390123,106.76817 35.6921993,133.801437 C48.8021722,146.895152 66.2342485,154.107687 84.7820022,154.107687 C103.320586,154.107687 120.761832,146.895152 133.871805,133.801437 C160.920103,106.76817 160.920103,62.7784196 133.868749,35.7390446 C120.761832,22.6483839 103.323643,15.4389018 84.7820022,15.4389018 M84.7820022,169.454937 C62.1322239,169.454937 40.8426549,160.648437 24.8349776,144.65383 C-8.20129828,111.635562 -8.20129828,57.9110268 24.8319209,24.8958125 C40.8426549,8.90425893 62.1352805,0.0977589286 84.7820022,0.0977589286 C107.425667,0.0977589286 128.718293,8.90425893 144.72597,24.8927589 C177.768359,57.9140804 177.768359,111.638616 144.729027,144.65383 C128.718293,160.648437 107.428724,169.454937 84.7820022,169.454937" id="Fill-3" fill="#414A52" mask="url(#mask-2)"></path>
                </g>
                <path d="M2.06963688,249.400136 C-2.5870461,244.25639 2.06963688,238.657256 2.06963688,238.657256 L107.834971,133.24867 C110.846313,130.247388 115.733221,130.2535 118.741493,133.24867 C121.752836,136.249953 121.752836,141.109463 118.741493,144.107689 L12.9761594,249.39708 C11.4689535,250.900777 6.60967255,254.412461 2.06963688,249.400136" id="Fill-6" fill="#414A52"></path>
            </g>
        </g>
    </g>
</svg>