<?xml version="1.0" encoding="UTF-8"?>
<svg width="230px" height="231px" viewBox="0 0 230 231" version="1.1" xmlns="http://www.w3.org/2000/svg" xmlns:xlink="http://www.w3.org/1999/xlink">
    <!-- Generator: Sketch 48.2 (47327) - http://www.bohemiancoding.com/sketch -->
    <title>Group Copy 2</title>
    <desc>Created with Sketch.</desc>
    <defs></defs>
    <g id="Home-(NEW)-Copy" stroke="none" stroke-width="1" fill="none" fill-rule="evenodd" transform="translate(-458.000000, -2623.000000)">
        <g id="Group-18" transform="translate(0.000000, 2623.000000)" fill-rule="nonzero">
            <g id="Group-11" transform="translate(175.000000, 0.000000)">
                <g id="Group-Copy-2" transform="translate(283.000000, 0.000000)">
                    <g id="Group-12">
                        <path d="M33.6348318,197.205913 C-11.2116106,152.153212 -11.2116106,78.8574305 33.6348318,33.7804032 C78.505496,-11.2601344 151.485421,-11.2601344 196.356085,33.7804032 C241.214638,78.8452673 241.214638,152.141049 196.356085,197.205913 C151.497532,242.270777 78.505496,242.258614 33.6348318,197.205913 Z" id="Shape" fill="#4A4A4A"></path>
                        <path d="M217,115.5 C217,171.471611 171.247333,217 115,217 C58.7526667,217 13,171.471611 13,115.5 C13,59.5283889 58.7526667,14 115,14 C171.247333,14 217,59.5283889 217,115.5 Z" id="Shape" fill="#F25565"></path>
                        <path d="M115.872486,175.838999 C114.86148,175.840423 113.880377,175.507218 112.953384,174.8522 C95.6139211,162.44673 82.3156335,151.113496 71.0920439,139.175083 C64.9847139,132.680438 60.2486495,126.40081 56.6133001,119.978786 C49.826745,107.99623 50.4732192,95.694709 58.5854736,82.37791 C64.2513786,73.0851994 72.3436977,67.4207184 82.6402945,65.5439497 C84.6338273,65.1822659 86.6529912,65 88.647948,65 C99.5340609,65 109.631304,70.4807912 115.885302,79.5456695 C117.094237,77.7956325 118.401425,76.2121979 119.825377,74.7740064 C125.944098,68.5954788 134.561856,65.0512623 143.468675,65.0512623 C151.170832,65.0512623 158.602437,67.6869974 164.392226,72.4714761 C174.243126,80.6079377 179.39356,91.3146327 179.69971,104.295379 C179.837833,110.233259 177.472649,115.479098 175.396527,119.386422 C170.463957,128.670589 163.705881,136.136369 157.745218,142.213796 C147.132504,153.023016 134.492082,163.612947 119.100585,174.591617 L119.00518,174.662814 C118.496829,175.045857 117.438833,175.838999 115.872486,175.838999 Z M88.646524,72.1553587 C87.0773289,72.1553587 85.4867745,72.2991779 83.9175795,72.5839683 C75.7198879,74.0776939 69.252298,78.6257966 64.6970756,86.1001205 C57.9632066,97.1542598 57.3722665,106.798687 62.8402422,116.453081 C66.1908012,122.372449 70.5936607,128.200685 76.3037082,134.275264 C86.9306619,145.575747 99.5240932,156.356488 115.848279,168.121179 C130.499321,157.606717 142.533139,147.492386 152.634654,137.201485 C158.236482,131.490014 164.57022,124.506953 169.075604,116.028743 C170.845576,112.695272 172.644028,108.713902 172.545775,104.461981 C172.289464,93.6513379 168.011912,84.7430943 159.834156,77.9878661 C155.323076,74.2599598 149.510504,72.206621 143.467252,72.206621 C136.455712,72.206621 129.690516,74.9776316 124.907461,79.8091007 C122.634834,82.1016634 120.783696,84.7829649 119.08065,88.2488641 C118.488286,89.4535275 117.272231,90.2253094 115.929444,90.2466687 C115.909509,90.2480927 115.890997,90.2480927 115.871062,90.2480927 C114.549635,90.2480927 113.337851,89.5204532 112.71416,88.3542365 C112.277007,87.539736 112.013576,87.0385049 111.745873,86.5116427 C107.059647,77.5393212 98.4134107,72.1553587 88.646524,72.1553587 Z" id="Shape" fill="#FFFFFF"></path>
                    </g>
                </g>
            </g>
        </g>
    </g>
</svg>