<?xml version="1.0" encoding="UTF-8"?>
<svg width="230px" height="231px" viewBox="0 0 230 231" version="1.1" xmlns="http://www.w3.org/2000/svg" xmlns:xlink="http://www.w3.org/1999/xlink">
    <!-- Generator: Sketch 48.2 (47327) - http://www.bohemiancoding.com/sketch -->
    <title>Group Copy</title>
    <desc>Created with Sketch.</desc>
    <defs></defs>
    <g id="Home-(NEW)-Copy" stroke="none" stroke-width="1" fill="none" fill-rule="evenodd" transform="translate(-741.000000, -2623.000000)">
        <g id="Group-18" transform="translate(0.000000, 2623.000000)" fill-rule="nonzero">
            <g id="Group-11" transform="translate(175.000000, 0.000000)">
                <g id="Group-Copy" transform="translate(566.000000, 0.000000)">
                    <g id="Group-12">
                        <path d="M33.6348318,197.205913 C-11.2116106,152.153212 -11.2116106,78.8574305 33.6348318,33.7804032 C78.505496,-11.2601344 151.485421,-11.2601344 196.356085,33.7804032 C241.214638,78.8452673 241.214638,152.141049 196.356085,197.205913 C151.497532,242.270777 78.505496,242.258614 33.6348318,197.205913 Z" id="Shape" fill="#4A4A4A"></path>
                        <path d="M217,115.5 C217,171.471611 171.247333,217 115,217 C58.7526667,217 13,171.471611 13,115.5 C13,59.5283889 58.7526667,14 115,14 C171.247333,14 217,59.5283889 217,115.5 Z" id="Shape" fill="#42C6B9"></path>
                        <path d="M116.996545,83.8 C124.66505,83.8 127.66206,89.4789 127.66206,94.7 L148.993089,94.7 C148.993089,85.8274 141.804532,77.0529 127.66206,74.0554 L127.66206,62 L106.33103,62 L106.33103,73.9028 C92.188557,76.5188 85,84.9009 85,100.15 C85,114.4617 95.9961459,127.4 116.996545,127.4 C123.150547,127.4 127.66206,132.1742 127.66206,138.3 C127.66206,144.7855 124.099778,149.2 116.996545,149.2 C109.893312,149.2 106.33103,145.1997 106.33103,138.3 L85,138.3 C85,151.8705 92.2952122,157.702 106.33103,159.446 L106.33103,171 L127.66206,171 L127.66206,159.2825 C141.804532,157.1025 149.259727,149.7559 148.993089,132.85 C148.993089,117.8625 138.327574,105.6109 116.996545,105.6109 C110.99186,105.6109 106.33103,102.1992 106.33103,94.7 C106.33103,89.0538 109.328039,83.8 116.996545,83.8 Z" id="Shape" fill="#FFFFFF"></path>
                    </g>
                </g>
            </g>
        </g>
    </g>
</svg>