<?xml version="1.0" encoding="UTF-8"?>
<svg width="379px" height="379px" viewBox="0 0 379 379" version="1.1" xmlns="http://www.w3.org/2000/svg" xmlns:xlink="http://www.w3.org/1999/xlink">
    <!-- Generator: Sketch 47.1 (45422) - http://www.bohemiancoding.com/sketch -->
    <title>Group</title>
    <desc>Created with Sketch.</desc>
    <defs>
        <path d="M73.469303,0 L73.469303,3.06664751 L73.469303,3.10669508 L73.469303,18.5503228 C73.469303,20.8228665 74.0296563,22.5650394 75.152175,23.7857639 C76.2734857,25.0033759 77.8881005,25.6144644 79.9956168,25.6144644 L85.2091374,25.6144644 L85.2091374,21.122082 L82.8646337,21.122082 C81.4996912,21.122082 80.5455,20.796929 79.9956168,20.1499429 C79.4479485,19.5012969 79.1755237,18.3411625 79.1755237,16.6695397 L79.1755237,8.47057885 L85.2091374,8.47057885 L85.2091374,3.06664751 L79.1755237,3.06664751 L79.1755237,0 L73.469303,0 Z M24.549434,5.86873209 C22.4650728,7.99104556 21.4234962,10.8238402 21.4234962,14.361306 C21.4234962,17.8850767 22.4650728,20.7058363 24.549434,22.8223398 C26.6339966,24.9396733 29.4269037,26 32.9263432,26 C36.4265881,26 39.2082197,24.9427858 41.271842,22.8337523 C43.3380818,20.7230589 44.3699936,17.8991868 44.3699936,14.361306 C44.3699936,10.8238402 43.3304306,7.99104556 41.2527139,5.86873209 C39.1770106,3.74413612 36.4012182,2.68235688 32.9263432,2.68235688 C29.4269037,2.68235688 26.6339966,3.74413612 24.549434,5.86873209 Z M28.8586978,19.3682892 C27.897862,18.1676922 27.4180482,16.496277 27.4180482,14.3498935 C27.4180482,12.21762 27.9006809,10.5534673 28.8699733,9.35639779 C29.8386617,8.15704583 31.1766234,7.55902986 32.8862748,7.55902986 C34.6088125,7.55902986 35.9554323,8.15393333 36.9241206,9.34685278 C37.893413,10.5360372 38.3760457,12.206415 38.3760457,14.3498935 C38.3760457,16.496277 37.8897887,18.1676922 36.9146572,19.3682892 C35.939123,20.5657736 34.5983424,21.1637896 32.8862748,21.1637896 C31.1643412,21.1637896 29.8195335,20.5657736 28.8586978,19.3682892 Z M177.091372,3.06664751 L177.091372,25.6144644 L182.837862,25.6144644 L182.837862,8.02839562 L189.529483,8.02839562 L189.529483,25.6144644 L195.357721,25.6144644 L195.357721,8.02839562 L198.563594,8.02839562 C200.061225,8.02839562 201.049042,8.29295856 201.53248,8.82312192 C202.012093,9.35266279 202.254114,10.4453596 202.254114,12.1022498 L202.254114,25.6144644 L208,25.6144644 L208,11.3286885 C208,8.41476125 207.299911,6.30884031 205.896108,5.01154819 C204.49452,3.71508607 202.205186,3.06664751 199.027502,3.06664751 L177.091372,3.06664751 Z M166.25821,3.06664751 L166.25821,20.6508488 L161.6733,20.6508488 C160.176877,20.6508488 159.179194,20.3997733 158.67844,19.8984525 C158.177284,19.3956792 157.930229,18.3915851 157.930229,16.8880376 L157.930229,3.06664751 L152.222397,3.06664751 L152.222397,17.3675709 C152.222397,20.2495431 152.929936,22.3428065 154.339578,23.6525487 C155.751636,24.9587633 158.04238,25.6144644 161.213823,25.6144644 L171.96584,25.6144644 L171.96584,3.06664751 L166.25821,3.06664751 Z M141.55555,3.06664751 L141.55555,20.6508488 L136.969029,20.6508488 C135.474418,20.6508488 134.475326,20.3997733 133.974773,19.8984525 C133.47261,19.3956792 133.224347,18.3915851 133.224347,16.8880376 L133.224347,3.06664751 L127.519938,3.06664751 L127.519938,17.3675709 C127.519938,20.2495431 128.224457,22.3428065 129.635106,23.6525487 C131.043942,24.9587633 133.338512,25.6144644 136.508343,25.6144644 L147.260563,25.6144644 L147.260563,3.06664751 L141.55555,3.06664751 Z M103.073796,3.06664751 L103.073796,25.6144644 L108.781225,25.6144644 L108.781225,8.02839562 L113.378015,8.02839562 C114.891955,8.02839562 115.897088,8.27988603 116.398446,8.78120685 C116.902019,9.28232017 117.153906,10.374602 117.153906,12.0603347 L117.153906,25.6144644 L122.856905,25.6144644 L122.856905,11.3286885 C122.856905,8.37201619 122.165474,6.25696523 120.773349,4.97938564 C119.385252,3.70512606 117.065312,3.06664751 113.819572,3.06664751 L103.073796,3.06664751 Z M91.2361065,25.6144644 L97.2284436,25.6144644 L97.2284436,3.06664751 L91.2361065,3.06664751 L91.2361065,25.6144644 Z M47.8535266,3.06664751 L47.8535266,25.6144644 L53.5579352,25.6144644 L53.5579352,8.02839562 L58.1577451,8.02839562 C59.6694707,8.02839562 60.6780261,8.27988603 61.1797869,8.78120685 C61.6819504,9.28232017 61.9320255,10.374602 61.9320255,12.0603347 L61.9320255,25.6144644 L67.6382462,25.6144644 L67.6382462,11.3286885 C67.6382462,8.37201619 66.9429893,6.25696523 65.5526769,4.97938564 C64.1643779,3.70512606 61.8466536,3.06664751 58.599504,3.06664751 L47.8535266,3.06664751 Z M11.3381438,3.06664751 C9.41606956,3.06664751 7.81514645,3.27871286 6.54040816,3.70201355 C5.26587121,4.12842675 4.15482937,4.81525287 3.20587319,5.76124692 C2.19127734,6.77799858 1.40299738,8.04229815 0.842040049,9.55414562 C0.28168676,11.0666156 0,12.6927957 0,14.4335161 C0,16.0908213 0.284706989,17.6638814 0.852107481,19.1473013 C1.42011202,20.6294762 2.20416366,21.8873433 3.20587319,22.919035 C4.14073496,23.8652365 5.23748105,24.5526851 6.50074247,24.9761933 C7.7627958,25.4005315 9.37459174,25.6144644 11.3381438,25.6144644 L19.0864425,25.6144644 L19.0864425,20.778254 L13.0196063,20.778254 C11.564661,20.778254 10.5538908,20.7230589 9.98749702,20.6105937 C9.42070058,20.500826 8.92357076,20.3115857 8.49469814,20.0472303 C7.6286976,19.4927894 6.98740216,18.7632182 6.57262394,17.8572717 C6.16046326,16.9542302 5.9532755,15.8129783 5.9532755,14.4335161 C5.9532755,12.0416597 6.45845926,10.3615294 7.4730551,9.39291785 C8.48845633,8.42741878 10.3362329,7.94290548 13.0196063,7.94290548 L19.0864425,7.94290548 L19.0864425,3.06664751 L11.3381438,3.06664751 Z" id="path-1"></path>
    </defs>
    <g id="Page-1" stroke="none" stroke-width="1" fill="none" fill-rule="evenodd">
        <g id="Artboard">
            <g id="Group">
                <rect id="Rectangle" fill="#65BB45" x="0" y="0" width="379" height="379"></rect>
                <g id="Group-2" transform="translate(81.000000, 84.000000)">
                    <g id="Group-3" transform="translate(0.000000, 177.000000)">
                        <mask id="mask-2" fill="white">
                            <use xlink:href="#path-1"></use>
                        </mask>
                        <g id="Clip-2"></g>
                        <polygon id="Fill-1" fill="#FFFFFF" mask="url(#mask-2)" points="-0.740213523 27.5294118 209.480427 27.5294118 209.480427 -0.764705882 -0.740213523 -0.764705882"></polygon>
                    </g>
                    <path d="M177.685881,90.5174493 C175.598052,97.2410945 169.230512,102.129604 161.70717,102.129604 C161.70717,102.129604 153.024669,101.949536 146.244263,100.111065 L146.248738,100.095504 C142.741053,99.5986498 139.486234,101.992885 138.98162,105.446409 C136.526799,128.567346 113.529361,147.087659 89.8348612,145.191389 C88.4810176,145.191389 87.4852154,144.12432 87.4852154,142.792707 C87.4852154,141.727862 88.1923469,140.823076 89.1657716,140.502955 L89.1937435,140.502955 C105.265321,135.224299 120.178859,119.519491 121.810184,102.365248 C122.110044,100.255564 120.846829,96.4552428 117.195927,96.0784341 C114.122367,95.7572019 111.832022,99.0817883 111.13496,100.590135 C102.92127,119.84517 90.8205935,126.457662 79.9450901,129.773356 C66.5655354,133.856006 59.4550596,130.802633 49.9333997,146.057271 C49.2587157,146.928711 48.0346621,147.258835 46.9683704,146.779766 C45.7331281,146.224001 45.4556461,144.885718 45.7611001,143.585228 C48.1711653,133.305798 49.912141,126.634395 67.947351,114.7966 C79.8522231,107.031451 81.9031282,100.422294 83.0622868,89.3870232 C83.4270414,85.9323878 81.979212,80.6214973 75.9898529,80.8738146 C63.9216245,81.3873415 58.360796,90.8286777 55.8366051,101.748349 C53.3068198,112.666909 47.6318657,115.481303 39.7538389,119.274955 C39.3790145,119.505041 38.9325818,119.638425 38.459296,119.638425 C37.0987391,119.638425 36,118.558018 36,117.226405 C36,116.557264 36.277482,115.960372 36.7239147,115.519095 C45.2050172,106.590174 45.244178,103.087743 45.8472537,87.805316 C46.2612389,77.2191038 55.1451379,62.2034444 65.0315524,59.524657 C68.5951819,58.5565143 69.4600753,54.1504092 67.8611973,51.0392366 L67.8488896,50.9658757 C64.8525318,46.3785912 62.197432,41.5612199 59.895898,36.5459964 L59.9384154,36.5315465 C58.943732,34.4251971 58.3831736,32.0776456 58.3831736,29.6022682 C58.3831736,24.2613663 60.7820501,19.3761918 64.8033011,16.3761722 C77.1042564,6.16009951 93.0024075,0 110.369647,0 C149.378243,0 181,31.0850493 181,69.4295013 C181,76.8211761 179.824058,83.9460837 177.648958,90.6330484 L177.685881,90.5174493 Z" id="Fill-1" fill="#FFFFFF"></path>
                </g>
            </g>
        </g>
    </g>
</svg>