<?xml version="1.0" encoding="UTF-8"?>
<svg width="379px" height="379px" viewBox="0 0 379 379" version="1.1" xmlns="http://www.w3.org/2000/svg" xmlns:xlink="http://www.w3.org/1999/xlink">
    <!-- Generator: Sketch 47.1 (45422) - http://www.bohemiancoding.com/sketch -->
    <title>Group 3</title>
    <desc>Created with Sketch.</desc>
    <defs></defs>
    <g id="Page-1" stroke="none" stroke-width="1" fill="none" fill-rule="evenodd">
        <g id="Artboard-Copy-2">
            <g id="Group-3">
                <rect id="Rectangle" fill="#00A169" x="0" y="0" width="379" height="379"></rect>
                <g id="Group-2" transform="translate(93.000000, 75.000000)" fill="#FFFFFF">
                    <g id="Group" transform="translate(0.000000, 166.000000)">
                        <path d="M7.31661459,20.658185 C7.31661459,20.658185 7.02168411,24.2916008 14.4794864,27.1261 C14.4794864,27.1261 22.8240015,30.831371 23.561808,35.0462467 C23.561808,35.0462467 26.0720795,45.2931789 16.5459211,48.3451347 C16.5459211,48.3451347 10.2707228,49.3624533 5.10223429,48.1276781 C5.10223429,48.1276781 -0.215160494,46.7463561 0.00675787893,39.1883218 C0.00675787893,39.1883218 0.228676252,36.3547681 0.671552312,35.4102502 C0.671552312,35.4102502 0.893470685,34.6103881 1.8531956,34.6103881 L4.95428871,34.6103881 C4.95428871,34.6103881 5.97837955,34.6378066 5.76702872,35.9189095 C5.76702872,35.9189095 4.95428871,41.6588176 6.57880805,42.604281 C6.57880805,42.604281 8.2033274,44.8573203 15.1442808,43.6215996 C15.1442808,43.6215996 18.4663316,42.8945383 18.6142772,38.7524632 C18.6142772,38.7524632 19.2050989,35.1918481 14.6264713,33.3028123 C14.6264713,33.3028123 7.46456017,29.5833593 6.11287554,28.6823327 C6.11287554,28.6823327 -1.3218703,24.581858 4.06853658,14.4805273 C4.06853658,14.4805273 6.17243804,9.68513699 14.3315408,9.92150283 C14.3315408,9.92150283 22.749068,9.5943725 24.3005753,15.7162479 C24.3005753,15.7162479 24.8913969,19.4962105 24.5205723,21.6027029 C24.5205723,21.6027029 24.3841549,23.4775568 22.9709864,23.4917388 L20.1648238,23.4917388 C20.1648238,23.4917388 18.7545373,23.4482474 19.2050989,21.0940436 C19.2050989,21.0940436 20.6086605,15.5706465 15.8820874,14.77173 C15.8820874,14.77173 10.60312,13.7733207 8.72017625,16.3156717 C8.72017625,16.3156717 7.24360248,17.9683417 7.31661459,20.658185" id="Fill-1"></path>
                        <path d="M31.2515012,12.0518324 C31.2515012,12.0518324 31.3150343,9.8258034 32.9341634,9.91585767 L36.33703,9.91585767 C36.33703,9.91585767 37.2245669,9.95150416 37.0407062,11.2854331 L34.5975731,38.2022799 C34.5975731,38.2022799 33.7090736,42.9967318 38.8138547,43.0333164 L46.6197514,43.0333164 L49.3949889,11.642836 C49.3949889,11.642836 49.3199044,9.91304348 50.8379583,9.91304348 L54.3881059,9.91304348 C54.3881059,9.91304348 55.165904,9.98527451 55.0166977,11.3904964 L52.0575996,45.9178673 C52.0575996,45.9178673 51.9382345,47.7696083 50.9476971,50.0988245 L48.2109646,56.1549743 C48.2109646,56.1549743 47.655532,57.4898413 45.8804582,56.8041155 L43.2900441,55.6146487 C43.2900441,55.6146487 42.3437873,55.2178471 43.2900441,53.7760406 L45.7322145,49.0172352 C45.7322145,49.0172352 46.3242267,47.8634148 45.3991475,47.8634148 C45.3991475,47.8634148 37.2341931,47.9497168 35.4841474,47.8277683 C35.4841474,47.8277683 28.160524,46.961934 28.7881532,39.7885484 L31.2515012,12.0518324 Z" id="Fill-3"></path>
                        <path d="M60.5631143,13.1987838 C60.5631143,13.1987838 60.7390559,9.91315856 63.0989679,9.9179551 L76.9161191,9.9179551 C76.9161191,9.9179551 84.7933295,9.37690615 83.6774392,19.6520395 L81.3337826,46.1720715 C81.3337826,46.1720715 81.4313155,48.4820819 79.7656077,48.7276644 L76.5814476,48.7276644 C76.5814476,48.7276644 75.2580609,48.776589 75.6013383,46.417654 L77.9937612,19.3805558 C77.9937612,19.3805558 78.3982356,14.867018 74.9568566,14.857425 L66.1368288,14.857425 L63.2051066,47.3520187 C63.2051066,47.3520187 62.9593621,48.7276644 61.8329535,48.7276644 L58.5503044,48.7276644 C58.5503044,48.7276644 57.3244506,49.0231308 57.5214287,46.6143119 L60.5631143,13.1987838 Z" id="Fill-6"></path>
                        <path d="M104.35564,42.6447392 C104.35564,42.6447392 104.35564,43.6269011 103.679121,43.6269011 L96.0998475,43.6269011 C96.0998475,43.6269011 92.3337662,43.2346118 92.5759186,39.1064627 L94.3133851,19.4469196 C94.3133851,19.4469196 94.4094923,15.0252728 99.2855169,15.0252728 L106.722514,15.0243137 L104.35564,42.6447392 Z M110.777859,9.91304348 L97.5961039,9.91304348 C89.3403111,10.4050836 88.8588331,17.7271771 88.8588331,17.7271771 C88.6656766,18.2681335 87.0714286,41.7114936 87.0714286,41.7114936 C87.0714286,48.0514253 93.9270721,48.7391304 93.9270721,48.7391304 L106.963724,48.7391304 C109.61892,48.6412979 109.61892,46.6251804 109.61892,46.6251804 L112.515326,12.124826 C112.756536,9.96291889 110.777859,9.91304348 110.777859,9.91304348 L110.777859,9.91304348 Z" id="Fill-8"></path>
                        <path d="M135.699657,18.7858012 L133.888053,38.8237641 C133.888053,38.8237641 133.814534,42.7189399 129.830325,42.9357035 L121.572543,42.9357035 L123.963822,14.8183709 L132.365816,14.8183709 C132.365816,14.8183709 135.989023,14.9628799 135.699657,18.7858012 M133.888053,9.91444683 L121.644177,9.91444683 C118.600646,9.8421923 118.529011,12.5841108 118.529011,12.5841108 L115.051901,55.2696449 C114.744626,56.9455745 115.902092,57 115.902092,57 L119.254783,57 C120.485769,57 120.412249,55.196452 120.412249,55.196452 L120.92029,48.7066818 C120.991925,47.9118821 121.644177,47.8987449 121.644177,47.8987449 L131.091473,47.8987449 C138.844043,47.321647 139.394499,38.3198592 139.394499,38.3198592 L141.277737,17.9919398 C141.567103,10.2034649 133.888053,9.91444683 133.888053,9.91444683" id="Fill-10"></path>
                        <path d="M150.005155,1.18692404 C150.005155,1.18692404 149.999842,6.27291079e-08 150.885306,6.27291079e-08 L154.731763,6.27291079e-08 C154.731763,6.27291079e-08 155.381694,-0.00281923414 155.309086,1.18692404 L154.676864,9.04524417 L162.329932,9.04524417 C162.329932,9.04524417 163.474838,9.12606401 163.464212,10.4182417 L163.329622,12.8982832 C163.329622,12.8982832 163.19326,13.909471 161.832302,13.9573991 L154.934535,13.9573991 C154.934535,13.9573991 154.146471,13.9630377 154.072092,14.7768747 L152.439296,37.3603823 C152.439296,37.3603823 152.00719,41.8862936 154.912398,41.8862936 L159.618641,41.9332819 C159.618641,41.9332819 160.842352,41.7894977 160.707762,43.3786414 L160.481083,45.882177 C160.481083,45.882177 160.38988,47.0380887 158.710154,47.0869565 L153.584202,47.0869565 C153.584202,47.0869565 146.30657,47.0869565 147.095519,39.5256023 L150.005155,1.18692404 Z" id="Fill-12"></path>
                        <path d="M177.350371,9.91304348 L173.521946,9.91304348 C171.893303,9.93802494 171.70257,11.4887973 171.70257,11.4887973 L168.417733,47.1632863 C168.20051,48.8610649 169.477358,48.7371185 169.477358,48.7371185 L172.871336,48.7371185 C174.581571,48.6640957 174.688593,47.0403007 174.688593,47.0403007 L178.192773,11.7837707 C178.518078,9.91304348 177.350371,9.91304348 177.350371,9.91304348" id="Fill-16"></path>
                        <path d="M191.849298,9.91304942 L200.040429,9.91304942 C200.040429,9.91304942 206.349594,9.87658039 206.93747,15.5187232 C207.088256,16.9746053 206.93747,18.8623574 206.789547,21.2731523 C206.789547,21.2731523 206.789547,23.1167577 205.688234,23.1167577 L202.534129,23.1167577 C202.534129,23.1167577 201.141741,23.4113891 201.287756,20.9775612 L201.434725,17.584022 C201.434725,17.584022 201.825051,14.6712981 197.864526,14.7068074 L193.499358,14.7068074 C193.499358,14.7068074 190.162018,14.6712981 189.355598,18.7654266 L187.454546,39.5921219 C187.454546,39.5921219 186.75692,43.3541902 190.9379,43.5374951 L196.255502,43.5374951 C196.255502,43.5374951 199.741719,43.7601481 200.106279,36.493214 C200.106279,36.493214 199.996529,34.2820392 201.611279,34.2436507 L204.50962,34.2436507 C204.50962,34.2436507 206.195945,33.9854884 205.902007,36.5306428 C205.902007,36.5306428 205.585165,39.7888627 204.801649,42.739975 C203.929379,46.0308251 201.202819,48.7391304 196.585705,48.7391304 L188.518639,48.7391304 C188.518639,48.7391304 181.181645,48.5913349 181.549067,40.2927111 L183.45012,19.2078535 C183.45012,19.2078535 183.999822,10.2086405 191.849298,9.91304942" id="Fill-18"></path>
                    </g>
                    <path d="M129.537877,143 C142.422864,139.809666 152,127.874167 152,113.638281 C152,105.496193 148.870638,98.108223 143.780012,92.6772666 L143.780012,92.6729201 L102.403363,50.0011198 L75.9806907,18.4867946 C65.2375689,4.76596902 68.1979474,0.00437419464 68.1979474,0.00437419464 C68.1831614,0.0228468354 68.2127335,-0.0130118202 68.1979474,0.00546082057 C59.3358226,3.28381125 53,12.0061576 53,22.2519535 C53,27.8154782 54.8693792,32.9313131 57.9966289,36.9681284 L58.0008535,36.9713883 L102.40125,82.6705284 L127.831145,113.74803 C127.831145,113.74803 138.442248,126.01821 129.537877,143 L129.537877,143 Z M132.027634,141.365714 C132.027634,141.365714 139.112616,126.844165 129.500568,114.688062 L103.727273,84.9828571 L132.69282,114.585359 C136.840075,121.016316 136.444385,127.464753 136.444385,127.464753 C136.444385,133.48599 134.34723,138.114181 132.027634,141.365714 L132.027634,141.365714 Z M102.090909,48.2114286 L69.8078101,15.6312908 L69.7970462,15.6400076 C67.9908632,13.2200054 66.9090909,10.1331678 66.9090909,6.7706614 C66.9090909,4.95756655 67.2233969,3.22619171 67.7971129,1.63428571 C67.8563144,4.3800784 69.2868372,9.73219494 76.2467771,18.4784163 L102.090909,48.2114286 Z" id="Fill-21"></path>
                </g>
            </g>
        </g>
    </g>
</svg>