<?xml version="1.0" encoding="UTF-8"?>
<svg width="40px" height="37px" viewBox="0 0 40 37" version="1.1" xmlns="http://www.w3.org/2000/svg" xmlns:xlink="http://www.w3.org/1999/xlink">
    <!-- Generator: Sketch 48.2 (47327) - http://www.bohemiancoding.com/sketch -->
    <title>if_General_Office_42_2530810</title>
    <desc>Created with Sketch.</desc>
    <defs></defs>
    <g id="Page-1" stroke="none" stroke-width="1" fill="none" fill-rule="evenodd">
        <g id="if_General_Office_42_2530810" fill-rule="nonzero">
            <g id="Group" transform="translate(0.000000, 3.000000)">
                <rect id="Rectangle-path" fill="#42C6B9" x="1.2025341" y="1.25149733" width="32.6329843" height="7.55364706"></rect>
                <path d="M33.8350696,9.97429412 L1.2025341,9.97429412 C0.580085822,9.97429412 0.0752160911,9.4508984 0.0752160911,8.80514439 L0.0752160911,1.25149733 C0.0752160911,0.605743316 0.580085822,0.0823475936 1.2025341,0.0823475936 L33.8355184,0.0823475936 C34.4584155,0.0823475936 34.9632852,0.605743316 34.9632852,1.25149733 L34.9632852,8.80514439 C34.9628364,9.4508984 34.4579667,9.97429412 33.8350696,9.97429412 Z M2.33030089,7.63645989 L32.7073029,7.63645989 L32.7073029,2.42064706 L2.33030089,2.42064706 L2.33030089,7.63645989 Z" id="Shape" fill="#454B53"></path>
            </g>
            <path d="M29.7026575,37 L1.09904556,37 C0.49201204,37 0,36.4989277 0,35.8807159 L0,11.1192841 C0,10.5010723 0.49201204,10 1.09904556,10 L32.9005171,10 C33.507988,10 34,10.5010723 34,11.1192841 L34,15.661003 C34,16.2792148 33.507988,16.780287 32.9005171,16.780287 C32.2939209,16.780287 31.8019089,16.2792148 31.8019089,15.661003 L31.8019089,12.2381227 L2.19765378,12.2381227 L2.19765378,34.7614319 L29.7026575,34.7614319 C30.8598698,34.7614319 31.8019089,33.8016001 31.8019089,32.6212966 L31.8019089,20.9852854 C31.8019089,20.3670736 32.2939209,19.8660013 32.9005171,19.8660013 C33.507988,19.8660013 34,20.3670736 34,20.9852854 L34,32.621742 C33.9995627,35.0357968 32.0717501,37 29.7026575,37 Z" id="Shape" fill="#454B53"></path>
            <path d="M7,8 C6.44767211,8 6,7.52102182 6,6.93006919 L6,1.06993081 C6,0.47897818 6.44767211,0 7,0 C7.55232789,0 8,0.47897818 8,1.06993081 L8,6.93049494 C8,7.52102182 7.55232789,8 7,8 Z" id="Shape" fill="#454B53"></path>
            <path d="M16.9996021,8 C16.4476721,8 16,7.52102182 16,6.93006919 L16,1.06993081 C16,0.47897818 16.4476721,0 16.9996021,0 C17.5523279,0 18,0.47897818 18,1.06993081 L18,6.93049494 C18,7.52102182 17.5523279,8 16.9996021,8 Z" id="Shape" fill="#454B53"></path>
            <path d="M27,8 C26.4476721,8 26,7.52102182 26,6.93006919 L26,1.06993081 C26,0.47897818 26.4476721,0 27,0 C27.5523279,0 28,0.47897818 28,1.06993081 L28,6.93049494 C27.9996021,7.52102182 27.55193,8 27,8 Z" id="Shape" fill="#454B53"></path>
            <g id="Group" transform="translate(5.000000, 15.000000)">
                <rect id="Rectangle-path" fill="#FFFFFF" x="1.14471232" y="1.12272794" width="4.72879596" height="4.72793382"></rect>
                <path d="M5.87350827,6.93393107 L1.14471232,6.93393107 C0.546392463,6.93393107 0.0614430147,6.44898162 0.0614430147,5.85066176 L0.0614430147,1.12272794 C0.0614430147,0.524408088 0.546392463,0.0394586397 1.14471232,0.0394586397 L5.87350827,0.0394586397 C6.47139706,0.0394586397 6.95634651,0.524408088 6.95634651,1.12272794 L6.95634651,5.85066176 C6.95634651,6.44898162 6.47139706,6.93393107 5.87350827,6.93393107 Z M2.22798162,4.76739246 L4.7898079,4.76739246 L4.7898079,2.20599724 L2.22798162,2.20599724 L2.22798162,4.76739246 Z" id="Shape" fill="#454B53"></path>
            </g>
            <g id="Group" transform="translate(14.000000, 15.000000)" fill="#454B53">
                <path d="M14.8766827,16.9253778 L1.11343354,16.9253778 C0.509106257,16.9253778 0.0192876712,16.4220029 0.0192876712,15.8009501 L0.0192876712,1.16862371 C0.0192876712,0.547570895 0.509106257,0.0441959586 1.11343354,0.0441959586 L14.8766827,0.0441959586 C15.48101,0.0441959586 15.9708286,0.547570895 15.9708286,1.16862371 L15.9708286,4.72043726 C15.9708286,5.34149007 15.48101,5.844865 14.8766827,5.844865 C14.2723554,5.844865 13.7825368,5.34149007 13.7825368,4.72043726 L13.7825368,2.29260401 L2.20714402,2.29260401 L2.20714402,14.6765223 L13.7825368,14.6765223 L13.7825368,10.3559993 C13.7825368,9.73494651 14.2723554,9.23157157 14.8766827,9.23157157 C15.48101,9.23157157 15.9708286,9.73494651 15.9708286,10.3559993 L15.9708286,15.8009501 C15.9708286,16.4220029 15.48101,16.9253778 14.8766827,16.9253778 Z" id="Shape"></path>
            </g>
            <g id="Group" transform="translate(5.000000, 25.000000)">
                <rect id="Rectangle-path" fill="#FFFFFF" x="1.14471232" y="1.11700827" width="4.72879596" height="4.72793382"></rect>
                <path d="M5.87350827,6.92778033 L1.14471232,6.92778033 C0.546392463,6.92778033 0.0614430147,6.44283088 0.0614430147,5.84451103 L0.0614430147,1.11700827 C0.0614430147,0.518688419 0.546392463,0.0337389706 1.14471232,0.0337389706 L5.87350827,0.0337389706 C6.47139706,0.0337389706 6.95634651,0.518688419 6.95634651,1.11700827 L6.95634651,5.8449421 C6.95634651,6.44283088 6.47139706,6.92778033 5.87350827,6.92778033 Z M2.22798162,4.76167279 L4.7898079,4.76167279 L4.7898079,2.20027757 L2.22798162,2.20027757 L2.22798162,4.76167279 Z" id="Shape" fill="#454B53"></path>
            </g>
            <path d="M22.2363057,27 C22.1899112,27 22.1422159,26.9969159 22.0953878,26.9907478 C21.7853684,26.9493331 21.5083022,26.7753035 21.3331304,26.5118358 L18.1861086,21.7685367 C17.8500736,21.2618681 17.9814525,20.57368 18.4805186,20.2322295 C18.9791512,19.8898977 19.6568578,20.024275 19.9928928,20.5313842 L22.4496337,24.2344707 L38.1942818,10.273328 C38.6478206,9.8710772 39.3354999,9.91821941 39.7313708,10.3790675 C40.1268081,10.8399157 40.0804136,11.5391183 39.6268748,11.9409285 L22.9530358,26.7268395 C22.7535828,26.9043938 22.4986298,27 22.2363057,27 Z" id="Shape" fill="#454B53"></path>
        </g>
    </g>
</svg>