<?xml version="1.0" encoding="UTF-8"?>
<svg width="42px" height="39px" viewBox="0 0 42 39" version="1.1" xmlns="http://www.w3.org/2000/svg" xmlns:xlink="http://www.w3.org/1999/xlink">
    <!-- Generator: Sketch 48.2 (47327) - http://www.bohemiancoding.com/sketch -->
    <title>Group 6</title>
    <desc>Created with Sketch.</desc>
    <defs></defs>
    <g id="Page-1" stroke="none" stroke-width="1" fill="none" fill-rule="evenodd">
        <g id="Group-6" fill-rule="nonzero">
            <g id="if_General_Office_07_2530837">
                <g id="Group" transform="translate(14.933333, 0.000000)">
                    <polygon id="Shape" fill="#D3ECFF" points="16.0267692 26.9497938 1.01517949 31.0863586 1.01517949 5.06146907 16.0267692 0.924904271"></polygon>
                    <path d="M1.01517949,31.9977375 C0.819538462,31.9977375 0.626769231,31.933183 0.46774359,31.810602 C0.244461538,31.6379731 0.113435897,31.3703258 0.113435897,31.0863586 L0.113435897,5.06146907 C0.113435897,4.65056885 0.385897436,4.29044183 0.77825641,4.18236745 L15.7894872,0.0461653166 C16.0605128,-0.0289064801 16.3505641,0.0283946981 16.5745641,0.201023564 C16.7978462,0.373289764 16.9288718,0.64093704 16.9288718,0.925266937 L16.9288718,26.9497938 C16.9288718,27.360694 16.6564103,27.7208211 16.2640513,27.8288954 L1.25246154,31.9654602 C1.17420513,31.9868575 1.09451282,31.9977375 1.01517949,31.9977375 Z M1.91728205,5.75742452 L1.91728205,29.8931885 L15.1250256,26.2538384 L15.1250256,2.11807437 L1.91728205,5.75742452 Z" id="Shape" fill="#454B53"></path>
                </g>
                <g id="Group">
                    <polygon id="Shape" fill="#E0F1F8" points="15.928 31.0856333 0.914974359 26.9497938 0.914974359 0.925266937 15.928 5.06146907"></polygon>
                    <path d="M15.928,31.9970122 C15.8486667,31.9970122 15.7689744,31.9864948 15.6907179,31.9647349 L0.677692308,27.8285328 C0.285333333,27.7204584 0.0128717949,27.3603314 0.0128717949,26.9494311 L0.0128717949,0.925266937 C0.0128717949,0.641299705 0.143897436,0.37365243 0.367179487,0.201023564 C0.590820513,0.0283946981 0.880871795,-0.0292691458 1.15225641,0.0461653166 L16.1652821,4.18200479 C16.557641,4.29007916 16.8301026,4.65020619 16.8301026,5.06110641 L16.8301026,31.0852706 C16.8301026,31.3692378 16.6990769,31.6368851 16.4757949,31.809514 C16.3164103,31.9324577 16.123641,31.9970122 15.928,31.9970122 Z M1.81707692,26.2538384 L15.0262564,29.8924632 L15.0262564,5.75742452 L1.81707692,2.11843704 L1.81707692,26.2538384 Z" id="Shape" fill="#454B53"></path>
                </g>
                <path d="M12.7167853,15.7400589 C12.6397807,15.7400589 12.5613368,15.730269 12.4839725,15.7088762 L4.44635322,13.5554549 C3.96381539,13.4263729 3.67630777,12.9270867 3.80512846,12.4408536 C3.93322948,11.9546206 4.43052051,11.6652739 4.91089933,11.7943559 L12.9485186,13.9477772 C13.4310564,14.0768591 13.718564,14.5761454 13.5897433,15.0623784 C13.4821529,15.4706546 13.1165612,15.7400589 12.7167853,15.7400589 Z" id="Shape" fill="#454B53"></path>
                <path d="M12.7168854,21.7047128 C12.6398789,21.7047128 12.5617929,21.69492 12.4840668,21.6738835 L4.44624735,19.5201868 C3.96369751,19.3914292 3.67654257,18.891995 3.80500662,18.4056178 C3.93347067,17.9192407 4.42789534,17.6294455 4.91080503,17.7592912 L12.9486244,19.9126253 C13.4311743,20.0417455 13.7183292,20.5408171 13.5898652,21.0271942 C13.482272,21.4352287 13.1166713,21.7047128 12.7168854,21.7047128 Z" id="Shape" fill="#454B53"></path>
                <path d="M19.1189983,10.769514 C18.7195888,10.769514 18.3536433,10.5001605 18.2460546,10.0926864 C18.1175959,9.60654514 18.4043791,9.1077156 18.8872688,8.97829544 L26.9251158,6.82383038 C27.4065662,6.69477274 27.9027696,6.98370235 28.0308685,7.46984363 C28.1593272,7.95598491 27.872544,8.45481445 27.3896543,8.58423461 L19.3518073,10.7386997 C19.2740844,10.7597259 19.1956418,10.769514 19.1189983,10.769514 Z" id="Shape" fill="#454B53"></path>
                <path d="M19.118879,16.0714286 C18.7190978,16.0714286 18.3535013,15.8015795 18.2459094,15.3939043 C18.1178067,14.9075232 18.4045984,14.4084475 18.8871427,14.2789635 L26.9252282,12.1256116 C27.4084921,11.996853 27.902911,12.2859251 28.0310137,12.7723063 C28.1591164,13.2586874 27.8723246,13.7577631 27.3897804,13.8872471 L19.3516949,16.040599 C19.2736098,16.0616357 19.1955247,16.0714286 19.118879,16.0714286 Z" id="Shape" fill="#454B53"></path>
                <path d="M19.1189983,21.3733432 C18.719229,21.3733432 18.3536433,21.1039735 18.2460546,20.6964749 C18.1175959,20.2103044 18.4043791,19.7110823 18.8872688,19.5820169 L26.9251158,17.4277848 C27.4062064,17.2983569 27.9027696,17.5876664 28.0308685,18.0738369 C28.1593272,18.5600074 27.872544,19.0592295 27.3896543,19.1882949 L19.3518073,21.342527 C19.2740844,21.3635545 19.1956418,21.3733432 19.1189983,21.3733432 Z" id="Shape" fill="#454B53"></path>
                <path d="M25.6793218,24.8527246 C25.2815834,24.8527246 24.9171689,24.5917722 24.8100304,24.1961235 C24.6821091,23.7245101 24.9676925,23.2405877 25.4482035,23.1150352 L26.9295106,22.7281786 C27.4118132,22.6043845 27.9034323,22.8832729 28.0309953,23.3545346 C28.1589166,23.8264996 27.8733332,24.310422 27.3928221,24.4356229 L25.9115151,24.8228311 C25.833759,24.8428773 25.7560029,24.8527246 25.6793218,24.8527246 Z" id="Shape" fill="#454B53"></path>
                <path d="M19.1144587,26.8409426 C18.7170564,26.8409426 18.35295,26.5687788 18.245902,26.1561317 C18.1180888,25.6642562 18.4034308,25.1595429 18.8835358,25.0285962 L21.8432878,24.2212749 C22.3241088,24.0903282 22.8163865,24.382299 22.9438416,24.8745412 C23.0716548,25.3660499 22.7863128,25.87113 22.3062078,26.0020767 L19.3464557,26.809398 C19.2687654,26.8303054 19.190717,26.8409426 19.1144587,26.8409426 Z" id="Shape" fill="#454B53"></path>
            </g>
            <g id="if_General_Office_06_2530838" transform="translate(20.000000, 17.000000)">
                <g id="Group" transform="translate(10.986536, 10.738095)">
                    <polyline id="Shape" fill="#EC407A" points="0.602662179 4.74823588 4.42151163 10.0468616 5.93687882 6.22459911 9.86480416 5.75137375 6.24572827 0.728692137"></polyline>
                    <path d="M4.42151163,10.6741661 C4.23486536,10.6741661 4.05705018,10.5830172 3.94272338,10.424443 L0.123873929,5.126067 C-0.0756609547,4.84937375 -0.0229130967,4.45581008 0.241542228,4.24704153 C0.505997552,4.03802326 0.881915545,4.09371152 1.08145043,4.37040476 L4.26923501,8.79325138 L5.38290698,5.983866 C5.46620563,5.77359911 5.65189718,5.62701163 5.86813953,5.60104042 L8.75495104,5.25317608 L5.76670135,1.10652326 C5.56716646,0.829580288 5.620153,0.436266334 5.88436965,0.227497785 C6.14882497,0.0187292359 6.52498164,0.0741677741 6.72427785,0.350861019 L10.3433537,5.37329291 C10.4729559,5.55309358 10.5004039,5.79157918 10.4159119,5.99834994 C10.3311812,6.20512071 10.1469217,6.34846179 9.93330477,6.374433 L6.35575887,6.80545515 L4.97548348,10.2868455 C4.89313953,10.4948649 4.71078947,10.6407032 4.49741126,10.6689219 C4.47187271,10.6726678 4.44657283,10.6741661 4.42151163,10.6741661 Z" id="Shape" fill="#454B53"></path>
                </g>
                <g id="Group" transform="translate(0.000000, 10.738095)">
                    <polyline id="Shape" fill="#EC407A" points="10.0754004 4.74823588 6.22796573 10.0468616 4.69948005 6.22459911 0.741390126 5.75137375 4.35524602 0.694979513"></polyline>
                    <path d="M6.22796573,10.6741661 C6.20294802,10.6741661 6.1774492,10.6726678 6.15195039,10.6691717 C5.93689433,10.6409529 5.7531104,10.4951146 5.66987842,10.287345 L4.27778735,6.80570487 L0.672350877,6.37468272 C0.457775928,6.34896124 0.272789229,6.20636932 0.186670583,6.00084718 C0.101033048,5.79532503 0.127253529,5.55758859 0.255950388,5.37753821 L3.86980628,0.320894241 C4.06850461,0.0427026578 4.44665687,-0.0157325581 4.71535667,0.191038206 C4.9833348,0.397309524 5.03962464,0.790373754 4.84068576,1.06856534 L1.85058866,5.25242691 L4.7685193,5.60104042 C4.98646202,5.62701163 5.17361371,5.77359911 5.25756736,5.983866 L6.38095863,8.79325138 L9.59284733,4.37040476 C9.79347009,4.09371152 10.172344,4.03827298 10.4393599,4.24704153 C10.7056542,4.45581008 10.7590574,4.84887431 10.5579535,5.12581728 L6.71051881,10.424443 C6.59553358,10.5830172 6.41607964,10.6741661 6.22796573,10.6741661 Z" id="Shape" fill="#454B53"></path>
                </g>
                <g id="Group" transform="translate(3.069767, 0.000000)">
                    <path d="M14.9277944,8.07400025 C14.9277944,12.1811895 11.721743,15.5100905 7.76719706,15.5100905 C3.81241126,15.5100905 0.605400245,12.1811895 0.605400245,8.07400025 C0.605400245,3.96581448 3.81217136,0.636664311 7.76719706,0.636664311 C11.721743,0.636664311 14.9277944,3.96581448 14.9277944,8.07400025 Z" id="Shape" fill="#FFE3ED"></path>
                    <path d="M7.76743696,16.13591 C3.48614443,16.13591 0.00300611995,12.5192615 0.00300611995,8.07375112 C0.00300611995,3.62774244 3.48638433,0.0103466022 7.76743696,0.0103466022 C12.0482497,0.0103466022 15.5306683,3.62774244 15.5306683,8.07375112 C15.5306683,12.5195107 12.0482497,16.13591 7.76743696,16.13591 Z M7.76743696,1.26248375 C4.1509131,1.26248375 1.20851408,4.31808705 1.20851408,8.07375112 C1.20851408,11.8289169 4.1509131,14.8837728 7.76743696,14.8837728 C11.3832411,14.8837728 14.3251603,11.8286678 14.3251603,8.07375112 C14.3251603,4.31808705 11.3832411,1.26248375 7.76743696,1.26248375 Z" id="Shape" fill="#454B53"></path>
                </g>
                <path d="M10.7440677,12.9192708 C8.20501567,12.9192708 6.13953488,10.7367751 6.13953488,8.05407189 C6.13953488,5.37086825 8.20525245,3.18787202 10.7440677,3.18787202 C13.2828829,3.18787202 15.3488372,5.37086825 15.3488372,8.05407189 C15.3488372,10.7370253 13.2831196,12.9192708 10.7440677,12.9192708 Z M10.7440677,4.44552207 C8.86114857,4.44552207 7.32938252,6.06450254 7.32938252,8.05432212 C7.32938252,10.0436412 8.86114857,11.661871 10.7440677,11.661871 C12.6269867,11.661871 14.1589896,10.043391 14.1589896,8.05432212 C14.1589896,6.06425231 12.6269867,4.44552207 10.7440677,4.44552207 Z" id="Shape" fill="#454B53"></path>
            </g>
        </g>
    </g>
</svg>