<?xml version="1.0" encoding="UTF-8"?>
<svg width="39px" height="37px" viewBox="0 0 39 37" version="1.1" xmlns="http://www.w3.org/2000/svg" xmlns:xlink="http://www.w3.org/1999/xlink">
    <!-- Generator: Sketch 48.2 (47327) - http://www.bohemiancoding.com/sketch -->
    <title>if_General_Office_09_2530835</title>
    <desc>Created with Sketch.</desc>
    <defs></defs>
    <g id="Page-1" stroke="none" stroke-width="1" fill="none" fill-rule="evenodd">
        <g id="if_General_Office_09_2530835" fill-rule="nonzero">
            <path d="M32.5891231,36 L1,36 L1,3 L24.9443648,3.00042575 L36,13.2149243 L36,32.6170221 C36,34.477958 34.4651268,36 32.5891231,36 Z" id="Shape" fill="#EBF6FF"></path>
            <g id="Group" transform="translate(11.000000, 0.000000)">
                <path d="M9.05175238,25.8366673 L1.14545714,18.2123082 L17.7865905,2.16636429 C19.1406381,0.858517347 21.3424762,0.858517347 22.6978667,2.16636429 L25.6919905,5.05398673 C27.0478286,6.36183367 27.0478286,8.48115 25.6919905,9.79029184 L9.05175238,25.8366673 Z" id="Shape" fill="#42C6B9"></path>
                <path d="M9.05175238,26.9213602 C8.7536381,26.9213602 8.4671619,26.8065459 8.25678095,26.6036786 L0.350038095,18.9793194 C-0.0890761905,18.5563194 -0.0890761905,17.8691602 0.350038095,17.4457286 L16.991619,1.39935306 C17.8586571,0.562417347 19.0130667,0.101002041 20.2422286,0.101002041 C21.4709429,0.101002041 22.6258,0.562417347 23.4937333,1.39978469 L26.4874095,4.28740714 C28.278781,6.01523265 28.2792286,8.82775102 26.4878571,10.5564398 L9.84672381,26.6036786 C9.63589524,26.8065459 9.34986667,26.9213602 9.05175238,26.9213602 Z M2.7354,18.2123082 L9.05130476,24.3026449 L24.8965714,9.02328061 C25.8110571,8.1401602 25.8115048,6.7032551 24.8961238,5.82056633 L21.9024476,2.93294388 C21.4593048,2.50519592 20.8693429,2.26952449 20.241781,2.26952449 C19.614219,2.26952449 19.0247048,2.50476429 18.5824571,2.93251224 L2.7354,18.2123082 Z" id="Shape" fill="#454B53"></path>
            </g>
            <path d="M35.0033384,12 C34.7482977,12 34.4932571,11.9024084 34.2989026,11.7080186 L27.2918292,4.70125793 C26.9027236,4.31208161 26.9027236,3.68090981 27.2918292,3.29173349 C27.6805381,2.90295388 28.3119918,2.90255717 28.7010974,3.29173349 L35.7081708,10.2984941 C36.0972764,10.6876705 36.0972764,11.3188423 35.7081708,11.7080186 C35.5134197,11.9024084 35.2587757,12 35.0033384,12 Z" id="Shape" fill="#454B53"></path>
            <g id="Group" transform="translate(9.000000, 16.000000)">
                <polygon id="Shape" fill="#FFFFFF" points="10.9398585 8.24583022 1.09477538 10.9376818 3.83538462 1.06491911"></polygon>
                <path d="M1.09477538,11.9849067 C0.82224,11.9849067 0.555889231,11.8756818 0.358806154,11.6747413 C0.0965784615,11.4066818 -0.0032,11.0177244 0.0974030769,10.6546142 L2.83801231,0.781851556 C2.93737846,0.423744 3.21733538,0.146096 3.57315692,0.0514622222 C3.92897846,-0.0423377778 4.30706462,0.0610506667 4.56764308,0.324107556 L11.6721169,7.50501867 C11.93352,7.76932622 12.0361846,8.15453156 11.9405292,8.51555733 C11.8452862,8.877 11.5669785,9.15965067 11.2103323,9.25678578 L1.36483692,11.9486373 C1.27577846,11.9732338 1.18465846,11.9849067 1.09477538,11.9849067 Z M4.35448,3.07057156 L2.58485538,9.44521956 L8.94181538,7.70679289 L4.35448,3.07057156 Z" id="Shape" fill="#454B53"></path>
            </g>
            <path d="M21.017979,18 C20.7569743,18 20.4967802,17.9002882 20.2981897,17.7016754 C19.9006034,17.3040443 19.9006034,16.6591605 20.2981897,16.2611241 L27.2618265,9.29791937 C27.6594128,8.90028831 28.3046293,8.90109898 28.7018103,9.29791937 C29.0993966,9.69555042 29.0993966,10.3404342 28.7018103,10.7380653 L21.7377682,17.7016754 C21.5391777,17.9002882 21.2781731,18 21.017979,18 Z" id="Shape" fill="#454B53"></path>
            <path d="M33.4854227,37 L1.1047943,37 C0.494585589,37 0,36.5127995 0,35.9117024 L0,2.08829757 C0,1.48720046 0.494585589,1 1.1047943,1 L22.8467768,1 C23.4569855,1 23.9515711,1.48720046 23.9515711,2.08829757 C23.9515711,2.68939467 23.4569855,3.17659513 22.8467768,3.17659513 L2.20914897,3.17659513 L2.20914897,34.8238379 L33.4854227,34.8238379 C34.7568374,34.8238379 35.7904114,33.804398 35.7904114,32.5511019 L35.7904114,16.4994707 C35.7904114,15.8983736 36.284997,15.4111731 36.8952057,15.4111731 C37.5054144,15.4111731 38,15.8983736 38,16.4994707 L38,32.5511019 C37.9995604,35.0044269 35.9746171,37 33.4854227,37 Z" id="Shape" fill="#454B53"></path>
        </g>
    </g>
</svg>