<?xml version="1.0" encoding="UTF-8"?>
<svg width="37px" height="37px" viewBox="0 0 37 37" version="1.1" xmlns="http://www.w3.org/2000/svg" xmlns:xlink="http://www.w3.org/1999/xlink">
    <!-- Generator: Sketch 48.2 (47327) - http://www.bohemiancoding.com/sketch -->
    <title>Group 17</title>
    <desc>Created with Sketch.</desc>
    <defs></defs>
    <g id="Page-1" stroke="none" stroke-width="1" fill="none" fill-rule="evenodd">
        <g id="Group-17">
            <g id="Group-16" fill-rule="nonzero">
                <path d="M5.41082077,31.5870943 C-1.80360692,24.3708608 -1.80360692,12.6308439 5.41082077,5.41071393 C12.629145,-1.80357131 24.3693938,-1.80357131 31.587718,5.41071393 C38.804094,12.6288956 38.804094,24.3689126 31.587718,31.5870943 C24.3713421,38.805276 12.629145,38.8033278 5.41082077,31.5870943 Z" id="Shape" fill="#4A4A4A"></path>
                <path d="M35,18.5 C35,27.5988333 27.5988333,35 18.5,35 C9.40116667,35 2,27.5988333 2,18.5 C2,9.40116667 9.40116667,2 18.5,2 C27.5988333,2 35,9.40116667 35,18.5 Z" id="Shape" fill="#FFFFFF"></path>
            </g>
            <g id="Group-2" transform="translate(7.000000, 5.000000)">
                <path d="M5.3139162,16.3489383 C6.80114191,15.3720132 8.31882087,14.445244 9.82099635,13.4922822 C10.3625104,13.1506649 10.8946116,12.7984592 11.4328035,12.4568419 C12.7107324,11.6459885 13.7267633,10.4695545 14.4648392,9.15769951 C14.8391373,8.48951172 15.1469919,7.79624598 15.4454337,7.0912772 C15.8618126,6.11992497 16.1956909,4.84708016 17.2095071,4.34552135 C17.934848,3.9888573 18.8783449,4.18335067 19.4281644,4.77128905 C19.9646952,5.34640982 20.0892766,6.18791405 19.9436547,6.94025227 C19.6402297,8.52963642 18.7294008,9.96743835 17.5810367,11.0769979 C16.9055283,11.7273525 16.1430899,12.2105208 15.3463222,12.6886736 C14.2915326,13.3200804 13.2334208,13.945357 12.1714331,14.5672899 C10.7744597,15.3892891 9.39243615,16.1711636 8.08737621,17.1341565 C6.77068867,18.1049514 5.56363281,19.1715998 4.4329869,20.3508203 C3.59524584,21.2263191 3.06923526,22.2690042 2.51498621,23.3367671 C2.3139948,23.724082 2.12075512,24.2824841 1.75808467,24.5527686 C1.50338481,24.7361162 1.08423743,24.787944 0.810711925,24.6218723 C-0.1626845,24.0305902 -0.0929188859,22.3982949 0.167871624,21.4692965 C0.981803788,19.0333925 3.30012622,17.671939 5.3139162,16.3489383 Z" id="Fill-10" fill="#454B53"></path>
                <path d="M17.2460874,22.2828695 C16.601196,21.7619823 16.8255061,20.8183709 16.7812911,20.0767593 C16.7284488,19.1944287 16.5742357,18.2207443 16.204879,17.4189866 C15.8037091,16.5497066 14.8956848,16.3567855 14.1780005,15.8898028 C13.5018351,15.4517583 13.5557558,14.5711299 14.2464798,14.1818831 C15.6759171,13.3772884 17.3291253,14.3475683 18.094799,15.6645389 C18.5736146,16.4878584 18.8734136,17.4411158 19.1581149,18.3535194 C19.4509042,19.289187 19.8353586,20.493242 19.3770328,21.4294771 C19.015225,22.1710887 17.969703,22.8656048 17.2460874,22.2828695" id="Fill-12" fill="#42C6B9"></path>
                <path d="M11.882142,14.4756573 C8.53816332,13.1300872 5.05478328,10.5442526 4.68396475,6.61674803 C4.59029588,5.61718169 4.75614488,4.6048004 5.01511176,3.64033588 C5.23330513,2.82742212 5.48235413,1.96046268 5.88237531,1.21942409 C6.57772894,-0.0721003134 8.25054479,-0.357372313 9.43187456,0.457770139 C10.8187249,1.41722011 9.94815534,3.14779595 9.61315138,4.43263429 C9.38944807,5.29179332 9.19219245,6.17379639 9.05058715,7.05078492 C8.91118583,7.92053022 8.8885951,8.81534825 9.17290768,9.65834929 C9.40652886,10.3553713 9.83134475,10.9860899 10.38895,11.4591288 C11.0187354,11.9917851 11.8270427,12.267028 12.5615169,12.6141461 C13.0706347,12.85373 14.0998903,13.2086485 13.7726003,13.9792172 C13.464044,14.7052121 12.5036626,14.6422517 11.882142,14.4756573" id="Fill-14" fill="#EC407A"></path>
                <path d="M4.41420808,24.2262288 C4.49889831,24.5539653 4.79421424,24.9216835 5.6884111,24.9779956 C7.24638139,25.073163 8.86814432,24.8490408 10.4585609,24.5100419 C13.109805,23.9480469 14.2168274,23.2137369 14.2168274,23.2137369 C14.2168274,23.2137369 15.8369405,22.3414622 15.7500505,19.951576 C15.6609608,17.5611266 14.0875923,16.461914 14.0875923,16.461914 C14.0875923,16.461914 13.4562651,16.0300001 12.4130354,16.3994076 C11.7025174,16.6545015 9.69304917,17.809463 8.39354906,18.6237362 C7.6901802,19.0629707 6.99396051,19.6531217 6.41322749,20.2511564 C5.83194454,20.8497542 5.15222295,21.6347452 4.69027623,22.7266371 C4.6160348,22.8966997 4.5604912,23.051558 4.52034584,23.1934646 C4.43235598,23.4952975 4.33171759,23.9125703 4.41420808,24.2262288" id="Fill-16" fill="#454B53"></path>
            </g>
        </g>
    </g>
</svg>