<?xml version="1.0" encoding="UTF-8"?>
<svg width="251px" height="244px" viewBox="0 0 251 244" version="1.1" xmlns="http://www.w3.org/2000/svg" xmlns:xlink="http://www.w3.org/1999/xlink">
    <!-- Generator: Sketch 48.2 (47327) - http://www.bohemiancoding.com/sketch -->
    <title>if_General_Office_48_2530806 Copy 3</title>
    <desc>Created with Sketch.</desc>
    <defs></defs>
    <g id="Home-(NEW)-Copy" stroke="none" stroke-width="1" fill="none" fill-rule="evenodd" transform="translate(-1072.000000, -5760.000000)">
        <g id="Group-18" transform="translate(0.000000, 2623.000000)" fill-rule="nonzero">
            <g id="if_General_Office_48_2530806-Copy-3" transform="translate(1072.000000, 3137.000000)">
                <g id="Group" transform="translate(14.000000, 0.000000)">
                    <path d="M137.856744,130.628837 C162.046512,143.932093 182.954419,138.353488 200.574884,120.730233 L218.669767,102.618605 C234.573953,86.7339535 230.985116,68.3655814 221.627907,45.9144186 L200.697674,66.8586047 C190.787907,76.7655814 179.502326,81.5544186 167.745116,69.772093 L167.106047,69.1581395 C155.346047,57.3897674 160.12093,46.104186 170.033488,36.1944186 L190.972093,15.255814 C168.548837,5.90418605 150.174884,2.32651163 134.293023,18.2139535 L116.167442,36.3227907 C98.5637209,53.9293023 90.8,76.0455814 104.092093,100.243721 C101.764651,101.111628 99.6018605,102.384186 97.7934884,104.195349 L12.7916279,189.186047 C4.80465116,197.175814 6.04093023,211.372093 15.5432558,220.860465 L16.0260465,221.346047 C25.547907,230.853953 39.6827907,232.087442 47.7088372,224.066977 L104.591628,167.178605" id="Shape" fill="#FFF4F8"></path>
                    <path d="M34.3637209,236.32093 C26.2372093,236.32093 17.7060465,232.933023 11.0697674,226.307907 L10.5702326,225.802791 C4.82418605,220.065116 1.2855814,212.694884 0.624186047,205.065116 C-0.0790697674,196.980465 2.4827907,189.579535 7.83534884,184.226977 L92.8344186,99.2362791 C93.4874419,98.5804651 94.1823256,97.9637209 94.9218605,97.3860465 C85.3748837,74.7646512 91.0260465,51.5460465 111.208372,31.3637209 L129.336744,13.252093 C148.734884,-6.16 171.72186,-0.366511628 193.667907,8.78139535 C195.825116,9.6827907 197.396279,11.6 197.848372,13.8939535 C198.300465,16.187907 197.580465,18.5572093 195.928372,20.212093 L174.989767,41.1506977 C164.214884,51.9255814 166.026047,58.1572093 172.065116,64.1990698 L172.592558,64.7069767 C177.766512,69.8837209 181.408372,69.9367442 183.707907,69.5376744 C187.232558,68.9237209 191.27907,66.3534884 195.738605,61.8967442 L216.666047,40.9553488 C218.31814,39.3004651 220.687442,38.5776744 222.986977,39.0353488 C225.28093,39.4874419 227.19814,41.0586047 228.099535,43.215814 C237.253023,65.1786047 243.049302,88.1767442 223.623256,107.577674 L205.533953,125.683721 C184.36093,146.859535 159.794419,150.691163 134.477209,136.771163 C131.083721,134.906977 129.847442,130.642791 131.714419,127.249302 C133.578605,123.855814 137.834419,122.613953 141.236279,124.486512 C161.061395,135.386977 178.852093,132.540465 195.615814,115.773953 L213.707907,97.6651163 C223.492093,87.892093 225.163721,77.0613953 218.926512,58.5367442 L205.653953,71.8176744 C199.020465,78.4483721 192.629767,82.224186 186.113488,83.3572093 C177.791628,84.8111628 169.941395,81.9032558 162.780465,74.7255814 L162.255814,74.2232558 C154.684651,66.652093 145.148837,51.1553488 165.074419,31.2409302 L178.355349,17.96 C159.836279,11.72 149.022326,13.3972093 139.252093,23.1730233 L121.12093,41.2846512 C103.386047,59.0223256 99.7218605,77.7283721 110.237209,96.8697674 C111.219535,98.6586047 111.373023,100.779535 110.661395,102.691163 C109.952558,104.6 108.445581,106.106977 106.536744,106.818605 C104.99907,107.390698 103.729302,108.174884 102.75814,109.151628 L17.7506977,194.145116 C15.3786047,196.52 14.2567442,199.966512 14.5944186,203.853953 C14.9739535,208.196279 17.0697674,212.474419 20.4967442,215.898605 L20.9962791,216.40093 C27.7330233,223.126512 37.5004651,224.354419 42.7497674,219.105116 L99.6325581,162.219535 C102.367442,159.47907 106.810233,159.47907 109.547907,162.219535 C112.285581,164.954419 112.285581,169.394419 109.547907,172.134884 L52.6623256,229.023256 C47.7674419,233.91814 41.2093023,236.31814 34.3637209,236.32093 Z" id="Shape" fill="#454B53"></path>
                </g>
                <g id="Group" transform="translate(99.000000, 112.000000)">
                    <path d="M7.15666667,40.42275 C8.024875,42.73425 9.30345833,44.87825 11.1124583,46.6984167 L83.0676667,119.613958 C91.0574167,127.609292 105.2335,126.397708 114.733542,116.892083 L115.2165,116.375625 C124.733292,106.897917 125.947667,92.71625 117.966292,84.7153333 L46.0166667,11.788625 C44.2160417,9.962875 42.044125,8.71220833 39.749375,7.83841667 L7.15666667,40.42275 Z" id="Shape" fill="#EC407A"></path>
                    <path d="M96.4202083,131.91125 C89.3405417,131.91125 82.83875,129.303833 78.106875,124.571958 L6.12095833,51.6257083 C3.72570833,49.2165 1.85808333,46.2712917 0.590666667,42.885 C-0.37525,40.3110833 0.252875,37.40775 2.19866667,35.46475 L34.791375,2.88041667 C36.7455417,0.923458333 39.6628333,0.300916667 42.2507083,1.286375 C45.72075,2.609625 48.6715417,4.485625 51.0165417,6.86691667 L122.960583,79.7908333 C128.2815,85.1257083 130.841458,92.5264167 130.14075,100.597125 C129.481917,108.229542 125.939292,115.599542 120.166125,121.347583 L119.85625,121.688167 C113.307,128.245792 104.823125,131.91125 96.4202083,131.91125 Z M15.9197083,41.5812917 C15.9755417,41.6399167 16.031375,41.69575 16.09,41.754375 L88.0619583,114.686667 C90.6972917,117.322 94.0640417,117.885917 96.4202083,117.885917 C101.12975,117.885917 105.995625,115.716792 109.77275,111.934083 L110.096583,111.582333 C113.695042,107.995042 115.791583,103.726583 116.165667,99.391125 C116.500667,95.505125 115.378417,92.054625 112.999917,89.6733333 L41.0251667,16.7159167 C40.9832917,16.6768333 40.947,16.63775 40.9079167,16.5986667 L15.9197083,41.5812917 Z" id="Shape" fill="#454B53"></path>
                </g>
                <path d="M121.9955,142 C120.203085,142 118.410669,141.317021 117.044753,139.948277 L39.0509643,61.9577002 C36.3163452,59.2257859 36.3163452,54.7906068 39.0509643,52.0531172 C41.7827958,49.3156276 46.2206281,49.3156276 48.9552472,52.0531172 L126.949036,130.043694 C129.683655,132.775608 129.683655,137.210787 126.949036,139.948277 C125.580332,141.314234 123.787916,142 121.9955,142 Z" id="Shape" fill="#454B53"></path>
                <g id="Group" transform="translate(0.000000, 13.000000)">
                    <polygon id="Shape" fill="#EC407A" points="31.3219167 56.4090435 56.5139167 31.2709565 19.75325 7.2013913 7.17120833 19.7648696"></polygon>
                    <path d="M31.3219167,63.4017391 C31.084625,63.4017391 30.8473333,63.3878261 30.6100417,63.3627826 C28.5079167,63.1513043 26.6179583,62.0076522 25.4594167,60.2490435 L1.30870833,23.602087 C-0.517041667,20.8333913 -0.142958333,17.165913 2.20483333,14.8229565 L14.786875,2.25947826 C17.1374583,-0.0890434783 20.8140833,-0.464695652 23.6029583,1.35791304 L60.363625,25.4274783 C62.1251667,26.5794783 63.2725417,28.466087 63.4875,30.5558261 C63.7024583,32.6483478 62.9626667,34.7241739 61.4719167,36.210087 L36.2827083,61.3481739 C34.96225,62.669913 33.1727917,63.4017391 31.3219167,63.4017391 Z M16.1631667,20.6803478 L32.44975,45.3926957 L45.4645,32.4034783 L20.6772917,16.1725217 L16.1631667,20.6803478 Z" id="Shape" fill="#454B53"></path>
                </g>
            </g>
        </g>
    </g>
</svg>