<?xml version="1.0" encoding="UTF-8"?>
<svg width="40px" height="36px" viewBox="0 0 40 36" version="1.1" xmlns="http://www.w3.org/2000/svg" xmlns:xlink="http://www.w3.org/1999/xlink">
    <!-- Generator: Sketch 48.2 (47327) - http://www.bohemiancoding.com/sketch -->
    <title>if_General_Office_18_2530783 (1)</title>
    <desc>Created with Sketch.</desc>
    <defs></defs>
    <g id="Page-1" stroke="none" stroke-width="1" fill="none" fill-rule="evenodd">
        <g id="if_General_Office_18_2530783-(1)" fill-rule="nonzero">
            <g id="Group">
                <path d="M38.636713,30.4404475 C38.636713,32.7180723 36.8429976,34.5660929 34.6346545,34.5660929 L1.29969071,34.5660929 L1.29969071,1.37246127 L38.636713,1.37246127 L38.636713,30.4404475 Z" id="Shape" fill="#EEFFFD"></path>
                <path d="M34.6346545,35.8636833 L1.29969071,35.8636833 C0.60463851,35.8636833 0.0412856833,35.2827883 0.0412856833,34.5660929 L0.0412856833,1.37246127 C0.0412856833,0.656282272 0.60463851,0.0753872633 1.29969071,0.0753872633 L38.636713,0.0753872633 C39.3317652,0.0753872633 39.895118,0.656282272 39.895118,1.37246127 L39.895118,30.4404475 C39.8946173,33.4306368 37.5350453,35.8636833 34.6346545,35.8636833 Z M2.55809573,33.2690189 L34.6346545,33.2690189 C36.1474447,33.2690189 37.378308,31.9998279 37.378308,30.4404475 L37.378308,2.67056799 L2.55809573,2.67056799 L2.55809573,33.2690189 Z" id="Shape" fill="#454B53"></path>
            </g>
            <path d="M37.9037739,2 L1.09622612,2 C0.490749855,2 0,1.55232789 0,0.999602069 C0,0.447672105 0.490749855,0 1.09622612,0 L37.9037739,0 C38.5092501,0 39,0.447672105 39,0.999602069 C39,1.55232789 38.5092501,2 37.9037739,2 Z" id="Shape" fill="#454B53"></path>
            <path d="M11,30 C10.4476721,30 10,29.425786 10,28.7173336 L10,21.2826664 C10,20.574214 10.4476721,20 11,20 C11.5523279,20 12,20.574214 12,21.2826664 L12,28.7173336 C12,29.425786 11.5523279,30 11,30 Z" id="Shape" fill="#454B53"></path>
            <path d="M19,28 C18.4476721,28 18,27.4476785 18,26.7667275 L18,15.2337635 C18,14.5523215 18.4476721,14 19,14 C19.5523279,14 20,14.5523215 20,15.2337635 L20,26.7672184 C20,27.4476785 19.5523279,28 19,28 Z" id="Shape" fill="#454B53"></path>
            <path d="M29,30 C28.4476721,30 28,29.4235875 28,28.7129349 L28,20.2870651 C28,19.5764125 28.4476721,19 29,19 C29.5523279,19 30,19.5764125 30,20.2870651 L30,28.7129349 C30,29.4235875 29.5523279,30 29,30 Z" id="Shape" fill="#454B53"></path>
            <path d="M6.27540556,17 C5.89759496,17 5.5243485,16.8397918 5.27230572,16.5325232 C4.83769674,16.0007684 4.933544,15.2318665 5.48682101,14.8145461 L15.4949986,7.26138776 C15.8946158,6.9604496 16.4418072,6.91564974 16.887573,7.14695335 L26.6589217,12.2117719 L31.8346735,7.34903965 C32.3367306,6.87620639 33.1440789,6.88497158 33.6365005,7.3680309 C34.1289221,7.85109022 34.1197938,8.6253486 33.6167225,9.09818187 L27.7705471,14.5910338 C27.3719442,14.9655022 26.766433,15.0477976 26.2745185,14.7931201 L16.4134081,9.68106696 L7.06196161,16.7385052 C6.82868257,16.9147829 6.55077625,17 6.27540556,17 Z" id="Shape" fill="#EC407A"></path>
        </g>
    </g>
</svg>