<?xml version="1.0" encoding="UTF-8"?>
<svg width="29px" height="39px" viewBox="0 0 29 39" version="1.1" xmlns="http://www.w3.org/2000/svg" xmlns:xlink="http://www.w3.org/1999/xlink">
    <!-- Generator: Sketch 48.2 (47327) - http://www.bohemiancoding.com/sketch -->
    <title>if_Experiment_728987</title>
    <desc>Created with Sketch.</desc>
    <defs></defs>
    <g id="Page-1" stroke="none" stroke-width="1" fill="none" fill-rule="evenodd">
        <g id="if_Experiment_728987">
            <path d="M13.4750252,9.76736984 C11.4807293,9.76736984 9.8583484,8.12431509 9.8583484,6.10460615 C9.8583484,4.0848972 11.4807293,2.44184246 13.4750252,2.44184246 C15.4696225,2.44184246 17.091702,4.0848972 17.091702,6.10460615 C17.091702,8.12431509 15.4696225,9.76736984 13.4750252,9.76736984 Z M7.88244967,22.9217573 L22.3699773,25.7785051 L28,37 L1,36.6554785 L7.88244967,22.9217573 Z M13.4750252,4.88368492 C14.1413979,4.88368492 14.6805842,5.42974194 14.6805842,6.10460615 C14.6805842,6.77947036 14.1413979,7.32552738 13.4750252,7.32552738 C12.8086525,7.32552738 12.2694663,6.77947036 12.2694663,6.10460615 C12.2694663,5.42974194 12.8089539,4.88368492 13.4750252,4.88368492 Z M18.2975624,2.44184246 C18.9639351,2.44184246 19.5031213,1.89578544 19.5031213,1.22092123 C19.5031213,0.54605702 18.9639351,0 18.2975624,0 C17.6311897,0 17.0920034,0.54605702 17.0920034,1.22092123 C17.0920034,1.89578544 17.6311897,2.44184246 18.2975624,2.44184246 Z" id="Shape" fill="#EC407A"></path>
            <path d="M28.5208174,33.4916932 L19.3335425,17.8105227 L19.3335425,14.4545455 L20.541838,14.4545455 C21.2097234,14.4545455 21.7501336,13.9056477 21.7501336,13.2272727 C21.7501336,12.5488977 21.2097234,12 20.541838,12 L18.125247,12 C17.4573617,12 16.9169515,12.5488977 16.9169515,13.2272727 L16.9169515,18.1363636 C16.9169515,18.3496023 16.9725331,18.5606932 17.0761445,18.7450909 L26.3331984,34.5701591 C26.6129188,34.9392614 26.6624589,35.4402955 26.4594653,35.8597159 C26.2552633,36.2791364 25.8353807,36.5451477 25.3750201,36.5451477 L3.62539891,36.5451477 C3.16534039,36.5451477 2.74515563,36.2791364 2.54095369,35.8597159 C2.33796005,35.4402955 2.38750016,34.9392614 2.66722057,34.5701591 L11.9242745,18.7450909 C12.0281879,18.5606932 12.0834674,18.3496023 12.0834674,18.1363636 L12.0834674,13.2272727 C12.0834674,12.5488977 11.5430573,12 10.8751719,12 L8.45858093,12 C7.79069559,12 7.25028542,12.5488977 7.25028542,13.2272727 C7.25028542,13.9056477 7.79069559,14.4545455 8.45858093,14.4545455 L9.66687643,14.4545455 L9.66687643,17.8105227 L0.478393265,33.4916932 C-0.16411787,34.6302955 -0.15868054,36.03 0.490174146,37.1664545 C1.13902883,38.3029091 2.33342894,39 3.62539891,39 L25.374718,39 C26.666688,39 27.860786,38.3026023 28.5099428,37.1661477 C29.1590995,36.0296932 29.1639327,34.6302955 28.5208174,33.4916932 Z" id="Shape" fill="#4A4A4A" fill-rule="nonzero"></path>
        </g>
    </g>
</svg>