<?xml version="1.0" encoding="UTF-8"?>
<svg width="42px" height="37px" viewBox="0 0 42 37" version="1.1" xmlns="http://www.w3.org/2000/svg" xmlns:xlink="http://www.w3.org/1999/xlink">
    <!-- Generator: Sketch 48.2 (47327) - http://www.bohemiancoding.com/sketch -->
    <title>if_General_Office_61_2530801</title>
    <desc>Created with Sketch.</desc>
    <defs></defs>
    <g id="Page-1" stroke="none" stroke-width="1" fill="none" fill-rule="evenodd">
        <g id="if_General_Office_61_2530801" fill-rule="nonzero">
            <g id="Group">
                <polygon id="Shape" fill="#42C6B9" points="40.6878462 10.4877581 20.964 19.7621053 1.24338462 10.4877581 20.964 1.21066965"></polygon>
                <path d="M20.964,20.910262 C20.7936923,20.910262 20.6243077,20.8732542 20.4664615,20.7992385 L0.745846154,11.5244345 C0.341538462,11.3343695 0.084,10.9304815 0.0835384615,10.4873012 C0.0835384615,10.0441209 0.341076923,9.64023292 0.745384615,9.45016797 L20.4664615,0.173536394 C20.7812308,0.0255050392 21.1472308,0.0255050392 21.4615385,0.173536394 L41.1853846,9.45062486 C41.5896923,9.64068981 41.8476923,10.0445778 41.8476923,10.4877581 C41.8476923,10.9309384 41.5896923,11.3348264 41.1853846,11.5248914 L21.4615385,20.7992385 C21.3036923,20.8732542 21.1343077,20.910262 20.964,20.910262 Z M3.94523077,10.4877581 L20.964,18.4919597 L37.986,10.4877581 L20.964,2.48127212 L3.94523077,10.4877581 Z" id="Shape" fill="#454B53"></path>
            </g>
            <path d="M20.9980122,29 C20.8267454,29 20.6564068,28.9616197 20.4976717,28.884859 L0.665992131,19.2660828 C0.0844274776,18.9836793 -0.163422103,18.2734061 0.113204021,17.6796955 C0.389830145,17.0859848 1.08510856,16.8334327 1.66713735,17.1153623 L20.9984764,26.4915369 L40.3330644,17.1153623 C40.9160215,16.8334327 41.6108357,17.0859848 41.8869977,17.6796955 C42.1631597,18.27388 41.9157743,18.9836793 41.3342096,19.2660828 L21.4983528,28.884859 C21.3396177,28.9616197 21.1692791,29 20.9980122,29 Z" id="Shape" fill="#454B53"></path>
            <path d="M20.9980122,37 C20.8267454,37 20.6559427,36.9616227 20.4976717,36.8848681 L0.665992131,27.2659039 C0.0844274776,26.9835227 -0.163422103,26.2733056 0.113204021,25.6796418 C0.389830145,25.085978 1.08510856,24.8334458 1.66713735,25.1153532 L20.9984764,34.491735 L40.3330644,25.1153532 C40.9160215,24.8334458 41.6108357,25.0864518 41.8869977,25.6796418 C42.1631597,26.2733056 41.9157743,26.9835227 41.3342096,27.2659039 L21.4983528,36.8848681 C21.3396177,36.9616227 21.1692791,37 20.9980122,37 Z" id="Shape" fill="#454B53"></path>
        </g>
    </g>
</svg>